<?xml version="1.0" encoding="utf-8"?>
<!-- Generator: Adobe Illustrator 25.0.1, SVG Export Plug-In . SVG Version: 6.00 Build 0)  -->
<svg version="1.1" id="Layer_1" xmlns:serif="http://www.serif.com/"
	 xmlns="http://www.w3.org/2000/svg" xmlns:xlink="http://www.w3.org/1999/xlink" x="0px" y="0px" viewBox="0 0 1081.5 1082.9"
	 style="enable-background:new 0 0 1081.5 1082.9;" xml:space="preserve">
<style type="text/css">
	.st0{fill:none;}
	.st1{fill-rule:evenodd;clip-rule:evenodd;fill:#0336EE;}
	.st2{fill-rule:evenodd;clip-rule:evenodd;fill:#F1BB9B;}
	.st3{fill-rule:evenodd;clip-rule:evenodd;fill:#B6FF80;}
	.st4{fill-rule:evenodd;clip-rule:evenodd;fill:#FF356A;}
	.st5{fill-rule:evenodd;clip-rule:evenodd;fill:#0B63F6;}
	.st6{fill-rule:evenodd;clip-rule:evenodd;fill:#FFF9C4;}
	.st7{fill-rule:evenodd;clip-rule:evenodd;fill:#FFC400;}
	.st8{fill-rule:evenodd;clip-rule:evenodd;fill:#FF6D00;}
	.st9{fill-rule:evenodd;clip-rule:evenodd;fill:#FFFFFF;}
	.st10{fill-rule:evenodd;clip-rule:evenodd;fill:#1300A9;}
	.st11{fill-rule:evenodd;clip-rule:evenodd;fill:#FFAB00;}
	.st12{fill-rule:evenodd;clip-rule:evenodd;fill:#FFC107;}
	.st13{fill-rule:evenodd;clip-rule:evenodd;fill:#FFE082;}
	.st14{fill-rule:evenodd;clip-rule:evenodd;fill:#721359;}
	.st15{fill:#FF356A;}
</style>
<rect x="0" y="0.4" class="st0" width="1081" height="1082.5"/>
<path class="st1" d="M1081.5,0l-0.7,1082L0,1082.8V0.2L1081.5,0z"/>
<path class="st2" d="M1081.1,790.3L0,790.3v292.6l1081-0.1L1081.1,790.3z"/>
<path class="st3" d="M978.6,843.2v28.9l-8.5,8.6l-7.6,0.1L978.6,843.2z"/>
<path class="st3" d="M978.6,777v51.5l-37.4,52.4l-18.9,0.2L978.6,777z"/>
<path class="st4" d="M978.6,828.5v14.7l-16.1,37.5l-21.3,0.2L978.6,828.5z"/>
<path class="st4" d="M978.6,763.9V777l-56.3,104.1l-10.2,0.1l-6-6.6L978.6,763.9z"/>
<path class="st4" d="M900.9,765.4l-0.6-60.3l47.9-38.5h14.3L911.8,729l17.8,14.5L900.9,765.4z"/>
<path class="st3" d="M900.3,705.1l-0.2-24l5.5-14.4h42.6L900.3,705.1z"/>
<path class="st3" d="M902,869.9l-1.1-104.5l28.8-21.9L911.8,729l50.6-62.4h8.9l7.2,11.6v85.7l-72.4,110.7L902,869.9z M950,732.9
	l-4.4,16.8l-12.8,4.4l12.8,4.4l4.4,16.8l4.4-16.8l12.8-4.4l-12.8-4.4L950,732.9z"/>
<path class="st5" d="M284.6,857.3l-81.3,76.3l0.8,28.6h664.1v-28.6l-72.8-81.2l81.9,0.4l93.1,149.6H135.5l79.2-143.8L284.6,857.3z"
	/>
<path class="st6" d="M316.1,850.7h159.2l-2.8,22.5l48-0.5L517,896l48.7-0.1l7.2,24.2l-326.4,0L316.1,850.7z"/>
<path class="st6" d="M523.6,850.7l-3.2,22l-48,0.5l2.8-22.5H523.6z"/>
<path class="st6" d="M552.3,850.7l6.4,21.6l-38.3,0.4l3.2-22H552.3z"/>
<path class="st6" d="M517,896l3.4-23.2l38.3-0.4l7,23.5L517,896z"/>
<path class="st6" d="M572.9,920l-7.2-24.2l46.4-0.1l10.6,24.2L572.9,920z"/>
<path class="st6" d="M565.7,895.9l-7-23.5l43-0.4l10.4,23.8L565.7,895.9z"/>
<path class="st6" d="M592.5,850.7l9.2,21.2l-43,0.4l-6.4-21.6H592.5z"/>
<path class="st6" d="M637.6,850.7l12,20.8l-47.8,0.5l-9.2-21.2H637.6z"/>
<path class="st6" d="M612.2,895.8L601.8,872l47.8-0.5l13.9,24.2L612.2,895.8z"/>
<path class="st6" d="M622.7,920l-10.6-24.2l51.3-0.1l14,24.3L622.7,920z"/>
<path class="st6" d="M737.2,920l-14.7-24.4l46.5-0.1l14.6,24.5L737.2,920z"/>
<path class="st6" d="M677.5,920l-14-24.3l59-0.1l14.7,24.4L677.5,920z"/>
<path class="st6" d="M663.5,895.7l-13.9-24.2l58-0.5l14.9,24.6L663.5,895.7z"/>
<path class="st6" d="M722.5,895.6L707.6,871l46.4-0.4l14.9,25L722.5,895.6z"/>
<path class="st6" d="M785.8,870.2l-136.2,1.3l-12-20.8H768L785.8,870.2z"/>
<path class="st6" d="M808.8,895.4l-39.8,0.1l-14.9-25l31.7-0.3L808.8,895.4z"/>
<path class="st6" d="M783.6,920L769,895.5l39.8-0.1l22.4,24.6L783.6,920z"/>
<path class="st7" d="M868.2,933.6H203.3L305,838.2l478.1,0.6L868.2,933.6z M831.2,920L768,850.7h-452l-69.6,69.3L831.2,920z"/>
<path class="st8" d="M868.2,933.6v28.6H204.1l-0.8-28.6H868.2z"/>
<path class="st8" d="M357.7,806.4l316,0.9v9.9h-316V806.4z"/>
<path class="st8" d="M357.7,790.6l316,0.9v9.9h-316V790.6z"/>
<path class="st8" d="M357.7,773.7l316,0.9v9.9h-316V773.7z"/>
<path class="st8" d="M357.7,756.7l316,0.9v9.9h-316V756.7z"/>
<path class="st6" d="M713.7,703l-233.8,0.5v-15.4H593v-16.8h120.7V703z"/>
<path class="st9" d="M474.3,286.4l38.3,62.8l25.6-40.9l10.1,45.5l58.5-50.4l-29,69.4l49-7.6l-31.5,37.2l76.4,10.6l-74.4,23.6
	l35.5,31.4l-49.4,0.8l36.8,63.7l-63.8-39.9l-4.7,46.8l-30.1-36.1L491,572l-5.2-73.4l-41.4,26.9l11.8-45.9l-74.9,22.1l57.4-51.6
	L391.9,437l44.9-21.1l-62.8-41.2l76.7,9l-17.1-43.4l44.1,19.6L474.3,286.4z M541.9,380.8c0,0.2,0.6,2.4,1.9,6.5
	c2.1,6.7,3,10.2,2.6,10.4l-0.1,0c-0.2-0.1-1.4-1.3-3.8-3.6c-5.6-5.5-8.6-8.3-9-8.2c-0.1,0-0.4,0.2-1,0.5c-1.1,0.6-2.4,1.4-3.9,2.4
	c-1.5,1-2.3,1.6-2.2,1.8c0,0.2,1,2.8,3.1,8c2,5.1,3,7.7,3.1,7.9c0.1,0.4,0.2,0.6,0.1,0.6c-0.2,0.1-3.2-2-9.2-6.2
	c-1.6-1.1-3.2-2.1-4.8-3l-2.3-1.2l-4.1,2.5c-3.9,2.4-5.7,3.9-5.3,4.7c0.2,0.4,0.8,0.9,1.6,1.6c1.3,1,5.6,5.1,13.1,12.1
	c11.6,10.9,19.8,18.1,24.6,21.7l0.8,0.6l3.7-2.2c2.5-1.5,3.7-2.4,3.7-2.7c0-0.3-0.5-1.5-1.4-3.5c-1.9-4.3-2.6-6.7-1.8-7.3
	c0.4-0.3,0.9-0.2,1.6,0.4c0.2,0.2,0.9,0.8,2.1,1.7c1.2,0.9,2.4,1.8,3.5,2.7c1.1,0.9,1.8,1.5,2.1,1.7c0.4,0.4,0.7,0.6,1,0.5
	c0.2,0,1-0.4,2.2-1l0.9-0.5c1.1-0.6,1.8-1.1,2.1-1.5c0.2-0.4,0.3-1,0.1-1.8c0-0.2-0.1-0.8-0.4-1.7c-0.2-0.9-0.5-2.1-0.8-3.6
	c-0.3-1.4-0.6-2.8-0.8-4c-2.9-13.8-4.7-22-5.4-24.5l-0.9-3.3c0-0.2-0.7-2.5-2-6.9c-1.3-4.4-2-6.7-2.2-7c-0.2-0.3-0.5-0.4-0.9-0.3
	c-0.4,0.1-1.7,0.8-3.9,1.8c-3.4,1.7-5.4,2.7-6,2.9C542.5,380.1,541.9,380.4,541.9,380.8z M459.2,425.6c-1.1,0.9-2.1,2-3.1,3.3
	c-1,1.2-1.6,1.8-1.9,2l-0.1,0c-0.4,0.1-0.5,0.4-0.4,0.7l0.5,0.9c0.5,1,4.8,8.2,12.8,21.8c3.6,6.1,7.4,12.4,11.4,19.1
	c0.8,1.2,1.2,2,1.5,2.2c0.2,0.2,0.5,0.3,0.8,0.1c1.8-0.6,4.1-1.5,7.1-3c0.2-0.1,0.6-0.3,0.9-0.5c0.4-0.2,0.6-0.3,0.8-0.4
	c1.1-0.6,1.6-1,1.6-1.4c0-0.1,0-0.2-0.1-0.4c-0.2-0.5-0.7-1.1-1.4-1.9c-1.6-2.2-3.4-4.8-5.5-7.9c-0.6-0.9-1.3-2-2.1-3.2
	c-0.8-1.2-1.4-2.2-1.9-2.9s-0.9-1.3-1.1-1.5l-1.1-1.6l1.3-1c3.5-2.5,6-5.4,7.5-8.7c1.6-3.3,1.9-6.7,1-10.2c-0.3-1.2-0.7-2.2-1.2-3.1
	c-2.1-3.8-5.4-6.2-10.1-7.2c-4.7-1-9.2-0.4-13.6,2C461.6,423.8,460.3,424.6,459.2,425.6z M493.6,407.3c-0.8,0.6-1.8,1.3-3,1.9
	l-2,1.1l0.1,1.4c0.1,1.4,2.8,16.1,8.2,44c1.1,6.2,1.7,9.5,1.6,9.7c-0.1,0.3,0,0.5,0.3,0.7c0.2,0.2,1.6-0.3,4.2-1.5
	c4.3-2.1,8-3.9,11.1-5.6c0.3-0.2,0.7-0.4,1-0.6c0.4-0.2,0.6-0.4,0.6-0.4c0.1-0.1,0.2-0.2,0.1-0.5c0-0.3-0.1-0.5-0.3-0.6
	c-0.1-0.2-0.3-0.2-0.4-0.1c-0.2,0.1-0.3,0-0.4-0.2c-0.2-0.5-0.6-2.3-1.1-5.4l-0.8-5l2.1,1.2c1.2,0.7,2.6,1.8,4.2,3.3
	c1.1,1,1.7,1.7,1.9,2c0.1,0.2,0.1,0.5-0.1,0.8c-0.2,0.3-0.2,0.6-0.1,0.8c0.2,0.4,1.8-0.2,4.8-1.7c3.1-1.6,5.6-2.8,7.5-3.7
	c0.6-0.3,1.2-0.6,2-1c1-0.6,1.7-1.1,1.9-1.6c0.3-0.6,0.4-1.1,0.3-1.3c-0.2-0.3-5.9-5.8-17.4-16.7s-18.3-17.4-20.7-19.6
	c-1.8-1.6-2.8-2.4-3.2-2.6c-0.3-0.1-0.5-0.1-0.8,0.1C494.7,406.4,494.2,406.7,493.6,407.3z"/>
<path class="st10" d="M672.4,277.6v310.1H362.1l0.1-311.4L672.4,277.6z M474.3,286.4l3.4,73.5l-44.1-19.6l17.1,43.4l-76.7-9
	l62.8,41.2L391.9,437l46.9,13.2l-57.4,51.6l74.9-22.1l-11.8,45.9l41.4-26.9L491,572l30.6-68.8l30.1,36.1l4.7-46.8l63.8,39.9
	l-36.8-63.7l49.4-0.8l-35.5-31.4l74.4-23.6l-76.4-10.6l31.5-37.2l-49,7.6l29-69.4l-58.5,50.4l-10.1-45.5l-25.6,40.9L474.3,286.4z"/>
<path class="st11" d="M325.3,233.9l36.9,42.4l-0.1,311.4l-36.8,46.8V233.9z"/>
<path class="st11" d="M708.9,233.8l-36.5,43.8l-310.2-1.4l-36.9-42.4L708.9,233.8z"/>
<path class="st11" d="M325.3,634.5l36.8-46.8h310.3V277.6l36.5-43.8v400.7H325.3z"/>
<path class="st12" d="M711,746.5v80.9H323.4v-80.9H711z M357.7,790.6v10.8h316v-9.9L357.7,790.6z M357.7,806.4v10.8h316v-9.9
	L357.7,806.4z M357.7,773.7v10.8h316v-9.9L357.7,773.7z M357.7,756.7v10.8h316v-9.9L357.7,756.7z"/>
<path class="st13" d="M287.7,746.5V196.1l462.9-0.9v551.2H287.7z M325.3,233.9v400.7h383.6V233.8L325.3,233.9z M713.7,703v-31.6H593
	v16.8H479.9v15.4L713.7,703z"/>
<path class="st14" d="M287.7,192.1l462.9-0.9c1.1,0,2.1,0.4,2.8,1.2c0.8,0.8,1.2,1.8,1.2,2.8v551.2c0,2.2-1.8,4-4,4H287.7
	c-2.2,0-4-1.8-4-4V196.1C283.7,193.9,285.5,192.2,287.7,192.1z M291.7,200.1v542.4h454.9V199.3L291.7,200.1z"/>
<path class="st14" d="M712.9,233.8v400.7c0,2.2-1.8,4-4,4H325.3c-2.2,0-4-1.8-4-4V233.9c0-2.2,1.8-4,4-4l383.6,0
	c1.1,0,2.1,0.4,2.8,1.2S712.9,232.8,712.9,233.8z M704.9,237.8l-375.6,0v392.7h375.6V237.8z"/>
<path class="st14" d="M362.2,272.3l310.2,1.4c2.2,0,4,1.8,4,4v310.1c0,2.2-1.8,4-4,4H362.1c-1.1,0-2.1-0.4-2.8-1.2s-1.2-1.8-1.2-2.8
	l0.1-311.4c0-1.1,0.4-2.1,1.2-2.8C360.1,272.7,361.1,272.3,362.2,272.3z M366.2,280.3l-0.1,303.4h302.3V281.6L366.2,280.3z"/>
<path class="st14" d="M705.8,231.3l6.2,5.1l-36.5,43.8l-6.2-5.1L705.8,231.3z"/>
<path class="st14" d="M322.3,236.5l6-5.2l36.9,42.4l-6,5.2L322.3,236.5z"/>
<path class="st14" d="M358.9,585.2l6.3,4.9L328.4,637l-6.3-4.9L358.9,585.2z"/>
<path class="st14" d="M669.3,590.2l6.3-4.9l35.7,45.2l-6.3,4.9L669.3,590.2z"/>
<path class="st14" d="M713.7,705l-233.8,0.5c-0.5,0-1-0.2-1.4-0.6c-0.4-0.4-0.6-0.9-0.6-1.4v-15.4c0-1.1,0.9-2,2-2H591v-14.8
	c0-1.1,0.9-2,2-2h120.7c1.1,0,2,0.9,2,2V703C715.7,704.1,714.8,705,713.7,705z M711.7,701v-27.6H595v14.8c0,1.1-0.9,2-2,2H481.9
	v11.4L711.7,701z"/>
<path class="st14" d="M707,746.5h8v80.9c0,2.2-1.8,4-4,4H323.4c-2.2,0-4-1.8-4-4v-80.9h8v76.9H707V746.5z"/>
<path class="st14" d="M357.7,754.7l316,0.9c1.1,0,2,0.9,2,2v9.9c0,1.1-0.9,2-2,2h-316c-1.1,0-2-0.9-2-2v-10.8c0-0.5,0.2-1,0.6-1.4
	C356.7,754.9,357.2,754.7,357.7,754.7z M359.7,758.7v6.8h312v-5.9L359.7,758.7z"/>
<path class="st14" d="M357.7,771.7l316,0.9c1.1,0,2,0.9,2,2v9.9c0,1.1-0.9,2-2,2h-316c-1.1,0-2-0.9-2-2v-10.8c0-0.5,0.2-1,0.6-1.4
	C356.7,771.9,357.2,771.7,357.7,771.7z M359.7,775.7v6.8h312v-5.9L359.7,775.7z"/>
<path class="st14" d="M357.7,788.6l316,0.9c1.1,0,2,0.9,2,2v9.9c0,1.1-0.9,2-2,2h-316c-1.1,0-2-0.9-2-2v-10.8c0-0.5,0.2-1,0.6-1.4
	C356.7,788.8,357.2,788.6,357.7,788.6z M359.7,792.6v6.8h312v-5.9L359.7,792.6z"/>
<path class="st14" d="M357.7,804.4l316,0.9c1.1,0,2,0.9,2,2v9.9c0,1.1-0.9,2-2,2h-316c-1.1,0-2-0.9-2-2v-10.8c0-0.5,0.2-1,0.6-1.4
	C356.7,804.6,357.2,804.4,357.7,804.4z M359.7,808.4v6.8h312v-5.9L359.7,808.4z"/>
<path class="st14" d="M305,834.2l478.1,0.6c1.1,0,2.2,0.5,3,1.3l85.1,94.9c1.1,1.2,1.3,2.9,0.7,4.3c-0.6,1.4-2.1,2.4-3.6,2.4H203.3
	c-1.6,0-3.1-1-3.7-2.5c-0.6-1.5-0.2-3.3,1-4.4l101.7-95.5C303,834.5,304,834.2,305,834.2z M306.6,842.2l-93.2,87.5h645.8l-77.9-86.9
	L306.6,842.2z"/>
<path class="st14" d="M864.2,933.6h8v28.6c0,2.2-1.8,4-4,4H204.1c-2.2,0-3.9-1.7-4-3.9l-0.8-28.6l8-0.2l0.7,24.7h656.2V933.6z"/>
<path class="st14" d="M243.7,917.3l69.6-69.4c0.8-0.8,1.8-1.2,2.8-1.2h452c1.1,0,2.2,0.5,3,1.3l63.2,69.3c1.1,1.2,1.3,2.9,0.7,4.3
	s-2.1,2.4-3.7,2.4l-584.7,0.1c-1.6,0-3.1-1-3.7-2.5C242.2,920.1,242.5,918.4,243.7,917.3z M256.2,916.1l566-0.1l-55.9-61.3H317.7
	L256.2,916.1z"/>
<path class="st14" d="M270.2,900.4l0-8l538.6-1l0,8L270.2,900.4z"/>
<path class="st14" d="M291.9,878.9l-0.1-8l494-4.7l0.1,8L291.9,878.9z"/>
<path class="st14" d="M346.6,848.5l6.6,4.5l-46.9,69.3l-6.6-4.5L346.6,848.5z"/>
<path class="st14" d="M386.4,849.3l7.5,2.9l-17.6,45.5l-7.5-2.9L386.4,849.3z"/>
<path class="st14" d="M430.2,849.9l7.8,1.8L427.7,897l-7.8-1.8L430.2,849.9z"/>
<path class="st14" d="M471.2,850.2l7.9,1l-5.7,45.3l-7.9-1L471.2,850.2z"/>
<path class="st14" d="M519.7,850.2l7.9,1.2l-6.7,45.2l-7.9-1.2L519.7,850.2z"/>
<path class="st14" d="M548.5,851.9l7.7-2.3l20.5,69.3l-7.7,2.3L548.5,851.9z"/>
<path class="st14" d="M588.9,852.3l7.3-3.2l30.2,69.3l-7.3,3.2L588.9,852.3z"/>
<path class="st14" d="M634.2,852.7l6.9-4l39.9,69.3l-6.9,4L634.2,852.7z"/>
<path class="st14" d="M693.4,855.2l6.9-4.1l40.4,66.9l-6.9,4.1L693.4,855.2z"/>
<path class="st14" d="M739.7,854.3l6.9-4.1l40.4,67.7l-6.9,4.1L739.7,854.3z"/>
<path class="st14" d="M284.6,853.3l0.1,8l-67.6,1.3l-74.8,135.9h820.9l-88.1-141.6l-79.7-0.4l0-8l81.9,0.4c1.4,0,2.6,0.7,3.4,1.9
	l93.1,149.6c0.8,1.2,0.8,2.8,0.1,4.1c-0.7,1.3-2,2.1-3.5,2.1H135.5c-1.4,0-2.7-0.7-3.4-2s-0.8-2.7-0.1-4l79.2-143.8
	c0.7-1.3,2-2.1,3.4-2.1L284.6,853.3z"/>
<path class="st14" d="M896.8,679.8l5.5-14.4c0.5-1.4,1.8-2.2,3.3-2.2h65.8c1.2,0,2.3,0.6,3,1.6l7.2,11.6c0.4,0.6,0.5,1.2,0.5,1.9
	v193.9c0,0.9-0.4,1.8-1,2.5l-8.5,8.6c-0.7,0.7-1.5,1-2.5,1l-57.9,0.5c-1,0-2-0.4-2.6-1.2l-10.2-11.2c-0.6-0.6-0.9-1.5-0.9-2.3
	l-1.9-188.9C896.6,680.7,896.6,680.2,896.8,679.8z M903.6,681.7l1.9,186.9l8.3,9.1l54.9-0.5l6.5-6.6V679.2l-5.7-9.1H908L903.6,681.7
	z"/>
<path class="st14" d="M960.5,665l3.9,3.2l-49,60.4l15.9,12.9c0.6,0.5,0.9,1.2,0.9,2c0,0.8-0.4,1.5-1,1.9l-28.8,21.9l-3-4l26.2-20
	L910.3,731c-1.1-0.9-1.2-2.5-0.4-3.5L960.5,665z"/>
<path class="st14" d="M946.6,664.7l3.1,3.9L901.9,707l-3.1-3.9L946.6,664.7z"/>
<path class="st14" d="M908.3,875.9l-4.2-2.7l72.4-110.7l4.2,2.7L908.3,875.9z"/>
<path class="st14" d="M924.5,882.3l-4.4-2.4l56.3-104.1l4.4,2.4L924.5,882.3z"/>
<path class="st14" d="M976.6,827.1l4.1,2.9l-37.4,52.4l-4.1-2.9L976.6,827.1z"/>
<path class="st14" d="M976.3,842.2l4.6,2l-16.1,37.6l-4.6-2L976.3,842.2z"/>
<path class="st14" d="M951.5,732.5l4.2,16l12,4.1c0.6,0.2,1,0.8,1,1.4s-0.4,1.2-1,1.4l-12,4.1l-4.2,16c-0.2,0.7-0.8,1.1-1.4,1.1
	c-0.7,0-1.3-0.5-1.5-1.1l-4.2-16l-12-4.1c-0.6-0.2-1-0.8-1-1.4s0.4-1.2,1-1.4l12-4.1l4.2-16c0.2-0.7,0.8-1.1,1.5-1.1
	C950.7,731.4,951.3,731.9,951.5,732.5z M950,738.9l-2.9,11.2c-0.1,0.5-0.5,0.9-1,1l-8.6,2.9l8.6,2.9c0.5,0.2,0.8,0.6,1,1l2.9,11.2
	l2.9-11.2c0.1-0.5,0.5-0.9,1-1l8.6-2.9l-8.6-2.9c-0.5-0.2-0.8-0.6-1-1L950,738.9z"/>
<rect y="787" class="st14" width="323.8" height="8"/>
<path class="st14" d="M711,794.8l0-8l190.7-0.1l0,8L711,794.8z"/>
<path class="st14" d="M978.4,794.6v-8l102.7-0.1l0,8L978.4,794.6z"/>
<path class="st14" d="M89,788.7l6.5,4.6L0,927.5v-13.1L89,788.7z"/>
<path class="st14" d="M223.6,789.2l7.1,3.6l-146.9,290h-9L223.6,789.2z"/>
<path class="st14" d="M1002.3,792.9l6.6-4.5l72,104.9l0,14.1L1002.3,792.9z"/>
<path class="st14" d="M825.6,792.8l6.8-4.3l39.5,62.1l-6.8,4.3L825.6,792.8z"/>
<path class="st14" d="M959.8,1004.2l6.8-4.3l52.7,82.9l-9.4,0.1L959.8,1004.2z"/>
<path class="st14" d="M345.3,1082.8h-8.2l19.4-81.3l7.8,1.9L345.3,1082.8z"/>
<path class="st14" d="M568,1082.8l-8,0v-80.4h8V1082.8z"/>
<path class="st14" d="M791,1082.8h-8.4l-26.2-79.1l7.6-2.5L791,1082.8z"/>
<path class="st14" d="M477.7,284.3l34.9,57.3l22.2-35.4c0.9-1.4,2.5-2.1,4.1-1.8c1.6,0.3,2.9,1.5,3.2,3.1l8.7,39l53.5-46.1
	c1.4-1.2,3.5-1.3,5-0.2c1.5,1.1,2.1,3.1,1.3,4.8l-26.2,62.8l41.9-6.5c1.6-0.3,3.3,0.5,4.1,2c0.8,1.5,0.6,3.3-0.4,4.5l-26.8,31.6
	l69.2,9.6c1.9,0.3,3.3,1.8,3.4,3.6c0.2,1.9-1,3.6-2.8,4.2l-67.7,21.5l30.2,26.7c1.2,1.1,1.7,2.8,1.1,4.4c-0.6,1.5-2,2.6-3.7,2.6
	l-42.6,0.7l33.4,57.8c0.9,1.6,0.6,3.6-0.7,4.9c-1.3,1.3-3.3,1.5-4.9,0.5l-58.4-36.5l-4.1,40.4c-0.2,1.6-1.3,2.9-2.8,3.4
	c-1.5,0.5-3.2,0-4.2-1.3l-26-31.2l-28,62.9c-0.7,1.7-2.5,2.6-4.3,2.3c-1.8-0.3-3.2-1.8-3.3-3.7l-4.7-66.6L446.6,529
	c-1.4,0.9-3.2,0.9-4.5-0.1c-1.3-1-2-2.6-1.5-4.3l10.1-39.1l-68.1,20.1c-1.8,0.5-3.7-0.3-4.6-1.9c-0.9-1.6-0.6-3.7,0.8-4.9l52-46.7
	l-39.9-11.2c-1.6-0.5-2.8-1.9-2.9-3.5c-0.1-1.7,0.8-3.2,2.3-4l38.4-18L371.7,378c-1.6-1-2.2-3-1.6-4.7c0.6-1.7,2.4-2.8,4.2-2.6
	l70.1,8.2l-14.6-37.2c-0.6-1.5-0.2-3.2,1-4.4c1.2-1.1,2.9-1.4,4.4-0.8l38.2,17l-3.1-67c-0.1-1.8,1.1-3.5,2.8-4
	C474.8,282,476.7,282.7,477.7,284.3z M479,301.8l2.7,57.9c0.1,1.4-0.6,2.7-1.7,3.5c-1.1,0.8-2.6,0.9-3.9,0.4l-35.2-15.6l13.5,34.3
	c0.5,1.3,0.3,2.8-0.6,3.9c-0.9,1.1-2.2,1.7-3.6,1.5l-59.9-7l48.7,32c1.2,0.8,1.9,2.2,1.8,3.6c-0.1,1.4-1,2.7-2.3,3.3l-35.2,16.5
	l36.6,10.3c1.4,0.4,2.5,1.5,2.8,2.9c0.3,1.4-0.1,2.9-1.2,3.9L397.2,493l58-17.1c1.4-0.4,2.9,0,3.9,1c1,1,1.5,2.5,1.1,3.9l-9.3,35.9
	l32.8-21.3c1.2-0.8,2.7-0.9,4-0.2c1.3,0.6,2.1,1.9,2.2,3.3l4,57.4l24.1-54.1c0.6-1.3,1.7-2.1,3.1-2.3c1.4-0.2,2.7,0.3,3.6,1.4
	l24,28.8l3.8-37.3c0.1-1.4,1-2.6,2.2-3.2c1.2-0.6,2.7-0.5,3.9,0.2l50.2,31.4L580,470.8c-0.7-1.2-0.7-2.7,0-4c0.7-1.2,2-2,3.4-2
	l39.1-0.7l-27.8-24.6c-1.1-1-1.6-2.4-1.3-3.8c0.3-1.4,1.3-2.5,2.7-3l57.6-18.3l-59-8.2c-1.4-0.2-2.7-1.2-3.2-2.5
	c-0.5-1.4-0.3-2.9,0.7-4l24.5-29l-38.4,6c-1.4,0.2-2.9-0.3-3.8-1.5c-0.9-1.1-1.1-2.7-0.5-4l22.4-53.7l-45.7,39.4
	c-1.1,0.9-2.5,1.2-3.9,0.8c-1.3-0.4-2.3-1.6-2.7-2.9l-8-36L516,351.3c-0.7,1.2-2,1.9-3.4,1.9c-1.4,0-2.7-0.7-3.4-1.9L479,301.8z"/>
<path class="st15" d="M475.5,434.7c-0.7,0.2-1.3,0.3-1.6,0.2c-0.3,0-0.8-0.3-1.4-0.7c-0.7-0.5-1.1-0.7-1.2-0.6s0,0.6,0.3,1.6
	c0.2,0.7,0.3,1.3,0.1,1.9c-0.2,0.6-0.6,1.2-1.2,1.9l-0.9,1l1.4-0.5c0.9-0.3,1.4-0.3,1.6,0.1c0.1,0.2,0.2,0.7,0.3,1.7l0.1,1.4
	l0.7-1.8c0.4-1.1,0.8-1.8,1.1-2c0.2-0.1,0.5-0.1,0.7,0.1c0.2,0.2,1,0.2,2.3,0l1.8-0.4l-1.5-0.5c-1-0.3-1.5-0.6-1.7-1
	c-0.2-0.3-0.1-0.9,0.3-1.7l0.6-1.2L475.5,434.7z M459.2,425.6c1.1-0.9,2.3-1.8,3.7-2.5c4.4-2.4,8.9-3,13.6-2c4.7,1,8,3.4,10.1,7.2
	c0.5,0.9,0.9,2,1.2,3.1c0.9,3.5,0.5,6.8-1,10.2c-1.5,3.3-4,6.2-7.5,8.7l-1.3,1l1.1,1.6c0.2,0.3,0.5,0.8,1,1.5
	c0.5,0.8,1.2,1.7,1.9,2.9c0.8,1.2,1.5,2.2,2.1,3.2c2,3.1,3.9,5.8,5.5,7.9c0.7,0.8,1.1,1.4,1.4,1.9c0.1,0.2,0.1,0.3,0.1,0.4
	c0,0.4-0.5,0.8-1.6,1.4c-0.1,0.1-0.4,0.2-0.7,0.4c-0.4,0.2-0.7,0.3-0.9,0.5c-3,1.4-5.3,2.4-7.1,3c-0.4,0.1-0.7,0.1-0.9-0.1
	c-0.2-0.2-0.7-1-1.5-2.2c-4-6.7-7.7-13.1-11.4-19.1c-8-13.6-12.3-20.8-12.8-21.8l-0.5-0.9c-0.1-0.3,0-0.6,0.4-0.7l0.1,0
	c0.3-0.2,1-0.8,1.9-2C457.1,427.6,458.2,426.5,459.2,425.6z"/>
<path class="st15" d="M504.7,432.3c-1.4-1.6-2.2-2.5-2.5-2.6l-0.4-0.1c-0.2,0.1-0.1,0.8,0.3,2.2l0.6,2.4l-1.3,1l-1.2,1.1l1.6-0.3
	c0.6-0.1,1.1-0.1,1.4-0.1c0.3,0,0.5,0.2,0.7,0.5c0.1,0.3,0.3,0.7,0.4,1.2c0.2,0.8,0.4,1.3,0.5,1.4c0.2,0,0.4-0.5,0.7-1.4
	c0.3-0.9,0.7-1.5,0.9-1.6c0.3-0.1,0.8-0.1,1.6,0.1l1.2,0.4l-0.5-1.2c-0.4-0.8-0.4-1.6,0-2.5c0.5-1.2,0.6-1.9,0.5-2.1
	c0-0.1-0.1-0.1-0.3,0c-0.2,0.1-0.3,0.2-0.3,0.2c-0.1,0.1-0.4,0.3-0.8,0.5C506.2,432.3,505.1,432.6,504.7,432.3z M493.6,407.3
	c0.7-0.6,1.1-0.9,1.5-1.1c0.3-0.1,0.5-0.2,0.8-0.1c0.4,0.2,1.5,1.1,3.2,2.6c2.4,2.2,9.3,8.7,20.7,19.6
	c11.4,10.9,17.2,16.4,17.4,16.7c0.1,0.3,0.1,0.7-0.3,1.4c-0.2,0.5-0.9,1-1.9,1.5c-0.8,0.4-1.4,0.8-2,1c-1.9,0.9-4.3,2.1-7.5,3.7
	c-3,1.5-4.6,2-4.8,1.7c-0.1-0.2-0.1-0.4,0.1-0.7c0.2-0.3,0.2-0.6,0.1-0.8c-0.2-0.3-0.8-1-1.9-2c-1.6-1.5-3-2.5-4.2-3.3l-2.1-1.2
	l0.8,4.9c0.5,3.2,0.9,5,1.1,5.4c0.1,0.2,0.2,0.3,0.4,0.2c0.2-0.1,0.3,0,0.5,0.1c0.1,0.2,0.2,0.4,0.3,0.6c0,0.3,0,0.4-0.1,0.5
	c0,0-0.2,0.1-0.6,0.4c-0.4,0.2-0.7,0.4-1,0.6c-3.1,1.7-6.8,3.5-11,5.6c-2.6,1.2-4,1.7-4.2,1.5c-0.3-0.2-0.4-0.5-0.3-0.7
	c0.1-0.2-0.4-3.4-1.6-9.7c-5.4-28-8.1-42.6-8.2-44.1l-0.1-1.4l2-1.1C491.8,408.5,492.8,407.9,493.6,407.3z"/>
<path class="st15" d="M541.9,380.8c0-0.3,0.6-0.7,1.7-1.1c0.6-0.2,2.6-1.2,6-2.9c2.1-1.1,3.4-1.7,3.8-1.9c0.4-0.1,0.7,0,0.9,0.3
	c0.2,0.3,0.9,2.7,2.2,7c1.3,4.4,2,6.7,2,6.9l0.9,3.3c0.7,2.5,2.5,10.6,5.4,24.5c0.3,1.2,0.5,2.6,0.8,4c0.3,1.4,0.6,2.6,0.8,3.5
	c0.2,0.9,0.3,1.5,0.4,1.7c0.2,0.8,0.2,1.4-0.1,1.8c-0.2,0.4-0.9,0.9-2.1,1.5l-0.9,0.5c-1.3,0.6-2,1-2.2,1c-0.2,0-0.5-0.1-1-0.5
	c-0.3-0.3-1-0.9-2.2-1.8c-1.1-0.9-2.3-1.8-3.5-2.7c-1.2-0.9-1.9-1.5-2.1-1.7c-0.7-0.5-1.2-0.7-1.6-0.4c-0.8,0.6-0.2,3,1.8,7.3
	c0.9,2,1.3,3.2,1.4,3.5c0,0.3-1.2,1.2-3.7,2.7l-3.7,2.2l-0.8-0.6c-4.8-3.6-13-10.8-24.6-21.7c-7.5-7-11.8-11-13.1-12.1
	c-0.9-0.7-1.4-1.2-1.6-1.6c-0.4-0.7,1.4-2.3,5.3-4.7l4.2-2.5l2.3,1.2c1.6,0.9,3.2,1.9,4.8,3c6,4.2,9,6.3,9.2,6.2c0,0,0-0.2-0.1-0.6
	c0-0.1-1.1-2.8-3.1-7.9s-3-7.8-3-8c0-0.2,0.7-0.8,2.2-1.8c1.5-1,2.9-1.8,3.9-2.4c0.5-0.3,0.9-0.4,1-0.4c0.4-0.1,3.4,2.6,9,8.1
	c2.4,2.3,3.7,3.5,3.8,3.6l0.1,0c0.4-0.2-0.5-3.7-2.6-10.4C542.5,383.1,541.9,381,541.9,380.8z"/>
</svg>
