<?xml version="1.0" encoding="UTF-8"?>
<svg id="Layer_1" data-name="Layer 1" xmlns="http://www.w3.org/2000/svg" xmlns:xlink="http://www.w3.org/1999/xlink" viewBox="0 0 2000 1500">
  <defs>
    <style>
      .cls-1 {
        fill: url(#linear-gradient);
      }

      .cls-2 {
        fill: #671cc9;
      }

      .cls-3 {
        fill: url(#New_Gradient_Swatch_copy_25-2);
      }

      .cls-4 {
        fill: url(#New_Gradient_Swatch_copy_25-3);
      }

      .cls-5 {
        fill: url(#New_Gradient_Swatch_copy_25);
      }

      .cls-6 {
        fill: url(#linear-gradient-3);
      }

      .cls-7 {
        fill: url(#linear-gradient-2);
      }

      .cls-8 {
        fill: url(#linear-gradient-4);
        opacity: .56;
      }
    </style>
    <linearGradient id="linear-gradient" x1="637.38" y1="872.47" x2="2392.16" y2="403.63" gradientUnits="userSpaceOnUse">
      <stop offset="0" stop-color="#ffe4a7"/>
      <stop offset=".1" stop-color="#fac098"/>
      <stop offset=".2" stop-color="#f49587"/>
      <stop offset=".56" stop-color="#a142b4"/>
      <stop offset=".74" stop-color="#7c1dc9"/>
      <stop offset=".76" stop-color="#7825cb"/>
      <stop offset=".81" stop-color="#6f3ed1"/>
      <stop offset=".86" stop-color="#6065db"/>
      <stop offset=".92" stop-color="#4b9ce8"/>
      <stop offset=".98" stop-color="#31e0f9"/>
      <stop offset="1" stop-color="#2af6ff"/>
    </linearGradient>
    <linearGradient id="linear-gradient-2" x1="133.89" y1="156.58" x2="1038.07" y2="812.95" gradientUnits="userSpaceOnUse">
      <stop offset="0" stop-color="#445eaf"/>
      <stop offset=".53" stop-color="#1cc4af"/>
      <stop offset="1" stop-color="#deffca"/>
    </linearGradient>
    <linearGradient id="New_Gradient_Swatch_copy_25" data-name="New Gradient Swatch copy 25" x1="133.44" y1="731.19" x2="1672.3" y2="731.19" gradientUnits="userSpaceOnUse">
      <stop offset="0" stop-color="#25054d"/>
      <stop offset="1" stop-color="#45108a"/>
    </linearGradient>
    <linearGradient id="New_Gradient_Swatch_copy_25-2" data-name="New Gradient Swatch copy 25" x1="940.72" y1="402.43" x2="1451.04" y2="402.43" xlink:href="#New_Gradient_Swatch_copy_25"/>
    <linearGradient id="linear-gradient-3" x1="1235.52" y1="-12.32" x2="1257.85" y2="1036.98" xlink:href="#linear-gradient"/>
    <linearGradient id="New_Gradient_Swatch_copy_25-3" data-name="New Gradient Swatch copy 25" x1="1174.76" y1="327.72" x2="1300.04" y2="327.72" xlink:href="#New_Gradient_Swatch_copy_25"/>
    <linearGradient id="linear-gradient-4" x1="164.52" y1="1547.11" x2="532.53" y2="1038.03" gradientUnits="userSpaceOnUse">
      <stop offset=".26" stop-color="#000" stop-opacity="0"/>
      <stop offset="1" stop-color="#000"/>
    </linearGradient>
  </defs>
  <rect class="cls-2" width="2000" height="1500"/>
  <g>
    <polygon class="cls-1" points="1733.35 854.12 945.47 1314.44 130.01 854.12 133.44 735.95 133.45 735.17 924.78 271.4 1724.73 731.72 1724.79 732.72 1733.35 854.12"/>
    <polygon class="cls-7" points="1724.79 732.72 1672.3 764.27 1502.44 866.34 948.92 1198.93 739.18 1079.86 599.21 1000.38 273.32 815.36 133.44 735.95 133.45 735.17 735.17 382.52 924.78 271.4 1724.73 731.72 1724.79 732.72"/>
    <path class="cls-5" d="m1672.3,764.27l-169.86,102.07c-68.94-18.87-276.95-60.71-294.92-62.21-19.32-1.61-415.66,243.13-468.34,275.73l-139.96-79.48c151.38-88.12,268.69-154.38,361.77-203.15,19.52-10.23,61.74-32.13,62.06-62.06.22-20.96-20.15-39.8-134.47-103.44-80.15-44.62-120.22-66.93-136.2-68.96-75.23-9.56-123.3,41.09-241.36,118.96-54.08,35.66-133.61,84.14-237.69,133.64l-139.88-79.42.02-.78,601.71-352.64c54.24,30.28,159.02,87.46,263.74,137.14,78.91,37.43,139.1,61.75,191.37,82.75,117.18,47.09,278.91,105.88,482.02,161.85Z"/>
    <path class="cls-3" d="m1388.54,617.93c-28.64,65.11-63.42,113.13-87.93,143.09-18.01-6.62-36.03-13.25-54.04-19.87-31.99-11.76-63.96-23.53-95.95-35.29-25.68-15.45-182.33-113.05-206.88-291.36-2.41-17.46-10.28-84.64,15.52-163.78,39.67-121.72,129.54-181.37,153.44-191.37,19.65-8.22,39.65-12.07,39.65-12.07,12.37-2.38,23.05-3.19,31.03-3.45,54.48,5.76,95.89,20.05,126.67,35.89,33.94,17.45,54.98,36.76,66.42,48.59,153.21,158.4,24.95,460.33,12.07,489.62Z"/>
    <path class="cls-6" d="m1388.54,617.93c-28.64,65.11-63.42,113.13-87.93,143.09-18.01-6.62-36.03-13.25-54.04-19.87-136.64-99.04-259.75-328.87-192.5-495.61,33.46-82.94,118.21-160.69,215.5-167.23,13.66-.93,27.17-.4,40.47,1.4,33.94,17.45,54.98,36.76,66.42,48.59,153.21,158.4,24.95,460.33,12.07,489.62Z"/>
    <ellipse class="cls-4" cx="1237.4" cy="327.72" rx="62.64" ry="92.52"/>
  </g>
  <polygon class="cls-8" points="945.47 1314.44 666.9 1500 0 1500 0 927.05 130.01 854.12 945.47 1314.44"/>
</svg>