<?xml version="1.0" encoding="UTF-8"?>
<svg id="Layer_1" data-name="Layer 1" xmlns="http://www.w3.org/2000/svg" viewBox="0 0 2000 2000">
  <defs>
    <style>
      .cls-1 {
        fill: #b5b1c7;
      }

      .cls-1, .cls-2, .cls-3, .cls-4, .cls-5 {
        stroke-width: 0px;
      }

      .cls-2 {
        fill: #3c3b59;
      }

      .cls-3 {
        fill: #7dcecd;
      }

      .cls-4 {
        fill: #b44198;
      }

      .cls-5 {
        fill: #d7df23;
      }
    </style>
  </defs>
  <rect class="cls-3" y="0" width="2000" height="2000"/>
  <g>
    <polygon class="cls-5" points="418.62 642.84 800.94 300.54 1582.28 298.52 1582.28 1690.4 811.27 1690.4 418.62 1566.43 418.62 642.84"/>
    <rect class="cls-1" x="927.26" y="1207.68" width="185.97" height="218.15"/>
    <rect class="cls-1" x="1275.94" y="1207.68" width="185.97" height="218.15"/>
    <rect class="cls-1" x="813.19" y="502.25" width="460.7" height="377.17"/>
    <ellipse class="cls-4" cx="910.32" cy="1001.46" rx="99.82" ry="32.2"/>
    <ellipse class="cls-4" cx="1233.85" cy="1001.46" rx="99.82" ry="32.2"/>
    <rect class="cls-4" x="885.56" y="345.46" width="611.3" height="103.37"/>
    <polygon class="cls-4" points="810.49 430.94 418.62 1182.14 418.62 1295.18 810.49 543.98 810.49 430.94"/>
    <polygon class="cls-1" points="810.49 699.34 418.62 1450.54 418.62 1563.58 810.49 812.38 810.49 699.34"/>
    <g>
      <rect class="cls-2" x="805.42" y="481.4" width="777.29" height="41.7"/>
      <rect class="cls-2" x="805.42" y="1072.03" width="777.29" height="41.7"/>
      <polygon class="cls-2" points="1564.57 1099.86 1260.55 889.59 1260.55 502.25 1302.24 502.25 1302.24 867.73 1588.29 1065.57 1564.57 1099.86"/>
      <rect class="cls-2" x="813.19" y="857.81" width="477.71" height="41.7"/>
      <path class="cls-2" d="M906.41,1042.51c-28.37,0-55.22-3.57-75.62-10.07-32.45-10.33-39.26-25.26-39.26-35.97s6.81-25.64,39.26-35.97c20.4-6.49,47.26-10.07,75.62-10.07s55.22,3.57,75.62,10.07c32.45,10.33,39.26,25.26,39.26,35.97s-6.81,25.64-39.26,35.97c-20.4,6.49-47.26,10.07-75.62,10.07ZM820.03,996.48c2.38,2.33,9.32,6.89,24.31,10.99,17.11,4.67,39.16,7.25,62.07,7.25s44.96-2.57,62.07-7.25c14.99-4.09,21.92-8.65,24.31-10.99-2.38-2.33-9.32-6.89-24.31-10.99-17.12-4.67-39.16-7.25-62.07-7.25s-44.96,2.57-62.07,7.25c-14.99,4.09-21.92,8.65-24.31,10.99Z"/>
      <path class="cls-2" d="M805.42,806.36l-362.69,700.97-37.03-19.16,381.21-736.75,18.51,9.58v-84.01l-362.69,700.97-37.03-19.16,381.21-736.75,18.51,9.58v-84.01l-362.69,700.97-37.03-19.16,381.21-736.75,18.51,9.58v-169.32l13.83-12.26-27.66-31.2-381.21,337.95c-4.47,3.96-7.02,9.64-7.02,15.6v930.32c0,9.07,5.87,17.1,14.51,19.86l381.21,121.59,6.34-19.86h0s6.34-19.86,6.34-19.86l-6.34-2.02v-866.68Z"/>
      <rect class="cls-2" x="885.56" y="915.38" width="41.7" height="81.1"/>
      <circle class="cls-2" cx="906.41" cy="882.09" r="40.04"/>
      <ellipse class="cls-2" cx="1092.22" cy="1050.64" rx="26.56" ry="14.57"/>
      <ellipse class="cls-4" cx="1062.38" cy="1014.57" rx="26.56" ry="14.57"/>
      <ellipse class="cls-2" cx="1421.99" cy="1050.64" rx="26.56" ry="14.57"/>
      <ellipse class="cls-4" cx="1392.15" cy="1014.57" rx="26.56" ry="14.57"/>
      <circle class="cls-2" cx="1233.85" cy="882.09" r="40.04"/>
      <path class="cls-2" d="M1233.85,1042.51c-28.37,0-55.22-3.57-75.62-10.07-32.45-10.33-39.26-25.26-39.26-35.97s6.81-25.64,39.26-35.97c20.4-6.49,47.26-10.07,75.62-10.07s55.22,3.57,75.62,10.07c32.45,10.33,39.26,25.26,39.26,35.97s-6.81,25.64-39.26,35.97c-20.4,6.49-47.26,10.07-75.62,10.07ZM1147.48,996.48c2.38,2.33,9.32,6.89,24.31,10.99,17.11,4.67,39.16,7.25,62.07,7.25s44.96-2.57,62.07-7.25c14.99-4.09,21.92-8.65,24.31-10.99-2.38-2.33-9.32-6.89-24.31-10.99-17.12-4.67-39.16-7.25-62.07-7.25s-44.96,2.57-62.07,7.25c-14.99,4.09-21.92,8.65-24.31,10.99Z"/>
      <rect class="cls-2" x="1213.01" y="915.38" width="41.7" height="81.1"/>
      <path class="cls-2" d="M1508.12,458.77h-634.75v-117.31h634.75v117.31ZM901.17,430.97h579.15v-61.71h-579.15v61.71Z"/>
      <path class="cls-2" d="M1123.81,1438.81h-210.77v-243.54h210.77v243.54ZM940.84,1411.01h155.18v-187.95h-155.18v187.95Z"/>
      <rect class="cls-2" x="1036.65" y="1354.81" width="47.53" height="47.53"/>
      <rect class="cls-2" x="954.41" y="1354.81" width="47.53" height="47.53"/>
      <rect class="cls-2" x="954.41" y="1231.63" width="21.24" height="109.68"/>
      <path class="cls-2" d="M1079.24,1335.31h-78.79v-98.67h78.79v98.67ZM1014.35,1321.41h51v-70.87h-51v70.87Z"/>
      <rect class="cls-2" x="1042.91" y="1266.16" width="13.9" height="23.72"/>
      <path class="cls-2" d="M1476.74,1438.81h-210.77v-243.54h210.77v243.54ZM1293.77,1411.01h155.18v-187.95h-155.18v187.95Z"/>
      <rect class="cls-2" x="1389.58" y="1354.81" width="47.53" height="47.53"/>
      <rect class="cls-2" x="1307.34" y="1354.81" width="47.53" height="47.53"/>
      <rect class="cls-2" x="1307.34" y="1231.63" width="21.24" height="109.68"/>
      <path class="cls-2" d="M1432.17,1335.31h-78.79v-98.67h78.79v98.67ZM1367.28,1321.41h51v-70.87h-51v70.87Z"/>
      <rect class="cls-2" x="1395.84" y="1266.16" width="13.9" height="23.72"/>
      <path class="cls-2" d="M1183.35,483.74h-318.75c-42.84,0-77.69,34.86-77.69,77.7v227.83c0,11.98,9.75,21.74,21.74,21.74h318.25c42.84,0,77.69-34.85,77.69-77.69v-228.33c0-11.71-9.53-21.24-21.23-21.24ZM1189.55,734.55c0,16.4-6.39,31.81-17.98,43.41-11.59,11.58-27,17.96-43.39,17.96h-.03l-300.67-.14v-6.95l300.67.14h.03c14.54,0,28.2-5.66,38.48-15.93,10.28-10.27,15.95-23.95,15.95-38.49v-206.72h6.95v206.72Z"/>
      <path class="cls-2" d="M799.09,1714.79l-381.2-121.6c-8.64-2.76-14.51-10.79-14.51-19.86v-930.31c0-5.96,2.56-11.64,7.02-15.6l381.2-337.95,27.66,31.2-374.19,331.73v905.7l366.69,116.97-12.67,39.72Z"/>
      <path class="cls-2" d="M1576.43,1715.14h-771.01c-11.16,0-20.21-9.05-20.21-20.21V305.07c0-11.16,9.05-20.21,20.21-20.21h771.01c11.16,0,20.21,9.05,20.21,20.21v1389.86c0,11.16-9.05,20.21-20.21,20.21ZM825.63,1674.72h730.59V325.28h-730.59v1349.45Z"/>
      <polygon class="cls-2" points="1290.9 518.65 1566.52 518.65 1566.52 1065.99 1290.9 860.63 1290.9 518.65"/>
    </g>
    <polygon class="cls-5" points="965.03 683.5 934.59 736.21 965.03 717.2 995.46 736.21 965.03 683.5"/>
    <rect class="cls-5" x="1065.34" y="761.4" width="6.95" height="16.64"/>
    <rect class="cls-5" x="1077.32" y="761.4" width="6.95" height="16.64"/>
    <rect class="cls-5" x="1089.29" y="761.4" width="6.95" height="16.64"/>
    <rect class="cls-5" x="1101.26" y="761.4" width="6.95" height="16.64"/>
    <rect class="cls-5" x="1113.23" y="761.4" width="6.95" height="16.64"/>
    <rect class="cls-5" x="1125.2" y="761.4" width="6.95" height="16.64"/>
    <circle class="cls-5" cx="965.03" cy="665.42" r="3.43"/>
    <circle class="cls-5" cx="965.03" cy="643.91" r="3.43"/>
    <circle class="cls-5" cx="965.03" cy="622.4" r="3.43"/>
    <circle class="cls-5" cx="965.03" cy="600.89" r="3.43"/>
    <circle class="cls-5" cx="965.03" cy="579.38" r="3.43"/>
    <circle class="cls-5" cx="965.03" cy="557.87" r="3.43"/>
    <path class="cls-5" d="M926.38,575.71c-14.22-6.51-22.07-22.67-23.52-25.89h1.14c0-10.77-8.73-19.51-19.51-19.51s-19.51,8.73-19.51,19.51h1.49c0,.19.03.38.11.57.34.83,8.45,20.34,25.3,28.05.2.09.41.14.62.14.57,0,1.11-.33,1.36-.88.34-.75.01-1.64-.74-1.99-14.22-6.51-22.07-22.67-23.52-25.89h7.95c0,.19.03.38.11.57.34.83,8.45,20.34,25.3,28.05.2.09.41.14.62.14.57,0,1.11-.33,1.36-.88.34-.75.01-1.64-.74-1.99-14.22-6.51-22.07-22.67-23.52-25.89h7.95c0,.19.03.38.11.57.34.83,8.45,20.34,25.3,28.05.2.09.41.14.62.14.57,0,1.11-.33,1.36-.88.34-.75.01-1.64-.74-1.99-14.22-6.51-22.07-22.67-23.52-25.89h7.95c0,.19.03.38.11.57.34.83,8.45,20.34,25.3,28.05.2.09.41.14.62.14.57,0,1.11-.33,1.36-.88.34-.75.01-1.64-.74-1.99Z"/>
    <path class="cls-5" d="M1138.93,663.5c-14.22-6.51-22.07-22.67-23.52-25.89h1.14c0-10.77-8.73-19.51-19.51-19.51s-19.51,8.73-19.51,19.51h1.49c0,.19.03.38.11.57.34.83,8.45,20.34,25.3,28.05.2.09.41.14.62.14.57,0,1.11-.33,1.36-.88.34-.75.01-1.64-.74-1.99-14.22-6.51-22.07-22.67-23.52-25.89h7.95c0,.19.03.38.11.57.34.83,8.45,20.34,25.3,28.05.2.09.41.14.62.14.57,0,1.11-.33,1.36-.88.34-.75.01-1.64-.74-1.99-14.22-6.51-22.07-22.67-23.52-25.89h7.95c0,.19.03.38.11.57.34.83,8.45,20.34,25.3,28.05.2.09.41.14.62.14.57,0,1.11-.33,1.36-.88.34-.75.01-1.64-.74-1.99-14.22-6.51-22.07-22.67-23.52-25.89h7.95c0,.19.03.38.11.57.34.83,8.45,20.34,25.3,28.05.2.09.41.14.62.14.57,0,1.11-.33,1.36-.88.34-.75.01-1.64-.74-1.99Z"/>
    <path class="cls-5" d="M1066.91,604.07c-14.22-6.51-22.07-22.67-23.52-25.89h1.14c0-10.77-8.73-19.51-19.51-19.51s-19.51,8.73-19.51,19.51h1.49c0,.19.03.38.11.57.34.83,8.45,20.34,25.3,28.05.2.09.41.14.62.14.57,0,1.11-.33,1.36-.88.34-.75.01-1.64-.74-1.99-14.22-6.51-22.07-22.67-23.52-25.89h7.95c0,.19.03.38.11.57.34.83,8.45,20.34,25.3,28.05.2.09.41.14.62.14.57,0,1.11-.33,1.36-.88.34-.75.01-1.64-.74-1.99-14.22-6.51-22.07-22.67-23.52-25.89h7.95c0,.19.03.38.11.57.34.83,8.45,20.34,25.3,28.05.2.09.41.14.62.14.57,0,1.11-.33,1.36-.88.34-.75.01-1.64-.74-1.99-14.22-6.51-22.07-22.67-23.52-25.89h7.95c0,.19.03.38.11.57.34.83,8.45,20.34,25.3,28.05.2.09.41.14.62.14.57,0,1.11-.33,1.36-.88.34-.75.01-1.64-.74-1.99Z"/>
  </g>
</svg>