<?xml version="1.0" encoding="UTF-8" standalone="no"?>
<!DOCTYPE svg PUBLIC "-//W3C//DTD SVG 1.1//EN" "http://www.w3.org/Graphics/SVG/1.1/DTD/svg11.dtd">
<svg width="2000px" height="2000px" version="1.1" xmlns="http://www.w3.org/2000/svg" xmlns:xlink="http://www.w3.org/1999/xlink" xml:space="preserve" xmlns:serif="http://www.serif.com/" style="fill-rule:evenodd;clip-rule:evenodd;stroke-linejoin:round;stroke-miterlimit:2;">
    <g transform="matrix(1,0,0,1,-2208,0)">
        <g id="Artboard2" transform="matrix(1,0,0,1,-0.333333,0)">
            <rect x="2208.33" y="0" width="2000" height="2000" style="fill:none;"/>
            <clipPath id="_clip1">
                <rect x="2208.33" y="0" width="2000" height="2000"/>
            </clipPath>
            <g clip-path="url(#_clip1)">
                <g>
                    <g id="_3" transform="matrix(1,0,0,1,2208.33,0)">
                        <rect x="0" y="0" width="2000" height="2000" style="fill:none;"/>
                    </g>
                    <g id="rect2" transform="matrix(1,0,0,1,2208.33,0)">
                        <rect x="0" y="1167" width="478.101" height="500" style="fill:rgb(151,1,143);"/>
                    </g>
                    <g id="path2" transform="matrix(1,0,0,1,2208.33,0)">
                        <rect x="362" y="752" width="508.357" height="448" style="fill:rgb(17,0,116);"/>
                    </g>
                    <g id="rect3" transform="matrix(1,0,0,1,2208.33,0)">
                        <rect x="369" y="0" width="478.101" height="460" style="fill:rgb(246,199,23);"/>
                    </g>
                    <g id="rect4" transform="matrix(1,0,0,1,2208.33,0)">
                        <rect x="0" y="352" width="478.101" height="500" style="fill:rgb(246,199,23);"/>
                    </g>
                    <g id="rect5" transform="matrix(1,0,0,1,2208.33,0)">
                        <rect x="400" y="1200" width="400" height="400" style="fill:rgb(247,241,225);"/>
                    </g>
                    <g id="rect6" transform="matrix(1,0,0,1,2208.33,0)">
                        <rect x="0" y="0" width="400" height="400" style="fill:rgb(102,202,225);"/>
                    </g>
                    <g id="rect7" transform="matrix(1,0,0,1,2208.33,0)">
                        <rect x="1570" y="400" width="430" height="432" style="fill:rgb(17,0,115);"/>
                    </g>
                    <g id="rect8" transform="matrix(1,0,0,1,2208.33,0)">
                        <rect x="1600" y="0" width="400" height="400" style="fill:rgb(220,58,82);"/>
                    </g>
                    <g id="rect9" transform="matrix(1,0,0,1,2208.33,0)">
                        <rect x="800" y="0" width="400" height="400" style="fill:rgb(247,241,225);"/>
                    </g>
                    <g id="path9" transform="matrix(1,0,0,1,2208.33,0)">
                        <path d="M1200,233.135c-22.736,10.813 -48.167,16.865 -75,16.865c-96.585,0 -175,-78.415 -175,-175c0,-26.833 6.052,-52.264 16.865,-75l233.135,0l0,233.135Z" style="fill:rgb(220,58,82);"/>
                    </g>
                    <g id="path10" transform="matrix(1,0,0,1,2208.33,0)">
                        <path d="M950,400l-150,0c-11.191,-44.778 -13.519,-93.691 0,-150c82.787,0 150,67.213 150,150Z" style="fill:rgb(246,199,23);"/>
                    </g>
                    <g id="path11" transform="matrix(1,0,0,1,2208.33,0)">
                        <rect x="1600" y="800" width="400" height="400" style="fill:rgb(17,0,116);"/>
                    </g>
                    <g id="path12" transform="matrix(1,0,0,1,2208.33,0)">
                        <rect x="800" y="1200" width="400" height="400" style="fill:rgb(17,0,116);"/>
                    </g>
                    <g id="rect12" transform="matrix(1,0,0,1,2208.33,0)">
                        <rect x="1200" y="800" width="400" height="400" style="fill:rgb(151,1,143);"/>
                    </g>
                    <g id="rect13" transform="matrix(1,0,0,1,2208.33,0)">
                        <rect x="0" y="1600" width="400" height="400" style="fill:rgb(220,58,82);"/>
                    </g>
                    <g id="rect14" transform="matrix(1,0,0,1,2208.33,0)">
                        <rect x="1200" y="1600" width="400" height="400" style="fill:rgb(246,199,23);"/>
                    </g>
                    <g id="path14" transform="matrix(1,0,0,1,2208.33,0)">
                        <path d="M400,1375l0,-175l147.922,0c1.367,8.131 2.078,16.483 2.078,25c0,82.787 -67.213,150 -150,150Z" style="fill:rgb(220,58,82);"/>
                    </g>
                    <g id="rect15" transform="matrix(1,0,0,1,2208.33,0)">
                        <rect x="1600" y="1600" width="400" height="400" style="fill:rgb(102,202,225);"/>
                    </g>
                    <g id="rect16" transform="matrix(1,0,0,1,2208.33,0)">
                        <rect x="1600" y="1200" width="400" height="400" style="fill:rgb(247,241,225);"/>
                    </g>
                    <g id="path16" transform="matrix(1,0,0,1,2208.33,0)">
                        <path d="M1600,1441.45l0,-241.451l161.766,0c23.771,26.546 38.234,61.597 38.234,100c0,82.787 -67.213,150 -150,150c-17.528,0 -34.358,-3.013 -50,-8.549Z" style="fill:rgb(220,58,82);"/>
                    </g>
                    <g id="path17" transform="matrix(1,0,0,1,2208.33,0)">
                        <path d="M1888.23,1600c-23.771,-26.546 -38.234,-61.597 -38.234,-100c0,-82.787 67.213,-150 150,-150l0,250l-111.766,0Z" style="fill:rgb(246,199,23);"/>
                    </g>
                    <g id="rect17" transform="matrix(1,0,0,1,2208.33,0)">
                        <rect x="800" y="1600" width="400" height="400" style="fill:rgb(247,241,225);"/>
                    </g>
                    <g id="rect18" transform="matrix(1,0,0,1,2208.33,0)">
                        <rect x="400" y="400" width="400" height="400" style="fill:rgb(247,241,225);"/>
                    </g>
                    <g id="path18" transform="matrix(1,0,0,1,2208.33,0)">
                        <path d="M800,1750l0,-150l150,0c0,82.787 -67.213,150 -150,150Z" style="fill:rgb(246,199,23);"/>
                    </g>
                    <g id="path19" transform="matrix(1,0,0,1,2208.33,0)">
                        <path d="M400,550c-16.207,-46.863 -22.112,-95.72 0,-150l150,0c0,82.787 -67.213,150 -150,150Z" style="fill:rgb(246,199,23);"/>
                    </g>
                    <g id="path20" transform="matrix(1,0,0,1,2208.33,0)">
                        <path d="M800,2000c0,-115.937 89.617,-210.063 200,-210.063c110.383,0.001 200,94.126 200,210.063l-400,0Z" style="fill:rgb(151,1,143);"/>
                    </g>
                    <g id="path21" transform="matrix(1,0,0,1,2208.33,0)">
                        <path d="M400,1600c0,-115.937 89.617,-210.063 200,-210.063c110.383,0 200,94.126 200,210.063l-400,0Z" style="fill:rgb(246,199,23);"/>
                    </g>
                    <g id="path22" transform="matrix(1,0,0,1,2208.33,0)">
                        <path d="M400,800c0,-115.937 89.617,-210.062 200,-210.062c110.383,0 200,94.125 200,210.062l-400,0Z" style="fill:rgb(151,1,143);"/>
                    </g>
                    <g id="rect22" transform="matrix(1,0,0,1,2208.33,0)">
                        <rect x="800" y="800" width="400" height="400" style="fill:rgb(247,241,225);"/>
                    </g>
                    <g id="path23" transform="matrix(1,0,0,1,2208.33,0)">
                        <path d="M800,991.451l0,-191.451l191.451,0c5.536,15.642 8.549,32.472 8.549,50c0,82.787 -67.213,150 -150,150c-17.528,0 -34.358,-3.013 -50,-8.549Z" style="fill:rgb(246,199,23);"/>
                    </g>
                    <g id="path24" transform="matrix(1,0,0,1,2208.33,0)">
                        <path d="M959.75,1200c0,-135.734 107.652,-245.932 240.25,-245.932l0,245.932l-240.25,0Z" style="fill:rgb(220,58,82);"/>
                    </g>
                    <g id="circle24" transform="matrix(1,0,0,1,2208.33,0)">
                        <path d="M124.09,272.545l0,0c0,28.277 -23.268,51.545 -51.545,51.545l-0,0c-28.277,0 -51.545,-23.268 -51.545,-51.545l0,0c0,-28.277 23.268,-51.545 51.545,-51.545c28.277,0 51.545,23.268 51.545,51.545Z" style="fill:rgb(247,57,103);"/>
                    </g>
                    <g id="path25" transform="matrix(1,0,0,1,2208.33,0)">
                        <path d="M100,400l0,-0.002c0,-26.521 10.535,-51.956 29.289,-70.709c18.753,-18.754 44.188,-29.289 70.709,-29.289l200.002,0c15.586,30.5 7.118,65.372 0,100c-99.293,22.628 -199.676,10.382 -300,0Z" style="fill:rgb(246,199,23);"/>
                    </g>
                    <g id="path26" transform="matrix(1,0,0,1,2208.33,0)">
                        <path d="M400,-0c0,110.457 -89.543,200 -200,200l-200,0l0,-200l400,0Z" style="fill:rgb(152,1,141);"/>
                    </g>
                    <g id="circle26" transform="matrix(1,0,0,1,2208.33,0)">
                        <path d="M1979,1727.45c-0,28.277 -23.268,51.545 -51.545,51.545c-28.277,-0 -51.545,-23.268 -51.545,-51.545l-0,-0c-0,-28.277 23.268,-51.545 51.545,-51.545l-0,0c28.277,0 51.545,23.268 51.545,51.545Z" style="fill:rgb(247,57,103);"/>
                    </g>
                    <g id="path27" transform="matrix(1,0,0,1,2208.33,0)">
                        <path d="M1900,1600c0,55.228 -44.772,100 -100,100l-200,0l0,-100l300,0Z" style="fill:rgb(246,199,23);"/>
                    </g>
                    <g id="path28" transform="matrix(1,0,0,1,2208.33,0)">
                        <path d="M1600,2000l0,-0.001c0,-53.043 21.071,-103.914 58.578,-141.421c37.507,-37.507 88.378,-58.578 141.421,-58.578l200.001,0l0,200l-400,0Z" style="fill:rgb(152,1,141);"/>
                    </g>
                    <g id="rect28" transform="matrix(1,0,0,1,2208.33,0)">
                        <rect x="1200" y="0" width="400" height="400" style="fill:rgb(17,0,115);"/>
                    </g>
                    <g id="ellipse28" transform="matrix(1,0,0,1,2208.33,0)">
                        <path d="M1536.75,200c0,75.667 -61.731,137.932 -136.75,137.932c-75.019,0 -136.75,-62.265 -136.75,-137.932c0,-75.667 61.731,-137.932 136.75,-137.932c75.019,-0 136.75,62.265 136.75,137.932Z" style="fill:rgb(246,199,25);"/>
                    </g>
                    <g id="ellipse29" transform="matrix(1,0,0,1,2208.33,0)">
                        <path d="M1536.75,1000c-0,75.667 -61.731,137.932 -136.75,137.932c-75.019,0 -136.75,-62.265 -136.75,-137.932c0,-75.667 61.731,-137.932 136.75,-137.932c75.019,-0 136.75,62.265 136.75,137.932Z" style="fill:rgb(17,0,115);"/>
                    </g>
                    <g id="ellipse30" transform="matrix(1,0,0,1,2208.33,0)">
                        <path d="M336.75,1400c-0,75.667 -61.731,137.932 -136.75,137.932c-75.019,0 -136.75,-62.265 -136.75,-137.932c0,-75.667 61.731,-137.932 136.75,-137.932c75.019,0 136.75,62.265 136.75,137.932Z" style="fill:rgb(17,0,115);"/>
                    </g>
                    <g id="path30" transform="matrix(0.995859,0,0,1,2215.5,0)">
                        <path d="M1730.41,-0l270.714,0l-0.003,270.711l-270.711,-270.711Z" style="fill:rgb(246,199,23);"/>
                    </g>
                    <g id="path31" transform="matrix(1,0,0,1,2208.33,0)">
                        <path d="M1754.67,117.157l141.422,141.422l-141.422,141.421l-141.421,-141.421l141.421,-141.422Z" style="fill:rgb(17,0,116);"/>
                    </g>
                    <g id="path32" transform="matrix(1,0,0,1,2208.33,0)">
                        <path d="M269.593,2000l-269.593,0l-0,-269.65l269.593,269.65Z" style="fill:rgb(246,199,23);"/>
                    </g>
                    <g id="path33" transform="matrix(1,0,0,1,2208.33,0)">
                        <path d="M241.421,1900l-141.421,-141.421l141.421,-141.422l141.422,141.422l-141.422,141.421Z" style="fill:rgb(17,0,116);"/>
                    </g>
                    <g id="path34" transform="matrix(1,0,0,1,2208.33,0)">
                        <path d="M400,1069.59l0,-269.593l270.711,-1.118l-270.711,270.711Z" style="fill:rgb(247,241,225);"/>
                    </g>
                    <g id="path35" transform="matrix(1,0,0,1,2208.33,0)">
                        <path d="M1850,797.952l-250,271.641l0,-271.641c0,-31.813 12.638,-62.323 35.133,-84.819c22.496,-22.495 53.006,-35.133 84.819,-35.133l10.096,-0c31.813,-0 62.323,12.638 84.819,35.133c22.495,22.496 35.133,53.006 35.133,84.819Z" style="fill:rgb(247,241,225);"/>
                    </g>
                    <g id="path36" transform="matrix(1,0,0,1,2208.33,0)">
                        <path d="M1717.16,1045.33l141.422,-141.422l141.421,141.422l-141.421,141.421l-141.422,-141.421Z" style="fill:rgb(246,199,23);"/>
                    </g>
                    <g id="path37" transform="matrix(1,0,0,1,2208.33,0)">
                        <path d="M1200,1330.41l0,269.593l-270.711,1.118l270.711,-270.711Z" style="fill:rgb(247,57,103);"/>
                    </g>
                    <g id="path38" transform="matrix(1,0,0,1,2208.33,0)">
                        <path d="M1075,1356.42l-117.421,117.422l-117.422,-117.422l117.422,-117.421l117.421,117.421Z" style="fill:rgb(246,199,23);"/>
                    </g>
                    <g id="path39" transform="matrix(1,0,0,1,2208.33,0)">
                        <path d="M770.198,1051.66l-117.421,117.421l-117.422,-117.421l117.422,-117.422l117.421,117.422Z" style="fill:rgb(246,199,23);"/>
                    </g>
                    <g id="rect39" transform="matrix(1,0,0,1,2208.33,0)">
                        <rect x="800" y="400" width="400" height="400" style="fill:rgb(220,58,82);"/>
                    </g>
                    <g id="path40" transform="matrix(1,0,0,1,2208.33,0)">
                        <path d="M800,400l400,0l1.118,400l-135.355,0l-265.763,-267.123l0,-132.877Z" style="fill:rgb(17,0,116);"/>
                    </g>
                    <g id="path41" transform="matrix(1,0,0,1,2208.33,0)">
                        <path d="M930.407,400l269.593,0l1.118,270.711l-270.711,-270.711Z" style="fill:rgb(152,1,141);"/>
                    </g>
                    <g id="path42" transform="matrix(1,0,0,1,2208.33,0)">
                        <path d="M800,-0l0,80.048c0,66.248 -53.704,119.952 -119.952,119.952l-60.096,0c-66.248,0 -119.952,-53.704 -119.952,-119.952l0,-80.048l300,0Z" style="fill:rgb(247,57,103);"/>
                    </g>
                    <g id="path43" transform="matrix(1,0,0,1,2208.33,0)">
                        <path d="M650,400l0,-2.048c0,-31.813 -12.638,-62.323 -35.133,-84.819c-22.496,-22.495 -53.006,-35.133 -84.819,-35.133l-10.096,0c-31.813,0 -62.323,12.638 -84.819,35.133c-22.495,22.496 -35.133,53.006 -35.133,84.819l0,2.048l250,0Z" style="fill:rgb(220,58,82);"/>
                    </g>
                    <g id="path44" transform="matrix(1,0,0,1,2208.33,0)">
                        <path d="M1450,1600l0,-2.048c0,-31.813 -12.638,-62.323 -35.133,-84.819c-22.496,-22.495 -53.006,-35.133 -84.819,-35.133l-10.096,0c-31.813,0 -62.323,12.638 -84.819,35.133c-22.495,22.496 -35.133,53.006 -35.133,84.819l0,2.048l250,0Z" style="fill:rgb(220,58,82);"/>
                    </g>
                    <g id="path45" transform="matrix(1,0,0,1,2208.33,0)">
                        <path d="M1600,1200l0,80.048c0,66.248 -53.704,119.952 -119.952,119.952l-60.096,0c-66.248,0 -119.952,-53.704 -119.952,-119.952l0,-80.048l300,0Z" style="fill:rgb(247,57,103);"/>
                    </g>
                    <g id="rect45" transform="matrix(1,0,0,1,2208.33,0)">
                        <rect x="1200" y="1200" width="400" height="400" style="fill:rgb(246,199,23);"/>
                    </g>
                    <g id="path46" transform="matrix(1,0,0,1,2208.33,0)">
                        <path d="M1200,2000l0,-80.048c0,-66.248 53.704,-119.952 119.952,-119.952l60.096,0c66.248,0 119.952,53.704 119.952,119.952l0,80.048l-300,0Z" style="fill:rgb(247,57,103);"/>
                    </g>
                    <g id="path47" transform="matrix(1,0,0,1,2208.33,0)">
                        <path d="M1350,1600l0,2.048c0,31.813 12.638,62.323 35.133,84.819c22.496,22.495 53.006,35.133 84.819,35.133l10.096,0c31.813,0 62.323,-12.638 84.819,-35.133c22.495,-22.496 35.133,-53.006 35.133,-84.819l0,-2.048l-250,0Z" style="fill:rgb(220,58,82);"/>
                    </g>
                    <g id="path48" transform="matrix(1,0,0,1,2208.33,0)">
                        <path d="M2000,400l0,80.048c0,66.248 -53.704,119.952 -119.952,119.952l-60.096,0c-66.248,0 -119.952,-53.704 -119.952,-119.952l0,-80.048l300,0Z" style="fill:rgb(246,58,107);"/>
                    </g>
                    <g id="path49" transform="matrix(1,0,0,1,2208.33,0)">
                        <rect x="1200" y="400" width="400" height="400" style="fill:rgb(102,202,225);"/>
                    </g>
                    <g id="path50" transform="matrix(1,0,0,1,2208.33,0)">
                        <path d="M0,400c0,0 0,332 400,400c0,0 0,-327 -400,-400Z" style="fill:rgb(152,1,141);"/>
                    </g>
                    <g id="path51" transform="matrix(1,0,0,1,2208.33,0)">
                        <path d="M1600,400c0,0 -332,0 -400,400c0,0 327,0 400,-400Z" style="fill:rgb(17,0,116);"/>
                    </g>
                    <g id="path52" transform="matrix(1,0,0,1,2208.33,0)">
                        <rect x="0" y="800" width="400" height="400" style="fill:rgb(102,202,225);"/>
                    </g>
                    <g id="path53" transform="matrix(1,0,0,1,2208.33,0)">
                        <path d="M400,1200c0,0 -332,0 -400,-400c0,0 327,0 400,400Z" style="fill:rgb(17,0,116);"/>
                    </g>
                    <g id="rect53" transform="matrix(1,0,0,1,2208.33,0)">
                        <rect x="400" y="1600" width="400" height="400" style="fill:rgb(17,0,115);"/>
                    </g>
                    <g id="ellipse53" transform="matrix(1,0,0,1,2208.33,0)">
                        <path d="M736.75,1800c-0,75.667 -61.731,137.932 -136.75,137.932c-75.019,0 -136.75,-62.265 -136.75,-137.932c0,-75.667 61.731,-137.932 136.75,-137.932c75.019,0 136.75,62.265 136.75,137.932Z" style="fill:rgb(246,199,25);"/>
                    </g>
                    <g id="ellipse54" transform="matrix(1,0,0,1,2208.33,0)">
                        <path d="M1525,1400c0,67.457 -56.427,122.966 -125,122.966c-68.573,0 -125,-55.509 -125,-122.966c0,-67.457 56.427,-122.966 125,-122.966c68.573,0 125,55.509 125,122.966Z" style="fill:rgb(247,57,103);"/>
                    </g>
                </g>
            </g>
        </g>
    </g>
</svg>
