<?xml version="1.0" encoding="UTF-8"?>
<svg id="Art" xmlns="http://www.w3.org/2000/svg" version="1.1" xmlns:xlink="http://www.w3.org/1999/xlink" viewBox="0 0 3700 3000">
  <!-- Generator: Adobe Illustrator 30.0.0, SVG Export Plug-In . SVG Version: 2.1.1 Build 123)  -->
  <defs>
    <clipPath id="clippath">
      <rect width="3700" height="3000" fill="none"/>
    </clipPath>
    <linearGradient id="linear-gradient" x1="-47.7859373" y1="1370.6447429" x2="1039.5548544" y2="839.2993829" gradientUnits="userSpaceOnUse">
      <stop offset=".0831102" stop-color="#f9f2f6"/>
      <stop offset=".2826122" stop-color="#a6f0c9"/>
      <stop offset=".5105403" stop-color="#4cee99"/>
      <stop offset=".5811535" stop-color="#47e3a0"/>
      <stop offset=".7036202" stop-color="#3ac7b6"/>
      <stop offset=".8621961" stop-color="#2699d8"/>
      <stop offset=".9685536" stop-color="#1777f2"/>
    </linearGradient>
    <linearGradient id="linear-gradient1" x1="1028.5042768" y1="370.8291753" x2="797.7693099" y2="606.3644616" gradientUnits="userSpaceOnUse">
      <stop offset="0" stop-color="#f9f2f6"/>
      <stop offset=".1101547" stop-color="#f1f1f1"/>
      <stop offset=".2773161" stop-color="#dcf1e6"/>
      <stop offset=".4806582" stop-color="#baf0d4"/>
      <stop offset=".7123918" stop-color="#8aefba"/>
      <stop offset=".9650389" stop-color="#4eee9a"/>
      <stop offset=".9739169" stop-color="#4cee99"/>
    </linearGradient>
    <linearGradient id="linear-gradient2" x1="659.4155536" y1="1132.1682687" x2="1132.9387884" y2="1132.1682687" gradientUnits="userSpaceOnUse">
      <stop offset="0" stop-color="#4cee99"/>
      <stop offset=".0735362" stop-color="#61eea4"/>
      <stop offset=".3056389" stop-color="#a2efc7"/>
      <stop offset=".5014424" stop-color="#d1f1e0"/>
      <stop offset=".6510343" stop-color="#eef1f0"/>
      <stop offset=".73659" stop-color="#f9f2f6"/>
    </linearGradient>
    <linearGradient id="linear-gradient3" x1="370.7860477" y1="-48.18068" x2="395.0065081" y2="426.0354359" gradientUnits="userSpaceOnUse">
      <stop offset="0" stop-color="#000"/>
      <stop offset=".166862" stop-color="#274b38"/>
      <stop offset=".3357406" stop-color="#4b906c"/>
      <stop offset=".4771139" stop-color="#65c392"/>
      <stop offset=".583469" stop-color="#75e3aa"/>
      <stop offset=".64259" stop-color="#7cefb3"/>
      <stop offset=".677253" stop-color="#76e8b6"/>
      <stop offset=".7265813" stop-color="#66d5c0"/>
      <stop offset=".784695" stop-color="#4cb6d0"/>
      <stop offset=".8489978" stop-color="#298ce6"/>
      <stop offset=".8781121" stop-color="#1777f2"/>
    </linearGradient>
    <linearGradient id="linear-gradient4" x1="-407.1049716" y1="869.6263434" x2="1066.7551153" y2="869.6263434" gradientUnits="userSpaceOnUse">
      <stop offset=".0777208" stop-color="#4cee99"/>
      <stop offset=".3155865" stop-color="#4eee9a"/>
      <stop offset=".4256783" stop-color="#55ee9e"/>
      <stop offset=".5094549" stop-color="#62eea5"/>
      <stop offset=".5799668" stop-color="#74eeae"/>
      <stop offset=".642092" stop-color="#8cefbb"/>
      <stop offset=".6983187" stop-color="#a9f0cb"/>
      <stop offset=".7501476" stop-color="#ccf0dd"/>
      <stop offset=".7971388" stop-color="#f3f1f3"/>
      <stop offset=".8031089" stop-color="#f9f2f6"/>
    </linearGradient>
    <linearGradient id="linear-gradient5" x1="1228.8182816" y1="1024.2800959" x2="1017.4891295" y2="1059.2477913" gradientUnits="userSpaceOnUse">
      <stop offset="0" stop-color="#000"/>
      <stop offset=".0950002" stop-color="#0b2316"/>
      <stop offset=".2737013" stop-color="#1e603d"/>
      <stop offset=".4455161" stop-color="#2e925e"/>
      <stop offset=".6058362" stop-color="#3bba77"/>
      <stop offset=".7521273" stop-color="#44d68a"/>
      <stop offset=".8795588" stop-color="#4ae795"/>
      <stop offset=".9739169" stop-color="#4cee99"/>
    </linearGradient>
    <linearGradient id="linear-gradient6" x1="-109.3458876" y1="836.5738333" x2="474.9205733" y2="836.5738333" gradientUnits="userSpaceOnUse">
      <stop offset=".0793891" stop-color="#000"/>
      <stop offset=".0822191" stop-color="#010201"/>
      <stop offset=".1557079" stop-color="#214030"/>
      <stop offset=".2285506" stop-color="#3d7558"/>
      <stop offset=".2990052" stop-color="#53a178"/>
      <stop offset=".3666208" stop-color="#65c392"/>
      <stop offset=".4306615" stop-color="#71dba4"/>
      <stop offset=".4896194" stop-color="#79e9af"/>
      <stop offset=".5387672" stop-color="#7cefb3"/>
      <stop offset=".6066492" stop-color="#76e8b6"/>
      <stop offset=".7032508" stop-color="#66d5c0"/>
      <stop offset=".8170574" stop-color="#4cb6d0"/>
      <stop offset=".9429843" stop-color="#298ce6"/>
      <stop offset="1" stop-color="#1777f2"/>
    </linearGradient>
    <linearGradient id="linear-gradient7" x1="-73.3643367" y1="1824.8957169" x2="281.386624" y2="1407.0519889" gradientUnits="userSpaceOnUse">
      <stop offset=".0793891" stop-color="#000"/>
      <stop offset=".0816923" stop-color="#010201"/>
      <stop offset=".1415016" stop-color="#214030"/>
      <stop offset=".200785" stop-color="#3d7558"/>
      <stop offset=".2581248" stop-color="#53a178"/>
      <stop offset=".3131542" stop-color="#65c392"/>
      <stop offset=".3652741" stop-color="#71dba4"/>
      <stop offset=".4132573" stop-color="#79e9af"/>
      <stop offset=".4532565" stop-color="#7cefb3"/>
      <stop offset=".5157847" stop-color="#76e8b6"/>
      <stop offset=".6047674" stop-color="#66d5c0"/>
      <stop offset=".7095981" stop-color="#4cb6d0"/>
      <stop offset=".8255932" stop-color="#298ce6"/>
      <stop offset=".8781121" stop-color="#1777f2"/>
    </linearGradient>
    <linearGradient id="linear-gradient8" x1="625.3786678" y1="1849.4001771" x2="757.9036523" y2="1234.0424696" gradientUnits="userSpaceOnUse">
      <stop offset="0" stop-color="#4cee99"/>
      <stop offset=".0903495" stop-color="#48e392"/>
      <stop offset=".2468512" stop-color="#3fc780"/>
      <stop offset=".4507949" stop-color="#309962"/>
      <stop offset=".6943242" stop-color="#1c5939"/>
      <stop offset=".9686584" stop-color="#030906"/>
      <stop offset="1" stop-color="#000"/>
    </linearGradient>
    <linearGradient id="linear-gradient9" x1="577.9411452" y1="1444.7710631" x2="826.2114385" y2="1444.7710631" gradientUnits="userSpaceOnUse">
      <stop offset=".0793891" stop-color="#f9f2f6"/>
      <stop offset=".0886784" stop-color="#f4f1f3"/>
      <stop offset=".1900805" stop-color="#c9f0dc"/>
      <stop offset=".2883564" stop-color="#a7f0ca"/>
      <stop offset=".3814554" stop-color="#8fefbd"/>
      <stop offset=".4672266" stop-color="#81efb5"/>
      <stop offset=".5387672" stop-color="#7cefb3"/>
      <stop offset=".6066492" stop-color="#76e8b6"/>
      <stop offset=".7032508" stop-color="#66d5c0"/>
      <stop offset=".8170574" stop-color="#4cb6d0"/>
      <stop offset=".9429843" stop-color="#298ce6"/>
      <stop offset="1" stop-color="#1777f2"/>
    </linearGradient>
    <linearGradient id="linear-gradient10" x1="-58.4353808" y1="1771.327585" x2="107.0920783" y2="1771.327585" gradientUnits="userSpaceOnUse">
      <stop offset="0" stop-color="#f9f2f6"/>
      <stop offset=".1123943" stop-color="#eef1f0"/>
      <stop offset=".3070409" stop-color="#d2f1e1"/>
      <stop offset=".560638" stop-color="#a4f0c8"/>
      <stop offset=".8602906" stop-color="#65eea6"/>
      <stop offset=".9739169" stop-color="#4cee99"/>
    </linearGradient>
    <linearGradient id="linear-gradient11" x1="-496.8708681" y1="718.8598777" x2="296.6104358" y2="331.1133567" gradientTransform="translate(3280.7869159 3025.0659425) rotate(-174.5757517)" gradientUnits="userSpaceOnUse">
      <stop offset="0" stop-color="#000"/>
      <stop offset=".0106494" stop-color="#020805"/>
      <stop offset=".0895812" stop-color="#15442c"/>
      <stop offset=".1681546" stop-color="#26784d"/>
      <stop offset=".2445281" stop-color="#33a268"/>
      <stop offset=".3182633" stop-color="#3ec37d"/>
      <stop offset=".3886834" stop-color="#45da8c"/>
      <stop offset=".4543346" stop-color="#4ae995"/>
      <stop offset=".5105403" stop-color="#4cee99"/>
      <stop offset=".5811535" stop-color="#47e3a0"/>
      <stop offset=".7036202" stop-color="#3ac7b6"/>
      <stop offset=".8621961" stop-color="#2699d8"/>
      <stop offset=".9685536" stop-color="#1777f2"/>
    </linearGradient>
    <linearGradient id="linear-gradient12" x1="288.5463342" y1="-10.7503479" x2="120.1686886" y2="161.1303059" gradientTransform="translate(3280.7869159 3025.0659425) rotate(-174.5757517)" gradientUnits="userSpaceOnUse">
      <stop offset="0" stop-color="#000"/>
      <stop offset=".0479494" stop-color="#091c12"/>
      <stop offset=".1391563" stop-color="#184d31"/>
      <stop offset=".2354104" stop-color="#26784d"/>
      <stop offset=".3350415" stop-color="#329c64"/>
      <stop offset=".4389649" stop-color="#3bba77"/>
      <stop offset=".548643" stop-color="#42d186"/>
      <stop offset=".6665123" stop-color="#47e190"/>
      <stop offset=".798521" stop-color="#4bea97"/>
      <stop offset=".9739169" stop-color="#4cee99"/>
    </linearGradient>
    <linearGradient id="linear-gradient13" x1="19.2057524" y1="544.8329074" x2="364.7568774" y2="544.8329074" gradientTransform="translate(3280.7869159 3025.0659425) rotate(-174.5757517)" gradientUnits="userSpaceOnUse">
      <stop offset="0" stop-color="#4cee99"/>
      <stop offset=".1067141" stop-color="#4ae995"/>
      <stop offset=".2337808" stop-color="#45da8c"/>
      <stop offset=".3712055" stop-color="#3ec27d"/>
      <stop offset=".5160297" stop-color="#33a067"/>
      <stop offset=".6666628" stop-color="#25754b"/>
      <stop offset=".822099" stop-color="#144029"/>
      <stop offset=".9787278" stop-color="#010302"/>
      <stop offset=".9874732" stop-color="#000"/>
    </linearGradient>
    <linearGradient id="linear-gradient14" x1="-189.328634" y1="-275.5708423" x2="-171.6538787" y2="70.4859091" gradientTransform="translate(3280.7869159 3025.0659425) rotate(-174.5757517)" gradientUnits="userSpaceOnUse">
      <stop offset=".0793891" stop-color="#f9f2f6"/>
      <stop offset=".0869492" stop-color="#f4f1f3"/>
      <stop offset=".1694759" stop-color="#c9f0dc"/>
      <stop offset=".2494583" stop-color="#a7f0ca"/>
      <stop offset=".3252274" stop-color="#8fefbd"/>
      <stop offset=".3950327" stop-color="#81efb5"/>
      <stop offset=".4532565" stop-color="#7cefb3"/>
      <stop offset=".5157847" stop-color="#76e8b6"/>
      <stop offset=".6047674" stop-color="#66d5c0"/>
      <stop offset=".7095981" stop-color="#4cb6d0"/>
      <stop offset=".8255932" stop-color="#298ce6"/>
      <stop offset=".8781121" stop-color="#1777f2"/>
    </linearGradient>
    <linearGradient id="linear-gradient15" x1="-759.08207" y1="353.2442989" x2="316.4596851" y2="353.2442989" gradientTransform="translate(3280.7869159 3025.0659425) rotate(-174.5757517)" xlink:href="#linear-gradient4"/>
    <linearGradient id="linear-gradient16" x1="382.9014793" y1="474.6769878" x2="228.6851264" y2="500.1944821" gradientTransform="translate(3280.7869159 3025.0659425) rotate(-174.5757517)" gradientUnits="userSpaceOnUse">
      <stop offset="0" stop-color="#f9f2f6"/>
      <stop offset=".1193626" stop-color="#d8f1e4"/>
      <stop offset=".327124" stop-color="#a6f0c9"/>
      <stop offset=".5233241" stop-color="#7fefb4"/>
      <stop offset=".7023306" stop-color="#63eea5"/>
      <stop offset=".858309" stop-color="#52ee9c"/>
      <stop offset=".9739169" stop-color="#4cee99"/>
    </linearGradient>
    <linearGradient id="linear-gradient17" x1="-541.7939226" y1="329.124401" x2="-115.4285027" y2="329.124401" gradientTransform="translate(3280.7869159 3025.0659425) rotate(-174.5757517)" xlink:href="#linear-gradient9"/>
    <linearGradient id="linear-gradient18" x1="-475.5923919" y1="1003.2988824" x2="-269.0759821" y2="760.0533494" xlink:href="#linear-gradient14"/>
    <linearGradient id="linear-gradient19" x1="9.5544298" y1="997.7112457" x2="54.2020892" y2="790.3972706" gradientTransform="translate(3280.7869159 3025.0659425) rotate(-174.5757517)" gradientUnits="userSpaceOnUse">
      <stop offset="0" stop-color="#4cee99"/>
      <stop offset=".0918256" stop-color="#6eeeab"/>
      <stop offset=".2208522" stop-color="#98efc2"/>
      <stop offset=".3526075" stop-color="#bbf0d4"/>
      <stop offset=".4855441" stop-color="#d6f1e3"/>
      <stop offset=".6201976" stop-color="#e9f1ed"/>
      <stop offset=".7575726" stop-color="#f5f1f3"/>
      <stop offset=".9017555" stop-color="#f9f2f6"/>
    </linearGradient>
    <linearGradient id="linear-gradient20" x1="-40.2497746" y1="772.9531754" x2="140.9241844" y2="772.9531754" gradientTransform="translate(3280.7869159 3025.0659425) rotate(-174.5757517)" xlink:href="#linear-gradient9"/>
    <linearGradient id="linear-gradient21" x1="-504.6422443" y1="1011.2561038" x2="-383.8494394" y2="1011.2561038" gradientTransform="translate(3280.7869159 3025.0659425) rotate(-174.5757517)" xlink:href="#linear-gradient10"/>
    <linearGradient id="linear-gradient22" x1="695.5118074" y1="2442.7848647" x2="910.4046421" y2="2442.7848647" gradientUnits="userSpaceOnUse">
      <stop offset=".0777208" stop-color="#1777f2"/>
      <stop offset=".1580925" stop-color="#1674ec"/>
      <stop offset=".2570808" stop-color="#156cdd"/>
      <stop offset=".3658494" stop-color="#1260c4"/>
      <stop offset=".4816135" stop-color="#0f4fa1"/>
      <stop offset=".603011" stop-color="#0b3974"/>
      <stop offset=".7281095" stop-color="#051e3e"/>
      <stop offset=".8532172" stop-color="#000"/>
    </linearGradient>
    <linearGradient id="linear-gradient23" x1="-468.73007" y1="2600.0908609" x2="942.7461204" y2="2600.0908609" gradientUnits="userSpaceOnUse">
      <stop offset=".0793891" stop-color="#f9f2f6"/>
      <stop offset=".0946127" stop-color="#f0e4f6"/>
      <stop offset=".1494963" stop-color="#d6b9f9"/>
      <stop offset=".2027043" stop-color="#c197fc"/>
      <stop offset=".2530903" stop-color="#b27ffd"/>
      <stop offset=".2995186" stop-color="#a971fe"/>
      <stop offset=".3382413" stop-color="#a66cff"/>
      <stop offset=".473723" stop-color="#bf6fff"/>
      <stop offset=".7426138" stop-color="#ec74ff"/>
      <stop offset=".8781121" stop-color="#fe77ff"/>
    </linearGradient>
    <linearGradient id="linear-gradient24" x1="-114.7936728" y1="2871.7322335" x2="933.0773526" y2="2871.7322335" xlink:href="#linear-gradient23"/>
    <linearGradient id="linear-gradient25" x1="2351.6326388" y1="2166.7410124" x2="2050.871999" y2="1700.4718459" gradientUnits="userSpaceOnUse">
      <stop offset=".3329716" stop-color="#000"/>
      <stop offset=".5926344" stop-color="#1777f2"/>
    </linearGradient>
    <linearGradient id="linear-gradient26" x1="2082.2294978" y1="1869.6567414" x2="2127.5081467" y2="2125.784109" gradientUnits="userSpaceOnUse">
      <stop offset=".0793891" stop-color="#f9f2f6"/>
      <stop offset=".0842542" stop-color="#f9eff6"/>
      <stop offset=".1831225" stop-color="#fac4f9"/>
      <stop offset=".2789477" stop-color="#fca2fb"/>
      <stop offset=".3696972" stop-color="#fd8afd"/>
      <stop offset=".4533092" stop-color="#fd7cfe"/>
      <stop offset=".5230499" stop-color="#fe77ff"/>
    </linearGradient>
    <linearGradient id="linear-gradient27" x1="2253.0538986" y1="1768.2318404" x2="2361.5927737" y2="1974.9990994" gradientUnits="userSpaceOnUse">
      <stop offset=".1220073" stop-color="#f9f2f6"/>
      <stop offset=".3029551" stop-color="#facbf8"/>
      <stop offset=".653874" stop-color="#fe77ff"/>
    </linearGradient>
    <linearGradient id="linear-gradient28" x1="2323.1939484" y1="1664.5574394" x2="2516.2495581" y2="1664.5574394" gradientUnits="userSpaceOnUse">
      <stop offset="0" stop-color="#f9f2f6"/>
      <stop offset=".4896477" stop-color="#fba8fb"/>
      <stop offset=".851753" stop-color="#fe77ff"/>
    </linearGradient>
    <linearGradient id="linear-gradient29" x1="2344.9451684" y1="2340.8753969" x2="2220.9723888" y2="1684.8874592" gradientUnits="userSpaceOnUse">
      <stop offset=".3329716" stop-color="#000"/>
      <stop offset=".6553241" stop-color="#1777f2"/>
    </linearGradient>
    <linearGradient id="linear-gradient30" x1="2161.0047112" y1="2081.207029" x2="2074.8896793" y2="1819.5743082" gradientUnits="userSpaceOnUse">
      <stop offset=".0793891" stop-color="#f9f2f6"/>
      <stop offset=".0881477" stop-color="#f9eff6"/>
      <stop offset=".2661405" stop-color="#fac4f9"/>
      <stop offset=".4386547" stop-color="#fca2fb"/>
      <stop offset=".6020312" stop-color="#fd8afd"/>
      <stop offset=".7525578" stop-color="#fd7cfe"/>
      <stop offset=".8781121" stop-color="#fe77ff"/>
    </linearGradient>
    <linearGradient id="linear-gradient31" x1="2425.3997717" y1="1998.9507632" x2="2360.0016514" y2="1747.7169212" gradientUnits="userSpaceOnUse">
      <stop offset="0" stop-color="#f9f2f6"/>
      <stop offset=".0310579" stop-color="#f9e6f6"/>
      <stop offset=".1370041" stop-color="#fac4f9"/>
      <stop offset=".2501956" stop-color="#fca8fb"/>
      <stop offset=".3713644" stop-color="#fc92fc"/>
      <stop offset=".5041411" stop-color="#fd82fe"/>
      <stop offset=".6573549" stop-color="#fd79fe"/>
      <stop offset=".8781121" stop-color="#fe77ff"/>
    </linearGradient>
    <linearGradient id="linear-gradient32" x1="2463.2659805" y1="1809.7223825" x2="2710.8121349" y2="1809.7223825" gradientUnits="userSpaceOnUse">
      <stop offset="0" stop-color="#f9f2f6"/>
      <stop offset=".2196479" stop-color="#facbf8"/>
      <stop offset=".5166881" stop-color="#fc9dfc"/>
      <stop offset=".7460236" stop-color="#fd81fe"/>
      <stop offset=".8781121" stop-color="#fe77ff"/>
    </linearGradient>
    <linearGradient id="linear-gradient33" x1="1903.5962231" y1="2345.2480668" x2="3120.1006707" y2="2282.0761954" gradientUnits="userSpaceOnUse">
      <stop offset=".1186161" stop-color="#1777f2"/>
      <stop offset=".2099618" stop-color="#1674ec"/>
      <stop offset=".3224661" stop-color="#156cdd"/>
      <stop offset=".4460862" stop-color="#1260c4"/>
      <stop offset=".577657" stop-color="#0f4fa1"/>
      <stop offset=".7156303" stop-color="#0b3974"/>
      <stop offset=".8578099" stop-color="#051e3e"/>
      <stop offset="1" stop-color="#000"/>
    </linearGradient>
    <linearGradient id="linear-gradient34" x1="2417.4381168" y1="2555.6802373" x2="2285.6614485" y2="1762.4992872" xlink:href="#linear-gradient25"/>
    <linearGradient id="linear-gradient35" x1="2219.2598309" y1="2286.6869507" x2="2175.7731637" y2="2006.2747469" xlink:href="#linear-gradient30"/>
    <linearGradient id="linear-gradient36" x1="2534.6512512" y1="2245.8415611" x2="2494.4740612" y2="1964.5993731" gradientUnits="userSpaceOnUse">
      <stop offset="0" stop-color="#f9f2f6"/>
      <stop offset=".1488827" stop-color="#fad3f8"/>
      <stop offset=".3704178" stop-color="#fbabfb"/>
      <stop offset=".5734039" stop-color="#fd8efd"/>
      <stop offset=".7492493" stop-color="#fd7dfe"/>
      <stop offset=".8781121" stop-color="#fe77ff"/>
    </linearGradient>
    <linearGradient id="linear-gradient37" x1="2860.5779202" y1="1996.5934739" x2="2644.8066867" y2="1765.8778749" xlink:href="#linear-gradient32"/>
    <linearGradient id="linear-gradient38" x1="603.0296693" y1="2256.7199495" x2="1980.6225478" y2="2256.7199495" gradientUnits="userSpaceOnUse">
      <stop offset=".0793891" stop-color="#f9f2f6"/>
      <stop offset=".0940925" stop-color="#f0e4f6"/>
      <stop offset=".1471005" stop-color="#d6b9f9"/>
      <stop offset=".1984904" stop-color="#c197fc"/>
      <stop offset=".2471545" stop-color="#b27ffd"/>
      <stop offset=".2919963" stop-color="#a971fe"/>
      <stop offset=".3293958" stop-color="#a66cff"/>
      <stop offset=".6024489" stop-color="#cf71ff"/>
      <stop offset=".8781121" stop-color="#fe77ff"/>
    </linearGradient>
    <linearGradient id="linear-gradient39" x1="1994.4367637" y1="2371.3558688" x2="2307.5910363" y2="2371.3558688" xlink:href="#linear-gradient30"/>
    <linearGradient id="linear-gradient40" x1="2413.6913429" y1="2358.4083854" x2="2709.4445733" y2="2358.4083854" xlink:href="#linear-gradient30"/>
    <linearGradient id="linear-gradient41" x1="2650.9439343" y1="2156.5464732" x2="3022.0331272" y2="2156.5464732" xlink:href="#linear-gradient30"/>
    <linearGradient id="linear-gradient42" x1="-160.5889193" y1="3162.2630392" x2="793.2707791" y2="2536.5526348" gradientUnits="userSpaceOnUse">
      <stop offset=".1848301" stop-color="#f9f2f6"/>
      <stop offset=".3472368" stop-color="#f9def7"/>
      <stop offset=".6749007" stop-color="#fbadfb"/>
      <stop offset="1" stop-color="#fe77ff"/>
    </linearGradient>
    <linearGradient id="linear-gradient43" x1="899.798878" y1="2517.6490046" x2="1999.1349218" y2="2350.4828181" gradientUnits="userSpaceOnUse">
      <stop offset=".0828354" stop-color="#f9f2f6"/>
      <stop offset=".1291016" stop-color="#f9e9f6"/>
      <stop offset=".4141645" stop-color="#fbb8fa"/>
      <stop offset=".6645882" stop-color="#fc94fc"/>
      <stop offset=".8683719" stop-color="#fd7efe"/>
      <stop offset="1" stop-color="#fe77ff"/>
    </linearGradient>
    <linearGradient id="linear-gradient44" x1="1306.3569698" y1="2206.8184039" x2="1546.5287811" y2="2206.8184039" xlink:href="#linear-gradient22"/>
    <linearGradient id="linear-gradient45" x1="789.0913111" y1="2197.296552" x2="1528.5718005" y2="2197.296552" gradientTransform="translate(-172.7348189 156.8558787) rotate(-5.2727086)" gradientUnits="userSpaceOnUse">
      <stop offset=".0793891" stop-color="#f9f2f6"/>
      <stop offset=".6081693" stop-color="#fc9dfc"/>
      <stop offset=".8781121" stop-color="#fe77ff"/>
    </linearGradient>
    <linearGradient id="linear-gradient46" x1="1690.1868173" y1="1903.5695592" x2="1929.8013257" y2="1903.5695592" xlink:href="#linear-gradient22"/>
    <linearGradient id="linear-gradient47" x1="1286.3467423" y1="2057.7840757" x2="1906.738637" y2="2057.7840757" gradientTransform="translate(-172.7348189 156.8558787) rotate(-5.2727086)" gradientUnits="userSpaceOnUse">
      <stop offset=".0793891" stop-color="#f9f2f6"/>
      <stop offset=".1976154" stop-color="#f9dbf7"/>
      <stop offset=".5135221" stop-color="#fca5fb"/>
      <stop offset=".7498745" stop-color="#fd83fe"/>
      <stop offset=".8781121" stop-color="#fe77ff"/>
    </linearGradient>
    <linearGradient id="linear-gradient48" x1="1702.6004808" y1="1741.9888703" x2="2291.5535051" y2="1741.9888703" gradientTransform="translate(-39.6665781 379.0445335) rotate(-7.4700999) scale(.900246 .882766)" gradientUnits="userSpaceOnUse">
      <stop offset=".0793891" stop-color="#f9f2f6"/>
      <stop offset=".1598787" stop-color="#f9daf7"/>
      <stop offset=".3017906" stop-color="#fbb6fa"/>
      <stop offset=".4451579" stop-color="#fc9afc"/>
      <stop offset=".5887998" stop-color="#fd86fd"/>
      <stop offset=".7328637" stop-color="#fd7afe"/>
      <stop offset=".8781121" stop-color="#fe77ff"/>
    </linearGradient>
    <linearGradient id="linear-gradient49" x1="1939.4061384" y1="911.3263666" x2="2731.569041" y2="911.3263666" gradientUnits="userSpaceOnUse">
      <stop offset=".0777208" stop-color="#4cee99"/>
      <stop offset=".4105876" stop-color="#4bec97"/>
      <stop offset=".5305048" stop-color="#49e593"/>
      <stop offset=".6159681" stop-color="#45d98b"/>
      <stop offset=".6851073" stop-color="#40c880"/>
      <stop offset=".7443541" stop-color="#39b272"/>
      <stop offset=".7967565" stop-color="#309761"/>
      <stop offset=".8442081" stop-color="#25764c"/>
      <stop offset=".887813" stop-color="#195134"/>
      <stop offset=".9265765" stop-color="#0c2819"/>
      <stop offset=".9586894" stop-color="#000"/>
    </linearGradient>
    <linearGradient id="linear-gradient50" x1="2016.4580516" y1="911.3263666" x2="2576.3772534" y2="911.3263666" gradientUnits="userSpaceOnUse">
      <stop offset=".0253579" stop-color="#f9f2f6"/>
      <stop offset=".3365798" stop-color="#facef8"/>
      <stop offset="1" stop-color="#fe77ff"/>
    </linearGradient>
    <linearGradient id="linear-gradient51" x1="-673.0800934" y1="905.8329441" x2="-12.891213" y2="583.2217618" gradientTransform="translate(3881.5508905 927.2384425) rotate(119.6041383)" xlink:href="#linear-gradient11"/>
    <linearGradient id="linear-gradient52" x1="-19.600672" y1="298.7858018" x2="-159.6935119" y2="441.7931995" gradientTransform="translate(3881.5508905 927.2384425) rotate(119.6041383)" xlink:href="#linear-gradient12"/>
    <linearGradient id="linear-gradient53" x1="-243.6962571" y1="761.0397774" x2="43.8076944" y2="761.0397774" gradientTransform="translate(3881.5508905 927.2384425) rotate(119.6041383)" xlink:href="#linear-gradient13"/>
    <linearGradient id="linear-gradient54" x1="-417.2001348" y1="78.4510002" x2="-402.4944614" y2="366.3756408" gradientTransform="translate(3881.5508905 927.2384425) rotate(119.6041383)" xlink:href="#linear-gradient14"/>
    <linearGradient id="linear-gradient55" x1="-891.2439229" y1="601.6350525" x2="3.6236735" y2="601.6350525" gradientTransform="translate(3881.5508905 927.2384425) rotate(119.6041383)" xlink:href="#linear-gradient4"/>
    <linearGradient id="linear-gradient56" x1="58.9042875" y1="702.6689528" x2="-69.406135" y2="723.899908" gradientTransform="translate(3881.5508905 927.2384425) rotate(119.6041383)" xlink:href="#linear-gradient16"/>
    <linearGradient id="linear-gradient57" x1="-710.4567788" y1="581.5669195" x2="-355.7140674" y2="581.5669195" gradientTransform="translate(3881.5508905 927.2384425) rotate(119.6041383)" xlink:href="#linear-gradient9"/>
    <linearGradient id="linear-gradient58" x1="-655.3760677" y1="1142.4906538" x2="-483.5511783" y2="940.1065581" gradientTransform="translate(3881.5508905 927.2384425) rotate(119.6041383)" xlink:href="#linear-gradient14"/>
    <linearGradient id="linear-gradient59" x1="-251.7263088" y1="1137.8416525" x2="-214.5787564" y2="965.3531761" gradientTransform="translate(3881.5508905 927.2384425) rotate(119.6041383)" xlink:href="#linear-gradient19"/>
    <linearGradient id="linear-gradient60" x1="-293.1641874" y1="950.8394156" x2="-142.4246141" y2="950.8394156" gradientTransform="translate(3881.5508905 927.2384425) rotate(119.6041383)" xlink:href="#linear-gradient9"/>
    <linearGradient id="linear-gradient61" x1="-679.5460002" y1="1149.1111867" x2="-579.0444935" y2="1149.1111867" gradientTransform="translate(3881.5508905 927.2384425) rotate(119.6041383)" xlink:href="#linear-gradient10"/>
  </defs>
  <g id="Background">
    <rect x="1.5881804" width="3698.4118196" height="3000"/>
  </g>
  <g id="Graphics">
    <g clip-path="url(#clippath)">
      <g>
        <g>
          <path d="M698.6448061,621.8449151l105.7750179,67.1787756s47.7321835,64.1237013,54.4507366,183.5009938c18.8939689,335.7137824-170.4422599,614.3201142-590.5618778,682.2007898-24.431645,3.9475342-76.8237668,32.1554942-103.5180303,35.6373547l-100.972505-216.3696535,455.649035-241.8249068,179.1776235-510.3233536Z" fill="url(#linear-gradient)"/>
          <polygon points="942.9634428 361.5998982 1005.6625216 490.6958843 711.2076141 780.8857725 675.9421915 646.0274894 942.9634428 361.5998982" fill="url(#linear-gradient1)"/>
          <polygon points="659.4155536 1045.6204073 802.0204948 1218.7161301 1132.9387884 1218.7161301 1023.3294789 1078.7122367 659.4155536 1045.6204073" fill="url(#linear-gradient2)"/>
          <polygon points="307.7402918 41.5128853 402.3730172 91.8969151 463.4656252 442.3309029 350.0181009 429.3427323 307.7402918 41.5128853" fill="url(#linear-gradient3)"/>
          <path d="M710.8609086,1061.345745l312.4685576,17.3664744,43.425649-206.1875263-317.0171374-81.7081391c-7.3725824-59.7965922-24.9683519-116.6504645-51.0931717-168.9716389l244.3186088-260.245057-145.8541254-148.9419001-280.7900315,200.5533516c-52.9243562-36.6286536-112.6727733-65.0039405-177.1187292-83.1023063l-31.460216-288.5961239-208.0022333,13.8639171-22.9397684,259.5722594c-274.6209011,43.3288355-483.9032827,268.4937253-483.9032827,539.7526902,0,182.858651,95.1019516,344.7629049,241.2043643,444.1499289l-59.7036168,355.780651,203.9580366,43.1074813,114.318735-300.9811702c26.3453137,3.4518014,53.2552956,5.2390459,80.6083828,5.2390459,60.369069,0,118.5835579-8.6952148,173.3164008-24.8238265l183.0519528,251.3718525,173.067049-134.415198-124.7751878-247.1109137c56.8790848-52.1802886,102.452564-115.2628485,132.9197634-185.6738523ZM72.5690901,1075.5435132c-78.4639276-44.8752706-131.0044709-126.9821119-131.0044709-220.841767,0-141.9875414,120.2491735-257.0975928,268.5901418-257.0975928,119.9130726,0,221.4814111,75.2330172,255.9808296,179.0890128,8.1857363,24.6006194,12.5984595,50.8166941,12.5984595,78.0085799,0,141.9983941-120.2491735,257.0976589-268.5792891,257.0976589-50.2854441,0-97.3507643-13.2273833-137.5856708-36.2558919Z" fill="url(#linear-gradient4)"/>
          <polygon points="1023.3294789 1078.7122367 1132.9387884 1218.7161301 1181.3037697 1032.8927807 1066.7551297 872.5246845 1023.3294789 1078.7122367" fill="url(#linear-gradient5)"/>
          <path d="M466.1355905,776.6931662c-66.1256667-31.2142449-197.3253528-67.9362709-315.7747748,50.0143928,0,0-98.3048702,98.2615258-77.7917256,248.8359542-78.4639276-44.8752706-131.0044709-126.9821119-131.0044709-220.841767,0-141.9875414,120.2491735-257.0975928,268.5901418-257.0975928,119.9130726,0,221.4814111,75.2330172,255.9808296,179.0890128Z" fill="url(#linear-gradient6)"/>
          <polygon points="92.6725474 1396.7586371 239.160793 1563.9180771 107.0920783 1844.9153626 -21.6461876 1697.7398074 92.6725474 1396.7586371" fill="url(#linear-gradient7)"/>
          <polygon points="529.6492839 1628.5457091 675.9421915 1755.8219758 809.6570708 1659.0920131 702.716333 1494.1305111 529.6492839 1628.5457091" fill="url(#linear-gradient8)"/>
          <polygon points="577.9411452 1247.0195974 706.8732211 1327.4314889 798.9154562 1642.5225288 702.716333 1494.1305111 577.9411452 1247.0195974" fill="url(#linear-gradient9)"/>
          <polygon points="107.0920783 1844.9153626 -58.4353808 1844.9153626 -21.6461876 1697.7398074 107.0920783 1844.9153626" fill="url(#linear-gradient10)"/>
        </g>
        <g>
          <path d="M3249.4674844,2848.8893309l-72.2089624-56.1004654s-30.2529219-49.8770835-26.8988508-137.0654096c9.4323458-245.1917123,166.1997361-434.5319298,476.089577-454.8647757,18.0213403-1.1824367,58.0288704-18.0607321,77.6618277-18.7487864l58.4284851,164.1529251-347.7002575,144.2484296-165.3718194,358.3780825Z" fill="url(#linear-gradient11)"/>
          <polygon points="3054.0232461 3021.0976499 3017.3791698 2922.9872385 3251.3119308 2732.4831837 3267.6285877 2832.8873291 3054.0232461 3021.0976499" fill="url(#linear-gradient12)"/>
          <polygon points="3307.1997348 2543.7322932 3215.5410956 2408.1449756 2975.1365493 2385.3173999 3045.1073768 2494.5881413 3307.1997348 2543.7322932" fill="url(#linear-gradient13)"/>
          <polygon points="3493.4178813 3297.4528089 3428.144995 3254.3219643 3407.9364346 2995.5253923 3489.4575009 3012.7868956 3493.4178813 3297.4528089" fill="url(#linear-gradient14)"/>
          <path d="M3270.9106382,2528.7593664l-225.8032534-34.1712117-45.7710713,146.7948957,224.6692425,81.227727c1.2310927,43.9494313,10.0920924,86.4662652,25.4619284,126.2785535l-195.4442208,172.2083499,95.6852884,118.2642567,217.8221885-126.3278054c35.9215937,30.2607314,77.3700489,54.9963221,122.9400862,72.5900136l2.9470389,211.828666,152.065217,4.2766993,34.5711622-186.9908468c202.4947145-12.5333646,370.0660022-161.6736652,388.7781274-358.7370782,12.6140494-132.8426136-45.3067736-257.0227104-144.5908569-339.3036142l67.9159511-254.3479728-145.1971707-45.386134-103.8123752,210.7699195c-18.9011519-4.3250204-38.3273476-7.4797308-58.1987377-9.3666155-43.8567432-4.1644101-86.7480513-1.8633179-127.6227978,6.0781393l-115.6427808-195.2432661-135.0015377,85.7109567,73.5999786,188.1277141c-44.9208773,33.98412-82.3805576,76.668379-109.3714069,125.7186534ZM3735.5943944,2562.4759877c53.9066338,38.0134932,86.4121965,101.2866079,79.9375216,169.4734935-9.7946575,103.1506905-105.0935032,178.4804109-212.8598125,168.2474781-87.1140954-8.2719052-155.7113999-69.9334049-173.6101881-147.7622591-4.249737-18.4364581-5.6470285-37.7862355-3.7712638-57.5405166,9.7954062-103.1585747,105.0935078-178.480459,212.8519329-168.2482748,36.5312212,3.4688163,69.810638,16.3248908,97.4518099,35.8300789Z" fill="url(#linear-gradient15)"/>
          <polygon points="3045.1073768 2494.5881413 2975.1365493 2385.3173999 2927.1819385 2516.977461 2999.3363025 2641.3830557 3045.1073768 2494.5881413" fill="url(#linear-gradient16)"/>
          <path d="M3429.0619154,2752.4347002c45.8855423,27.2379473,138.6659258,62.9661406,232.8532459-14.5513709,0,0,78.1945593-64.6034265,73.6792331-175.4073416,53.9066338,38.0134932,86.4121965,101.2866079,79.9375216,169.4734935-9.7946575,103.1506905-105.0935032,178.4804109-212.8598125,168.2474781-87.1140954-8.2719052-155.7113999-69.9334049-173.6101881-147.7622591Z" fill="url(#linear-gradient17)"/>
          <polygon points="3743.1479207 2327.7337845 3648.2586502 2196.1911599 3763.5874398 2001.1635124 3846.9602959 2116.963865 3743.1479207 2327.7337845" fill="url(#linear-gradient18)"/>
          <polygon points="3441.6836043 2129.2020421 3344.1850009 2026.6471026 3240.3715337 2087.6952123 3306.6820666 2214.9129988 3441.6836043 2129.2020421" fill="url(#linear-gradient19)"/>
          <polygon points="3380.2820451 2403.040713 3292.1628652 2335.7292604 3247.0320655 2100.473546 3306.6820666 2214.9129988 3380.2820451 2403.040713" fill="url(#linear-gradient20)"/>
          <polygon points="3763.5874398 2001.1635124 3883.8393403 2012.5820126 3846.9602959 2116.963865 3763.5874398 2001.1635124" fill="url(#linear-gradient21)"/>
        </g>
        <g>
          <polygon points="695.5118074 2177.9069716 804.9237715 2116.1562972 910.4046421 2649.2022836 695.5118074 2769.4134322 695.5118074 2177.9069716" fill="url(#linear-gradient22)"/>
          <polygon points="748.1961922 2467.839007 -180.156977 3062.824451 -225.339713 2683.2874915 705.7959035 2137.3572708 748.1961922 2467.839007" fill="url(#linear-gradient23)"/>
          <polygon points="788.6447124 2783.0383844 483.9105304 3161.0385661 65.8977938 3117.8493575 762.9076138 2582.425901 788.6447124 2783.0383844" fill="url(#linear-gradient24)"/>
          <polygon points="1899.0676971 1938.6571897 2033.7343172 1918.2157239 2075.8929687 1922.8484114 2237.7555592 1836.8151737 2370.3190875 1727.4910086 2453.9225413 1739.9514678 2393.9809819 1885.5329809 2184.3601188 2022.8408887 1955.0972665 2137.3618574 1899.0676971 1938.6571897" fill="url(#linear-gradient25)"/>
          <polygon points="1971.8390931 1916.8941789 2063.072809 2120.4969304 2231.9378905 2044.8290489 2150.6673057 1863.4606312 1971.8390931 1916.8941789" fill="url(#linear-gradient26)"/>
          <polygon points="2192.9854907 1842.1401838 2272.1728086 2018.8594552 2426.5093371 1884.4596048 2323.1939484 1748.6076267 2192.9854907 1842.1401838" fill="url(#linear-gradient27)"/>
          <path d="M2458.0541943,1791.7402515l-134.8602459-43.1326248,87.7011752-162.085254s24.7955529-61.1269498,78.1069727-47.0395956c0,0,40.4899407,22.3069793,22.7537921,87.9625418l-53.7016941,164.2949326Z" fill="url(#linear-gradient28)"/>
          <polygon points="1946.4840216 2027.0629556 2103.8002982 2026.5579222 2151.1778931 2039.0032713 2350.6923954 1968.1779564 2520.6861982 1865.7732394 2614.0837702 1894.1930051 2520.9044169 2050.3407684 2258.1296526 2171.641303 1976.7812758 2263.5766659 1946.4840216 2027.0629556" fill="url(#linear-gradient29)"/>
          <polygon points="2033.3131359 2014.5467623 2102.9978746 2262.6290926 2308.7536545 2204.833611 2246.6788019 1983.8429841 2033.3131359 2014.5467623" fill="url(#linear-gradient30)"/>
          <polygon points="2298.6419609 1966.6655844 2359.1256045 2181.9914006 2558.2481194 2054.633388 2463.2659805 1881.902211 2298.6419609 1966.6655844" fill="url(#linear-gradient31)"/>
          <path d="M2610.0172414,1954.0594084l-146.7512609-72.1571973,127.6930468-170.2924425s38.6983816-65.6267685,97.2131946-40.4878393c0,0,42.472511,32.3539904,11.070711,104.3521379l-89.2256914,178.5853413Z" fill="url(#linear-gradient32)"/>
          <polygon points="1948.9362667 2187.9059654 2147.1884321 2242.9076816 2202.4390356 2275.3332509 2478.6920529 2256.7203324 2728.9447862 2187.9059654 2836.4885308 2256.7203324 2663.9440763 2420.3681614 2290.189994 2480.1602729 1903.4357698 2496.4104504 1948.9362667 2187.9059654" fill="url(#linear-gradient33)"/>
          <polygon points="1956.9950245 2032.0806151 2138.9551651 2060.1542097 2191.4597333 2083.1723836 2435.0137075 2037.638048 2650.1924253 1950.2181862 2752.989194 2000.0870623 2616.8230421 2163.6303501 2290.9411773 2255.9936404 1948.9362667 2311.0253739 1956.9950245 2032.0806151" fill="url(#linear-gradient34)"/>
          <polygon points="2059.6552967 2033.4282438 2095.0237139 2332.9221042 2343.4194492 2303.5880672 2311.9134218 2036.8002799 2059.6552967 2033.4282438" fill="url(#linear-gradient35)"/>
          <polygon points="2375.1154234 2026.4079014 2405.8138343 2286.3569267 2659.2128977 2175.395604 2580.8726852 1958.404429 2375.1154234 2026.4079014" fill="url(#linear-gradient36)"/>
          <path d="M2737.3824789,2068.5558526l-156.5097937-110.1514236,178.6429497-173.6083124s56.6927882-68.8194624,119.7604057-29.0978545c0,0,43.2073147,45.140363-6.2107764,122.6547442l-135.6827853,190.2028462Z" fill="url(#linear-gradient37)"/>
          <path d="M1982.9654318,2314.6103775c-4.5472197,44.7257328-13.1851628,89.4517191-27.5954641,131.6754672-14.8774433,43.5942507-35.9011104,84.5202416-64.9293036,119.9959056l-1043.2619045,151.131687-20.3176948-134.9875363-21.0132749-139.638678-51.6923065-343.490485,570.7744142-303.2702764,624.0031183,142.2756345s53.2184386,188.0503455,34.032416,376.3082814Z" fill="url(#linear-gradient38)"/>
          <polygon points="2062.6875092 2202.8556967 2062.6875092 2539.8560409 2342.190562 2539.8560409 2342.190562 2239.6576461 2062.6875092 2202.8556967" fill="url(#linear-gradient39)"/>
          <polygon points="2413.6913429 2236.4076106 2413.6913429 2528.9108054 2709.4445733 2438.9801461 2650.9439343 2187.9059654 2413.6913429 2236.4076106" fill="url(#linear-gradient40)"/>
          <path d="M2810.1956737,2330.65864l-159.2517394-142.7526747,221.0024139-169.2507331s71.9343322-68.9429126,136.7182665-16.5962611c0,0,42.0336858,55.757346-22.9670241,135.3028862l-175.5019169,193.2967826Z" fill="url(#linear-gradient41)"/>
          <polygon points="762.9076138 2582.425901 65.8977938 3117.8493575 -10.7218437 3176.7051826 -212.2998509 3083.4326837 -180.156977 3062.824451 748.1961922 2467.839007 762.9076138 2582.425901" fill="url(#linear-gradient42)"/>
          <path d="M1982.9654318,2314.6103775c-4.5472197,44.7257328-13.1851628,89.4517191-27.5954641,131.6754672l-1128.5089029,136.1400563-21.0132749-139.638678,1177.1176419-128.1768455Z" fill="url(#linear-gradient43)"/>
          <polygon points="1306.3569698 2042.0057747 1546.5287811 2277.6098342 1418.1241559 2371.6310331 1306.3569698 2042.0057747" fill="url(#linear-gradient44)"/>
          <polygon points="880.0128366 2234.7524781 1291.2775029 2022.7716494 1489.0270224 2397.2262072 980.1974687 2462.6981606 880.0128366 2234.7524781" fill="url(#linear-gradient45)"/>
          <polygon points="1810.3543342 2024.129233 1929.8013257 1903.7777095 1690.1868173 1783.0098853 1810.3543342 2024.129233" fill="url(#linear-gradient46)"/>
          <polygon points="1535.4315628 2334.1944496 1291.2775029 2022.7716494 1690.1868173 1783.0098853 1896.1743047 2034.5312586 1535.4315628 2334.1944496" fill="url(#linear-gradient47)"/>
          <path d="M1918.5866804,1948.6749079l-228.620323-168.2330882,274.4590857-359.8674232s72.8614365-74.458294,156.6539743-20.5407249c0,0,54.4361377,24.7653644,65.5895567,90.98514,5.9401396,35.2676351-2.6716006,71.4832282-23.1048024,101.2135607l-244.9774913,356.4425357Z" fill="url(#linear-gradient48)"/>
        </g>
        <g>
          <path d="M1718.2767436,974.6438123h318.9790624c6.4345228,0,6.4451805-10,0-10h-318.9790624c-6.4345228,0-6.4451805,10,0,10h0Z" fill="#f9f2f6"/>
          <path d="M2096.9165647,760.4753246h-222.6412275c-3.7535308,0-7.7157615-.7209982-10.5842364,2.1144554-8.8292972,8.7276563-16.8947703,18.3965277-25.2909377,27.539021-7.2799473,7.9270537-14.5598946,15.8541075-21.8398419,23.7811612l3.5355339-1.4644661h-101.8191116c-6.4345228,0-6.4451805,10,0,10h75.4215641c8.5761351,0,17.8648203,1.0170876,26.3975474,0,3.9607961-.4721207,6.7871312-5.0050943,9.3015728-7.7430417,5.0220416-5.4684453,10.0440832-10.9368906,15.0661248-16.4053359,8.9651816-9.7620867,17.9303633-19.5241733,26.8955449-29.28626l-3.5355339,1.4644661h229.093001c6.4345228,0,6.4451805-10,0-10h0Z" fill="#f9f2f6"/>
          <path d="M1718.2767351,1098.4050242c39.8466179.000013,79.6932358.000026,119.5398538.0000391l78.8557108.0000258,24.245663.0000079c3.7535317.0000012,7.7157602.7210007,10.5842366-2.1144531,8.8292993-8.7276544,16.8947762-18.396522,25.2909467-27.5390127,7.2799499-7.9270514,14.5598998-15.8541027,21.8398497-23.7811541l-3.5355339,1.4644661c29.6565039.0000097,59.3130078.0000194,88.9695117.0000291,4.2831999.0000014,8.5663999.0000028,12.8495998.0000042,6.4345229.0000021,6.4451804-9.9999979,0-10-25.1405214-.0000082-50.2810427-.0000164-75.4215641-.0000246-8.5761346-.0000028-17.8648206-1.0170947-26.3975474-.0000086-3.9607951.4721198-6.7871331,5.005094-9.3015748,7.7430398-5.0220434,5.4684436-10.0440868,10.9368873-15.0661301,16.4053309-8.9651848,9.7620837-17.9303697,19.5241675-26.8955545,29.2862512l3.5355339-1.4644661c-25.7346457-.0000084-51.4692915-.0000168-77.2039372-.0000252-41.2086757-.0000135-82.4173514-.0000269-123.626027-.0000404-9.4210122-.0000031-18.8420245-.0000062-28.2630367-.0000092-6.4345229-.0000021-6.4451804,9.9999979,0,10h0Z" fill="#f9f2f6"/>
          <path d="M2152.9864565,842.9394074c-31.0700263,0-62.1400526,0-93.2100789,0-20.566239,0-41.132478,0-61.698717,0h-18.8118721c-3.2343016,0-6.0484699-.4542253-8.636312,1.8874474-7.1601694,6.4790557-13.3479967,14.5344853-19.8758138,21.6425528-5.6364248,6.1374403-11.2728496,12.2748807-16.9092744,18.412321l3.5355339-1.4644661c-26.4345176,0-52.8690352,0-79.3035528,0-6.4345228,0-6.4451805,10,0,10,19.7777419,0,39.5554838,0,59.3332258,0h14.5509465c2.0682749,0,4.7146856.4218564,6.7485786-.1786048,2.7072467-.7992539,4.8961058-4.2147218,6.6930072-6.1713479l11.7543353-12.7991651c6.9775112-7.5977345,13.9550225-15.1954689,20.9325337-22.7932034l-3.5355339,1.4644661c20.0771484,0,40.1542969,0,60.2314453,0,32.0218534,0,64.0437067,0,96.0655601,0h22.1359884c6.4345228,0,6.4451805-10,0-10h0Z" fill="#f9f2f6"/>
          <path d="M2550.7705272,1069.1891949c28.8581991.0000123,57.7163982.0000245,86.5745973.0000368,4.1387352.0000018,8.2774704.0000035,12.4162056.0000053,6.4345229.0000027,6.4451804-9.9999973,0-10-28.8581991-.0000123-57.7163982-.0000245-86.5745973-.0000368-4.1387352-.0000018-8.2774704-.0000035-12.4162056-.0000053-6.4345229-.0000027-6.4451804,9.9999973,0,10h0Z" fill="#f9f2f6"/>
          <path d="M2550.7705673,974.6438123c32.9244872.000014,65.8489744.000028,98.7734616.0000419,4.6095256.000002,9.2190511.0000039,13.8285767.0000059l-3.5355339-1.4644661c12.0449437,13.5891789,24.0898875,27.1783579,36.1348312,40.7675368,2.8898235,3.2603165,5.779647,6.520633,8.6694705,9.7809495,1.2345559,1.3928334,2.4267904,3.1952369,3.9596606,4.2873856,2.7444931,1.9554131,7.8620301,1.0735584,11.0219761,1.0735597,42.1779455.0000179,84.355891.0000358,126.5338365.0000537,13.7274758.0000058,27.4549516.0000117,41.1824274.0000175,6.4345229.0000027,6.4451804-9.9999973,0-10-19.7893821-.0000084-39.5787642-.0000168-59.3681463-.0000252-31.5414384-.0000134-63.0828768-.0000268-94.6243151-.0000402-7.2387379-.0000031-14.4774758-.0000061-21.7162137-.0000092l3.5355339,1.4644661c-8.0429989-9.0741603-16.0859978-18.1483207-24.1289967-27.222481-5.5290632-6.2379228-11.0581264-12.4758456-16.5871896-18.7137684-2.421644-2.7321135-4.7459714-6.1415718-7.5418071-8.5087127-2.570494-2.1763516-6.7987714-1.4644675-9.9509664-1.4644688l-19.0058743-.0000081c-17.6117848-.0000075-35.2235695-.000015-52.8353543-.0000224-11.4484591-.0000049-22.8969182-.0000097-34.3453773-.0000146-6.4345229-.0000027-6.4451804,9.9999973,0,10h0Z" fill="#f9f2f6"/>
          <path d="M2550.7706104,873.1782394c25.4046969.0000108,50.8093938.0000216,76.2140907.0000324,40.4442775.0000172,80.888555.0000343,121.3328325.0000515,9.2190511.0000039,18.4381023.0000078,27.6571534.0000117,6.4345229.0000027,6.4451804-9.9999973,0-10-25.4046969-.0000108-50.8093938-.0000216-76.2140907-.0000324-40.4442775-.0000172-80.888555-.0000343-121.3328325-.0000515-9.2190511-.0000039-18.4381023-.0000078-27.6571534-.0000117-6.4345229-.0000027-6.4451804,9.9999973,0,10h0Z" fill="#f9f2f6"/>
          <path d="M2929.4104861,734.4903563c-39.8466179-.0000169-79.6932358-.0000338-119.5398538-.0000507-26.2852369-.0000112-52.5704739-.0000223-78.8557108-.0000335l-24.245663-.0000103c-3.753532-.0000016-7.7157598-.7210014-10.5842366,2.1144524-8.8293,8.7276538-16.894778,18.3965203-25.2909494,27.5390103-7.2799507,7.9270506-14.5599013,15.8541013-21.839852,23.7811519l3.5355339-1.4644661c-29.6565039-.0000126-59.3130078-.0000252-88.9695117-.0000378-4.2831999-.0000018-8.5663999-.0000036-12.8495998-.0000055-6.4345229-.0000027-6.4451804,9.9999973,0,10,25.1405214.0000107,50.2810427.0000213,75.4215641.000032,8.5761344.0000036,17.8648207,1.0170968,26.3975474.0000112,3.9607948-.4721196,6.7871336-5.0050939,9.3015754-7.7430393l15.0661317-16.4053295c8.9651858-9.7620829,17.9303716-19.5241657,26.8955573-29.2862486l-3.5355339,1.4644661c25.7346457.0000109,51.4692915.0000218,77.2039372.0000328,41.2086757.0000175,82.4173514.000035,123.626027.0000525,9.4210122.000004,18.8420245.000008,28.2630367.000012,6.4345229.0000027,6.4451804-9.9999973,0-10h0Z" fill="#f9f2f6"/>
          <path d="M2444.54343,646.4148338v-98.9908029c0-6.4345228-10-6.4451805-10,0v98.9908029c0,6.4345228,10,6.4451805,10,0h0Z" fill="#f9f2f6"/>
          <path d="M2349.9980475,646.4148338v-112.6020383l-1.4644661,3.5355339c13.5891738-12.0449495,27.1783476-24.089899,40.7675214-36.1348485l9.7809458-8.6694747c1.392833-1.2345565,3.1952357-2.4267918,4.2873841-3.9596623,1.9554132-2.7444944,1.0735563-7.8620291,1.0735563-11.0219761v-167.7162639c0-6.4345228-10-6.4451805-10,0v175.7086751l1.4644661-3.5355339c-9.0741569,8.0430027-18.1483139,16.0860055-27.2224708,24.1290082-6.2379204,5.5290658-12.4758409,11.0581317-18.7137613,16.5871975-2.7321127,2.4216454-6.1415691,4.7459743-8.5087095,7.5418107-2.1763519,2.5704956-1.4644661,6.7987701-1.4644661,9.9509664v106.1866058c0,6.4345228,10,6.4451805,10,0h0Z" fill="#f9f2f6"/>
          <path d="M2248.5324745,646.4148338v-225.2040766c0-6.4345228-10-6.4451805-10,0v225.2040766c0,6.4345228,10,6.4451805,10,0h0Z" fill="#f9f2f6"/>
          <path d="M2109.8444307,267.7750127v222.6412275c0,3.7535308-.7209982,7.7157615,2.1144554,10.5842364,8.7276563,8.8292972,18.3965277,16.8947703,27.539021,25.2909377,7.9270537,7.2799473,15.8541075,14.5598946,23.7811612,21.8398419l-1.4644661-3.5355339v101.8191116c0,6.4345228,10,6.4451805,10,0v-75.4215641c0-8.5761351,1.0170876-17.8648203,0-26.3975474-.4721207-3.9607961-5.0050943-6.7871312-7.7430417-9.3015728-5.4684453-5.0220416-10.9368906-10.0440832-16.4053359-15.0661248-9.7620867-8.9651816-19.5241733-17.9303633-29.28626-26.8955449l1.4644661,3.5355339v-229.093001c0-6.4345228-10-6.4451805-10,0h0Z" fill="#f9f2f6"/>
          <rect x="2005.5314129" y="624.7835102" width="573.0857128" height="573.0857129" rx="99.1794556" ry="99.1794556" fill="url(#linear-gradient49)"/>
          <rect x="2068.1360925" y="708.4695644" width="447.8763538" height="447.8763538" rx="77.5104526" ry="77.5104526"/>
          <rect x="2068.1360925" y="687.3881897" width="447.8763538" height="447.8763538" rx="77.5104526" ry="77.5104526" fill="url(#linear-gradient50)"/>
          <circle cx="2114.8444307" cy="251.4836555" r="36.2864405" fill="#f9f2f6"/>
          <circle cx="2243.5324745" cy="406.545041" r="36.2864405" fill="#f9f2f6"/>
          <circle cx="2399.442989" cy="287.770096" r="36.2864405" fill="#f9f2f6"/>
          <circle cx="2439.54343" cy="547.4240309" r="36.2864405" fill="#f9f2f6"/>
          <circle cx="1699.4941349" cy="813.923757" r="36.2864405" fill="#f9f2f6"/>
          <circle cx="1858.0763694" cy="888.4172625" r="36.2864405" fill="#f9f2f6"/>
          <circle cx="1699.4941349" cy="969.6438123" r="36.2864405" fill="#f9f2f6"/>
          <circle cx="1699.4941349" cy="1093.4050991" r="36.2864405" fill="#f9f2f6"/>
          <circle cx="2912.3653497" cy="1027.4798585" r="36.2864405" fill="#f9f2f6"/>
          <circle cx="2792.6262193" cy="868.178335" r="36.2864405" fill="#f9f2f6"/>
          <circle cx="2948.6517903" cy="739.4902591" r="36.2864405" fill="#f9f2f6"/>
          <circle cx="2649.7613301" cy="1063.7357504" r="36.2864405" fill="#f9f2f6"/>
        </g>
        <g>
          <path d="M2164.7119141,993.2744141l60.8730469-174.6767578h42.0810547l60.8720703,174.6767578h-31.2304688l-48.9619141-151.1220703h-3.4404297l-48.9628906,151.1220703h-31.2304688ZM2195.1484375,955.6923828v-21.1728516h106.6582031v21.1728516h-106.6582031Z"/>
          <path d="M2357.1191406,993.2744141v-174.6767578h29.3779297v174.6767578h-29.3779297Z"/>
        </g>
        <g>
          <path d="M3597.8782607,513.1725037l-67.189783,35.6890799s-48.1676737,5.9645982-113.2021193-26.294635c-182.890391-90.7196752-273.1773036-274.2353193-183.0010776-516.376606,5.2441101-14.0814894,6.0675884-50.1999763,12.2361763-65.3362284l144.5072017,11.5943954-9.0077197,313.0700053,215.6573216,247.6539887Z" fill="url(#linear-gradient51)"/>
          <polygon points="3661.9808404 720.2060847 3575.0251279 714.583958 3510.1524921 472.1017859 3591.9216864 493.9344831 3661.9808404 720.2060847" fill="url(#linear-gradient52)"/>
          <polygon points="3385.9335292 365.3563933 3251.7834311 388.7193243 3152.5279837 563.4111298 3259.31221 547.5410519 3385.9335292 365.3563933" fill="url(#linear-gradient53)"/>
          <polygon points="4021.4832872 480.8784288 3966.5014655 515.7228979 3763.1832402 442.864719 3804.0670838 386.8714224 4021.4832872 480.8784288" fill="url(#linear-gradient54)"/>
          <path d="M3362.2016307,387.7977532l-102.8894078,159.7432972,95.8213542,84.7681761,138.2196785-142.8458901c33.7779562,14.0433692,69.0687872,21.807279,104.525005,23.7091673l64.1026092,207.0335783,122.3738509-32.3228597-21.652133-208.3829499c35.2103722-16.952396,68.1105961-39.9827246,96.9946095-68.5753385l161.7860868,69.9535079,55.0693097-113.9627386-130.1476846-89.9658643c59.4963418-157.9684321,3.4038105-335.9844564-139.7938285-417.3457182-96.531103-54.8465212-210.5252035-53.2036611-306.8135007-5.8862687l-169.9091775-138.2301951-83.9315035,94.7398374,124.5992974,150.6249968c-9.724205,12.8723628-18.7390564,26.5420802-26.9433261,40.9817781-18.1070647,31.8688385-30.977681,65.2083118-38.8799232,98.9393927l-187.6037301,21.2368147,19.048165,131.6785343,167.8748798,8.2494728c10.4856996,45.677402,30.1177065,88.6565945,58.1493689,125.8592696ZM3546.1555173,46.5849576c47.224087-27.961253,106.3272791-31.070332,155.8758019-2.9181196,74.9552396,42.5876635,99.6543793,140.5932604,55.1610725,218.9024747-35.9666597,63.3021249-106.1465287,94.3547136-171.3198571,81.4164515-15.441895-3.0574449-30.6049136-8.5912025-44.9595133-16.7471215-74.9609687-42.5909187-99.6544143-140.5932803-55.1643626-218.8967655,15.0825879-26.5456918,36.1820708-47.4240658,60.4068585-61.7569197Z" fill="url(#linear-gradient55)"/>
          <polygon points="3259.31221 547.5410519 3152.5279837 563.4111298 3236.117586 644.6787603 3355.1335774 632.3092367 3259.31221 547.5410519" fill="url(#linear-gradient56)"/>
          <path d="M3585.8725347,343.9857643c36.3116989-25.545364,95.049221-83.7913096,68.3107051-181.6988291,0,0-22.3867632-81.3676593-108.0277225-115.7019775,47.224087-27.961253,106.3272791-31.070332,155.8758019-2.9181196,74.9552396,42.5876635,99.6543793,140.5932604,55.1610725,218.9024747-35.9666597,63.3021249-106.1465287,94.3547136-171.3198571,81.4164515Z" fill="url(#linear-gradient57)"/>
          <polygon points="3370.5561965 -39.147509 3238.3751065 -11.9540559 3129.6492232 -165.9553139 3245.9568991 -189.7725059 3370.5561965 -39.147509" fill="url(#linear-gradient58)"/>
          <polygon points="3117.1292171 122.0104764 3006.0610484 161.0633472 3017.0184411 260.6645783 3136.177382 253.6890108 3117.1292171 122.0104764" fill="url(#linear-gradient59)"/>
          <polygon points="3304.0522619 261.9384836 3222.9310005 305.8830437 3028.9873077 259.9639205 3136.177382 253.6890108 3304.0522619 261.9384836" fill="url(#linear-gradient60)"/>
          <polygon points="3129.6492232 -165.9553139 3179.2974364 -253.3372788 3245.9568991 -189.7725059 3129.6492232 -165.9553139" fill="url(#linear-gradient61)"/>
        </g>
      </g>
    </g>
    <path d="M3519.8695652,1441.8695652c-325.5652174-44.9511762-289.1250892-81.3913043-244.173913,244.173913,44.9511762-325.5652174,81.3913043-289.1250892-244.173913-244.173913,325.5652174,44.9511762,289.1250892,81.3913043,244.173913-244.173913-44.9511762,325.5652174-81.3913043,289.1250892,244.173913,244.173913Z" fill="#f9f2f6"/>
    <path d="M1713.6086956,323.5217391c-197.2173913-27.2300394-175.1430829-49.3043478-147.9130435,147.9130435,27.2300394-197.2173913,49.3043478-175.1430829-147.9130435-147.9130435,197.2173913,27.2300394,175.1430829,49.3043478,147.9130435-147.9130435-27.2300394,197.2173913-49.3043478,175.1430829,147.9130435,147.9130435Z" fill="#f9f2f6"/>
    <path d="M1639.6521739,1441.8695652c-98.6086956-13.6150197-87.5715414-24.6521739-73.9565217,73.9565217,13.6150197-98.6086956,24.6521739-87.5715414-73.9565217-73.9565217,98.6086956,13.6150197,87.5715414,24.6521739,73.9565217-73.9565217-13.6150197,98.6086956-24.6521739,87.5715414,73.9565217,73.9565217Z" fill="#f9f2f6"/>
  </g>
</svg>