<?xml version="1.0" encoding="utf-8"?>
<!-- Generator: Adobe Illustrator 28.1.0, SVG Export Plug-In . SVG Version: 6.00 Build 0)  -->
<svg version="1.1" xmlns="http://www.w3.org/2000/svg" xmlns:xlink="http://www.w3.org/1999/xlink" x="0px" y="0px"
	 viewBox="0 0 841.9 841.9" style="enable-background:new 0 0 841.9 841.9;" xml:space="preserve">
<style type="text/css">
	.st0{fill:#CDCDC3;}
	.st1{fill:#EEFF01;}
</style>
<g id="Layer_3">
	<rect x="0.1" y="0.1" class="st0" width="841.9" height="841.9"/>
</g>
<g id="Layer_4">
	<g>
		<circle class="st1" cx="636.1" cy="265.5" r="72.6"/>
		<path d="M546.7,274.4c-4.5,0-9.2-1-12.6-4.5c-3.3-3.4-4.7-8.7-3.8-14.2c0.8-4.8,3.2-9.1,5.6-13c12.3-20,30.8-36.5,52.1-46.4
			c0.9-0.4,1.9,0,2.3,0.8c0.4,0.9,0,1.9-0.8,2.3c-20.6,9.7-38.6,25.7-50.6,45.1c-2.2,3.6-4.4,7.5-5.1,11.7
			c-0.7,4.4,0.3,8.5,2.9,11.1c3.9,4,10.4,3.8,15.2,3c13.8-2.4,26.3-10.6,34.2-22c-3.4-3.7-5.3-9-5.7-13.8c-0.2-2.1-0.2-5.3,1.1-8.1
			c1.5-3,4.4-5,7.4-5c4,0.1,6.9,3.7,7.6,7c0.7,3.5-0.3,7-1.2,9.6c-1.2,3.4-2.8,6.6-4.7,9.7c1.1,0.8,2.4,1.4,3.9,1.6
			c5.8,1.1,11.3-3.4,13.8-8.3c0.4-0.8,0.8-1.7,1.1-2.5c-2.8-4.3-3.5-10.3-3.6-15.6c0-1,0-4.3,1.9-6.2c0.8-0.8,1.8-1.2,3-1.2
			c2.9,0.1,4.6,3,4.4,7.2c-0.2,4.8-0.4,10.1-1.8,15.1c0.8,0.9,1.7,1.6,2.8,2.1c2.8,1.3,6.5,0.9,9.6-1c2.7-1.7,5-4.4,6.8-8.2
			c1.1-2.3,1.9-4.7,2.5-7.1c-4.4-3.2-7.2-8.8-7.5-15.1c-0.1-3.2,1.1-6.7,4.3-7.2c3.4-0.6,5.7,2.6,6.5,6c1.1,4.7,1.3,9.7,0.6,14.5
			c3.5,1.6,7.7,1.3,10.4-0.8c-0.7-4.5-0.4-9-0.1-13.2c0-0.6,0.4-1.2,1-1.5c0.6-0.3,1.3-0.2,1.8,0.2c2.3,1.7,3.7,4.5,3.8,7.7
			c0.1,3-0.9,5.8-2.6,7.9c0.1,0.6,0.3,1.2,0.5,1.8c1.5,4.2,5.4,8.8,10.5,8.9c4.1,0,7.9-3.3,8.5-7.3c-3.1-3-5.7-6.6-7.6-10.5
			c-0.3-0.6-0.2-1.3,0.2-1.9c0.4-0.5,1.1-0.8,1.8-0.6c5.2,1.3,9.1,6.3,9.2,11.6c9.3,8.3,22.9,12.1,35,8.6c2-0.6,8.5-2.8,9.3-7.8
			c0.8-4.6-3.7-8.8-7.6-11.6c-22.1-15.5-51-21.3-77.3-15.5c-0.9,0.2-1.9-0.4-2.1-1.3c-0.2-0.9,0.4-1.9,1.3-2.1
			c27.3-6,57.2,0,80.1,16c6.9,4.8,9.9,9.9,9.1,15c-1.1,6.8-8.6,9.7-11.8,10.6c-12.5,3.6-26.5,0.2-36.6-7.9
			c-1.7,4.7-6.4,8.2-11.5,8.2c-6.8-0.1-11.9-5.9-13.8-11.2c-0.1-0.2-0.1-0.3-0.2-0.5c-3.5,2-8,2.2-12,0.7c-0.6,2.4-1.5,4.7-2.5,6.9
			c-2.1,4.4-4.8,7.6-8.1,9.6c-4.1,2.6-9,3-12.9,1.2c-1-0.4-1.8-1-2.6-1.6c-0.2,0.4-0.4,0.8-0.5,1.2c-3.1,6.1-10.1,11.6-17.6,10.2
			c-1.9-0.4-3.6-1.1-5.1-2.2c-8.5,12-21.6,20.7-36.3,23.2C550.7,274.2,548.7,274.4,546.7,274.4z M588.8,225c-1.6,0-3.2,1.2-4.1,3
			c-0.8,1.6-1,3.6-0.8,6.3c0.3,3.8,1.7,8,4.1,11.1c1.6-2.7,2.9-5.5,4-8.4c0.9-2.4,1.7-5.1,1.1-7.7C592.7,227.2,591,225,588.8,225
			C588.8,225,588.8,225,588.8,225z M610.5,219.1c-0.1,0-0.2,0-0.3,0.1c-0.5,0.5-0.9,2.1-0.9,3.6c0.1,3.4,0.4,7.2,1.5,10.4
			c0.6-3.5,0.7-7.1,0.8-10.5C611.7,220.8,611.2,219.1,610.5,219.1C610.5,219.1,610.5,219.1,610.5,219.1z M632.5,204.7
			c0,0-0.1,0-0.1,0c-1,0.2-1.5,2-1.4,3.6c0.2,4.5,1.9,8.5,4.6,11.2c0.4-3.8,0.2-7.7-0.7-11.4C634.4,206.5,633.4,204.7,632.5,204.7z"
			/>
		<path d="M633.8,277.7c-0.8,0-1.6-0.6-1.7-1.5l-3.9-24.3c-0.2-1,0.5-1.9,1.5-2c1-0.2,1.9,0.5,2,1.5l3.9,24.3c0.2,1-0.5,1.9-1.5,2
			C633.9,277.7,633.8,277.7,633.8,277.7z"/>
		<path d="M635.9,283.3c-0.1,0-0.2,0-0.3,0l-9.9-1.9c-0.9-0.2-2.1-0.4-3.2-1.1c-1.4-0.9-2.2-2.5-2-4c0.3-1.6,1.6-2.9,3.4-3.3
			c1.3-0.2,2.6,0,3.6,0.3l9.7,2.3c0.9,0.2,1.5,1.2,1.3,2.1c-0.2,0.9-1.2,1.5-2.1,1.3l-9.7-2.3c-0.8-0.2-1.5-0.4-2.2-0.2
			c-0.3,0.1-0.6,0.3-0.6,0.4c0,0.1,0.1,0.3,0.4,0.5c0.5,0.3,1.2,0.5,1.9,0.6l9.9,1.9c1,0.2,1.6,1.1,1.4,2.1
			C637.4,282.7,636.7,283.3,635.9,283.3z"/>
		<ellipse transform="matrix(0.989 -0.1477 0.1477 0.989 -37.7791 97.8277)" cx="639.9" cy="303.3" rx="11.7" ry="12.9"/>
		<circle cx="659.7" cy="253.1" r="4.1"/>
		<circle cx="611.2" cy="261.2" r="4.1"/>
	</g>
	<g>
		<circle class="st1" cx="188.7" cy="280.7" r="72.6"/>
		<path d="M165.9,289.5c-0.5,0-1-0.2-1.3-0.6c-0.4-0.5-0.5-1.1-0.4-1.6c4.8-16.2,11.6-31.8,20.2-46.4c0.5-0.8,1.6-1.1,2.4-0.6
			c0.8,0.5,1.1,1.6,0.6,2.4c-8,13.5-14.4,27.9-19,42.9c7.2-1.3,14.1-4.1,20.1-8.1c0.8-0.5,1.9-0.3,2.4,0.5c0.5,0.8,0.3,1.9-0.5,2.4
			c-7.3,4.8-15.7,7.9-24.3,9.1C166,289.5,165.9,289.5,165.9,289.5z"/>
		<path d="M188,311.1c-7.7,0-15.4-4.6-18.9-11.5c-0.4-0.9-0.1-1.9,0.8-2.4c0.9-0.4,1.9-0.1,2.4,0.8c3.2,6.2,10.2,10.1,17.1,9.5
			c6.9-0.6,13.2-5.6,15.3-12.1c0.3-0.9,1.3-1.4,2.2-1.1c0.9,0.3,1.4,1.3,1.1,2.2c-2.5,7.9-10.1,13.9-18.4,14.6
			C189.1,311.1,188.5,311.1,188,311.1z"/>
		<path d="M226.8,268c-0.7,0-1.3-0.4-1.6-1c-1.7-3.7-3.8-7.3-7.1-8.8c-2.3-1.1-5.2-1-7.4,0.3c-2.2,1.3-3.8,3.6-4.1,6.2
			c-0.1,1-1,1.7-1.9,1.5c-1-0.1-1.7-1-1.5-1.9c0.4-3.7,2.7-7,5.9-8.8c3.2-1.8,7.3-1.9,10.6-0.4c4.3,2,6.8,6.2,8.8,10.5
			c0.4,0.9,0,1.9-0.8,2.3C227.4,268,227.1,268,226.8,268z"/>
		<path d="M166,263.6c-0.6,0-1.2-0.3-1.5-0.9c-1.7-2.9-3.8-5.1-6-6.5c-2.6-1.6-5.5-2.2-8-1.5c-2.7,0.7-4.8,2.7-5.4,5.1
			c-0.2,0.9-1.1,1.5-2.1,1.3c-0.9-0.2-1.5-1.1-1.3-2.1c0.8-3.7,4-6.8,8-7.8c3.4-0.8,7.3-0.1,10.7,2c2.7,1.7,5.1,4.3,7.2,7.7
			c0.5,0.8,0.2,1.9-0.6,2.4C166.6,263.5,166.3,263.6,166,263.6z"/>
		<path d="M257.5,258.8l-153.3-56.5l2.4-2.6c0.4-0.5,11-11.2,44.2,1.6c3.4-6.3,15.5-25.8,36.7-32.7c14.3-4.6,29.8-2.5,46,6.4
			c16.9,9.3,27.6,21.5,31.6,36.3c6.4,23.5-6.1,44.9-6.7,45.7L257.5,258.8z M114.1,201L255.4,253c2.7-5.3,10.2-22.5,5.3-40.5
			c-3.7-13.5-13.6-24.8-29.3-33.4c-15-8.2-29.2-10.2-42.3-6c-23,7.5-34.8,31.9-34.9,32.2l-0.9,2l-2-0.8
			C130.6,198.2,119.4,199.3,114.1,201z"/>
	</g>
	<g>
		<circle class="st1" cx="409.1" cy="280.9" r="72.6"/>
		<path d="M394.3,324.4c-0.3,0-0.6-0.1-0.8-0.2c-0.9-0.5-1.2-1.5-0.7-2.4c2.3-4.3,7-7.6,12.7-9.1c5-1.3,10.1-1.3,15.1-1.2
			c1,0,1.7,0.8,1.7,1.8c0,1-0.8,1.7-1.8,1.7c-4.7-0.1-9.6-0.1-14.1,1.1c-4.8,1.3-8.7,4-10.6,7.4C395.5,324,394.9,324.4,394.3,324.4z
			"/>
		<path d="M400.3,308.2c-4.4,0-8.2-3.4-9.9-7.1c-1.9-4.2-1.7-8.9-1.6-13l0.9-27.7c0-1,0.8-1.7,1.8-1.7c1,0,1.7,0.8,1.7,1.8
			l-0.9,27.7c-0.1,3.7-0.3,7.9,1.3,11.4c1.3,3,4.6,5.6,7.8,4.9c1.8-0.4,3.5-1.9,4.5-4c1.1-2.1,1.4-4.6,1.7-7
			c1-8.6,1.2-17.3,0.4-25.9c-0.1-1,0.6-1.8,1.6-1.9c1-0.1,1.8,0.6,1.9,1.6c0.8,8.9,0.7,17.8-0.4,26.6c-0.3,2.5-0.7,5.5-2,8.1
			c-1.5,3.1-4,5.3-6.9,5.9C401.6,308.1,401,308.2,400.3,308.2z"/>
		<path d="M355.9,265.9c-0.2,0-0.3,0-0.5-0.1c-0.6-0.2-1-0.6-1.2-1.2c-1.6-5.7-2.2-11.8-1.6-17.7l-24.8,15.9
			c-0.5,0.3-1.1,0.4-1.6,0.2c-0.5-0.2-0.9-0.6-1.1-1.2c-3.8-13.9,1.9-30.4,14.7-42.1c11.6-10.6,26.9-16.3,40.4-20.8
			c0.9-0.3,1.9,0.2,2.2,1.1c0.3,0.9-0.2,1.9-1.1,2.2c-13.1,4.4-28.1,10-39.1,20.1c-11.1,10.1-16.5,24.1-14.3,36.2l25.9-16.6
			c0.6-0.4,1.3-0.4,1.9,0c0.6,0.4,0.9,1.1,0.8,1.8c-1,5.7-0.9,11.5,0.3,17.2c6-5.8,10.8-12.9,13.9-20.6c0.3-0.6,0.9-1.1,1.5-1.1
			c0.7,0,1.3,0.3,1.6,0.9l8.2,15.5l9.7-20.1c0.3-0.6,0.9-1,1.5-1c0.6,0,1.3,0.3,1.6,0.9l8.6,14.6l4.8-15.7c0.2-0.7,0.8-1.2,1.5-1.2
			c0.7,0,1.4,0.3,1.7,1c2.6,5.4,6.3,10.1,11,13.9l-0.2-16.6c0-0.6,0.3-1.2,0.8-1.5c0.5-0.3,1.2-0.4,1.7-0.1l28.2,14l-6.2-11.9
			c-0.4-0.7-0.2-1.5,0.3-2c0.5-0.5,1.4-0.7,2-0.3l23.9,11.8c-4.7-12.5-13.5-23.4-24.7-30.5c-12.4-7.8-27.8-11-42.3-8.7
			c-1,0.2-1.9-0.5-2-1.5c-0.2-1,0.5-1.9,1.5-2c15.3-2.4,31.6,0.9,44.7,9.2c13.1,8.3,23.2,21.6,27.6,36.4c0.2,0.7,0,1.4-0.6,1.8
			c-0.5,0.4-1.3,0.5-1.9,0.2l-22.8-11.3l6.2,11.9c0.4,0.7,0.2,1.5-0.3,2c-0.5,0.5-1.4,0.7-2,0.3L426,234.1l0.2,17.3
			c0,0.7-0.3,1.3-0.9,1.6c-0.6,0.3-1.3,0.3-1.8-0.1c-5.3-3.5-9.7-8.1-12.9-13.5l-4.7,15.5c-0.2,0.7-0.8,1.1-1.5,1.2
			c-0.7,0.1-1.4-0.3-1.7-0.9l-9-15.2l-9.8,20.2c-0.3,0.6-0.9,1-1.5,1c-0.6,0-1.3-0.3-1.6-0.9l-8.1-15.3c-3.7,7.8-9,14.8-15.5,20.5
			C356.8,265.7,356.4,265.9,355.9,265.9z"/>
		<circle cx="378.7" cy="276.2" r="4.7"/>
		<circle cx="429" cy="272.7" r="4.7"/>
		<path d="M423.1,273.4c-0.5,0-0.9-0.2-1.3-0.5c-0.7-0.7-0.7-1.8,0-2.5l12-11.6c0.7-0.7,1.8-0.7,2.5,0c0.7,0.7,0.7,1.8,0,2.5
			l-12,11.6C424,273.2,423.5,273.4,423.1,273.4z"/>
		<path d="M384.1,277.1c-0.3,0-0.7-0.1-1-0.3l-11.1-7.6c-0.8-0.5-1-1.6-0.5-2.4c0.5-0.8,1.6-1,2.4-0.5l11.1,7.6
			c0.8,0.5,1,1.6,0.5,2.4C385.3,276.8,384.7,277.1,384.1,277.1z"/>
	</g>
	<g>
		<circle class="st1" cx="429.6" cy="574.1" r="72.6"/>
		<path d="M417.3,594.7c-3.6,0-7.1-2.5-8.5-6.2c-1.2-3.2-0.9-7.1,1-10.7c1.6-3.2,4.1-5.8,6.4-7.9l0.5-0.5c1.7-1.5,3.2-3,4.1-4.8
			c1.2-2.4,1-5.2,0.7-7.1c-0.5-2.6-1.6-5.1-2.6-7.5c-0.4-0.9,0-1.9,0.9-2.3c0.9-0.4,1.9,0,2.3,0.9c1.1,2.6,2.3,5.3,2.8,8.3
			c0.5,2.4,0.7,6-1,9.3c-1.2,2.4-3.1,4.1-4.9,5.8l-0.5,0.5c-2,1.9-4.3,4.2-5.7,6.9c-1.4,2.7-1.7,5.6-0.8,7.9
			c0.9,2.4,3.3,4.2,5.6,3.9c1.6-0.1,3.1-1.1,4.7-2.1c0.5-0.3,1-0.6,1.5-0.9c3.2-1.9,6.9-3,10.6-3.3l0.5,0c1.6-0.1,3.3-0.2,3.9-1.1
			c0.5-0.7,0.2-1.9-0.4-2.7c-0.9-1.1-2.3-1.8-3.7-2.5c-0.9-0.4-1.2-1.5-0.8-2.4c0.4-0.9,1.5-1.2,2.4-0.8c1.5,0.8,3.5,1.7,4.8,3.4
			c1.7,2.1,1.9,5,0.6,6.9c-1.6,2.3-4.4,2.4-6.6,2.6l-0.5,0c-3.2,0.2-6.3,1.2-9,2.8c-0.5,0.3-0.9,0.6-1.4,0.8
			c-1.8,1.1-3.8,2.4-6.2,2.6C417.7,594.7,417.5,594.7,417.3,594.7z"/>
		<path d="M426.5,606.4c-0.3,0-0.7-0.1-1-0.3c-0.8-0.5-1-1.6-0.5-2.4c2.8-4.3,7.1-7.4,12-9c4.9-1.5,10.2-1.3,14.9,0.6
			c0.9,0.4,1.3,1.4,1,2.3c-0.4,0.9-1.4,1.3-2.3,1c-4-1.6-8.5-1.7-12.6-0.5c-4.1,1.3-7.7,4-10.1,7.6
			C427.6,606.1,427,606.4,426.5,606.4z"/>
		<path d="M366.4,523.2c-2.1,0-4.2-0.8-6-2.3c-3.9-3.2-5.5-8.7-4.3-13.8c-6.6-1.6-13.7-1.2-20,1.4c-0.9,0.4-1.9,0-2.3-0.9
			c-0.4-0.9,0-1.9,0.9-2.3c7-3,15.1-3.4,22.6-1.5c2.3-4.4,6.9-7.9,12.3-9.1c4.9-1.1,10.5-0.5,16.1,1.7c7,2.9,13.2,8,17.3,14.4
			c0.5,0.8,0.3,1.9-0.5,2.4c-0.8,0.5-1.9,0.3-2.4-0.5c-3.7-5.8-9.2-10.4-15.6-13c-3.4-1.4-8.6-2.8-14-1.6c-4.2,0.9-7.7,3.5-9.7,6.7
			c2.6,0.9,5,2.2,7.3,3.7c3.3,2.3,6.4,6.1,5,10.2c-0.8,2.4-3.3,4.2-6,4.4C366.8,523.2,366.6,523.2,366.4,523.2z M359.4,508.1
			c-0.8,3.7,0.4,7.8,3.1,10c1.3,1.1,2.8,1.6,4.2,1.5c1.3-0.1,2.6-1,3-2.1c0.7-2.1-1.5-4.6-3.7-6.1
			C363.9,510.1,361.7,509,359.4,508.1z"/>
		<path d="M399,540.3c-1.5,0-3.1-0.3-4.5-1c-4.2-2.1-6.6-7.1-5.6-11.7c0.7-3.1,2.8-5.9,5.9-8c2.8-1.8,5.9-2.7,8.7-3.4
			c0.9-0.2,1.9,0.3,2.1,1.3c0.2,0.9-0.3,1.9-1.3,2.1c-2.6,0.7-5.3,1.5-7.6,3c-2.3,1.5-3.9,3.6-4.4,5.8c-0.6,3,1,6.4,3.8,7.8
			c1.8,0.9,4.1,0.8,6,0c-1.1-0.8-1.9-1.9-2.2-3.2c-0.4-1.5-0.1-3.2,0.8-4.5c0.8-1.2,2.1-1.9,3.4-1.9c2.4-0.1,4.6,1.9,5,4.4
			c0.2,1.1,0,2.3-0.5,3.4c0.9-0.1,1.7-0.2,2.6-0.3c1-0.2,1.9,0.5,2,1.5c0.2,1-0.5,1.9-1.5,2c-1.7,0.3-3.7,0.6-5.7,0.3
			C404.1,539.4,401.6,540.3,399,540.3z M404.3,530C404.3,530,404.3,530,404.3,530c-0.4,0-0.6,0.3-0.8,0.5c-0.3,0.4-0.4,1.1-0.3,1.5
			c0.2,0.8,0.9,1.4,1.7,1.8c0.5-0.8,0.8-1.7,0.7-2.4C405.5,530.6,404.8,530,404.3,530z"/>
		<path d="M443.1,540.1c-0.9,0-1.7-0.7-1.7-1.6c-0.2-2.3-0.9-4.6-2-6.7c-1.9,2.1-4.6,3.3-7.3,2.8c-3.4-0.5-5.7-3.3-7.6-5.8
			c-2.8-3.9-2.1-6.3-1.1-7.7c1.4-1.8,4-2.3,7-1.3c2.9,1,5.6,2.6,7.8,4.8c-0.2-1.9-1.1-3.9-2.5-5.6c-2-2.4-4.9-4.2-7.6-5.8
			c-1.4-0.8-2.8-1.5-4-1.3c-0.4,0.1-0.8,0.5-1,0.9c0,0-0.1,0.2,0,0.3c0.6,0.7,0.6,1.8-0.2,2.5c-0.7,0.6-1.8,0.6-2.5-0.2
			c-0.9-1-1.1-2.4-0.7-3.7c0.6-1.6,2-2.9,3.7-3.2c2.4-0.5,4.6,0.7,6.4,1.8c3,1.8,6.1,3.7,8.5,6.6c2.8,3.3,3.9,7.4,3.1,11
			c0,0.2-0.1,0.4-0.2,0.6c2,2.9,3.2,6.3,3.5,9.8c0.1,1-0.6,1.8-1.6,1.9C443.2,540.1,443.1,540.1,443.1,540.1z M427.4,522.9
			c-0.5,0-1,0.1-1.2,0.4c-0.4,0.6,0,1.9,1.1,3.5c1.5,2.1,3.2,4.1,5.3,4.4c1.7,0.3,3.6-0.8,4.7-2.4c-2.1-2.5-4.9-4.5-8-5.6
			C428.6,523,428,522.9,427.4,522.9z"/>
		<path d="M416.4,507.2c-0.7,0-1.4-0.5-1.7-1.2c-0.6-1.9-1.2-4-1.3-6.2c-0.1-2.6,0.6-5,2-6.7c1.1-1.3,2.5-2.1,4-2.4
			c-0.1-1.2,0.1-2.4,0.4-3.5c1.1-4.1,4.5-7.3,8.6-8c1-0.2,1.9,0.5,2,1.4c0.2,1-0.5,1.9-1.4,2c-2.7,0.5-5,2.7-5.8,5.5
			c-0.2,0.8-0.3,1.6-0.3,2.4c1.6,0.2,3.2,0.7,4.5,1.5c3.6,2.2,5.7,6.1,7.1,9.1c0.3,0.6,0.2,1.2-0.2,1.7c-0.4,0.5-1,0.8-1.6,0.7
			c-4.1-0.3-7.8-2.2-10.3-5.1c-1.1-1.3-1.9-2.8-2.4-4.3c-0.8,0.2-1.4,0.7-2,1.3c-1.2,1.4-1.3,3.3-1.2,4.3c0.1,1.7,0.6,3.5,1.2,5.3
			c0.3,0.9-0.2,1.9-1.2,2.2C416.7,507.2,416.6,507.2,416.4,507.2z M423.8,494.1c0.3,0.7,0.8,1.4,1.3,2c1.2,1.4,2.7,2.4,4.5,3.1
			c-1-1.7-2.3-3.3-4-4.4C425.1,494.6,424.5,494.3,423.8,494.1z"/>
		<path d="M473,531.2c-0.9,0-1.6-0.6-1.7-1.5c-0.4-3.4-2.1-6.6-4.6-9c-0.6,1.4-1.5,2.7-2.9,3.7c-2,1.5-4.5,2-6.7,1.5
			c-2.2-0.5-4.2-2.2-5.3-4.4c-1.1-2.3-1.2-4.8-0.2-6.9c0.2-0.5,0.7-0.9,1.2-1c3.1-0.6,6.3-0.4,9.3,0.5c-1.4-1.7-3.4-3-4.6-3.7
			c-3.7-2.1-7.8-3.6-12-4.4c-1-0.2-1.6-1.1-1.4-2.1c0.2-1,1.1-1.6,2.1-1.4c4.6,0.9,9,2.5,13,4.8c4.5,2.5,7.2,5.7,7.8,9.2
			c0,0,0.1,0.1,0.1,0.1c4.1,2.9,6.9,7.6,7.5,12.6c0.1,1-0.6,1.8-1.5,2C473.1,531.2,473.1,531.2,473,531.2z M454.5,516.8
			c-0.2,1,0,2.1,0.5,3.1c0.6,1.3,1.7,2.3,2.9,2.5c1.2,0.3,2.6,0,3.8-0.9c1.1-0.8,1.8-1.9,1.9-3C460.9,517,457.6,516.4,454.5,516.8z"
			/>
		<path d="M487,524.3c-0.7,0-1.4-0.4-1.6-1.1c-0.9-2.4-2.1-4.7-3.4-6.8c-0.2,0.9-0.5,1.8-0.9,2.6c-1.3,3-3.2,4.7-5.5,5
			c-3,0.4-5.7-1.6-7.8-6c-1-2.1-2-4.2-2.1-6.6c-0.2-3,1.3-5.8,3.6-7c2.7-1.4,5.9-0.6,9,2.1c-0.4-1.4-1.1-2.7-1.9-3.9
			c-2.9-4.3-8.2-7-13.4-6.9c-2,0.1-3.5,0.5-4.7,1.3c-1.2,0.9-1.8,2.3-1.5,3.4c0.2,0.9-0.4,1.9-1.3,2.1c-0.9,0.2-1.9-0.4-2.1-1.3
			c-0.6-2.5,0.5-5.3,2.8-7c1.7-1.3,3.9-2,6.7-2c6.3-0.2,12.8,3.1,16.4,8.4c2.1,3.1,3.2,6.8,3.3,10.5c2.6,3.3,4.6,7,6.1,10.8
			c0.3,0.9-0.1,1.9-1,2.3C487.4,524.3,487.2,524.3,487,524.3z M472,507.3c-0.4,0-0.8,0.1-1.2,0.3c-1.2,0.6-1.7,2.3-1.7,3.6
			c0.1,1.7,0.8,3.4,1.8,5.2c0.8,1.6,2.4,4.3,4.2,4.1c1.4-0.2,2.4-2.1,2.7-2.9c0.7-1.7,1.1-3.4,1.2-5.2c-0.6-0.8-1.3-1.5-2-2.2
			C475.6,508.6,473.6,507.3,472,507.3z"/>
		<path d="M440.8,559.9C440.8,559.9,440.7,559.9,440.8,559.9l-0.7,0c-0.9,0-1.6-0.7-1.7-1.6c-0.1-0.9,0.5-1.7,1.4-1.9l22.3-4.9
			c0.9-0.2,1.9,0.4,2.1,1.3c0.2,0.9-0.4,1.9-1.3,2.1l-21,4.6C441.6,559.8,441.2,559.9,440.8,559.9z"/>
		<path d="M378.2,566.3c-0.9,0-1.7-0.7-1.7-1.6c-0.1-1,0.7-1.8,1.6-1.9l23.8-1.6c1,0,1.8,0.7,1.9,1.6c0.1,1-0.7,1.8-1.6,1.9
			l-23.8,1.6C378.3,566.3,378.3,566.3,378.2,566.3z"/>
		<circle cx="451.6" cy="559.7" r="4.4"/>
		<circle cx="389" cy="567.7" r="4.4"/>
	</g>
	<g>
		<circle class="st1" cx="650.3" cy="569.3" r="72.6"/>
		<path d="M551.9,533.7c-0.3-0.1-0.5-0.3-0.7-0.5c-0.4-0.5-0.5-1.1-0.3-1.7c5.3-15.8,10.9-30.9,21.5-43.1
			c12-13.8,29.3-20.5,44.1-17.1c0.9,0.2,1.5,1.2,1.3,2.1c-0.2,0.9-1.2,1.5-2.1,1.3c-13.5-3.2-29.5,3.1-40.7,16
			c-9.6,11-15,24.8-19.9,39.2c23.3-3.5,47.1-5,70.7-4.5l4.5-25.8c0.1-0.7,0.7-1.3,1.4-1.4c0.7-0.1,1.5,0.2,1.8,0.9l12.7,22.3
			l14.2-0.8l-8.3-24c-0.2-0.7,0-1.4,0.5-1.9c0.5-0.5,1.3-0.6,1.9-0.3c4.5,2.2,7.3,6.2,10,10.1c2.1,3.1,4.2,6,6.9,8
			c3.4,2.5,7.8,3.3,11.9,2.5L674,502c-0.4-0.6-0.5-1.4,0-2.1c0.4-0.6,1.2-0.9,1.9-0.7c4.8,1.5,8.1,5.2,11.3,8.8
			c2.8,3.2,5.5,6.2,9.1,7.6c0,0,0.1,0,0.1,0c4.1,1.6,9,0.7,13.2-0.1l23-4.2c-12.2-15.9-29.4-27.5-48.7-32.9
			c-13-3.7-24.7-3.4-33.7,0.6c-0.9,0.4-1.9,0-2.3-0.9c-0.4-0.9,0-1.9,0.9-2.3c9.9-4.5,22.1-4.7,36.1-0.8c21,5.9,39.5,18.9,52.3,36.5
			c0.4,0.5,0.4,1.1,0.2,1.7c-0.2,0.6-0.7,1-1.3,1.1l-25.8,4.7c-4.5,0.8-10,1.8-15.1-0.1c0,0-0.1,0-0.1-0.1
			c-4.3-1.7-7.4-5.2-10.4-8.5c-0.2-0.2-0.4-0.4-0.5-0.6l3.7,5.1c0.3,0.4,0.4,1,0.3,1.5c-0.1,0.5-0.5,0.9-1,1.1
			c-5.7,2.3-12.6,1.4-17.5-2.2c-3.2-2.4-5.5-5.7-7.8-8.8c-1.4-2-2.8-4-4.3-5.6l7.1,20.7c0.2,0.5,0.1,1.1-0.2,1.6
			c-0.3,0.5-0.8,0.7-1.4,0.8l-17.6,0.9c-0.7,0-1.3-0.3-1.6-0.9l-10.8-19l-3.9,22.5c-0.1,0.9-0.9,1.5-1.8,1.5
			c-24.8-0.6-49.9,1.1-74.4,4.9C552.5,533.9,552.1,533.9,551.9,533.7z"/>
		<path d="M644.1,578.6c-3.6-1.4-6.6-4.5-7.7-8.3c-1.2-3.9-0.5-8.4,2-13.8c0.6-1.2,1.2-2.4,1.8-3.6c1.4-2.7,2.7-5.2,3.4-7.9
			c0.9-3.3,0.9-7.7-1.9-10.4c-0.7-0.7-0.7-1.8-0.1-2.5s1.8-0.7,2.5-0.1c3.9,3.7,4.1,9.6,2.9,13.8c-0.8,3.1-2.3,5.9-3.7,8.6
			c-0.6,1.1-1.2,2.3-1.8,3.5c-2.1,4.5-2.7,8.2-1.8,11.3c1,3.3,4.1,6,7.5,6.5c4.2,0.6,8.7-2.1,10.4-6.2c1.6-4,0.5-9-2.7-12.2
			c-0.7-0.7-0.7-1.8,0-2.5c0.7-0.7,1.8-0.7,2.5,0c4.2,4.1,5.7,10.7,3.5,16.1c-2.3,5.6-8.4,9.1-14.2,8.3
			C645.9,579.2,645,579,644.1,578.6z"/>
		<path d="M611.9,604.1c-0.9-0.3-1.3-1.3-1-2.2c1.1-3.4,4.1-6.1,7.6-7c3.5-0.9,7.4,0.2,9.9,2.7c0.7,0.7,1.4,1.5,2,2.3
			c1.1,1.4,2.1,2.7,3.4,2.9c1.5,0.3,2.8-0.8,4.8-2.6c1.9-1.6,4-3.5,6.7-3.7c3.1-0.2,5.5,1.8,7.5,3.6c1.6,1.4,3.2,2.7,4.9,2.8
			c1.8,0.1,3.5-1.3,5.3-2.7c2-1.6,4.4-3.5,7.3-3.5c1.9,0,3.5,0.7,4.9,1.4c1.2,0.5,2.3,1,3.3,1.1c1.7,0.1,3.5-1,5.1-2.1l0.5-0.3
			c1.8-1.3,3.8-2.7,6.2-3.1c3.1-0.5,6.8,1.2,7.4,4.5c0.2,1-0.5,1.9-1.4,2c-1,0.2-1.9-0.5-2-1.4c-0.2-1.2-2-1.8-3.3-1.6
			c-1.7,0.3-3.2,1.4-4.8,2.5l-0.5,0.4c-2.1,1.5-4.5,2.9-7.4,2.8c-1.7-0.1-3.2-0.8-4.5-1.4c-1.2-0.5-2.4-1.1-3.5-1.1
			c-1.8,0-3.4,1.3-5.2,2.8c-2.1,1.7-4.5,3.6-7.6,3.5c-2.9-0.1-5.1-2-7-3.6c-1.8-1.5-3.3-2.8-5-2.7c-1.6,0.1-3.1,1.4-4.6,2.8
			c-2.1,1.9-4.5,4-7.8,3.4c-2.6-0.5-4.1-2.5-5.5-4.2c-0.6-0.7-1.1-1.4-1.6-1.9c-1.7-1.7-4.3-2.4-6.7-1.8c-2.3,0.6-4.3,2.4-5.1,4.7
			C613.9,603.9,612.9,604.4,611.9,604.1C611.9,604.1,611.9,604.1,611.9,604.1z"/>
		<circle cx="620.3" cy="548" r="4.7"/>
		<circle cx="678.2" cy="545.7" r="5.3"/>
		<path d="M659.4,533.6c-0.6-0.2-1-0.8-1.1-1.4c-0.1-0.9,0.5-1.8,1.5-2c13.6-2.2,27.5-3.6,41.3-4.4c1-0.1,1.8,0.7,1.9,1.7
			c0.1,1-0.7,1.8-1.7,1.9c-13.4,0.8-26.9,2.2-40.1,4.3c-0.1,0-0.3,0.1-0.4,0.1l-0.6,0.1C660,533.8,659.7,533.7,659.4,533.6z"/>
		<path d="M594.9,532.9c-0.7-0.3-1.2-1-1.1-1.7c0.1-1,0.9-1.7,1.8-1.7c10.8,0.6,21.8,0.7,32.6,0.3c1,0,1.8,0.7,1.8,1.7
			c0.1,1-0.7,1.8-1.6,1.8l-0.6,0c-0.1,0-0.2,0-0.4,0c-10.6,0.3-21.4,0.2-32-0.3C595.3,533,595.1,533,594.9,532.9z"/>
	</g>
	<g>
		<circle class="st1" cx="191.6" cy="575.4" r="72.6"/>
		<path d="M185.5,591.1c0,0-0.1,0-0.1,0l-14.8-1c-0.8-0.1-1.4-0.6-1.6-1.4c-0.2-0.8,0.2-1.6,1-1.9c7.1-3.5,10.5-11.6,11.3-18
			c0.9-7.7-0.7-15.5-2.3-23.1c-0.2-0.9,0.4-1.9,1.3-2.1c0.9-0.2,1.9,0.4,2.1,1.4c1.6,7.5,3.4,16,2.4,24.2
			c-0.9,7.3-4.1,13.7-8.8,17.8l9.7,0.7c1,0.1,1.7,0.9,1.6,1.9C187.2,590.4,186.4,591.1,185.5,591.1z"/>
		<path d="M184.2,613c-0.2,0-0.4,0-0.6-0.1c-0.9-0.4-1.3-1.4-1-2.3c0.4-1,0.2-2.4-0.6-3.6c-0.7-1.1-1.8-2-3.5-3
			c-0.9-0.5-2.1-1.2-3.3-1.2c-1.6-0.1-3.3,0.9-3.9,2.4c-0.4,0.9-1.4,1.3-2.3,0.9c-0.9-0.4-1.3-1.4-0.9-2.3c1.2-2.9,4.3-4.7,7.4-4.5
			c1.9,0.1,3.6,1,4.9,1.7c2.2,1.3,3.6,2.6,4.7,4.1c1.4,2.2,1.7,4.7,0.9,6.8C185.5,612.6,184.9,613,184.2,613z"/>
		<path d="M215.7,577.2c-0.1,0-0.2,0-0.3,0c-6.3-0.1-12.4-4.1-15.1-9.8c-0.4-0.9,0-1.9,0.8-2.3c0.9-0.4,1.9,0,2.3,0.8
			c2.1,4.5,7,7.7,12,7.8c5,0.1,10-2.8,12.3-7.3c0.5-0.9,1.5-1.2,2.4-0.7c0.9,0.5,1.2,1.5,0.7,2.4C228,573.6,221.9,577.2,215.7,577.2
			z"/>
		<path d="M155.5,570.9c-4.9,0-9.1-2.2-11.8-4c-3.6-2.6-6.6-5.9-8.9-8.9c-0.6-0.8-0.5-1.9,0.3-2.5c0.8-0.6,1.9-0.5,2.5,0.3
			c2.2,2.8,4.9,5.9,8.2,8.2c3.3,2.3,7,3.5,10.3,3.4c3.7-0.1,7.1-2,8.6-4.8c0.5-0.8,1.6-1.1,2.4-0.7c0.8,0.5,1.1,1.5,0.7,2.4
			c-2.2,3.9-6.6,6.4-11.6,6.6C155.9,570.9,155.7,570.9,155.5,570.9z"/>
		<path d="M263.2,551c-0.2,0-0.4,0-0.5-0.1L231,541c-0.9-0.3-1.4-1.3-1.2-2.2c0.3-0.9,1.3-1.4,2.2-1.1l23.1,7.2l-3-2.5
			c-0.5-0.4-0.7-1-0.6-1.6c0.1-0.6,0.5-1.1,1.1-1.4l11.4-4.6L241,525c-0.5-0.2-0.9-0.7-1-1.2c-0.1-0.5,0-1.1,0.4-1.5l5.6-6.6
			l-14.2,3.9c-0.5,0.1-1.1,0-1.5-0.3c-0.4-0.3-0.7-0.9-0.7-1.4l0.3-36.9l-9.6,9.4c-0.5,0.5-1.1,0.6-1.8,0.4
			c-0.6-0.2-1.1-0.7-1.2-1.3l-2.6-13.7l-13.9,14.4c-0.4,0.5-1.1,0.6-1.7,0.5c-0.6-0.1-1.1-0.6-1.3-1.2l-8-27L170.2,499
			c-0.3,0.5-0.8,0.9-1.4,0.9c-0.6,0.1-1.2-0.2-1.5-0.6l-2.9-3.5l-3.4,11.9c-0.2,0.6-0.6,1-1.2,1.2c-0.6,0.2-1.2,0-1.6-0.3l-11.4-9.7
			l-6.7,13.8c-0.2,0.5-0.6,0.8-1.1,0.9c-0.5,0.1-1,0.1-1.4-0.2l-9.3-6.1c2.5,9.1,9.6,17,18.5,20.1c0.9,0.3,1.4,1.3,1.1,2.2
			c-0.3,0.9-1.3,1.4-2.2,1.1c-11.5-4-20.2-14.9-21.6-27c-0.1-0.7,0.2-1.3,0.8-1.7c0.6-0.4,1.3-0.4,1.9,0l11.1,7.3l6.8-14.1
			c0.2-0.5,0.7-0.8,1.2-1c0.5-0.1,1.1,0,1.5,0.4l11.1,9.4l3.6-12.4c0.2-0.6,0.7-1.1,1.3-1.2c0.6-0.1,1.3,0.1,1.7,0.6l3.4,4l20.5-38
			c0.3-0.6,1-1,1.7-0.9c0.7,0.1,1.3,0.6,1.5,1.2l8.4,28.2l14.2-14.7c0.5-0.5,1.1-0.6,1.8-0.5c0.6,0.2,1.1,0.7,1.2,1.4l2.6,13.8
			l10.2-10.1c0.5-0.5,1.3-0.6,1.9-0.4c0.7,0.3,1.1,0.9,1.1,1.6l-0.3,38.8l17.4-4.8c0.7-0.2,1.5,0.1,1.9,0.7c0.4,0.6,0.4,1.5-0.1,2.1
			l-7.7,9.1l24.8,10.6c0.7,0.3,1.1,0.9,1.1,1.6c0,0.7-0.4,1.3-1.1,1.6l-12.6,5.1l7.6,6.3c0.6,0.5,0.8,1.5,0.4,2.2
			C264.4,550.7,263.8,551,263.2,551z"/>
		<path d="M205.4,535c-0.9,0-1.7-0.7-1.8-1.6c-0.1-1,0.7-1.8,1.6-1.9c7.1-0.4,14.1-2.2,20.5-5.3c-4.4-0.9-9.1-0.8-13.4,0.4
			c-0.6,0.2-1.2,0-1.7-0.4c-0.4-0.4-0.6-1.1-0.5-1.7c0.9-3.9,1-7.9,0.5-11.8l-8.7,7.3c-0.4,0.4-1,0.5-1.5,0.4c-0.5-0.1-1-0.5-1.2-1
			l-6.5-14.7l-7.9,10.4c-0.4,0.5-0.9,0.7-1.5,0.7c-0.6,0-1.1-0.4-1.4-0.9l-3.2-5.9l-3.3,8.6c-0.2,0.6-0.7,1-1.3,1.1
			c-0.5,0.1-1.1,0-1.5-0.4l1.9,5.1c0.3,0.9-0.1,1.9-1,2.3c-0.9,0.3-1.9-0.1-2.3-1l-4.9-13.1c-0.3-0.8,0-1.7,0.7-2.1
			c0.7-0.4,1.6-0.3,2.2,0.3l3.9,4.1l3.7-9.5c0.2-0.6,0.8-1.1,1.5-1.1c0.7-0.1,1.3,0.3,1.7,0.9l3.7,6.8l8.1-10.6
			c0.4-0.5,1-0.7,1.6-0.7c0.6,0.1,1.1,0.5,1.4,1l6.8,15.3l9.2-7.8c0.5-0.4,1.1-0.5,1.7-0.3c0.6,0.2,1,0.7,1.2,1.3
			c1,4.4,1.2,9.1,0.5,13.6c5.7-1,11.6-0.5,17,1.5c0.6,0.2,1.1,0.8,1.1,1.5c0.1,0.7-0.3,1.3-0.9,1.7c-7.9,4.5-16.8,7.2-25.8,7.7
			C205.5,535,205.4,535,205.4,535z"/>
		<path d="M229.2,558.9c-0.1,0-0.1,0-0.2,0c-9.3-1-18.2-4.9-25.1-11.2c-0.7-0.7-0.8-1.8-0.1-2.5c0.7-0.7,1.8-0.8,2.5-0.1
			c6.4,5.8,14.6,9.4,23.1,10.3c1,0.1,1.7,1,1.6,1.9C230.8,558.3,230.1,558.9,229.2,558.9z"/>
		<path d="M144,543.7c-2.5,0-5.1-0.5-7.4-1.4c-0.9-0.4-1.3-1.4-1-2.3c0.4-0.9,1.4-1.3,2.3-1c5.4,2.2,12,1.2,16.4-2.4
			c0.8-0.6,1.9-0.5,2.5,0.3c0.6,0.8,0.5,1.9-0.3,2.5C153,542.2,148.5,543.7,144,543.7z"/>
	</g>
</g>
</svg>
