<?xml version="1.0" encoding="UTF-8"?>
<svg id="Camada_2" data-name="Camada 2" xmlns="http://www.w3.org/2000/svg" xmlns:xlink="http://www.w3.org/1999/xlink" viewBox="0 0 841.89 1194.75">
  <defs>
    <style>
      .cls-1 {
        fill: none;
      }

      .cls-2 {
        fill: url(#Gradiente_sem_nome_413-10);
      }

      .cls-3 {
        fill: url(#Gradiente_sem_nome_413-11);
      }

      .cls-4 {
        fill: url(#Gradiente_sem_nome_413-13);
      }

      .cls-5 {
        fill: url(#Gradiente_sem_nome_413-12);
      }

      .cls-6 {
        fill: url(#Gradiente_sem_nome_413-20);
      }

      .cls-7 {
        fill: url(#Gradiente_sem_nome_413-21);
      }

      .cls-8 {
        fill: url(#Gradiente_sem_nome_413-22);
      }

      .cls-9 {
        fill: url(#Gradiente_sem_nome_413-23);
      }

      .cls-10 {
        fill: url(#Gradiente_sem_nome_413-15);
      }

      .cls-11 {
        fill: url(#Gradiente_sem_nome_413-19);
      }

      .cls-12 {
        fill: url(#Gradiente_sem_nome_413-17);
      }

      .cls-13 {
        fill: url(#Gradiente_sem_nome_413-18);
      }

      .cls-14 {
        fill: url(#Gradiente_sem_nome_413-16);
      }

      .cls-15 {
        fill: url(#Gradiente_sem_nome_413-14);
      }

      .cls-16 {
        fill: url(#Gradiente_sem_nome_413-27);
      }

      .cls-17 {
        fill: url(#Gradiente_sem_nome_413-26);
      }

      .cls-18 {
        fill: url(#Gradiente_sem_nome_413-25);
      }

      .cls-19 {
        fill: url(#Gradiente_sem_nome_413-24);
      }

      .cls-20 {
        fill: url(#Gradiente_sem_nome_413-29);
      }

      .cls-21 {
        fill: url(#Gradiente_sem_nome_413-28);
      }

      .cls-22 {
        fill: url(#Gradiente_sem_nome_413-31);
      }

      .cls-23 {
        fill: url(#Gradiente_sem_nome_413-36);
      }

      .cls-24 {
        fill: url(#Gradiente_sem_nome_413-30);
      }

      .cls-25 {
        fill: url(#Gradiente_sem_nome_413-32);
      }

      .cls-26 {
        fill: url(#Gradiente_sem_nome_413-34);
      }

      .cls-27 {
        fill: url(#Gradiente_sem_nome_413-35);
      }

      .cls-28 {
        fill: url(#Gradiente_sem_nome_413-33);
      }

      .cls-29 {
        fill: url(#Gradiente_sem_nome_413-37);
      }

      .cls-30 {
        fill: url(#Gradiente_sem_nome_413-38);
      }

      .cls-31 {
        fill: url(#Gradiente_sem_nome_413);
      }

      .cls-32 {
        fill: url(#Gradiente_sem_nome_413-8);
      }

      .cls-33 {
        fill: url(#Gradiente_sem_nome_413-9);
      }

      .cls-34 {
        fill: url(#Gradiente_sem_nome_413-3);
      }

      .cls-35 {
        fill: url(#Gradiente_sem_nome_413-4);
      }

      .cls-36 {
        fill: url(#Gradiente_sem_nome_413-5);
      }

      .cls-37 {
        fill: url(#Gradiente_sem_nome_413-6);
      }

      .cls-38 {
        fill: url(#Gradiente_sem_nome_413-7);
      }

      .cls-39 {
        fill: url(#Gradiente_sem_nome_413-2);
      }

      .cls-40 {
        clip-path: url(#clippath);
      }
    </style>
    <linearGradient id="Gradiente_sem_nome_413" data-name="Gradiente sem nome 413" x1="-71.09" y1="71.09" x2="115.4" y2="257.58" gradientUnits="userSpaceOnUse">
      <stop offset=".14" stop-color="#f5d8fe"/>
      <stop offset=".37" stop-color="#cd97f7"/>
      <stop offset=".66" stop-color="#4f11e1"/>
      <stop offset="1" stop-color="#0e0f0d"/>
    </linearGradient>
    <clipPath id="clippath">
      <rect class="cls-1" y="4.2" width="841.89" height="1190.55"/>
    </clipPath>
    <linearGradient id="Gradiente_sem_nome_413-2" data-name="Gradiente sem nome 413" x1="-109.9" y1="42.09" x2="242.83" y2="394.82" xlink:href="#Gradiente_sem_nome_413"/>
    <linearGradient id="Gradiente_sem_nome_413-3" data-name="Gradiente sem nome 413" x1="-114.28" y1="135.09" x2="424.45" y2="673.82" xlink:href="#Gradiente_sem_nome_413"/>
    <linearGradient id="Gradiente_sem_nome_413-4" data-name="Gradiente sem nome 413" x1="-109.32" y1="174.44" x2="508.11" y2="791.87" xlink:href="#Gradiente_sem_nome_413"/>
    <linearGradient id="Gradiente_sem_nome_413-5" data-name="Gradiente sem nome 413" x1="-114.04" y1="90.54" x2="335.59" y2="540.16" xlink:href="#Gradiente_sem_nome_413"/>
    <linearGradient id="Gradiente_sem_nome_413-6" data-name="Gradiente sem nome 413" x1="111.65" y1="42.09" x2="464.38" y2="394.82" xlink:href="#Gradiente_sem_nome_413"/>
    <linearGradient id="Gradiente_sem_nome_413-7" data-name="Gradiente sem nome 413" x1="122.43" y1="-13" x2="364.98" y2="229.55" xlink:href="#Gradiente_sem_nome_413"/>
    <linearGradient id="Gradiente_sem_nome_413-8" data-name="Gradiente sem nome 413" x1="107.27" y1="135.09" x2="646" y2="673.82" xlink:href="#Gradiente_sem_nome_413"/>
    <linearGradient id="Gradiente_sem_nome_413-9" data-name="Gradiente sem nome 413" x1="112.23" y1="174.44" x2="729.66" y2="791.87" xlink:href="#Gradiente_sem_nome_413"/>
    <linearGradient id="Gradiente_sem_nome_413-10" data-name="Gradiente sem nome 413" x1="107.51" y1="90.54" x2="557.13" y2="540.16" xlink:href="#Gradiente_sem_nome_413"/>
    <linearGradient id="Gradiente_sem_nome_413-11" data-name="Gradiente sem nome 413" x1="333.2" y1="42.09" x2="685.93" y2="394.82" xlink:href="#Gradiente_sem_nome_413"/>
    <linearGradient id="Gradiente_sem_nome_413-12" data-name="Gradiente sem nome 413" x1="343.98" y1="-13" x2="586.53" y2="229.55" xlink:href="#Gradiente_sem_nome_413"/>
    <linearGradient id="Gradiente_sem_nome_413-13" data-name="Gradiente sem nome 413" x1="328.82" y1="135.09" x2="867.55" y2="673.82" xlink:href="#Gradiente_sem_nome_413"/>
    <linearGradient id="Gradiente_sem_nome_413-14" data-name="Gradiente sem nome 413" x1="333.78" y1="174.44" x2="951.21" y2="791.87" xlink:href="#Gradiente_sem_nome_413"/>
    <linearGradient id="Gradiente_sem_nome_413-15" data-name="Gradiente sem nome 413" x1="329.06" y1="90.54" x2="778.68" y2="540.16" xlink:href="#Gradiente_sem_nome_413"/>
    <linearGradient id="Gradiente_sem_nome_413-16" data-name="Gradiente sem nome 413" x1="73.83" y1="621.59" x2="413.58" y2="961.34" gradientTransform="translate(354.48 320.78)" xlink:href="#Gradiente_sem_nome_413"/>
    <linearGradient id="Gradiente_sem_nome_413-17" data-name="Gradiente sem nome 413" x1="84.61" y1="566.5" x2="314.18" y2="796.07" gradientTransform="translate(443.09 541.14)" xlink:href="#Gradiente_sem_nome_413"/>
    <linearGradient id="Gradiente_sem_nome_413-18" data-name="Gradiente sem nome 413" x1="69.45" y1="714.58" x2="595.2" y2="1240.33" gradientTransform="translate(177.24 -51.21)" xlink:href="#Gradiente_sem_nome_413"/>
    <linearGradient id="Gradiente_sem_nome_413-19" data-name="Gradiente sem nome 413" x1="74.41" y1="753.94" x2="678.86" y2="1358.39" gradientTransform="translate(88.62 -208.62)" xlink:href="#Gradiente_sem_nome_413"/>
    <linearGradient id="Gradiente_sem_nome_413-20" data-name="Gradiente sem nome 413" x1="69.7" y1="670.03" x2="506.34" y2="1106.67" gradientTransform="translate(265.86 127)" xlink:href="#Gradiente_sem_nome_413"/>
    <linearGradient id="Gradiente_sem_nome_413-21" data-name="Gradiente sem nome 413" x1="295.38" y1="621.59" x2="635.13" y2="961.34" gradientTransform="translate(-88.62 320.78)" xlink:href="#Gradiente_sem_nome_413"/>
    <linearGradient id="Gradiente_sem_nome_413-22" data-name="Gradiente sem nome 413" x1="306.16" y1="566.5" x2="535.73" y2="796.07" gradientTransform="translate(0 541.14)" xlink:href="#Gradiente_sem_nome_413"/>
    <linearGradient id="Gradiente_sem_nome_413-23" data-name="Gradiente sem nome 413" x1="291" y1="714.58" x2="816.75" y2="1240.33" gradientTransform="translate(-265.86 -51.21)" xlink:href="#Gradiente_sem_nome_413"/>
    <linearGradient id="Gradiente_sem_nome_413-24" data-name="Gradiente sem nome 413" x1="295.96" y1="753.94" x2="900.41" y2="1358.39" gradientTransform="translate(-354.48 -208.62)" xlink:href="#Gradiente_sem_nome_413"/>
    <linearGradient id="Gradiente_sem_nome_413-25" data-name="Gradiente sem nome 413" x1="291.24" y1="670.03" x2="727.89" y2="1106.67" gradientTransform="translate(-177.24 127)" xlink:href="#Gradiente_sem_nome_413"/>
    <linearGradient id="Gradiente_sem_nome_413-26" data-name="Gradiente sem nome 413" x1="516.93" y1="621.59" x2="856.68" y2="961.34" gradientTransform="translate(-531.72 320.78)" xlink:href="#Gradiente_sem_nome_413"/>
    <linearGradient id="Gradiente_sem_nome_413-27" data-name="Gradiente sem nome 413" x1="527.71" y1="566.5" x2="757.28" y2="796.07" gradientTransform="translate(-443.1 541.14)" xlink:href="#Gradiente_sem_nome_413"/>
    <linearGradient id="Gradiente_sem_nome_413-28" data-name="Gradiente sem nome 413" x1="512.55" y1="714.58" x2="1038.3" y2="1240.33" gradientTransform="translate(-708.96 -51.21)" xlink:href="#Gradiente_sem_nome_413"/>
    <linearGradient id="Gradiente_sem_nome_413-29" data-name="Gradiente sem nome 413" x1="517.51" y1="753.94" x2="1121.96" y2="1358.39" gradientTransform="translate(-797.58 -208.62)" xlink:href="#Gradiente_sem_nome_413"/>
    <linearGradient id="Gradiente_sem_nome_413-30" data-name="Gradiente sem nome 413" x1="512.79" y1="670.03" x2="949.44" y2="1106.67" gradientTransform="translate(-620.34 127)" xlink:href="#Gradiente_sem_nome_413"/>
    <linearGradient id="Gradiente_sem_nome_413-31" data-name="Gradiente sem nome 413" x1="554.75" y1="42.09" x2="907.48" y2="394.82" xlink:href="#Gradiente_sem_nome_413"/>
    <linearGradient id="Gradiente_sem_nome_413-32" data-name="Gradiente sem nome 413" x1="565.53" y1="-13" x2="808.08" y2="229.55" xlink:href="#Gradiente_sem_nome_413"/>
    <linearGradient id="Gradiente_sem_nome_413-33" data-name="Gradiente sem nome 413" x1="550.37" y1="135.09" x2="1089.1" y2="673.82" xlink:href="#Gradiente_sem_nome_413"/>
    <linearGradient id="Gradiente_sem_nome_413-34" data-name="Gradiente sem nome 413" x1="550.61" y1="90.54" x2="1000.23" y2="540.16" xlink:href="#Gradiente_sem_nome_413"/>
    <linearGradient id="Gradiente_sem_nome_413-35" data-name="Gradiente sem nome 413" x1="-147.72" y1="621.59" x2="192.03" y2="961.34" gradientTransform="translate(797.58 320.78)" xlink:href="#Gradiente_sem_nome_413"/>
    <linearGradient id="Gradiente_sem_nome_413-36" data-name="Gradiente sem nome 413" x1="-152.1" y1="714.58" x2="373.65" y2="1240.33" gradientTransform="translate(620.34 -51.21)" xlink:href="#Gradiente_sem_nome_413"/>
    <linearGradient id="Gradiente_sem_nome_413-37" data-name="Gradiente sem nome 413" x1="-147.14" y1="753.94" x2="457.31" y2="1358.39" gradientTransform="translate(531.72 -208.62)" xlink:href="#Gradiente_sem_nome_413"/>
    <linearGradient id="Gradiente_sem_nome_413-38" data-name="Gradiente sem nome 413" x1="-151.85" y1="670.03" x2="284.79" y2="1106.67" gradientTransform="translate(708.96 127)" xlink:href="#Gradiente_sem_nome_413"/>
  </defs>
  <g id="Camada_1-2" data-name="Camada 1">
    <g>
      <rect class="cls-31" x="0" width="44.31" height="328.67"/>
      <g class="cls-40">
        <g>
          <rect class="cls-39" x="44.31" y="-112.12" width="44.31" height="661.15"/>
          <rect class="cls-34" x="132.93" y="-112.12" width="44.31" height="1033.14"/>
          <rect class="cls-35" x="177.24" y="-112.12" width="44.31" height="1190.55"/>
          <rect class="cls-36" x="88.62" y="-112.12" width="44.31" height="854.93"/>
          <rect class="cls-37" x="265.86" y="-112.12" width="44.31" height="661.15"/>
          <rect class="cls-38" x="221.55" y="-112.12" width="44.31" height="440.79"/>
          <rect class="cls-32" x="354.48" y="-112.12" width="44.31" height="1033.14"/>
          <rect class="cls-33" x="398.79" y="-112.12" width="44.31" height="1190.55"/>
          <rect class="cls-2" x="310.17" y="-112.12" width="44.31" height="854.93"/>
          <rect class="cls-3" x="487.41" y="-112.12" width="44.31" height="661.15"/>
          <rect class="cls-5" x="443.1" y="-112.12" width="44.31" height="440.79"/>
          <rect class="cls-4" x="576.03" y="-112.12" width="44.31" height="1033.14"/>
          <rect class="cls-15" x="620.34" y="-112.12" width="44.31" height="1190.55"/>
          <rect class="cls-10" x="531.72" y="-112.12" width="44.31" height="854.93"/>
          <g>
            <rect class="cls-14" x="576.03" y="781.67" width="44.31" height="661.15" rx="22.16" ry="22.16" transform="translate(1196.37 2224.49) rotate(180)"/>
            <rect class="cls-12" x="620.34" y="1002.03" width="44.31" height="440.79" rx="22.16" ry="22.16" transform="translate(1284.99 2444.85) rotate(180)"/>
            <rect class="cls-13" x="487.41" y="409.68" width="44.31" height="1033.14" rx="22.16" ry="22.16" transform="translate(1019.13 1852.5) rotate(180)"/>
            <rect class="cls-11" x="443.1" y="252.27" width="44.31" height="1190.55" rx="22.16" ry="22.16" transform="translate(930.51 1695.09) rotate(180)"/>
            <rect class="cls-6" x="531.72" y="587.89" width="44.31" height="854.93" rx="22.16" ry="22.16" transform="translate(1107.75 2030.71) rotate(180)"/>
            <rect class="cls-7" x="354.48" y="781.67" width="44.31" height="661.15" rx="22.16" ry="22.16" transform="translate(753.27 2224.49) rotate(-180)"/>
            <rect class="cls-8" x="398.79" y="1002.03" width="44.31" height="440.79" rx="22.16" ry="22.16" transform="translate(841.89 2444.85) rotate(180)"/>
            <rect class="cls-9" x="265.86" y="409.68" width="44.31" height="1033.14" rx="22.16" ry="22.16" transform="translate(576.03 1852.5) rotate(180)"/>
            <rect class="cls-19" x="221.55" y="252.27" width="44.31" height="1190.55" rx="22.16" ry="22.16" transform="translate(487.41 1695.09) rotate(-180)"/>
            <rect class="cls-18" x="310.17" y="587.89" width="44.31" height="854.93" rx="22.16" ry="22.16" transform="translate(664.65 2030.71) rotate(-180)"/>
            <rect class="cls-17" x="132.93" y="781.67" width="44.31" height="661.15" rx="22.16" ry="22.16" transform="translate(310.17 2224.49) rotate(-180)"/>
            <rect class="cls-16" x="177.24" y="1002.03" width="44.31" height="440.79" rx="22.16" ry="22.16" transform="translate(398.79 2444.85) rotate(-180)"/>
            <rect class="cls-21" x="44.31" y="409.68" width="44.31" height="1033.14" rx="22.16" ry="22.16" transform="translate(132.93 1852.5) rotate(180)"/>
            <rect class="cls-20" x="0" y="252.27" width="44.31" height="1190.55" rx="22.16" ry="22.16" transform="translate(44.31 1695.09) rotate(-180)"/>
            <rect class="cls-24" x="88.62" y="587.89" width="44.31" height="854.93" rx="22.16" ry="22.16" transform="translate(221.55 2030.71) rotate(180)"/>
          </g>
          <rect class="cls-22" x="708.96" y="-112.12" width="44.31" height="661.15"/>
          <rect class="cls-25" x="664.65" y="-112.12" width="44.31" height="440.79"/>
          <rect class="cls-28" x="797.58" y="-112.12" width="44.31" height="1033.14"/>
          <rect class="cls-26" x="753.27" y="-112.12" width="44.31" height="854.93"/>
          <rect class="cls-27" x="797.58" y="781.67" width="44.31" height="661.15" rx="22.16" ry="22.16" transform="translate(1639.47 2224.49) rotate(180)"/>
          <rect class="cls-23" x="708.96" y="409.68" width="44.31" height="1033.14" rx="22.16" ry="22.16" transform="translate(1462.23 1852.5) rotate(180)"/>
          <rect class="cls-29" x="664.65" y="252.27" width="44.31" height="1190.55" rx="22.16" ry="22.16" transform="translate(1373.61 1695.09) rotate(180)"/>
          <rect class="cls-30" x="753.27" y="587.89" width="44.31" height="854.93" rx="22.16" ry="22.16" transform="translate(1550.85 2030.71) rotate(180)"/>
        </g>
      </g>
    </g>
  </g>
</svg>