<?xml version="1.0" encoding="UTF-8"?>
<svg id="Art" xmlns="http://www.w3.org/2000/svg" version="1.1" xmlns:xlink="http://www.w3.org/1999/xlink" viewBox="0 0 3700 3000">
  <!-- Generator: Adobe Illustrator 30.0.0, SVG Export Plug-In . SVG Version: 2.1.1 Build 123)  -->
  <defs>
    <clipPath id="clippath">
      <rect width="3700" height="3000" fill="none"/>
    </clipPath>
    <linearGradient id="linear-gradient" x1="-283.1022145" y1="3087.0564842" x2="1562.9768414" y2="2008.3948912" gradientUnits="userSpaceOnUse">
      <stop offset=".1920199" stop-color="#f9f2f6"/>
      <stop offset=".7197706" stop-color="#4cee99"/>
    </linearGradient>
    <linearGradient id="linear-gradient1" x1="-430.7391304" y1="1507.6086957" x2="3857.9565217" y2="1507.6086957" gradientUnits="userSpaceOnUse">
      <stop offset=".0793891" stop-color="#f9f2f6"/>
      <stop offset=".0946127" stop-color="#f0e4f6"/>
      <stop offset=".1494963" stop-color="#d6b9f9"/>
      <stop offset=".2027043" stop-color="#c197fc"/>
      <stop offset=".2530903" stop-color="#b27ffd"/>
      <stop offset=".2995186" stop-color="#a971fe"/>
      <stop offset=".3382413" stop-color="#a66cff"/>
      <stop offset=".473723" stop-color="#bf6fff"/>
      <stop offset=".7426138" stop-color="#ec74ff"/>
      <stop offset=".8781121" stop-color="#fe77ff"/>
    </linearGradient>
    <linearGradient id="linear-gradient2" x1="1865.7015869" y1="2322.5613269" x2="3889.4430338" y2="1140.0918297" gradientUnits="userSpaceOnUse">
      <stop offset="0" stop-color="#fe77ff"/>
      <stop offset=".146903" stop-color="#fd7bfe"/>
      <stop offset=".2969022" stop-color="#fd87fd"/>
      <stop offset=".4483644" stop-color="#fc9bfc"/>
      <stop offset=".6008184" stop-color="#fbb8fa"/>
      <stop offset=".7526148" stop-color="#f9dcf7"/>
      <stop offset=".8279657" stop-color="#f9f2f6"/>
    </linearGradient>
    <linearGradient id="linear-gradient3" x1="668.5695173" y1="1404.7888041" x2="3372.0990576" y2="1404.7888041" gradientUnits="userSpaceOnUse">
      <stop offset=".0793891" stop-color="#f9f2f6"/>
      <stop offset=".1119465" stop-color="#f2e6f6"/>
      <stop offset=".3829553" stop-color="#bb8efc"/>
      <stop offset=".5058106" stop-color="#a66cff"/>
      <stop offset=".6131537" stop-color="#a96cff"/>
      <stop offset=".7178952" stop-color="#b56dff"/>
      <stop offset=".8215936" stop-color="#c970ff"/>
      <stop offset=".9240187" stop-color="#e473ff"/>
      <stop offset="1" stop-color="#fe77ff"/>
    </linearGradient>
    <linearGradient id="linear-gradient4" x1="-116.9517904" y1="2679.6905461" x2="1249.9661673" y2="2679.6905461" gradientUnits="userSpaceOnUse">
      <stop offset=".216399" stop-color="#fe77ff"/>
      <stop offset="1" stop-color="#761efe"/>
    </linearGradient>
    <linearGradient id="linear-gradient5" x1="1020.8860348" y1="2357.6827699" x2="1488.7987296" y2="2357.6827699" gradientUnits="userSpaceOnUse">
      <stop offset=".1186161" stop-color="#1777f2"/>
      <stop offset=".2376997" stop-color="#146ad7"/>
      <stop offset=".4931346" stop-color="#0e4894"/>
      <stop offset=".8618997" stop-color="#031429"/>
      <stop offset="1" stop-color="#000"/>
    </linearGradient>
    <linearGradient id="linear-gradient6" x1="944.0471133" y1="1719.2098126" x2="3647.5766535" y2="1719.2098126" gradientUnits="userSpaceOnUse">
      <stop offset=".1186161" stop-color="#1777f2"/>
      <stop offset=".1964975" stop-color="#1672e9"/>
      <stop offset=".3210056" stop-color="#1367d2"/>
      <stop offset=".4765548" stop-color="#1054ac"/>
      <stop offset=".6571168" stop-color="#0b3a77"/>
      <stop offset=".856114" stop-color="#051934"/>
      <stop offset="1" stop-color="#000"/>
    </linearGradient>
    <linearGradient id="linear-gradient7" x1="2394.7600098" y1="1777.7544767" x2="3641.3158676" y2="1777.7544767" gradientUnits="userSpaceOnUse">
      <stop offset=".0380185" stop-color="#fe77ff"/>
      <stop offset=".0401965" stop-color="#fd77fd"/>
      <stop offset=".1571122" stop-color="#f294c3"/>
      <stop offset=".2761279" stop-color="#e9ae8f"/>
      <stop offset=".3958773" stop-color="#e1c363"/>
      <stop offset=".5157956" stop-color="#dad53f"/>
      <stop offset=".6358418" stop-color="#d5e323"/>
      <stop offset=".7562287" stop-color="#d1ed0f"/>
      <stop offset=".8772715" stop-color="#cff303"/>
      <stop offset="1" stop-color="#cff500"/>
    </linearGradient>
    <linearGradient id="linear-gradient8" x1="2345.9599609" y1="511.3199768" x2="3011.8999023" y2="511.3199768" xlink:href="#linear-gradient7"/>
    <linearGradient id="linear-gradient9" x1="1700.3492585" y1="1330.9577492" x2="2623.0387983" y2="569.6415375" gradientUnits="userSpaceOnUse">
      <stop offset=".0777208" stop-color="#4cee99"/>
      <stop offset=".2781936" stop-color="#4eee9a"/>
      <stop offset=".4069268" stop-color="#57ee9f"/>
      <stop offset=".51551" stop-color="#66eea7"/>
      <stop offset=".6128806" stop-color="#7befb2"/>
      <stop offset=".702813" stop-color="#96efc0"/>
      <stop offset=".7872331" stop-color="#b7f0d2"/>
      <stop offset=".8658101" stop-color="#def1e7"/>
      <stop offset=".9122274" stop-color="#f9f2f6"/>
    </linearGradient>
    <linearGradient id="linear-gradient10" x1="1729.325824" y1="1501.2866375" x2="1864.658377" y2="1077.4407582" gradientUnits="userSpaceOnUse">
      <stop offset=".0380185" stop-color="#fe77ff"/>
      <stop offset=".2519229" stop-color="#ef9cb2"/>
      <stop offset=".4521822" stop-color="#e4bc73"/>
      <stop offset=".6325991" stop-color="#dbd441"/>
      <stop offset=".7897438" stop-color="#d4e61d"/>
      <stop offset=".9175505" stop-color="#d0f107"/>
      <stop offset="1" stop-color="#cff500"/>
    </linearGradient>
    <linearGradient id="linear-gradient11" x1="2955.6104271" y1="1548.8599854" x2="3277.9605247" y2="1548.8599854" gradientUnits="userSpaceOnUse">
      <stop offset=".1848301" stop-color="#f9f2f6"/>
      <stop offset=".2572188" stop-color="#f7f2ee"/>
      <stop offset=".3662615" stop-color="#f4f2d9"/>
      <stop offset=".4984634" stop-color="#eef2b7"/>
      <stop offset=".6487799" stop-color="#e6f388"/>
      <stop offset=".8143916" stop-color="#dcf44c"/>
      <stop offset=".9903739" stop-color="#cff404"/>
      <stop offset="1" stop-color="#cff500"/>
    </linearGradient>
    <linearGradient id="linear-gradient12" x1="3348.1194262" y1="1360.2694303" x2="3549.2695727" y2="1360.2694303" xlink:href="#linear-gradient11"/>
  </defs>
  <g id="Background">
    <rect width="3700" height="3000" fill="#761efe"/>
  </g>
  <g id="Graphic">
    <g clip-path="url(#clippath)">
      <path d="M2367.0217414,3157.3478261L-430.7391304,1554.5652174s-160.5,1624.6956522-160.5,1690.4347826,2958.2608718-87.6521739,2958.2608718-87.6521739Z" fill="url(#linear-gradient)"/>
      <g>
        <polygon points="2192.5652174 -79.5217391 -430.7391304 1554.5652174 2261.4347826 3157.3478261 3801.6086957 3157.3478261 3857.9565217 -142.1304348 2192.5652174 -79.5217391" fill="url(#linear-gradient1)"/>
        <polygon points="2424.4616238 -153.4123185 -247.4812724 1553.8013035 2289.5510138 3064.220535 3803.1991048 3064.220535 3803.1991048 -70.1304348 2424.4616238 -153.4123185"/>
        <path d="M1501.5568942,2451.2778455s772.3996276,361.7221545,1292.0518015-114.1039325l906.3913043-763.826087,145.4347826-363.1304348v-394.4347826h-394.845534l-1949.0323545,1635.4952368Z" fill="url(#linear-gradient2)"/>
        <path d="M3641.3100586,1142.2800293c.6799316,138.119873-59.2299805,269.9599609-163.880127,360.869873l-1011.7700195,878.9101562c-22.1098633,19.2099609-45.8498535,36.2600098-70.8999023,50.9899902-46.9899902,27.6398926-98.5700684,47.1098633-152.5600586,57.329834-115.1699219,21.7900391-293.3299561,41.3500977-499.7900391,14.6801758-121.1098633-15.6401367-251.9499512-47.1899414-385.5198975-103.5200195-113.25-47.75-228.460022-113.3200684-341.3699951-202.1101074,0,0-107.960022-222.039917-69.4200439-569.6699219,6.7367902-60.7796587,17.9518636-125.3984558,35.0052089-193.3409717,167.4648799-667.1996089,765.6451022-1134.7284414,1453.4693045-1144.6112958,115.9977831-1.6666892,240.9881315,7.3770435,374.6254622,30.8722504,65.5,11.5100098,133.0800781,26.5,202.6999512,45.4099731,25.0600586,6.8000488,50.380127,14.1100464,75.9702148,21.9500122,0,0,403.4099121,122.1400146,521.6098633,534.2999878,17.5,61.0300293,28.75,128.4100342,31.5100098,202.710083.1899414,5.0799561.3000488,10.1599121.3200684,15.2299805Z" fill="url(#linear-gradient3)"/>
        <path d="M-116.9517904,2810.5750909c106.3793477,35.6175437,229.9563655,14.6265726,318.6083952-54.1192831,92.5733191-71.7866466,146.5259752-189.2675527,249.6924898-244.7636093,44.9615518-24.1860349,96.2002249-34.565024,147.1141047-38.3442149,50.4673081-3.7460433,101.3922932-1.2854196,151.2633358,7.3088305,63.6654801,10.9714498,126.008039,31.9280591,190.5901233,33.6074681,82.6379224,2.1489563,165.6710368-29.0098051,226.4942561-84.9935536l83.1552529,43.3203972c-80.089874,102.416101-216.0857169,158.0904338-345.0021086,141.2378512-71.2134718-9.3093641-138.6671677-38.8298933-209.9778696-47.3625947-117.2124272-14.0250795-240.0707198,33.579077-317.2322368,122.9186328-29.8758605,34.5910244-52.9879692,74.5688758-82.6289152,109.3614087-91.0798677,106.9095175-245.3612203,155.39713-381.2245511,119.8114224l-30.8522765-107.9827553Z" fill="url(#linear-gradient4)"/>
        <path d="M1134.4782609,2199.4347826l-31.2556648,194.3766324c-4.3941118,27.3266511,6.7512269,54.786213,28.8581932,71.4396246,25.7830818,19.4226683,65.1505302,41.8915679,116.1269057,49.7905184,21.4082463,3.3172754,43.2115245-2.7319548,59.7485003-16.7264451l164.9815642-139.6163923-338.4594986-159.263938Z" fill="url(#linear-gradient5)"/>
        <path d="M3641.3100586,1142.2800293c.6799316,138.119873-59.2299805,269.9599609-163.880127,360.869873l-1011.7700195,878.9101562c-22.1098633,19.2099609-45.8498535,36.2600098-70.8999023,50.9899902-46.9899902,27.6398926-98.5700684,47.1098633-152.5600586,57.329834-2.0566057.3891078-4.1534622.7816189-6.2896516,1.1771358-273.1487813,50.5736763-554.8589061,27.0838656-816.1255448-67.2967306l-62.8947402-22.720249c-113.25-47.75-228.460022-113.3200684-341.3699951-202.1101074,0,0-107.960022-222.039917-69.4200439-569.6699219,66.1900024,197.9899902,211.6600342,368.3299561,397.0300293,464.4199219,98.0699463,50.8400879,205.4100342,81.1501465,313.0799561,105.8300781,212.7600098,48.7600098,457.3601074,70.2099609,629.4799805-64.0400391,137.9899902-107.6300049,192.7099609-287.1099854,255.2099609-450.5700684,85.7001953-224.1599121,212.3901367-447.8398438,408.7700195-597.3099365,192.3901367-146.4299927,426.5400391-179.2799683,659.8100586-163.75,17.5,61.0300293,28.75,128.4100342,31.5100098,202.710083.1899414,5.0799561.3000488,10.1599121.3200684,15.2299805Z" fill="url(#linear-gradient6)"/>
        <path d="M3641.3100586,1142.2800293c.6499023,131.0599365-53.2600098,256.4599609-148.1801758,346.5999756-5.1098633,4.8699951-10.3498535,9.6199951-15.6999512,14.2698975l-109.2800293,94.9300537-183.9499512,159.7900391-196.4899902,170.7000732-522.0500488,453.4899902c-22.1098633,19.2099609-45.8498535,36.2600098-70.8999023,50.9899902,99.4499512-141.8400879,171.0400391-313.4602051,243.7199707-460.8701172,119.9899902-243.3598633,242.8999023-459.4199219,433.9699707-647.8299561,10.7600098-10.6099854,21.5900879-20.8099365,32.5400391-30.5899658,62.1501465-55.5600586,128.0400391-97.7299805,205.0700684-124.6101074,15.3300781-5.3498535,31.0998535-10.0898438,47.369873-14.2099609,26.9799805-6.8399658,62.4299316-16,100.0500488-22.8499756,37.1699219-6.7698975,76.4699707-11.2799072,111.8200684-9.0599365,26.1499023,1.6398926,50.1298828,6.9599609,69.5,17.7700195.8598633.4799805,1.6899414.9699707,2.5100098,1.4799805Z" fill="url(#linear-gradient7)"/>
        <path d="M3011.8999023,368.0899658c-124.5998535,35.3000488-367.5200195,125.0800171-606.2199707,331.8699951l-59.7199707-169.0499878s198.4599609-140.5999756,463.2399902-208.2299805c65.5,11.5100098,133.0800781,26.5,202.6999512,45.4099731Z" fill="url(#linear-gradient8)"/>
        <path d="M1513.5174806,1393.5843587c80.0347551-163.0947473,316.9894307-580.9321968,762.3273292-870.6943672,46.7726929-30.4329748,104.407638-34.672984,150.7106667-10.9136078l.0002315.0001188c80.9031566,41.5136673,96.9574604,149.8091385,33.1948468,223.8068725-152.5604204,177.049289-413.1043335,493.6060968-604.1747349,800.4293155-25.4374055,40.847701-62.9856259,73.3325769-106.9427458,92.3912112-74.3139044,32.2205261-184.0908165,56.0921543-237.3897509-48.3213302-28.9056625-56.6266659-27.5952154-125.8304334,2.2741574-186.6982128Z" fill="url(#linear-gradient9)"/>
        <path d="M1581.2724268,1371.637359c58.5888464-98.1568912,239.5912766-390.5325266,409.7357995-552.4349183,34.2192923-32.5616433,85.6183185-39.7845178,127.035252-17.0720058,7.7186304,4.2327973,15.6489158,9.1896776,23.6194093,14.9942421,32.1640882,23.4237098,44.093771,65.8425959,28.7033432,102.5350132-.1636288.3901085-.3291766.7817314-.4966656,1.1748595,0,0-228.3881208,352.802179-394.243715,572.5404654-25.4218194,33.6807876-65.0779524,53.8785669-107.2758678,53.8954535-40.696996.0162859-85.5515484-14.0286438-101.4989806-70.5352122-10.0033974-35.445058-4.4548803-73.4734576,14.421425-105.0978973Z"/>
        <path d="M1670.414284,1397.2857372c-13.201424-57.3607712-31.7971899-184.9808019,17.1076805-327.735691,45.3015596-132.2367092,160.3505515-228.9041123,298.5858444-249.6353051,1.6239216-.2435401,3.2573871-.481025,4.9004173-.7123005l88.0721555,42.2794387c19.2816455,9.2562416,27.0994669,32.6167902,17.2731865,51.6142656l-29.0057422,56.0777682s-281.3043478,53.7194499-217.3478261,422.8597249l-32.8735847,45.416209-106.4926456-6.2543674c-19.439838-1.1417116-35.8519284-14.9325125-40.2194857-33.9097424Z" fill="url(#linear-gradient10)"/>
        <path d="M1383.927002,2113.9506836c20.9088367-152.4964087,81.5307794-349.0946861,178.0205371-470.2200635-13.7934185,22.2835243-26.9583193,45.4109918-38.8035035,68.7374051-63.6785092,127.046694-104.337909,264.1081128-139.2170336,401.4826584h0Z"/>
        <path d="M1817.1264648,1437.4498291c-51.4958501-106.2509542-48.5610663-237.120421-1.160853-344.3702187,36.3571258-82.143946,103.7064814-150.9086418,192.6205255-172.8404501,28.7595658-7.1640871,58.5339798-9.4345339,87.7673783-7.14303-29.3085938.3771973-58.4781494,4.2360229-86.1888428,12.8192749-99.6486589,29.757183-167.7566648,116.1436315-198.8542139,212.4447206-31.3689563,96.5438403-30.9594952,204.0273061,5.8160059,299.0897032h0Z"/>
        <path d="M3310.0600586,1169.1499023c-32.0500488,127.0400391-89.0300293,365-125.8601074,588.7200928l-196.4899902,170.7000732c18.4699707-170.0600586,54.2900391-426.420166,117.2800293-634.8100586,62.1501465-55.5600586,128.0400391-97.7299805,205.0700684-124.6101074Z" fill="url(#linear-gradient11)"/>
        <path d="M3569.3000488,1123.0300293c-25.0600586,111.2399902-52.7399902,240.6099854-76.170166,365.8499756-5.1098633,4.8699951-10.3498535,9.6199951-15.6999512,14.2698975l-109.2800293,94.9300537c21.2800293-134.4399414,51.7800293-307.2399902,89.3300781-465.9899902,37.1699219-6.7698975,76.4699707-11.2799072,111.8200684-9.0599365Z" fill="url(#linear-gradient12)"/>
      </g>
    </g>
  </g>
</svg>