<?xml version="1.0" encoding="utf-8"?>
<!-- Generator: Adobe Illustrator 28.1.0, SVG Export Plug-In . SVG Version: 6.00 Build 0)  -->
<svg version="1.1" id="Layer_1" xmlns="http://www.w3.org/2000/svg" xmlns:xlink="http://www.w3.org/1999/xlink" x="0px" y="0px"
	 viewBox="0 0 595.3 841.9" style="enable-background:new 0 0 595.3 841.9;" xml:space="preserve">
<g>
	<path d="M217,405.2c-1.6,0-2.6-1-3.7-1.9c-6.5-5.3-14.1-7.2-22.3-6.9c-3.9,0.1-7.8,0.6-11.6,1.4c-0.5,0.1-1,0.1-1.5,0.2
		c-0.8,0.2-1.7,0.3-2.2-0.6c-0.5-1,0.1-1.7,0.8-2.3c0.9-0.9,1.9-1.7,2.8-2.5c3.2-3,6-6.3,7.9-10.3c1.1-2.4,2-4.9,2-7.6
		c0.1-4.1-1.7-7.1-5-9.2c-3.6-2.3-7.7-3.3-11.9-3.5c-4.9-0.2-9.7,0.8-14.4,2c-7.2,1.8-14,4.5-20.5,8.2c-0.5,0.3-1,0.6-1.6,0.8
		c-0.4,0.2-0.9,0.1-1.2-0.3c-0.4-0.5-0.3-1,0-1.4c0.3-0.4,0.6-0.8,1-1.2c9.9-11.3,16.7-24.2,20.7-38.6c3.1-11.4,3.8-22.9,1-34.6
		c-2.3-9.6-6.9-17.7-15.1-23.4c-5.1-3.6-10.9-5.1-17.2-4.7c-4.7,0.3-9.2,1.6-13.2,4c-5.4,3.3-10.2,7.5-14,12.7
		c-4.4,5.9-7.8,12.3-10.4,19.2c-3.2,8.3-5.1,16.9-6.2,25.7c-1,8.4-1.1,16.9-0.7,25.4c0.4,9.2,1.8,18.2,4.1,27.1c0.5,2,1,4,1.4,6
		c0.4,2.4-0.6,3.5-3,3.2c-1.2-0.1-2.3-0.5-3.4-0.8c-6.6-1.7-13.3-2.6-20.1-1.5c-2.2,0.3-4.3,0.9-6.4,1.8c-1.1,0.5-2.1,1-3.1,1.8
		c-3,2.3-3.3,5.1-0.9,8c1.4,1.7,3.3,2.9,5.2,4c4.5,2.7,9.5,4.3,14.6,5.7c9.5,2.4,19.1,3.5,28.8,4.1c9.6,0.5,19.2,0.3,28.7-0.2
		c3.1-0.2,6.2-0.5,9.2-0.8c0.4,0,0.8-0.1,1.1-0.3c0.8-0.6,1.5-0.4,2.3,0c8.6,3.6,17.4,6.3,26.6,8c9.8,1.8,19.6,2.6,29.5,1.1
		c3.5-0.5,7-1.3,10.2-2.8c1.3-0.6,2.5-0.8,3.9-0.6c0.6,0.1,1,0.4,0.9,1c0,0.5-0.4,0.8-0.8,0.9c-4.3,0.5-8,2.8-12.3,3.4
		c-4.2,0.5-8.3,0.9-12.6,0.9c-4.3,0-8.5-0.3-12.8-0.8c-8.6-1.1-16.9-3.2-25.1-6c-2.3-0.8-4.5-1.8-6.8-2.7c-0.8-0.4-1.6-0.5-2.5-0.4
		c-13.1,1.8-26.3,1.9-39.5,1.3c-11.7-0.5-23.3-2-34.6-5.6c-4.4-1.4-8.6-3-12.3-5.9c-1.4-1.1-2.8-2.2-3.8-3.6c-2.3-3.2-2-6.8,0.9-9.6
		c1.8-1.7,4-2.8,6.3-3.5c6.2-2,12.5-2,18.8-1.1c3.1,0.4,6.2,1.3,9.3,2c1.8,0.4,2,0.3,1.6-1.5c-1-4.5-2.3-9-3.1-13.6
		c-3.5-19.7-3.6-39.3,1.1-58.8c2.7-11.4,7.3-22,14.2-31.4c2.7-3.7,6-6.9,9.5-9.8c4.9-4.1,10.4-6.6,16.7-7.6
		c8.6-1.3,16.5,0.6,23.3,6.1c7.3,5.9,11.6,13.6,13.8,22.6c3.5,14.1,2.1,27.9-2.4,41.6c-2.9,8.6-6.9,16.7-12,24.3
		c-1.4,2-2.8,4.1-4.4,6.2c1.1-0.1,1.7-0.5,2.4-0.8c6.9-2.9,13.9-5.7,21.4-6.7c5.4-0.7,10.7-0.8,16,0.7c2.8,0.8,5.3,2.3,7.4,4.3
		c4.1,3.9,4.7,8.7,3.2,13.9c-1.5,5.4-4.6,9.8-8.6,13.7c-0.7,0.7-1.5,1.2-2.1,2.3c1.8-0.3,3.4-0.5,5-0.7c5.3-0.7,10.6-0.9,15.8,0.3
		c5,1.1,9.5,3.4,13.6,6.6c0.3,0.3,0.7,0.6,1,0.8c1.6,1.2,2.6,0.9,3.3-1c4.4-10.4,8.7-20.8,12.2-31.5c0.4-1.3,1.2-2.6,1.2-4
		c0.1-1.5-1.7-2.1-2.6-3.1c-5.6-6.2-7.3-13.8-7.9-21.8c-0.7-11.1,0.1-22.1,1.1-33.1c0.8-8.4,1.5-16.7,2.4-25.1
		c2-17.7,3.8-35.5,7.6-52.9c1-4.8,2.3-9.6,4.3-14.2c1.1-2.7,2.6-5.2,4.6-7.3c1.2-1.2,1.6-2.5,1.3-4.2c-0.2-1.5-0.3-2.9-0.4-4.4
		c0-1.2-0.6-1.6-1.7-1.8c-2.8-0.3-5.6-0.5-8.4-0.9c-9.7-1.2-19.4-1.8-29.1-1.5c-5.2,0.1-10.3,0.8-15.4,1.2c-7,0.6-14.1,1.3-21.1,1.9
		c-1.2,0.1-1.9,0.5-2.4,1.5c-2.5,4.4-5,8.8-7.6,13.3c-0.3,0.5-0.6,1-1,1.5c-0.3,0.4-0.7,0.5-1.2,0.2c-0.4-0.3-0.5-0.8-0.3-1.2
		c0.2-0.5,0.5-1,0.8-1.6c2.2-4,4.4-8,6.6-12c0.2-0.3,0.4-0.6,0.3-1.2c-0.9-0.3-1.9-0.1-2.9-0.1c-4.9,0.2-9.9,0.2-14.8-0.4
		c-4.2-0.6-8.2-1.5-12-3.5c-6.2-3.3-10.4-8.5-9.7-17.8c0.4-6,2.7-11.3,5.5-16.4c3.5-6.4,7.9-12.2,12.8-17.7
		c8.2-9.2,17.5-17,27.8-23.8c6.4-4.3,13.2-7.8,20.1-11.2c11.5-5.6,23.6-9,36.3-10.7c4.5-0.6,9.1-0.8,13.7-1c2.3-0.1,4.6-0.3,6.8-0.5
		c2.3-0.2,2.6-0.7,2.6-2.9c-0.1-2.8-0.4-5.6-0.2-8.4c0.8-15.3,9.1-26.7,24.1-31.7c10.3-3.4,20.8-3.5,31.2-1.4
		c9.3,1.9,18.4,5,26.8,9.5c6.6,3.5,12.9,7.5,18.6,12.3c3,2.5,5.9,5.1,8.6,8c9.9,10.5,17.2,22.6,20.5,36.8c0,0.2,0,0.4,0.3,0.5
		c0.3,0,0.4-0.1,0.5-0.3c6.1-10,14.7-16.9,25.5-21.3c12.3-5.1,24.9-5.2,37.4-1.2c6.9,2.2,13.4,5.5,19,10.1
		c6,4.9,11.1,10.6,14.5,17.6c4.6,9.3,5.4,18.7,1.7,28.5c-0.6,1.7-1.4,3.2-2.4,4.7c-3.1,4.8-7.1,8.7-12.1,11.5
		c-2.1,1.2-4.2,2.2-6.3,3.1c-8.1,3.4-16.5,5.3-25.2,6.5c-11.5,1.6-23.2,2.5-34.8,3.2c-14,0.9-28.1,1.8-42.1,2.7
		c-5.5,0.4-11,0.7-16.5,1.2c-11.4,0.9-22.8,1.8-34.1,2.8c-11.4,1-22.8,2-34,3.8c-1.3,0.2-2.6,0.5-4.1,0.7c0.7,2.9,1.7,5.5,2.7,8.2
		c0.3,0.8,1,0.7,1.7,0.8c2.4,0.1,4.9,0.1,7.3,0.3c6.3,0.6,12.5,1.3,18.4,3.4c5.5,1.9,10.3,5,15,8.4c5.5,4,10.4,8.7,15.4,13.3
		c8.3,7.7,16.8,15.3,25.2,22.9c2.6,2.4,5,5,7.3,7.7c2.8,3.4,4.9,7.2,5.8,11.5c0.7,3.5,0.5,7.1-0.5,10.5c-0.9,3.1-2.1,6.2-3.7,9
		c-2.6,4.6-5.6,9-9.1,13c-4.7,5.4-9.7,10.5-15.1,15.2c-1.3,1.1-1.2,1.1-0.2,2.5c0.6,0.8,0.8,1.7,1,2.7c2.2,9.8,0.6,19-4.8,27.6
		c-0.9,1.4-1.8,2.9-3.1,4c-0.8,0.7-0.7,1.3,0,2c2.5,2.9,4.5,6,6.3,9.3c3.2,6.1,4.8,12.6,5.7,19.4c2.4,18.4,0.4,36.5-5.1,54.2
		c-3.4,11-7.6,21.7-12,32.3c-6.5,15.6-13.1,31.1-20.1,46.5c-3.2,7.1-6.3,14.1-9.5,21.2c-0.6,1.3-0.8,2,0.4,3.4
		c2.5,3,4.5,6.4,6.7,9.6c0.4,0.5,0.7,1.1,1.1,1.6c4.6,6,9.2,12.1,13.9,18c6.4,8.1,12.9,16.1,19.8,23.8c6.3,7,12.5,14.1,18.7,21.2
		c6.6,7.6,13.3,15.2,19.7,23c5.7,6.9,11.3,14,16.8,21.1c1.9,2.4,3.8,4.9,5.5,7.5c2.3,3.7,5.1,7,7.8,10.4c4.6,6,8.8,12.2,13.2,18.3
		c2.9,4.1,6,8.2,9.1,12.2c4.7,6,9.4,11.9,14.1,17.8c0.4,0.5,1,1,1,1.7c0.2,1.4-0.7,2.2-2.5,2.2c-12.1,0-24.2,0-36.3,0
		c-0.8,0-1.6,0-2.6,0c0.4,1,1.1,1.4,1.7,1.9c2,1.7,3.6,3.7,4.9,5.9c0.3,0.6,0.4,1.1,0.1,1.6c-0.4,0.7-0.8,1.4-1.3,2
		c-4.1,5.3-8.2,10.6-12.8,15.5c-3.5,3.7-6.8,7.6-10.2,11.4c-0.3,0.4-0.8,0.7-0.8,1.4c0.9,0.3,1.8,0.2,2.7,0.2c36.5,0,73,0,109.5,0
		c10.1,0,20.2,0,30.3,0c0.7,0,1.5-0.1,2.2,0.1c0.5,0.2,0.8,0.5,0.7,1c0,0.5-0.3,0.9-0.8,0.9c-0.8,0.1-1.6,0.1-2.4,0.1
		c-43.2,0-86.4,0-129.6,0c-97,0-194.1,0-291.1,0c-1.2,0-2.4-0.3-3.5,0.4c-0.3,0.2-0.7,0.2-1.1,0.1c-3.9-1-7.8-0.4-11.7-0.5
		c-3.8-0.1-7.5-0.1-11.3,0.1c-2.9,0.2-5.7-0.2-8.5,0c-0.8,0-1.9,0.2-1.9-0.9c0-1.1,1.1-0.9,1.9-0.9c1.3,0,2.7-0.1,4-0.1
		c0.8,0,1.4-0.2,1.8-1c0.4-1,1.2-1.7,1.9-2.5c5.8-6.6,12.6-11.8,20.7-15.2c2.2-0.9,4.4-2.1,6.5-3.2c4.9-2.6,8-6.8,10.5-11.6
		c0.2-0.3,0.4-0.7-0.1-0.9c-1.3-0.7-0.7-1.6-0.3-2.5c0.9-2.1,1.8-4.2,2.7-6.3c4.3-10.1,8.7-20.2,13-30.3
		c4.8-11.1,9.5-22.2,14.2-33.3c4.7-11,9.4-22,14-32.9c4.8-11.3,9.6-22.5,14.4-33.7c4.7-10.9,9.3-21.8,14-32.7
		c6.4-15,12.8-30,19.2-44.9c4.7-10.9,9.3-21.8,14-32.7c6.4-15,12.8-30,19.2-44.9c4.6-10.8,9.3-21.7,13.9-32.5
		c4.4-10.4,8.8-20.7,13.3-31.1c0.3-0.6,0.5-1.2,0.9-1.8c0.3-0.4,0.7-0.5,1.2-0.4c0.5,0.2,0.6,0.6,0.5,1.1c-0.1,0.6-0.3,1.1-0.6,1.7
		c-3.8,8.8-7.5,17.6-11.3,26.4c-4.9,11.4-9.8,22.9-14.7,34.4c-4.6,10.7-9.1,21.4-13.7,32.1c-6.5,15.2-13,30.4-19.4,45.5
		c-4.5,10.6-9.1,21.3-13.6,31.9c-6.5,15.2-13,30.5-19.5,45.7c-4.4,10.3-8.8,20.6-13.2,30.9c-6.7,15.6-13.3,31.2-20,46.8
		c-4.4,10.4-8.8,20.7-13.3,31.1c-3.9,9.1-7.7,18.2-11.6,27.3c-0.9,2.2-0.2,3.4,2.3,3.4c14.8,0,29.6,0,44.5,0c17.5,0,34.9,0,52.4,0
		c0.9,0,2.1-0.4,2.4,0.9c0.2,0.8-0.6,1.2-2.4,1.2c-14.6,0-29.2,0-43.8,0c-1.5,0-3.1,0-4.6,0c-1.1,0-1.6,0.2-1.7,1.4
		c-0.9,9.5-2.8,18.9-4,28.5c-0.1,1-0.4,1.9-0.8,2.8c-0.3,0.9,0,1.2,0.9,1.2c0.6,0,1.2,0,1.8,0c60.2,0,120.3,0,180.5,0.1
		c1.9,0,3.2-0.6,4.3-2c2.6-3.2,5.1-6.5,7.8-9.6c3.7-4.2,7.3-8.5,10.9-12.8c-3.5-4.9-6.8-10-10.8-14.4c-0.8-0.8-1.5-1.2-2.7-1.2
		c-13,0-26,0-38.9,0.1c-1.1,0-1.6-0.3-2.2-1.1c-3.9-6.2-7.9-12.3-11.7-18.5c-5.3-8.8-10.2-17.8-15.1-26.7c-2.2-3.9-4.4-7.8-6.7-11.7
		c-3.8-6.4-7.6-12.8-11.5-19.1c-4.7-7.5-9.7-14.8-14.4-22.3c-0.2-0.3-0.3-0.7-0.8-0.8c-0.6,0.2-0.6,0.8-0.8,1.2
		c-9.7,21.3-18.5,43.1-26.2,65.2c-2.8,7.9-5.6,15.8-8.1,23.9c-0.9,3-1.8,6.1-2.2,9.2c-0.1,0.9-0.2,1.7,0,2.6
		c0.2,0.7-0.2,1.2-0.9,1.3c-0.7,0.1-1.2-0.2-1.3-0.9c-0.1-0.5-0.1-1,0-1.5c0.1-3.2,0.9-6.3,1.8-9.3c2.3-7.9,5.1-15.7,7.9-23.5
		c6.8-19.3,14.2-38.4,22.4-57.2c4.5-10.2,9.1-20.3,13.8-30.4c7.3-15.6,14.7-31.2,22-46.8c5.1-11,10.1-21.9,15.1-33
		c5-11.1,10-22.3,14.9-33.5c4.7-10.9,9.4-22,13.9-33c4.5-10.8,8.5-21.8,11.5-33.2c3.1-11.7,4.5-23.6,4.1-35.7
		c-0.2-7.4-1.1-14.7-3.3-21.8c-1.9-6.2-4.9-11.8-9-16.9c-0.6-0.7-1-1-2-0.3c-3.9,2.9-8.4,4.5-13.1,5.6c-4.6,1-9.3,1.6-14,1.8
		c-2.7,0.1-5.2,0.6-7.8,1.6c-4.3,1.6-8.6,3.1-13,4.4c-8.5,2.7-17.2,3.5-26,2.8c-5.5-0.4-10.7-2.1-15.5-4.9c-0.4-0.3-0.9-0.5-1.3-0.8
		c-0.8,0.6-0.8,1.4-1,2.2c-2.6,8.5-5.9,16.8-9.3,25.1c-4.5,11-9.3,21.8-13.4,33c-5.5,14.8-11,29.6-15.7,44.6
		c-3,9.6-5.6,19.4-8.5,29.1c-2.3,7.8-5,15.6-6.8,23.6c-1.4,6.1-2.3,12.2-1.1,18.4c1.1,5.6,2.5,11.1,6.2,15.7
		c0.2,0.3,0.4,0.6,0.5,0.9c0.2,0.5,0,0.9-0.4,1.1c-0.3,0.2-0.7,0.2-1-0.1c-0.4-0.3-0.7-0.7-1.1-1.1c-2-2.4-3.1-5.2-4.1-8
		c-3.5-9.3-3.1-18.8-0.8-28.3c1.9-7.7,4.4-15.1,6.6-22.7c2.6-8.8,5.1-17.7,7.7-26.5c1.9-6.4,4.1-12.6,6.3-18.9
		c5.1-14.4,10.2-28.7,16-42.9C215.3,409.9,216.4,407.7,217,405.2z M260.2,179.7c1.5,3.8,2.9,7.2,4.2,10.6c0.2,0.4,0.4,0.5,0.9,0.4
		c5.8-1.7,11.7-2.2,17.6-2.9c9.1-1.1,18.3-2,27.5-2.8c11-0.9,22-1.7,33.1-2.5c11.5-0.8,23.1-1.5,34.6-2.2
		c12.6-0.8,25.2-1.5,37.7-2.7c9-0.9,18-1.7,26.8-4.1c5.6-1.5,11.1-3.1,16.3-5.6c4.9-2.4,8.9-5.7,12.3-9.9c1.5-1.9,2.8-4,3.7-6.3
		c3.9-9.5,2.8-18.7-1.8-27.7c-3.7-7.3-9.2-12.9-15.6-17.8c-7-5.3-15.1-8.3-23.6-10.1c-7.4-1.5-14.7-1.2-22.1,0.8
		c-9.3,2.6-17.5,6.9-24.3,13.8c-3.1,3.2-5.8,6.7-7.8,10.7c-0.6,1.1-0.8,2.2-0.7,3.4c0.2,1.7,0.1,3.4-0.5,5c-0.3,0.9-0.8,1.7-1.8,1.6
		c-1.1-0.1-1.3-1-1.4-2c-0.1-1.8,0.2-3.5,0.9-5.2c0.4-1.1,0.5-2.1,0.3-3.2c-1.7-9.8-5.8-18.5-11.2-26.7c-5.4-8.2-12.3-15-20-21.1
		c-5.3-4.2-11-7.7-17-10.7c-11.6-5.9-23.8-9.5-36.8-9.9c-7.8-0.2-15.4,0.9-22.6,4.1c-3.5,1.6-6.7,3.5-9.3,6.2
		c-6.4,6.6-9,14.7-9.2,23.7c0,2.3,0.3,4.6,0.4,6.8c0.1,3.2-1,4.5-4.2,4.8c-2.1,0.2-4.3,0.4-6.4,0.4c-15.7,0.2-30.9,3.1-45.3,9.5
		c-7.6,3.3-15,6.8-21.9,11.4c-5.2,3.5-10.4,6.9-15.2,11c-5,4.3-9.9,8.8-14.4,13.7c-4,4.4-7.5,9.1-10.7,14c-2,3.1-3.6,6.4-5.1,9.8
		c-1.2,2.7-2,5.6-2.3,8.5c-0.9,8.4,2.4,13.9,9.5,17.1c3,1.4,6.3,2.2,9.5,2.8c6.1,1,12.3,0.8,18.5,0.4c1-0.1,1.5-0.4,2-1.3
		c2.4-4.5,4.9-8.9,7.4-13.3c0.4-0.6,0.7-1.3,1.2-1.9c0.3-0.4,0.8-0.8,1.3-0.4c0.5,0.3,0.5,0.9,0.3,1.4c-0.2,0.5-0.5,1.1-0.8,1.6
		c-2.1,3.9-4.3,7.7-6.4,11.6c-0.3,0.6-0.9,1-0.6,1.8c0.8,0.3,1.6,0.1,2.4,0c4.3-0.7,8.6-1,13-1.5c7.1-0.7,14.2-1.3,21.4-1.5
		c10.4-0.3,20.8,0.3,31.1,1.6c2.1,0.3,4.3,0.4,6.4,0.6c0.7,0.1,1.1-0.2,1.1-1c-0.1-1.4-0.3-2.7-0.4-4.2c-1.6,0.6-3,1.1-4.4,1.5
		c-5.7,1.6-10.3-0.7-12.5-6.2c-0.7-1.8-1.3-3.8-1.6-5.7c-0.8-5.5-0.5-11,0.2-16.5c0.8-5.8,2.2-11.4,3.8-17.3
		c-1.3,0.2-1.7-0.6-2.1-1.5c-1.3-3.4-1.2-6.7,1.1-9.6c2.1-2.8,5-3.9,8.5-3.5c1.5,0.2,2.9,0.5,4.3,1.1c1,0.4,1.8,0.3,2.8-0.4
		c4.1-2.7,8.6-4.1,13.4-3c7.6,1.8,13.1,6.2,16,13.6c2.2,5.7,2.3,11.4,0.1,17c-0.5,1.4-1.6,2.6-1.9,4c-0.3,1.5,0.8,2.9,1,4.5
		c0.5,3.2-0.1,6-2.6,8.3C266.1,178.8,263.8,180.4,260.2,179.7z M315.9,271.4c2.3-1.1,3.9-2.5,5.4-4c0.6-0.6,1.2-1.1,1.8-1.6
		c0.3-0.2,0.7-0.2,1,0.1c0.3,0.3,0.4,0.7,0.1,1c-0.3,0.4-0.7,0.8-1,1.2c-2.4,2.8-5.7,4.6-8.6,6.9c-8.7,6.8-15.7,14.8-20.9,24.6
		c-3,5.7-5.1,11.7-6.5,18c-0.3,1.3,0,2,1.1,2.8c2.8,2,5.6,4.1,8.4,6.1c3.1,2.3,6.1,4.6,9.4,6.5c2,1.2,3.7,1,5.5-0.3
		c2-1.4,4-2.8,5.9-4.2c5-3.6,10-7.3,14.6-11.4c5.6-5,11-10.2,16.1-15.8c3.2-3.6,6-7.5,8.5-11.5c2-3.2,3.5-6.6,4.6-10.2
		c1-3.2,1.4-6.5,0.7-9.8c-0.8-4.3-2.9-8-5.7-11.3c-2.3-2.8-4.9-5.4-7.5-7.8c-9.9-8.8-19.6-17.8-29.4-26.8c-1.8-1.6-3.7-3.1-5.5-4.8
		c-5.7-5.3-12.2-9.3-19.4-12.1c-7.1-2.7-14.6-3.5-22.1-3.7c-2.8-0.1-5.6-0.1-8.3-0.1c-4.1,0-8.1-0.2-12.1,0.9
		c-2.4,0.7-4.7,1.5-6.5,3.1c-3.4,2.9-5.9,6.6-7.4,10.9c-2,5.6-3.4,11.4-4.5,17.3c-0.1,0.4-0.5,1,0.1,1.4c0.9-0.2,1.8-0.5,2.8-0.6
		c3.2-0.5,6.5,1.4,7.8,4.3c2.9,6.4-0.5,17.2-11.3,16.8c-0.9,0-2-0.9-2.7,0c-0.5,0.7-0.4,1.8-0.5,2.8c0,0.1,0,0.3-0.1,0.4
		c-1.6,13-3.1,26.1-4.3,39.1c-0.2,1.9-0.3,3.9-0.5,6.2c1.7-1.2,3.1-0.8,4.4-0.1c7.2,3.7,7,12.3,2.3,16.5c-2.3,2-4.9,3.3-8,3
		c-0.3,0.7-0.3,1.4-0.3,2c-0.1,4.1-0.1,8.1,0.1,12.2c0.2,4.3,0.9,8.5,2.1,12.6c1.5,5,4.4,9,8.4,12.2c5.5,4.4,12,6.2,18.9,6.7
		c5.6,0.4,11.2-0.2,16.7-1.1c6.4-1.1,12.3-3.4,18.3-5.7c3.9-1.4,7.8-2.2,11.8-2.5c5.4-0.4,10.9-0.9,16.1-2.6
		c4.3-1.4,8.2-3.4,11.2-6.8c3.7-4.2,6.1-9,7.3-14.4c1.2-5.3,1.3-10.5-0.1-15.8c-0.7-2.6-1.5-2.9-3.5-1.2
		c-6.1,4.9-12.4,9.6-18.9,13.8c-1.9,1.3-3.9,1.7-6.1,0.3c-3.2-2-6.4-3.9-9.3-6.3c-3.8-3.1-7.9-6-11.8-9c-0.9-0.7-1.8-1.6-2.6-2.3
		c-0.3-0.3-0.6-0.7-0.3-1.2c0.4-0.5,0.9-0.3,1.4-0.1c0.7,0.4,1.3,1.3,2.2,1.4c0.1-0.2,0.1-0.3,0.2-0.4c0.2-0.6,0.3-1.3,0.4-1.9
		c1.8-7.8,4.8-15,9.1-21.7c4.2-6.5,9.1-12.3,15.1-17.3c0.5-0.5,1.3-0.8,1.5-1.6c-0.9-0.5-1.7-1.1-2.6-1.6
		c-10.2-5.6-17.6-13.7-21.9-24.6c-2.2-5.4-3.7-11-4.6-16.8c-0.1-0.7-0.3-1.5,0-2.2c0.1-0.3,0.3-0.5,0.6-0.5c0.3,0,0.6,0.1,0.7,0.4
		c0.1,0.3,0.2,0.7,0.3,1.1c0.4,3.6,1.4,7.1,2.5,10.5c1.9,6.5,4.5,12.6,8.8,18c1.1,1.4,2.3,2.7,3.5,4c3.6,3.8,8,6.7,12.7,9.2
		c1.6,0.8,2.5,0.3,2.7-1.5c0.3-2.7,0.5-5.4,0.8-8.1c0.1-0.8-0.1-2.2,1-2.1c1.3,0,0.7,1.4,0.7,2.1
		C316.4,265.3,316.1,268.1,315.9,271.4z M292.1,542.4c-0.3,0.6-0.7,1.3-1,1.9c-3,6.4-5.9,12.9-8.9,19.3c-5.6,12-11.2,23.9-16.8,35.8
		c-4,8.6-8,17.2-12.1,25.8c-0.6,1.3-0.6,2.4,0,3.5c1,1.8,2.2,3.5,3.3,5.2c4.1,6,8.1,12.1,12,18.3c8.3,13.3,16.1,26.9,23.7,40.7
		c6.3,11.4,13,22.6,20.2,33.5c0.7,1.1,1.5,1.5,2.8,1.5c13.3-0.1,26.7-0.1,40-0.1c27.3,0,54.6,0,81.8,0c0.5,0,1.2,0.3,1.6-0.3
		c-0.1-0.6-0.6-1-1-1.5c-4.7-5.9-9.5-11.7-14.1-17.6c-3.1-4-6.1-8.1-9.1-12.3c-4.4-6.2-8.6-12.7-13.6-18.6c-2.5-2.9-4.4-6.1-6.6-9.1
		c-4.6-6.3-9.3-12.5-14.2-18.6c-6-7.4-12.1-14.8-18.4-22.1c-6.8-7.9-13.7-15.7-20.6-23.4c-6.1-6.9-12.2-13.8-18.1-20.9
		c-6.1-7.4-12-14.9-17.9-22.5c-4.3-5.5-8.2-11.2-11.9-17C293.2,543.5,293,542.7,292.1,542.4z M75.4,770.4c1,0,1.8,0,2.6,0
		c7.4-0.4,14.7-0.3,22.1-0.2c18.1,0.1,36.3,0,54.4,0c0.5,0,1,0,1.5,0c0.9,0.1,1.4-0.3,1.8-1.2c0.9-2,1.1-4.1,1.4-6.2
		c1.2-7.9,2.4-15.9,3.6-23.8c0.4-2.6,0.4-2.6-2.4-2.6c-0.3,0-0.6,0-0.9,0c-13.6,0-27.3,0-40.9,0c-3.5,0-3.5,0-5.1,3.1
		c-2.5,4.7-5.8,8.4-10.5,11.1c-1.9,1.1-3.9,2.1-5.9,2.9c-8.1,3.2-14.7,8.4-20.4,14.7C76.2,768.7,75.5,769.2,75.4,770.4z M349.2,770
		c0.7,0.3,1.4,0.2,2.1,0.2c8.1,0,16.2,0,24.3,0c1.9,0,3.4-0.6,4.6-2c3.6-4.2,7.3-8.3,11.1-12.4c4.1-4.5,7.9-9.1,11.7-13.9
		c2.4-3.1,2.4-3.6-0.4-6.5c-1.4-1.4-3-2.6-4.3-4.1c-0.8-0.9-1.7-1.2-2.8-1.2c-12.1,0-24.2,0-36.3,0c-0.5,0-1.2-0.2-1.8,0.5
		c3.7,4,6.8,8.3,9.8,12.7c0.4,0.6,0.7,0.6,1.3,0.2c0.5-0.3,1-0.4,1.4,0.1c0.5,0.6-0.1,1.1-0.4,1.5c-3.6,4.3-7.2,8.6-10.8,12.9
		c-2.9,3.4-5.7,6.9-8.6,10.4C349.7,768.9,349.2,769.2,349.2,770z M225,171.5c0-0.1,0,0.1,0,0.3c-0.1,2.5-0.1,2.5,2.5,2.5
		c0.1,0,0.3,0,0.4,0c0.4,0,0.7,0.2,0.7,0.7c0,0.3-0.1,0.6-0.4,0.7c-0.7,0.4-1.4,0.4-2.1,0.4c-0.9,0-1.2,0.4-1.1,1.2
		c0.3,2.9,0.9,5.8,2.1,8.5c1.8,3.9,5.3,5.5,9.5,4.5c1.8-0.4,3.5-1.2,5.1-2.1c2.9-1.6,5.2-3.9,7.6-6c1.8-1.6,3.4-3.4,5-5.3
		c0.4-0.5,0.8-0.9,0.4-1.7c-2.6-5.9-5.7-11.4-9.8-16.4c-2.4-2.9-5.2-5.4-8-7.8c-1.8-1.6-3.9-2.9-6.1-3.9c-0.9-0.4-1.4-0.4-1.7,0.7
		C227,155.6,225.4,163.3,225,171.5z M266.1,201.5c-0.1-0.6-0.1-0.9-0.2-1.2c-2.1-6.3-4.1-12.6-6.8-18.6c-0.2-0.5-0.6-1-0.5-1.4
		c0.4-1.6-0.9-1.9-1.8-2.3c-0.8-0.4-1.2,0.6-1.6,1.1c-3.2,3.4-6.3,6.8-10.1,9.5c-1,0.6-2.2,1.1-1,2.6c0.2,0.2,0.1,0.7,0.1,1.1
		c0.3,3.7,0.6,7.3,0.9,11c0,0.5-0.1,1.2,0.6,1.6C251.8,201,258.8,201.1,266.1,201.5z M268.9,161.6c0.8-1,1.3-2.2,1.6-3.5
		c1.8-5.9,1-11.4-1.8-16.9c-3.7-7.1-12-11.3-19.8-9.6c-2,0.4-4.1,1.1-5.7,2.7c2.8,1.6,5.4,3.2,7.5,5.4c3.2,3.2,6.5,6.2,9.4,9.7
		c1,1.2,1.9,2.4,2.9,3.6c1,1.3,1.7,3,3,3.8c1.7,1,0.8,2.9,2,3.9C268.2,160.8,268.2,161.4,268.9,161.6z M243.6,245.1
		c0-1.1-0.2-2.3-0.7-3.5c-1.5-3.6-5.5-4.9-8.7-2.9c-0.7,0.4-1.2,1-1.4,1.9c-0.6,4.3-1.3,8.6-2,12.8c-0.2,1,0.2,1.6,1.2,1.7
		c0.4,0.1,0.9,0.2,1.3,0.2C239.1,255.7,243.5,251.3,243.6,245.1z M265.6,160.3c-1.1,0.8-1.8,1.7-2.4,2.5c-1.5,2-3.4,3.6-5.4,5.2
		c-1.1,0.8-3,0.9-3.1,2.4c0,1.3,1,2.5,1.6,3.8c0,0.1,0.1,0.1,0.1,0.2c1.5,2.2,3.3,3.8,6.1,3.6c3.2-0.2,6.8-4,6.7-7.2
		C269.1,166.9,267.4,163.6,265.6,160.3z M232.5,144.9c-0.1,0.7,0.2,1.3,1.1,1.8c1.8,0.9,3.5,2.2,5.1,3.4c1.5,1.1,1.6,1.1,2.9-0.3
		c2.2-2.5,3.6-5.3,4.7-8.4c0.8-2.5,0.8-2.6-1.5-4.1c-0.7-0.5-1.5-0.9-2.3-1.3c-1.2-0.6-2.3-0.6-3.6-0.3
		C235.1,136.5,232.9,140.6,232.5,144.9z M248.7,140.4c-0.8,2.3-1.6,4.2-2.6,6.1c-1.1,2-2.4,3.7-3.9,5.3c-0.5,0.5-0.6,1,0,1.5
		c1.8,1.7,3.5,3.6,5,5.6c0.6,0.8,1.1,0.7,1.8,0.1c3.1-2.8,5.7-5.9,7.1-10c0.2-0.6,0.2-1.1-0.3-1.6
		C253.5,145.1,251.2,142.8,248.7,140.4z M254,168c0.6,0,1.1-0.4,1.6-0.7c3.6-2,5.8-5.4,8.4-8.3c0.5-0.6,0.2-1.1-0.2-1.6
		c-1.5-2-3-4-4.5-6c-0.9-1.2-1.6-1.1-2.3,0.2c-0.5,1.1-1.1,2.3-1.8,3.3c-1.5,2-3.2,3.8-5.1,5.5c-0.5,0.4-1.1,0.8-0.5,1.6
		c1.1,1.7,2.1,3.5,3.2,5.3C253.1,167.7,253.4,168,254,168z M224,318.1C224,318.1,224,318.1,224,318.1c0,0.6,0,1.2-0.1,1.8
		c0,0.6-0.1,1.2-0.1,1.8c-0.1,1.7,0.3,2.1,2,1.8c3.6-0.5,6.9-3.9,7.4-7.8c0.5-3.6-1.5-7-5.2-8.6c-0.6-0.3-1.1-0.3-1.6,0.3
		c-1.1,1.3-2.1,2.5-2.1,4.4C224.5,313.8,224.2,316,224,318.1z M237,134.3c-5.1-2.3-10.5,1.3-10.4,6.7c0.1,3,0.4,3.5,3.4,4.1
		c0.2,0,0.4,0,0.7-0.1C231.1,140.6,232.7,136.7,237,134.3z"/>
	<path d="M497.7,326.7c0.7-0.6,1.3-1.2,2-1.7c4.3-3.8,9.4-6,15.1-6.7c2.4-0.3,4.7,0.3,7,1c9.7,3,16.2,13,16.9,21.4
		c0.4,6.1-2.2,10.9-7.1,14.3c-4,2.8-8.6,4-13.4,4.9c-7.3,1.3-14.7,1.1-22.1,0.9c-2.7-0.1-5.4-0.3-8.2-0.5c-1.1-0.1-1.9,0.1-2.7,1.1
		c-5.9,7.8-12,15.3-18.3,22.7c-0.6,0.7-1.1,1.5-1.8,2.3c-0.4,0.4-0.8,0.7-1.3,0.2c-0.4-0.3-0.4-0.8-0.2-1.2c0.4-0.6,0.8-1.3,1.2-1.8
		c5-6.3,10.1-12.5,15.1-18.7c1.1-1.4,2.2-2.9,3.3-4.3c-0.1-0.5-0.4-0.6-0.7-0.6c-11-1-22-2.3-33-3.6c-9.7-1.1-19.3-2.3-29-3.3
		c-7.6-0.8-15.2-1.9-22.9-2.4c-1-0.1-2-0.3-2.8,0.7c-0.4,0.5-1.1,0.3-1.7,0.1c-2-0.4-4-0.5-5.9-0.9c-4.2-0.9-7-3.6-8.2-7.8
		c-0.7-2.6,0-5,1.9-6.9c1.8-1.9,4-3.2,6.4-4.3c5.9-2.6,12.2-4,18.6-4.1c3.8,0,7.5-0.1,11.3,0.4c0.4,0.1,0.8,0,1.5,0
		c-0.5-0.8-1.2-1.1-1.8-1.5c-3.9-2.7-7.4-5.9-9.9-10c-0.9-1.4-1.7-2.9-2.2-4.6c-1.3-4.3,0.3-7.8,4.4-9.6c2.1-1,4.4-1.3,6.7-1.4
		c5.1-0.2,10.1,0.8,15,2.2c6.4,1.8,12.3,5,18.2,7.9c0.9,0.5,1.8,0.9,2.9,1.4c0.2-0.9-0.3-1.3-0.6-1.8c-5.9-10.6-8.7-22-7.9-34.2
		c0.3-4.9,1.4-9.7,3.7-14c4.1-7.8,10.1-13.4,19.2-14.7c6.3-0.9,12.1,0.6,17.2,4.6c7.1,5.5,11.1,12.9,13.7,21.2
		c3.3,10.6,3.7,21.6,2.9,32.6c-0.4,6.6-1.3,13-2.8,19.4c-0.1,0.3-0.1,0.7-0.2,1.1C497.4,326.6,497.6,326.7,497.7,326.7z
		 M498.8,358.8c4.3,0,8.4,0.1,12.5-0.3c1.5-0.2,3.1-0.3,4.6-0.5c4.9-0.7,9.8-1.8,13.9-4.6c5.4-3.7,7.7-8.8,6.2-15.1
		c-1.5-6.2-4.8-11.2-10.1-14.8c-4.2-2.8-8.9-3.8-13.9-2.7c-5.6,1.3-10.1,4.3-13.9,8.6c-0.7,0.8-1.3,1.6-2.1,2.3
		c-0.4,0.4-0.9,0.4-1.4,0.2c-0.5-0.3-0.7-0.8-0.6-1.3c0.1-0.6,0.2-1.2,0.4-1.7c3.3-11.9,4.5-24,4-36.3c-0.4-10.5-2.5-20.6-8-29.8
		c-3.1-5.1-7.2-9.3-12.7-11.6c-6.1-2.7-12.3-2.3-18.2,1.1c-4.5,2.6-8,6.2-10.3,10.9c-3.9,7.8-4.4,16.1-3.3,24.6
		c1.2,8.6,4.1,16.6,8.7,23.9c0.4,0.6,0.8,1.3,1,2c0.4,1.2-0.4,2.1-1.7,1.8c-0.6-0.1-1.3-0.4-1.8-0.7c-5-2.4-9.9-4.9-15-7.1
		c-5.7-2.6-11.6-4.1-17.8-4.7c-3-0.3-5.9,0-8.7,1.1c-3.7,1.5-4.9,4.1-3.6,7.8c0.3,0.8,0.7,1.6,1.1,2.4c1.4,2.3,3,4.5,5,6.4
		c3,2.8,6.3,5.1,9.9,7c0.6,0.3,1.2,0.6,1.8,0.9c0.6,0.3,0.8,0.9,0.6,1.5c-0.2,0.7-0.7,0.9-1.3,0.9c-0.4,0-0.9-0.1-1.3-0.2
		c-7.5-1.1-14.9-1.6-22.5-0.6c-4.5,0.6-8.8,1.6-12.9,3.6c-1.9,0.9-3.6,2-5,3.5c-1.3,1.4-1.7,3.1-1.3,4.9c1,4.3,6.9,7.8,11.1,6.5
		c0.9-0.3,1.7-0.3,2.6-0.3c2.9,0.2,5.9,0.5,8.8,0.7c7.4,0.5,14.8,1.2,22.2,2.1c6.3,0.8,12.6,1.6,18.8,2.3c9.7,1.1,19.5,2.3,29.2,3.3
		C482.2,357.9,490.6,358.5,498.8,358.8z"/>
	<path d="M375.7,507.7c-0.6,0-0.8-0.4-0.7-1c0-0.7,0.5-1.2,0.9-1.7c2.6-3.8,5.1-7.6,7.6-11.4c4.1-6.4,8.4-12.7,12.5-19
		c5.7-8.7,11.4-17.5,17.2-26.3c0.6-1,1.3-1.9,2.1-2.9c0.3-0.4,0.8-0.7,1.3-0.3c0.5,0.4,0.5,0.9,0.2,1.4c-1.4,2.2-2.7,4.4-4.1,6.5
		c-4.2,6.5-8.6,12.9-12.8,19.4c-4.9,7.5-9.8,15-14.8,22.5c-2.6,4-5.4,7.9-8.1,11.9C376.6,507.2,376.4,507.7,375.7,507.7z"/>
	<path d="M406.1,245.9c-0.6-0.1-1-0.4-0.9-1c0.1-0.4,0.3-0.8,0.5-1.2c0.7-1.4,1.4-2.9,2.2-4.3c5.7-10.2,11.2-20.5,17.1-30.7
		c4.4-7.5,8.6-15.1,13-22.6c0.4-0.6,0.5-1.7,1.7-1.4c0.7,0.2,0.7,1,0,2.3c-1.9,3.6-3.8,7.2-5.8,10.6c-5.9,10.1-11.6,20.3-17.3,30.5
		c-2.8,5.1-5.6,10.2-8.4,15.3c-0.4,0.6-0.8,1.3-1.1,1.9C406.8,245.6,406.5,245.8,406.1,245.9z"/>
	<path d="M460.4,531.8c0,1.1-0.5,1.6-0.8,2.1c-1.7,2.5-3.3,5.1-5,7.6c-4.4,6.5-8.9,13-13.3,19.5c-1.5,2.2-3,4.4-4.5,6.6
		c-0.3,0.4-0.6,0.9-0.9,1.2c-0.3,0.3-0.8,0.5-1.2,0.1c-0.4-0.3-0.4-0.8-0.2-1.2c0.2-0.3,0.4-0.6,0.6-0.9c1.7-2.5,3.3-5,5-7.6
		c5.7-8.4,11.3-16.9,17-25.3c0.6-0.9,1.1-1.8,1.9-2.4c0.3-0.2,0.6-0.4,1-0.1C460.2,531.6,460.4,531.8,460.4,531.8z"/>
	<path d="M345.3,518.8c0,0.4-0.1,0.8-0.3,1.1c-0.3,0.5-0.7,1-1,1.4c-4.3,5.5-8.6,11-12.7,16.7c-3.4,4.7-7.3,9-10.6,13.9
		c-0.4,0.6-0.9,1.6-1.9,1c-0.9-0.7-0.2-1.5,0.2-2.1c0.5-0.8,1.1-1.6,1.7-2.3c4.4-5.7,8.7-11.5,13.1-17.2c2.7-3.6,5.4-7.1,8.2-10.7
		c0.6-0.8,1.2-1.5,1.8-2.2c0.3-0.3,0.6-0.5,1-0.3C345.2,518.1,345.3,518.5,345.3,518.8z"/>
	<path d="M502.1,681.8c-0.1,0.3-0.3,0.7-0.5,1.1c-0.7,1.1-1.4,2.3-2.1,3.4c-5.5,8.1-11,16.2-16.3,24.4c-0.9,1.4-1.9,2.8-2.9,4.1
		c-0.4,0.5-0.9,1.1-1.6,0.6c-0.8-0.5-0.3-1.2,0.1-1.7c3.8-5.1,6.8-10.7,10.4-15.9c3.3-4.7,6.4-9.5,9.6-14.3c0.6-0.9,1.2-1.7,1.9-2.5
		c0.2-0.3,0.6-0.4,1-0.3C501.9,681,502.1,681.3,502.1,681.8z"/>
	<path d="M130.1,625.2c-0.7-0.1-0.9-0.6-0.8-1.1c0.2-0.6,0.5-1.2,0.8-1.8c4-8.3,8.5-16.3,12.8-24.4c0.6-1.2,1.2-2.5,1.9-3.7
		c0.2-0.5,0.5-0.9,0.8-1.3c0.3-0.5,0.8-0.9,1.5-0.5c0.6,0.3,0.5,0.9,0.3,1.4c-0.2,0.4-0.4,0.8-0.5,1.2c-2,4.4-4.3,8.5-6.6,12.7
		c-3,5.3-5.7,10.8-8.6,16.2C131.2,624.3,131,625.1,130.1,625.2z"/>
	<path d="M90.1,184.5c0,0.8-0.5,1.5-0.9,2.2c-2.7,4.6-5.3,9.2-8,13.7c-2.2,3.8-4.5,7.6-6.8,11.4c-0.2,0.4-0.5,0.8-0.7,1.1
		c-0.4,0.6-0.8,1.2-1.6,0.7c-0.7-0.5-0.3-1.2,0-1.8c1-1.8,2-3.6,3.1-5.4c4.2-7.2,8.4-14.5,12.6-21.7c0.2-0.4,0.5-0.7,0.8-1
		c0.3-0.3,0.6-0.4,1-0.2C90,183.7,90.1,184.1,90.1,184.5z"/>
	<path d="M131.3,511.7c0,0.6-0.4,1.1-0.7,1.6c-1.4,2.2-2.9,4.5-4.3,6.7c-4.3,6.4-8.7,12.8-13,19.2c-0.1,0.2-0.2,0.4-0.4,0.5
		c-0.3,0.3-0.7,0.5-1.2,0.3c-0.5-0.3-0.5-0.7-0.4-1.1c0.3-0.7,0.6-1.3,1-1.9c2.4-3.7,4.9-7.3,7.3-11c2.9-4.4,5.9-8.8,8.8-13.2
		c0.4-0.6,0.9-1.2,1.4-1.7c0.3-0.3,0.7-0.3,1,0C131.2,511,131.4,511.3,131.3,511.7z"/>
	<path d="M241.7,710.5c-0.6-0.1-0.9-0.5-0.7-1.1c0.1-0.4,0.4-0.8,0.6-1.2c4.5-7.4,9-14.8,13.5-22.2c0.8-1.3,1.6-2.7,2.4-4
		c0.3-0.4,0.6-0.8,1-1.2c0.2-0.2,0.5-0.2,0.8-0.1c0.4,0.2,0.6,0.5,0.5,0.9c-0.2,0.6-0.4,1.1-0.7,1.6c-4.2,7.2-8.5,14.3-13,21.3
		c-1.1,1.7-2.1,3.4-3.2,5C242.7,710,242.4,710.5,241.7,710.5z"/>
	<path d="M70.1,469.7c-0.5-0.1-0.9-0.5-0.7-1c0.1-0.5,0.4-0.9,0.7-1.4c1.6-2.4,3.1-4.8,4.8-7.2c3.8-5.5,7.7-11,11.6-16.4
		c0.4-0.6,0.9-1.2,1.3-1.8c0.4-0.5,1-1.1,1.7-0.5c0.7,0.5,0.3,1.2-0.1,1.8c-0.2,0.3-0.4,0.6-0.6,0.9c-2.6,3.7-5.3,7.4-7.9,11.2
		c-3.1,4.3-6.1,8.7-9.1,13C71.3,469,71,469.7,70.1,469.7z"/>
	<path d="M173.2,273.2c-0.6,0-0.9-0.4-0.9-1c0.1-0.6,0.5-1,0.9-1.5c3.5-4.9,7.1-9.8,10.6-14.7c2-2.8,3.8-5.6,5.8-8.3
		c0.5-0.7,1-2,2.2-1.1c1,0.8,0,1.6-0.5,2.3c-5.3,7.9-10.9,15.6-16.7,23.1C174.3,272.4,174,273.1,173.2,273.2z"/>
	<path d="M457.7,642.5c-0.1,0.8-0.7,1.3-1.2,2c-4.5,5.4-9,10.9-13.5,16.3c-0.8,1-1.6,2.1-2.5,3.1c-0.4,0.5-0.9,1.2-1.6,0.7
		c-0.7-0.5-0.3-1.2,0.1-1.7c0.3-0.4,0.5-0.9,0.9-1.3c5-6.2,10-12.3,15.1-18.4c0.4-0.5,0.9-1,1.4-1.4
		C456.9,641.3,457.7,641.7,457.7,642.5z"/>
	<path d="M465.8,474.9c-0.9,0-1.3-0.6-1.1-1.3c0.2-0.7,0.8-1,1.3-1.4c3.3-2.8,6.7-5.6,9.9-8.5c2.7-2.4,5.4-4.8,8.1-7.2
		c1.4-1.2,2.3-1.4,2.6-0.7c0.5,1.2-0.6,1.7-1.3,2.3c-5.5,4.9-11,9.8-16.7,14.5c-0.6,0.5-1.2,1.1-1.8,1.6
		C466.4,474.5,466,474.8,465.8,474.9z"/>
	<path d="M361.7,409.5c-0.6-0.2-0.9-0.6-0.6-1.1c0.4-0.8,0.8-1.6,1.3-2.3c4.2-6,8.5-12,12.7-18c0.3-0.5,0.7-0.9,1.2-1.3
		c0.3-0.3,0.7-0.3,1-0.1c0.3,0.2,0.5,0.6,0.4,1c-0.2,0.8-0.7,1.4-1.2,2.1c-3.7,5.1-7.4,10.3-11.1,15.4c-0.9,1.2-1.6,2.4-2.5,3.7
		C362.6,409.2,362.3,409.6,361.7,409.5z"/>
	<path d="M400.6,590.1c-0.1,0.7-0.7,1.2-1.1,1.7c-3.6,4.1-7.3,8.1-10.9,12.2c-1.2,1.4-2.4,2.8-3.5,4.3c-0.3,0.4-0.7,0.8-1.1,1.1
		c-0.3,0.3-0.7,0.2-1-0.1c-0.3-0.3-0.4-0.6-0.2-1c0.5-0.9,1.1-1.8,1.7-2.6c1.2-1.4,2.4-2.8,3.6-4.2c3.2-3.6,6.4-7.3,9.7-10.9
		c0.5-0.5,0.9-1.1,1.6-1.5C400,589,400.6,589.4,400.6,590.1z"/>
	<path d="M192,306.3c-0.7-0.1-0.9-0.5-0.8-1c0.1-0.5,0.5-0.9,0.8-1.3c3.6-4.5,7.2-8.9,10.8-13.4c0.4-0.5,0.8-0.9,1.2-1.3
		c0.3-0.3,0.7-0.3,1-0.1c0.4,0.3,0.6,0.7,0.3,1.1c-0.2,0.4-0.4,0.8-0.7,1.1c-3.8,4.6-7.5,9.2-11.3,13.8
		C192.9,305.8,192.5,306.3,192,306.3z"/>
	<path d="M234.3,162.2c0,0.6-0.1,1.5-0.6,2.2c-0.4,0.5-0.8,0.8-1.5,0.6c-0.6-0.2-1-0.7-1-1.3c-0.1-1.1,0.2-2.2,0.7-3.1
		c0.3-0.5,0.8-0.9,1.5-0.7c0.6,0.2,0.9,0.7,0.9,1.3C234.3,161.5,234.3,161.7,234.3,162.2z"/>
</g>
</svg>
