<?xml version="1.0" encoding="UTF-8" standalone="no"?>
<svg
   width="600pt"
   height="600pt"
   viewBox="0 0 600 600"
   version="1.1"
   id="svg41"
   xmlns="http://www.w3.org/2000/svg"
   xmlns:svg="http://www.w3.org/2000/svg">
  <defs
     id="defs41" />
  <path
     fill-rule="nonzero"
     fill="rgb(20.391846%, 18.03894%, 16.862488%)"
     fill-opacity="1"
     d="M 0 599.460938 L 599.457031 599.460938 L 599.457031 0 L 0 0 Z M 0 599.460938 "
     id="path1" />
  <path
     fill-rule="evenodd"
     fill="rgb(60.00061%, 54.510498%, 52.549744%)"
     fill-opacity="1"
     d="M 334.707031 505.5625 C 440.820312 505.5625 527.371094 419.011719 527.371094 312.898438 C 527.371094 206.78125 440.820312 120.234375 334.707031 120.234375 C 228.589844 120.234375 142.039062 206.78125 142.039062 312.898438 C 142.039062 419.011719 228.589844 505.5625 334.707031 505.5625 "
     id="path2" />
  <path
     fill-rule="evenodd"
     fill="rgb(20.391846%, 18.03894%, 16.862488%)"
     fill-opacity="1"
     d="M 185.011719 322.601562 L 200.601562 322.601562 C 196.871094 322.578125 193.589844 321.144531 191.097656 318.035156 C 188.707031 315.046875 187.890625 311.488281 188.726562 307.757812 L 196.886719 271.523438 C 198.4375 264.640625 204.378906 259.878906 211.4375 259.878906 L 247.328125 259.878906 C 243.597656 259.859375 240.316406 258.425781 237.824219 255.3125 C 235.433594 252.328125 234.617188 248.769531 235.457031 245.039062 L 243.613281 208.804688 C 245.164062 201.917969 251.109375 197.164062 258.167969 197.164062 L 411.246094 197.164062 C 418.300781 197.164062 424.246094 201.917969 425.796875 208.804688 L 433.957031 245.039062 C 434.796875 248.769531 433.976562 252.328125 431.585938 255.3125 C 429.199219 258.300781 425.90625 259.878906 422.082031 259.878906 L 457.972656 259.878906 C 465.03125 259.878906 470.972656 264.640625 472.527344 271.523438 L 480.683594 307.757812 C 481.523438 311.488281 480.703125 315.046875 478.316406 318.035156 C 475.925781 321.019531 472.636719 322.601562 468.8125 322.601562 L 504.339844 322.601562 C 511.394531 322.601562 517.339844 327.359375 518.890625 334.242188 L 527.050781 370.476562 C 527.890625 374.207031 527.070312 377.765625 524.683594 380.753906 C 522.292969 383.738281 519 385.320312 515.179688 385.320312 L 154.058594 385.320312 L 153.875 385.316406 L 153.347656 385.292969 L 153.175781 385.277344 L 153.171875 385.277344 L 152.828125 385.246094 L 152.824219 385.246094 L 152.65625 385.226562 C 149.503906 384.84375 146.785156 383.320312 144.730469 380.753906 C 142.339844 377.765625 141.519531 374.207031 142.359375 370.476562 L 150.519531 334.242188 C 152.070312 327.355469 158.015625 322.601562 165.074219 322.601562 Z M 185.011719 322.601562 "
     id="path3" />
  <path
     fill-rule="evenodd"
     fill="rgb(20.391846%, 18.03894%, 16.862488%)"
     fill-opacity="1"
     d="M 50.269531 538.273438 L 583.761719 538.273438 L 583.761719 390.359375 L 50.269531 390.359375 Z M 50.269531 538.273438 "
     id="path4" />
  <path
     fill-rule="evenodd"
     fill="rgb(30.587769%, 27.058411%, 25.881958%)"
     fill-opacity="1"
     d="M 299.046875 401.628906 C 440.332031 401.628906 555.566406 396.246094 555.566406 389.648438 C 555.566406 383.050781 440.332031 377.667969 299.046875 377.667969 C 157.765625 377.667969 42.53125 383.050781 42.53125 389.648438 C 42.53125 396.246094 157.765625 401.628906 299.046875 401.628906 "
     id="path5" />
  <path
     fill-rule="evenodd"
     fill="rgb(88.235474%, 58.432007%, 14.509583%)"
     fill-opacity="1"
     d="M 134.707031 332.910156 L 256.664062 332.910156 C 263.128906 332.910156 268.574219 337.261719 269.996094 343.570312 L 277.46875 376.761719 C 278.238281 380.179688 277.488281 383.4375 275.300781 386.175781 C 273.109375 388.910156 270.097656 390.359375 266.59375 390.359375 L 124.777344 390.359375 C 121.277344 390.359375 118.261719 388.910156 116.074219 386.175781 C 113.886719 383.4375 113.132812 380.179688 113.902344 376.761719 L 121.375 343.570312 C 122.796875 337.261719 128.242188 332.910156 134.707031 332.910156 "
     id="path6" />
  <path
     fill-rule="evenodd"
     fill="rgb(99.607849%, 94.117737%, 50.588989%)"
     fill-opacity="1"
     d="M 119.132812 332.910156 L 153.203125 332.910156 C 159.667969 332.910156 164.910156 337.261719 166.035156 343.570312 L 171.957031 376.761719 C 172.5625 380.179688 171.660156 383.4375 169.34375 386.175781 C 167.027344 388.910156 163.945312 390.359375 160.441406 390.359375 L 106.515625 390.359375 C 103.011719 390.359375 100.066406 388.910156 98.007812 386.175781 C 95.945312 383.4375 95.347656 380.179688 96.277344 376.761719 L 105.300781 343.570312 C 107.019531 337.261719 112.667969 332.910156 119.132812 332.910156 "
     id="path7" />
  <path
     fill-rule="evenodd"
     fill="rgb(95.68634%, 64.706421%, 11.372375%)"
     fill-opacity="1"
     d="M 174.789062 332.910156 L 256.664062 332.910156 C 263.128906 332.910156 268.574219 337.261719 269.996094 343.570312 L 274.558594 363.835938 C 264.554688 365.296875 253.15625 365.40625 241.058594 363.890625 C 211.21875 360.144531 185.628906 347.582031 174.789062 332.910156 "
     id="path8" />
  <path
     fill-rule="evenodd"
     fill="rgb(100%, 78.431702%, 12.940979%)"
     fill-opacity="1"
     d="M 116.445312 332.910156 L 150.515625 332.910156 C 156.980469 332.910156 162.425781 337.261719 163.84375 343.570312 L 171.320312 376.761719 C 172.089844 380.179688 171.335938 383.4375 169.148438 386.175781 C 166.960938 388.910156 163.945312 390.359375 160.441406 390.359375 L 106.515625 390.359375 C 103.011719 390.359375 99.996094 388.910156 97.808594 386.175781 C 95.621094 383.4375 94.871094 380.179688 95.640625 376.761719 L 103.113281 343.570312 C 104.535156 337.261719 109.980469 332.910156 116.445312 332.910156 "
     id="path9" />
  <path
     fill-rule="evenodd"
     fill="rgb(99.607849%, 86.66687%, 18.823242%)"
     fill-opacity="1"
     d="M 116.445312 332.910156 L 148.933594 332.910156 C 146.128906 356.40625 125.585938 376.207031 97.097656 385.191406 C 95.46875 382.671875 94.960938 379.777344 95.640625 376.761719 L 103.113281 343.570312 C 104.535156 337.261719 109.980469 332.910156 116.445312 332.910156 "
     id="path10" />
  <path
     fill-rule="evenodd"
     fill="rgb(88.235474%, 58.432007%, 14.509583%)"
     fill-opacity="1"
     d="M 219.652344 332.910156 L 341.609375 332.910156 C 348.074219 332.910156 353.519531 337.261719 354.941406 343.570312 L 362.414062 376.761719 C 363.183594 380.179688 362.433594 383.4375 360.242188 386.175781 C 358.054688 388.910156 355.042969 390.359375 351.539062 390.359375 L 209.722656 390.359375 C 206.21875 390.359375 203.207031 388.910156 201.019531 386.175781 C 198.832031 383.4375 198.078125 380.179688 198.847656 376.761719 L 206.320312 343.570312 C 207.742188 337.261719 213.1875 332.910156 219.652344 332.910156 "
     id="path11" />
  <path
     fill-rule="evenodd"
     fill="rgb(99.607849%, 94.117737%, 50.588989%)"
     fill-opacity="1"
     d="M 204.078125 332.910156 L 238.144531 332.910156 C 244.609375 332.910156 249.851562 337.261719 250.980469 343.570312 L 256.898438 376.761719 C 257.507812 380.179688 256.605469 383.4375 254.289062 386.175781 C 251.972656 388.910156 248.890625 390.359375 245.386719 390.359375 L 191.460938 390.359375 C 187.957031 390.359375 185.011719 388.910156 182.949219 386.175781 C 180.890625 383.4375 180.292969 380.179688 181.21875 376.761719 L 190.246094 343.570312 C 191.964844 337.261719 197.613281 332.910156 204.078125 332.910156 "
     id="path12" />
  <path
     fill-rule="evenodd"
     fill="rgb(95.68634%, 64.706421%, 11.372375%)"
     fill-opacity="1"
     d="M 259.734375 332.910156 L 341.609375 332.910156 C 348.074219 332.910156 353.519531 337.261719 354.941406 343.570312 L 359.503906 363.835938 C 349.5 365.296875 338.101562 365.40625 326.003906 363.890625 C 296.160156 360.144531 270.574219 347.582031 259.734375 332.910156 "
     id="path13" />
  <path
     fill-rule="evenodd"
     fill="rgb(100%, 78.431702%, 12.940979%)"
     fill-opacity="1"
     d="M 201.390625 332.910156 L 235.457031 332.910156 C 241.921875 332.910156 247.371094 337.261719 248.789062 343.570312 L 256.261719 376.761719 C 257.035156 380.179688 256.28125 383.4375 254.09375 386.175781 C 251.90625 388.910156 248.890625 390.359375 245.386719 390.359375 L 191.460938 390.359375 C 187.957031 390.359375 184.941406 388.910156 182.753906 386.175781 C 180.566406 383.4375 179.816406 380.179688 180.585938 376.761719 L 188.058594 343.570312 C 189.480469 337.261719 194.925781 332.910156 201.390625 332.910156 "
     id="path14" />
  <path
     fill-rule="evenodd"
     fill="rgb(99.607849%, 86.66687%, 18.823242%)"
     fill-opacity="1"
     d="M 201.390625 332.910156 L 233.878906 332.910156 C 231.074219 356.40625 210.53125 376.207031 182.042969 385.191406 C 180.410156 382.671875 179.90625 379.777344 180.585938 376.761719 L 188.058594 343.570312 C 189.480469 337.261719 194.925781 332.910156 201.390625 332.910156 "
     id="path15" />
  <path
     fill-rule="evenodd"
     fill="rgb(95.68634%, 64.706421%, 11.372375%)"
     fill-opacity="1"
     d="M 305.257812 332.910156 L 427.214844 332.910156 C 433.679688 332.910156 439.125 337.261719 440.546875 343.570312 L 448.019531 376.761719 C 448.789062 380.179688 448.039062 383.4375 445.851562 386.175781 C 443.664062 388.910156 440.648438 390.359375 437.144531 390.359375 L 295.328125 390.359375 C 291.828125 390.359375 288.8125 388.910156 286.621094 386.175781 C 284.433594 383.4375 283.683594 380.179688 284.453125 376.761719 L 291.929688 343.570312 C 293.347656 337.261719 298.792969 332.910156 305.257812 332.910156 "
     id="path16" />
  <path
     fill-rule="evenodd"
     fill="rgb(99.607849%, 94.117737%, 50.588989%)"
     fill-opacity="1"
     d="M 289.679688 332.910156 L 323.75 332.910156 C 330.214844 332.910156 335.460938 337.261719 336.582031 343.570312 L 342.503906 376.761719 C 343.117188 380.179688 342.210938 383.4375 339.894531 386.175781 C 337.578125 388.910156 334.496094 390.359375 330.992188 390.359375 L 277.066406 390.359375 C 273.566406 390.359375 270.617188 388.910156 268.554688 386.175781 C 266.496094 383.4375 265.898438 380.179688 266.828125 376.761719 L 275.855469 343.570312 C 277.570312 337.261719 283.21875 332.910156 289.679688 332.910156 "
     id="path17" />
  <path
     fill-rule="evenodd"
     fill="rgb(99.215698%, 73.33374%, 7.058716%)"
     fill-opacity="1"
     d="M 345.339844 332.910156 L 427.214844 332.910156 C 433.679688 332.910156 439.125 337.261719 440.546875 343.570312 L 445.109375 363.835938 C 435.109375 365.296875 423.707031 365.40625 411.609375 363.890625 C 381.769531 360.144531 356.179688 347.582031 345.339844 332.910156 "
     id="path18" />
  <path
     fill-rule="evenodd"
     fill="rgb(100%, 78.431702%, 12.940979%)"
     fill-opacity="1"
     d="M 286.996094 332.910156 L 321.0625 332.910156 C 327.527344 332.910156 332.972656 337.261719 334.394531 343.570312 L 341.867188 376.761719 C 342.636719 380.179688 341.886719 383.4375 339.699219 386.175781 C 337.511719 388.910156 334.496094 390.359375 330.992188 390.359375 L 277.066406 390.359375 C 273.5625 390.359375 270.546875 388.910156 268.359375 386.175781 C 266.171875 383.4375 265.421875 380.179688 266.191406 376.761719 L 273.664062 343.570312 C 275.082031 337.261719 280.527344 332.910156 286.996094 332.910156 "
     id="path19" />
  <path
     fill-rule="evenodd"
     fill="rgb(99.607849%, 86.66687%, 18.823242%)"
     fill-opacity="1"
     d="M 286.996094 332.910156 L 319.484375 332.910156 C 316.679688 356.40625 296.140625 376.207031 267.652344 385.191406 C 266.015625 382.671875 265.511719 379.777344 266.191406 376.761719 L 273.664062 343.570312 C 275.082031 337.261719 280.527344 332.910156 286.996094 332.910156 "
     id="path20" />
  <path
     fill-rule="evenodd"
     fill="rgb(88.235474%, 58.432007%, 14.509583%)"
     fill-opacity="1"
     d="M 177.179688 275.457031 L 299.136719 275.457031 C 305.601562 275.457031 311.046875 279.8125 312.46875 286.117188 L 319.941406 319.3125 C 320.710938 322.730469 319.960938 325.988281 317.773438 328.722656 C 315.585938 331.457031 312.570312 332.910156 309.066406 332.910156 L 167.25 332.910156 C 163.75 332.910156 160.734375 331.457031 158.542969 328.722656 C 156.355469 325.988281 155.605469 322.730469 156.375 319.3125 L 163.851562 286.117188 C 165.269531 279.8125 170.714844 275.457031 177.179688 275.457031 "
     id="path21" />
  <path
     fill-rule="evenodd"
     fill="rgb(99.607849%, 94.117737%, 50.588989%)"
     fill-opacity="1"
     d="M 161.605469 275.457031 L 195.675781 275.457031 C 202.136719 275.457031 207.382812 279.8125 208.503906 286.117188 L 214.425781 319.3125 C 215.035156 322.730469 214.132812 325.988281 211.816406 328.722656 C 209.5 331.457031 206.417969 332.910156 202.914062 332.910156 L 148.988281 332.910156 C 145.484375 332.910156 142.539062 331.457031 140.476562 328.722656 C 138.417969 325.988281 137.820312 322.730469 138.75 319.3125 L 147.777344 286.117188 C 149.492188 279.8125 155.140625 275.457031 161.605469 275.457031 "
     id="path22" />
  <path
     fill-rule="evenodd"
     fill="rgb(95.68634%, 64.706421%, 11.372375%)"
     fill-opacity="1"
     d="M 217.257812 275.457031 L 299.136719 275.457031 C 305.601562 275.457031 311.046875 279.8125 312.46875 286.117188 L 317.03125 306.386719 C 307.03125 307.847656 295.628906 307.953125 283.53125 306.4375 C 253.691406 302.691406 228.101562 290.128906 217.257812 275.457031 "
     id="path23" />
  <path
     fill-rule="evenodd"
     fill="rgb(100%, 78.431702%, 12.940979%)"
     fill-opacity="1"
     d="M 158.917969 275.457031 L 192.984375 275.457031 C 199.449219 275.457031 204.898438 279.8125 206.316406 286.117188 L 213.789062 319.3125 C 214.558594 322.730469 213.808594 325.988281 211.621094 328.722656 C 209.433594 331.457031 206.417969 332.910156 202.914062 332.910156 L 148.988281 332.910156 C 145.484375 332.910156 142.472656 331.457031 140.28125 328.722656 C 138.09375 325.988281 137.34375 322.730469 138.113281 319.3125 L 145.585938 286.117188 C 147.007812 279.8125 152.449219 275.457031 158.917969 275.457031 "
     id="path24" />
  <path
     fill-rule="evenodd"
     fill="rgb(99.607849%, 86.66687%, 18.823242%)"
     fill-opacity="1"
     d="M 158.917969 275.457031 L 191.40625 275.457031 C 188.601562 298.953125 168.058594 318.757812 139.570312 327.738281 C 137.9375 325.222656 137.433594 322.328125 138.113281 319.3125 L 145.585938 286.117188 C 147.007812 279.8125 152.449219 275.457031 158.917969 275.457031 "
     id="path25" />
  <path
     fill-rule="evenodd"
     fill="rgb(95.68634%, 64.706421%, 11.372375%)"
     fill-opacity="1"
     d="M 262.785156 275.457031 L 384.746094 275.457031 C 391.207031 275.457031 396.652344 279.8125 398.074219 286.117188 L 405.546875 319.3125 C 406.316406 322.730469 405.566406 325.988281 403.378906 328.722656 C 401.1875 331.457031 398.175781 332.910156 394.671875 332.910156 L 252.855469 332.910156 C 249.355469 332.910156 246.339844 331.457031 244.152344 328.722656 C 241.964844 325.988281 241.210938 322.730469 241.980469 319.3125 L 249.453125 286.117188 C 250.875 279.8125 256.320312 275.457031 262.785156 275.457031 "
     id="path26" />
  <path
     fill-rule="evenodd"
     fill="rgb(99.607849%, 94.117737%, 50.588989%)"
     fill-opacity="1"
     d="M 247.210938 275.457031 L 281.277344 275.457031 C 287.746094 275.457031 292.984375 279.8125 294.113281 286.117188 L 300.03125 319.3125 C 300.640625 322.730469 299.738281 325.988281 297.421875 328.722656 C 295.105469 331.457031 292.023438 332.910156 288.519531 332.910156 L 234.59375 332.910156 C 231.089844 332.910156 228.144531 331.457031 226.082031 328.722656 C 224.023438 325.988281 223.425781 322.730469 224.355469 319.3125 L 233.382812 286.117188 C 235.097656 279.8125 240.746094 275.457031 247.210938 275.457031 "
     id="path27" />
  <path
     fill-rule="evenodd"
     fill="rgb(99.215698%, 73.33374%, 7.058716%)"
     fill-opacity="1"
     d="M 302.863281 275.457031 L 384.746094 275.457031 C 391.207031 275.457031 396.652344 279.8125 398.074219 286.117188 L 402.636719 306.386719 C 392.632812 307.847656 381.234375 307.953125 369.136719 306.4375 C 339.296875 302.691406 313.710938 290.128906 302.863281 275.457031 "
     id="path28" />
  <path
     fill-rule="evenodd"
     fill="rgb(100%, 78.431702%, 12.940979%)"
     fill-opacity="1"
     d="M 244.523438 275.457031 L 278.59375 275.457031 C 285.054688 275.457031 290.503906 279.8125 291.921875 286.117188 L 299.398438 319.3125 C 300.167969 322.730469 299.414062 325.988281 297.226562 328.722656 C 295.039062 331.457031 292.023438 332.910156 288.519531 332.910156 L 234.59375 332.910156 C 231.089844 332.910156 228.078125 331.457031 225.886719 328.722656 C 223.703125 325.988281 222.949219 322.730469 223.71875 319.3125 L 231.191406 286.117188 C 232.613281 279.8125 238.058594 275.457031 244.523438 275.457031 "
     id="path29" />
  <path
     fill-rule="evenodd"
     fill="rgb(99.607849%, 86.66687%, 18.823242%)"
     fill-opacity="1"
     d="M 244.523438 275.457031 L 277.011719 275.457031 C 274.210938 298.953125 253.664062 318.757812 225.175781 327.738281 C 223.546875 325.222656 223.039062 322.328125 223.71875 319.3125 L 231.191406 286.117188 C 232.613281 279.8125 238.058594 275.457031 244.523438 275.457031 "
     id="path30" />
  <path
     fill-rule="evenodd"
     fill="rgb(95.68634%, 64.706421%, 11.372375%)"
     fill-opacity="1"
     d="M 219.984375 218.007812 L 341.941406 218.007812 C 348.40625 218.007812 353.851562 222.363281 355.269531 228.667969 L 362.746094 261.859375 C 363.511719 265.277344 362.761719 268.535156 360.574219 271.273438 C 358.386719 274.007812 355.371094 275.457031 351.871094 275.457031 L 210.050781 275.457031 C 206.550781 275.457031 203.535156 274.007812 201.347656 271.273438 C 199.160156 268.535156 198.410156 265.277344 199.175781 261.859375 L 206.652344 228.667969 C 208.070312 222.363281 213.519531 218.007812 219.984375 218.007812 "
     id="path31" />
  <path
     fill-rule="evenodd"
     fill="rgb(99.607849%, 94.117737%, 50.588989%)"
     fill-opacity="1"
     d="M 204.410156 218.007812 L 238.476562 218.007812 C 244.941406 218.007812 250.183594 222.363281 251.308594 228.667969 L 257.230469 261.859375 C 257.839844 265.277344 256.9375 268.535156 254.617188 271.273438 C 252.304688 274.007812 249.21875 275.457031 245.71875 275.457031 L 191.789062 275.457031 C 188.289062 275.457031 185.339844 274.007812 183.28125 271.273438 C 181.21875 268.535156 180.621094 265.277344 181.550781 261.859375 L 190.578125 228.667969 C 192.292969 222.363281 197.941406 218.007812 204.410156 218.007812 "
     id="path32" />
  <path
     fill-rule="evenodd"
     fill="rgb(99.215698%, 73.33374%, 7.058716%)"
     fill-opacity="1"
     d="M 260.0625 218.007812 L 341.941406 218.007812 C 348.40625 218.007812 353.851562 222.363281 355.269531 228.667969 L 359.835938 248.933594 C 349.832031 250.394531 338.433594 250.503906 326.332031 248.984375 C 296.492188 245.242188 270.90625 232.679688 260.0625 218.007812 "
     id="path33" />
  <path
     fill-rule="evenodd"
     fill="rgb(100%, 78.431702%, 12.940979%)"
     fill-opacity="1"
     d="M 201.71875 218.007812 L 235.789062 218.007812 C 242.253906 218.007812 247.699219 222.363281 249.117188 228.667969 L 256.59375 261.859375 C 257.363281 265.277344 256.613281 268.535156 254.421875 271.273438 C 252.234375 274.007812 249.21875 275.457031 245.71875 275.457031 L 191.789062 275.457031 C 188.289062 275.457031 185.273438 274.007812 183.082031 271.273438 C 180.898438 268.535156 180.148438 265.277344 180.914062 261.859375 L 188.390625 228.667969 C 189.808594 222.363281 195.253906 218.007812 201.71875 218.007812 "
     id="path34" />
  <path
     fill-rule="evenodd"
     fill="rgb(99.607849%, 86.66687%, 18.823242%)"
     fill-opacity="1"
     d="M 201.71875 218.007812 L 234.210938 218.007812 C 231.40625 241.503906 210.863281 261.304688 182.375 270.289062 C 180.742188 267.769531 180.238281 264.875 180.914062 261.859375 L 188.390625 228.667969 C 189.808594 222.363281 195.253906 218.007812 201.71875 218.007812 "
     id="path35" />
  <path
     fill-rule="evenodd"
     fill="rgb(99.607849%, 94.117737%, 50.588989%)"
     fill-opacity="1"
     d="M 230.699219 231.207031 L 231.824219 244.597656 L 245.214844 245.726562 L 231.824219 246.851562 L 230.699219 260.242188 L 229.570312 246.851562 L 216.179688 245.726562 L 229.570312 244.597656 Z M 230.699219 231.207031 "
     id="path36" />
  <path
     fill-rule="evenodd"
     fill="rgb(99.607849%, 94.117737%, 50.588989%)"
     fill-opacity="1"
     d="M 317.015625 262.445312 L 318.636719 281.691406 L 337.882812 283.3125 L 318.636719 284.933594 L 317.015625 304.183594 L 315.394531 284.933594 L 296.144531 283.3125 L 315.394531 281.691406 Z M 317.015625 262.445312 "
     id="path37" />
  <path
     fill-rule="evenodd"
     fill="rgb(99.607849%, 94.117737%, 50.588989%)"
     fill-opacity="1"
     d="M 232.5 350.671875 L 233.730469 365.300781 L 248.359375 366.53125 L 233.730469 367.765625 L 232.5 382.394531 L 231.265625 367.765625 L 216.636719 366.53125 L 231.265625 365.300781 Z M 232.5 350.671875 "
     id="path38" />
  <path
     fill-rule="evenodd"
     fill="rgb(99.607849%, 94.117737%, 50.588989%)"
     fill-opacity="1"
     d="M 134.898438 275.613281 L 136.027344 289 L 149.417969 290.128906 L 136.027344 291.257812 L 134.898438 304.648438 L 133.773438 291.257812 L 120.382812 290.128906 L 133.773438 289 Z M 134.898438 275.613281 "
     id="path39" />
  <path
     fill-rule="evenodd"
     fill="rgb(99.607849%, 94.117737%, 50.588989%)"
     fill-opacity="1"
     d="M 109.992188 304.183594 L 111.613281 323.429688 L 130.859375 325.050781 L 111.613281 326.675781 L 109.992188 345.921875 L 108.371094 326.675781 L 89.125 325.050781 L 108.371094 323.429688 Z M 109.992188 304.183594 "
     id="path40" />
  <path
     fill-rule="evenodd"
     fill="rgb(99.607849%, 94.117737%, 50.588989%)"
     fill-opacity="1"
     d="M 377.566406 335.929688 L 379.1875 355.175781 L 398.433594 356.796875 L 379.1875 358.417969 L 377.566406 377.667969 L 375.945312 358.417969 L 356.695312 356.796875 L 375.945312 355.175781 Z M 377.566406 335.929688 "
     id="path41" />
</svg>
