<?xml version="1.0" encoding="UTF-8"?>
<svg id="Art" xmlns="http://www.w3.org/2000/svg" version="1.1" xmlns:xlink="http://www.w3.org/1999/xlink" viewBox="0 0 2603.8873995 3700">
  <!-- Generator: Adobe Illustrator 30.0.0, SVG Export Plug-In . SVG Version: 2.1.1 Build 123)  -->
  <defs>
    <linearGradient id="linear-gradient" x1="1321.8612068" y1="-1328.7353914" x2="1305.5459363" y2="1275.100894" gradientUnits="userSpaceOnUse">
      <stop offset=".3915534" stop-color="#a66cff"/>
      <stop offset=".422538" stop-color="#9963eb"/>
      <stop offset=".6228493" stop-color="#472e6e"/>
      <stop offset=".760001" stop-color="#140d1e"/>
      <stop offset=".822524" stop-color="#000"/>
    </linearGradient>
    <clipPath id="clippath">
      <rect width="2603.8873995" height="3700" fill="none"/>
    </clipPath>
    <linearGradient id="linear-gradient1" x1="421.2510649" y1="3052.7139124" x2="1637.1171797" y2="3735.7973662" gradientUnits="userSpaceOnUse">
      <stop offset="0" stop-color="#f9f2f6"/>
      <stop offset=".0161444" stop-color="#eee0f7"/>
      <stop offset=".0599241" stop-color="#d4b7f9"/>
      <stop offset=".1026604" stop-color="#c096fc"/>
      <stop offset=".1434951" stop-color="#b17efd"/>
      <stop offset=".1816294" stop-color="#a970fe"/>
      <stop offset=".2143613" stop-color="#a66cff"/>
      <stop offset=".287182" stop-color="#a270fb"/>
      <stop offset=".3687901" stop-color="#997ef0"/>
      <stop offset=".4546418" stop-color="#8994df"/>
      <stop offset=".5434678" stop-color="#74b3c6"/>
      <stop offset=".6336954" stop-color="#58dba7"/>
      <stop offset=".6697576" stop-color="#4cee99"/>
      <stop offset=".7059069" stop-color="#50e79e"/>
      <stop offset=".7583419" stop-color="#5ed3ad"/>
      <stop offset=".8207091" stop-color="#74b4c6"/>
      <stop offset=".8901499" stop-color="#9288e8"/>
      <stop offset=".9164296" stop-color="#9f76f7"/>
    </linearGradient>
    <linearGradient id="linear-gradient2" x1="1623.7647773" y1="2862.4724666" x2="1791.4187381" y2="2777.7537098" gradientUnits="userSpaceOnUse">
      <stop offset="0" stop-color="#cff500"/>
      <stop offset=".1046061" stop-color="#cff405"/>
      <stop offset=".2308636" stop-color="#d2f413"/>
      <stop offset=".3683207" stop-color="#d6f42c"/>
      <stop offset=".5138248" stop-color="#dcf44e"/>
      <stop offset=".6656932" stop-color="#e3f37a"/>
      <stop offset=".8228159" stop-color="#edf2b0"/>
      <stop offset=".9814735" stop-color="#f7f2ee"/>
      <stop offset="1" stop-color="#f9f2f6"/>
    </linearGradient>
    <linearGradient id="linear-gradient3" x1="1393.6778208" y1="2722.4967761" x2="1561.3317816" y2="2637.7780193" xlink:href="#linear-gradient2"/>
    <linearGradient id="linear-gradient4" x1="1470.9066148" y1="2769.5236942" x2="1638.5605756" y2="2684.8049374" gradientTransform="translate(-31.8220328 20.6829571) rotate(-.7142993)" xlink:href="#linear-gradient2"/>
    <linearGradient id="linear-gradient5" x1="1205.5680063" y1="2990.0289975" x2="1772.1767019" y2="2990.0289975" gradientTransform="translate(-193.5128653 -140.7438183) scale(1.1078677 1)" gradientUnits="userSpaceOnUse">
      <stop offset="0" stop-color="#1777f2"/>
      <stop offset=".107343" stop-color="#3758f6"/>
      <stop offset=".2427174" stop-color="#5938fa"/>
      <stop offset=".3544844" stop-color="#6e25fd"/>
      <stop offset=".4279984" stop-color="#761efe"/>
      <stop offset=".4767405" stop-color="#711cf4"/>
      <stop offset=".5586481" stop-color="#6519da"/>
      <stop offset=".6636406" stop-color="#5114af"/>
      <stop offset=".7876659" stop-color="#360d74"/>
      <stop offset=".9261042" stop-color="#13052a"/>
      <stop offset="1" stop-color="#000"/>
    </linearGradient>
    <linearGradient id="linear-gradient6" x1="1095.9002215" y1="1378.0364748" x2="1793.2045693" y2="1378.0364748" gradientTransform="matrix(1,0,0,1,0,0)" xlink:href="#linear-gradient5"/>
    <linearGradient id="linear-gradient7" x1="1538.5798848" y1="1322.6005258" x2="1782.2480476" y2="1322.6005258" xlink:href="#linear-gradient2"/>
    <linearGradient id="linear-gradient8" x1="1178.0737046" y1="1518.795028" x2="2066.9779965" y2="1518.795028" gradientUnits="userSpaceOnUse">
      <stop offset="0" stop-color="#761efe"/>
      <stop offset=".0871176" stop-color="#6e41ec"/>
      <stop offset=".3271926" stop-color="#5c9dc0"/>
      <stop offset=".4954274" stop-color="#50d7a3"/>
      <stop offset=".5757951" stop-color="#4cee99"/>
      <stop offset=".6357183" stop-color="#5ee1a3"/>
      <stop offset=".7566167" stop-color="#8ec1bf"/>
      <stop offset=".9259365" stop-color="#db8eeb"/>
      <stop offset=".998397" stop-color="#fe77ff"/>
    </linearGradient>
    <linearGradient id="linear-gradient9" x1="1030.161091" y1="1592.3043478" x2="1316.5958736" y2="1592.3043478" xlink:href="#linear-gradient2"/>
    <linearGradient id="linear-gradient10" x1="1010.7899606" y1="2006.7199227" x2="1494.721564" y2="1896.3782925" gradientUnits="userSpaceOnUse">
      <stop offset="0" stop-color="#f9f2f6"/>
      <stop offset=".0161444" stop-color="#eee0f7"/>
      <stop offset=".0599241" stop-color="#d4b7f9"/>
      <stop offset=".1026604" stop-color="#c096fc"/>
      <stop offset=".1434951" stop-color="#b17efd"/>
      <stop offset=".1816294" stop-color="#a970fe"/>
      <stop offset=".2143613" stop-color="#a66cff"/>
      <stop offset=".3182849" stop-color="#8a93e0"/>
      <stop offset=".4624695" stop-color="#68c4b9"/>
      <stop offset=".5724118" stop-color="#53e2a1"/>
      <stop offset=".6342305" stop-color="#4cee99"/>
      <stop offset=".6703176" stop-color="#4de49d"/>
      <stop offset=".7295677" stop-color="#52cca9"/>
      <stop offset=".8046235" stop-color="#5aa3bc"/>
      <stop offset=".8925773" stop-color="#666bd8"/>
      <stop offset=".9903364" stop-color="#7425fa"/>
      <stop offset="1" stop-color="#761efe"/>
    </linearGradient>
    <linearGradient id="linear-gradient11" x1="850.7932006" y1="1258.8272284" x2="1227.1333796" y2="1145.9075977" gradientUnits="userSpaceOnUse">
      <stop offset=".1165994" stop-color="#a66cff"/>
      <stop offset=".2447205" stop-color="#8a93e0"/>
      <stop offset=".4224769" stop-color="#68c4b9"/>
      <stop offset=".558018" stop-color="#53e2a1"/>
      <stop offset=".6342305" stop-color="#4cee99"/>
      <stop offset=".6673425" stop-color="#4de89b"/>
      <stop offset=".7101484" stop-color="#50d8a3"/>
      <stop offset=".7582907" stop-color="#55bdb0"/>
      <stop offset=".8103503" stop-color="#5d98c2"/>
      <stop offset=".865557" stop-color="#6668d9"/>
      <stop offset=".9225557" stop-color="#722ff5"/>
      <stop offset=".9382447" stop-color="#761efe"/>
    </linearGradient>
    <linearGradient id="linear-gradient12" x1="1209.5180493" y1="1197.2794076" x2="1320.7318685" y2="1197.2794076" xlink:href="#linear-gradient2"/>
    <linearGradient id="linear-gradient13" x1="1489.7302449" y1="1124.3126455" x2="1649.1646973" y2="1124.3126455" xlink:href="#linear-gradient2"/>
    <linearGradient id="linear-gradient14" x1="1094.1666511" y1="560.4347826" x2="1594.2536076" y2="560.4347826" gradientUnits="userSpaceOnUse">
      <stop offset=".1771755" stop-color="#761efe"/>
      <stop offset=".268784" stop-color="#731df9"/>
      <stop offset=".3709934" stop-color="#6d1beb"/>
      <stop offset=".4783594" stop-color="#6319d5"/>
      <stop offset=".5893292" stop-color="#5415b6"/>
      <stop offset=".7030481" stop-color="#41108e"/>
      <stop offset=".8190875" stop-color="#2b0a5c"/>
      <stop offset=".9347867" stop-color="#100423"/>
      <stop offset="1" stop-color="#000"/>
    </linearGradient>
    <linearGradient id="linear-gradient15" x1="1760.1770329" y1="694.4887293" x2="1961.7180433" y2="694.4887293" xlink:href="#linear-gradient2"/>
    <linearGradient id="linear-gradient16" x1="1800.2473211" y1="1039.7364954" x2="2071.8025782" y2="1039.7364954" gradientUnits="userSpaceOnUse">
      <stop offset="0" stop-color="#cff500"/>
      <stop offset=".1046061" stop-color="#cff405"/>
      <stop offset=".2308636" stop-color="#d2f413"/>
      <stop offset=".3683207" stop-color="#d6f42c"/>
      <stop offset=".5138248" stop-color="#dcf44e"/>
      <stop offset=".6656932" stop-color="#e3f37a"/>
      <stop offset=".8228159" stop-color="#edf2b0"/>
      <stop offset=".9814735" stop-color="#f7f2ee"/>
      <stop offset="1" stop-color="#f9f2f6"/>
    </linearGradient>
    <linearGradient id="linear-gradient17" x1="2017.4916522" y1="2080.0440939" x2="1845.3740072" y2="2070.3551556" gradientUnits="userSpaceOnUse">
      <stop offset=".27204" stop-color="#4cee99"/>
      <stop offset=".3302791" stop-color="#50ee9b"/>
      <stop offset=".3972714" stop-color="#5eeea3"/>
      <stop offset=".4685918" stop-color="#75eeaf"/>
      <stop offset=".542949" stop-color="#96efc0"/>
      <stop offset=".6196664" stop-color="#bff0d7"/>
      <stop offset=".697291" stop-color="#f1f1f2"/>
      <stop offset=".7078563" stop-color="#f9f2f6"/>
      <stop offset=".9891243" stop-color="#f9f2f6"/>
      <stop offset="1" stop-color="#f9f2f6"/>
    </linearGradient>
    <linearGradient id="linear-gradient18" x1="1683.8902294" y1="1414.6748317" x2="2014.2684814" y2="1414.6748317" xlink:href="#linear-gradient2"/>
    <linearGradient id="linear-gradient19" x1="1842.9997329" y1="3263.173913" x2="2267.4654389" y2="3263.173913" gradientUnits="userSpaceOnUse">
      <stop offset=".1771755" stop-color="#fe77ff"/>
      <stop offset=".2685878" stop-color="#f974fa"/>
      <stop offset=".3705789" stop-color="#ec6eec"/>
      <stop offset=".477716" stop-color="#d564d6"/>
      <stop offset=".5884507" stop-color="#b655b7"/>
      <stop offset=".7019318" stop-color="#8e428f"/>
      <stop offset=".8177456" stop-color="#5d2b5d"/>
      <stop offset=".933239" stop-color="#241124"/>
      <stop offset="1" stop-color="#000"/>
    </linearGradient>
    <linearGradient id="linear-gradient20" x1="1894.6519068" y1="3263.173913" x2="2215.8132649" y2="3263.173913" xlink:href="#linear-gradient14"/>
    <linearGradient id="linear-gradient21" x1="1939.2606024" x2="2171.2045693" xlink:href="#linear-gradient19"/>
    <linearGradient id="linear-gradient22" x1="1986.2171242" y1="3263.173913" x2="2124.2480476" y2="3263.173913" xlink:href="#linear-gradient14"/>
    <linearGradient id="linear-gradient23" x1="2021.4345155" x2="2089.0306563" xlink:href="#linear-gradient19"/>
    <linearGradient id="linear-gradient24" x1="2186.0741345" y1="3209.9565217" x2="2636.8567432" y2="3209.9565217" gradientUnits="userSpaceOnUse">
      <stop offset=".1432507" stop-color="#4cee99"/>
      <stop offset=".249327" stop-color="#68ef77"/>
      <stop offset=".4285611" stop-color="#94f144"/>
      <stop offset=".5850317" stop-color="#b4f31f"/>
      <stop offset=".7109925" stop-color="#c7f408"/>
      <stop offset=".7906336" stop-color="#cff500"/>
      <stop offset=".8793858" stop-color="#e3f377"/>
      <stop offset=".9512393" stop-color="#f2f2d2"/>
      <stop offset=".9834711" stop-color="#f9f2f6"/>
    </linearGradient>
    <linearGradient id="linear-gradient25" x1="1916.8567432" y1="3552.3478261" x2="2636.8567432" y2="3552.3478261" xlink:href="#linear-gradient14"/>
    <linearGradient id="linear-gradient26" x1="123.1176128" y1="2499.0121548" x2="830.5958736" y2="2499.0121548" xlink:href="#linear-gradient14"/>
    <linearGradient id="linear-gradient27" x1="197.4107904" y1="2499.0121548" x2="756.302696" y2="2499.0121548" xlink:href="#linear-gradient24"/>
    <linearGradient id="linear-gradient28" x1="267.7522034" y1="2499.0121548" x2="685.9612831" y2="2499.0121548" xlink:href="#linear-gradient14"/>
    <linearGradient id="linear-gradient29" x1="343.6260869" y1="2499.0121548" x2="610.0873995" y2="2499.0121548" xlink:href="#linear-gradient24"/>
    <linearGradient id="linear-gradient30" x1="410.0157351" y1="2499.0121548" x2="543.6977514" y2="2499.0121548" xlink:href="#linear-gradient14"/>
    <linearGradient id="linear-gradient31" x1="-130.4476046" y1="1981.2608696" x2="830.5958736" y2="1981.2608696" xlink:href="#linear-gradient24"/>
    <linearGradient id="linear-gradient32" x1="-208.7084742" y1="2356.5773721" x2="285.9002215" y2="2356.5773721" xlink:href="#linear-gradient19"/>
    <linearGradient id="linear-gradient33" x1="2109.1605589" y1="258.5474078" x2="2424.2790982" y2="258.5474078" gradientTransform="translate(458.3238054 1454.5626982) rotate(-38.5439546)" xlink:href="#linear-gradient19"/>
    <linearGradient id="linear-gradient34" x1="2147.5065486" y1="258.5474078" x2="2385.9331085" y2="258.5474078" gradientTransform="translate(458.3238054 1454.5626982) rotate(-38.5439546)" xlink:href="#linear-gradient14"/>
    <linearGradient id="linear-gradient35" x1="2180.6235397" y1="258.5474078" x2="2352.8161174" y2="258.5474078" gradientTransform="translate(458.3238054 1454.5626982) rotate(-38.5439546)" xlink:href="#linear-gradient19"/>
    <linearGradient id="linear-gradient36" x1="2215.4835303" y1="258.5474078" x2="2317.9561267" y2="258.5474078" gradientTransform="translate(458.3238054 1454.5626982) rotate(-38.5439546)" xlink:href="#linear-gradient14"/>
    <linearGradient id="linear-gradient37" x1="2241.6285233" y1="258.5474078" x2="2291.8111337" y2="258.5474078" gradientTransform="translate(458.3238054 1454.5626982) rotate(-38.5439546)" xlink:href="#linear-gradient19"/>
    <linearGradient id="linear-gradient38" x1="2363.8551144" y1="219.0394184" x2="2698.5110246" y2="219.0394184" gradientTransform="translate(458.3238054 1454.5626982) rotate(-38.5439546)" xlink:href="#linear-gradient24"/>
    <linearGradient id="linear-gradient39" x1="2163.991168" y1="473.2268502" x2="2698.5110246" y2="473.2268502" gradientTransform="translate(458.3238054 1454.5626982) rotate(-38.5439546)" xlink:href="#linear-gradient14"/>
    <linearGradient id="linear-gradient40" x1="498.2009613" y1="1378.0364748" x2="597.140283" y2="1378.0364748" gradientTransform="translate(1029.0117085 -24.5462838) rotate(40.6155659)" xlink:href="#linear-gradient19"/>
    <linearGradient id="linear-gradient41" x1="767.8774834" y1="-174.9826346" x2="866.8168051" y2="-174.9826346" gradientTransform="translate(2879.4647463 1990.8369999) rotate(154.6416023)" xlink:href="#linear-gradient19"/>
    <linearGradient id="linear-gradient42" x1="275.4270124" y1="872.5713015" x2="324.8966732" y2="872.5713015" gradientTransform="translate(2879.4647463 1990.8369999) rotate(154.6416023)" xlink:href="#linear-gradient19"/>
  </defs>
  <g id="Background">
    <rect width="2603.8873995" height="3700" fill="url(#linear-gradient)"/>
  </g>
  <g id="Graphic">
    <g clip-path="url(#clippath)">
      <g>
        <polygon points="257.7263084 3759.3478261 1253.2045693 2721.6086957 1652.3350041 3022.1304348 1220.3350041 3965.9565217 257.7263084 3759.3478261" fill="url(#linear-gradient1)"/>
        <path d="M1605.3784823,2930.5652174s119.7391304-58.6956522,133.826087-267.6521739h54s4.6956522,173.7391304-140.8695652,326.3478261l-46.9565217-58.6956522Z" fill="url(#linear-gradient2)"/>
        <path d="M1375.2915258,2790.5895269s119.7391304-58.6956522,133.826087-267.6521739h54s4.6956522,173.7391304-140.8695652,326.3478261l-46.9565217-58.6956522Z" fill="url(#linear-gradient3)"/>
        <path d="M1455.9607035,2839.9709697s118.9980931-60.183825,130.4789876-269.2997244l53.9958036-.6731938s6.8612151,173.6670905-136.7901861,328.0786232l-47.6846051-58.105705Z" fill="url(#linear-gradient4)"/>
        <rect x="1142.0969714" y="2789.8069182" width="627.7274642" height="118.9565217" rx="59.4781997" ry="59.4781997" transform="translate(1900.8094505 -319.3670887) rotate(35.0582037)" fill="url(#linear-gradient5)"/>
        <path d="M1415.2045693,1740.2173913s58.6956522-248.8695652,145.5652174-443.7391304l-54-42.2608696s-270,68.0869565-363.9130435,63.3913043l-46.9565217-143.2173913,410.8695652-199.5652174s176.0869565,63.3913043,286.4347826,218.3478261l-68.0869565,395.2173913-267.452667,192.8555583-42.4603765-41.0294714Z" fill="url(#linear-gradient6)"/>
        <path d="M1553.1941712,1290.5495183l229.0538763-26.158214-20.8910879,113.6451705s-101.7495855,16.0837728-222.7770749-29.2154815c0,0,1.5604101-32.1132611,14.6142865-58.271475Z" fill="url(#linear-gradient7)"/>
        <path d="M2061.1936997,1092.5599976l-56.1499023,357.4900513c-2.4501953,15.619873-4.630127,31.2799072-6.5200195,46.9599609-3.2399902,26.6300049-5.6801758,53.3399658-7.3200684,80.1099854l-64.9599609,1059.9698486c-32.670166,16.6801758-66.2399902,29.2802734-100.1101074,38.5-277.6599121,75.6201172-576.0599365-76.0698242-576.0599365-76.0698242l-72-360,212.7700195-435.9100342,43.9300537-90c267.1298828-198.3699951,351.0198975-557.6199951,370.619873-664.2999878,3.5200195-19.1600342,3.7600098-38.7600098.7399902-58l-45.7999268-291.960022c-112.0499268-186.2099609-119.1500244-281.3399658-100.7301025-329.6799927,4.380127-11.5,12.5200195-19.6799927,22.1601562-24.3099976,19.2700195-9.2699585,44.5200195-4.3599854,57.6599121,16.4500122l253.8200684,401.8699951c61.75,97.7700195,85.8999023,214.6400146,67.9499512,328.8800049Z" fill="url(#linear-gradient8)"/>
        <polygon points="1030.161091 1526.5652174 1077.8771375 1723.7826087 1316.5958736 1643.9565217 1208.5958736 1460.826087 1030.161091 1526.5652174" fill="url(#linear-gradient9)"/>
        <path d="M993.3784823,1676.0434783l400.6956522-87.6521739s147.1467391,341.3804348,76.4345562,555.0701993c-44.9432813,135.8170374-218.3254445,173.6343899-314.9379408,68.1251877-71.1303553-77.6805002-138.7934258-232.6582061-162.1922676-535.5432131Z" fill="url(#linear-gradient10)"/>
        <path d="M993.3784823,1588.3913043s140.0869565-3.7574906,280.9565217-79.7483105c0,0-136.4231123-343.8822774-170.7145279-527.9026264-7.3811719-39.6100835-25.9559647-76.414158-54.2694974-105.0809379-26.8991948-27.2347964-63.8866269-48.7757339-108.407279-34.6594295,0,0-100.9565217,40.932537-39.9130435,371.4662685l92.3478261,375.9250359Z" fill="url(#linear-gradient11)"/>
        <path d="M1209.5180493,1119.2055023s31.1340239,61.7630063,50.7146198,187.2135346c0,0,35.2327698,10.9411903,56.3632046-10.0650102,0,0,22.5606365-96.585342-37.7002331-210.8462116,0,0-47.3249809-5.0533323-69.3775913,33.6976872Z" fill="url(#linear-gradient12)"/>
        <path d="M1489.7302449,1258.4155393s31.1264983-175.5894523,9.2134548-283.5894523c0,0,79.7463429-5.8823187,150.2209975,77.6675363,0,0-7.693978,89.9169364-117.2591954,221.3951973l-42.1752569-15.4732813Z" fill="url(#linear-gradient13)"/>
        <circle cx="1320.7318685" cy="560.4347826" r="250.0434783" fill="url(#linear-gradient14)"/>
        <path d="M1760.3350041,699.3478261s86.7967284-20.1370641,149.8331468-67.1989669c0,0,44.7590185,31.868446,51.5498924,81.6206629,0,0-95.6976815,42.6268071-192.3664473,43.0590772,0,0-10.5818093-27.7416429-9.0165919-57.4807733Z" fill="url(#linear-gradient15)"/>
        <path d="M1806.1323592,991.3059652s128.5146565,40.36429,257.0028138-33.2009274c0,0,22.3948581,74.3301018-4.8113511,152.7429668,0,0-143.8156312,39.7747127-258.0765008-35.3557221l5.8850381-84.1863173Z" fill="url(#linear-gradient16)"/>
        <path d="M1998.5237779,1497.0100098c-3.2399902,26.6300049-5.6801758,53.3399658-7.3200684,80.1099854l-64.9599609,1059.9698486c-32.670166,16.6801758-66.2399902,29.2802734-100.1101074,38.5l72.7199707-1205.369873h56.3500977l43.3200684,26.7900391Z" fill="url(#linear-gradient17)"/>
        <path d="M1723.4636122,1322.6005258s104.5642282,94.1695759,289.0656361,79.8062642c0,0,9.277834,42.1698052-15.0234225,103.120638,0,0-182.9195381,19.5450902-313.6155964-97.7164097,0,0,7.397643-48.9143144,39.5733827-85.2104925Z" fill="url(#linear-gradient18)"/>
        <g>
          <polygon points="1842.9997329 3230.8738471 2186.0741345 2906.3043478 2267.4654389 3343.7826087 1916.8567432 3620.0434783 1842.9997329 3230.8738471" fill="url(#linear-gradient19)"/>
          <polygon points="1894.6519068 3238.7348761 2154.2305706 2993.1574838 2215.8132649 3324.1644661 1950.5339661 3533.1903423 1894.6519068 3238.7348761" fill="url(#linear-gradient20)"/>
          <polygon points="1939.2606024 3245.5239467 2126.7293108 3068.1670104 2171.2045693 3307.2215248 1979.6188404 3458.1808157 1939.2606024 3245.5239467" fill="url(#linear-gradient21)"/>
          <polygon points="1986.2171242 3252.6703367 2097.7806163 3147.1244068 2124.2480476 3289.3868498 2010.2344975 3379.2234193 1986.2171242 3252.6703367" fill="url(#linear-gradient22)"/>
          <polygon points="2021.4345155 3258.0301293 2076.0690954 3206.342454 2089.0306563 3276.0108435 2033.1962404 3320.005372 2021.4345155 3258.0301293" fill="url(#linear-gradient23)"/>
          <polygon points="2621.2045693 3184.9130435 2186.0741345 2906.3043478 2267.4654389 3343.7826087 2636.8567432 3513.6086957 2621.2045693 3184.9130435" fill="url(#linear-gradient24)"/>
          <polygon points="1916.8567432 3620.0434783 2308.161091 3760.9130435 2636.8567432 3513.6086957 2267.4654389 3343.7826087 1916.8567432 3620.0434783" fill="url(#linear-gradient25)"/>
        </g>
        <g>
          <polygon points="123.1176128 2849.2851791 285.9002215 2258.3043478 830.5958736 2148.7391304 677.2045693 2696.7207703 123.1176128 2849.2851791" fill="url(#linear-gradient26)"/>
          <polygon points="197.4107904 2775.7199617 326.0053882 2308.858404 756.302696 2222.3043478 635.1270173 2655.1975119 197.4107904 2775.7199617" fill="url(#linear-gradient27)"/>
          <polygon points="267.7522034 2706.0677878 363.9773013 2356.7234146 685.9612831 2291.9565217 595.287633 2615.8829375 267.7522034 2706.0677878" fill="url(#linear-gradient28)"/>
          <polygon points="343.6260869 2630.937353 404.9357695 2408.353089 610.0873995 2367.0869565 552.314814 2573.4762056 343.6260869 2630.937353" fill="url(#linear-gradient29)"/>
          <polygon points="410.0157351 2565.1982226 440.7744291 2453.5290541 543.6977514 2432.826087 514.7135974 2536.3703152 410.0157351 2565.1982226" fill="url(#linear-gradient30)"/>
          <polygon points="830.5958736 2148.7391304 436.161091 1704.2173913 -130.4476046 1863.8695652 285.9002215 2258.3043478 830.5958736 2148.7391304" fill="url(#linear-gradient31)"/>
          <polygon points="123.1176128 2849.2851791 -208.7084742 2408.5652174 -130.4476046 1863.8695652 285.9002215 2258.3043478 123.1176128 2849.2851791" fill="url(#linear-gradient32)"/>
        </g>
        <path d="M1364.0567767,582.0389953c33.1007965-3.2112552,81.1798883-12.1688556,149.5171591-21.6042127-68.3372708-9.4355493-116.4163626-18.3931498-149.5171591-21.6042127,14.9820443-19.4271036,34.1132176-46.7336349,60.771413-81.9324751-35.1988883,26.6580512-62.5055157,45.7894648-81.9324271,60.771413-3.2112071-33.1007484-12.1688556-81.1799844-21.6042608-149.517063-9.4354051,68.3370786-18.3930537,116.4163146-21.6042608,149.517063-19.4269113-14.9819482-46.7335388-34.1133618-81.9324271-60.771413,26.6581954,35.1988402,45.7894167,62.5053715,60.771461,81.9324751-33.1007965,3.2110629-81.1798883,12.1686634-149.5171591,21.6042127,68.3372708,9.4353571,116.4163626,18.3929575,149.5171591,21.6042127-14.9820443,19.4269113-34.1132656,46.7336349-60.771461,81.9324751,35.1988883-26.6582434,62.5055157-45.7894648,81.9324271-60.7716052,3.2112071,33.1009407,12.1688556,81.1799844,21.6042608,149.5172552,9.4354051-68.3372708,18.3930537-116.4163146,21.6042608-149.5172552,19.4269113,14.9821405,46.7335388,34.1133618,81.9324271,60.7716052-26.6581954-35.1988402-45.7893686-62.5055638-60.771413-81.9324751Z" fill="#f9f2f6"/>
        <g>
          <polygon points="2254.1252455 323.7763818 2303.1858807 -23.3871447 2552.8198713 192.9812235 2477.0372345 515.5799133 2254.1252455 323.7763818" fill="url(#linear-gradient33)"/>
          <polygon points="2287.7532685 304.4468919 2324.8737708 41.7742941 2513.7530851 205.4840073 2456.4140487 449.5702359 2287.7532685 304.4468919" fill="url(#linear-gradient34)"/>
          <polygon points="2316.795652 287.7532416 2343.6042215 98.0500822 2480.013588 216.2818661 2438.6031155 392.5618782 2316.795652 287.7532416" fill="url(#linear-gradient35)"/>
          <polygon points="2347.366582 270.1809781 2363.3204852 157.2877538 2444.4983278 227.6480332 2419.8547648 332.5530807 2347.366582 270.1809781" fill="url(#linear-gradient36)"/>
          <polygon points="2370.2947796 257.0017804 2378.1076831 201.7160076 2417.8618826 236.1726585 2405.7935018 287.5464825 2370.2947796 257.0017804" fill="url(#linear-gradient37)"/>
          <polygon points="2684.7246219 -62.9029419 2303.1858807 -23.3871447 2552.8198713 192.9812235 2845.8654152 120.7118655 2684.7246219 -62.9029419" fill="url(#linear-gradient38)"/>
          <polygon points="2477.0372345 515.5799133 2769.4113757 416.360274 2845.8654152 120.7118655 2552.8198713 192.9812235 2477.0372345 515.5799133" fill="url(#linear-gradient39)"/>
        </g>
        <path d="M1106.4009751,669.9042664c-21.8440464,21.4816561-74.5692557,72.6634888-59.1511257,105.0704352,9.619839,21.9315396,37.194625,9.9152855,52.802478,1.6147726,37.2325386-20.6571549,69.4264092-49.8811296,100.8914882-78.4235558,9.8972738-9.0040412,19.5422146-18.6129649,29.8334502-27.367926,71.1599244-61.1127528,140.1741821-125.1600543,201.2979475-196.3988434,24.4085196-29.0030645,148.8568508-174.1691156,127.0439352-203.8257771-15.6705624-13.5898724-48.6588434,8.9141007-62.1894867,19.0883208-17.0275963,12.9923746-32.968938,27.5974241-47.101954,43.7370079,20.0512606-25.1083667,63.6310785-69.3656931,96.1506627-71.6423897,9.4022222-.5305685,19.3795311,3.1199681,20.9450488,13.8668017,4.7617368,31.438528-47.9637445,102.2013238-67.2936349,128.9267713-16.1001417,21.6396742-32.8941306,42.6946323-49.9900364,63.5490138-58.2259143,70.863494-124.9259763,134.4030423-194.4302558,194.0271536-6.9588376,5.9991574-14.5445429,12.3267563-21.5787953,18.2698636-9.0833194,7.8138964-17.7523647,16.1652033-26.7987532,24.2271022-32.3393918,28.7018904-89.3710838,79.2565228-131.0514122,87.6664179-10.1934336,1.883462-21.4954811.7083085-28.4925503-7.8246146-28.4315579-36.2697669,33.6513817-91.9530805,59.112994-114.5605541h0Z" fill="#f9f2f6"/>
        <path d="M1542.3254136,678.9042664c25.6432937,22.7813743,87.4904644,78.2768787,59.1134512,114.5606011-7.0327897,8.5278935-18.2403076,9.7148192-28.4927548,7.8239269-41.6965784-8.4127952-98.7380428-58.9898847-131.0518852-87.665244-9.0470415-8.0633285-17.7149828-16.4145406-26.7984825-24.2277585-7.0425524-5.9589789-14.6146159-12.2688394-21.5786855-18.2698576-69.5040848-59.623528-136.2049221-123.1639678-194.4303467-194.0269913-17.0962608-20.8544156-33.890181-41.9096726-49.9896997-63.5491989-19.6094328-27.0961351-72.0311733-97.5426315-67.2946244-128.9267098,1.6004831-10.4990774,11.1870474-14.4692427,20.9455647-13.866086,26.5939545,2.0543296,56.2514968,29.3733901,74.6849521,47.5173119,7.5485166,7.6903681,14.8414853,15.6434759,21.4657529,24.1245951-14.134276-16.141523-30.0733519-30.7435306-47.101668-43.7371774-14.1253806-10.6028165-46.5442582-32.5406459-62.1891569-19.0886866-21.8966934,29.6402994,103.1444974,175.4237057,127.0427431,203.8261794,61.1248934,71.2391513,130.1382257,135.285848,201.2985896,196.3988907,10.29143,8.7540327,19.9347761,18.3623502,29.833693,27.3674934,31.4643145,28.5430522,63.6604433,57.7681694,100.8909596,78.4243074,15.6571067,8.3316762,43.1814515,20.3004388,52.8023072-1.615034,15.4435247-32.4617467-37.4594724-83.721553-59.1507097-105.0705619h0Z" fill="#f9f2f6"/>
        <path d="M1563.8493394,486.5802612c34.2104103-1.8607863,117.3013627-5.8692312,122.5994829,39.8485846.9995404,11.0083834-6.1315988,19.7354797-14.7491438,25.6029632-35.5547071,23.3495824-111.6762174,27.5227367-154.8146833,29.8700765-12.1021768.6322351-24.1375773.7934286-36.0898664,1.6290468-9.1973763.718209-19.0179871,1.5593534-28.1891317,2.1924248-91.342304,6.5091081-183.4471482,8.2624143-274.6785367-1.1508025-26.8209468-2.7977281-53.5682251-5.9508202-80.2329099-10.0076341-32.997935-5.4665176-119.810507-18.6658923-138.5197396-44.3052105-6.2473136-8.5882332-2.2259057-18.1538518,5.1346398-24.5890735,20.3477618-17.2459725,60.6444946-18.6889257,86.5092286-18.7583914,10.7749229.156633,21.5529991.6797501,32.2270713,2.0486008-21.4005955-1.5312538-43.0009611-.6987691-64.2443966,2.0431718-17.4981513,2.3993223-55.9727569,9.6098088-57.630576,30.1757754,5.284684,36.4702393,196.7077341,52.1382191,233.672531,55.5164749,93.5569359,7.6410956,187.6616156,4.620993,281.2289288-1.99437,13.4726487-1.0167762,27.0856111-.9703231,40.4559219-1.5323894,42.4417664-1.8438254,85.8835875-3.7175963,126.8762974-15.2232394,16.9810673-5.1226988,44.9944881-15.9133824,36.3955307-38.2890717-11.8562817-33.9365758-85.5158281-33.1597928-115.9506485-33.0769362h0Z" fill="#f9f2f6"/>
        <circle cx="547.6706221" cy="1378.0364748" r="49.4696608" fill="url(#linear-gradient40)"/>
        <circle cx="2215.8132649" cy="2499.0121548" r="49.4696608" fill="url(#linear-gradient41)"/>
        <circle cx="2234.5204846" cy="1330.8940421" r="24.7348304" fill="url(#linear-gradient42)"/>
      </g>
    </g>
  </g>
</svg>