<?xml version="1.0" encoding="utf-8"?>
<!-- Generator: Adobe Illustrator 29.8.2, SVG Export Plug-In . SVG Version: 9.03 Build 0)  -->
<svg version="1.0" id="Layer_1" xmlns="http://www.w3.org/2000/svg" xmlns:xlink="http://www.w3.org/1999/xlink" x="0px" y="0px"
	 viewBox="0 0 2000 1500" style="enable-background:new 0 0 2000 1500;" xml:space="preserve">
<g>
	<g>
		<rect y="0" style="fill:#FF613C;" width="2000" height="1500"/>
	</g>
	<g>
		<polygon style="fill:#E54728;" points="2000,1274.977 1679.998,1139.377 393.138,971.22 942.743,1500 2000,1500 		"/>
	</g>
	<g>
		<g>
			<g>
				<path style="fill:#1D7FD8;" d="M1230.395,884.267l-1.466,517.243c-0.041,14.312-5.094,24.382-13.244,29.118l451.069-262.133
					c8.15-4.736,13.203-14.807,13.244-29.118l1.466-517.243L1230.395,884.267z"/>
				<path d="M1215.688,1432.628c-0.689,0-1.359-0.356-1.731-0.995c-0.555-0.955-0.23-2.179,0.725-2.734
					c7.861-4.568,12.211-14.298,12.248-27.395l1.467-517.243c0.002-0.71,0.381-1.366,0.995-1.724l451.069-262.133
					c0.619-0.36,1.384-0.361,2.005-0.002c0.62,0.358,1.002,1.021,1,1.738l-1.467,517.243c-0.041,14.576-5.098,25.529-14.239,30.842
					l-451.068,262.133C1216.374,1432.541,1216.028,1432.628,1215.688,1432.628z M1232.393,885.42l-1.464,516.096
					c-0.022,8.093-1.592,15.069-4.548,20.584l439.368-255.334c7.862-4.568,12.212-14.298,12.249-27.395l1.457-513.756
					L1232.393,885.42z"/>
			</g>
			<g>
				<path style="fill:#509EFF;" d="M1185.135,805.881c25.079,14.479,45.341,49.575,45.26,78.386l-1.466,517.242
					c-0.082,28.81-20.477,40.433-45.556,25.953L393.138,971.22c-25.073-14.476-45.335-49.572-45.253-78.382l1.466-517.242
					c0.082-28.81,20.477-40.433,45.549-25.957L1185.135,805.881z"/>
				<path d="M1203.752,1435.713c-6.601,0-13.877-2.187-21.379-6.518L392.138,972.952c-25.587-14.773-46.336-50.715-46.253-80.12
					l1.466-517.242c0.042-14.629,5.129-25.601,14.327-30.893c9.257-5.327,21.411-4.187,34.223,3.21l790.236,456.242
					c25.591,14.775,46.343,50.719,46.26,80.124l-1.467,517.243c-0.041,14.628-5.129,25.599-14.325,30.892
					C1212.765,1434.616,1208.428,1435.713,1203.752,1435.713z M374.54,345.395c-3.986,0-7.652,0.918-10.867,2.769
					c-7.908,4.551-12.285,14.295-12.322,27.438l-1.466,517.242c-0.08,28.127,19.772,62.51,44.253,76.644l790.235,456.243
					c11.526,6.655,22.266,7.795,30.235,3.21c7.908-4.551,12.283-14.295,12.32-27.437l1.467-517.243
					c0.079-28.128-19.775-62.512-44.26-76.647L393.9,351.371C387.026,347.402,380.432,345.395,374.54,345.395z"/>
			</g>
			<g>
				<path style="fill:#FDC41F;" d="M1169.058,1178.332c-5.205,0-10.381-1.4-14.968-4.049l-750.845-433.5
					c-15.483-8.939-25.062-25.599-25-43.475l0.938-270.246c0.057-16.501,13.529-29.926,30.031-29.926
					c5.206,0,10.382,1.4,14.969,4.049l750.792,433.472c15.479,8.936,25.059,25.59,25,43.464l-0.886,270.28
					c-0.055,16.504-13.525,29.931-30.029,29.931C1169.06,1178.332,1169.059,1178.332,1169.058,1178.332z"/>
				<path d="M1169.061,1180.332h-0.003c-5.555,0-11.077-1.493-15.968-4.316L402.245,742.515c-16.102-9.297-26.064-26.622-26-45.213
					l0.938-270.246c0.061-17.6,14.43-31.919,32.031-31.919c5.556,0,11.078,1.493,15.969,4.317l750.792,433.472
					c16.099,9.294,26.061,26.614,26,45.203l-0.886,270.28C1201.031,1166.011,1186.663,1180.332,1169.061,1180.332z M409.214,399.136
					c-15.403,0-27.978,12.531-28.031,27.933l-0.938,270.246c-0.06,17.162,9.137,33.154,24,41.736l750.845,433.5
					c4.284,2.474,9.114,3.781,13.968,3.781h0.003c15.404,0,27.979-12.532,28.029-27.938l0.886-270.28
					c0.057-17.158-9.14-33.146-24-41.725L423.183,402.917C418.899,400.443,414.068,399.136,409.214,399.136z"/>
			</g>
			<g>
				<path style="fill:#233344;" d="M1169.06,1158.332c-1.725,0-3.396-0.461-4.97-1.369l-750.845-433.5
					c-9.29-5.364-15.037-15.359-15-26.085l0.938-270.246c0.021-6.174,5.223-9.995,10.031-9.995c1.724,0,3.396,0.461,4.969,1.369
					l750.792,433.472c9.288,5.361,15.035,15.354,15,26.079l-0.886,270.278C1179.069,1154.51,1173.868,1158.332,1169.06,1158.332
					L1169.06,1158.332z"/>
				<path d="M1169.061,1160.332L1169.061,1160.332c-2.08,0-4.089-0.551-5.971-1.637L412.245,725.194
					c-9.909-5.722-16.04-16.383-16-27.824l0.938-270.246c0.026-7.405,6.265-11.988,12.031-11.988c2.079,0,4.087,0.551,5.969,1.637
					l750.793,433.472c9.906,5.719,16.037,16.378,16,27.818l-0.886,270.278C1181.065,1155.748,1174.826,1160.332,1169.061,1160.332z
					 M409.214,419.136c-3.849,0-8.014,3.06-8.031,8.002l-0.938,270.246c-0.035,10.011,5.33,19.339,14,24.346l750.845,433.5
					c1.266,0.731,2.602,1.102,3.97,1.102c3.85,0,8.014-3.06,8.03-8.004l0.886-270.278c0.033-10.01-5.332-19.337-14-24.34
					L413.183,420.237C411.917,419.507,410.582,419.136,409.214,419.136z"/>
			</g>
			<g>
				<path style="fill:#509EFF;" d="M1636.205,543.748L845.969,87.506c-12.617-7.284-24.049-7.96-32.305-3.162L362.595,346.476
					c8.255-4.797,19.688-4.122,32.305,3.163l790.236,456.243c25.079,14.479,45.341,49.575,45.26,78.386l451.069-262.133
					C1681.546,593.323,1661.284,558.228,1636.205,543.748z"/>
				<path d="M1230.396,886.267c-0.346,0-0.69-0.089-1-0.268c-0.62-0.358-1.002-1.021-1-1.738
					c0.079-28.128-19.775-62.512-44.26-76.647L393.9,351.37c-11.563-6.677-22.324-7.8-30.3-3.166
					c-0.955,0.556-2.18,0.231-2.734-0.724c-0.555-0.955-0.231-2.179,0.724-2.734L812.66,82.614
					c9.267-5.387,21.452-4.265,34.31,3.159l790.236,456.243l0,0c25.591,14.775,46.343,50.718,46.26,80.124
					c-0.002,0.71-0.381,1.366-0.995,1.723L1231.4,885.996C1231.09,886.177,1230.743,886.267,1230.396,886.267z M375.311,341.399
					c6.389,0.166,13.382,2.347,20.589,6.507l790.236,456.242c24.604,14.205,44.734,47.975,46.177,76.69l447.145-259.852
					c-0.449-27.91-20.099-61.562-44.252-75.507L844.969,89.237c-11.563-6.676-22.323-7.8-30.3-3.165L375.311,341.399z"/>
			</g>
			<g>
				<g>
					<path style="fill:#9ABAD8;" d="M1088.621,1174.373c-15.367-8.872-29.288-9.697-39.34-3.855l-28.192,16.383
						c10.052-5.841,23.973-5.017,39.34,3.855c30.531,17.627,55.204,60.354,55.105,95.445c-0.049,17.428-6.203,29.691-16.127,35.459
						l28.192-16.383c9.924-5.768,16.078-18.03,16.127-35.459C1143.826,1234.728,1119.153,1192.001,1088.621,1174.373z"/>
					<path d="M1099.409,1323.661c-0.689,0-1.359-0.356-1.731-0.995c-0.555-0.955-0.23-2.179,0.725-2.734l0.017-0.01
						c9.702-5.648,15.07-17.625,15.115-33.726c0.098-34.39-24.174-76.427-54.104-93.707c-14.217-8.209-27.471-9.581-37.317-3.869
						l-0.018,0.011c-0.957,0.554-2.181,0.229-2.734-0.725c-0.555-0.955-0.23-2.179,0.725-2.734c0.004-0.002,0.007-0.004,0.012-0.006
						l28.181-16.378c11.143-6.474,25.827-5.104,41.344,3.853l0,0c31.037,17.92,56.206,61.516,56.105,97.184
						c-0.05,17.59-6.131,30.795-17.123,37.183l-28.191,16.384C1100.096,1323.574,1099.75,1323.661,1099.409,1323.661z
						 M1035.616,1181.145c7.959,0,16.743,2.644,25.813,7.88c31.037,17.92,56.206,61.516,56.104,97.184
						c-0.029,10.477-2.198,19.397-6.271,26.25l15.33-8.91c9.713-5.644,15.087-17.625,15.133-33.735
						c0.097-34.39-24.175-76.427-54.105-93.707l0,0c-14.224-8.212-27.48-9.584-37.334-3.858l-15.321,8.903
						C1035.183,1181.146,1035.398,1181.145,1035.616,1181.145z"/>
				</g>
				<g>
					<g>
						<path style="fill:#BFD8F6;" d="M1060.43,1190.756c30.531,17.627,55.204,60.355,55.105,95.445
							c-0.099,35.083-24.933,49.235-55.465,31.608c-30.538-17.631-55.204-60.362-55.105-95.445
							C1005.064,1187.274,1029.892,1173.125,1060.43,1190.756z"/>
						<path d="M1084.876,1327.417c-7.959,0-16.743-2.643-25.807-7.875c-31.037-17.921-56.206-61.517-56.104-97.184
							c0.05-17.656,6.167-30.885,17.225-37.247c11.129-6.406,25.775-5.017,41.24,3.913c31.037,17.92,56.206,61.516,56.104,97.184
							c-0.05,17.652-6.168,30.878-17.227,37.242C1095.701,1326.101,1090.494,1327.417,1084.876,1327.417z M1035.627,1185.15
							c-4.928,0-9.461,1.137-13.442,3.428c-9.769,5.621-15.174,17.622-15.22,33.792c-0.098,34.389,24.174,76.426,54.104,93.707
							c14.173,8.183,27.399,9.57,37.243,3.906c9.77-5.623,15.176-17.621,15.222-33.787c0.098-34.39-24.174-76.427-54.104-93.707l0,0
							C1050.988,1187.615,1042.881,1185.15,1035.627,1185.15z"/>
					</g>
				</g>
				<g>
					<g>
						<path style="fill:#FE728C;" d="M1088.802,1245.741c6.106,3.525,11.039,12.069,11.02,19.087
							c-0.02,7.016-4.986,9.846-11.092,6.321c-6.107-3.526-11.04-12.071-11.02-19.087
							C1077.73,1245.045,1082.695,1242.215,1088.802,1245.741z"/>
						<path d="M1093.694,1274.674c-1.872,0-3.9-0.602-5.965-1.793c-6.762-3.904-12.041-13.051-12.02-20.825
							c0.012-4.125,1.52-7.261,4.247-8.83c2.742-1.579,6.239-1.299,9.845,0.783l0,0c6.762,3.904,12.041,13.052,12.02,20.825
							c-0.012,4.124-1.52,7.26-4.247,8.829C1096.402,1274.338,1095.092,1274.674,1093.694,1274.674z M1083.836,1246.229
							c-0.708,0-1.346,0.152-1.885,0.463c-1.438,0.827-2.233,2.736-2.241,5.375c-0.018,6.259,4.571,14.203,10.02,17.349
							c2.286,1.32,4.417,1.606,5.85,0.78c1.438-0.827,2.234-2.736,2.242-5.374c0.018-6.258-4.571-14.203-10.02-17.349l0,0
							C1086.376,1246.649,1085.01,1246.229,1083.836,1246.229z"/>
					</g>
				</g>
			</g>
			<g>
				<g>
					<path style="fill:#9ABAD8;" d="M471.902,826.561c-15.367-8.872-29.288-9.697-39.34-3.855l-28.192,16.383
						c10.052-5.841,23.973-5.017,39.34,3.855c30.531,17.627,55.204,60.354,55.105,95.445c-0.049,17.428-6.203,29.691-16.127,35.459
						l28.192-16.383c9.924-5.768,16.078-18.03,16.127-35.459C527.106,886.915,502.433,844.188,471.902,826.561z"/>
					<path d="M482.689,975.849c-0.689,0-1.36-0.356-1.731-0.995c-0.555-0.955-0.231-2.179,0.724-2.734
						c9.712-5.645,15.087-17.625,15.132-33.735c0.098-34.39-24.174-76.427-54.105-93.707c-14.217-8.209-27.469-9.584-37.317-3.868
						l-0.017,0.01c-0.956,0.555-2.18,0.229-2.734-0.725c-0.555-0.955-0.231-2.179,0.724-2.734l28.192-16.384
						c11.142-6.476,25.824-5.107,41.344,3.853l0,0c31.037,17.92,56.206,61.517,56.105,97.184
						c-0.05,17.589-6.131,30.794-17.123,37.183l-28.192,16.384C483.376,975.762,483.03,975.849,482.689,975.849z M418.896,833.332
						c7.959,0,16.743,2.644,25.813,7.88c31.038,17.919,56.206,61.516,56.105,97.184c-0.03,10.477-2.199,19.397-6.271,26.25
						l15.331-8.91c9.712-5.645,15.087-17.625,15.132-33.735c0.097-34.39-24.174-76.427-54.105-93.707
						c-14.225-8.213-27.484-9.583-37.334-3.858l-15.321,8.903C418.463,833.334,418.679,833.332,418.896,833.332z"/>
				</g>
				<g>
					<g>
						<path style="fill:#BFD8F6;" d="M443.71,842.944c30.531,17.627,55.204,60.355,55.105,95.445
							c-0.099,35.083-24.933,49.235-55.465,31.607c-30.538-17.631-55.204-60.362-55.105-95.445
							C388.345,839.461,413.172,825.313,443.71,842.944z"/>
						<path d="M468.157,979.604c-7.96,0-16.743-2.643-25.807-7.875c-31.037-17.919-56.206-61.516-56.105-97.184
							c0.05-17.655,6.167-30.884,17.225-37.246c11.13-6.406,25.776-5.015,41.24,3.912c31.038,17.919,56.206,61.516,56.105,97.184
							c-0.05,17.652-6.168,30.878-17.227,37.242C478.982,978.288,473.775,979.604,468.157,979.604z M418.908,837.339
							c-4.928,0-9.462,1.137-13.443,3.428c-9.769,5.621-15.174,17.622-15.22,33.791c-0.097,34.39,24.174,76.427,54.105,93.707
							c14.173,8.184,27.399,9.57,37.243,3.906c9.77-5.623,15.176-17.621,15.222-33.787c0.098-34.39-24.174-76.427-54.105-93.707
							C434.269,839.803,426.163,837.339,418.908,837.339z"/>
					</g>
				</g>
				<g>
					<g>
						<path style="fill:#FE728C;" d="M432.51,850.478c6.106,3.525,11.04,12.069,11.02,19.087c-0.02,7.016-4.986,9.846-11.092,6.321
							c-6.107-3.526-11.04-12.071-11.02-19.087C421.439,849.781,426.404,846.952,432.51,850.478z"/>
						<path d="M437.402,879.41c-1.871,0-3.899-0.601-5.964-1.792c-6.762-3.905-12.042-13.053-12.02-20.825
							c0.012-4.125,1.52-7.262,4.246-8.831c2.74-1.577,6.237-1.301,9.845,0.783l0,0c6.762,3.905,12.042,13.052,12.02,20.825
							c-0.012,4.124-1.52,7.26-4.247,8.83C440.111,879.075,438.8,879.41,437.402,879.41z M427.545,850.966
							c-0.708,0-1.346,0.153-1.885,0.463c-1.438,0.828-2.234,2.737-2.241,5.376c-0.018,6.258,4.571,14.202,10.02,17.349
							c2.287,1.32,4.418,1.604,5.85,0.78c1.438-0.828,2.234-2.737,2.242-5.375c0.018-6.258-4.571-14.203-10.02-17.349
							C430.084,851.387,428.718,850.966,427.545,850.966z"/>
					</g>
				</g>
			</g>
			<g>
				<path style="fill:#FFFFFF;" d="M603.995,1033.458l320.99,185.324c9.333,5.389,21-1.347,21-12.124v-89.322
					c0-10.003-5.337-19.247-14-24.249l-320.99-185.324c-9.333-5.389-21,1.347-21,12.124v89.323
					C589.995,1019.213,595.332,1028.457,603.995,1033.458z"/>
				<path d="M931.985,1222.684c-2.748,0-5.495-0.724-8-2.169l-320.99-185.323l0,0c-9.252-5.343-15-15.298-15-25.981v-89.323
					c0-5.784,2.991-10.964,8-13.856c5.01-2.894,10.991-2.892,16-0.001l320.99,185.325c9.252,5.342,15,15.297,15,25.98v89.322
					c0,5.784-2.991,10.965-8,13.857C937.48,1221.96,934.732,1222.684,931.985,1222.684z M604.995,1031.727l320.99,185.323
					c3.757,2.17,8.243,2.17,12,0c3.757-2.169,6-6.054,6-10.393v-89.322c0-9.26-4.981-17.887-13-22.516l-320.99-185.325
					c-3.758-2.171-8.244-2.169-12,0c-3.757,2.17-6,6.055-6,10.393v89.323C591.995,1018.469,596.977,1027.097,604.995,1031.727
					L604.995,1031.727z"/>
			</g>
			<g>
				<polygon style="fill:#FE728C;" points="589.995,967.596 945.985,1173.126 945.985,1158.949 589.995,953.418 				"/>
				<path d="M945.985,1175.127c-0.345,0-0.69-0.089-1-0.268l-355.99-205.531c-0.619-0.357-1-1.018-1-1.732v-14.178
					c0-0.715,0.381-1.375,1-1.732c0.619-0.357,1.381-0.357,2,0l355.99,205.531c0.619,0.357,1,1.018,1,1.732v14.178
					c0,0.715-0.381,1.375-1,1.732C946.675,1175.038,946.33,1175.127,945.985,1175.127z M591.995,966.441l351.99,203.222v-9.56
					l-351.99-203.222V966.441z"/>
			</g>
			<g>
				<defs>
					<path id="SVGID_1_" d="M1169.06,1158.332c-1.725,0-3.396-0.461-4.97-1.369l-750.845-433.5c-9.29-5.364-15.037-15.359-15-26.085
						l0.938-270.246c0.021-6.174,5.223-9.995,10.031-9.995c1.724,0,3.396,0.461,4.969,1.369l750.792,433.472
						c9.288,5.361,15.035,15.354,15,26.079l-0.886,270.278C1179.069,1154.51,1173.868,1158.332,1169.06,1158.332L1169.06,1158.332z"
						/>
				</defs>
				<clipPath id="SVGID_00000008114267217263546060000014784051672682195844_">
					<use xlink:href="#SVGID_1_"  style="overflow:visible;"/>
				</clipPath>
				<g style="clip-path:url(#SVGID_00000008114267217263546060000014784051672682195844_);">
					<g>
						<path d="M750.895,648.036l18.182-10.362l18.064,31.288l2.014-1.147l-18.063-31.288l18.182-10.361l18.064,31.288l2.015-1.148
							l-18.064-31.287l0,0l7.94-4.524c0.557-0.318,0.56-1.352,0.007-2.311c-0.274-0.474-0.636-0.841-0.999-1.051
							c-0.363-0.209-0.727-0.262-1.006-0.106l-7.943,4.526l-2.014,1.148L769.09,633.06l-2.014,1.147l-18.182,10.362l-2.017,1.149
							l-18.18,10.36l-2.016,1.149l-18.182,10.362l-2.014,1.148l-18.182,10.362l-2.014,1.148l-18.182,10.361l-2.014,1.148
							l-18.183,10.362l-2.013,1.147l-18.183,10.362l-2.013,1.147l-18.184,10.362l-2.012,1.147l-18.184,10.363l-2.013,1.147
							l-18.183,10.363l-2.013,1.147l-18.184,10.362l-2.012,1.147L526.73,771.18l-2.015,1.147l-18.182,10.362l-2.014,1.148
							l-7.943,4.526c-0.557,0.311-0.56,1.345-0.007,2.304c0.277,0.479,0.639,0.848,1.001,1.057c0.362,0.209,0.725,0.259,1.004,0.1
							l7.943-4.526h0l7.891,13.667c0.277,0.48,0.64,0.849,1.004,1.059c0.364,0.21,0.728,0.261,1.007,0.103
							c0.551-0.321,0.554-1.356,0.007-2.304l-7.894-13.672h0l18.182-10.361l18.066,31.292l2.015-1.148l-18.067-31.292h0
							l18.185-10.363l18.067,31.292l2.012-1.146l-18.066-31.292l0,0l18.184-10.362l18.066,31.292l2.012-1.147l-18.066-31.292
							l18.183-10.362h0l18.066,31.292l2.012-1.148l-18.065-31.291l18.184-10.363l18.066,31.291l2.012-1.146l-18.065-31.291h0
							l18.184-10.363l18.065,31.291l2.013-1.146l-18.066-31.291l18.184-10.363h0l18.065,31.291l2.013-1.147l-18.065-31.291
							l18.183-10.362l18.065,31.29l2.015-1.147l-18.065-31.291h0l18.182-10.361l18.065,31.289l2.015-1.148l-18.065-31.29h0
							l18.182-10.361l18.065,31.29l2.015-1.148l-18.065-31.29l18.182-10.361l18.065,31.289l2.016-1.15l-18.064-31.288l18.18-10.36
							l18.065,31.289l2.016-1.15L750.895,648.036z"/>
					</g>
					<g>
						<path d="M504.519,783.837l2.014-1.149l-18.066-31.292l18.182-10.361h0l18.067,31.292l2.014-1.147l-18.066-31.292h0
							l18.184-10.363l18.066,31.292l2.012-1.146l-18.066-31.292h0l18.183-10.362h0l18.065,31.291l2.013-1.147l-18.065-31.292
							l18.183-10.362h0l18.066,31.291l2.013-1.147l-18.065-31.292h0l18.184-10.363l18.065,31.291l2.012-1.147l-18.065-31.291
							l18.183-10.362l18.065,31.29l2.012-1.147l-18.065-31.29l18.183-10.362l18.065,31.29l2.013-1.146l-18.065-31.291h0
							l18.183-10.362l0,0l18.065,31.29l2.014-1.149l-18.065-31.289h0l18.182-10.361l18.065,31.29l2.014-1.149l-18.065-31.289h0
							l18.182-10.361l18.064,31.288l2.015-1.148l-18.065-31.288h0l18.182-10.362l18.064,31.289l2.016-1.149l-18.064-31.289
							l18.179-10.36l18.065,31.288l2.016-1.15l-18.064-31.288h0l18.182-10.361l18.064,31.288l2.014-1.148l-18.063-31.287h0
							l7.94-4.525c0.557-0.318,0.56-1.352,0.007-2.311c-0.277-0.476-0.639-0.843-1.001-1.052c-0.362-0.209-0.725-0.261-1.004-0.105
							l-7.943,4.526l-2.014,1.148l-18.182,10.362l-2.017,1.149l-18.179,10.36l-2.017,1.149l-18.182,10.362l-2.014,1.148
							l-18.182,10.362l-2.015,1.148l-18.182,10.362l-2.015,1.148l-18.183,10.362l-2.013,1.147l-18.183,10.363l-2.013,1.147
							l-18.183,10.362l-2.013,1.147l-18.184,10.362l-2.014,1.148l-18.183,10.362l-2.013,1.147l-18.183,10.363l-2.013,1.147
							l-18.184,10.363l-2.014,1.148l-18.182,10.362l-2.015,1.147l-18.185,10.364l-2.011,1.146l-7.943,4.526
							c-0.557,0.311-0.56,1.345-0.007,2.304c0.277,0.479,0.639,0.848,1.001,1.057c0.362,0.209,0.725,0.259,1.004,0.1l7.943-4.526
							l7.891,13.667c0.277,0.479,0.64,0.849,1.004,1.059c0.363,0.209,0.726,0.26,1.001,0.099c0.557-0.317,0.56-1.352,0.007-2.304
							l-7.891-13.667l18.185-10.363L504.519,783.837z"/>
					</g>
					<g>
						<path d="M466.268,759.446l-18.066-31.292l18.184-10.363l18.066,31.291l2.015-1.147l-18.066-31.292l18.182-10.361
							l18.066,31.291l2.015-1.147l-18.066-31.292h0l18.184-10.363l18.066,31.292l2.013-1.147l-18.066-31.292l18.183-10.361
							l18.066,31.291l2.013-1.147l-18.065-31.292l18.182-10.362l18.065,31.291l2.014-1.148l-18.065-31.291h0l18.184-10.362
							l18.065,31.291l2.012-1.148l-18.065-31.29l18.183-10.362l18.065,31.29l2.012-1.147l-18.065-31.29h0l18.183-10.362
							l18.065,31.289l2.013-1.147l-18.065-31.29h0l18.183-10.362l18.065,31.289l2.015-1.148l-18.065-31.29h0l18.182-10.361
							l18.064,31.288l2.015-1.148l-18.065-31.289h0l18.182-10.361h0l18.064,31.289l2.015-1.148l-18.065-31.288l0,0l18.182-10.361
							l18.065,31.289l2.016-1.15l-18.064-31.288h0l18.179-10.359l18.064,31.288l2.017-1.151l-18.064-31.287h0l7.94-4.525
							c0.557-0.318,0.56-1.352,0.007-2.311c-0.277-0.476-0.639-0.843-1.001-1.052c-0.362-0.209-0.725-0.261-1.004-0.105
							l-7.943,4.526l-2.018,1.15l-18.179,10.36l-2.017,1.149l-18.182,10.362l-2.015,1.147l-18.182,10.362l-2.015,1.148
							l-18.182,10.362l-2.014,1.148l-18.183,10.362l-2.013,1.147l-18.183,10.362l-2.013,1.147l-18.183,10.363l-2.013,1.147
							l-18.183,10.362l-2.014,1.148l-18.182,10.361l-2.014,1.148l-18.183,10.362l-2.013,1.147l-18.184,10.363l-2.015,1.148
							l-18.182,10.362l-2.014,1.148l-18.185,10.363l-2.012,1.146l-28.139,16.037c-0.557,0.31-0.56,1.344-0.007,2.304
							c0.274,0.478,0.635,0.846,0.999,1.056c0.363,0.209,0.727,0.261,1.006,0.102L446.19,729.3l18.067,31.292L466.268,759.446z"/>
					</g>
					<g>
						<path d="M488.73,658.868l18.182-10.362l18.066,31.291l2.014-1.147l-18.065-31.291h0l18.182-10.361h0l18.065,31.291
							l2.014-1.148l-18.065-31.29l18.183-10.362l18.065,31.289l2.013-1.146L549.32,624.34l18.183-10.362l18.065,31.289l2.013-1.147
							l-18.065-31.29h0l18.183-10.362l18.065,31.29l2.013-1.148l-18.064-31.289l18.182-10.361l18.065,31.289l2.015-1.148
							l-18.065-31.289h0l18.182-10.361l18.064,31.289l2.014-1.149l-18.064-31.288l0,0l18.182-10.361l0,0l18.064,31.288l2.014-1.148
							l-18.064-31.288l0,0l18.182-10.361l18.064,31.288l2.017-1.15l-18.064-31.287h0l7.94-4.525c0.557-0.318,0.56-1.352,0.007-2.311
							c-0.277-0.476-0.639-0.843-1.001-1.052c-0.362-0.209-0.725-0.261-1.004-0.105l-7.943,4.526l-2.018,1.149l-18.182,10.362
							l-2.014,1.148l-18.182,10.361l-2.015,1.148l-18.182,10.361l-2.014,1.148l-18.183,10.362l-2.014,1.147l-18.183,10.362
							l-2.013,1.147l-18.183,10.362l-2.013,1.147l-18.183,10.362l-2.015,1.148l-18.182,10.361l-2.014,1.147l-18.182,10.362
							l-2.014,1.148l-18.184,10.362l-2.015,1.148l-18.182,10.361l-2.015,1.148l-18.185,10.363l-2.012,1.146l-48.339,27.547
							c-0.551,0.314-0.554,1.348-0.007,2.304c0.277,0.48,0.64,0.849,1.004,1.059c0.364,0.21,0.728,0.261,1.007,0.102l48.335-27.545
							l18.066,31.292l2.012-1.146l-18.066-31.292l18.184-10.363l18.066,31.292l2.015-1.147l-18.066-31.292l18.182-10.361h0
							l18.066,31.292l2.015-1.148l-18.066-31.291h0l18.184-10.362l18.066,31.291l2.013-1.147L488.73,658.868z"/>
					</g>
					<g>
						<path d="M428.271,647.134l18.182-10.361h0l18.064,31.288l2.014-1.149l-18.063-31.287h0l18.184-10.363h0l18.063,31.287
							l2.014-1.148l-18.063-31.287l18.182-10.361l18.064,31.287l2.014-1.148l-18.063-31.287l18.181-10.361l18.064,31.287
							l2.015-1.147l-18.063-31.288l18.183-10.362l18.063,31.287l2.013-1.147l-18.063-31.287h0l18.183-10.362l18.063,31.287
							l2.014-1.146l-18.064-31.288h0l18.183-10.362l18.063,31.287l2.014-1.147l-18.063-31.287h0l18.183-10.361l0,0l18.064,31.288
							l2.014-1.148l-18.063-31.287h0l18.182-10.361l18.064,31.287l2.014-1.148l-18.063-31.287h0l18.182-10.361l18.064,31.287
							l2.015-1.148l-18.064-31.287l0,0l7.943-4.526c0.557-0.318,0.56-1.352,0.007-2.311c-0.277-0.476-0.64-0.844-1.003-1.053
							s-0.726-0.261-1.001-0.104l-7.946,4.528l-2.015,1.148l-18.182,10.361l-2.014,1.148l-18.182,10.361l-2.014,1.148L567.647,563.1
							l-2.014,1.148L547.45,574.61l-2.014,1.147l-18.183,10.362l-2.013,1.147l-18.183,10.362l-2.015,1.149l-18.182,10.361
							l-2.015,1.148l-18.182,10.361l-2.014,1.148l-18.184,10.362l-2.015,1.148l-18.182,10.361l-2.015,1.148l-18.184,10.363
							l-2.012,1.146l-68.535,39.056c-0.551,0.314-0.554,1.349-0.007,2.304c0.277,0.48,0.64,0.849,1.004,1.059
							c0.364,0.21,0.728,0.261,1.007,0.102l68.532-39.054l18.063,31.287l2.012-1.146l-18.063-31.288l18.184-10.363h0l18.064,31.288
							l2.014-1.149L428.271,647.134z"/>
					</g>
					<g>
						<path d="M383.993,621.569l2.012-1.146l-18.065-31.291h0l18.184-10.362h0l18.065,31.291l2.015-1.148l-18.065-31.291h0
							l18.182-10.361h0l18.065,31.29l2.015-1.148l-18.065-31.29l18.183-10.362h0l18.065,31.29l2.014-1.148l-18.065-31.29h0
							l18.181-10.36l18.065,31.29l2.016-1.149l-18.065-31.289l18.181-10.36l18.064,31.289l2.016-1.149l-18.064-31.289l18.183-10.361
							h0l18.064,31.289l2.013-1.148l-18.064-31.288h0l18.183-10.361l18.064,31.288l2.014-1.148l-18.064-31.288h0l18.182-10.361
							l18.064,31.288l2.014-1.147l-18.063-31.288l18.182-10.361h0l18.063,31.288l2.015-1.148l-18.064-31.288h0l7.943-4.526
							c0.551-0.321,0.554-1.355,0.007-2.311c-0.277-0.476-0.64-0.843-1.004-1.054c-0.364-0.21-0.728-0.263-1.007-0.107l-7.943,4.527
							l-2.015,1.148l-18.182,10.361l-2.014,1.148l-18.182,10.362l-2.014,1.147l-18.182,10.362l-2.014,1.148l-18.183,10.362
							l-2.016,1.149l-18.181,10.361l-2.015,1.148l-18.181,10.361l-2.015,1.148l-18.183,10.362l-2.014,1.148l-18.182,10.362
							l-2.014,1.148l-18.184,10.362l-2.013,1.147L255,648.89c-0.557,0.311-0.56,1.345-0.007,2.304
							c0.277,0.479,0.64,0.849,1.003,1.058c0.363,0.21,0.726,0.26,1.001,0.099l108.929-62.073L383.993,621.569z"/>
					</g>
					<g>
						<path d="M363.927,586.813l2.012-1.147l-18.064-31.288h0l18.184-10.362h0l18.063,31.288l2.015-1.148l-18.064-31.288
							l18.182-10.361l18.063,31.286l2.015-1.147l-18.063-31.287h0l18.183-10.362l18.063,31.286l2.015-1.148l-18.062-31.286
							l18.181-10.36h0l18.062,31.285l2.016-1.149l-18.062-31.285l0,0l18.18-10.36l18.062,31.284l2.016-1.149l-18.062-31.284h0
							l18.183-10.361l18.062,31.284l2.013-1.148l-18.061-31.284l18.183-10.361l18.061,31.283l2.014-1.148l-18.061-31.283h0
							l18.182-10.361l18.06,31.282l2.015-1.148l-18.061-31.281l0,0l7.943-4.526c0.551-0.321,0.554-1.355,0.007-2.311
							c-0.277-0.476-0.64-0.844-1.004-1.054c-0.364-0.21-0.728-0.263-1.007-0.107l-7.943,4.527l-2.014,1.148l-18.182,10.362
							l-2.014,1.147l-18.182,10.362l-2.014,1.148l-18.182,10.362l-2.016,1.149l-18.18,10.361l-2.016,1.149l-18.181,10.361
							l-2.015,1.148l-18.183,10.362l-2.015,1.148l-18.182,10.362l-2.014,1.148l-18.184,10.362l-2.013,1.147l-129.123,73.586
							c-0.557,0.31-0.56,1.344-0.007,2.304c0.277,0.479,0.64,0.849,1.003,1.059c0.363,0.209,0.726,0.259,1.001,0.099l129.126-73.582
							L363.927,586.813z"/>
					</g>
					<g>
						<path d="M343.861,552.058l2.013-1.147l-18.065-31.291l18.183-10.362l0,0l18.065,31.29l2.015-1.147l-18.065-31.291h0
							l18.182-10.361h0l18.065,31.29l2.015-1.148l-18.065-31.29h0l18.183-10.362h0l18.065,31.289l2.016-1.149l-18.064-31.289
							l18.18-10.36l18.065,31.289l2.016-1.15l-18.064-31.288l18.18-10.36l18.064,31.289l2.016-1.149l-18.064-31.289l18.182-10.362
							l18.064,31.288l2.014-1.147l-18.064-31.288l0,0l18.182-10.361l18.064,31.288l2.014-1.148l-18.063-31.287l0,0l7.94-4.524
							c0.557-0.318,0.56-1.352,0.007-2.311c-0.274-0.474-0.635-0.841-0.999-1.05c-0.363-0.21-0.727-0.262-1.006-0.107l-7.943,4.526
							l-2.014,1.148l-18.182,10.362l-2.014,1.148l-18.182,10.362l-2.017,1.149l-18.18,10.36l-2.016,1.149l-18.18,10.361
							l-2.016,1.149l-18.183,10.362l-2.014,1.148l-18.182,10.361l-2.015,1.148l-18.183,10.363l-2.013,1.147L174.477,602.4
							c-0.557,0.31-0.56,1.344-0.007,2.304c0.277,0.479,0.639,0.848,1.001,1.057c0.362,0.209,0.725,0.259,1.004,0.1l149.321-85.093
							L343.861,552.058z"/>
					</g>
					<g>
						<path d="M323.796,517.303l2.012-1.147l-148.35-256.957c-0.277-0.476-0.639-0.844-1.001-1.053
							c-0.362-0.209-0.725-0.26-1.004-0.105c-0.557,0.318-0.56,1.351-0.007,2.31L323.796,517.303z"/>
					</g>
					<g>
						<path d="M343.992,505.794l2.014-1.148L217.72,282.444c-0.274-0.474-0.636-0.842-0.999-1.051s-0.728-0.261-1.006-0.106
							c-0.557,0.318-0.56,1.351-0.007,2.31L343.992,505.794z"/>
					</g>
					<g>
						<path d="M585.045,830.325l2.012-1.146l-18.066-31.292h0l18.184-10.362l18.066,31.291l2.012-1.146l-18.065-31.292h0
							l18.184-10.362h0l18.065,31.291l2.012-1.147l-18.065-31.291l18.185-10.362h0l18.065,31.29l2.012-1.147l-18.065-31.29h0
							l18.184-10.362l18.065,31.289l2.012-1.146l-18.065-31.29h0l18.184-10.362l18.065,31.288l2.012-1.147l-18.064-31.288h0
							l18.184-10.362h0l18.064,31.288l2.014-1.149l-18.063-31.287h0l18.182-10.361l18.063,31.286l2.015-1.147l-18.063-31.287h0
							l18.182-10.361l0,0l18.062,31.286l2.015-1.148l-18.063-31.286l0,0l18.183-10.361l18.063,31.285l2.015-1.149l-18.062-31.285
							l0,0l18.18-10.36l18.062,31.284l2.016-1.149l-18.061-31.284h0l18.183-10.361l18.062,31.284l2.014-1.148l-18.062-31.284h0
							l18.183-10.361l18.061,31.283l2.014-1.148l-18.061-31.283h0l18.182-10.361h0l18.061,31.283l2.014-1.149l-18.061-31.281l0,0
							l7.943-4.526c0.551-0.321,0.554-1.355,0.007-2.311c-0.277-0.476-0.64-0.844-1.004-1.054c-0.364-0.21-0.728-0.263-1.007-0.107
							l-7.943,4.526l-2.014,1.148l-18.182,10.362l-2.014,1.147l-18.182,10.362l-2.014,1.147l-18.182,10.362l-2.016,1.149
							l-18.18,10.361l-2.016,1.149l-18.183,10.362l-2.015,1.148l-18.182,10.361l-2.014,1.148l-18.182,10.361l-2.015,1.148
							l-18.183,10.362l-2.013,1.147l-18.184,10.362l-2.013,1.147l-18.184,10.363l-2.012,1.146l-18.184,10.363l-2.013,1.147
							l-18.184,10.362l-2.012,1.147l-18.184,10.363l-2.012,1.146l-18.185,10.363l-2.014,1.148l-7.943,4.526
							c-0.557,0.311-0.56,1.345-0.007,2.304c0.277,0.48,0.639,0.848,1.001,1.058c0.362,0.209,0.725,0.259,1.004,0.1l7.943-4.526
							l7.891,13.667c0.277,0.479,0.64,0.849,1.004,1.059c0.364,0.21,0.728,0.261,1.006,0.102c0.551-0.322,0.554-1.356,0.007-2.304
							l-7.893-13.672l18.185-10.362L585.045,830.325z"/>
					</g>
					<g>
						<path d="M364.188,494.284l2.015-1.148L257.981,305.688c-0.274-0.474-0.636-0.841-0.999-1.051s-0.728-0.262-1.006-0.107
							c-0.557,0.318-0.56,1.352-0.007,2.311L364.188,494.284z"/>
					</g>
					<g>
						<path d="M625.306,853.57l2.012-1.146l-18.066-31.292l18.184-10.362l18.066,31.291l2.012-1.146l-18.066-31.292h0l18.184-10.362
							l18.065,31.291l2.012-1.146l-18.065-31.291h0l18.185-10.362h0l18.064,31.29l2.012-1.146l-18.065-31.29l18.184-10.362
							l18.065,31.288l2.012-1.146l-18.065-31.289l0,0l18.184-10.362h0l18.064,31.289l2.015-1.148l-18.065-31.288h0l18.182-10.361
							l18.064,31.288l2.014-1.148l-18.063-31.287l18.182-10.361l18.064,31.287l2.014-1.148l-18.063-31.287h0l18.183-10.362
							l18.063,31.286l2.015-1.148l-18.062-31.286l18.181-10.36l18.063,31.285l2.016-1.149l-18.062-31.285l18.183-10.361h0
							l18.062,31.284l2.014-1.147l-18.062-31.284h0l18.183-10.361l18.062,31.284l2.014-1.147l-18.062-31.284h0l18.182-10.361
							l18.061,31.282l2.014-1.147l-18.061-31.283h0L869.8,672.66l18.061,31.282l2.014-1.148l-18.061-31.281l0,0l7.943-4.526
							c0.551-0.321,0.554-1.355,0.007-2.311c-0.277-0.476-0.64-0.843-1.004-1.054c-0.364-0.21-0.728-0.263-1.007-0.107l-7.943,4.527
							l-2.014,1.148l-18.182,10.361l-2.014,1.148l-18.182,10.362l-2.014,1.147l-18.182,10.362l-2.014,1.147l-18.183,10.362
							l-2.016,1.149l-18.181,10.361l-2.015,1.148L748.63,737.1l-2.015,1.148l-18.182,10.362l-2.015,1.148l-18.182,10.361
							l-2.015,1.148l-18.184,10.362l-2.012,1.147l-18.184,10.363l-2.012,1.146l-18.184,10.363l-2.012,1.147L627.45,806.16
							l-2.012,1.147l-18.184,10.363l-2.012,1.146l-18.184,10.363l-2.012,1.146l-7.946,4.528c-0.557,0.311-0.56,1.345-0.007,2.304
							c0.277,0.48,0.64,0.849,1.003,1.059c0.363,0.21,0.726,0.26,1.001,0.099l7.946-4.528l7.894,13.673
							c0.274,0.478,0.636,0.846,0.999,1.056c0.363,0.209,0.728,0.26,1.006,0.102c0.557-0.317,0.56-1.352,0.007-2.304l-7.894-13.673
							l18.185-10.362L625.306,853.57z"/>
					</g>
					<g>
						<path d="M385.995,625.036l18.063,31.287l2.012-1.147l-18.063-31.287l18.184-10.362h0l18.063,31.287l2.015-1.148
							l-18.063-31.287l18.182-10.361h0l18.064,31.288l2.014-1.148l-18.063-31.287h0l18.183-10.362l18.064,31.287l2.014-1.147
							L448.6,589.359l18.181-10.361l18.064,31.287l2.014-1.147l-18.063-31.288h0l18.181-10.361h0l18.064,31.288l2.015-1.149
							l-18.063-31.287l18.183-10.362l18.063,31.287l2.013-1.147l-18.063-31.287l18.183-10.362l18.063,31.287l2.014-1.148
							l-18.064-31.287l0,0l18.183-10.361l0,0l18.063,31.288l2.014-1.148l-18.063-31.287l18.182-10.361h0l18.063,31.287l2.015-1.148
							l-18.063-31.287l18.182-10.361h0l18.064,31.288l2.014-1.149l-18.063-31.287h0l7.943-4.527c0.557-0.318,0.56-1.352,0.007-2.311
							c-0.277-0.476-0.64-0.844-1.003-1.053c-0.363-0.209-0.726-0.261-1.001-0.104l-7.946,4.528l-2.014,1.148l-18.182,10.361
							l-2.015,1.148l-18.182,10.362l-2.014,1.147l-18.183,10.362l-2.014,1.147l-18.183,10.362l-2.014,1.147l-18.183,10.362
							l-2.015,1.148l-18.181,10.361l-2.015,1.149l-18.182,10.361l-2.015,1.148l-18.183,10.362l-2.015,1.148l-18.182,10.361
							l-2.015,1.148l-18.184,10.362l-2.012,1.147l-88.732,50.565c-0.557,0.31-0.56,1.345-0.007,2.304
							c0.277,0.479,0.64,0.849,1.004,1.059c0.364,0.21,0.728,0.261,1.007,0.103L385.995,625.036L385.995,625.036z"/>
					</g>
					<g>
						<path d="M384.386,482.774l2.016-1.149l-88.153-152.688c-0.277-0.476-0.64-0.844-1.004-1.054
							c-0.363-0.21-0.728-0.262-1.006-0.106c-0.557,0.317-0.56,1.351-0.007,2.311L384.386,482.774z"/>
					</g>
					<g>
						<path d="M730.303,798.34l18.182-10.361l18.066,31.291l2.014-1.149l-18.065-31.29l18.182-10.361l18.065,31.291l2.014-1.148
							l-18.064-31.29l18.183-10.362l18.065,31.289l2.015-1.147l-18.065-31.291l18.181-10.361l18.065,31.29l2.015-1.149
							l-18.065-31.289h0l18.183-10.362l18.064,31.289l2.013-1.147l-18.064-31.289h0l18.183-10.361l18.064,31.288l2.014-1.147
							l-18.064-31.288l18.182-10.361l18.064,31.288l2.014-1.147l-18.064-31.288h0l18.183-10.361h0l18.064,31.288l2.014-1.147
							l-18.064-31.288h0l18.182-10.361l18.064,31.288l2.014-1.148l-18.063-31.288l7.943-4.526c0.557-0.318,0.56-1.352,0.007-2.311
							c-0.277-0.476-0.64-0.844-1.004-1.054c-0.364-0.21-0.728-0.263-1.007-0.107l-7.943,4.527l-2.015,1.148l-18.182,10.361
							l-2.014,1.148l-18.182,10.362l-2.014,1.147l-18.182,10.362l-2.014,1.147l-18.183,10.362l-2.014,1.147l-18.183,10.362
							l-2.015,1.148l-18.181,10.361l-2.015,1.148l-18.183,10.362l-2.014,1.148l-18.182,10.362l-2.014,1.148l-18.182,10.361
							l-2.015,1.148l-18.184,10.363l-2.012,1.146l-18.184,10.363l-2.012,1.147l-18.184,10.363l-2.012,1.147l-18.185,10.363
							l-2.012,1.146l-18.185,10.363l-2.011,1.146l-7.946,4.528c-0.557,0.31-0.56,1.345-0.007,2.304
							c0.277,0.479,0.64,0.849,1.003,1.059c0.363,0.21,0.726,0.26,1.001,0.099l7.946-4.528l7.894,13.673
							c0.274,0.478,0.636,0.846,0.999,1.056c0.363,0.21,0.728,0.261,1.006,0.102c0.557-0.318,0.56-1.352,0.007-2.304l-7.894-13.672
							h0l18.185-10.362h0l18.067,31.292l2.012-1.147l-18.066-31.292l18.185-10.363l18.066,31.292l2.012-1.146l-18.066-31.292
							l18.185-10.362l18.066,31.292l2.012-1.146l-18.066-31.292h0l18.185-10.362h0l18.065,31.291l2.012-1.147l-18.066-31.291h0
							l18.184-10.362h0l18.066,31.291l2.014-1.149L730.303,798.34z"/>
					</g>
					<g>
						<path d="M404.581,471.264l2.016-1.149l-68.087-117.933c-0.277-0.476-0.64-0.844-1.004-1.055
							c-0.364-0.21-0.728-0.262-1.007-0.106c-0.551,0.321-0.554,1.354-0.007,2.31L404.581,471.264z"/>
					</g>
					<g>
						<path d="M424.777,459.755l2.016-1.15l-48.021-83.177c-0.277-0.476-0.64-0.845-1.004-1.055s-0.728-0.262-1.007-0.107
							c-0.551,0.321-0.554,1.355-0.007,2.311L424.777,459.755z"/>
					</g>
					<g>
						<path d="M932.01,775.776l18.183-10.361l0,0l18.064,31.289l2.015-1.148l-18.065-31.289h0l18.182-10.361h0l18.064,31.288
							l2.014-1.148l-18.064-31.288l0,0l18.182-10.361l18.064,31.288l2.017-1.151l-18.064-31.287l0,0l7.94-4.524
							c0.557-0.318,0.56-1.352,0.007-2.311c-0.277-0.476-0.64-0.844-1.003-1.053c-0.363-0.21-0.726-0.261-1.001-0.104l-7.943,4.526
							l-2.018,1.149l-18.182,10.362l-2.014,1.148L950.205,760.8l-2.015,1.148l-18.183,10.361l-2.014,1.148l-18.183,10.362
							l-2.014,1.147l-18.183,10.362l-2.013,1.147l-18.183,10.362l-2.013,1.147l-18.183,10.362l-2.015,1.148l-18.182,10.361
							l-2.014,1.147l-18.184,10.363l-2.015,1.148l-18.182,10.361l-2.015,1.148l-18.182,10.361l-2.015,1.148l-18.185,10.363
							l-2.012,1.146l-18.185,10.363l-2.012,1.146l-18.185,10.363l-2.011,1.146l-7.946,4.528c-0.551,0.314-0.554,1.349-0.007,2.304
							c0.277,0.479,0.64,0.849,1.004,1.059c0.364,0.21,0.728,0.261,1.007,0.102l7.943-4.526l7.891,13.667
							c0.277,0.48,0.639,0.848,1.001,1.057c0.362,0.209,0.725,0.259,1.004,0.101c0.557-0.318,0.56-1.353,0.007-2.304l-7.891-13.668
							l18.185-10.363l18.066,31.292l2.012-1.146l-18.066-31.292l18.184-10.363l18.066,31.291l2.012-1.145l-18.065-31.292
							L768.421,869l18.066,31.292l2.015-1.147l-18.066-31.292h0l18.182-10.361l18.066,31.292l2.015-1.148l-18.066-31.291h0
							l18.182-10.361h0l18.065,31.291l2.014-1.148l-18.065-31.291h0l18.184-10.363l18.066,31.291l2.014-1.148l-18.065-31.291h0
							l18.182-10.361h0l18.065,31.291l2.014-1.148l-18.065-31.291l18.183-10.362l18.065,31.289l2.013-1.146l-18.065-31.291h0
							l18.183-10.362l18.065,31.289l2.013-1.147l-18.065-31.29h0l18.183-10.362l18.065,31.289l2.013-1.148l-18.064-31.289
							l18.182-10.361l18.065,31.289l2.014-1.147L932.01,775.776L932.01,775.776z"/>
					</g>
					<g>
						<path d="M444.976,448.243l2.014-1.149l-27.956-48.422c-0.277-0.476-0.64-0.844-1.004-1.054
							c-0.363-0.21-0.726-0.261-1.001-0.104c-0.557,0.318-0.56,1.352-0.007,2.311L444.976,448.243z"/>
					</g>
					<g>
						<path d="M786.357,946.556l2.011-1.147l-18.066-31.292l18.184-10.363l18.067,31.292l2.014-1.147l-18.066-31.292h0
							l18.182-10.361l18.066,31.291l2.015-1.147l-18.066-31.292h0l18.182-10.361h0l18.065,31.291l2.015-1.148l-18.066-31.291h0
							l18.184-10.362l18.066,31.291l2.013-1.147l-18.065-31.292l18.182-10.362l18.065,31.291l2.014-1.147l-18.065-31.291h0
							l18.184-10.362l18.065,31.291l2.012-1.148l-18.065-31.29l18.183-10.362l18.065,31.29l2.012-1.147l-18.065-31.29h0
							l18.183-10.362l18.065,31.29l2.013-1.147l-18.065-31.29l18.183-10.362l18.064,31.29l2.014-1.147l-18.065-31.29l18.183-10.362
							l18.064,31.289l2.015-1.148l-18.065-31.288l0,0l18.182-10.361h0l18.064,31.289l2.015-1.148l-18.065-31.289h0l18.182-10.361
							l18.065,31.288l2.016-1.15l-18.064-31.288l0,0l18.179-10.359l18.064,31.288l2.017-1.15l-18.063-31.287l7.94-4.524
							c0.557-0.318,0.56-1.352,0.007-2.311c-0.277-0.476-0.639-0.843-1.001-1.052c-0.362-0.209-0.725-0.261-1.004-0.105
							l-7.943,4.526l-2.018,1.15l-18.179,10.36l-2.017,1.149l-18.182,10.362l-2.015,1.147l-18.182,10.362l-2.015,1.148
							l-18.183,10.362l-2.014,1.147l-18.183,10.362l-2.013,1.147l-18.183,10.362l-2.013,1.147l-18.183,10.363l-2.013,1.147
							l-18.184,10.363l-2.014,1.147l-18.182,10.362l-2.014,1.148l-18.184,10.362l-2.014,1.148l-18.182,10.361l-2.015,1.148
							l-18.182,10.361l-2.014,1.148l-18.185,10.363l-2.012,1.146l-18.185,10.364l-2.011,1.146l-7.943,4.527
							c-0.557,0.31-0.56,1.344-0.007,2.304c0.274,0.478,0.636,0.846,0.999,1.056c0.363,0.209,0.728,0.261,1.006,0.102l7.943-4.526
							l7.891,13.667c0.277,0.479,0.639,0.848,1.001,1.057c0.362,0.209,0.725,0.259,1.004,0.101c0.557-0.318,0.56-1.353,0.007-2.304
							l-7.891-13.667l18.185-10.363L786.357,946.556z"/>
					</g>
					<g>
						<path d="M932.141,729.512l18.182-10.361l0,0l18.063,31.288l2.015-1.148l-18.064-31.287l0,0l7.943-4.526
							c0.557-0.318,0.56-1.352,0.007-2.311c-0.277-0.476-0.64-0.844-1.003-1.053c-0.363-0.209-0.726-0.261-1.001-0.104l-7.946,4.528
							l-2.015,1.148l-18.182,10.361l-2.015,1.148l-18.182,10.362l-2.014,1.147l-18.183,10.361l-2.014,1.148l-18.183,10.362
							l-2.014,1.147l-18.183,10.362l-2.013,1.147l-18.183,10.362l-2.015,1.149l-18.182,10.361l-2.015,1.148l-18.183,10.362
							l-2.015,1.148l-18.182,10.361l-2.015,1.148l-18.182,10.361l-2.015,1.148l-18.184,10.363l-2.012,1.146l-18.185,10.363
							l-2.012,1.146l-18.185,10.363l-2.012,1.146L667.58,875.67l-2.011,1.146l-7.946,4.528c-0.551,0.314-0.554,1.349-0.007,2.304
							c0.277,0.479,0.64,0.849,1.004,1.059c0.364,0.21,0.728,0.261,1.007,0.102l7.943-4.526h0l7.891,13.668
							c0.276,0.479,0.638,0.847,1,1.057c0.362,0.209,0.725,0.259,1.004,0.1c0.557-0.317,0.56-1.352,0.007-2.304l-7.891-13.667l0,0
							l18.185-10.363l18.063,31.287l2.012-1.146l-18.063-31.287l18.184-10.363l18.063,31.287l2.012-1.146l-18.063-31.287
							l18.184-10.363l18.064,31.287l2.012-1.146l-18.063-31.288l18.184-10.362h0l18.064,31.287l2.014-1.148l-18.063-31.287
							l18.182-10.361h0l18.064,31.287l2.014-1.148l-18.063-31.287h0l18.182-10.361l18.064,31.287l2.015-1.148l-18.064-31.287h0
							l18.184-10.362h0l18.063,31.287l2.014-1.148l-18.063-31.287l18.181-10.361l18.064,31.287l2.015-1.147l-18.063-31.288
							l18.183-10.362l18.063,31.287l2.013-1.147l-18.063-31.287h0l18.183-10.362l18.063,31.287l2.014-1.147l-18.064-31.287h0
							l18.183-10.362l18.064,31.287l2.013-1.148l-18.063-31.287h0l18.183-10.361l0,0l18.064,31.288l2.013-1.148l-18.063-31.287l0,0
							l18.182-10.361l18.064,31.288l2.015-1.148L932.141,729.512L932.141,729.512z"/>
					</g>
					<g>
						<path d="M465.172,436.734l2.014-1.149l-7.891-13.668c-0.277-0.476-0.639-0.843-1-1.052c-0.362-0.209-0.725-0.26-1.004-0.105
							c-0.557,0.318-0.56,1.351-0.007,2.311L465.172,436.734z"/>
					</g>
					<g>
						<path d="M505.434,459.979l2.015-1.148l-7.891-13.668c-0.277-0.476-0.639-0.844-1.001-1.053s-0.725-0.26-1.004-0.105
							c-0.557,0.317-0.56,1.351-0.007,2.31L505.434,459.979z"/>
					</g>
					<g>
						<path d="M545.695,483.224l2.015-1.148l-7.891-13.668c-0.277-0.476-0.639-0.843-1.001-1.052
							c-0.362-0.209-0.725-0.26-1.004-0.105c-0.557,0.318-0.56,1.352-0.007,2.311L545.695,483.224z"/>
					</g>
					<g>
						<path d="M949.668,950.469L949.668,950.469l18.066,31.291l2.012-1.146l-18.066-31.292l18.184-10.363h0l18.066,31.291
							l2.012-1.146l-18.066-31.292l18.184-10.362h0l18.066,31.291l2.012-1.147l-18.065-31.291h0l18.184-10.363l18.065,31.291
							l2.012-1.148l-18.065-31.29l18.183-10.362l18.065,31.29l2.014-1.148l-18.065-31.29l18.182-10.361l18.065,31.29l2.015-1.148
							l-18.065-31.289l18.183-10.362l18.065,31.289l2.015-1.149l-18.064-31.289l18.18-10.36l18.064,31.288l2.016-1.149
							l-18.065-31.289l18.18-10.36l18.065,31.289l2.016-1.149l-18.064-31.289l18.182-10.361h0l18.064,31.288l2.014-1.148
							l-18.064-31.288l18.182-10.361l18.064,31.288l2.014-1.148l-18.064-31.287l0,0l7.94-4.524c0.557-0.318,0.56-1.352,0.007-2.311
							c-0.274-0.474-0.635-0.841-0.999-1.051s-0.727-0.262-1.006-0.107l-7.943,4.527l-2.014,1.148l-18.182,10.361l-2.014,1.148
							l-18.182,10.362l-2.017,1.149l-18.18,10.36l-2.016,1.149l-18.18,10.361l-2.016,1.149l-18.183,10.362l-2.014,1.148
							l-18.182,10.361l-2.015,1.148l-18.183,10.363l-2.013,1.147l-18.183,10.363l-2.013,1.147l-18.184,10.363l-2.012,1.147
							l-18.184,10.363l-2.012,1.146l-18.184,10.363l-2.013,1.147l-18.184,10.362l-2.012,1.147l-18.184,10.363l-2.014,1.148
							l-18.182,10.362l-2.014,1.148l-7.943,4.526c-0.557,0.31-0.56,1.345-0.007,2.304c0.277,0.48,0.639,0.848,1.001,1.057
							c0.362,0.209,0.725,0.259,1.004,0.101l7.943-4.526l7.891,13.667c0.277,0.479,0.64,0.849,1.004,1.059
							c0.364,0.21,0.728,0.261,1.007,0.102c0.55-0.322,0.553-1.356,0.007-2.304l-7.894-13.673l18.182-10.361l18.066,31.292
							l2.015-1.148l-18.066-31.292l18.184-10.363h0l18.066,31.292l2.012-1.146l-18.066-31.292l18.183-10.362l18.066,31.291
							l2.013-1.146l-18.066-31.292L949.668,950.469z"/>
					</g>
					<g>
						<path d="M585.96,506.474l2.015-1.148l-7.894-13.674c-0.274-0.474-0.636-0.841-0.999-1.051
							c-0.363-0.209-0.728-0.262-1.005-0.106c-0.557,0.318-0.56,1.351-0.007,2.311L585.96,506.474z"/>
					</g>
					<g>
						<path d="M929.34,1008.243l18.067,31.292l2.012-1.146l-18.066-31.292l18.184-10.362h0l18.066,31.291l2.012-1.146
							l-18.066-31.292l18.185-10.362l18.065,31.291l2.012-1.147l-18.065-31.291h0l18.185-10.362h0l18.064,31.29l2.012-1.146
							l-18.065-31.29l18.184-10.362l18.065,31.288l2.012-1.146l-18.064-31.289l18.184-10.362l18.064,31.288l2.012-1.146
							l-18.064-31.288h0l18.184-10.362l18.064,31.288l2.015-1.148l-18.064-31.288l18.182-10.361h0l18.063,31.287l2.014-1.147
							l-18.063-31.287h0l18.183-10.362l18.063,31.286l2.016-1.148l-18.063-31.286h0l18.181-10.36h0l18.062,31.285l2.016-1.149
							l-18.062-31.285l18.181-10.36l18.062,31.285l2.016-1.15l-18.062-31.284h0l18.183-10.361l18.062,31.284l2.014-1.147
							l-18.061-31.284h0l18.182-10.361h0l18.061,31.283l2.014-1.147l-18.061-31.283h0l28.14-16.036
							c0.551-0.321,0.554-1.355,0.007-2.311c-0.277-0.476-0.64-0.844-1.004-1.054c-0.364-0.21-0.728-0.263-1.007-0.107
							l-28.139,16.036l-2.014,1.148l-18.182,10.362l-2.014,1.147l-18.182,10.362l-2.016,1.149l-18.18,10.361l-2.016,1.149
							l-18.181,10.361l-2.015,1.148l-18.183,10.362l-2.014,1.148l-18.182,10.362l-2.015,1.148l-18.183,10.363l-2.013,1.147
							l-18.184,10.363l-2.013,1.147l-18.184,10.363l-2.012,1.146l-18.184,10.363l-2.012,1.147l-18.184,10.363l-2.012,1.147
							l-18.184,10.363l-2.012,1.146l-18.185,10.363l-2.014,1.148l-7.943,4.526c-0.557,0.31-0.56,1.345-0.007,2.304
							c0.277,0.48,0.639,0.848,1.001,1.057c0.362,0.209,0.725,0.259,1.004,0.101l7.943-4.526l7.891,13.667
							c0.277,0.48,0.64,0.849,1.004,1.059c0.364,0.21,0.728,0.261,1.007,0.103c0.557-0.318,0.56-1.352,0.007-2.304l-7.894-13.672
							l0,0L929.34,1008.243z"/>
					</g>
					<g>
						<path d="M626.222,529.72l2.014-1.149l-7.894-13.674c-0.273-0.473-0.635-0.841-0.998-1.05c-0.363-0.21-0.728-0.262-1.006-0.106
							c-0.557,0.317-0.56,1.351-0.007,2.31L626.222,529.72z"/>
					</g>
					<g>
						<path d="M666.484,552.964l2.018-1.149l-7.891-13.668c-0.277-0.476-0.64-0.844-1.004-1.055
							c-0.364-0.21-0.728-0.262-1.007-0.107c-0.551,0.321-0.554,1.355-0.007,2.311L666.484,552.964z"/>
					</g>
					<g>
						<path d="M1027.93,1086.025l2.011-1.146l-18.063-31.287l18.184-10.363l18.063,31.287l2.012-1.146l-18.064-31.288l18.184-10.363
							l18.064,31.287l2.012-1.146l-18.063-31.287l18.184-10.363l18.063,31.287l2.012-1.147l-18.063-31.287l18.184-10.362
							l18.063,31.287l2.015-1.148l-18.064-31.287h0l18.182-10.361h0l18.063,31.287l2.015-1.148l-18.064-31.287h0l18.184-10.362
							l18.063,31.286l2.015-1.147l-18.064-31.288l18.182-10.361h0l18.063,31.287l2.015-1.147l-18.063-31.288l18.181-10.361
							l18.064,31.287l2.015-1.149l-18.063-31.287h0l18.183-10.362l18.064,31.287l2.013-1.147l-18.064-31.287l0,0l18.183-10.361
							l18.064,31.287l2.013-1.148l-18.063-31.287h0l68.533-39.055c0.557-0.318,0.56-1.352,0.006-2.311
							c-0.277-0.476-0.64-0.844-1.003-1.053s-0.726-0.261-1.001-0.104l-68.536,39.056l-2.014,1.148l-18.183,10.362l-2.013,1.147
							l-18.183,10.362l-2.015,1.148l-18.181,10.361l-2.015,1.149l-18.182,10.361l-2.015,1.148l-18.184,10.362l-2.014,1.148
							l-18.182,10.361l-2.015,1.148l-18.184,10.362l-2.012,1.147l-18.184,10.363l-2.012,1.146l-18.184,10.363l-2.012,1.146
							l-18.185,10.363l-2.012,1.146l-18.185,10.363l-2.012,1.146l-7.946,4.528c-0.557,0.31-0.56,1.345-0.007,2.304
							c0.277,0.479,0.64,0.849,1.004,1.059c0.364,0.21,0.728,0.261,1.007,0.102l7.943-4.526h0l7.891,13.667
							c0.274,0.478,0.636,0.846,0.999,1.056c0.363,0.209,0.728,0.26,1.005,0.101c0.557-0.317,0.56-1.352,0.007-2.304l-7.89-13.667
							l18.185-10.363L1027.93,1086.025z"/>
					</g>
					<g>
						<path d="M706.746,576.21l2.017-1.15l-7.891-13.668c-0.277-0.476-0.64-0.844-1.004-1.054s-0.728-0.262-1.007-0.107
							c-0.551,0.321-0.554,1.355-0.007,2.311L706.746,576.21z"/>
					</g>
					<g>
						<path d="M1068.192,1109.27l2.011-1.147l-18.063-31.287l18.184-10.363l18.064,31.287l2.011-1.146l-18.063-31.287l18.184-10.363
							l18.064,31.287l2.011-1.146l-18.063-31.287v0l18.184-10.362l0,0l18.063,31.288l2.015-1.148l-18.064-31.287h0l18.182-10.361h0
							l18.063,31.287l2.015-1.148l-18.064-31.287h0l18.183-10.363l18.064,31.287l2.013-1.148l-18.063-31.287h0l18.182-10.361h0
							l18.064,31.287l2.014-1.147l-18.063-31.288l18.181-10.361l18.064,31.287l2.014-1.147l-18.063-31.288l18.183-10.362
							l18.064,31.287l2.013-1.147l-18.064-31.287h0l18.183-10.362l18.064,31.287l2.013-1.147l-18.063-31.288l88.729-50.564
							c0.557-0.318,0.56-1.352,0.006-2.311c-0.277-0.476-0.64-0.844-1.003-1.053c-0.363-0.21-0.726-0.261-1.001-0.104
							l-88.733,50.566l-2.014,1.147l-18.183,10.362l-2.013,1.147l-18.183,10.362l-2.015,1.149l-18.182,10.361l-2.015,1.148
							l-18.182,10.361l-2.014,1.147l-18.184,10.363l-2.015,1.148l-18.182,10.361l-2.015,1.148l-18.184,10.363l-2.012,1.146
							l-18.185,10.363l-2.012,1.146l-18.185,10.363l-2.012,1.146l-18.185,10.363l-2.011,1.146l-7.946,4.528
							c-0.551,0.314-0.554,1.348-0.007,2.304c0.277,0.479,0.64,0.849,1.004,1.059c0.364,0.21,0.728,0.261,1.007,0.102l7.943-4.526
							l7.891,13.667c0.277,0.479,0.639,0.848,1.001,1.057c0.362,0.209,0.725,0.259,1.004,0.101c0.557-0.318,0.56-1.352,0.006-2.304
							l-7.891-13.667l18.185-10.363L1068.192,1109.27z"/>
					</g>
					<g>
						<path d="M989.68,1061.634l-18.066-31.292l18.185-10.362l18.066,31.291l2.012-1.146l-18.065-31.292l18.185-10.362
							l18.066,31.291l2.012-1.146l-18.066-31.292h0l18.185-10.362v0l18.065,31.292l2.012-1.147l-18.066-31.291l0,0l18.184-10.362h0
							l18.066,31.291l2.012-1.147l-18.065-31.291l18.184-10.362l18.066,31.291l2.014-1.149l-18.065-31.29l18.182-10.361
							l18.065,31.291l2.015-1.148l-18.065-31.29l18.183-10.362l0,0l18.065,31.29l2.015-1.147l-18.065-31.29l18.181-10.361
							l18.065,31.29l2.015-1.149l-18.064-31.289h0l18.181-10.36h0l18.064,31.289l2.015-1.149l-18.064-31.289h0l18.183-10.361
							l18.064,31.288l2.014-1.147l-18.064-31.289l18.182-10.361l18.065,31.288l2.013-1.148l-18.064-31.288h0l48.337-27.544
							c0.551-0.321,0.554-1.355,0.007-2.311c-0.277-0.476-0.64-0.844-1.004-1.054c-0.364-0.21-0.728-0.263-1.007-0.107
							l-48.336,27.546l-2.014,1.147l-18.182,10.362l-2.014,1.147l-18.182,10.362l-2.016,1.149l-18.181,10.361l-2.015,1.148
							l-18.181,10.361l-2.015,1.148l-18.183,10.363l-2.015,1.148l-18.182,10.362l-2.015,1.148L1050.4,980.84l-2.012,1.147
							l-18.184,10.363l-2.012,1.146l-18.184,10.363l-2.012,1.147l-18.184,10.363l-2.012,1.147l-18.185,10.363l-2.012,1.146
							l-18.185,10.363l-2.012,1.146l-7.946,4.528c-0.557,0.31-0.56,1.345-0.007,2.304c0.277,0.479,0.64,0.849,1.003,1.059
							c0.363,0.209,0.726,0.26,1.001,0.099l7.946-4.528h0l7.893,13.673c0.274,0.478,0.636,0.846,0.999,1.056
							s0.728,0.261,1.006,0.102c0.557-0.317,0.56-1.352,0.007-2.304l-7.894-13.672l0,0l18.185-10.362h0l18.067,31.292
							L989.68,1061.634z"/>
					</g>
					<g>
						<path d="M747.01,599.453l2.014-1.149l-7.891-13.668c-0.277-0.476-0.64-0.844-1.004-1.054c-0.363-0.21-0.726-0.261-1.001-0.104
							c-0.557,0.318-0.56,1.352-0.007,2.311L747.01,599.453z"/>
					</g>
					<g>
						<path d="M1108.457,1132.521l2.011-1.146l-18.067-31.292l18.185-10.363h0l18.067,31.292l2.011-1.146l-18.066-31.292
							l18.184-10.363l18.066,31.291l2.015-1.147l-18.066-31.292h0l18.182-10.361h0l18.065,31.291l2.015-1.148l-18.066-31.292
							l18.184-10.362l18.066,31.291l2.013-1.147l-18.065-31.292l18.182-10.362l18.066,31.291l2.013-1.148l-18.065-31.291
							l18.182-10.361l18.065,31.29l2.014-1.148l-18.065-31.29l18.183-10.362l18.065,31.29l2.012-1.147l-18.065-31.29h0
							l18.183-10.362l18.065,31.29l2.013-1.147l-18.065-31.29l108.926-62.074c0.557-0.318,0.56-1.352,0.007-2.311
							c-0.277-0.476-0.639-0.843-1.001-1.052c-0.362-0.209-0.725-0.261-1.004-0.105l-108.929,62.075l-2.013,1.147l-18.183,10.362
							l-2.013,1.147l-18.183,10.362l-2.015,1.148l-18.182,10.361l-2.014,1.147l-18.183,10.362l-2.014,1.148l-18.184,10.362
							l-2.015,1.148l-18.182,10.361l-2.014,1.148l-18.185,10.363l-2.012,1.146l-18.185,10.363l-2.012,1.146l-18.185,10.363
							l-2.011,1.146l-7.946,4.528c-0.551,0.314-0.554,1.348-0.007,2.304c0.277,0.479,0.64,0.849,1.004,1.059
							c0.364,0.21,0.728,0.261,1.007,0.102l7.943-4.526l7.891,13.667c0.277,0.479,0.639,0.848,1.001,1.057
							c0.362,0.209,0.725,0.259,1.004,0.1c0.557-0.317,0.56-1.352,0.007-2.304l-7.891-13.667l18.185-10.363L1108.457,1132.521z"/>
					</g>
					<g>
						<path d="M787.272,622.698l2.014-1.148l-7.89-13.667c-0.277-0.476-0.64-0.844-1.004-1.054
							c-0.363-0.209-0.726-0.261-1.001-0.104c-0.557,0.317-0.56,1.351-0.007,2.311L787.272,622.698z"/>
					</g>
					<g>
						<path d="M827.533,645.943l2.015-1.148l-7.891-13.668c-0.277-0.476-0.639-0.843-1.001-1.052
							c-0.362-0.209-0.725-0.26-1.004-0.105c-0.557,0.317-0.56,1.351-0.007,2.31L827.533,645.943z"/>
					</g>
					<g>
						<path d="M867.795,669.188l2.015-1.148l-7.891-13.668c-0.277-0.476-0.639-0.843-1.001-1.053
							c-0.362-0.209-0.725-0.26-1.004-0.105c-0.557,0.318-0.56,1.352-0.007,2.311L867.795,669.188z"/>
					</g>
					<g>
						<path d="M1130.651,1124.473l18.067,31.292l2.011-1.146l-18.066-31.293l18.185-10.362l18.066,31.292l2.015-1.147
							l-18.067-31.292l18.182-10.361l18.066,31.292l2.014-1.148l-18.066-31.292l18.184-10.362l0,0l18.066,31.292l2.012-1.148
							l-18.065-31.291l18.183-10.362l18.066,31.291l2.013-1.147l-18.065-31.291l0,0l18.182-10.361l18.066,31.291l2.013-1.148
							l-18.065-31.29l18.183-10.362l18.065,31.29l2.013-1.147l-18.065-31.291l18.183-10.362l18.065,31.29l2.013-1.146
							l-18.065-31.291l129.123-73.583c0.557-0.318,0.56-1.352,0.007-2.311c-0.277-0.476-0.639-0.843-1.001-1.052
							c-0.362-0.209-0.725-0.261-1.004-0.106l-129.124,73.587l-2.013,1.147l-18.183,10.363l-2.013,1.147l-18.183,10.362
							l-2.014,1.148l-18.182,10.362l-2.014,1.148l-18.183,10.362l-2.013,1.147l-18.184,10.363l-2.014,1.148l-18.182,10.361
							l-2.014,1.148l-18.185,10.363l-2.012,1.146l-18.185,10.363l-2.011,1.146l-7.943,4.526c-0.557,0.311-0.56,1.345-0.006,2.304
							c0.274,0.478,0.635,0.846,0.999,1.056c0.363,0.209,0.728,0.26,1.006,0.102l7.943-4.526h0l7.89,13.667
							c0.277,0.48,0.64,0.849,1.004,1.059c0.363,0.21,0.726,0.26,1.001,0.099c0.557-0.317,0.56-1.352,0.006-2.304l-7.891-13.667h0
							L1130.651,1124.473z"/>
					</g>
					<g>
						<path d="M908.057,692.433l2.014-1.148l-7.891-13.668c-0.277-0.476-0.639-0.844-1.001-1.053
							c-0.362-0.209-0.724-0.26-1.003-0.104c-0.557,0.317-0.56,1.351-0.007,2.311L908.057,692.433z"/>
					</g>
					<g>
						<path d="M948.322,715.684l2.015-1.148l-7.894-13.674c-0.274-0.474-0.636-0.841-0.999-1.051
							c-0.363-0.21-0.728-0.262-1.006-0.106c-0.557,0.317-0.56,1.351-0.007,2.31L948.322,715.684z"/>
					</g>
					<g>
						<path d="M988.583,738.928l2.018-1.149l-7.891-13.668c-0.277-0.476-0.64-0.845-1.004-1.055s-0.728-0.262-1.007-0.107
							c-0.557,0.318-0.56,1.351-0.007,2.311L988.583,738.928z"/>
					</g>
					<g>
						<path d="M1028.845,762.175l2.017-1.15l-7.891-13.668c-0.277-0.476-0.64-0.844-1.004-1.054
							c-0.364-0.21-0.728-0.262-1.007-0.107c-0.55,0.322-0.553,1.355-0.007,2.31L1028.845,762.175z"/>
					</g>
					<g>
						<path d="M1073.126,787.736L1073.126,787.736l7.94-4.524c0.557-0.318,0.56-1.352,0.006-2.311
							c-0.277-0.476-0.639-0.843-1.001-1.052c-0.362-0.209-0.725-0.261-1.004-0.105l-7.943,4.527l-2.017,1.15l-18.179,10.36
							l-2.017,1.149l-18.179,10.36l-2.017,1.149l-18.182,10.362l-2.014,1.148l-18.182,10.362l-2.015,1.148l-18.183,10.362
							l-2.013,1.147l-18.183,10.362l-2.013,1.147l-18.183,10.363l-2.013,1.147L909.55,876.35l-2.013,1.147l-18.184,10.362
							l-2.014,1.148l-18.183,10.362l-2.013,1.147L848.96,910.88l-2.015,1.148l-18.182,10.361l-2.014,1.148L808.568,933.9
							l-2.014,1.147l-18.185,10.364l-2.011,1.146l-7.943,4.526c-0.557,0.311-0.56,1.345-0.007,2.304
							c0.274,0.478,0.635,0.846,0.999,1.056c0.363,0.209,0.727,0.26,1.006,0.102l7.943-4.526l7.891,13.667
							c0.277,0.479,0.64,0.849,1.004,1.058c0.363,0.21,0.726,0.26,1.001,0.099c0.557-0.317,0.56-1.352,0.007-2.304l-7.891-13.667h0
							l18.185-10.363h0l18.067,31.292l2.015-1.148l-18.067-31.292h0L828.748,927l18.066,31.292l2.014-1.148l-18.066-31.292l0,0
							l18.182-10.361l18.066,31.292l2.014-1.148l-18.066-31.292l18.184-10.362l0,0l18.066,31.292l2.012-1.147l-18.065-31.292
							l18.183-10.362h0l18.066,31.291l2.013-1.147l-18.065-31.292h0l18.184-10.362l18.065,31.29l2.012-1.146l-18.065-31.291
							l18.183-10.362l18.065,31.29l2.013-1.147l-18.065-31.291l18.183-10.362h0l18.065,31.29l2.013-1.146l-18.065-31.291h0
							l18.183-10.362h0l18.065,31.29l2.013-1.147l-18.065-31.29h0l18.183-10.362l18.065,31.29l2.014-1.149l-18.064-31.289h0
							l18.182-10.361l18.065,31.289l2.014-1.149l-18.064-31.288l18.182-10.362l18.064,31.289l2.016-1.149l-18.064-31.289
							l18.179-10.36h0l18.064,31.288l2.016-1.15l-18.064-31.288h0l18.179-10.359l18.065,31.288l2.016-1.151L1073.126,787.736z"/>
					</g>
					<g>
						<path d="M1069.107,785.419l2.017-1.15l-7.891-13.668c-0.277-0.476-0.64-0.844-1.004-1.054
							c-0.363-0.21-0.728-0.262-1.006-0.107c-0.551,0.322-0.554,1.355-0.007,2.311L1069.107,785.419z"/>
					</g>
					<g>
						<path d="M1109.371,808.662l2.015-1.148l-7.891-13.668c-0.277-0.476-0.64-0.845-1.004-1.054s-0.726-0.261-1.001-0.104
							c-0.557,0.317-0.56,1.351-0.007,2.31L1109.371,808.662z"/>
					</g>
					<g>
						<path d="M848.813,961.754l18.066,31.292l2.015-1.148l-18.066-31.292l18.182-10.361l18.066,31.291l2.015-1.147l-18.066-31.292
							l18.184-10.362l18.066,31.292l2.012-1.147l-18.066-31.292l18.183-10.362l0,0l18.066,31.292l2.012-1.148l-18.065-31.291
							l18.184-10.363l18.066,31.291l2.012-1.146l-18.066-31.292l18.184-10.362h0l18.065,31.291l2.013-1.146l-18.066-31.291h0
							l18.184-10.363h0l18.065,31.291l2.013-1.147l-18.065-31.291l18.184-10.362l18.065,31.29l2.013-1.146l-18.065-31.29
							l18.183-10.362l18.065,31.29l2.015-1.148l-18.065-31.29l18.182-10.361l18.065,31.289l2.015-1.148l-18.065-31.29l18.182-10.361
							l18.065,31.288l2.016-1.149l-18.064-31.288h0l18.18-10.36l18.065,31.289l2.016-1.15L1072.994,834l18.179-10.36h0
							l18.064,31.288l2.017-1.15l-18.064-31.288l18.182-10.361l18.063,31.288l2.015-1.148l-18.064-31.287h0l7.94-4.524
							c0.557-0.318,0.56-1.352,0.006-2.311c-0.274-0.474-0.635-0.841-0.999-1.051c-0.363-0.209-0.728-0.262-1.006-0.107
							l-7.943,4.527l-2.014,1.148l-18.182,10.361l-2.017,1.15l-18.179,10.36l-2.017,1.149l-18.18,10.36l-2.016,1.149l-18.182,10.362
							l-2.015,1.148l-18.182,10.362l-2.014,1.148l-18.183,10.362l-2.013,1.147l-18.183,10.363l-2.013,1.147l-18.183,10.363
							l-2.013,1.147l-18.184,10.362l-2.013,1.147l-18.184,10.363l-2.013,1.147l-18.183,10.363l-2.013,1.147l-18.184,10.363
							l-2.014,1.148l-18.182,10.361l-2.015,1.148l-18.182,10.362l-2.015,1.148l-7.943,4.526c-0.557,0.311-0.56,1.345-0.007,2.304
							c0.277,0.479,0.639,0.848,1.001,1.057c0.362,0.209,0.725,0.259,1.004,0.101l7.943-4.526h0l7.891,13.667
							c0.277,0.479,0.64,0.849,1.004,1.059c0.364,0.21,0.728,0.261,1.007,0.103c0.551-0.322,0.554-1.356,0.007-2.304l-7.894-13.672
							l0,0L848.813,961.754z"/>
					</g>
					<g>
						<path d="M1149.633,831.907l2.015-1.148l-7.891-13.668c-0.277-0.476-0.641-0.844-1.004-1.054
							c-0.363-0.21-0.726-0.261-1.001-0.104c-0.557,0.318-0.56,1.352-0.007,2.311L1149.633,831.907z"/>
					</g>
					<g>
						<path d="M1443.433,990.11c-0.277-0.476-0.639-0.843-1.001-1.052c-0.362-0.209-0.725-0.261-1.004-0.105l-149.321,85.097
							l-2.013,1.147l-18.184,10.363l-2.013,1.147l-18.184,10.362l-2.014,1.148l-18.183,10.362l-2.013,1.147l-18.183,10.362
							l-2.013,1.147l-18.184,10.363l-2.014,1.148l-18.182,10.361l-2.015,1.148l-18.185,10.363l-2.011,1.146l-7.943,4.526
							c-0.557,0.311-0.56,1.345-0.006,2.304c0.274,0.478,0.636,0.846,0.999,1.056c0.363,0.209,0.728,0.26,1.006,0.102l7.943-4.526
							l7.891,13.667c0.277,0.479,0.64,0.849,1.004,1.059c0.363,0.209,0.726,0.26,1.001,0.099c0.557-0.318,0.56-1.353,0.006-2.304
							l-7.891-13.667l18.185-10.363l27.956,48.422c0.277,0.479,0.64,0.849,1.004,1.059c0.364,0.21,0.728,0.261,1.007,0.103
							c0.551-0.321,0.554-1.356,0.006-2.304l-27.959-48.428l18.182-10.361l48.021,83.176c0.277,0.48,0.64,0.849,1.004,1.059
							c0.364,0.21,0.728,0.261,1.007,0.103c0.551-0.321,0.554-1.356,0.006-2.304l-48.024-83.182l18.184-10.362l68.091,117.936
							c0.274,0.478,0.636,0.846,0.998,1.055c0.363,0.209,0.728,0.261,1.006,0.102c0.557-0.317,0.56-1.352,0.006-2.304
							l-68.089-117.936l18.183-10.362l0,0l88.156,152.69c0.274,0.478,0.636,0.846,0.999,1.056c0.363,0.21,0.728,0.261,1.006,0.102
							c0.557-0.318,0.559-1.353,0.006-2.304l-88.154-152.691l18.183-10.362l108.221,187.444c0.277,0.479,0.639,0.848,1.001,1.057
							c0.362,0.209,0.725,0.259,1.004,0.101c0.557-0.318,0.56-1.353,0.006-2.304l-108.219-187.446l18.184-10.362l128.285,222.199
							c0.277,0.48,0.639,0.848,1.001,1.058c0.362,0.209,0.725,0.259,1.004,0.1c0.557-0.317,0.56-1.352,0.007-2.304l-128.284-222.2h0
							l18.184-10.363h0l148.351,256.954c0.276,0.479,0.638,0.848,1.001,1.057c0.362,0.209,0.724,0.259,1.003,0.1
							c0.557-0.318,0.56-1.352,0.007-2.304l-148.349-256.954l149.319-85.092C1443.984,992.103,1443.987,991.069,1443.433,990.11z"/>
					</g>
				</g>
			</g>
			<g>
				<g>
					<path d="M618.7,935.968c-1.104,0-2-0.896-2-2v-21.761c0-1.104,0.896-2,2-2s2,0.896,2,2v21.761
						C620.7,935.072,619.805,935.968,618.7,935.968z"/>
				</g>
				<g>
					<path d="M653.36,955.277c-1.104,0-2-0.896-2-2v-21.06c0-1.104,0.896-2,2-2s2,0.896,2,2v21.06
						C655.36,954.382,654.464,955.277,653.36,955.277z"/>
				</g>
				<g>
					<path d="M688.03,975.997c-1.104,0-2-0.896-2-2v-21.76c0-1.104,0.896-2,2-2s2,0.896,2,2v21.76
						C690.03,975.102,689.134,975.997,688.03,975.997z"/>
				</g>
				<g>
					<path d="M722.69,996.008c-1.104,0-2-0.896-2-2v-21.761c0-1.104,0.896-2,2-2s2,0.896,2,2v21.761
						C724.69,995.112,723.794,996.008,722.69,996.008z"/>
				</g>
				<g>
					<path d="M757.35,1016.018c-1.104,0-2-0.896-2-2v-21.76c0-1.104,0.896-2,2-2s2,0.896,2,2v21.76
						C759.35,1015.122,758.455,1016.018,757.35,1016.018z"/>
				</g>
				<g>
					<path d="M792.02,1036.037c-1.104,0-2-0.896-2-2v-21.76c0-1.104,0.896-2,2-2s2,0.896,2,2v21.76
						C794.02,1035.142,793.125,1036.037,792.02,1036.037z"/>
				</g>
				<g>
					<path d="M826.68,1056.048c-1.104,0-2-0.896-2-2v-21.761c0-1.104,0.896-2,2-2s2,0.896,2,2v21.761
						C828.68,1055.152,827.785,1056.048,826.68,1056.048z"/>
				</g>
				<g>
					<path d="M861.35,1076.058c-1.104,0-2-0.896-2-2v-21.75c0-1.104,0.896-2,2-2s2,0.896,2,2v21.75
						C863.35,1075.162,862.455,1076.058,861.35,1076.058z"/>
				</g>
				<g>
					<path d="M896.01,1096.077c-1.104,0-2-0.896-2-2v-21.76c0-1.104,0.896-2,2-2s2,0.896,2,2v21.76
						C898.01,1095.182,897.114,1096.077,896.01,1096.077z"/>
				</g>
				<g>
					<path d="M930.67,1116.088c-1.104,0-2-0.896-2-2v-21.761c0-1.104,0.896-2,2-2s2,0.896,2,2v21.761
						C932.67,1115.192,931.774,1116.088,930.67,1116.088z"/>
				</g>
			</g>
			<g>
				<g>
					<g>
						<path d="M768.584,1059.875c0.222,0.635,0.195,1.222-0.068,1.548c-0.257,0.337-0.711,0.368-1.209,0.081l-19.99-11.542
							c-0.492-0.284-0.951-0.843-1.205-1.474c-0.26-0.628-0.284-1.244-0.059-1.622l10.063-17.198
							c0.244-0.418,0.731-0.482,1.273-0.169c0.536,0.31,1.027,0.938,1.262,1.632L768.584,1059.875z M749.618,1048.021l15.406,8.895
							l-7.65-22.141L749.618,1048.021"/>
					</g>
				</g>
				<g>
					<g>
						<polygon style="fill:#FE728C;" points="757.374,1034.775 765.024,1056.916 749.618,1048.022 						"/>
					</g>
				</g>
			</g>
		</g>
		<g>
			<g>
				<path style="fill:#EAA700;" d="M858.216,235.339l-56.804-32.796l-126.863,73.725l56.804,32.796
					c12.093,6.982,23.696,8.155,32.273,3.267l126.863-73.725C881.912,243.494,870.309,242.321,858.216,235.339z"/>
				<path d="M751.802,317.333c-6.627,0-13.927-2.194-21.45-6.538L673.548,278c-0.618-0.356-0.999-1.016-1-1.729
					s0.378-1.374,0.995-1.732l126.863-73.725c0.619-0.36,1.384-0.361,2.005-0.003l56.804,32.796
					c11.534,6.659,22.29,7.817,30.283,3.261c0.956-0.545,2.175-0.215,2.724,0.74c0.549,0.955,0.224,2.173-0.729,2.727
					L764.631,314.06C760.792,316.247,756.464,317.333,751.802,317.333z M678.539,276.262l53.814,31.07
					c11.533,6.659,22.287,7.816,30.283,3.261l115.278-66.992c-6.423-0.16-13.458-2.35-20.698-6.53l0,0l-55.801-32.216
					L678.539,276.262z"/>
			</g>
			<g>
				<polygon style="fill:#FE728C;" points="763.626,312.331 890.489,238.606 904.082,230.86 777.218,304.585 				"/>
			</g>
			<g>
				<path style="fill:#FDC41F;" d="M1292.223,430.476L955.509,236.074c-19.262-11.121-37.765-13-51.427-5.214l-126.863,73.725
					c13.663-7.786,32.165-5.907,51.427,5.214l336.714,194.402c19.262,11.121,37.715,30.578,51.289,54.089l126.863-73.725
					C1329.938,461.054,1311.486,441.597,1292.223,430.476z"/>
				<path d="M1216.648,560.29c-0.173,0-0.346-0.022-0.515-0.067c-0.514-0.137-0.952-0.472-1.218-0.933
					c-13.301-23.039-31.729-42.486-50.557-53.357L827.646,311.531c-18.49-10.675-36.509-12.575-49.437-5.208
					c-0.958,0.543-2.175,0.214-2.724-0.74c-0.549-0.955-0.224-2.173,0.729-2.727l126.863-73.725
					c14.417-8.216,33.387-6.363,53.432,5.211l336.714,194.402c19.703,11.375,38.179,30.845,52.021,54.821
					c0.551,0.955,0.226,2.175-0.728,2.729l-126.863,73.725C1217.346,560.198,1216.998,560.29,1216.648,560.29z M796.044,297.803
					c10.351,0,21.789,3.444,33.601,10.264l336.714,194.402c19.228,11.101,37.284,29.908,51.009,53.09l123.404-71.714
					c-13.216-22.285-31.193-41.038-49.55-51.636l0,0L954.509,237.806c-18.492-10.677-36.51-12.575-49.437-5.208l-112.42,65.331
					C793.769,297.845,794.9,297.803,796.044,297.803z"/>
			</g>
			<g>
				<polygon style="fill:#EAA700;" points="1319.144,648.425 1446.007,574.7 1445.951,594.516 1319.087,668.241 				"/>
				<path d="M1319.088,670.241c-0.346,0-0.69-0.089-1-0.268c-0.62-0.358-1.002-1.021-1-1.738l0.056-19.816
					c0.002-0.71,0.381-1.366,0.995-1.723l126.863-73.725c0.619-0.361,1.384-0.361,2.005-0.003c0.62,0.358,1.002,1.021,1,1.738
					l-0.057,19.816c-0.002,0.71-0.381,1.366-0.995,1.723l-126.862,73.725C1319.782,670.15,1319.435,670.241,1319.088,670.241z
					 M1321.141,649.578l-0.043,15.182l122.855-71.396l0.044-15.182L1321.141,649.578z"/>
			</g>
			<g>
				<path style="fill:#EAA700;" d="M1389.203,541.904c-12.093-6.982-23.665-19.189-32.187-33.948l-13.504-23.39l-126.863,73.725
					l13.504,23.39c8.521,14.759,20.094,26.967,32.187,33.949l56.804,32.796l126.863-73.725L1389.203,541.904z"/>
				<path d="M1319.144,650.425c-0.346,0-0.69-0.089-1-0.268l-56.805-32.796c-12.474-7.202-24.164-19.518-32.919-34.681
					l-13.504-23.39c-0.551-0.955-0.226-2.175,0.728-2.729l126.863-73.725c0.46-0.268,1.008-0.339,1.52-0.204
					c0.514,0.137,0.952,0.472,1.218,0.933l13.504,23.39c8.286,14.353,19.751,26.46,31.454,33.216l56.805,32.796
					c0.618,0.356,0.999,1.016,1,1.729s-0.378,1.374-0.995,1.732l-126.863,73.725C1319.838,650.334,1319.49,650.425,1319.144,650.425
					z M1219.378,559.017l12.507,21.663c8.286,14.353,19.751,26.46,31.454,33.217l55.802,32.216l122.876-71.408l-53.814-31.07
					c-12.474-7.201-24.164-19.518-32.919-34.68l-12.501-21.653L1219.378,559.017z"/>
			</g>
			<g>
				<path style="fill:#FDC41F;" d="M1165.36,504.201c19.262,11.121,37.715,30.578,51.289,54.089l13.504,23.39
					c8.521,14.759,20.094,26.967,32.186,33.948l56.804,32.796l-0.056,19.816l-58.439-33.74l-5.51-3.181
					c-12.086-6.978-23.665-19.189-32.186-33.948l-3.882-6.724l-9.622-16.666c-13.574-23.511-32.026-42.968-51.289-54.089
					L835.734,333.74c-19.262-11.121-37.765-13-51.427-5.214l-9.685,5.519l-3.907,2.227c-8.577,4.888-20.187,3.711-32.273-3.267
					l-5.51-3.181l-58.439-33.74l0.056-19.816l56.804,32.796c12.092,6.982,23.696,8.155,32.273,3.267l13.592-7.746
					c13.663-7.786,32.165-5.907,51.427,5.214L1165.36,504.201z"/>
				<path d="M1319.088,670.241c-0.346,0-0.69-0.089-1-0.268l-63.949-36.921c-12.474-7.202-24.165-19.518-32.919-34.68l-13.504-23.39
					c-13.302-23.039-31.729-42.487-50.557-53.357L834.734,335.472c-18.492-10.676-36.51-12.575-49.437-5.208l-13.592,7.746
					c-9.28,5.289-21.449,4.126-34.264-3.273l-63.949-36.921c-0.621-0.358-1.002-1.021-1-1.738l0.056-19.816
					c0.002-0.713,0.384-1.372,1.002-1.728c0.618-0.356,1.379-0.355,1.998,0.001l56.804,32.796
					c11.534,6.659,22.288,7.817,30.283,3.262l13.592-7.746c14.402-8.208,33.374-6.353,53.418,5.22l336.714,194.402
					c19.704,11.376,38.179,30.846,52.021,54.821l13.505,23.39c8.285,14.352,19.749,26.459,31.453,33.217l56.805,32.796
					c0.62,0.358,1.002,1.021,1,1.737l-0.056,19.816c-0.002,0.714-0.384,1.372-1.002,1.728
					C1319.776,670.152,1319.433,670.241,1319.088,670.241z M803.133,321.744c10.351,0,21.789,3.444,33.601,10.264l322.425,186.152
					c19.703,11.375,38.178,30.845,52.021,54.821l13.504,23.39c8.286,14.352,19.751,26.459,31.454,33.216l60.959,35.194l0.043-15.205
					l-55.802-32.217c-12.475-7.203-24.165-19.519-32.918-34.681l-13.505-23.39c-13.3-23.038-31.727-42.486-50.556-53.357
					L827.646,311.531c-18.491-10.675-36.51-12.575-49.438-5.208l-13.592,7.746c-9.28,5.289-21.448,4.126-34.264-3.273
					l-53.814-31.069l-0.043,15.205l62.945,36.342c11.367,6.563,22.405,7.751,30.283,3.261l13.592-7.746
					C789.231,323.417,795.919,321.744,803.133,321.744z"/>
			</g>
		</g>
	</g>
</g>
</svg>
