<svg xmlns="http://www.w3.org/2000/svg" width="1em" height="1em" viewBox="0 0 18 18"><g fill="currentColor"><path fill-rule="evenodd" d="M12.5 8a4.5 4.5 0 1 1 0 9.001A4.5 4.5 0 0 1 12.5 8m-2.097 7.303a3.5 3.5 0 0 0 4.9-4.898zM12.5 9a3.5 3.5 0 0 0-2.803 5.596l4.899-4.899A3.48 3.48 0 0 0 12.5 9" clip-rule="evenodd"/><path d="M13 1.999a.5.5 0 0 1 0 1h-.996v4.026a5.5 5.5 0 0 0-1 .187V2.999h-4.01v4.688c0 .745-.185 1.478-.538 2.134L5.821 11h1.393a5.4 5.4 0 0 0-.188 1H5.282l-1.22 2.264a.5.5 0 0 0 .44.737h3.106q.273.537.653 1H4.5a1.5 1.5 0 0 1-1.32-2.211l2.394-4.444c.275-.51.42-1.082.42-1.66V2.999H5a.5.5 0 0 1 0-1z"/></g></svg>