<svg xmlns="http://www.w3.org/2000/svg" width="1em" height="1em" viewBox="0 0 18 18"><path fill="currentColor" d="M2.854 2.146a.5.5 0 0 0-.707.707l2.249 2.249A4.8 4.8 0 0 0 4 6.999V10.9l-.964 2.413a.5.5 0 0 0 .464.686H7c0 1.108.892 2 2 2s2-.892 2-2h2.293l1.854 1.854a.5.5 0 0 0 .708 0a.5.5 0 0 0 0-.707zM9 15c-.556 0-1-.444-1-1h2c0 .556-.444 1-1 1m-4.762-2l.726-1.817A.5.5 0 0 0 5 10.997V6.999c0-.392.057-.771.163-1.13l7.13 7.13zM14 8.858v2.043l.651 1.628L13 10.878V8.999c.347 0 .678-.057 1-.141m-7.761-4.74l-.707-.707C6.432 2.541 7.652 2 8.999 2c.412 0 .806.064 1.19.159a4 4 0 0 0-.662.895c-.174-.023-.347-.053-.527-.053a3.98 3.98 0 0 0-2.761 1.117M10 5a3 3 0 1 1 6 0a3 3 0 0 1-6 0"/></svg>