<svg xmlns="http://www.w3.org/2000/svg" width="1em" height="1em" viewBox="0 0 18 18"><path fill="currentColor" d="m6.239 4.118l-.707-.707C6.432 2.541 7.652 2 8.999 2c2.757 0 5 2.243 5 5v3.901l.651 1.628l-1.651-1.651V6.999c0-2.206-1.794-4-4-4a3.98 3.98 0 0 0-2.761 1.118zm9.615 11.736a.5.5 0 0 1-.708 0L13.292 14h-2.293c0 1.108-.892 2-2 2s-2-.892-2-2h-3.5a.5.5 0 0 1-.464-.686l.964-2.413V7c0-.675.147-1.312.396-1.897L2.146 2.854a.5.5 0 0 1 .707-.707l13 13a.5.5 0 0 1 0 .707zM10 14H8c0 .556.444 1 1 1s1-.444 1-1m2.293-1l-7.13-7.13A4 4 0 0 0 5 7v3.998a.5.5 0 0 1-.036.186l-.726 1.817z"/></svg>