<svg xmlns="http://www.w3.org/2000/svg" width="1em" height="1em" viewBox="0 0 18 18"><path fill="currentColor" d="M11.5 3.5A.5.5 0 0 1 12 3a2 2 0 0 1 2 2v2.005c0 .53.008.794.089.997c.063.156.195.331.634.551a.5.5 0 0 1 0 .894c-.439.22-.572.394-.634.551q-.025.065-.043.141a4 4 0 0 0-.991-.138q.034-.194.105-.374c.097-.243.243-.447.438-.627a1.7 1.7 0 0 1-.438-.626c-.162-.403-.161-.864-.161-1.311V5a1 1 0 0 0-1-1a.5.5 0 0 1-.5-.5zM4.839 8.374C5.001 7.971 5 7.51 5 7.063V5a1 1 0 0 1 1-1a.5.5 0 0 0 0-1a2 2 0 0 0-2 2v2.005c0 .53-.008.794-.089.997c-.063.156-.195.331-.634.551a.5.5 0 0 0 0 .894c.439.22.572.394.634.551c.082.204.089.469.089 1.002v2a2 2 0 0 0 2 2a.5.5 0 0 0 0-1a1 1 0 0 1-1-1v-2.059c0-.449 0-.911-.161-1.315a1.7 1.7 0 0 0-.439-.627c.196-.179.341-.384.438-.626zM13 11a3 3 0 1 0 0 6a3 3 0 0 0 0-6"/></svg>