<svg xmlns="http://www.w3.org/2000/svg" width="1em" height="1em" viewBox="0 0 18 18"><path fill="currentColor" d="M13 11a3 3 0 1 0 0 6a3 3 0 0 0 0-6m1.479 3.771a.5.5 0 0 1-.708.707L13 14.707l-.771.771a.5.5 0 0 1-.708 0a.5.5 0 0 1 0-.707l.771-.771l-.771-.771a.5.5 0 0 1 .707-.707l.771.771l.771-.771a.5.5 0 0 1 .707.707l-.771.771l.771.771zM11.5 3.5A.5.5 0 0 1 12 3a2 2 0 0 1 2 2v2.005c0 .53.008.794.089.997c.063.156.195.331.634.551a.5.5 0 0 1 0 .894c-.439.22-.572.394-.634.551q-.025.065-.043.141a4 4 0 0 0-.991-.138q.034-.194.105-.374c.097-.243.243-.447.438-.627a1.7 1.7 0 0 1-.438-.626c-.162-.403-.161-.864-.161-1.311V5a1 1 0 0 0-1-1a.5.5 0 0 1-.499-.5M4.4 9a1.7 1.7 0 0 1 .44.627c.16.404.16.866.16 1.315v2.059a1 1 0 0 0 1 1a.5.5 0 0 1 0 1a2 2 0 0 1-2-2v-2c0-.533-.007-.798-.088-1.002c-.063-.157-.195-.331-.634-.551a.5.5 0 0 1 0-.894c.439-.22.572-.394.634-.551c.081-.203.089-.467.089-.997V5.001a2 2 0 0 1 2-2a.5.5 0 0 1 0 1a1 1 0 0 0-1 1v2.063c0 .447 0 .908-.161 1.311a1.7 1.7 0 0 1-.438.626z"/></svg>