<svg xmlns="http://www.w3.org/2000/svg" width="1em" height="1em" viewBox="0 0 18 18"><path fill="currentColor" d="M6 5V3.5A1.5 1.5 0 0 1 7.5 2h3A1.5 1.5 0 0 1 12 3.5V5h2a2 2 0 0 1 2 2v7a2 2 0 0 1-2 2H4a2 2 0 0 1-2-2V7a2 2 0 0 1 2-2zm1-1.5V5h4V3.5a.5.5 0 0 0-.5-.5h-3a.5.5 0 0 0-.5.5m-4 7V14a1 1 0 0 0 1 1h10a1 1 0 0 0 1-1v-3.5a2.5 2.5 0 0 1-1.5.5H10v.5a.5.5 0 0 1-.5.5h-1a.5.5 0 0 1-.5-.5V11H4.5a2.5 2.5 0 0 1-1.5-.5m5-.5v-.5a.5.5 0 0 1 .5-.5h1a.5.5 0 0 1 .5.5v.5h3.5A1.5 1.5 0 0 0 15 8.5V7a1 1 0 0 0-1-1H4a1 1 0 0 0-1 1v1.5A1.5 1.5 0 0 0 4.5 10z"/></svg>