<svg xmlns="http://www.w3.org/2000/svg" width="1em" height="1em" viewBox="0 0 18 18"><g fill="currentColor"><path d="m9.354 6.854l2-2a.5.5 0 0 0-.708-.707L9.5 5.293V1.5a.5.5 0 0 0-1 0v3.793L7.354 4.147a.5.5 0 0 0-.707.707l2 2a.5.5 0 0 0 .707 0"/><path d="M16 13.5c0 1.379-1.121 2.5-2.5 2.5h-9A2.5 2.5 0 0 1 2 13.5v-6a.5.5 0 0 1 1 0v6c0 .827.673 1.5 1.5 1.5h9c.827 0 1.5-.673 1.5-1.5v-6a.5.5 0 0 1 1 0z"/><path d="M5 11a1 1 0 1 0 0-2a1 1 0 0 0 0 2m4 0a1 1 0 1 0 0-2a1 1 0 0 0 0 2m-2 3a1 1 0 1 0 0-2a1 1 0 0 0 0 2m4 0a1 1 0 1 0 0-2a1 1 0 0 0 0 2m2-3a1 1 0 1 0 0-2a1 1 0 0 0 0 2"/></g></svg>