<svg xmlns="http://www.w3.org/2000/svg" width="1em" height="1em" viewBox="0 0 16 16"><path fill="currentColor" fill-rule="evenodd" d="M6.035 12.116q.066.58.245 1.117l-1.65 1.445c-.64.55-1.63.1-1.63-.739V12H1.5C.67 12 0 11.33 0 10.5v-7C0 2.67.67 2 1.5 2h6.599A1.3 1.3 0 0 0 8.1 3H1.5c-.28 0-.5.22-.5.5v7c0 .28.22.5.5.5H4v2.9zm7.816-8.07a.25.25 0 0 0-.088.117l-.198.612a1.26 1.26 0 0 1-.787.798l-.612.199a.23.23 0 0 0-.117.088a.25.25 0 0 0-.044.14q0 .012.003.023c.944.086 1.819.41 2.565.913q.07-.11.164-.202c.139-.14.308-.244.494-.306l.611-.198a.24.24 0 0 0 .117-.09a.242.242 0 0 0-.117-.368l-.012-.002l-.612-.2v.003a1.26 1.26 0 0 1-.799-.8l-.199-.611A.24.24 0 0 0 13.992 4c-.05 0-.1.016-.141.045m-4.65-1.264l.767.249l.083.029l.007.004a1.57 1.57 0 0 1 .882.888l.028.08l.249.766q.032.09.111.146a.3.3 0 0 0 .175.056h.004c.061 0 .121-.02.171-.056a.3.3 0 0 0 .111-.147l.249-.765a1.57 1.57 0 0 1 .999-.998l.765-.25a.3.3 0 0 0 .203-.284a.3.3 0 0 0-.203-.284l-.015-.004l-.765-.25a1.6 1.6 0 0 1-.618-.38a1.6 1.6 0 0 1-.381-.617L11.774.2a.3.3 0 0 0-.27-.201h-.015a.3.3 0 0 0-.285.2l-.249.766a1.57 1.57 0 0 1-.984.998l-.595.193h-.002l-.172.055a.304.304 0 0 0-.146.46a.3.3 0 0 0 .146.11zM16 11.5a4.5 4.5 0 1 1-9-.001a4.5 4.5 0 0 1 9 0m-3.793 0l1.146-1.146a.5.5 0 0 0-.707-.707L11.5 10.793l-1.146-1.146a.5.5 0 0 0-.707.707l1.146 1.146l-1.146 1.146a.5.5 0 0 0 .707.706l1.146-1.146l1.146 1.146a.5.5 0 0 0 .707-.707z" clip-rule="evenodd"/></svg>