<svg xmlns="http://www.w3.org/2000/svg" width="1em" height="1em" viewBox="0 0 16 16"><path fill="currentColor" d="m13.786 2.213l.015.004q.09.031.146.11a.3.3 0 0 1 0 .35a.3.3 0 0 1-.146.11l-.765.248a1.57 1.57 0 0 0-.999.998l-.249.765a.3.3 0 0 1-.111.146a.3.3 0 0 1-.171.056h-.004a.3.3 0 0 1-.286-.202l-.249-.765l-.029-.08a1.55 1.55 0 0 0-.352-.54a1.6 1.6 0 0 0-.535-.352l-.083-.03l-.767-.249a.302.302 0 0 1 0-.57l.172-.055h.002l.595-.193a1.57 1.57 0 0 0 .984-.998l.249-.765A.3.3 0 0 1 11.488 0h.015a.3.3 0 0 1 .27.201l.249.765a1.58 1.58 0 0 0 .999.998zm2.043 3.558l-.612-.199v.002a1.26 1.26 0 0 1-.799-.799l-.199-.612a.24.24 0 0 0-.228-.16a.24.24 0 0 0-.228.16l-.199.612a1.27 1.27 0 0 1-.787.798l-.612.2a.23.23 0 0 0-.117.087a.242.242 0 0 0 .117.368l.583.19v.002l.024.008a1.26 1.26 0 0 1 .8.8l.2.612a.24.24 0 0 0 .224.161h.007a.24.24 0 0 0 .228-.16l.199-.613a1.26 1.26 0 0 1 .799-.799l.612-.199a.23.23 0 0 0 .117-.088a.242.242 0 0 0-.117-.368zM8.098 2H1.5C.67 2 0 2.67 0 3.5v7c0 .83.67 1.5 1.5 1.5H3v1.94c0 .84.99 1.29 1.63.74L7.69 12h4.81c.83 0 1.5-.67 1.5-1.5V9h-.004A1.26 1.26 0 0 1 13 8.494V10.5c0 .28-.22.5-.5.5H7.31L4 13.9V11H1.5c-.28 0-.5-.22-.5-.5v-7c0-.28.22-.5.5-.5h6.6a1.3 1.3 0 0 1-.002-1"/></svg>