<svg xmlns="http://www.w3.org/2000/svg" width="1em" height="1em" viewBox="0 0 16 16"><path fill="currentColor" fill-rule="evenodd" d="m7.768 11l-.83 1.658l-2.308 2.02c-.64.55-1.63.1-1.63-.739V12H1.5C.67 12 0 11.33 0 10.5v-7C0 2.67.67 2 1.5 2h6.599A1.3 1.3 0 0 0 8.1 3H1.5c-.28 0-.5.22-.5.5v7c0 .28.22.5.5.5H4v2.9L7.31 11zm6.083-6.954a.25.25 0 0 0-.088.117l-.198.612a1.26 1.26 0 0 1-.787.798l-.612.199a.23.23 0 0 0-.117.088a.25.25 0 0 0-.044.14a.2.2 0 0 0 .011.066a2 2 0 0 1 .692.336l.041.014v.003l.025.008a1.28 1.28 0 0 1 .8.8l.2.612a.24.24 0 0 0 .224.16h.007a.24.24 0 0 0 .229-.16l.198-.612a1.26 1.26 0 0 1 .8-.8l.611-.197a.24.24 0 0 0 .117-.09a.242.242 0 0 0-.117-.368l-.012-.002l-.612-.2v.003a1.26 1.26 0 0 1-.799-.8l-.199-.611A.24.24 0 0 0 13.993 4c-.05 0-.1.015-.141.044zm-4.65-1.264l.767.249l.083.029l.007.004a1.57 1.57 0 0 1 .882.888l.028.08l.249.766q.032.09.111.146a.3.3 0 0 0 .175.056h.004c.061 0 .121-.02.171-.056a.3.3 0 0 0 .111-.147l.249-.765a1.57 1.57 0 0 1 .999-.998l.765-.25a.302.302 0 0 0 0-.568l-.015-.004l-.765-.25a1.6 1.6 0 0 1-.618-.38a1.6 1.6 0 0 1-.381-.617L11.774.2a.3.3 0 0 0-.27-.201h-.015a.3.3 0 0 0-.285.2l-.249.766a1.57 1.57 0 0 1-.984.998l-.595.193h-.002l-.172.055a.304.304 0 0 0-.146.46a.3.3 0 0 0 .146.11zm6.692 11.77a1.01 1.01 0 0 1-.043.973a.99.99 0 0 1-.85.474H8a.998.998 0 0 1-.898-1.448l3.5-7a1.001 1.001 0 0 1 1.792 0zM12 14.499a.5.5 0 1 0-.998-.001a.5.5 0 0 0 .998.002m0-5.004a.5.5 0 1 0-1 0v3a.5.5 0 1 0 1 0z" clip-rule="evenodd"/></svg>