<svg xmlns="http://www.w3.org/2000/svg" width="1em" height="1em" viewBox="0 0 18 18"><path fill="currentColor" d="M13.5 2h-9A2.5 2.5 0 0 0 2 4.5v9C2 14.879 3.121 16 4.5 16h9c1.379 0 2.5-1.121 2.5-2.5v-9C16 3.121 14.879 2 13.5 2M7 7.5c0 .275-.225.5-.5.5a.5.5 0 0 1-.5-.5c0-.275.225-.5.5-.5s.5.225.5.5m6.5 7.5H7v-2.5c0-.275.225-.5.5-.5h2.592c.207.581.757 1 1.408 1c.827 0 1.5-.673 1.5-1.5s-.673-1.5-1.5-1.5c-.651 0-1.201.419-1.408 1H7.5c-.827 0-1.5.673-1.5 1.5V15H4.5c-.827 0-1.5-.673-1.5-1.5v-9C3 3.673 3.673 3 4.5 3H6v3.092c-.581.207-1 .757-1 1.408C5 8.327 5.673 9 6.5 9S8 8.327 8 7.5c0-.651-.419-1.201-1-1.408V3h6.5c.827 0 1.5.673 1.5 1.5V7h-3.092c-.207-.581-.757-1-1.408-1C9.673 6 9 6.673 9 7.5S9.673 9 10.5 9c.651 0 1.201-.419 1.408-1H15v5.5c0 .827-.673 1.5-1.5 1.5M11 11.5c0-.275.225-.5.5-.5s.5.225.5.5s-.225.5-.5.5a.5.5 0 0 1-.5-.5m0-4c0 .275-.225.5-.5.5a.5.5 0 0 1-.5-.5c0-.275.225-.5.5-.5s.5.225.5.5"/></svg>