<svg xmlns="http://www.w3.org/2000/svg" width="1em" height="1em" viewBox="0 0 18 18"><path fill="currentColor" d="M17 14.5a.48.48 0 0 1-.15.35l-2 2a.48.48 0 0 1-.7 0l-2-2a.48.48 0 0 1 0-.7a.48.48 0 0 1 .7 0L14 15.29V10.5a.5.5 0 1 1 1 0v4.79l1.15-1.14a.48.48 0 0 1 .7 0q.071.07.111.16q.039.091.039.19M12 13h1v-1H4a1 1 0 0 1-1-1V4a1 1 0 0 1 1-1h10a1 1 0 0 1 1 1v5h1V4a2 2 0 0 0-2-2H4a2 2 0 0 0-2 2v7a2 2 0 0 0 2 2h2v2H4.5a.5.5 0 0 0 0 1H11v-1H7v-2h4v1.5a1.47 1.47 0 0 1 .466-1.079a1.4 1.4 0 0 1 .439-.296c.031-.014.063-.019.095-.03z"/></svg>