<svg xmlns="http://www.w3.org/2000/svg" width="1em" height="1em" viewBox="0 0 18 18"><path fill="currentColor" d="M14 13V5.414c0-.4-.156-.777-.439-1.061l-2.915-2.914A1.5 1.5 0 0 0 9.585 1H4.999c-1.103 0-2 .897-2 2v10c0 1.103.897 2 2 2h7c1.103 0 2-.897 2-2zM4 13V3c0-.551.449-1 1-1h4.586c.131 0 .26.053.354.146l2.914 2.914a.5.5 0 0 1 .146.354V13c0 .551-.449 1-1 1H5c-.551 0-1-.449-1-1m12-5.59V13c0 2.21-1.79 4-4 4H7c-.74 0-1.38-.4-1.73-1H12c1.65 0 3-1.35 3-3V5.79l.56.56c.28.29.44.66.44 1.06m-5-.911a.5.5 0 0 1-.5.5H9v1.5a.5.5 0 0 1-1 0v-1.5H6.5a.5.5 0 0 1 0-1H8v-1.5a.5.5 0 0 1 1 0v1.5h1.5a.5.5 0 0 1 .5.5m0 5a.5.5 0 0 1-.5.5h-4a.5.5 0 0 1 0-1h4a.5.5 0 0 1 .5.5"/></svg>