<svg xmlns="http://www.w3.org/2000/svg" width="1em" height="1em" viewBox="0 0 18 18"><path fill="currentColor" d="m10.854 6.146l1.97 1.97l-.707.707l-1.97-1.97a.5.5 0 0 1 .707-.707M3 13V5a2 2 0 0 1 2-2h8a2 2 0 0 1 2 2v2.011c.044-.002.086-.013.13-.013c.301 0 .591.059.87.148V5a3 3 0 0 0-3-3H5a3 3 0 0 0-3 3v8a3 3 0 0 0 3 3h2.009c.007-.116.018-.233.046-.349L7.218 15H5a2 2 0 0 1-2-2m4.854-1.854L5.708 9l2.146-2.146a.5.5 0 0 0-.707-.707l-2.5 2.5a.5.5 0 0 0 0 .707l2.5 2.5a.5.5 0 0 0 .707-.707zm8.598-2.6a1.87 1.87 0 0 0-2.645 0l-4.829 4.829a2.2 2.2 0 0 0-.578 1.021l-.374 1.498a.89.89 0 0 0 1.079 1.079l1.498-.375a2.2 2.2 0 0 0 1.021-.578l4.829-4.829c.73-.73.73-1.914 0-2.645z"/></svg>