<svg xmlns="http://www.w3.org/2000/svg" width="1em" height="1em" viewBox="0 0 18 18"><path fill="currentColor" fill-rule="evenodd" d="M16 5v8a3 3 0 0 1-3 3H5a3 3 0 0 1-3-3V9.739c.307.253.643.47 1 .654V13a2 2 0 0 0 2 2h8a2 2 0 0 0 2-2V6h-4.025q.024-.247.025-.5q-.001-.253-.025-.5H15a2 2 0 0 0-2-2h-2.607a5.5 5.5 0 0 0-.654-1H13a3 3 0 0 1 3 3M1 5.5a4.5 4.5 0 1 1 9 0a4.5 4.5 0 0 1-9 0m2 0a.5.5 0 0 0 .5.5H5v1.5a.5.5 0 0 0 1 0V6h1.5a.5.5 0 0 0 0-1H6V3.5a.5.5 0 0 0-1 0V5H3.5a.5.5 0 0 0-.5.5" clip-rule="evenodd"/></svg>