<svg xmlns="http://www.w3.org/2000/svg" width="1em" height="1em" viewBox="0 0 18 18"><path fill="currentColor" d="M15.5 7c0-.4-.156-.777-.439-1.061l-2.999-3c-.566-.567-1.558-.567-2.122 0l-7.501 7.5A1.5 1.5 0 0 0 2 11.5c0 .401.156.777.439 1.061l2 2c.283.283.66.439 1.061.439h7a.5.5 0 0 0 0-1H9.121l5.939-5.939A1.5 1.5 0 0 0 15.499 7zM5.146 13.854l-2-2a.5.5 0 0 1 0-.708L5.293 9L9 12.707L7.707 14H5.5a.5.5 0 0 1-.354-.146m9.208-6.5L9.708 12L6.001 8.293l4.647-4.647a.5.5 0 0 1 .707 0l3 3a.5.5 0 0 1-.001.708"/></svg>