<svg xmlns="http://www.w3.org/2000/svg" width="1em" height="1em" viewBox="0 0 18 18"><path fill="currentColor" d="M17 5.25c0-.396-.154-.767-.434-1.046l-2.77-2.77c-.559-.56-1.533-.56-2.092 0L9.5 3.638v-.137c0-.827-.673-1.5-1.5-1.5H3.5c-.827 0-1.5.673-1.5 1.5v11c0 .827.673 1.5 1.5 1.5h11c.827 0 1.5-.673 1.5-1.5v-4.5c0-.827-.673-1.5-1.5-1.5h-.138l2.204-2.204c.279-.279.434-.652.434-1.047M3.5 3H8a.5.5 0 0 1 .5.5v5H3v-5a.5.5 0 0 1 .5-.5M3 14.5v-5h5.5V15h-5a.5.5 0 0 1-.5-.5M15 10v4.5c0 .275-.225.5-.5.5h-5V9.5h5a.5.5 0 0 1 .5.5M9.5 8.5V6.862L11.138 8.5zm6.359-2.911L13.088 8.36a.49.49 0 0 1-.678 0L9.639 5.589a.476.476 0 0 1 0-.677l2.771-2.771a.476.476 0 0 1 .678 0l2.771 2.771a.476.476 0 0 1 0 .677"/></svg>