<svg xmlns="http://www.w3.org/2000/svg" width="1em" height="1em" viewBox="0 0 24 25"><path fill="currentColor" d="M24 6.943c0-.593-.231-1.151-.65-1.57l-4.156-4.155c-.838-.84-2.3-.84-3.138 0L12.75 4.524v-.206a2.25 2.25 0 0 0-2.25-2.25H3.75a2.25 2.25 0 0 0-2.25 2.25v16.5a2.25 2.25 0 0 0 2.25 2.25h16.5a2.25 2.25 0 0 0 2.25-2.25v-6.75a2.25 2.25 0 0 0-2.25-2.25h-.206l3.306-3.305c.419-.42.65-.976.65-1.57M3.75 3.568h6.75a.75.75 0 0 1 .75.75v7.5H3v-7.5a.75.75 0 0 1 .75-.75M3 20.818v-7.5h8.25v8.25h-7.5a.75.75 0 0 1-.75-.75m18-6.75v6.75c0 .413-.337.75-.75.75h-7.5v-8.25h7.5a.75.75 0 0 1 .75.75m-8.25-2.25V9.36l2.457 2.457zm9.539-4.367l-4.156 4.156a.736.736 0 0 1-1.017 0L12.96 7.45a.713.713 0 0 1 0-1.016l4.156-4.156a.713.713 0 0 1 1.016 0l4.156 4.156a.7.7 0 0 1 .211.508a.7.7 0 0 1-.21.508"/></svg>