<svg xmlns="http://www.w3.org/2000/svg" width="1em" height="1em" viewBox="0 0 26 26"><g fill="currentColor"><path d="M4 19c0 2.49 2.01 4.5 4.5 4.5h10.096C18.07 24.4 17.11 25 16 25H8.41c-3.27 0-5.91-2.64-5.91-5.91V7c0-1.11.6-2.07 1.5-2.596z"/><path fill-rule="evenodd" d="M13.879 1c.597 0 1.17.238 1.592.66l5.87 5.869c.421.423.659.995.659 1.592V19a3 3 0 0 1-3 3H8.5a3 3 0 0 1-3-3V4a3 3 0 0 1 3-3zM8.474 2.5a1.5 1.5 0 0 0-1.5 1.5v15a1.5 1.5 0 0 0 1.5 1.5h10.5c.827 0 1.5-.672 1.5-1.5v-9h-5.25a2.25 2.25 0 0 1-2.25-2.25V2.5zm6 5.25c0 .414.336.75.75.75h4.94l-5.69-5.69z" clip-rule="evenodd"/></g></svg>