<svg xmlns="http://www.w3.org/2000/svg" width="1em" height="1em" viewBox="0 0 18 18"><g fill="currentColor"><path d="M14.5 8H14V6.414c0-.398-.158-.779-.439-1.061l-2.914-2.914A1.5 1.5 0 0 0 9.586 2H6a2 2 0 0 0-2 2v4h-.5C2.673 8 2 8.673 2 9.5v5c0 .827.673 1.5 1.5 1.5h11c.827 0 1.5-.673 1.5-1.5v-5c0-.827-.673-1.5-1.5-1.5M10 3.207L12.793 6H10.5a.5.5 0 0 1-.5-.5zM5 4a1 1 0 0 1 1-1h3v2.5A1.5 1.5 0 0 0 10.5 7H13v1H5zm10 10.5c0 .275-.225.5-.5.5h-11a.5.5 0 0 1-.5-.5v-5a.5.5 0 0 1 .5-.5h11c.275 0 .5.225.5.5z"/><path d="M5.5 10h-1a.5.5 0 0 0-.5.5v3a.5.5 0 0 0 1 0V13h.5c.827 0 1.5-.673 1.5-1.5S6.327 10 5.5 10m0 2H5v-1h.5a.5.5 0 0 1 0 1M9 10h-.5a.5.5 0 0 0-.5.5v3a.5.5 0 0 0 .5.5H9c1.103 0 2-.897 2-2s-.897-2-2-2m0 3v-2a1 1 0 0 1 0 2m5-3h-1.5a.5.5 0 0 0-.5.5v3a.5.5 0 0 0 1 0V13h.5a.5.5 0 0 0 0-1H13v-1h1a.5.5 0 0 0 0-1"/></g></svg>