<svg xmlns="http://www.w3.org/2000/svg" width="1em" height="1em" viewBox="0 0 16 16"><g fill="currentColor" fill-rule="evenodd" clip-rule="evenodd"><path d="M16 11.5a4.5 4.5 0 1 1-9 0a4.5 4.5 0 0 1 9 0m-2.146-1.854a.5.5 0 0 1 0 .708l-3 3a.5.5 0 0 1-.708 0l-1-1a.5.5 0 0 1 .708-.708l.646.647l2.646-2.647a.5.5 0 0 1 .708 0"/><path d="M3.5 2A2.5 2.5 0 0 0 1 4.5v7A2.5 2.5 0 0 0 3.5 14h3.1a5.5 5.5 0 0 1-.393-1H3.5A1.5 1.5 0 0 1 2 11.5V7h3.586a1.5 1.5 0 0 0 1.06-.44L8.207 5H12.5A1.5 1.5 0 0 1 14 6.5v.1q.538.276 1 .657V6.5A2.5 2.5 0 0 0 12.5 4H8.207l-1.56-1.56A1.5 1.5 0 0 0 5.585 2zM2 6V4.5A1.5 1.5 0 0 1 3.5 3h2.086a.5.5 0 0 1 .353.146L7.293 4.5L5.939 5.854A.5.5 0 0 1 5.586 6z"/></g></svg>