<svg xmlns="http://www.w3.org/2000/svg" width="1em" height="1em" viewBox="0 0 16 16"><path fill="currentColor" d="M5.147 3.854a.5.5 0 0 1 0-.707l2-2A.5.5 0 0 1 7.497 1h.006a.5.5 0 0 1 .348.144l.003.003l1.999 2a.5.5 0 0 1-.707.707L8 2.708V7.5a.5.5 0 0 1-1 0V2.708L5.854 3.854a.5.5 0 0 1-.707 0M14 8.5v3c0 1.379-1.122 2.5-2.5 2.5h-8A2.503 2.503 0 0 1 1 11.5v-3a.5.5 0 0 1 .5-.5h4a.5.5 0 0 1 .5.5c0 .827.673 1.5 1.5 1.5S9 9.327 9 8.5a.5.5 0 0 1 .5-.5h4a.5.5 0 0 1 .5.5M13 9H9.95a2.504 2.504 0 0 1-2.45 2a2.504 2.504 0 0 1-2.45-2H2v2.5c0 .827.673 1.5 1.5 1.5h8c.827 0 1.5-.673 1.5-1.5z"/></svg>