<svg xmlns="http://www.w3.org/2000/svg" width="1em" height="1em" viewBox="0 0 16 16"><path fill="currentColor" d="M5.854 5.146L7 6.292V1.5a.5.5 0 0 1 1 0v4.792l1.146-1.146a.5.5 0 0 1 .707.707l-1.999 2l-.003.003A.5.5 0 0 1 7.503 8h-.006a.5.5 0 0 1-.35-.147l-2-2a.5.5 0 0 1 .707-.707M14 8.5v3c0 1.379-1.122 2.5-2.5 2.5h-8A2.503 2.503 0 0 1 1 11.5v-3a.5.5 0 0 1 .5-.5h4a.5.5 0 0 1 .5.5c0 .827.673 1.5 1.5 1.5S9 9.327 9 8.5a.5.5 0 0 1 .5-.5h4a.5.5 0 0 1 .5.5M13 9H9.95a2.504 2.504 0 0 1-2.45 2a2.504 2.504 0 0 1-2.45-2H2v2.5c0 .827.673 1.5 1.5 1.5h8c.827 0 1.5-.673 1.5-1.5z"/></svg>