<svg xmlns="http://www.w3.org/2000/svg" width="1em" height="1em" viewBox="0 0 16 16"><path fill="currentColor" fill-rule="evenodd" d="M6 3.5a2.5 2.5 0 1 0-3 2.45v4.101c-1.14.232-2 1.242-2 2.449C1 13.879 2.122 15 3.5 15S6 13.879 6 12.5c0-1.208-.86-2.217-2-2.449V5.95A2.5 2.5 0 0 0 6 3.5m-1 9c0 .827-.673 1.5-1.5 1.5S2 13.327 2 12.5S2.673 11 3.5 11s1.5.673 1.5 1.5M3.5 5C2.67 5 2 4.33 2 3.5S2.67 2 3.5 2S5 2.67 5 3.5S4.33 5 3.5 5m3.65-1.15c-.2-.19-.2-.51 0-.7l2-2c.19-.2.51-.2.7 0c.2.19.2.51 0 .7L8.71 3h1.79A2.5 2.5 0 0 1 13 5.5v.713a5.4 5.4 0 0 0-1-.188V5.5c0-.83-.67-1.5-1.5-1.5H8.71l1.14 1.15c.2.19.2.51 0 .7c-.19.2-.51.2-.7 0zM11.5 7a4.5 4.5 0 1 0 0 9a4.5 4.5 0 0 0 0-9m2.354 3.353l-3 3a.5.5 0 0 1-.707 0l-1-1a.5.5 0 0 1 .707-.707l.646.646l2.646-2.646a.5.5 0 0 1 .707.707z" clip-rule="evenodd"/></svg>