<svg xmlns="http://www.w3.org/2000/svg" width="1em" height="1em" viewBox="0 0 24 25"><g fill="currentColor" fill-rule="evenodd" clip-rule="evenodd"><path d="M6.75 8.068a2.75 2.75 0 1 1 5.312 1.001l1.752 1.752a2.75 2.75 0 1 1-.947 1.174l-1.723-1.723a2.7 2.7 0 0 1-.894.442v4.207a2.751 2.751 0 1 1-1.5 0v-4.207a2.75 2.75 0 0 1-2-2.646m2.75-1.25a1.25 1.25 0 1 0 0 2.5a1.25 1.25 0 0 0 0-2.5m5.9 5a1.25 1.25 0 1 0 0 2.5a1.25 1.25 0 0 0 0-2.5m-5.9 4.5a1.25 1.25 0 1 0 0 2.5a1.25 1.25 0 0 0 0-2.5"/><path d="M24 12.568c0 6.627-5.373 12-12 12s-12-5.373-12-12c0-6.628 5.373-12 12-12s12 5.372 12 12m-1.5 0c0 5.799-4.701 10.5-10.5 10.5s-10.5-4.701-10.5-10.5s4.701-10.5 10.5-10.5s10.5 4.7 10.5 10.5"/></g></svg>