<svg xmlns="http://www.w3.org/2000/svg" width="1em" height="1em" viewBox="0 0 16 16"><path fill="currentColor" d="M5.146 3.854a.5.5 0 0 1 0-.707l2-2a.5.5 0 0 1 .707 0l2 2a.5.5 0 0 1-.708.707L7.999 2.708v.793a.5.5 0 0 1-1 0v-.793L5.853 3.854a.5.5 0 0 1-.707 0M7.5 5a.5.5 0 1 0 0 1a.5.5 0 0 0 0-1m0 2a.5.5 0 1 0 0 1a.5.5 0 0 0 0-1M14 8.5v3c0 1.379-1.122 2.5-2.5 2.5h-8A2.503 2.503 0 0 1 1 11.5v-3a.5.5 0 0 1 .5-.5h4a.5.5 0 0 1 .5.5V9c0 .827.673 1.5 1.5 1.5S9 9.827 9 9v-.5a.5.5 0 0 1 .5-.5h4a.5.5 0 0 1 .5.5M13 9h-3c0 1.379-1.122 2.5-2.5 2.5A2.503 2.503 0 0 1 5 9H2v2.5c0 .827.673 1.5 1.5 1.5h8c.827 0 1.5-.673 1.5-1.5z"/></svg>