<svg xmlns="http://www.w3.org/2000/svg" width="1em" height="1em" viewBox="0 0 16 16"><path fill="currentColor" d="M5.07 11.072a1.49 1.49 0 0 1 1.131-1.022q.151-.551.407-1.05h-.107c-.565 0-1.081.195-1.5.512V4.949c1.14-.232 2-1.242 2-2.449c0-1.379-1.121-2.5-2.5-2.5a2.5 2.5 0 0 0-2.5 2.5c0 1.208.86 2.217 2 2.449v6.101c-1.14.232-2 1.242-2 2.449c0 1.379 1.121 2.5 2.5 2.5a2.5 2.5 0 0 0 2.329-1.611a5.46 5.46 0 0 1-.828-2.872a2.5 2.5 0 0 0-.931-.446zM3 2.501c0-.827.673-1.5 1.5-1.5s1.5.673 1.5 1.5s-.673 1.5-1.5 1.5S3 3.328 3 2.501m1.5 12.5c-.827 0-1.5-.673-1.5-1.5s.673-1.5 1.5-1.5s1.5.673 1.5 1.5s-.673 1.5-1.5 1.5m4.72-8.499A2.5 2.5 0 0 1 9 5.501c0-1.379 1.121-2.5 2.5-2.5s2.5 1.121 2.5 2.5c0 .358-.083.694-.219 1.002a5.5 5.5 0 0 0-.946-.331c.102-.203.166-.428.166-.671c0-.827-.673-1.5-1.5-1.5s-1.5.673-1.5 1.5c0 .242.063.468.166.671a5.5 5.5 0 0 0-.946.331zm2.28.499a4.5 4.5 0 1 0 0 9a4.5 4.5 0 0 0 0-9m1.982 5.066a.5.5 0 0 1-.5.866L12 12.366V13.5a.5.5 0 0 1-1 0v-1.134l-.982.567a.5.5 0 0 1-.5-.866l.982-.567l-.982-.567a.5.5 0 0 1 .5-.866l.982.567V9.5a.5.5 0 0 1 1 0v1.134l.982-.567a.5.5 0 0 1 .5.866l-.982.567z"/></svg>