<svg xmlns="http://www.w3.org/2000/svg" width="1em" height="1em" viewBox="0 0 18 18"><path fill="currentColor" d="M9 2C5.141 2 2 5.141 2 9s3.141 7 7 7s7-3.141 7-7s-3.141-7-7-7m0 13c-.578 0-1.314-1.094-1.712-3h3.425c-.398 1.906-1.134 3-1.712 3zm-1.879-4A16 16 0 0 1 7 9c0-.723.044-1.392.121-2h3.757c.077.608.121 1.277.121 2s-.044 1.392-.121 2zM3 9c0-.701.121-1.374.343-2h2.778a16.6 16.6 0 0 0 0 4H3.343A6 6 0 0 1 3 9m6-6c.578 0 1.314 1.094 1.712 3H7.287C7.685 4.094 8.422 3 9 3m2.879 4h2.778c.222.626.343 1.299.343 2s-.121 1.374-.343 2h-2.778a16.6 16.6 0 0 0 0-4m2.316-1h-2.473c-.206-1.062-.523-2.02-.947-2.732A6.03 6.03 0 0 1 14.195 6M7.226 3.268c-.424.712-.742 1.67-.947 2.732H3.806a6.03 6.03 0 0 1 3.42-2.732M3.805 12h2.473c.206 1.062.523 2.02.947 2.732A6.03 6.03 0 0 1 3.805 12m6.969 2.732c.424-.712.742-1.67.947-2.732h2.473a6.03 6.03 0 0 1-3.42 2.732"/></svg>