<svg xmlns="http://www.w3.org/2000/svg" width="1em" height="1em" viewBox="0 0 18 18"><path fill="currentColor" d="M15 3h-3a1 1 0 0 0-1 1v1H9v-.25A.75.75 0 0 0 8.25 4h-1.5a.75.75 0 0 0-.75.75v1.5c0 .413.337.75.75.75h1.5c.413 0 .75-.337.75-.75V6h2v1a1 1 0 0 0 1 1h3a1 1 0 0 0 1-1V4a1 1 0 0 0-1-1M8 6H7V5h1zm7 1h-3V4h3zm0 2h-3a1 1 0 0 0-1 1v1H9v-.25a.75.75 0 0 0-.75-.75h-1.5a.75.75 0 0 0-.75.75v1.5c0 .413.337.75.75.75h1.5c.413 0 .75-.337.75-.75V12h2v1a1 1 0 0 0 1 1h3a1 1 0 0 0 1-1v-3a1 1 0 0 0-1-1m-7 3H7v-1h1zm7 1h-3v-3h3zm-9.499 1.501a.5.5 0 0 1-.5.5a2 2 0 0 1-2-2v-2c0-.533-.009-1.298-.091-1.502c-.062-.157-.195-.331-.634-.551a.5.5 0 0 1 0-.894c.439-.22.571-.395.634-.551c.081-.203.089-.467.089-.997V4.001a2 2 0 0 1 2.001-2A.5.5 0 1 1 5 3a1 1 0 0 0-1 1l-.002 2.571c0 .444 0 .902-.161 1.303a1.7 1.7 0 0 1-.438.626c.196.18.342.384.439.627c.161.404.163 1.366.163 1.815v2.059a1 1 0 0 0 1 1a.5.5 0 0 1 .5.5"/></svg>