<svg xmlns="http://www.w3.org/2000/svg" width="1em" height="1em" viewBox="0 0 18 18"><path fill="currentColor" d="M9.022 15.072a.5.5 0 0 1-.354-.146L3.104 9.361a3.74 3.74 0 0 1-1.106-2.662c0-1.754 1.328-3.698 3.73-3.698c.975 0 1.951.357 2.665 1.07l.602.601l.592-.595a3.73 3.73 0 0 1 2.642-1.074c2.975 0 3.769 2.682 3.769 3.75c0 .957-.362 1.913-1.086 2.641l-5.536 5.533a.5.5 0 0 1-.354.146zM5.728 3.965a2.726 2.726 0 0 0-2.73 2.731c0 .876.397 1.541.813 1.957l5.211 5.213l5.182-5.179c.53-.533.794-1.233.794-1.934a2.754 2.754 0 0 0-2.769-2.76c-.704 0-1.406.263-1.934.791l-.944.949a.5.5 0 0 1-.708.001l-.956-.955a2.75 2.75 0 0 0-1.958-.813z"/></svg>