<svg xmlns="http://www.w3.org/2000/svg" width="1em" height="1em" viewBox="0 0 18 18"><path fill="currentColor" d="M4.5 2A2.5 2.5 0 0 0 2 4.5v9A2.5 2.5 0 0 0 4.5 16h9a2.5 2.5 0 0 0 2.5-2.5v-9A2.5 2.5 0 0 0 13.5 2zM15 9h-3.5l-.09.008A.5.5 0 0 0 11 9.5c0 .052-.008.162-.032.308a2.5 2.5 0 0 1-.228.718c-.308.618-.843.974-1.74.974s-1.432-.356-1.74-.974a2.6 2.6 0 0 1-.228-.718A2 2 0 0 1 7 9.5a.5.5 0 0 0-.5-.5H3V4.5A1.5 1.5 0 0 1 4.5 3h9A1.5 1.5 0 0 1 15 4.5zM3 10h3.044l.035.174c.057.252.149.524.286.8C6.838 11.919 7.71 12.5 9 12.5s2.162-.581 2.635-1.526l.095-.206q.128-.309.19-.594l.035-.174H15v3.5a1.5 1.5 0 0 1-1.5 1.5h-9A1.5 1.5 0 0 1 3 13.5z"/></svg>