<svg xmlns="http://www.w3.org/2000/svg" width="1em" height="1em" viewBox="0 0 18 18"><path fill="currentColor" d="M13 6a1 1 0 1 1-2 0a1 1 0 0 1 2 0m3 .5c0 2.481-2.019 4.5-4.5 4.5h-1.314l-.797.775a.5.5 0 0 1-.138.095l-.179.083a.5.5 0 0 1-.211.046H8v1.293c0 .133-.053.26-.146.354l-.207.207a.5.5 0 0 1-.354.146H6v1.293a.5.5 0 0 1-.146.353l-.206.207a.5.5 0 0 1-.354.147H3c-.552-.002-1-.451-1-1.001v-1.593c0-.263.106-.521.293-.707L7.19 7.801A4.505 4.505 0 0 1 11.5 2C13.981 2 16 4.019 16 6.5m-1 0C15 4.57 13.43 3 11.5 3a3.504 3.504 0 0 0-3.269 4.755a.5.5 0 0 1-.113.533L3 13.406v1.593h2V13.5a.5.5 0 0 1 .5-.5H7v-1.5a.5.5 0 0 1 .5-.5h1.252l.882-.858A.5.5 0 0 1 9.983 10h1.518c1.93 0 3.5-1.57 3.5-3.5z"/></svg>