<svg xmlns="http://www.w3.org/2000/svg" width="1em" height="1em" viewBox="0 0 18 18"><g fill="currentColor"><path d="M10.353 7.148a.5.5 0 0 0-.707 0l-1.5 1.5l-.001-.002a.5.5 0 0 0 0 .708l1.5 1.5a.504.504 0 0 0 .707 0a.5.5 0 0 0 0-.707L9.708 9.5H13.5a.5.5 0 0 0 0-1H9.707l.645-.647a.5.5 0 0 0 0-.706"/><path fill-rule="evenodd" d="M4.5 2A2.5 2.5 0 0 0 2 4.5v9A2.5 2.5 0 0 0 4.5 16h9a2.5 2.5 0 0 0 2.5-2.5v-9A2.5 2.5 0 0 0 13.5 2zm9 1A1.5 1.5 0 0 1 15 4.5v9a1.5 1.5 0 0 1-1.5 1.5H7V3z" clip-rule="evenodd"/></g></svg>