<svg xmlns="http://www.w3.org/2000/svg" width="1em" height="1em" viewBox="0 0 18 18"><g fill="currentColor"><path d="M7.647 7.148a.5.5 0 0 1 .707 0l1.5 1.5l.001-.002a.5.5 0 0 1 0 .708l-1.5 1.5a.504.504 0 0 1-.708 0a.5.5 0 0 1 0-.707l.646-.646H4.5a.5.5 0 0 1 0-1h3.793l-.646-.647a.5.5 0 0 1 0-.706"/><path fill-rule="evenodd" d="M13.5 2A2.5 2.5 0 0 1 16 4.5v9a2.5 2.5 0 0 1-2.5 2.5h-9A2.5 2.5 0 0 1 2 13.5v-9A2.5 2.5 0 0 1 4.5 2zm-9 1A1.5 1.5 0 0 0 3 4.5v9A1.5 1.5 0 0 0 4.5 15H11V3z" clip-rule="evenodd"/></g></svg>