<svg xmlns="http://www.w3.org/2000/svg" width="1em" height="1em" viewBox="0 0 18 18"><path fill="currentColor" fill-rule="evenodd" d="M13.156 5.702a4.3 4.3 0 0 0-.974-1.417A4.55 4.55 0 0 0 9 3a4.4 4.4 0 0 0-3.167 1.31A4.76 4.76 0 0 0 4.5 7.544v.038a5.32 5.32 0 0 0 1.737 3.455l.229.963l.471 1.978l.008.022c.098.289.285.54.534.717c.257.184.566.283.883.283h1.404c.309-.026.602-.146.84-.345c.239-.199.408-.47.481-.773L11.581 12l.306-1.168A4.73 4.73 0 0 0 13.5 7.387a4.3 4.3 0 0 0-.344-1.685m-3.038 7.926v.013A.5.5 0 0 1 9.7 14H8.361a.51.51 0 0 1-.461-.3l-.167-.7h2.549zm1.986-4.687a3.8 3.8 0 0 1-1.004 1.251l-.108.1L10.543 12H7.494l-.349-1.464l-.1-.1A4.47 4.47 0 0 1 5.5 7.556a3.76 3.76 0 0 1 1.043-2.543A3.4 3.4 0 0 1 9 4a3.55 3.55 0 0 1 2.486 1A3.3 3.3 0 0 1 12.5 7.387c-.02.54-.155 1.07-.396 1.554" clip-rule="evenodd"/></svg>