<svg xmlns="http://www.w3.org/2000/svg" width="1em" height="1em" viewBox="0 0 16 16"><g fill="currentColor" fill-rule="evenodd" clip-rule="evenodd"><path d="M11.5 7a4.5 4.5 0 1 1 0 9a4.5 4.5 0 0 1 0-9m0 2a.5.5 0 0 0-.5.5V11H9.5a.5.5 0 1 0 0 1H11v1.5a.5.5 0 0 0 1 0V12h1.5a.5.5 0 0 0 0-1H12V9.5a.5.5 0 0 0-.5-.5"/><path d="M7.5 1c1.24 0 2.25 1.01 2.25 2.25c0 .478-.153.92-.408 1.286a2 2 0 0 1 1.6 1.492q-.507.052-.983.192A1 1 0 0 0 9 5.5H6c-.552 0-1 .45-1 1v3h1v4a.5.5 0 0 0 .5.5h.102q.274.539.656 1H6.5c-.827 0-1.5-.672-1.5-1.5v-3a1 1 0 0 1-1-1v-3a2 2 0 0 1 1.658-1.964A2.23 2.23 0 0 1 5.25 3.25C5.25 2.01 6.26 1 7.5 1m0 1a1.251 1.251 0 1 0 1.25 1.25C8.75 2.561 8.189 2 7.5 2"/></g></svg>