<svg xmlns="http://www.w3.org/2000/svg" width="1em" height="1em" viewBox="0 0 18 18"><path fill="currentColor" d="M4.5 3A2.5 2.5 0 0 0 2 5.5v7A2.5 2.5 0 0 0 4.5 15h9a2.5 2.5 0 0 0 2.5-2.5v-7A2.5 2.5 0 0 0 13.5 3zM3 5.5A1.5 1.5 0 0 1 4.5 4h9A1.5 1.5 0 0 1 15 5.5v7a1.5 1.5 0 0 1-1.5 1.5h-9A1.5 1.5 0 0 1 3 12.5zM4 6a1 1 0 0 1 1-1h8a1 1 0 0 1 1 1v1a1 1 0 0 1-1 1H5a1 1 0 0 1-1-1zm9 0H5v1h8zm-4 4a1 1 0 0 1 1-1h3a1 1 0 0 1 1 1v2a1 1 0 0 1-1 1h-3a1 1 0 0 1-1-1zm4 0h-3v2h3zM4.5 9a.5.5 0 0 0 0 1h3a.5.5 0 0 0 0-1zM4 11.5a.5.5 0 0 1 .5-.5h3a.5.5 0 0 1 0 1h-3a.5.5 0 0 1-.5-.5"/></svg>