<svg xmlns="http://www.w3.org/2000/svg" width="1em" height="1em" viewBox="0 0 18 18"><g fill="currentColor" fill-rule="evenodd" clip-rule="evenodd"><path d="M13.375 5.5c.81-.028.904-.006 1.074.052v-.007c.67.234 1.14.93 1.424 2.107c.114.47.152 1.036.11 1.64c-.06.889-.177 1.398-.451 1.963c-.147.301-.207.388-.415.601c-.264.27-.536.428-.866.505c-.125.029-.816.043-2.74.057l-2.574.017v.4l3.37.023l.018.068c.029.11.02 1.178-.012 1.493c-.05.478-.149.732-.383.986c-.168.182-.53.367-.889.454c-.516.126-.75.142-2.09.142c-1.354 0-1.697-.025-2.087-.144c-.534-.164-1.081-.667-1.244-1.144c-.104-.31-.12-.625-.12-2.36c0-1.84-.038-2.072.13-2.389c.177-.334.206-.318.614-.472c.17-.064.575-.048 2.319-.054c1.88-.012 3.132.022 3.45-.077c.472-.149.977-.359 1.187-.787c.199-.408.16-.674.175-1.76zm-2.258 8.294a.69.69 0 0 0-.608.047c-.201.137-.27.27-.27.529c0 .198.01.237.092.355a.63.63 0 0 0 .824.204c.464-.242.442-.907-.037-1.135"/><path d="M9.048 2c1.355 0 1.698.025 2.09.144c.533.164 1.079.667 1.241 1.145c.105.309.122.624.121 2.36c0 1.84-.007 1.92-.175 2.236c-.177.336-.51.476-.916.63c-.17.064-.227.042-1.971.048c-1.88.012-3.447-.008-3.861.14c-.473.148-.649.31-.858.739c-.174.357-.104.929-.094 1.794v1.265c-.81.028-.904.007-1.074-.052v.008c-.67-.235-1.14-.931-1.425-2.108c-.113-.47-.151-1.036-.11-1.64c.06-.889.178-1.397.453-1.962c.147-.302.206-.389.415-.602c.264-.269.535-.427.864-.505c.125-.029.816-.043 2.742-.056l2.573-.018v-.4l-3.37-.023l-.018-.068c-.03-.11-.02-1.178.012-1.492c.05-.479.148-.733.383-.987c.168-.182.53-.367.888-.454c.517-.125.75-.141 2.09-.141m-1.38 1.276a.63.63 0 0 0-.823-.204c-.464.242-.443.907.037 1.136a.69.69 0 0 0 .609-.048c.201-.136.27-.27.27-.529c0-.197-.01-.236-.093-.355"/></g></svg>