<svg xmlns="http://www.w3.org/2000/svg" width="1em" height="1em" viewBox="0 0 18 18"><g fill="currentColor"><path d="M9 12a.75.75 0 1 1 0 1.5a.75.75 0 0 1 0-1.5m0-7c1.262 0 2.25.988 2.25 2.25c0 1.083-.566 1.649-1.021 2.104c-.408.407-.729.728-.729 1.396a.5.5 0 0 1-1 0c0-1.083.566-1.649 1.021-2.104c.408-.407.729-.728.729-1.396C10.25 6.538 9.712 6 9 6s-1.25.538-1.25 1.25a.5.5 0 0 1-1 0C6.75 5.988 7.738 5 9 5"/><path fill-rule="evenodd" d="M9 2c3.86 0 7 3.14 7 7s-3.14 7-7 7s-7-3.14-7-7s3.14-7 7-7m0 1C5.691 3 3 5.691 3 9s2.691 6 6 6s6-2.691 6-6s-2.691-6-6-6" clip-rule="evenodd"/></g></svg>