<svg xmlns="http://www.w3.org/2000/svg" width="1em" height="1em" viewBox="0 0 16 16"><g fill="currentColor"><path d="M7.508 4.41L7.5 4.5V7l.008.09a.5.5 0 0 0 .984 0L8.5 7V4.5l-.008-.09a.5.5 0 0 0-.984 0M7.25 9.25a.75.75 0 1 0 1.5 0a.75.75 0 0 0-1.5 0"/><path fill-rule="evenodd" d="M2.5 2h11c.83 0 1.5.67 1.5 1.5v7c0 .83-.67 1.5-1.5 1.5H8.69l-3.06 2.68c-.64.55-1.63.1-1.63-.74V12H2.5c-.83 0-1.5-.67-1.5-1.5v-7C1 2.67 1.67 2 2.5 2m11 9c.28 0 .5-.22.5-.5v-7c0-.28-.22-.5-.5-.5h-11c-.28 0-.5.22-.5.5v7c0 .28.22.5.5.5H5v2.9L8.31 11z" clip-rule="evenodd"/></g></svg>