<svg xmlns="http://www.w3.org/2000/svg" width="1em" height="1em" viewBox="0 0 18 18"><path fill="currentColor" d="M13 10H5c-.827 0-1.5.673-1.5 1.5v.5c0 .123.062 3 5.5 3s5.5-2.877 5.5-3v-.5c0-.827-.673-1.5-1.5-1.5m.5 1.991C13.497 12.073 13.372 14 9 14s-4.497-1.927-4.5-2v-.5A.5.5 0 0 1 5 11h8a.5.5 0 0 1 .5.5zM6.5 9h5c.827 0 1.5-.673 1.5-1.5v-3c0-.827-.673-1.5-1.5-1.5h-2v-.5a.5.5 0 0 0-1 0V3h-2C5.673 3 5 3.673 5 4.5v3C5 8.327 5.673 9 6.5 9M6 4.5a.5.5 0 0 1 .5-.5h5a.5.5 0 0 1 .5.5v3a.5.5 0 0 1-.5.5h-5a.5.5 0 0 1-.5-.5zM6.75 6a.75.75 0 1 1 1.5 0a.75.75 0 0 1-1.5 0m3 0a.75.75 0 1 1 1.5 0a.75.75 0 0 1-1.5 0"/></svg>