<svg xmlns="http://www.w3.org/2000/svg" width="1em" height="1em" viewBox="0 0 18 18"><path fill="currentColor" d="M2 5.5A2.5 2.5 0 0 1 4.5 3h8A2.5 2.5 0 0 1 15 5.5v8a2.5 2.5 0 0 1-2.5 2.5h-8A2.5 2.5 0 0 1 2 13.5zM4.5 4A1.5 1.5 0 0 0 3 5.5v8A1.5 1.5 0 0 0 4.5 15h8a1.5 1.5 0 0 0 1.5-1.5v-8A1.5 1.5 0 0 0 12.5 4zm1 9.25a.75.75 0 1 0 0-1.5a.75.75 0 0 0 0 1.5M9 12.5C9 10.57 7.43 9 5.5 9a.5.5 0 0 0 0 1C6.879 10 8 11.121 8 12.5a.5.5 0 0 0 1 0m3 0C12 8.916 9.084 6 5.5 6a.5.5 0 0 0 0 1C8.532 7 11 9.468 11 12.5a.5.5 0 0 0 1 0"/></svg>