<svg xmlns="http://www.w3.org/2000/svg" width="1em" height="1em" viewBox="0 0 16 16"><path fill="currentColor" d="M2 6.607a5.5 5.5 0 0 0-1 .654v-.365a1.49 1.49 0 0 1 1-1.39zm8.76 5.219s-.001.005-.003.007l-.007.003l-.814.458c-.069.474-.193.93-.375 1.357l1.679-.945a1.51 1.51 0 0 0 .74-1.56zm3.032-4.596a1.5 1.5 0 0 0-.557-.55l-8.01-4.506a1.53 1.53 0 0 0-1.478.036A1.52 1.52 0 0 0 3 3.486v2.727a5.4 5.4 0 0 1 1-.188v-2.54a.498.498 0 0 1 .745-.435l8 4.5a.5.5 0 0 1 0 .87l-2.939 1.653q.137.507.175 1.047l3.254-1.83a1.51 1.51 0 0 0 .761-1.306c0-.266-.07-.526-.204-.756zM9 11.5a4.5 4.5 0 1 1-9 0a4.5 4.5 0 0 1 9 0M6.854 9.646a.5.5 0 0 0-.707 0l-2.646 2.646l-.646-.646a.5.5 0 0 0-.707.707l1 1a.5.5 0 0 0 .707 0l3-3a.5.5 0 0 0-.001-.707"/></svg>