<svg xmlns="http://www.w3.org/2000/svg" width="1em" height="1em" viewBox="0 0 18 18"><path fill="currentColor" fill-rule="evenodd" d="M16 7.12V12c0 1.06-.42 2.08-1.17 2.83S13.06 16 12 16H6c-.09 0-.18-.01-.26-.02s-.16-.02-.24-.05a1.7 1.7 0 0 1-.5-.2c-.08-.05-.15-.09-.22-.15q-.21-.15-.36-.36c-.06-.07-.1-.14-.15-.22H12c.35 0 .69-.06 1-.18c.42-.14.8-.38 1.12-.7c.56-.56.88-1.32.88-2.12V5.3l.41.41c.38.37.59.89.59 1.41M12 14H4c-1.103 0-2-.897-2-2V4c0-1.103.897-2 2-2h6.879a2 2 0 0 1 1.414.586l1.121 1.121c.373.372.586.888.586 1.414V12c0 1.103-.897 2-2 2M6.999 4H9V3H6.999zM10 9H6v4h4zm1 0v4h1c.551 0 1-.449 1-1V5.121c0-.263-.107-.521-.293-.707l-1.121-1.121A1 1 0 0 0 10.879 3H10v1c0 .551-.449 1-1 1H7c-.551 0-1-.449-1-1V3H4c-.551 0-1 .449-1 1v8c0 .551.449 1 1 1h1V9c0-.551.449-1 1-1h4c.551 0 1 .449 1 1" clip-rule="evenodd"/></svg>