<svg xmlns="http://www.w3.org/2000/svg" width="1em" height="1em" viewBox="0 0 18 18"><path fill="currentColor" d="M6 10.5a.5.5 0 0 1 .5-.5h5c.238 0 .429.171.479.394l.75-.75A1.5 1.5 0 0 0 11.5 9h-5C5.673 9 5 9.673 5 10.5V15H4c-.551 0-1-.449-1-1V4c0-.551.449-1 1-1h2v1.5C6 5.327 6.673 6 7.5 6h2c.827 0 1.5-.673 1.5-1.5V3h1.379c.263 0 .521.107.707.293l1.621 1.621c.186.186.293.444.293.707V8.04c.143-.025.289-.043.437-.043c.192 0 .38.026.563.067V5.62a2 2 0 0 0-.586-1.414l-1.621-1.621a2 2 0 0 0-1.414-.586H4C2.897 2 2 2.897 2 4v10c0 1.103.897 2 2 2h4.045l.248-1H6zM7 3h3v1.5a.5.5 0 0 1-.5.5h-2a.5.5 0 0 1-.5-.5zm10 7.559c0 .205-.04.408-.118.598a1.6 1.6 0 0 1-.339.507l-4.289 4.287a2.8 2.8 0 0 1-1.29.731l-1.211.3a.6.6 0 0 1-.578-.16a.61.61 0 0 1-.16-.578l.3-1.211c.122-.489.374-.935.73-1.291l4.288-4.287a1.56 1.56 0 0 1 2.208 0A1.55 1.55 0 0 1 17 10.559"/></svg>