<svg xmlns="http://www.w3.org/2000/svg" width="1em" height="1em" viewBox="0 0 18 18"><path fill="currentColor" d="m15.414 4.207l-1.621-1.621A2 2 0 0 0 12.379 2H4c-1.103 0-2 .897-2 2v10c0 1.103.897 2 2 2h10c1.103 0 2-.897 2-2V5.621a2 2 0 0 0-.586-1.414M10 3v1.5a.5.5 0 0 1-.5.5h-2a.5.5 0 0 1-.5-.5V3zM6 15v-4.5a.5.5 0 0 1 .5-.5h5a.5.5 0 0 1 .5.5V15zm9-1c0 .551-.449 1-1 1h-1v-4.5c0-.827-.673-1.5-1.5-1.5h-5C5.673 9 5 9.673 5 10.5V15H4c-.551 0-1-.449-1-1V4c0-.551.449-1 1-1h2v1.5C6 5.327 6.673 6 7.5 6h2c.827 0 1.5-.673 1.5-1.5V3h1.379c.263 0 .521.107.707.293l1.621 1.621c.186.186.293.444.293.707z"/></svg>