<svg xmlns="http://www.w3.org/2000/svg" width="1em" height="1em" viewBox="0 0 18 18"><path fill="currentColor" d="M16.264 7.275a.94.94 0 0 0-.77-.648l-3.896-.566L9.856 2.53c-.33-.665-1.381-.666-1.711 0L6.403 6.06l-3.897.566a.94.94 0 0 0-.771.654a.94.94 0 0 0 .244.973l2.818 2.748l-.666 3.88a.94.94 0 0 0 .208.773a.965.965 0 0 0 1.177.232L9 14.054l3.483 1.832q.212.112.444.112c.28 0 .548-.125.732-.344a.93.93 0 0 0 .209-.774L13.202 11l2.819-2.748a.94.94 0 0 0 .241-.979zm-3.947 3.195a.5.5 0 0 0-.145.442l.719 4.06l-3.659-1.924A.5.5 0 0 0 9 12.99V3.057l1.817 3.682c.072.147.214.25.376.273l4.131.526z"/></svg>