<svg xmlns="http://www.w3.org/2000/svg" width="1em" height="1em" viewBox="0 0 18 18"><path fill="currentColor" d="M6 6.1c0-.554.292-1.065.84-1.455C7.392 4.252 8.187 4 9.1 4c1.298 0 2.384.56 2.763 1.243a.5.5 0 0 0 .874-.486C12.117 3.64 10.602 3 9.1 3c-1.087 0-2.092.298-2.84.83C5.508 4.365 5 5.154 5 6.1c0 .72.3 1.375.79 1.9h1.722C6.552 7.593 6 6.83 6 6.1M14.5 9a.5.5 0 0 1 0 1h-2.342c.517.504.842 1.149.842 1.9c0 .902-.515 1.688-1.255 2.229c-.743.543-1.749.871-2.845.871c-1.624 0-3.002-.65-3.716-1.723a.5.5 0 0 1 .832-.554C6.502 13.45 7.524 14 8.9 14c.904 0 1.698-.272 2.255-.679c.56-.409.845-.923.845-1.421c0-.775-.63-1.526-1.777-1.9H3.5a.5.5 0 0 1 0-1z"/></svg>