<svg xmlns="http://www.w3.org/2000/svg" width="1em" height="1em" viewBox="0 0 18 18"><path fill="currentColor" d="M9.001 2c-3.867 0-7 2.8-7 6.667A2.33 2.33 0 0 0 4.334 11C5.751 11 5.721 10 7 10c.644 0 1 .606 1 1.25v1.25a3.5 3.5 0 0 0 3.5 3.5c3.153 0 4.499-3.785 4.499-7A7 7 0 0 0 9 2zM11.5 15A2.503 2.503 0 0 1 9 12.5v-1.25C9 9.967 8.14 9 7 9c-.96 0-1.502.412-1.861.685c-.285.217-.415.315-.805.315a1.335 1.335 0 0 1-1.333-1.333C3.001 5.436 5.58 3 9.001 3A6.006 6.006 0 0 1 15 9c0 2.412-.932 6-3.499 6zm1.5-3a1 1 0 1 1-2 0a1 1 0 0 1 2 0m1-3a1 1 0 1 1-2 0a1 1 0 0 1 2 0M7 6a1 1 0 1 1-2 0a1 1 0 0 1 2 0m4 0a1 1 0 1 1 2 0a1 1 0 0 1-2 0m-1-1a1 1 0 1 1-2 0a1 1 0 0 1 2 0"/></svg>