<svg xmlns="http://www.w3.org/2000/svg" width="1em" height="1em" viewBox="0 0 18 18"><path fill="currentColor" d="M16 4.5v4c0 .4-.15.78-.44 1.06c-.28.28-.66.44-1.06.44H12v-.5c0-.17-.02-.34-.05-.5h2.55c.13 0 .26-.05.35-.15c.1-.09.15-.22.15-.35v-4a.47.47 0 0 0-.15-.35a.47.47 0 0 0-.35-.15h-6a.47.47 0 0 0-.35.15a.47.47 0 0 0-.15.35V7H7V4.5A1.5 1.5 0 0 1 8.5 3h6A1.5 1.5 0 0 1 16 4.5M13.5 6a.5.5 0 0 0 0-1h-4a.5.5 0 0 0 0 1zm.5 1.5c0-.28-.22-.5-.5-.5h-4c.82 0 1.54.39 2 1h2c.28 0 .5-.22.5-.5M8.5 11h-4a.5.5 0 0 0 0 1h4a.5.5 0 0 0 0-1M11 9.5v4c0 .827-.673 1.5-1.5 1.5h-6c-.827 0-1.5-.673-1.5-1.5v-4C2 8.673 2.673 8 3.5 8h6c.827 0 1.5.673 1.5 1.5"/></svg>