<svg xmlns="http://www.w3.org/2000/svg" width="1em" height="1em" viewBox="0 0 18 18"><path fill="currentColor" d="M13.5 2h-9A2.5 2.5 0 0 0 2 4.5v9A2.5 2.5 0 0 0 4.5 16h9a2.5 2.5 0 0 0 2.5-2.5v-9A2.5 2.5 0 0 0 13.5 2M15 13.5a1.5 1.5 0 0 1-1.5 1.5h-9A1.5 1.5 0 0 1 3 13.5V6h12zM15 5H3v-.5A1.5 1.5 0 0 1 4.5 3h9A1.5 1.5 0 0 1 15 4.5zM5 11.508v-2c0-.827.673-1.5 1.5-1.5s1.5.673 1.5 1.5a.5.5 0 0 1-1 0a.5.5 0 0 0-1 0v2a.5.5 0 0 0 1 0a.5.5 0 0 1 1 0c0 .827-.673 1.5-1.5 1.5s-1.5-.673-1.5-1.5M9 9.5a.5.5 0 1 1 1 0a.5.5 0 0 1-1 0m0 2a.5.5 0 1 1 1 0a.5.5 0 0 1-1 0m1.532-2.824a.5.5 0 0 1 .292-.644a.5.5 0 0 1 .644.292l1.5 4A.5.5 0 0 1 12.5 13a.5.5 0 0 1-.468-.324z"/></svg>