<svg xmlns="http://www.w3.org/2000/svg" width="1em" height="1em" viewBox="0 0 18 18"><path fill="currentColor" d="m7.825 9.882l-2.363 2a.501.501 0 0 1-.646-.764l1.988-1.682l-1.325-1.619a.5.5 0 0 1 .773-.634l1.636 2a.5.5 0 0 1-.063.699M12 11H8.5a.5.5 0 0 0 0 1H12a.5.5 0 0 0 0-1m4.784-6.027l-1.731 9A2.5 2.5 0 0 1 12.598 16H3.671a2.5 2.5 0 0 1-1.928-.908a2.49 2.49 0 0 1-.527-2.064l1.731-9.001A2.5 2.5 0 0 1 5.402 2h8.927c.748 0 1.451.331 1.928.908s.669 1.329.527 2.064zm-1.299-1.428A1.5 1.5 0 0 0 14.329 3H5.402c-.718 0-1.338.512-1.473 1.217l-1.731 9c-.085.44.03.893.316 1.238c.286.347.707.545 1.156.545h8.927c.718 0 1.338-.512 1.473-1.217l1.731-9c.085-.44-.03-.893-.316-1.238"/></svg>