<svg xmlns="http://www.w3.org/2000/svg" width="1em" height="1em" viewBox="0 0 18 18"><path fill="currentColor" d="M6.669 2a.498.498 0 0 0-.667.47v1.816c0 .275-.225.5-.5.5a.5.5 0 0 1-.5-.5V2.47A.5.5 0 0 0 4.335 2a3.5 3.5 0 0 0-2.333 3.287c0 1.359.79 2.589 2 3.162V14.5c0 .827.673 1.5 1.5 1.5s1.5-.673 1.5-1.5V8.449c1.21-.573 2-1.803 2-3.162A3.5 3.5 0 0 0 6.669 2m-.333 5.644a.5.5 0 0 0-.334.472v6.385c0 .275-.225.5-.5.5a.5.5 0 0 1-.5-.5V8.116a.5.5 0 0 0-.334-.472a2.5 2.5 0 0 1-1.666-2.356c0-.792.383-1.523 1-1.987v.987c0 .827.673 1.5 1.5 1.5s1.5-.673 1.5-1.5v-.987c.617.464 1 1.195 1 1.987c0 1.058-.67 2.005-1.666 2.356M14.5 9h-.498V5.118l.447-.895a.5.5 0 0 0 .027-.382l-.5-1.5a.5.5 0 0 0-.475-.342h-2a.5.5 0 0 0-.475.342l-.5 1.5a.5.5 0 0 0 .027.382l.447.895V9h-.5a.5.5 0 0 0-.5.5v4c0 1.379 1.121 2.5 2.5 2.5s2.5-1.121 2.5-2.5v-4a.5.5 0 0 0-.5-.5m-2.638-5.999h1.279l.32.962l-.407.814a.5.5 0 0 0-.053.224v4h-1v-4a.5.5 0 0 0-.052-.224l-.407-.814zm2.14 10.499c0 .827-.673 1.5-1.5 1.5s-1.5-.673-1.5-1.5V10h3z"/></svg>