<svg xmlns="http://www.w3.org/2000/svg" width="1em" height="1em" viewBox="0 0 16 16"><path fill="currentColor" d="M13.825 11.121a.499.499 0 0 1-.325.88H9v-1h3.148l-2.333-2H5.184l-2.333 2h3.148v1H1.5a.5.5 0 0 1-.325-.88L4.232 8.5L1.175 5.879a.499.499 0 0 1 .325-.88H6v1H2.852l2.333 2h4.631l2.333-2H9.001v-1h4.5a.5.5 0 0 1 .325.88L10.769 8.5l3.057 2.621zM5.854 3.854L7 2.708v3.793a.5.5 0 0 0 1 0V2.708l1.146 1.146a.5.5 0 0 0 .708 0a.5.5 0 0 0 0-.707l-2-2a.5.5 0 0 0-.707 0l-2 2a.5.5 0 0 0 .707.707m3.292 9.292L8 14.292v-3.793a.5.5 0 0 0-1 0v3.793l-1.146-1.146a.5.5 0 0 0-.707.707l2 2a.5.5 0 0 0 .708 0l2-2a.5.5 0 0 0-.707-.707z"/></svg>