<svg xmlns="http://www.w3.org/2000/svg" width="1em" height="1em" viewBox="0 0 18 18"><g fill="currentColor"><path fill-rule="evenodd" d="M12.5 17a4.5 4.5 0 1 0 0-9a4.5 4.5 0 0 0 0 9m2.354-5.647a.5.5 0 0 0-.707-.707l-2.646 2.646l-.646-.646a.5.5 0 0 0-.707.707l1 1a.5.5 0 0 0 .707 0z" clip-rule="evenodd"/><path d="M7.607 15H7v-2h.025A6 6 0 0 1 7 12.5q.001-.253.025-.5H4a1 1 0 0 1-1-1V4a1 1 0 0 1 1-1h10a1 1 0 0 1 1 1v3.607a5.5 5.5 0 0 1 1 .654V4a2 2 0 0 0-2-2H4a2 2 0 0 0-2 2v7a2 2 0 0 0 2 2h2v2H4.5a.5.5 0 0 0 0 1h3.761a5.5 5.5 0 0 1-.654-1"/></g></svg>