<svg xmlns="http://www.w3.org/2000/svg" width="1em" height="1em" viewBox="0 0 18 18"><path fill="currentColor" d="M7.607 15c.183.357.4.693.654 1H4.5a.5.5 0 0 1 0-1H6v-2H4a2 2 0 0 1-2-2V4a2 2 0 0 1 2-2h10a2 2 0 0 1 2 2v4.261a5.6 5.6 0 0 0-1-.654V4a1 1 0 0 0-1-1H4a1 1 0 0 0-1 1v7a1 1 0 0 0 1 1h3.025a6 6 0 0 0-.025.5q.001.253.025.5H7v2zM17 12.5c0 2.481-2.019 4.5-4.5 4.5A4.505 4.505 0 0 1 8 12.5C8 10.019 10.019 8 12.5 8s4.5 2.019 4.5 4.5m-1 0c0-1.93-1.57-3.5-3.5-3.5S9 10.57 9 12.5s1.57 3.5 3.5 3.5s3.5-1.57 3.5-3.5"/></svg>