<svg xmlns="http://www.w3.org/2000/svg" width="1em" height="1em" viewBox="0 0 18 18"><path fill="currentColor" d="M7.5 8.5A.5.5 0 0 1 7 9H5a.5.5 0 0 1 0-1h2a.5.5 0 0 1 .5.5M13 8h-2a.5.5 0 0 0 0 1h2a.5.5 0 0 0 0-1m4-.5v2a.5.5 0 0 1-.5.5H16v1.295A2.71 2.71 0 0 1 13.295 14h-1.59a2.67 2.67 0 0 1-2.278-1.273c-.174-.279-.68-.279-.854 0A2.67 2.67 0 0 1 6.295 14h-1.59A2.71 2.71 0 0 1 2 11.295V10h-.5a.5.5 0 0 1-.5-.5v-2a.5.5 0 0 1 .5-.5H2v-.295A2.71 2.71 0 0 1 4.705 4H7v-.5a.5.5 0 0 1 .5-.5h3a.5.5 0 0 1 .5.5V4h2.295A2.71 2.71 0 0 1 16 6.705V7h.5a.5.5 0 0 1 .5.5m-2-.795C15 5.765 14.235 5 13.295 5h-8.59C3.765 5 3 5.765 3 6.705v4.59C3 12.235 3.765 13 4.705 13h1.59c.583 0 1.117-.299 1.429-.801A1.51 1.51 0 0 1 9 11.5c.519 0 1.009.268 1.276.699c.312.501.846.801 1.429.801h1.59c.94 0 1.705-.765 1.705-1.705z"/></svg>