<svg xmlns="http://www.w3.org/2000/svg" width="1em" height="1em" viewBox="0 0 18 18"><path fill="currentColor" d="m7.855 7.146l1.146 1.146l1.147-1.147a.5.5 0 0 1 .638-.058l.069.058a.5.5 0 0 1 .058.638l-.058.069l-1.148 1.145l1.147 1.148a.5.5 0 0 1 .058.638l-.058.069a.5.5 0 0 1-.638.058l-.069-.058l-1.146-1.146l-1.147 1.147a.5.5 0 0 1-.638.058l-.069-.058a.5.5 0 0 1-.058-.638l.058-.069L8.293 9L7.148 7.853a.5.5 0 0 1-.058-.638l.058-.069a.5.5 0 0 1 .638-.058zM15 4.6v3.602c0 3.862-1.97 6.487-5.81 7.768a.6.6 0 0 1-.38 0C4.969 14.69 3 12.064 3 8.202V4.6a.6.6 0 0 1 .6-.6c1.835 0 3.485-.333 4.977-1.824a.6.6 0 0 1 .848 0C10.913 3.667 12.562 4 14.399 4c.331 0 .601.269.601.6m-1 .395c-1.58-.04-3.354-.349-4.999-1.843C7.353 4.645 5.579 4.955 4 4.995v3.206c0 3.396 1.636 5.614 5 6.776c3.364-1.162 5-3.38 5-6.776z"/></svg>