<svg xmlns="http://www.w3.org/2000/svg" width="1em" height="1em" viewBox="0 0 18 18"><path fill="currentColor" d="M14.4 4c-1.837 0-3.486-.333-4.974-1.824a.6.6 0 0 0-.848 0C7.086 3.667 5.436 4 3.601 4a.6.6 0 0 0-.6.6v3.602c0 3.862 1.97 6.487 5.81 7.768a.6.6 0 0 0 .38 0c3.841-1.28 5.81-3.906 5.81-7.768V4.6c0-.331-.27-.6-.601-.6M14 8.201c0 3.396-1.636 5.614-5 6.776c-3.364-1.162-5-3.38-5-6.776V4.995c1.579-.039 3.352-.349 5.001-1.843c1.646 1.493 3.42 1.803 4.999 1.843zM8.499 9.793l2.646-2.646a.5.5 0 0 1 .708.708l-3 3a.5.5 0 0 1-.708 0l-1.5-1.5a.5.5 0 0 1 .708-.708z"/></svg>