<?xml version="1.0" encoding="utf-8"?>
<!-- Generator: Adobe Illustrator 16.0.0, SVG Export Plug-In . SVG Version: 6.00 Build 0)  -->
<!DOCTYPE svg PUBLIC "-//W3C//DTD SVG 1.1//EN" "http://www.w3.org/Graphics/SVG/1.1/DTD/svg11.dtd">
<svg version="1.1" xmlns="http://www.w3.org/2000/svg" xmlns:xlink="http://www.w3.org/1999/xlink" x="0px" y="0px" width="4000px"
	 height="5600px" viewBox="0 0 4000 5600" style="enable-background:new 0 0 4000 5600;" xml:space="preserve">
<g id="Layer_2">
	<rect y="-0.001" style="fill:#F05324;" width="4000" height="5600.001"/>
</g>
<g id="Layer_1">
	<path style="fill:#DCB0D2;" d="M400,400c220.913,0,399.999-179.086,399.999-400H0C0,220.914,179.086,400,400,400z"/>
	<path style="fill:#084A2C;" d="M399.999,400C179.085,400,0,579.086,0,800h799.998C799.999,579.086,620.913,400,399.999,400z"/>
	<path style="fill:#DCB0D2;" d="M400,1200c220.913,0,399.999-179.086,399.999-400H0C0,1020.914,179.086,1200,400,1200z"/>
	<path style="fill:#084A2C;" d="M399.999,1200C179.085,1200,0,1379.086,0,1600h799.998C799.998,1379.086,620.913,1200,399.999,1200z
		"/>
	<path style="fill:#DCB0D2;" d="M400,2000C620.914,2000,800,1820.914,800,1600H0C0,1820.914,179.086,2000,400,2000z"/>
	<path style="fill:#084A2C;" d="M400,2000C179.086,2000,0,2179.086,0.001,2400h799.998C799.999,2179.086,620.913,2000,400,2000z"/>
	<path style="fill:#DCB0D2;" d="M400,2800c220.913,0,399.999-179.086,399.999-400H0C0,2620.914,179.085,2800,400,2800z"/>
	<path style="fill:#084A2C;" d="M399.999,2800C179.085,2800,0,2979.086,0,3200h799.998C799.998,2979.086,620.913,2800,399.999,2800z
		"/>
	<path style="fill:#DCB0D2;" d="M400,3600c220.913,0,399.999-179.086,399.999-400H0C0,3420.914,179.085,3600,400,3600z"/>
	<path style="fill:#084A2C;" d="M399.999,3600C179.085,3600,0,3779.086,0,4000h799.998C799.998,3779.086,620.913,3600,399.999,3600z
		"/>
	<path style="fill:#DCB0D2;" d="M400,4400c220.913,0,400-179.086,400-400H0C0,4220.914,179.086,4400,400,4400z"/>
	<path style="fill:#084A2C;" d="M399.999,4400C179.085,4400,0,4579.086,0,4800h799.998C799.999,4579.086,620.913,4400,399.999,4400z
		"/>
	<path style="fill:#DCB0D2;" d="M400,5200c220.914,0,399.999-179.086,399.999-400H0C0,5020.914,179.085,5200,400,5200z"/>
	<path style="fill:#084A2C;" d="M399.999,5200C179.085,5200,0,5379.086,0,5600h799.998C799.998,5379.086,620.913,5200,399.999,5200z
		"/>
	<path style="fill:#DCB0D2;" d="M1200,400c220.913,0,399.999-179.086,399.999-400H800C800,220.914,979.085,400,1200,400z"/>
	<path style="fill:#084A2C;" d="M1199.999,400C979.085,400,800,579.086,800,800h799.998C1599.998,579.086,1420.912,400,1199.999,400
		z"/>
	<path style="fill:#DCB0D2;" d="M1200,1200c220.913,0,399.999-179.086,399.999-400H800C800,1020.914,979.085,1200,1200,1200z"/>
	<path style="fill:#084A2C;" d="M1199.999,1200C979.085,1200,800,1379.086,800,1600h799.998
		C1599.998,1379.086,1420.913,1200,1199.999,1200z"/>
	<path style="fill:#DCB0D2;" d="M1200,2000c220.914,0,400-179.086,400-400H800C800,1820.914,979.086,2000,1200,2000z"/>
	<path style="fill:#084A2C;" d="M1199.999,2000C979.085,2000,800,2179.086,800,2400h799.998
		C1599.999,2179.086,1420.913,2000,1199.999,2000z"/>
	<path style="fill:#DCB0D2;" d="M1199.999,2800c220.913,0,399.999-179.086,399.999-400H799.999
		C799.999,2620.914,979.085,2800,1199.999,2800z"/>
	<path style="fill:#084A2C;" d="M1199.998,2800c-220.914,0-399.999,179.086-399.999,400h799.998
		C1599.998,2979.086,1420.912,2800,1199.998,2800z"/>
	<path style="fill:#DCB0D2;" d="M1199.999,3600c220.913,0,399.999-179.086,399.999-400H799.999
		C799.999,3420.914,979.085,3600,1199.999,3600z"/>
	<path style="fill:#084A2C;" d="M1199.998,3600c-220.914,0-399.999,179.086-399.999,400h799.998
		C1599.998,3779.086,1420.912,3600,1199.998,3600z"/>
	<path style="fill:#DCB0D2;" d="M1200,4400c220.912,0,400-179.086,400-400H800C800,4220.914,979.085,4400,1200,4400z"/>
	<path style="fill:#084A2C;" d="M1199.999,4400C979.085,4400,800,4579.086,800,4800h799.998
		C1599.998,4579.086,1420.912,4400,1199.999,4400z"/>
	<path style="fill:#DCB0D2;" d="M1199.999,5200c220.914,0,399.999-179.086,399.999-400H799.999
		C799.999,5020.914,979.085,5200,1199.999,5200z"/>
	<path style="fill:#084A2C;" d="M1199.998,5200c-220.914,0-399.999,179.086-399.999,400h799.998
		C1599.998,5379.086,1420.913,5200,1199.998,5200z"/>
	<path style="fill:#DCB0D2;" d="M1999.999,400c220.914,0,400-179.086,400-400h-800C1599.999,220.914,1779.084,400,1999.999,400z"/>
	<path style="fill:#084A2C;" d="M1999.998,400c-220.913,0-399.999,179.086-399.999,400h799.998
		C2399.996,579.086,2220.91,400,1999.998,400z"/>
	<path style="fill:#DCB0D2;" d="M1999.999,1200c220.914,0,400-179.086,400-400h-800C1599.999,1020.914,1779.084,1200,1999.999,1200z
		"/>
	<path style="fill:#084A2C;" d="M1999.998,1200c-220.913,0-399.999,179.086-399.999,400h799.998
		C2399.996,1379.086,2220.912,1200,1999.998,1200z"/>
	<path style="fill:#DCB0D2;" d="M1999.999,2000c220.914,0,400-179.086,400-400h-800C1599.999,1820.914,1779.084,2000,1999.999,2000z
		"/>
	<path style="fill:#084A2C;" d="M1999.999,2000c-220.914,0-400,179.086-399.999,400h799.999
		C2399.998,2179.086,2220.912,2000,1999.999,2000z"/>
	<path style="fill:#DCB0D2;" d="M1999.999,2800c220.912,0,399.998-179.086,399.998-400h-799.998
		C1599.999,2620.914,1779.084,2800,1999.999,2800z"/>
	<path style="fill:#084A2C;" d="M1999.997,2800c-220.913,0-399.998,179.085-399.998,400h799.998
		C2399.996,2979.086,2220.91,2800,1999.997,2800z"/>
	<path style="fill:#DCB0D2;" d="M1999.999,3600c220.912,0,399.998-179.086,399.998-400h-799.998
		C1599.999,3420.914,1779.084,3600,1999.999,3600z"/>
	<path style="fill:#084A2C;" d="M1999.997,3600c-220.913,0-399.998,179.086-399.998,400h799.998
		C2399.996,3779.086,2220.91,3600,1999.997,3600z"/>
	<path style="fill:#DCB0D2;" d="M1999.999,4400c220.912,0,400-179.086,400-400h-800C1599.999,4220.914,1779.084,4400,1999.999,4400z
		"/>
	<path style="fill:#084A2C;" d="M1999.998,4400c-220.913,0-399.999,179.086-399.999,400h799.998
		C2399.996,4579.086,2220.91,4400,1999.998,4400z"/>
	<path style="fill:#DCB0D2;" d="M1999.999,5200c220.914,0,399.998-179.086,399.998-400h-799.998
		C1599.999,5020.914,1779.084,5200,1999.999,5200z"/>
	<path style="fill:#084A2C;" d="M1999.997,5200c-220.913,0-399.998,179.086-399.998,400h799.998
		C2399.996,5379.086,2220.912,5200,1999.997,5200z"/>
	<path style="fill:#DCB0D2;" d="M2799.998,400c220.912,0,399.998-179.086,399.998-400h-799.998
		C2399.998,220.914,2579.084,400,2799.998,400z"/>
	<path style="fill:#084A2C;" d="M2799.996,400c-220.912,0-399.998,179.086-399.998,400h799.998
		C3199.996,579.086,3020.91,400,2799.996,400z"/>
	<path style="fill:#DCB0D2;" d="M2799.998,1200c220.912,0,399.998-179.086,399.998-400h-799.998
		C2399.998,1020.914,2579.084,1200,2799.998,1200z"/>
	<path style="fill:#084A2C;" d="M2799.996,1200c-220.912,0-399.998,179.086-399.998,400h799.998
		C3199.996,1379.086,3020.91,1200,2799.996,1200z"/>
	<path style="fill:#DCB0D2;" d="M2799.998,2000c220.914,0,400-179.086,400-400h-800C2399.998,1820.914,2579.084,2000,2799.998,2000z
		"/>
	<path style="fill:#084A2C;" d="M2799.998,2000c-220.914,0-400,179.086-400,400h799.998
		C3199.996,2179.086,3020.91,2000,2799.998,2000z"/>
	<path style="fill:#DCB0D2;" d="M2799.998,2800c220.912,0,399.998-179.086,399.998-400h-799.998
		C2399.998,2620.914,2579.084,2800,2799.998,2800z"/>
	<path style="fill:#084A2C;" d="M2799.996,2800c-220.914,0-399.998,179.085-399.998,400h799.998
		C3199.996,2979.086,3020.91,2800,2799.996,2800z"/>
	<path style="fill:#DCB0D2;" d="M2799.998,3600c220.912,0,399.998-179.086,399.998-400h-799.998
		C2399.998,3420.914,2579.084,3600,2799.998,3600z"/>
	<path style="fill:#084A2C;" d="M2799.996,3600c-220.914,0-399.998,179.086-399.998,400h799.998
		C3199.996,3779.086,3020.91,3600,2799.996,3600z"/>
	<path style="fill:#DCB0D2;" d="M2799.998,4400c220.912,0,400-179.086,400-400h-800C2399.998,4220.914,2579.084,4400,2799.998,4400z
		"/>
	<path style="fill:#084A2C;" d="M2799.996,4400c-220.912,0-399.998,179.086-399.998,400h799.998
		C3199.996,4579.086,3020.91,4400,2799.996,4400z"/>
	<path style="fill:#DCB0D2;" d="M2799.998,5200c220.912,0,399.998-179.086,399.998-400h-799.998
		C2399.998,5020.914,2579.084,5200,2799.998,5200z"/>
	<path style="fill:#084A2C;" d="M2799.996,5200c-220.914,0-399.998,179.086-399.998,400h799.998
		C3199.996,5379.086,3020.91,5200,2799.996,5200z"/>
	<path style="fill:#DCB0D2;" d="M3599.996,400c220.912,0,399.998-179.086,399.998-400h-799.998
		C3199.996,220.914,3379.082,400,3599.996,400z"/>
	<path style="fill:#084A2C;" d="M3599.994,400c-220.912,0-399.998,179.086-399.998,400h799.998
		C3999.994,579.086,3820.908,400,3599.994,400z"/>
	<path style="fill:#DCB0D2;" d="M3599.996,1200c220.912,0,399.998-179.086,399.998-400h-799.998
		C3199.996,1020.914,3379.082,1200,3599.996,1200z"/>
	<path style="fill:#084A2C;" d="M3599.994,1200c-220.912,0-399.998,179.086-399.998,400h799.998
		C3999.994,1379.086,3820.908,1200,3599.994,1200z"/>
	<path style="fill:#DCB0D2;" d="M3599.996,2000c220.914,0,400-179.086,400-400h-800C3199.996,1820.914,3379.082,2000,3599.996,2000z
		"/>
	<path style="fill:#084A2C;" d="M3599.996,2000c-220.914,0-400,179.086-400,400h799.998
		C3999.994,2179.086,3820.908,2000,3599.996,2000z"/>
	<path style="fill:#DCB0D2;" d="M3599.996,2800c220.912,0,399.998-179.086,399.998-400h-799.998
		C3199.996,2620.914,3379.082,2800,3599.996,2800z"/>
	<path style="fill:#084A2C;" d="M3599.994,2800c-220.914,0-399.998,179.086-399.998,400h799.998
		C3999.994,2979.086,3820.908,2800,3599.994,2800z"/>
	<path style="fill:#DCB0D2;" d="M3599.996,3600c220.912,0,399.998-179.086,399.998-400h-799.998
		C3199.996,3420.914,3379.082,3600,3599.996,3600z"/>
	<path style="fill:#084A2C;" d="M3599.994,3600c-220.914,0-399.998,179.086-399.998,400h799.998
		C3999.994,3779.086,3820.908,3600,3599.994,3600z"/>
	<path style="fill:#DCB0D2;" d="M3599.996,4400c220.912,0,400-179.086,400-400h-800C3199.996,4220.914,3379.082,4400,3599.996,4400z
		"/>
	<path style="fill:#084A2C;" d="M3599.994,4400c-220.912,0-399.998,179.086-399.998,400h799.998
		C3999.994,4579.086,3820.908,4400,3599.994,4400z"/>
	<path style="fill:#DCB0D2;" d="M3599.996,5200c220.912,0,399.998-179.086,399.998-400h-799.998
		C3199.996,5020.914,3379.082,5200,3599.996,5200z"/>
	<path style="fill:#084A2C;" d="M3599.994,5200c-220.914,0-399.998,179.086-399.998,400h799.998
		C3999.994,5379.086,3820.908,5200,3599.994,5200z"/>
</g>
</svg>
