<?xml version="1.0" encoding="UTF-8"?>
<svg xmlns="http://www.w3.org/2000/svg" xmlns:xlink="http://www.w3.org/1999/xlink" width="4000" height="2500" viewBox="0 0 4000 2500">
<rect x="-400" y="-250" width="4800" height="3000" fill="rgb(15.696716%, 10.984802%, 8.227539%)" fill-opacity="1"/>
<path fill-rule="nonzero" fill="rgb(90.625%, 20.384216%, 7.054138%)" fill-opacity="1" d="M 2229.519531 634.359375 L 2045.269531 610.78125 L 2078.359375 498.128906 L 2116.578125 515.328125 L 2251.96875 599.28125 L 2229.519531 634.359375 "/>
<path fill-rule="nonzero" fill="rgb(90.625%, 20.384216%, 7.054138%)" fill-opacity="1" d="M 2359.929688 646.398438 C 2339.71875 596.328125 2093.25 506.53125 2093.25 506.53125 L 2045.269531 610.78125 L 2157.71875 625.171875 C 2192.101562 680.148438 2234.730469 734.988281 2271.371094 742 C 2347.460938 756.578125 2380.128906 696.46875 2359.929688 646.398438 "/>
<path fill-rule="nonzero" fill="rgb(15.696716%, 10.984802%, 8.227539%)" fill-opacity="1" d="M 2239.921875 641.761719 C 2229.609375 665.921875 2164.628906 661.351562 2094.78125 631.550781 C 2024.921875 601.75 1976.648438 558.011719 1986.960938 533.851562 C 1997.261719 509.691406 2062.25 514.261719 2132.101562 544.058594 C 2201.949219 573.859375 2250.21875 617.609375 2239.921875 641.761719 "/>
<path fill-rule="nonzero" fill="rgb(15.696716%, 10.984802%, 8.227539%)" fill-opacity="1" d="M 2036.398438 546.21875 C 2036.398438 546.21875 2132.578125 545.089844 2167.398438 568.859375 C 2202.21875 592.628906 2230.28125 628.039062 2229.519531 643.160156 C 2228.761719 658.28125 1978.859375 686.578125 1964.929688 672.988281 C 1951.011719 659.410156 2036.398438 546.21875 2036.398438 546.21875 "/>
<path fill-rule="nonzero" fill="rgb(68.554688%, 54.492188%, 32.93457%)" fill-opacity="1" d="M 2307.519531 767.589844 L 2036.398438 650.679688 L 2073.558594 483.410156 L 2138.378906 178.089844 C 2138.378906 178.089844 2061.28125 156.949219 2054.191406 130.828125 C 2047.109375 104.71875 2155.789062 -2.289062 2155.789062 -2.289062 L -57.867188 -2.289062 L -35.53125 1812.261719 C 483.074219 1777.441406 1004.171875 2730.078125 1004.171875 2730.078125 C 1004.171875 2730.078125 1470.539062 1505.078125 1486.710938 1469.011719 C 1502.871094 1432.941406 2259.019531 1248.878906 2340.558594 1165.558594 C 2422.109375 1082.230469 2297.570312 925.53125 2265.238281 882 C 2232.898438 838.46875 2307.519531 767.589844 2307.519531 767.589844 "/>
<path fill-rule="nonzero" fill="rgb(7.835388%, 4.704285%, 8.227539%)" fill-opacity="1" d="M 2054.191406 41.289062 C 2054.191406 41.289062 1929.449219 188.039062 1934.421875 200.480469 C 1939.398438 212.910156 2147.851562 11.441406 2054.191406 41.289062 "/>
<path fill-rule="nonzero" fill="rgb(52.929688%, 41.184998%, 25.87738%)" fill-opacity="1" d="M 2011.558594 92.558594 C 1975.949219 136.191406 1931.410156 192.949219 1934.421875 200.480469 C 1938.039062 209.511719 2048.980469 105.710938 2073.558594 59.640625 C 2056.761719 72.289062 2035.769531 83.421875 2011.558594 92.558594 "/>
<path fill-rule="nonzero" fill="rgb(90.625%, 20.384216%, 7.054138%)" fill-opacity="1" d="M 2036.398438 650.679688 C 2036.398438 650.679688 2104.800781 169.390625 2138.378906 178.089844 C 2171.960938 186.800781 2259.019531 221.621094 2036.398438 650.679688 "/>
<path fill-rule="nonzero" fill="rgb(15.696716%, 10.984802%, 8.227539%)" fill-opacity="1" d="M 542.425781 979.539062 C 542.425781 979.539062 204.222656 1470.289062 628.289062 1673.921875 C 1052.359375 1877.539062 676.769531 2180.21875 676.769531 2180.21875 L 68.890625 1461.148438 L 44.222656 975.949219 L 542.425781 979.539062 "/>
<path fill-rule="nonzero" fill="rgb(54.881287%, 48.242188%, 39.208984%)" fill-opacity="1" d="M 427.390625 1939.109375 L 185.839844 2077.730469 L 1011.628906 2904.191406 L 1040.628906 2620.449219 L 427.390625 1939.109375 "/>
<path fill-rule="nonzero" fill="rgb(15.696716%, 10.984802%, 8.227539%)" fill-opacity="1" d="M 668.746094 2017.101562 C 543.539062 1927.25 505.996094 1823.039062 512.835938 1722.859375 C 462.785156 1730.910156 410.800781 1735.148438 357.464844 1735.148438 C 283.574219 1735.148438 212.273438 1727 145.125 1711.871094 L 600.4375 2526.199219 C 600.4375 2526.199219 1060.050781 2297.910156 668.746094 2017.101562 "/>
<path fill-rule="nonzero" fill="rgb(15.696716%, 10.984802%, 8.227539%)" fill-opacity="1" d="M 810.457031 2244.339844 C 685.253906 2154.488281 647.710938 2050.28125 654.550781 1950.101562 C 604.5 1958.148438 552.511719 1962.390625 499.179688 1962.390625 C 425.289062 1962.390625 353.988281 1954.238281 286.839844 1939.109375 L 742.152344 2753.441406 C 742.152344 2753.441406 1201.761719 2525.160156 810.457031 2244.339844 "/>
<path fill-rule="nonzero" fill="rgb(100%, 99.21875%, 87.5%)" fill-opacity="1" d="M 2603.019531 791.589844 C 2603.019531 791.589844 2608.289062 863.109375 2592.621094 879.558594 C 2576.949219 896 2467.921875 1044.328125 2597.339844 1168.28125 C 2726.761719 1292.230469 3360.488281 1338.621094 3661.019531 1243.808594 C 3961.539062 1149 4227.839844 647.628906 4235.039062 586.730469 C 4242.25 525.839844 4302.890625 -169.109375 4302.890625 -169.109375 L 2633.011719 -348.371094 C 2633.011719 -348.371094 2394.160156 -187.949219 2428.339844 -109.578125 C 2462.519531 -31.210938 2624.789062 66.941406 2562.570312 167.019531 C 2500.339844 267.109375 2500.339844 267.109375 2500.339844 267.109375 L 2639.058594 443.941406 L 2603.019531 791.589844 "/>
<path fill-rule="nonzero" fill="rgb(15.696716%, 10.984802%, 8.227539%)" fill-opacity="1" d="M 929.46875 2478.148438 C 804.261719 2388.289062 766.722656 2284.089844 773.558594 2183.910156 C 723.507812 2191.960938 671.523438 2196.199219 618.1875 2196.199219 C 544.296875 2196.199219 472.996094 2188.050781 405.847656 2172.921875 L 861.160156 2987.25 C 861.160156 2987.25 1320.769531 2758.960938 929.46875 2478.148438 "/>
<path fill-rule="nonzero" fill="rgb(15.696716%, 10.984802%, 8.227539%)" fill-opacity="1" d="M 469.742188 1237.988281 C 344.535156 1148.128906 306.996094 1043.921875 313.835938 943.75 C 263.785156 951.800781 211.796875 956.039062 158.460938 956.039062 C 84.570312 956.039062 13.273438 947.890625 -53.878906 932.761719 L 401.433594 1747.089844 C 401.433594 1747.089844 861.046875 1518.800781 469.742188 1237.988281 "/>
<path fill-rule="nonzero" fill="rgb(52.929688%, 41.184998%, 25.87738%)" fill-opacity="1" d="M 673.355469 628.011719 C 673.355469 628.011719 606.195312 247.738281 504.214844 699.261719 C 425.179688 1049.210938 1129.03125 1416.199219 1449.71875 1563.609375 C 1470.691406 1509.230469 1484.179688 1474.640625 1486.710938 1469.011719 C 1502.871094 1432.941406 2259.019531 1248.878906 2340.558594 1165.558594 C 878.726562 1765 673.355469 628.011719 673.355469 628.011719 "/>
<path fill-rule="nonzero" fill="rgb(15.696716%, 10.984802%, 8.227539%)" fill-opacity="1" d="M 777.820312 -1 C 777.820312 -1 928.304688 292.511719 837.515625 476.570312 C 746.730469 660.628906 555.511719 739.988281 517.429688 750.679688 C 479.34375 761.371094 331.347656 761.371094 262.945312 877.03125 C 194.546875 992.691406 276.625 1158.101562 474.367188 1352.109375 C 672.109375 1546.121094 843.734375 1658.050781 720.613281 1762.511719 C 597.488281 1866.980469 405.824219 1951.550781 427.390625 1986.371094 C 448.960938 2021.191406 1413.328125 2989.390625 1454.371094 3138.320312 L 1185.738281 3138.320312 C 1185.738281 3138.320312 562.179688 2066.261719 368.195312 1956.988281 C 174.210938 1847.710938 -35.53125 1812.261719 -35.53125 1812.261719 L -67.867188 -1 L 777.820312 -1 "/>
<path fill-rule="nonzero" fill="rgb(68.554688%, 54.492188%, 32.93457%)" fill-opacity="1" d="M -92.738281 1776.621094 C -92.738281 1776.621094 484.316406 1663.390625 1245.441406 3138.320312 L -57.867188 3138.320312 L -92.738281 1776.621094 "/>
<path fill-rule="nonzero" fill="rgb(15.696716%, 10.984802%, 8.227539%)" fill-opacity="1" d="M 613.234375 706.78125 C 613.234375 706.78125 472.828125 928.960938 568.117188 1023.628906 C 663.402344 1118.300781 536.707031 1258.230469 578.726562 1339.921875 C 620.742188 1421.621094 405.847656 1536.171875 405.847656 1536.171875 L 31.625 1020.949219 L 145.125 521.339844 L 613.234375 706.78125 "/>
<path fill-rule="nonzero" fill="rgb(15.696716%, 10.984802%, 8.227539%)" fill-opacity="1" d="M 795.089844 546.558594 C 795.089844 546.558594 462.878906 829.460938 568.117188 1023.628906 C 673.355469 1217.789062 474.367188 1352.109375 474.367188 1352.109375 L 225.636719 677.910156 L 510.363281 387.03125 L 795.089844 546.558594 "/>
<path fill-rule="nonzero" fill="rgb(68.554688%, 54.492188%, 32.93457%)" fill-opacity="1" d="M 854.101562 471.949219 C 943.289062 640.351562 925.628906 824.511719 814.648438 883.289062 C 703.671875 942.070312 541.402344 853.199219 452.210938 684.800781 C 363.019531 516.398438 380.683594 332.238281 491.660156 273.460938 C 602.640625 214.679688 764.910156 303.550781 854.101562 471.949219 "/>
<path fill-rule="nonzero" fill="rgb(52.929688%, 41.184998%, 25.87738%)" fill-opacity="1" d="M 486.429688 684.800781 C 397.238281 516.398438 414.902344 332.238281 525.878906 273.460938 C 544.132812 263.789062 563.777344 258.148438 584.25 256.160156 C 551.433594 253.128906 519.886719 258.511719 491.660156 273.460938 C 380.683594 332.238281 363.019531 516.398438 452.210938 684.800781 C 526.734375 825.511719 652.269531 910.660156 756.28125 900.589844 C 660.074219 891.699219 552.9375 810.371094 486.429688 684.800781 "/>
<path fill-rule="nonzero" fill="rgb(52.929688%, 41.184998%, 25.87738%)" fill-opacity="1" d="M 469.402344 500.609375 C 465.371094 492.519531 453.171875 497.660156 456.160156 506.191406 C 499.757812 630.628906 572.226562 792.589844 656.605469 802.539062 C 776.597656 816.691406 603.871094 770.210938 469.402344 500.609375 "/>
<path fill-rule="nonzero" fill="rgb(52.929688%, 41.184998%, 25.87738%)" fill-opacity="1" d="M 1538.941406 1387.238281 L 1197.449219 1438.351562 C 1197.449219 1438.351562 1394.980469 1705.078125 1245.441406 2097.179688 C 1362.070312 1791.648438 1478.761719 1486.738281 1486.710938 1469.011719 C 1489.96875 1461.71875 1523.46875 1448.390625 1575.5 1431.058594 L 1538.941406 1387.238281 "/>
<path fill-rule="nonzero" fill="rgb(90.625%, 20.384216%, 7.054138%)" fill-opacity="1" d="M 2552.378906 537.261719 C 2469.71875 559.800781 2440.640625 785.828125 2566.601562 823.03125 C 2692.558594 860.230469 2943.210938 582.851562 2918.238281 576.46875 C 2893.261719 570.078125 2737.390625 321.800781 2662.289062 275.171875 C 2587.191406 228.550781 2540.570312 303.660156 2537.289062 287.828125 C 2535.769531 280.488281 2527.609375 273.101562 2519.300781 267.289062 C 2507.910156 259.320312 2491.851562 264.230469 2487.011719 277.261719 C 2475.839844 307.328125 2475.429688 368.910156 2582.089844 460.078125 C 2582.089844 460.078125 2620.921875 518.558594 2552.378906 537.261719 "/>
<path fill-rule="nonzero" fill="rgb(90.625%, 20.384216%, 7.054138%)" fill-opacity="1" d="M 2918.238281 576.46875 C 2893.261719 570.078125 2737.390625 321.800781 2662.289062 275.171875 C 2603.808594 238.871094 2562.601562 276.371094 2545.679688 287.28125 C 2545.421875 320.171875 2549.410156 354.769531 2565.699219 366.660156 C 2599.78125 391.558594 2730.109375 595.949219 2612.980469 701.589844 C 2571.820312 738.710938 2540.449219 768.628906 2518.980469 793.730469 C 2531.410156 807.03125 2547.148438 817.289062 2566.601562 823.03125 C 2692.558594 860.230469 2943.210938 582.851562 2918.238281 576.46875 "/>
<path fill-rule="nonzero" fill="rgb(15.696716%, 10.984802%, 8.227539%)" fill-opacity="1" d="M 2599.78125 391.558594 C 2603.101562 389.609375 2627.039062 374.480469 2657.96875 389.011719 C 2705.089844 411.171875 2876.050781 565.761719 2887.921875 571.738281 C 2899.789062 577.71875 2787.25 717.058594 2631.988281 656.949219 C 2476.71875 596.851562 2645.5 562.070312 2639.828125 523.019531 C 2634.480469 486.210938 2574.851562 406.160156 2599.78125 391.558594 "/>
<path fill-rule="nonzero" fill="rgb(100%, 99.21875%, 87.5%)" fill-opacity="1" d="M 2768.628906 471.769531 C 2723.839844 434.488281 2678.800781 398.808594 2657.96875 389.011719 C 2627.039062 374.480469 2603.101562 389.609375 2599.78125 391.558594 C 2587.628906 398.671875 2595.570312 421.328125 2607.511719 446.949219 C 2632.261719 457.859375 2663.570312 466.289062 2698.078125 470.378906 C 2723.199219 473.351562 2747.171875 473.671875 2768.628906 471.769531 "/>
<path fill-rule="nonzero" fill="rgb(86.71875%, 45.483398%, 0%)" fill-opacity="1" d="M 2606.371094 96.199219 C 2606.371094 96.199219 2582.480469 211.160156 2569.800781 231.378906 C 2557.109375 251.609375 2590.960938 236.171875 2603.628906 235.378906 C 2616.300781 234.601562 2632.699219 115.320312 2606.371094 96.199219 "/>
<path fill-rule="nonzero" fill="rgb(52.929688%, 41.184998%, 25.87738%)" fill-opacity="1" d="M 2044.769531 145.738281 C 2044.769531 145.738281 2123.371094 180.761719 2142.03125 180.210938 C 2160.679688 179.671875 2132.710938 199.179688 2125.058594 208.828125 C 2117.410156 218.46875 2040.621094 175.511719 2044.769531 145.738281 "/>
<path fill-rule="nonzero" fill="rgb(90.625%, 20.384216%, 7.054138%)" fill-opacity="1" d="M 2036.390625 661.078125 C 2036.390625 661.078125 2139.148438 785.78125 2207.089844 798.148438 C 2275.03125 810.519531 2323.980469 793.539062 2353.050781 722.5 C 2382.128906 651.46875 2033.328125 650.679688 2033.328125 650.679688 L 2036.390625 661.078125 "/>
<path fill-rule="nonzero" fill="rgb(100%, 99.21875%, 87.5%)" fill-opacity="1" d="M 2768.628906 1247.179688 C 2768.628906 1247.179688 3444.109375 1220.859375 3656.730469 1467.191406 C 3869.351562 1713.53125 4096.628906 2606.839844 4096.628906 2606.839844 L 4581.339844 2633.671875 L 4451.539062 307.960938 L 2768.628906 1247.179688 "/>
<path fill-rule="nonzero" fill="rgb(86.71875%, 45.483398%, 0%)" fill-opacity="1" d="M 2768.628906 1249.230469 C 2768.628906 1249.230469 3229.398438 1334.109375 3498.300781 1286.171875 C 3767.210938 1238.21875 4152.839844 729.808594 4157.011719 650.488281 C 4161.179688 571.179688 4182.019531 310.011719 4182.019531 310.011719 C 4182.019531 310.011719 4017.351562 1121.488281 3535.828125 1194.449219 C 3054.308594 1267.410156 2768.628906 1249.230469 2768.628906 1249.230469 "/>
<path fill-rule="nonzero" fill="rgb(86.71875%, 45.483398%, 0%)" fill-opacity="1" d="M 3588.679688 1215.148438 C 3437.21875 1218.761719 3406.589844 1239.871094 3406.589844 1239.871094 L 3244 1273.519531 C 3244 1273.519531 3260.371094 1282.898438 3287.769531 1300.730469 C 3435.691406 1332.351562 3577.96875 1386.191406 3656.730469 1477.429688 C 3753.511719 1589.558594 3853.328125 1835.738281 3933.371094 2070.691406 C 3932.75 2067.941406 3739.898438 1211.539062 3588.679688 1215.148438 "/>
<path fill-rule="nonzero" fill="rgb(68.554688%, 54.492188%, 32.93457%)" fill-opacity="1" d="M 3506.171875 848.859375 C 3506.171875 848.859375 3431.570312 1463.378906 3205.351562 1722.710938 C 2979.140625 1982.039062 3184.671875 2734.769531 3140.488281 2927.191406 C 3096.308594 3119.609375 3694.21875 3175.890625 3694.21875 3175.890625 L 4174.800781 1143.039062 C 4174.800781 1143.039062 3976.769531 1360.609375 3941.890625 1386.390625 C 3907 1412.171875 3561.539062 1672.101562 3549.5 1673.191406 C 3537.460938 1674.269531 3803.148438 1165.128906 3675.578125 951.730469 C 3548.011719 738.339844 3506.171875 848.859375 3506.171875 848.859375 "/>
<path fill-rule="nonzero" fill="rgb(52.929688%, 41.184998%, 25.87738%)" fill-opacity="1" d="M 3228.390625 2337.269531 C 3180.429688 2223.039062 3255.109375 1744.941406 3358.449219 1520.339844 C 3419.300781 1388.101562 3461.761719 1149.238281 3486.390625 975.128906 C 3451.628906 1168.988281 3367.390625 1536.960938 3205.351562 1722.710938 C 2979.140625 1982.039062 3184.671875 2734.769531 3140.488281 2927.191406 C 3127.378906 2984.28125 3170.800781 3029.390625 3238.371094 3064.601562 C 3248.039062 2871.421875 3265.710938 2426.148438 3228.390625 2337.269531 "/>
<path fill-rule="nonzero" fill="rgb(90.625%, 20.384216%, 7.054138%)" fill-opacity="1" d="M 3468.828125 1138.640625 L 3507.070312 847.691406 C 3510.359375 822.671875 3541.488281 802.921875 3553.691406 817.910156 C 3579.171875 849.191406 3606.738281 906.300781 3599.699219 1003.910156 C 3587.171875 1177.449219 3468.828125 1138.640625 3468.828125 1138.640625 "/>
<path fill-rule="nonzero" fill="rgb(68.554688%, 54.492188%, 32.93457%)" fill-opacity="1" d="M 3220.609375 2113.871094 C 3220.609375 2113.871094 3184.71875 3027.109375 3241.261719 3052.410156 C 3297.800781 3077.710938 3697.109375 3163.691406 3697.109375 3163.691406 L 3423.820312 2138.421875 L 3220.609375 2113.871094 "/>
<path fill-rule="nonzero" fill="rgb(68.554688%, 54.492188%, 32.93457%)" fill-opacity="1" d="M 4174.800781 1143.039062 C 4174.800781 1143.039062 4671.691406 636.929688 4724.578125 648.648438 C 4777.46875 660.371094 4902.03125 655.140625 4476.269531 1348.339844 C 4050.511719 2041.539062 3873.011719 2419.589844 3873.011719 2419.589844 L 4174.800781 1143.039062 "/>
<path fill-rule="nonzero" fill="rgb(68.554688%, 54.492188%, 32.93457%)" fill-opacity="1" d="M 4711.300781 778.019531 C 4711.300781 778.019531 4853.570312 723.570312 4886.101562 767.75 C 4918.628906 811.929688 4433.320312 1911.03125 4310.578125 2061 C 4187.839844 2210.960938 3936.109375 3151.121094 3936.109375 3151.121094 L 3659.160156 3167.390625 L 3689.398438 2119.910156 L 4711.300781 778.019531 "/>
<path fill-rule="nonzero" fill="rgb(100%, 99.21875%, 87.5%)" fill-opacity="1" d="M 4165.351562 454.480469 C 4165.351562 454.480469 4092.171875 832.238281 3816.078125 1092.050781 C 3540 1351.871094 3816.078125 1300.839844 3816.078125 1300.839844 L 4258.429688 904.738281 L 4302.890625 427.859375 L 4165.351562 454.480469 "/>
</svg>
