<?xml version="1.0" encoding="UTF-8"?>
<!DOCTYPE svg PUBLIC "-//W3C//DTD SVG 1.1//EN" "http://www.w3.org/Graphics/SVG/1.1/DTD/svg11.dtd">
<!-- Creator: CorelDRAW -->
<svg xmlns="http://www.w3.org/2000/svg" xml:space="preserve" width="4000px" height="5500px" version="1.1" style="shape-rendering:geometricPrecision; text-rendering:geometricPrecision; image-rendering:optimizeQuality; fill-rule:evenodd; clip-rule:evenodd"
viewBox="0 0 868.38 1194.03"
 xmlns:xlink="http://www.w3.org/1999/xlink"
 xmlns:xodm="http://www.corel.com/coreldraw/odm/2003">
 <defs>
  <style type="text/css">
   <![CDATA[
    .fil1 {fill:black}
    .fil0 {fill:#263D75}
    .fil10 {fill:#477AF0}
    .fil2 {fill:#A944B0}
    .fil7 {fill:#B30202}
    .fil5 {fill:#B30202}
    .fil6 {fill:#F30001}
    .fil13 {fill:#F30001}
    .fil4 {fill:#F99333}
    .fil9 {fill:#F9BE32}
    .fil3 {fill:#FFDE3B}
    .fil8 {fill:white}
    .fil11 {fill:#3C5491;fill-rule:nonzero}
    .fil14 {fill:#B30202;fill-rule:nonzero}
    .fil12 {fill:#F30001;fill-rule:nonzero}
   ]]>
  </style>
    <mask id="id0">
  <linearGradient id="id1" gradientUnits="userSpaceOnUse" x1="138.66" y1="938.74" x2="138.66" y2="715.75">
   <stop offset="0" style="stop-opacity:1; stop-color:white"/>
   <stop offset="1" style="stop-opacity:0; stop-color:white"/>
  </linearGradient>
     <rect style="fill:url(#id1)" x="-0.26" y="644.34" width="868.9" height="549.95"/>
    </mask>
    <mask id="id2">
  <linearGradient id="id3" gradientUnits="userSpaceOnUse" x1="138.66" y1="255.29" x2="138.66" y2="478.28">
   <stop offset="0" style="stop-opacity:1; stop-color:white"/>
   <stop offset="1" style="stop-opacity:0; stop-color:white"/>
  </linearGradient>
     <rect style="fill:url(#id3)" x="-0.26" y="-0.26" width="868.9" height="549.95"/>
    </mask>
    <mask id="id4">
  <linearGradient id="id5" gradientUnits="userSpaceOnUse" x1="286.73" y1="359.31" x2="286.73" y2="286.22">
   <stop offset="0" style="stop-opacity:1; stop-color:white"/>
   <stop offset="1" style="stop-opacity:0; stop-color:white"/>
  </linearGradient>
     <rect style="fill:url(#id5)" x="178.27" y="284.1" width="511.85" height="222.6"/>
    </mask>
    <mask id="id6">
  <linearGradient id="id7" gradientUnits="userSpaceOnUse" x1="277.43" y1="880.86" x2="277.43" y2="747.84">
   <stop offset="0" style="stop-opacity:1; stop-color:white"/>
   <stop offset="1" style="stop-opacity:0; stop-color:white"/>
  </linearGradient>
     <rect style="fill:url(#id7)" x="142.07" y="729.27" width="584.25" height="217.21"/>
    </mask>
    <mask id="id8">
  <linearGradient id="id9" gradientUnits="userSpaceOnUse" x1="767.56" y1="699.2" x2="772.83" y2="667.3">
   <stop offset="0" style="stop-opacity:1; stop-color:white"/>
   <stop offset="1" style="stop-opacity:0; stop-color:white"/>
  </linearGradient>
     <rect style="fill:url(#id9)" x="739.17" y="649.82" width="62.77" height="166.27"/>
    </mask>
    <mask id="id10">
  <linearGradient id="id11" gradientUnits="userSpaceOnUse" x1="102.16" y1="693.78" x2="95.81" y2="666.53">
   <stop offset="0" style="stop-opacity:1; stop-color:white"/>
   <stop offset="1" style="stop-opacity:0; stop-color:white"/>
  </linearGradient>
     <rect style="fill:url(#id11)" x="66.44" y="649.82" width="62.77" height="166.27"/>
    </mask>
    <mask id="id12">
  <linearGradient id="id13" gradientUnits="userSpaceOnUse" x1="438.46" y1="667.19" x2="438.46" y2="573.66">
   <stop offset="0" style="stop-opacity:1; stop-color:white"/>
   <stop offset="1" style="stop-opacity:0; stop-color:white"/>
  </linearGradient>
     <rect style="fill:url(#id13)" x="347.61" y="554.82" width="173.16" height="173.15"/>
    </mask>
    <mask id="id14">
  <linearGradient id="id15" gradientUnits="userSpaceOnUse" x1="395.76" y1="1187.92" x2="318.95" y2="1103.68">
   <stop offset="0" style="stop-opacity:1; stop-color:white"/>
   <stop offset="1" style="stop-opacity:0; stop-color:white"/>
  </linearGradient>
     <rect style="fill:url(#id15)" x="257.25" y="998.84" width="162.72" height="195.45"/>
    </mask>
    <mask id="id16">
  <linearGradient id="id17" gradientUnits="userSpaceOnUse" x1="472.63" y1="1187.92" x2="549.43" y2="1103.68">
   <stop offset="0" style="stop-opacity:1; stop-color:white"/>
   <stop offset="1" style="stop-opacity:0; stop-color:white"/>
  </linearGradient>
     <rect style="fill:url(#id17)" x="448.41" y="998.84" width="162.72" height="195.45"/>
    </mask>
 </defs>
 <g id="Layer_x0020_1">
  <metadata id="CorelCorpID_0Corel-Layer"/>
  <g id="_2515392924512">
   <polygon class="fil0" points="0,0 868.38,0 868.38,1194.03 0,1194.03 "/>
   <path class="fil1" style="mask:url(#id0)" d="M0 1194.03l64.94 0c10.63,-80.47 87.3,-108.06 143.83,-88.63 59.46,20.44 96.01,-5.58 113.97,-82.38 17.96,-76.81 111.45,-92.89 111.45,-92.89 99.06,-5.6 137.47,38.38 160.38,91.03 22.92,52.65 93.54,-7.44 213.7,-21.06 23.17,-2.63 43.05,-1.79 60.11,1.32l0 192.61 -64.94 0c-10.63,-80.47 -87.3,-108.06 -143.83,-88.63 -59.46,20.44 -96.01,-5.58 -113.97,-82.38 -17.96,-76.81 -111.45,-92.89 -111.45,-92.89 0,0 -55.7,-31 -109.59,-10.56 -53.89,20.44 -60.08,91.06 -148.04,59.47 -61.49,-22.09 -120.55,-37.81 -176.56,-39.98l0 -128.24c35.84,7.4 77.77,20.9 109.66,45.57 68.87,53.27 108.4,74.33 156.1,37.79 47.69,-36.55 114.59,-21.06 168.43,35.95 0,0 55.7,-31 109.59,-10.56 53.89,20.44 60.09,91.06 148.04,59.47 61.49,-22.09 120.55,-37.81 176.56,-39.98l0 -128.24c-35.84,7.4 -77.77,20.9 -109.66,45.57 -68.86,53.27 -108.4,74.33 -156.09,37.79 -47.7,-36.55 -114.59,-21.06 -168.44,35.95 0,0 -61.89,21.03 -87.91,91.02 -26.02,70 -14.25,138.75 -92.91,127.6 -59.47,-8.43 -85.3,20.31 -94.37,45.28l198.91 0c7.49,-11.59 12.4,-26.4 11.91,-45.28 -1.86,-71.85 -9.97,-155.51 64.37,-218.62 74.34,63.11 66.23,146.77 64.37,218.62 -0.48,18.88 4.42,33.69 11.91,45.28l198.92 0c-9.07,-24.97 -34.91,-53.71 -94.38,-45.28 -78.66,11.15 -66.89,-57.6 -92.91,-127.6 -26.01,-69.99 -87.91,-91.02 -87.91,-91.02 -99.06,-5.6 -137.46,38.38 -160.38,91.03 -22.92,52.65 -93.53,-7.44 -213.7,-21.06 -23.16,-2.63 -43.05,-1.79 -60.11,1.32l0 192.61zm868.38 -431.96l0 -117.47c-36.97,12.82 -87.04,35.36 -118.33,70.56 -54.51,61.33 -93.53,93.55 -159.19,83.01 -65.67,-10.55 -156.67,46.17 -156.67,131.96 0,0 -9.24,-57.01 -94.72,-73.74 -85.48,-16.72 -139.99,34.69 -198.21,-27.25 -34.34,-36.53 -96.24,-56.68 -141.26,-67.07l0 -117.47c36.98,12.82 87.04,35.36 118.34,70.56 54.51,61.33 93.52,93.55 159.19,83.01 65.66,-10.55 156.66,46.17 156.66,131.96 0,0 9.25,-57.01 94.72,-73.74 85.48,-16.72 139.99,34.69 198.22,-27.25 34.33,-36.53 96.23,-56.68 141.25,-67.07z"/>
   <path class="fil2" style="mask:url(#id2)" d="M0 0l64.94 0c10.63,80.47 87.3,108.06 143.83,88.63 59.46,-20.44 96.01,5.57 113.97,82.38 17.96,76.81 111.45,92.88 111.45,92.88 99.06,5.61 137.47,-38.37 160.38,-91.02 22.92,-52.65 93.54,7.43 213.7,21.06 23.17,2.63 43.05,1.79 60.11,-1.33l0 -192.6 -64.94 0c-10.63,80.47 -87.3,108.06 -143.83,88.63 -59.46,-20.44 -96.01,5.57 -113.97,82.38 -17.96,76.81 -111.45,92.88 -111.45,92.88 0,0 -55.7,31 -109.59,10.56 -53.89,-20.44 -60.08,-91.05 -148.04,-59.46 -61.49,22.08 -120.55,37.8 -176.56,39.98l0 128.23c35.84,-7.39 77.77,-20.9 109.66,-45.57 68.87,-53.27 108.4,-74.33 156.1,-37.78 47.69,36.54 114.59,21.06 168.43,-35.96 0,0 55.7,31 109.59,10.56 53.89,-20.44 60.09,-91.05 148.04,-59.46 61.49,22.08 120.55,37.81 176.56,39.98l0 128.23c-35.84,-7.39 -77.77,-20.9 -109.66,-45.57 -68.86,-53.27 -108.4,-74.33 -156.09,-37.78 -47.7,36.54 -114.59,21.06 -168.44,-35.96 0,0 -61.89,-21.02 -87.91,-91.02 -26.02,-69.99 -14.25,-138.75 -92.91,-127.6 -59.47,8.43 -85.3,-20.3 -94.37,-45.27l198.91 0c7.49,11.59 12.4,26.4 11.91,45.27 -1.86,71.86 -9.97,155.51 64.37,218.62 74.34,-63.11 66.23,-146.76 64.37,-218.62 -0.48,-18.87 4.42,-33.68 11.91,-45.27l198.92 0c-9.07,24.97 -34.91,53.7 -94.38,45.27 -78.66,-11.15 -66.89,57.61 -92.91,127.6 -26.01,70 -87.91,91.02 -87.91,91.02 -99.06,5.61 -137.46,-38.37 -160.38,-91.02 -22.92,-52.65 -93.53,7.43 -213.7,21.06 -23.16,2.63 -43.05,1.79 -60.11,-1.33l0 -192.6zm868.38 431.96l0 117.47c-36.97,-12.82 -87.04,-35.36 -118.33,-70.57 -54.51,-61.32 -93.53,-93.54 -159.19,-83 -65.67,10.54 -156.67,-46.18 -156.67,-131.97 0,0 -9.24,57.02 -94.72,73.74 -85.48,16.73 -139.99,-34.68 -198.21,27.26 -34.34,36.52 -96.24,56.68 -141.26,67.07l0 117.47c36.98,-12.82 87.04,-35.36 118.34,-70.57 54.51,-61.32 93.52,-93.54 159.19,-83 65.66,10.54 156.66,-46.18 156.66,-131.97 0,0 9.25,57.02 94.72,73.74 85.48,16.73 139.99,-34.68 198.22,27.26 34.33,36.53 96.23,56.68 141.25,67.07z"/>
   <path class="fil3" d="M173.89 280.33l260.3 -226.11 260.31 226.11 -260.31 226.11 -260.3 -226.11zm49.91 0l210.39 -182.75 210.39 182.75 -210.39 182.75 -210.39 -182.75z"/>
   <polygon class="fil4" style="mask:url(#id4)" points="689.86,284.36 434.19,506.44 178.53,284.36 228.44,284.36 434.19,463.08 639.94,284.36 "/>
   <path class="fil1" d="M434.19 336.57c168.35,0 304.82,136.48 304.82,304.83 0,168.34 -136.47,304.82 -304.82,304.82 -168.35,0 -304.82,-136.48 -304.82,-304.82 0,-168.35 136.47,-304.83 304.82,-304.83z"/>
   <path class="fil5" style="mask:url(#id6)" d="M726.06 729.53c-37.81,125.37 -154.17,216.69 -291.87,216.69 -137.7,0 -254.06,-91.32 -291.86,-216.69l583.73 0z"/>
   <path class="fil6" d="M773.66 819.44c0,0 29.04,-92.55 27.99,-100.96 -1.04,-8.42 -41.41,-147.7 -50.51,-148.08 -9.09,-0.38 -24.15,16.06 -15.84,54.75 8.31,38.68 7.02,81.07 7.02,81.07l31.34 113.22z"/>
   <path class="fil7" style="mask:url(#id8)" d="M774.86 815.59c5.47,-17.58 27.71,-89.73 26.79,-97.11 -0.38,-3.09 -6.05,-23.77 -13.52,-48.73l-48.7 -19.67c3.69,29.97 2.89,56.14 2.89,56.14l30.34 109.61 2.2 -0.24z"/>
   <path class="fil8" d="M767.15 604.56c-6.99,-19.71 -13.1,-34.04 -16.01,-34.16 -1.72,-0.07 -3.66,0.46 -5.61,1.64 -2.26,8.77 2.69,29.8 7.97,32.44 3.58,1.79 9.26,1.08 13.65,0.08z"/>
   <path class="fil6" d="M94.72 819.44c0,0 -29.03,-92.55 -27.99,-100.96 1.04,-8.42 41.41,-147.7 50.51,-148.08 9.1,-0.38 24.15,16.06 15.84,54.75 -8.31,38.68 -7.02,81.07 -7.02,81.07l-31.34 113.22z"/>
   <path class="fil7" style="mask:url(#id10)" d="M93.52 815.59c-5.47,-17.58 -27.71,-89.73 -26.79,-97.11 0.38,-3.09 6.05,-23.77 13.53,-48.73l48.69 -19.67c-3.68,29.97 -2.89,56.14 -2.89,56.14l-30.34 109.61 -2.2 -0.24z"/>
   <path class="fil8" d="M101.23 604.56c6.99,-19.71 13.1,-34.04 16.01,-34.16 1.72,-0.07 3.66,0.46 5.61,1.64 2.27,8.77 -2.69,29.8 -7.97,32.44 -3.57,1.79 -9.26,1.08 -13.65,0.08z"/>
   <path class="fil6" d="M261.82 1194.03l-28.94 -187.45c0,0 -120.73,-108.76 -130.71,-118.24 -9.98,-9.48 -17.96,-146.17 -17.46,-163.63 0.5,-17.46 80.57,-91.05 95.78,-104.02 15.22,-12.97 36.42,-26.44 43.16,-29.44 6.73,-2.99 16.21,15.22 7.48,36.67 -8.73,21.46 -40.16,36.17 -44.4,43.16 -4.24,6.98 -32.18,45.15 -35.17,48.89 -3,3.74 54.13,-36.17 73.33,-41.41 19.21,-5.24 65.11,-19.71 71.59,-18.96 6.49,0.75 12.48,19.96 -3.49,35.67 -15.96,15.72 -53.63,23.7 -56.62,29.44 -3,5.74 -42.16,33.92 -45.15,41.66 -3,7.73 -6.99,65.6 -6.99,65.6 0,0 31.43,-65.35 43.9,-70.84 12.48,-5.49 55.38,-16.47 61.62,-16.22 6.23,0.25 45.4,4.24 48.64,10.23 3.24,5.99 -4.99,27.44 -40.66,30.43 0,0 -36.17,24.95 -36.92,26.7 -0.75,1.74 -11.97,30.43 -13.22,37.91 -1.25,7.48 10.48,34.67 13.72,37.92 3.24,3.24 123.97,33.17 111.5,111l46.9 194.93 -157.89 0z"/>
   <path class="fil8" d="M306.4 746.6c13.4,1.74 29.93,4.74 31.99,8.54 0.69,1.28 0.86,3.27 0.35,5.64 -2.49,1.65 -6.14,1.88 -11.09,1.35 -8.13,-0.86 -16.74,-10.01 -21.25,-15.53z"/>
   <path class="fil8" d="M256.4 669.44c18.03,-5.23 36.18,-10.29 40.08,-9.84 3.47,0.4 6.79,6.07 6.7,13.67 -6.45,4.08 -15.28,7.75 -25.41,6.79 -13.1,-1.23 -18.87,-6.65 -21.37,-10.62z"/>
   <path class="fil8" d="M188.75 614.02c13.81,-10.62 29.32,-20.29 34.9,-22.77 3.74,-1.66 8.33,3.22 10.17,11.57 -7.19,8.1 -17.67,17.27 -28.14,17.13 -8.13,-0.11 -13.48,-2.86 -16.93,-5.93z"/>
   <path class="fil6" d="M606.57 1194.03l28.93 -187.45c0,0 120.73,-108.76 130.71,-118.24 9.98,-9.48 17.96,-146.17 17.46,-163.63 -0.5,-17.46 -80.56,-91.05 -95.78,-104.02 -15.22,-12.97 -36.42,-26.44 -43.15,-29.44 -6.74,-2.99 -16.22,15.22 -7.49,36.67 8.73,21.46 40.16,36.17 44.4,43.16 4.24,6.98 32.18,45.15 35.18,48.89 2.99,3.74 -54.13,-36.17 -73.34,-41.41 -19.21,-5.24 -65.11,-19.71 -71.59,-18.96 -6.49,0.75 -12.47,19.96 3.49,35.67 15.97,15.72 53.63,23.7 56.62,29.44 3,5.74 42.16,33.92 45.16,41.66 2.99,7.73 6.98,65.6 6.98,65.6 0,0 -31.43,-65.35 -43.9,-70.84 -12.47,-5.49 -55.38,-16.47 -61.62,-16.22 -6.23,0.25 -45.39,4.24 -48.64,10.23 -3.24,5.99 4.99,27.44 40.66,30.43 0,0 36.17,24.95 36.92,26.7 0.75,1.74 11.97,30.43 13.22,37.91 1.25,7.48 -10.48,34.67 -13.72,37.92 -3.24,3.24 -123.97,33.17 -111.5,111l-46.9 194.93 157.9 0z"/>
   <path class="fil8" d="M561.98 746.6c-13.39,1.74 -29.93,4.74 -31.99,8.54 -0.69,1.28 -0.86,3.27 -0.34,5.64 2.48,1.65 6.14,1.88 11.08,1.35 8.13,-0.86 16.74,-10.01 21.25,-15.53z"/>
   <path class="fil8" d="M611.98 669.44c-18.03,-5.23 -36.18,-10.29 -40.08,-9.84 -3.47,0.4 -6.79,6.07 -6.7,13.67 6.45,4.08 15.28,7.75 25.42,6.79 13.1,-1.23 18.86,-6.65 21.36,-10.62z"/>
   <path class="fil8" d="M679.63 614.02c-13.81,-10.62 -29.31,-20.29 -34.89,-22.77 -3.75,-1.66 -8.33,3.22 -10.18,11.57 7.19,8.1 17.67,17.27 28.15,17.13 8.12,-0.11 13.47,-2.86 16.92,-5.93z"/>
   <path class="fil9" d="M434.19 511.72c71.62,0 129.68,58.06 129.68,129.68 0,71.61 -58.06,129.67 -129.68,129.67 -71.62,0 -129.68,-58.06 -129.68,-129.67 0,-71.62 58.06,-129.68 129.68,-129.68z"/>
   <path class="fil4" style="mask:url(#id12)" d="M434.19 555.08c47.67,0 86.32,38.64 86.32,86.32 0,47.67 -38.65,86.31 -86.32,86.31 -47.67,0 -86.32,-38.64 -86.32,-86.31 0,-47.68 38.65,-86.32 86.32,-86.32z"/>
   <path class="fil10" d="M434.19 630.43c6.06,0 10.97,4.91 10.97,10.97 0,6.05 -4.91,10.96 -10.97,10.96 -6.06,0 -10.97,-4.91 -10.97,-10.96 0,-6.06 4.91,-10.97 10.97,-10.97z"/>
   <path class="fil11" d="M384.57 368.14c-1.41,0.2 -2.82,0.4 -4.23,0.58 -7.38,1.03 -16.51,4.28 -23.74,6.39 -8.08,2.34 -16.1,3.55 -23.51,7.13 -0.33,0.17 -1.44,0.78 -1.71,0.85 -5.63,2.71 -10.3,4.05 -15.89,7.12 -7.89,4.43 -14.92,7.59 -22.85,12.5 -5.59,3.59 -9.66,5.98 -15.26,9.94 -0.9,0.66 -23.55,17.72 -15.52,13.75 3.96,-1.67 -11.43,9.9 -6.8,8.03 4.36,-1.83 -8.58,8.53 -4.45,6.35 0.55,-0.37 16.4,-13.15 12.51,-9.18 -5.88,5.86 0.52,0.82 2.57,-0.79 2.36,-1.82 5.67,-3.65 8.31,-5.52 10.68,-7.54 20.87,-14.47 32.66,-20.28 9.06,-4.46 18.16,-9.51 27.61,-13 0.12,-0.05 0.5,-0.16 0.58,-0.22 14.29,-5.3 28.18,-10.67 43.27,-13.28 12.31,-1.96 19.16,-4.22 32.61,-5.17 7.9,-0.38 15.59,-0.35 23.46,-0.76 0.14,-0.04 0.99,-0.05 1.19,-0.05 7.8,-0.3 14.43,-0.15 22.18,0.97 6.32,0.86 13.22,0.51 19,1.91 6.97,1.86 14.61,3.38 21.73,4.52 4.25,0.67 7.7,1.61 11.59,3.38 5.88,2.24 12,2.76 18.24,5.72 4.43,2.23 9.87,4.35 14.57,5.99 3.42,1.16 8.49,3.36 11.43,5.42 3.09,2.16 4.44,2.77 7.98,4.24 3.39,1.4 5.38,2.32 8.38,4.43 2.51,1.78 3.46,2.54 6.24,4.08 2.87,1.59 5.17,2.97 7.73,5.03 2.12,1.71 3.53,2.95 5.98,4.23 1.58,0.91 13.47,9.54 13.31,9.32 -1.54,-1.58 -3.47,-3.39 -0.05,-0.72 0.58,0.45 11.17,9.28 5.73,3.81 -4.16,-4.22 4.74,2.56 -0.41,-2.29 -5.57,-5.26 8.67,5.9 0.1,-1.87 -9.35,-8.33 4.57,1.94 -5.52,-6.3 -4.01,-3.18 -7.42,-6.62 -11.3,-9.55 -6.71,-5.02 -6.99,-5.96 -16.15,-11.41 -8.59,-4.95 -17.82,-11.14 -26.89,-14.86 -5.62,-2.18 -13.09,-4.44 -18.29,-7.33 -4.32,-2.42 -10.68,-4.09 -15.53,-5.01 -8.16,-1.8 -13.18,-4.89 -23.09,-6.58 -9.97,-1.57 -16.66,-3.81 -27.1,-4.44 -7.85,-0.36 -15.72,-0.13 -23.5,-1.27 -2.55,-0.36 -4.97,-0.51 -7.55,-0.56 -3.48,-0.04 -6.81,0.09 -10.25,0.57 0,0 0,0 0,0 -1.62,0.22 -3.62,0.27 -5.21,0.04 -2.52,-0.27 -4.57,0.66 -6.2,0.47 -1.68,-0.35 -5.48,0.15 -7.17,0.55 -2.39,0.58 -3.85,0.67 -6.31,0.56 -2.68,-0.12 -4.29,0.39 -6.81,1.1 -2.39,0.68 -5.2,1.09 -7.67,1.46zm3.03 16.69c-1.32,0.18 -2.65,0.37 -3.97,0.53 -6.88,0.93 -15.54,4.06 -22.29,6.03 -7.61,2.21 -15.15,3.26 -22.09,6.66 -0.3,0.15 -1.34,0.73 -1.59,0.8 -5.31,2.58 -9.64,3.77 -14.92,6.69 -7.39,4.2 -13.99,7.12 -21.44,11.76 -5.26,3.38 -9.06,5.6 -14.33,9.34 -0.49,0.36 -22.14,16.64 -14.5,12.99 3.74,-1.51 -10.68,9.29 -6.31,7.63 4.13,-1.65 -8.02,8.02 -4.1,6.03 0.66,-0.43 15.33,-12.22 11.78,-8.55 -5.47,5.53 0.51,0.83 2.45,-0.69 2.19,-1.69 5.31,-3.37 7.81,-5.13 10.03,-7.06 19.54,-13.56 30.62,-18.98 8.77,-4.28 16.72,-8.71 25.86,-12.18 0.11,-0.04 0.47,-0.15 0.55,-0.2 13.36,-4.95 26.41,-10.06 40.53,-12.46 11.57,-1.81 17.81,-3.98 30.55,-4.86 7.41,-0.34 14.59,-0.29 21.98,-0.7 0.13,-0.04 0.93,-0.04 1.12,-0.05 7.33,-0.3 13.49,-0.18 20.78,0.91 5.96,0.83 12.41,0.42 17.81,1.76 6.48,1.79 13.7,3.22 20.35,4.24 4,0.62 7.21,1.49 10.86,3.19 5.45,2.12 11.23,2.52 17.1,5.34 3.93,2.11 9.37,4.19 13.64,5.62 3.18,1.06 8,3.14 10.71,5.07 2.71,1.94 4.35,2.72 7.48,3.99 3.22,1.31 5.02,2.12 7.86,4.13 2.39,1.72 3.16,2.37 5.83,3.84 2.71,1.49 4.84,2.75 7.25,4.71 2,1.63 3.26,2.77 5.59,3.96 1.49,0.85 12.66,8.92 12.51,8.71 -1.44,-1.49 -3.24,-3.2 -0.04,-0.71 0.57,0.44 10.47,8.69 5.41,3.54 -3.88,-3.98 4.48,2.35 -0.33,-2.22 -5.19,-4.95 8.18,5.49 0.15,-1.82 -8.75,-7.84 4.35,1.77 -5.12,-5.97 -3.8,-3.04 -6.92,-6.25 -10.57,-9.02 -6.36,-4.79 -6.27,-5.49 -15.13,-10.75 -8.05,-4.63 -16.74,-10.54 -25.22,-13.98 -5.25,-2.02 -12.37,-4.14 -17.18,-6.88 -4.02,-2.3 -10.05,-3.86 -14.59,-4.69 -7.61,-1.63 -12.25,-4.63 -21.67,-6.21 -9.43,-1.45 -15.55,-3.61 -25.44,-4.17 -7.37,-0.31 -14.77,-0.04 -22.07,-1.18 -2.41,-0.35 -4.66,-0.5 -7.09,-0.55 -3.27,-0.04 -6.39,0.09 -9.63,0.57 0,0 0,0 0,0 -1.5,0.21 -3.4,0.25 -4.89,0.01 -2.4,-0.27 -4.31,0.64 -5.81,0.45 -1.57,-0.35 -5.17,0.12 -6.74,0.52 -2.26,0.56 -3.59,0.64 -5.93,0.51 -2.53,-0.14 -4.01,0.35 -6.39,1.04 -2.23,0.65 -4.89,1.04 -7.2,1.38zm3.03 16.69c-1.24,0.17 -2.48,0.34 -3.72,0.48 -6.37,0.84 -14.55,3.85 -20.82,5.68 -7.16,2.07 -14.2,2.96 -20.67,6.17 -0.28,0.15 -1.25,0.7 -1.49,0.77 -4.99,2.45 -8.96,3.48 -13.94,6.26 -6.9,3.96 -13.05,6.65 -20.04,11.01 -4.92,3.18 -8.45,5.23 -13.39,8.74 -0.68,0.51 -20.62,15.51 -13.48,12.24 3.53,-1.35 -9.94,8.68 -5.82,7.21 4.02,-1.89 -7.48,7.86 -3.75,5.72 0.76,-0.48 14.27,-11.31 11.05,-7.91 -5.07,5.19 0.5,0.83 2.32,-0.59 2.04,-1.57 4.96,-3.1 7.32,-4.76 9.38,-6.57 18.21,-12.63 28.57,-17.67 8.19,-3.97 15.59,-8.14 24.12,-11.36 0.11,-0.04 0.43,-0.15 0.51,-0.19 12.46,-4.59 24.64,-9.44 37.8,-11.62 10.84,-1.66 16.47,-3.76 28.49,-4.56 6.93,-0.31 13.6,-0.22 20.5,-0.64 0.12,-0.03 0.87,-0.04 1.04,-0.05 6.88,-0.3 12.55,-0.2 19.39,0.85 5.6,0.8 11.6,0.34 16.61,1.62 6,1.7 12.81,3.05 18.98,3.96 3.76,0.55 6.72,1.36 10.12,2.99 5.04,1.99 10.48,2.28 15.96,4.97 3.6,1.96 8.78,3.95 12.72,5.23 2.94,0.96 7.52,2.94 9.99,4.74 2.55,1.87 4,2.55 6.97,3.72 3.06,1.21 4.67,1.92 7.34,3.84 2.28,1.66 2.87,2.2 5.44,3.6 2.55,1.38 4.51,2.54 6.75,4.39 1.88,1.55 3,2.6 5.22,3.7 1.39,0.78 11.83,8.29 11.69,8.09 -1.33,-1.41 -3.01,-3.02 -0.01,-0.69 0.54,0.42 9.76,8.09 5.07,3.26 -4.18,-4.36 4.8,2.69 -0.23,-2.14 -4.83,-4.64 7.68,5.07 0.2,-1.78 -8.16,-7.35 4.11,1.59 -4.73,-5.65 -3.61,-2.89 -6.41,-5.87 -9.84,-8.48 -6.01,-4.55 -5.55,-5.01 -14.11,-10.09 -7.51,-4.32 -15.66,-9.94 -23.56,-13.11 -4.87,-1.85 -11.64,-3.83 -16.07,-6.41 -3.71,-2.19 -9.41,-3.64 -13.64,-4.38 -7.06,-1.47 -11.33,-4.38 -20.25,-5.84 -8.88,-1.33 -14.45,-3.41 -23.79,-3.91 -6.89,-0.25 -13.82,0.05 -20.63,-1.07 -2.25,-0.35 -4.36,-0.5 -6.63,-0.55 -3.05,-0.04 -5.98,0.09 -9,0.56 0,0 0,0 0,0 -1.4,0.2 -3.19,0.24 -4.58,0 -2.27,-0.29 -4.05,0.62 -5.43,0.42 -1.45,-0.35 -4.84,0.1 -6.3,0.48 -2.14,0.55 -3.34,0.61 -5.54,0.47 -2.39,-0.16 -3.75,0.31 -5.98,0.98 -2.06,0.62 -4.58,0.99 -6.73,1.3zm3.92 21.6c-1.12,0.15 -2.25,0.3 -3.38,0.42 -5.72,0.72 -13.28,3.57 -18.94,5.22 -6.57,1.9 -12.97,2.56 -18.83,5.55 -0.26,0.13 -1.14,0.64 -1.35,0.7 -4.59,2.3 -8.1,3.11 -12.68,5.72 -6.25,3.65 -11.85,6.04 -18.22,10.05 -4.5,2.92 -7.66,4.73 -12.18,7.96 -0.92,0.68 -18.65,14.04 -12.17,11.26 3.27,-1.14 -8.97,7.88 -5.17,6.68 3.73,-1.64 -6.76,7.2 -3.31,5.32 0.91,-0.56 12.92,-10.13 10.11,-7.1 -4.54,4.76 0.49,0.85 2.17,-0.46 1.82,-1.4 4.49,-2.74 6.67,-4.26 8.54,-5.95 16.48,-11.45 25.93,-15.99 7.45,-3.58 14.11,-7.39 21.86,-10.3 0.09,-0.04 0.39,-0.13 0.46,-0.17 11.27,-4.12 22.35,-8.64 34.26,-10.55 9.88,-1.46 14.73,-3.45 25.82,-4.16 6.32,-0.26 12.31,-0.14 18.59,-0.56 0.11,-0.03 0.79,-0.04 0.95,-0.05 6.27,-0.31 11.32,-0.24 17.57,0.77 5.15,0.76 10.54,0.23 15.06,1.43 5.38,1.59 11.65,2.84 17.22,3.61 3.44,0.47 6.08,1.19 9.16,2.73 4.48,1.82 9.52,1.98 14.48,4.47 3.17,1.8 8.01,3.65 11.53,4.76 2.63,0.83 6.88,2.65 9.06,4.3 2.33,1.76 3.55,2.32 6.31,3.38 2.84,1.08 4.22,1.66 6.67,3.46 2.12,1.57 2.5,1.98 4.92,3.28 2.34,1.25 4.08,2.26 6.12,3.98 1.72,1.44 2.67,2.38 4.73,3.36 1.27,0.7 10.75,7.47 10.63,7.29 -1.19,-1.3 -2.7,-2.77 0.03,-0.67 0.39,0.31 8.98,7.32 4.64,2.91 -3.82,-3.89 4.47,2.25 -0.12,-2.05 -4.36,-4.24 7.04,4.53 0.27,-1.72 -7.39,-6.72 3.81,1.37 -4.22,-5.24 -3.37,-2.7 -5.75,-5.36 -8.89,-7.78 -5.56,-4.24 -4.61,-4.4 -12.8,-9.24 -6.82,-3.91 -14.26,-9.15 -21.41,-11.98 -4.39,-1.64 -10.67,-3.43 -14.63,-5.81 -3.32,-2.04 -8.58,-3.34 -12.41,-3.96 -6.33,-1.26 -10.14,-4.06 -18.42,-5.37 -8.17,-1.18 -13.01,-3.16 -21.64,-3.56 -6.28,-0.19 -12.59,0.15 -18.78,-0.95 -2.04,-0.35 -3.96,-0.49 -6.03,-0.54 -2.79,-0.04 -5.44,0.09 -8.19,0.54 0,0 0,0 0,0 -1.27,0.2 -2.92,0.23 -4.16,-0.01 -2.12,-0.31 -3.7,0.59 -4.95,0.39 -1.31,-0.36 -4.42,0.06 -5.73,0.42 -1.97,0.54 -3.02,0.59 -5.05,0.41 -2.2,-0.18 -3.39,0.27 -5.43,0.92 -1.85,0.58 -4.18,0.92 -6.13,1.19zm2.77 15.22c-1.05,0.14 -2.1,0.27 -3.16,0.38 -5.25,0.62 -12.38,3.36 -17.6,4.89 -6.17,1.78 -12.09,2.29 -17.54,5.11 -0.23,0.13 -1.05,0.61 -1.25,0.67 -4.3,2.19 -7.49,2.84 -11.79,5.33 -5.8,3.43 -11,5.6 -16.94,9.36 -4.19,2.74 -7.1,4.38 -11.32,7.42 -1.08,0.8 -17.27,13.01 -11.24,10.56 3.07,-0.99 -8.31,7.34 -4.73,6.31 3.52,-1.46 -6.25,6.74 -2.98,5.04 1,-0.6 11.96,-9.31 9.43,-6.52 -4.17,4.46 0.48,0.85 2.06,-0.38 1.68,-1.28 4.16,-2.48 6.22,-3.91 7.95,-5.51 15.26,-10.61 24.06,-14.8 6.93,-3.3 13.08,-6.87 20.27,-9.55 0.09,-0.03 0.37,-0.12 0.43,-0.16 10.43,-3.79 20.75,-8.07 31.77,-9.79 9.19,-1.32 13.5,-3.24 23.94,-3.89 5.88,-0.21 11.4,-0.08 17.24,-0.49 0.1,-0.03 0.73,-0.05 0.88,-0.05 5.86,-0.32 10.47,-0.26 16.29,0.71 4.85,0.73 9.81,0.15 13.98,1.29 4.94,1.52 10.83,2.7 15.96,3.36 3.22,0.42 5.64,1.08 8.5,2.56 4.08,1.69 8.84,1.76 13.43,4.12 2.88,1.68 7.47,3.43 10.7,4.42 2.41,0.73 6.42,2.45 8.39,3.99 2.17,1.69 3.24,2.17 5.86,3.14 2.68,0.99 3.9,1.48 6.19,3.19 2,1.51 2.24,1.83 4.55,3.06 2.2,1.16 3.78,2.07 5.68,3.69 1.6,1.37 2.43,2.22 4.38,3.12 1.39,0.74 9.99,6.9 9.9,6.72 -1.09,-1.21 -2.49,-2.59 0.04,-0.64 0.37,0.28 8.35,6.78 4.35,2.66 -3.54,-3.64 4.2,2.02 -0.05,-1.99 -4.02,-3.96 6.59,4.15 0.32,-1.68 -6.85,-6.27 3.6,1.2 -3.85,-4.95 -3.22,-2.58 -5.28,-5 -8.23,-7.28 -5.23,-4.02 -3.95,-3.97 -11.87,-8.64 -6.35,-3.64 -13.28,-8.6 -19.89,-11.19 -4.06,-1.49 -10.01,-3.14 -13.62,-5.39 -3.05,-1.94 -8.01,-3.13 -11.56,-3.67 -5.81,-1.12 -9.3,-3.83 -17.11,-5.03 -7.68,-1.08 -12,-2.98 -20.14,-3.32 -5.84,-0.14 -11.72,0.23 -17.47,-0.86 -1.91,-0.34 -3.67,-0.48 -5.61,-0.53 -2.61,-0.04 -5.05,0.08 -7.62,0.53 0,0 0,0 0,0 -1.17,0.2 -2.72,0.21 -3.87,-0.03 -1.6,-0.34 -3.76,0.62 -4.6,0.37 -1.21,-0.37 -4.12,0.04 -5.33,0.39 -1.85,0.53 -2.8,0.56 -4.7,0.37 -2.06,-0.21 -3.15,0.23 -5.06,0.86 -1.7,0.55 -3.9,0.88 -5.69,1.12zm2.76 15.22c-0.97,0.12 -1.94,0.24 -2.92,0.33 -4.8,0.54 -11.48,3.17 -16.27,4.58 -5.77,1.65 -11.22,2 -16.25,4.66 -0.21,0.12 -0.97,0.58 -1.15,0.63 -4.02,2.08 -6.87,2.58 -10.9,4.95 -5.34,3.21 -10.15,5.17 -15.66,8.67 -3.89,2.56 -6.54,4.04 -10.47,6.87 -1.21,0.92 -15.89,12 -10.31,9.88 2.88,-0.84 -7.63,6.79 -4.28,5.94 3.32,-1.28 -5.74,6.27 -2.66,4.75 1.09,-0.62 11.02,-8.49 8.77,-5.95 -3.8,4.16 0.46,0.87 1.94,-0.28 1.53,-1.17 3.83,-2.22 5.77,-3.56 7.36,-5.07 14.04,-9.77 22.2,-13.61 6.39,-3.01 12.05,-6.36 18.67,-8.81 0.09,-0.03 0.34,-0.11 0.4,-0.14 9.6,-3.47 19.12,-7.51 29.27,-9.04 8.51,-1.17 12.28,-3.03 22.07,-3.61 5.45,-0.18 10.48,-0.02 15.89,-0.44 0.09,-0.02 0.68,-0.04 0.81,-0.05 5.44,-0.31 9.61,-0.28 15.02,0.66 4.55,0.71 9.04,0.07 12.89,1.16 4.5,1.44 10.01,2.54 14.71,3.11 2.99,0.35 5.2,0.96 7.83,2.37 3.67,1.57 8.16,1.55 12.38,3.78 2.59,1.55 6.92,3.21 9.86,4.07 2.21,0.65 5.97,2.26 7.74,3.69 2.01,1.61 2.93,2.02 5.39,2.9 2.52,0.9 3.59,1.3 5.72,2.92 1.89,1.45 1.98,1.69 4.19,2.84 2.05,1.07 3.48,1.87 5.23,3.4 1.48,1.29 2.2,2.07 4.04,2.88l9.15 6.16c-0.99,-1.14 -2.27,-2.43 0.07,-0.63 0.34,0.27 7.7,6.24 4.04,2.41 -3.23,-3.38 3.93,1.79 0.03,-1.92 -3.68,-3.68 6.14,3.77 0.37,-1.64 -6.3,-5.82 3.38,1.04 -3.49,-4.66 -3.06,-2.46 -4.81,-4.64 -7.56,-6.79 -4.9,-3.79 -3.29,-3.53 -10.95,-8.04 -5.87,-3.36 -12.29,-8.04 -18.37,-10.39 -3.74,-1.35 -9.31,-2.85 -12.6,-4.98 -2.79,-1.83 -7.42,-2.91 -10.7,-3.37 -5.28,-0.97 -8.47,-3.6 -15.82,-4.69 -7.19,-0.98 -10.98,-2.81 -18.63,-3.08 -5.4,-0.09 -10.85,0.31 -16.16,-0.77 -1.77,-0.34 -3.4,-0.48 -5.19,-0.53 -2.4,-0.04 -4.68,0.08 -7.04,0.52 -0.01,0 -0.01,0 -0.01,0 -1.08,0.2 -2.52,0.21 -3.58,-0.04 -1.5,-0.35 -3.49,0.6 -4.26,0.35 -1.11,-0.37 -3.81,0.01 -4.93,0.35 -1.71,0.52 -2.57,0.54 -4.35,0.33 -1.92,-0.23 -2.91,0.2 -4.67,0.81 -1.55,0.53 -3.62,0.83 -5.27,1.05z"/>
   <path class="fil12" d="M467.23 917.13c0.94,-0.06 1.88,-0.11 2.82,-0.13 4.58,-0.19 11.18,-2.21 15.92,-3.14 5.76,-1.05 10.93,-0.73 16.03,-2.69 4.52,-1.78 7.55,-1.86 11.84,-3.61 5.17,-2.16 10.23,-3.31 15.67,-5.52 3.91,-1.64 6.76,-2.56 10.76,-4.36 1.57,-0.73 16.65,-7.51 11.31,-6.94 -3.07,0.42 8.63,-4.86 5.13,-4.52 -3.37,0.32 6.6,-4.35 3.45,-3.77 -1.5,0.38 -11.8,5.05 -9.34,3.29 4.37,-2.91 -0.24,-0.96 -1.86,-0.22 -1.73,0.76 -3.79,1.09 -6.05,1.98 -7.77,3.1 -14.87,6.25 -23.01,8.47 -6.46,1.78 -12.16,4.12 -18.65,5.57 -9.53,2.02 -20.06,5.51 -29.72,6.02 -7.81,0.52 -12.65,2.21 -21.59,2.45 -5.59,0.03 -10.22,-0.19 -15.75,0.23 -0.03,0.01 -0.31,0.03 -0.36,0.03 -5.17,0.33 -9.1,0.38 -14.27,-0.37 -4.53,-0.57 -8.53,0.33 -12.32,-0.54 -4.34,-1.15 -9.76,-1.83 -14.25,-1.95 -2.9,-0.08 -5.04,-0.45 -7.68,-1.57 -3.54,-1.11 -8.03,-0.62 -12.23,-2.22 -2.62,-1.17 -7.02,-2.18 -9.91,-2.57 -2.17,-0.28 -6.01,-1.25 -7.89,-2.32 -2.15,-1.25 -3.07,-1.47 -5.57,-1.87 -2.55,-0.41 -3.59,-0.58 -5.9,-1.75 -2.07,-1.05 -2.12,-1.23 -4.46,-1.9 -2.14,-0.61 -3.62,-1.08 -5.57,-2.18 -1.65,-0.92 -2.46,-1.51 -4.37,-1.87l-9.87 -3.7c1.18,0.84 2.64,1.74 0.07,0.61 -0.37,-0.16 -8.59,-3.97 -4.3,-1.26 3.78,2.4 -4.08,-0.7 0.38,1.85 4.22,2.55 -6.54,-2.01 0.01,1.66 7.11,3.93 -3.33,-0.15 4.22,3.56 3.63,1.73 5.23,3.19 8.39,4.71 5.14,2.47 3.83,2.65 11.67,5.39 6.18,2.12 12.77,5.46 18.8,6.74 3.68,0.71 9.12,1.34 12.46,2.98 2.8,1.41 7.31,1.9 10.42,1.97 4.65,0.32 8.63,2.64 15.28,3.07 6.74,0.38 10.53,1.96 17.67,1.87 5.05,-0.16 10.18,-0.71 15.16,0.3 1.5,0.3 2.9,0.42 4.42,0.48 2.42,0.07 4.72,-0.03 7.11,-0.47 0,0 0,0 0,0 1.03,-0.18 2.41,-0.16 3.41,0.1 1.42,0.38 3.35,-0.51 4.06,-0.24 1.04,0.39 3.64,0.1 4.71,-0.19 1.66,-0.46 2.47,-0.45 4.16,-0.16 1.84,0.32 2.79,-0.06 4.51,-0.56 1.49,-0.45 3.51,-0.63 5.08,-0.74zm-10.33 -86.2c0.65,-0.02 1.3,-0.04 1.95,-0.02 2.94,-0.01 7.68,-1.7 10.91,-2.34 4.39,-0.78 7.52,-0.01 11.08,-1.6 3.5,-1.62 4.87,-1.1 8.11,-2.59 3.45,-1.63 6.93,-2.26 10.74,-3.88 2.78,-1.23 4.49,-1.69 7.38,-3.04 1.8,-0.88 11.26,-5.16 7.53,-5.28 -2.26,0.04 5.82,-3.47 3.25,-3.6 -2.47,-0.13 4.37,-3.2 2.1,-3.07 -1.64,0.23 -8.03,3.15 -6.53,1.88 2.82,-2.15 -0.16,-1 -1.4,-0.45 -1.2,0.52 -2.24,0.42 -4.2,1.14 -5.35,2.03 -9.96,4.23 -15.62,5.6 -4.6,1.15 -8.08,2.85 -12.62,3.79 -6.37,1.2 -13.74,4.04 -20.11,4.12 -5.22,0.17 -8,1.7 -14.61,1.76 -4.1,-0.07 -6.68,-0.36 -10.67,0.09 -0.02,0 -0.21,0.02 -0.24,0.02 -3.66,0.35 -6,0.45 -9.67,-0.24 -3.55,-0.57 -5.68,0.55 -8.36,-0.23 -2.8,-0.98 -6.67,-1.47 -9.64,-1.38 -2.04,0.07 -3.42,-0.18 -5.19,-1.14 -2.09,-0.79 -5.53,-0.15 -8.31,-1.4 -1.62,-0.9 -4.83,-1.63 -6.7,-1.76 -1.44,-0.1 -4.18,-0.76 -5.34,-1.59 -1.45,-1.05 -1.95,-1.14 -3.77,-1.29 -1.86,-0.17 -2.39,-0.17 -4.03,-1.11 -1.38,-0.79 -1.34,-0.97 -2.99,-1.37 -1.54,-0.37 -2.42,-0.6 -3.77,-1.47 -1.13,-0.73 -1.56,-1.16 -2.95,-1.28l-6.77 -2.32c0.76,0.64 1.73,1.32 -0.03,0.57 -0.3,-0.13 -5.85,-2.65 -3.02,-0.65 2.5,1.77 -2.94,-0.14 0.05,1.68 3,1.83 -5.01,-1.15 -0.2,1.57 4.8,2.7 -2.44,0.37 2.7,2.84 3.1,1.52 3.16,2.25 5.62,3.51 3.66,1.87 1.02,1.58 7.92,3.93 4.49,1.51 8.75,4.09 12.85,4.83 2.6,0.4 6.36,0.61 8.58,1.98 1.85,1.17 5.05,1.39 7.18,1.28 2.92,0.04 5.42,2.12 10.47,2.29 5.01,0.11 6.72,1.59 12.15,1.3 3.47,-0.26 7.02,-0.88 10.42,0.11 1.04,0.28 1.97,0.41 3.04,0.47 1.68,0.06 3.26,-0.03 4.89,-0.44 0,0 0,0 0,0 0.71,-0.18 1.67,-0.14 2.34,0.13 1.06,0.42 2.29,-0.48 2.79,-0.19 0.71,0.4 2.51,0.17 3.25,-0.1 1.15,-0.44 1.68,-0.4 2.86,-0.06 1.3,0.38 1.91,0.02 3.09,-0.44 0.95,-0.37 2.45,-0.51 3.49,-0.56zm1.84 15.36c0.7,-0.03 1.4,-0.05 2.1,-0.04 3.22,-0.04 8.33,-1.79 11.81,-2.49 4.61,-0.82 8.14,-0.14 11.96,-1.79 3.68,-1.64 5.36,-1.24 8.77,-2.77 3.77,-1.73 7.52,-2.44 11.62,-4.17 2.98,-1.31 4.9,-1.85 7.98,-3.28 1.76,-0.84 12.21,-5.57 8.21,-5.57 -2.41,0.1 6.32,-3.72 3.59,-3.77 -2.64,-0.04 4.77,-3.4 2.34,-3.19 -1.63,0.27 -8.7,3.48 -7.04,2.13 3.1,-2.29 -0.17,-0.99 -1.48,-0.41 -1.28,0.56 -2.54,0.55 -4.53,1.29 -5.78,2.22 -10.84,4.59 -16.94,6.11 -4.92,1.26 -8.81,3.08 -13.69,4.11 -6.93,1.34 -14.86,4.3 -21.82,4.46 -5.69,0.23 -8.83,1.79 -15.85,1.88 -4.37,-0.05 -7.32,-0.32 -11.58,0.11 -0.02,0.01 -0.23,0.02 -0.27,0.03 -3.92,0.35 -6.54,0.43 -10.48,-0.27 -3.72,-0.56 -6.2,0.51 -9.06,-0.28 -3.08,-1.01 -7.24,-1.54 -10.47,-1.48 -2.2,0.04 -3.7,-0.23 -5.64,-1.22 -2.35,-0.85 -5.96,-0.23 -9,-1.55 -1.78,-0.94 -5.23,-1.73 -7.27,-1.9 -1.56,-0.13 -4.52,-0.85 -5.8,-1.72 -1.58,-1.09 -2.14,-1.19 -4.08,-1.4 -2,-0.21 -2.61,-0.23 -4.37,-1.21 -1.6,-0.92 -1.36,-0.99 -3.25,-1.47 -1.65,-0.42 -2.63,-0.68 -4.09,-1.6 -1.23,-0.76 -1.71,-1.22 -3.2,-1.39l-7.33 -2.56c0.84,0.68 1.89,1.39 -0.01,0.58 -0.31,-0.14 -6.34,-2.89 -3.25,-0.76 2.73,1.88 -3.13,-0.24 0.11,1.71 3.26,1.95 -5.39,-1.34 -0.16,1.58 5.2,2.9 -2.59,0.31 2.97,2.98 3.18,1.54 3.53,2.42 6.12,3.71 3.95,2 1.5,1.77 8.58,4.2 4.76,1.61 9.49,4.33 13.91,5.16 2.78,0.46 6.86,0.75 9.28,2.17 2,1.21 5.45,1.48 7.75,1.4 3.21,0.09 5.99,2.21 11.33,2.43 5.31,0.16 7.4,1.65 13.13,1.4 3.74,-0.24 7.58,-0.85 11.26,0.14 1.13,0.29 2.13,0.41 3.29,0.47 1.81,0.07 3.51,-0.02 5.28,-0.44 0,0 0,0 0,0 0.77,-0.18 1.81,-0.15 2.54,0.12 1.12,0.42 2.48,-0.48 3.02,-0.2 0.76,0.41 2.7,0.16 3.5,-0.12 1.25,-0.43 1.82,-0.4 3.09,-0.07 1.4,0.37 2.07,0.01 3.35,-0.46 1.04,-0.38 2.64,-0.53 3.77,-0.59zm1.84 15.36c0.75,-0.04 1.51,-0.07 2.26,-0.06 3.5,-0.07 8.95,-1.89 12.7,-2.63 4.85,-0.87 8.75,-0.27 12.84,-1.99 3.86,-1.67 5.83,-1.38 9.44,-2.95 4.06,-1.82 8.11,-2.63 12.5,-4.47 3.17,-1.37 5.3,-2 8.58,-3.5 1.73,-0.83 13.15,-5.99 8.87,-5.87 -2.55,0.17 6.83,-3.97 3.93,-3.93 -2.79,0.03 5.17,-3.61 2.58,-3.32 -1.62,0.3 -9.36,3.81 -7.53,2.38 3.38,-2.43 -0.2,-0.98 -1.57,-0.37 -1.37,0.6 -2.83,0.67 -4.85,1.44 -6.22,2.41 -11.72,4.95 -18.26,6.62 -5.25,1.37 -9.55,3.31 -14.77,4.43 -7.49,1.49 -15.99,4.56 -23.53,4.8 -6.16,0.29 -9.66,1.87 -17.1,2 -4.63,-0.03 -7.94,-0.29 -12.48,0.14 -0.02,0.01 -0.24,0.02 -0.29,0.02 -4.19,0.35 -7.1,0.43 -11.3,-0.29 -3.88,-0.56 -6.72,0.47 -9.77,-0.34 -3.34,-1.03 -7.79,-1.59 -11.29,-1.58 -2.35,0.02 -3.99,-0.27 -6.08,-1.29 -2.59,-0.91 -6.4,-0.31 -9.7,-1.69 -1.95,-0.99 -5.63,-1.84 -7.85,-2.05 -1.68,-0.16 -4.84,-0.94 -6.24,-1.86 -1.71,-1.11 -2.34,-1.24 -4.41,-1.49 -2.12,-0.25 -2.81,-0.31 -4.7,-1.33 -1.71,-0.95 -1.51,-1.03 -3.51,-1.56 -1.76,-0.46 -2.85,-0.77 -4.42,-1.72 -1.32,-0.81 -1.86,-1.29 -3.45,-1.5l-7.88 -2.81c0.92,0.71 2.06,1.47 0.01,0.59 -0.32,-0.14 -6.83,-3.13 -3.48,-0.87 2.96,1.99 -3.34,-0.34 0.18,1.74 3.5,2.07 -5.77,-1.52 -0.13,1.6 5.6,3.09 -2.74,0.24 3.24,3.1 3.26,1.58 3.91,2.59 6.61,3.93 4.23,2.11 2,1.96 9.25,4.45 5.06,1.72 10.2,4.58 14.97,5.51 2.98,0.52 7.35,0.88 9.97,2.34 2.17,1.25 5.86,1.58 8.33,1.53 3.5,0.13 6.56,2.3 12.19,2.57 5.61,0.2 8.07,1.71 14.11,1.5 4.02,-0.23 8.14,-0.82 12.11,0.17 1.2,0.29 2.3,0.42 3.53,0.48 1.94,0.07 3.78,-0.03 5.68,-0.45 0,0 0,0 0,0 0.82,-0.18 1.94,-0.15 2.72,0.12 1.19,0.41 2.67,-0.49 3.25,-0.21 0.83,0.4 2.91,0.15 3.76,-0.14 1.34,-0.44 1.96,-0.41 3.33,-0.08 1.49,0.35 2.22,-0.01 3.59,-0.49 1.14,-0.39 2.84,-0.55 4.06,-0.62zm2.62 21.8c0.82,-0.05 1.65,-0.09 2.47,-0.09 3.93,-0.12 9.84,-2.02 13.97,-2.83 5.2,-0.94 9.61,-0.46 14.09,-2.27 4.11,-1.7 6.52,-1.57 10.38,-3.2 4.51,-1.96 8.95,-2.91 13.75,-4.88 3.46,-1.48 5.87,-2.23 9.44,-3.85 1.72,-0.81 14.5,-6.58 9.83,-6.29 -2.76,0.27 7.53,-4.32 4.39,-4.16 -3.01,0.15 5.75,-3.9 2.93,-3.49 -1.58,0.33 -10.31,4.29 -8.25,2.74 3.78,-2.63 -0.21,-0.98 -1.68,-0.32 -1.5,0.66 -3.22,0.84 -5.32,1.66 -6.82,2.68 -12.95,5.46 -20.12,7.34 -5.73,1.53 -10.58,3.63 -16.3,4.88 -8.29,1.69 -17.58,4.93 -25.96,5.28 -6.81,0.37 -10.83,2 -18.86,2.17 -5.01,0 -8.84,-0.24 -13.77,0.18 -0.03,0.01 -0.27,0.02 -0.32,0.03 -4.57,0.33 -7.88,0.4 -12.46,-0.33 -4.14,-0.56 -7.44,0.42 -10.78,-0.41 -3.73,-1.09 -8.56,-1.69 -12.45,-1.73 -2.57,-0.02 -4.4,-0.34 -6.71,-1.4 -2.97,-0.99 -7.04,-0.43 -10.69,-1.9 -2.21,-1.06 -6.19,-1.97 -8.66,-2.25 -1.87,-0.21 -5.31,-1.07 -6.89,-2.04 -1.89,-1.17 -2.62,-1.33 -4.86,-1.64 -2.3,-0.32 -3.12,-0.42 -5.18,-1.5 -1.85,-0.99 -1.74,-1.11 -3.88,-1.7 -1.91,-0.51 -3.15,-0.88 -4.87,-1.89 -1.45,-0.86 -2.1,-1.38 -3.81,-1.65l-8.66 -3.16c1.02,0.77 2.28,1.58 0.03,0.6 -0.34,-0.15 -7.52,-3.46 -3.81,-1.02 3.29,2.15 -3.62,-0.48 0.26,1.78 3.67,2.28 -5.79,-1.64 -0.07,1.62 6.21,3.5 -2.99,0.01 3.63,3.28 3.39,1.64 4.43,2.84 7.31,4.24 4.6,2.26 2.71,2.23 10.19,4.82 5.49,1.87 11.22,4.93 16.48,5.99 3.25,0.59 8.05,1.06 10.95,2.6 2.42,1.31 6.43,1.7 9.15,1.7 3.95,0.2 7.37,2.43 13.4,2.76 6.06,0.28 9.04,1.81 15.51,1.65 4.44,-0.2 8.94,-0.78 13.31,0.22 1.32,0.29 2.53,0.42 3.88,0.48 2.13,0.07 4.15,-0.03 6.24,-0.46 0,0 0,0 0,0 0.91,-0.18 2.12,-0.16 3,0.11 1.28,0.4 2.94,-0.49 3.56,-0.22 0.91,0.4 3.2,0.13 4.14,-0.16 1.47,-0.45 2.15,-0.42 3.65,-0.11 1.63,0.34 2.44,-0.03 3.95,-0.52 1.28,-0.41 3.11,-0.58 4.47,-0.66zm2.02 16.84c0.88,-0.05 1.76,-0.1 2.64,-0.11 4.25,-0.16 10.51,-2.12 14.95,-2.98 5.47,-1 10.26,-0.6 15.06,-2.48 4.31,-1.74 7.03,-1.72 11.1,-3.41 4.85,-2.06 9.59,-3.11 14.72,-5.2 3.68,-1.56 6.31,-2.39 10.1,-4.1 1.65,-0.78 15.57,-7.05 10.56,-6.62 -2.91,0.35 8.09,-4.59 4.76,-4.34 -3.19,0.24 6.18,-4.12 3.2,-3.63 -1.55,0.36 -11.06,4.67 -8.8,3.02 4.08,-2.77 -0.23,-0.97 -1.77,-0.28 -1.61,0.71 -3.51,0.97 -5.69,1.83 -7.29,2.88 -13.91,5.85 -21.56,7.9 -6.09,1.65 -11.37,3.88 -17.48,5.23 -8.91,1.85 -18.81,5.22 -27.84,5.65 -7.31,0.44 -11.73,2.1 -20.22,2.3 -5.3,0.02 -9.53,-0.21 -14.76,0.21 -0.03,0.01 -0.29,0.02 -0.34,0.03 -4.87,0.33 -8.49,0.39 -13.37,-0.35 -4.33,-0.57 -7.98,0.37 -11.55,-0.47 -4.03,-1.13 -9.16,-1.77 -13.35,-1.85 -2.73,-0.05 -4.71,-0.39 -7.19,-1.48 -3.26,-1.05 -7.54,-0.53 -11.46,-2.06 -2.41,-1.11 -6.61,-2.08 -9.28,-2.41 -2.02,-0.25 -5.67,-1.16 -7.39,-2.18 -2.03,-1.21 -2.85,-1.4 -5.22,-1.76 -2.42,-0.36 -3.35,-0.5 -5.54,-1.62 -1.97,-1.02 -1.92,-1.17 -4.17,-1.8 -2.03,-0.56 -3.38,-0.98 -5.22,-2.03 -1.55,-0.9 -2.28,-1.45 -4.09,-1.76l-9.26 -3.44c1.1,0.81 2.46,1.67 0.04,0.61 -0.35,-0.15 -8.05,-3.72 -4.05,-1.14 3.53,2.28 -3.86,-0.59 0.32,1.81 3.94,2.42 -6.17,-1.82 -0.03,1.65 6.66,3.72 -3.16,-0.08 3.93,3.42 3.5,1.68 4.83,3.01 7.84,4.47 4.88,2.37 3.28,2.44 10.93,5.11 5.83,1.99 12.01,5.19 17.64,6.36 3.47,0.65 8.59,1.2 11.71,2.79 2.61,1.36 6.87,1.8 9.79,1.83 4.28,0.26 8,2.54 14.34,2.92 6.39,0.33 9.78,1.88 16.59,1.76 4.74,-0.18 9.56,-0.75 14.23,0.26 1.41,0.29 2.71,0.42 4.15,0.48 2.28,0.07 4.44,-0.03 6.67,-0.46 0,0 0.01,0 0.01,0 0.96,-0.18 2.26,-0.16 3.2,0.1 1.35,0.39 3.14,-0.5 3.81,-0.23 0.98,0.4 3.42,0.12 4.43,-0.18 1.56,-0.45 2.31,-0.43 3.9,-0.13 1.74,0.33 2.61,-0.04 4.23,-0.54 1.38,-0.43 3.31,-0.61 4.78,-0.7z"/>
   <path class="fil13" d="M434.19 178.11c47.38,0 85.79,38.4 85.79,85.78 0,47.38 -38.41,85.79 -85.79,85.79 -47.38,0 -85.79,-38.41 -85.79,-85.79 0,-47.38 38.41,-85.78 85.79,-85.78z"/>
   <path class="fil8" d="M434.19 236.8c47.38,0 85.79,12.13 85.79,27.09 0,14.97 -38.41,27.1 -85.79,27.1 -47.38,0 -85.79,-12.13 -85.79,-27.1 0,-14.96 38.41,-27.09 85.79,-27.09z"/>
   <path class="fil0" d="M434.19 236.8c10.65,0 20.84,0.61 30.25,1.73 5.75,6.86 9.22,15.71 9.22,25.37 0,9.65 -3.47,18.5 -9.22,25.36 -9.41,1.12 -19.6,1.73 -30.25,1.73 -10.66,0 -20.87,-0.61 -30.28,-1.74 -5.76,-6.86 -9.22,-15.7 -9.22,-25.35 0,-9.66 3.46,-18.5 9.22,-25.37 9.42,-1.12 19.62,-1.73 30.28,-1.73z"/>
   <path class="fil1" d="M434.17 249.8c7.79,0 14.1,6.31 14.1,14.1 0,7.78 -6.31,14.09 -14.1,14.09 -7.78,0 -14.09,-6.31 -14.09,-14.09 0,-7.79 6.31,-14.1 14.09,-14.1z"/>
   <path class="fil8" d="M446.95 246.09c5,0 9.06,2.25 9.06,5.03 0,2.78 -4.06,5.03 -9.06,5.03 -5,0 -9.06,-2.25 -9.06,-5.03 0,-2.78 4.06,-5.03 9.06,-5.03z"/>
   <path class="fil14" d="M399.82 224.23c-0.38,0.02 -0.77,0.04 -1.15,0.04 -1.77,0.05 -4.1,0.91 -6.04,1.26 -2.12,0.32 -3.77,-0.15 -5.33,0.51 -1.69,0.75 -1.92,0.24 -3.33,0.84 -1.22,0.57 -2.26,0.46 -3.55,0.93 -0.9,0.33 -0.87,0.15 -1.77,0.49 -0.51,0.21 -1.56,0.52 -1.04,1.23 0.29,0.4 -0.36,0.32 -0.06,1.02 0.14,0.38 0.04,0.49 0.16,0.93 0.18,0.61 0.55,0.23 0.45,0.57 -0.08,0.2 -0.08,0.53 0.22,0.49 0.31,-0.04 -0.02,0.27 0.6,0.24 1.15,-0.1 2.37,-0.52 3.85,-0.64 1.77,-0.13 3.13,-0.83 4.94,-1.03 3.5,-0.39 6.94,-1.74 10.52,-1.86 2.92,-0.15 5.66,-1.11 9.25,-1.37 2.92,-0.16 4.79,-0.18 7.61,-0.63 2.61,-0.41 4.59,-0.61 7.25,-0.52 2.55,0.04 4.47,-0.7 6.67,-0.5 2.56,0.32 5.67,0.25 8.22,-0.03 1.7,-0.19 3.01,-0.16 4.66,0.2 2.29,0.29 4.93,-0.34 7.61,0.12 1.82,0.41 4.56,0.54 6.44,0.48 1.46,-0.04 3.9,0.12 5.28,0.53 1.5,0.46 2.22,0.5 3.81,0.5 1.64,0 2.46,0.02 4.05,0.42 1.4,0.36 1.68,0.49 3.18,0.63 1.45,0.15 2.56,0.29 3.96,0.7 1.19,0.36 1.9,0.62 3.16,0.66l7.12 1.26c-0.92,-0.37 -2.04,-0.75 -0.15,-0.33 0.26,0.06 6.36,1.58 3.06,0.39 -2.91,-1.04 2.83,0.11 -0.57,-0.97 -3.24,-1.09 4.66,0.65 -0.29,-0.89 -5.27,-1.56 2.14,-0.26 -3.38,-1.62 -2.4,-0.6 -4.06,-1.35 -6.26,-1.89 -3.52,-0.85 -3.6,-1.21 -8.37,-1.9 -4.13,-0.57 -8.81,-1.76 -12.81,-1.91 -2.4,-0.05 -5.69,0.16 -8.01,-0.46 -1.85,-0.49 -4.55,-0.37 -6.44,-0.14 -2.71,0.22 -5.44,-0.66 -9.09,-0.39 -3.42,0.33 -6.28,-0.28 -9.76,0.24 -2.52,0.37 -5.2,0.97 -7.75,0.66 -1.64,-0.21 -3.93,-0.03 -5.52,0.44 0,0 0,0 0,0 -0.48,0.12 -1.12,0.16 -1.59,0.04 -0.68,-0.16 -1.53,0.36 -1.85,0.23 -0.48,-0.18 -1.64,0.02 -2.11,0.19 -0.73,0.27 -1.07,0.28 -1.83,0.13 -0.81,-0.15 -1.18,0.05 -1.91,0.33 -0.59,0.22 -1.47,0.33 -2.11,0.38z"/>
   <path class="fil14" d="M400.45 300.41c-0.37,-0.08 -0.74,-0.17 -1.1,-0.27 -1.7,-0.46 -4.01,-0.31 -6.03,-0.61 -2.17,-0.41 -3.39,-1.4 -5.08,-1.35 -1.87,0.08 -1.77,-0.48 -3.33,-0.47 -1.31,0.05 -2.21,-0.48 -3.53,-0.59 -0.96,-0.1 -0.79,-0.23 -1.76,-0.33 -0.55,-0.05 -1.54,-0.24 -1.44,0.61 0.05,0.49 -0.46,0.13 -0.54,0.87 -0.06,0.41 -0.2,0.43 -0.32,0.89 -0.14,0.62 0.4,0.47 0.13,0.72 -0.18,0.14 -0.33,0.43 -0.03,0.54 0.31,0.11 -0.15,0.22 0.44,0.5 0.96,0.39 2.65,0.69 3.88,1.14 1.68,0.62 3.3,0.53 5.07,1.01 3.45,0.94 7.27,0.82 10.76,1.73 2.49,0.6 6.47,0.58 9.46,1.05 3.07,0.5 4.72,0.84 7.72,0.86 2.64,0.03 4.76,0.11 7.39,0.5 2.71,0.33 4.47,-0.28 6.8,0.07 2.58,0.47 5.77,0.49 8.37,0.2 1.72,-0.2 3.05,-0.21 4.75,0.08 2.2,0.18 5.17,-0.63 7.75,-0.47 1.89,0.2 4.69,-0.05 6.57,-0.42 1.47,-0.29 3.92,-0.61 5.39,-0.5 1.59,0.12 2.35,-0.01 3.91,-0.42 1.6,-0.41 2.45,-0.62 4.11,-0.71 1.35,-0.07 1.92,-0.06 3.28,-0.38 1.44,-0.33 2.6,-0.59 4.07,-0.71 1.27,-0.11 2.05,-0.14 3.25,-0.61 1.07,-0.41 8.21,-2.09 7.14,-1.97 -1.03,0.11 -2.18,0.29 -0.29,-0.22 0.25,-0.06 6.47,-1.78 2.93,-1.14 -3.11,0.55 2.52,-1.29 -0.99,-0.56 -3.37,0.61 4.38,-1.73 -0.69,-0.65 -5.39,1.2 1.75,-1.09 -3.72,0.14 -2.84,0.61 -3.82,0.45 -6.39,0.86 -2.81,0.42 -4.92,0.44 -8.37,1.03 -4.79,0.76 -8.27,0.51 -12.64,1.18 -2.28,0.36 -5.51,1.04 -7.83,0.68 -1.84,-0.29 -4.48,0.05 -6.31,0.38 -2.24,0.31 -5.91,-0.4 -8.94,-0.22 -3.46,0.21 -6,-0.46 -9.58,-0.31 -2.49,0.14 -5.2,0.41 -7.63,-0.28 -1.56,-0.45 -3.81,-0.66 -5.43,-0.5 0,0 0,0 0,0 -0.48,0.03 -1.11,-0.06 -1.55,-0.27 -0.61,-0.29 -1.54,0.04 -1.82,-0.15 -0.41,-0.28 -1.58,-0.35 -2.06,-0.29 -0.75,0.1 -1.09,0.02 -1.77,-0.3 -0.74,-0.34 -1.13,-0.24 -1.91,-0.15 -0.61,0.06 -1.48,-0.07 -2.09,-0.19z"/>
   <path class="fil14" d="M177.75 854.94c0.1,-0.16 0.22,-0.32 0.35,-0.46 0.64,-0.77 0.16,-1.54 0.66,-2.97 0.83,-1.8 1.81,-0.88 1.59,-2.19 -0.3,-1.25 0.62,-0.67 0.43,-1.67 -0.18,-0.91 0.47,-0.77 0.53,-1.74 0.08,-0.99 0.2,0.16 0.29,-0.88 0.02,-0.76 -0.28,-0.95 -0.96,-1.17 -0.48,-0.18 -0.47,-0.44 -1.18,-0.76 -0.43,-0.18 -0.78,-0.43 -1.2,-0.64 -0.52,-0.25 -0.72,-0.09 -0.93,-0.27 -0.11,-0.1 -0.57,-0.45 -0.72,-0.29 -0.13,0.14 -0.3,-0.21 -0.62,0.03 -0.29,0.26 -0.53,1.09 -1.22,1.8 -0.83,0.81 -0.33,1.45 -1.05,2.49 -1.01,1.42 -0.86,3.79 -2,5.24 -0.79,1.12 -0.32,2.37 -1.42,4.6 -0.91,1.74 -1.21,1.86 -1.37,3.63 -0.16,1.54 -0.22,2.13 -1.04,3.5 -0.84,1.39 0.2,2.32 -0.58,3.28 -0.82,1 -1.21,2.61 -1.08,3.88 0.1,0.95 -0.06,1.48 -0.68,2.17 -0.39,0.44 0.17,2.82 -0.43,3.64 -0.53,0.71 -0.69,2.17 -0.52,3.03 0.12,0.64 0.05,1.93 -0.34,2.47 -0.51,0.69 -0.5,0.93 -0.25,1.77 0.27,0.88 0.4,1.03 0.06,1.9 -0.28,0.74 -0.41,0.63 -0.28,1.48 0.13,0.77 0.2,1.09 -0.06,1.84 -0.21,0.61 -0.39,0.86 -0.06,1.47l0.59 3.23c0.17,-0.45 0.3,-0.97 0.4,-0.12 0.02,0.22 0.32,2.85 0.63,1.3 0.28,-1.36 0.96,1.1 1.12,-0.42 0.16,-1.52 1,2.04 1.13,-0.29 0.13,-2.32 1.02,0.78 1.03,-1.56 0.04,-2.16 0.45,-0.98 0.7,-2.67 0.28,-1.7 0.7,0.44 0.73,-3.51 0.11,-3.21 1.18,-3.18 1.03,-5.39 -0.1,-1.16 -0.45,-2.6 0.36,-3.46 0.67,-0.69 0.57,-1.99 0.35,-2.84 -0.17,-1.25 1.25,-1.57 1.31,-3.9 -0.06,-1.93 1.25,-2.16 1.18,-4.32 -0.04,-1.27 -0.26,-2.66 0.78,-3.56 0.66,-0.57 1.03,-1.63 0.85,-2.49 0,0 0,0 0,0 -0.04,-0.28 0.14,-0.55 0.39,-0.67 0.47,-0.21 -0.05,-0.78 0.24,-0.85 0.36,-0.09 0.5,-0.62 0.4,-0.94 -0.14,-0.46 0.01,-0.58 0.42,-0.78 0.48,-0.24 0.32,-0.5 0.2,-0.92 -0.08,-0.32 0.07,-0.75 0.24,-1.02z"/>
   <path class="fil14" d="M696.82 852.62c-0.03,-0.2 -0.05,-0.4 -0.05,-0.6 -0.04,-1.01 -0.96,-1.4 -1.57,-2.76 -0.67,-1.9 0.62,-2 -0.48,-2.79 -1.11,-0.7 -0.08,-0.97 -0.95,-1.54 -0.81,-0.52 -0.29,-0.93 -1,-1.65 -0.72,-0.75 0.27,-0.05 -0.51,-0.84 -0.59,-0.54 -0.92,-0.46 -1.54,-0.03 -0.46,0.28 -0.59,0.06 -1.32,0.46 -0.4,0.22 -0.83,0.36 -1.24,0.57 -0.44,0.22 -0.57,0.5 -0.79,0.55 -0.13,0.03 -0.7,0.2 -0.68,0.39 0.02,0.17 -0.34,0.11 -0.37,0.47 0.01,0.41 0.46,0.9 0.52,1.94 0.04,1.13 0.83,1.1 1.06,2.32 0.3,1.63 2.02,3.12 2.1,4.9 0.16,1.49 1.25,1.57 1.81,4.23 0.34,1.9 0.14,2.06 1.03,3.56 0.72,1.26 1.01,1.8 1.02,3.31 0.02,1.54 1.37,1.79 1.14,2.95 -0.23,1.21 0.15,2.72 0.8,3.74 0.49,0.76 0.56,1.3 0.25,2.12 -0.18,0.51 1.2,2.38 0.88,3.33 -0.26,0.77 0.01,2.12 0.39,2.83 0.3,0.55 0.53,1.72 0.26,2.3 -0.36,0.73 -0.31,0.91 0.09,1.65 0.41,0.73 0.56,0.89 0.34,1.71 -0.19,0.72 -0.34,0.59 -0.12,1.37 0.19,0.68 0.29,0.99 0.05,1.67 -0.18,0.56 -0.36,0.78 -0.03,1.33l0.42 2.93c0.21,-0.38 0.39,-0.86 0.41,-0.07 0,0.23 -0.04,2.61 0.47,1.27 0.47,-1.22 0.81,1.18 1.16,-0.24 0.37,-1.45 0.74,2.16 1.17,-0.13 0.43,-2.32 0.99,0.94 1.18,-1.5 0.19,-2.17 0.57,-1.17 0.78,-2.81 0.25,-1.83 0.88,0.29 0.49,-3.82 -0.26,-2.67 0.52,-4.06 -0.06,-5.92 -0.42,-1.16 -1.18,-2.52 -0.72,-3.66 0.39,-0.93 -0.19,-2.19 -0.74,-2.94 -0.61,-0.84 0.46,-2.53 -0.5,-4.33 -0.96,-1.81 0.06,-2.69 -1.15,-4.59 -0.7,-1.12 -1.66,-2.21 -1.33,-3.59 0.21,-0.88 -0.12,-2.02 -0.79,-2.64 0,0 0,0 0,0 -0.21,-0.21 -0.23,-0.54 -0.1,-0.8 0.23,-0.46 -0.53,-0.62 -0.35,-0.86 0.22,-0.3 -0.01,-0.83 -0.29,-1.03 -0.4,-0.29 -0.37,-0.48 -0.18,-0.91 0.21,-0.51 -0.08,-0.62 -0.45,-0.88 -0.28,-0.2 -0.45,-0.65 -0.51,-0.97z"/>
   <path class="fil14" d="M745.45 765.58c0.01,-0.57 0.03,-1.14 0.08,-1.71 0.17,-2.65 -0.73,-6.05 -0.96,-8.98 -0.14,-2.86 0.77,-5.25 0.07,-7.26 -0.82,-2.25 -0.04,-2.43 -0.73,-4.03 -0.27,-0.58 -0.45,-1 -0.47,-1.64 -0.18,-0.79 -0.46,-1.33 -1.01,-1.92 -0.05,-0.26 -3.51,-3.55 -3.83,-3.84 -1.84,-1.69 -2.98,-3.05 -4.87,-4.83 -1.81,-1.68 -7.49,-7.51 -6.45,-4.66 0.75,1.8 -4.43,-3.91 -3.76,-1.86 0.66,2.05 -3.78,-2.95 -3.01,-1.13 0.67,1.3 4.94,5.89 3.5,4.95 -2.61,-1.86 -0.68,0.38 0.12,1.23 0.86,0.94 1.07,1.73 2.31,3.16 3.33,3.75 6.95,7.07 10.2,10.95 0.25,0.3 0.52,0.63 0.78,0.91 -0.43,-0.43 -0.67,-0.89 -0.82,-1.48 0.03,1.24 0.65,2.12 0.7,4.28 0.16,5.1 1.3,9.48 1.12,14.86 -0.16,4.22 0.88,9.14 0.86,14.22 -0.06,4.5 -0.21,7.3 0.25,11.65 0.39,3.87 0.58,6.9 0.34,10.81 -0.16,3.74 0.88,6.42 0.55,9.57 -0.46,3.45 -0.36,7.72 0.14,11.16 0.33,2.19 0.36,3.83 -0.08,5.98 -0.27,2.63 0.82,6.03 0.42,9.13 -0.37,1.93 -0.27,5.12 0.07,7.08 0.23,1.34 0.4,4.02 0.05,5.3 -0.4,1.5 -0.36,2 -0.01,3.54 0.33,1.48 0.49,1.93 0.25,3.44 -0.2,1.19 -0.35,1.24 -0.17,2.5 0.15,1.1 0.26,1.73 0.03,2.83 -0.17,0.81 -0.38,1.2 -0.03,2.01l0.52 3.64c0.2,-0.42 0.35,-0.94 0.41,-0.09 0.01,0.18 0.13,2.41 0.56,1.18 0.38,-1.1 0.89,0.99 1.14,-0.29 0.26,-1.3 0.89,1.84 1.15,-0.19 0.29,-2.3 1.02,0.93 1.09,-1.56 0.1,-2.28 0.55,-1.57 0.71,-3.49 0.25,-2.58 0.75,-0.74 0.56,-5.94 -0.14,-4.48 0.75,-7.51 0.34,-11.56 -0.28,-2.54 -0.93,-6.02 -0.3,-8.54 0.52,-2.12 0.1,-5.41 -0.33,-7.54 -0.42,-2.86 0.62,-7.24 0.21,-11.56 -0.49,-4.9 0.31,-8.26 -0.28,-13.42 -0.48,-3.69 -1.19,-7.56 -0.58,-11.26 0.41,-2.44 0.32,-5.85 -0.21,-8.27 0,0 0,0 0,-0.01 -0.14,-0.72 -0.14,-1.69 0.07,-2.39 0.3,-0.99 -0.36,-2.33 -0.15,-2.81 0.31,-0.7 0.15,-2.48 -0.05,-3.21 -0.31,-1.11 -0.27,-1.64 0.02,-2.76 0.31,-1.21 0.07,-1.79 -0.24,-2.93 -0.26,-0.92 -0.3,-2.25 -0.28,-3.22z"/>
   <path class="fil14" d="M129.54 765.89c0.06,-0.56 0.14,-1.13 0.24,-1.69 0.44,-2.64 -0.11,-5.91 0.04,-8.93 0.24,-2.92 1.48,-4.93 1.16,-6.96 -0.43,-2.42 0.44,-2.03 0.16,-3.73 -0.1,-0.5 -0.17,-0.83 0.03,-1.3 -0.11,0.5 -0.29,0.85 -0.64,1.24 0,0.17 3.29,-3.41 3.75,-3.93 1.64,-1.89 2.98,-3.06 4.71,-5 1.63,-1.85 7.31,-7.67 4.49,-6.56 -1.78,0.79 3.79,-4.53 1.76,-3.82 -2.03,0.73 2.85,-3.84 1.06,-3.03 -1.3,0.71 -5.76,5.08 -4.87,3.62 1.8,-2.65 -0.39,-0.67 -1.22,0.16 -0.91,0.88 -1.72,1.12 -3.1,2.39 -3.66,3.43 -6.89,7.12 -10.69,10.48 -0.3,0.26 -0.61,0.53 -0.89,0.8 -0.63,0.66 -0.98,1.29 -1.2,2.17 -0.41,1.43 -0.26,3.39 -0.58,5.2 -0.89,4.76 -0.12,10.24 -0.91,15.22 -0.55,3.98 0,9.57 -0.38,14.33 -0.39,4.54 -0.73,7.26 -0.54,11.68 0.14,3.89 0.16,6.95 -0.3,10.85 -0.37,3.75 0.54,6.44 0.06,9.6 -0.63,3.42 -0.73,7.71 -0.37,11.17 0.23,2.21 0.2,3.85 -0.33,5.98 -0.37,2.61 0.58,6.08 0.08,9.16 -0.44,1.92 -0.45,5.11 -0.17,7.09 0.18,1.34 0.26,4.03 -0.12,5.31 -0.44,1.48 -0.42,1.98 -0.11,3.54 0.29,1.49 0.44,1.94 0.16,3.45 -0.23,1.19 -0.38,1.23 -0.23,2.51 0.13,1.1 0.22,1.73 -0.03,2.83 -0.19,0.81 -0.4,1.2 -0.07,2.02l0.47 3.68c0.21,-0.43 0.36,-0.95 0.41,-0.1 0.01,0.19 0.12,2.45 0.55,1.21 0.39,-1.12 0.89,0.99 1.14,-0.29 0.27,-1.31 0.88,1.84 1.15,-0.19 0.31,-2.29 1.01,0.93 1.11,-1.54 0.13,-2.29 0.56,-1.54 0.77,-3.47 0.29,-2.56 0.75,-0.76 0.68,-5.91 -0.02,-4.51 0.95,-7.45 0.67,-11.52 -0.2,-2.54 -0.73,-6.05 -0.02,-8.53 0.6,-2.1 0.3,-5.4 -0.04,-7.54 -0.3,-2.82 0.9,-7.27 0.69,-11.53 -0.27,-4.88 0.69,-8.24 0.37,-13.39 -0.28,-3.7 -0.78,-7.6 0.05,-11.25 0.55,-2.4 0.68,-5.8 0.32,-8.24 0,0 0,0 0,0 -0.1,-0.73 -0.02,-1.7 0.24,-2.38 0.36,-0.96 -0.2,-2.35 0.05,-2.8 0.36,-0.67 0.33,-2.45 0.19,-3.19 -0.22,-1.13 -0.15,-1.65 0.24,-2.74 0.41,-1.17 0.21,-1.76 0,-2.92 -0.17,-0.94 -0.1,-2.25 0.01,-3.21z"/>
   <polygon class="fil5" style="mask:url(#id14)" points="372.81,999.1 257.51,1166.16 261.82,1194.03 419.71,1194.03 "/>
   <polygon class="fil5" style="mask:url(#id16)" points="495.57,999.1 610.87,1166.16 606.57,1194.03 448.67,1194.03 "/>
  </g>
 </g>
</svg>
