<?xml version="1.0" encoding="UTF-8"?>
<!DOCTYPE svg PUBLIC "-//W3C//DTD SVG 1.1//EN" "http://www.w3.org/Graphics/SVG/1.1/DTD/svg11.dtd">
<!-- Creator: CorelDRAW -->
<svg xmlns="http://www.w3.org/2000/svg" xml:space="preserve" width="5500px" height="4000px" version="1.1" style="shape-rendering:geometricPrecision; text-rendering:geometricPrecision; image-rendering:optimizeQuality; fill-rule:evenodd; clip-rule:evenodd"
viewBox="0 0 5578.28 4056.93"
 xmlns:xlink="http://www.w3.org/1999/xlink"
 xmlns:xodm="http://www.corel.com/coreldraw/odm/2003">
 <defs>
  <style type="text/css">
   <![CDATA[
    .fil14 {fill:#1959D4}
    .fil1 {fill:#1E439E}
    .fil8 {fill:#233567}
    .fil0 {fill:#3766D0}
    .fil7 {fill:#588EF0}
    .fil4 {fill:#8C91AE}
    .fil6 {fill:#ADCCF8}
    .fil5 {fill:#B6B9CC}
    .fil10 {fill:#D43C00}
    .fil3 {fill:#D4D6E2}
    .fil2 {fill:#FEFEFE}
    .fil13 {fill:#FF6600}
    .fil12 {fill:#1959D4;fill-rule:nonzero}
    .fil9 {fill:#233567;fill-rule:nonzero}
    .fil11 {fill:#588EF0;fill-rule:nonzero}
   ]]>
  </style>
 </defs>
 <g id="Layer_x0020_1">
  <metadata id="CorelCorpID_0Corel-Layer"/>
  <g id="_2164993794704">
   <polygon class="fil0" points="0,0 5578.28,0 5578.28,4056.94 0,4056.94 "/>
   <path class="fil1" d="M3083.07 2450.36l-1680.18 546.26c-15.59,5.07 -24.09,20.65 -24.06,37.05 0.04,16.37 9.15,30.42 24.16,36.96l1732.57 753.98c88.45,38.49 178.75,39.49 267.52,1.79l1036.58 -440.34c20.8,-8.82 33.49,-28.33 33.09,-50.96 -0.39,-22.58 -14.04,-41.02 -34.91,-49.7l-147.98 -61.51 70.4 -27.94c21.12,-8.4 34.52,-27.27 35.52,-49.96 0.96,-22.69 -10.79,-42.63 -31.13,-52.82l-1281.62 -642.84 0.04 0.03z"/>
   <path class="fil2" d="M2197.68 996.57l1693.23 716.92c0,0 145.73,75.76 145.73,265.2l0 1171.56c0,0 0,113.67 -119.5,171.96 -119.5,58.28 -652.82,285.59 -652.82,285.59l11.65 -1503.79 -1850.61 -804.33 664.47 -285.6c40.81,-20.41 75.76,-29.16 107.82,-17.48l0.03 -0.03z"/>
   <path class="fil3" d="M3888.19 1712.35l2.72 1.14c0,0 117.71,61.25 141.51,211.2l-721.47 290.07 -35.7 -17.62 0.72 -93.13 -116.93 -50.81 729.12 -340.85 0.03 0z"/>
   <path class="fil4" d="M3987.89 1807.41c26.84,41.49 48.75,97.84 48.75,171.28l0 1171.56c0,0 0,113.67 -119.5,171.96 -119.5,58.28 -652.82,285.59 -652.82,285.59l11.47 -1479.88 712.1 -320.51z"/>
   <path class="fil3" d="M1463.71 1283.2c0,0 1675.32,713 1751.08,750.88 75.76,37.88 145.73,136.97 136.97,288.53l0 1089.94c0,0 6.86,129.14 -57.78,182.6l-154.13 60 -1798.97 -775.92c0,0 -96.16,-55.36 -99.09,-311.83l0 -1081.22c0,-49.53 23.3,-119.5 183.61,-186.5l38.3 -16.48 0.01 0z"/>
   <path class="fil5" d="M3207.43 2030.58c3.07,1.43 5.71,2.68 7.36,3.5 75.76,37.88 145.73,136.97 136.97,288.53l0 1089.93c0,0 6.86,129.15 -57.78,182.61l-154.13 60 -243.11 -104.85 156.27 -1444.54 154.41 -75.18 0.01 0z"/>
   <path class="fil6" d="M3177.41 3640.54l-37.59 14.61 -1798.97 -775.92c-55.57,-28.7 -94.06,-80.98 -99.1,-311.83l0 -1081.22c0,-39.81 15.08,-92.77 104.07,-146.8l1755.26 744.23c0,0 154.45,72.86 145.73,238.96l0 1154.08c0,0 -2.43,131.15 -69.44,163.85l0.04 0.04z"/>
   <path class="fil7" d="M2585.95 3152.21c10.58,-9.61 18.8,-27.69 19.73,-60.25l0 -1017.11c0,0 2.43,-41.2 -18.52,-79.04l-92.44 66.21 0 855.27 91.23 234.92 0 0z"/>
   <path class="fil7" d="M1346.71 1538.64l0 1011.28c0,0 -4.65,36.13 11.83,71.51l179.32 -67.15 17.76 -50.31 -1.97 -757.6 -173.89 -266.73c-17.51,6.29 -31.94,22.66 -33.05,59l0 0z"/>
   <path class="fil8" d="M1585.67 1617.33c-81.58,-17.48 -116.57,29.12 -128.22,90.34 -35.23,184.97 -43.7,635.38 14.58,810.2 20.41,61.21 93.27,110.74 139.87,145.73 177.71,133.29 630.74,321.47 845.15,340.99 64.11,5.82 110.74,-52.46 113.67,-134.05 2.93,-81.58 23.3,-547.9 5.83,-681.94 -17.48,-134.05 -52.6,-171.64 -142.8,-218.56 -113.64,-59.14 -716.93,-338.06 -848.08,-352.64l0 -0.07z"/>
   <path class="fil9" d="M1356.57 1538.64l0 1011.28 -0.07 1.15c-0.04,0.25 -10.72,83.12 61.11,115.14l0 -0.04 1119.52 481.04c0.15,0.07 56.14,28.09 58.72,-55.25l-0.04 0 0 -1017.11 0.04 -0.46c0,-0.25 5.39,-91.99 -72.33,-121.47l-1081.58 -457.7 -0.14 -0.04c-0.25,-0.1 -82.62,-37.52 -85.26,43.46l0.03 0 0 0zm-19.72 1010.78l0 -1010.78 0.03 -0.29c3.36,-110.99 112.57,-61.35 112.89,-61.21l0 0.03 1080.72 457.35c87.98,33.38 85.37,132.86 85.05,140.33l0.03 0 0 1017.11 -0.03 0.29c-3.29,111.71 -82.73,74.76 -86.84,72.79l-1118.85 -480.75 -0.07 -0.07c-81.37,-36.17 -73.86,-126.04 -72.93,-134.76l0 -0.04z"/>
   <path class="fil6" d="M2684.76 1274.95c-151.23,5.29 -281.24,68.97 -302.47,172.46 -21.23,103.45 167.14,164.49 318.37,156.52 151.23,-7.97 273.27,-53.07 265.3,-124.68 -7.97,-71.65 -130,-209.59 -281.24,-204.3l0.04 0z"/>
   <path class="fil7" d="M2684.76 1274.95c-76.55,2.68 -147.63,20.33 -201.94,50.49 4.03,-1.61 275.59,-107.71 336.7,263.09 90.94,-20.16 152.2,-57.89 146.48,-109.32 -7.97,-71.65 -130.01,-209.59 -281.24,-204.3l0 0.04z"/>
   <path class="fil6" d="M3348.01 654.11l-533.28 708.39c0,0 -5.33,58.35 82.23,66.32l480.21 -745.51c0,0 61.04,7.97 71.65,-37.13 10.62,-45.1 -15.9,-74.3 -53.07,-79.59 -37.12,-5.28 -82.26,34.49 -47.74,87.56l0 -0.04z"/>
   <path class="fil7" d="M2859.68 1420.85c10.05,3.79 22.3,6.62 37.31,7.97l480.22 -745.51c0,0 61.03,7.97 71.65,-37.13 10.61,-45.1 -15.9,-74.3 -53.07,-79.59 -16.4,-2.35 -34.34,4.11 -46.31,16.62 37.38,-15.19 75.08,11.9 72.86,52.35 -2.64,47.75 -53.07,39.81 -53.07,39.81l-509.55 745.48 -0.04 0z"/>
   <path class="fil6" d="M2579.09 1288.99l-438.23 -961.18c0,0 31.84,-29.2 7.97,-76.94 -23.87,-47.74 -106.13,-42.45 -114.07,21.23 -7.97,63.68 63.68,71.65 63.68,71.65l384.31 981.76 96.37 -36.48 -0.03 -0.04z"/>
   <path class="fil7" d="M2579.09 1288.99l-438.23 -961.18c0,0 31.84,-29.2 7.97,-76.94 -15.97,-31.95 -58.03,-40.13 -86.52,-23.05 107.14,0.86 60,99.99 60,99.99l418.75 972.15 4.11 1.9 33.95 -12.87 -0.03 0z"/>
   <path class="fil8" d="M4036.64 1978.69c0,0 84.51,17.47 93.27,186.5 8.75,169.03 2.93,673.23 2.93,673.23 0,0 0,76.47 -96.17,146.05l0 -1005.78 -0.03 0z"/>
   <path class="fil7" d="M2732.39 2414.73c-38.02,-14.61 -59.67,15.33 -59.67,62.11 0,46.78 5.86,690.13 5.86,716.43 0,26.3 14.61,43.85 67.25,64.32 52.64,20.48 353.78,143.27 353.78,143.27 0,0 46.78,17.54 46.78,-32.16 0,-49.71 0,-719.36 0,-719.36 0,0 8.76,-49.71 -67.25,-84.8 -107.53,-49.64 -237.57,-107.82 -346.75,-149.8l0 -0.01z"/>
   <path class="fil10" d="M1598.25 2990.26c0,0 -44.63,81.33 -24.23,113.39 20.41,32.05 180.04,-46.17 180.04,-46.17l-155.81 -67.22 0 0z"/>
   <path class="fil10" d="M2855.36 3532.51c0,0 65.07,139.4 111.71,148.12 46.63,8.76 36.34,-84.26 36.34,-84.26l-148.05 -63.86z"/>
   <path class="fil2" d="M2735.11 2030.47c-37.88,-14.58 -59.46,15.26 -59.46,61.89 0,46.64 2.93,387.59 2.93,413.82 0,26.23 14.58,43.71 67.04,64.11 52.46,20.41 352.64,142.8 352.64,142.8 0,0 46.63,17.48 46.63,-32.05 0,-49.53 2.89,-416.75 2.89,-416.75 0,0 8.76,-49.53 -67.04,-84.52 -107.17,-49.46 -236.82,-107.49 -345.6,-149.3l-0.03 0z"/>
   <path class="fil11" d="M2733.32 2035.19c-5.93,-2.29 -11.43,-3.36 -16.4,-3.36 -7.08,0 -13.12,2.21 -18.12,6.29 -5.18,4.21 -9.33,10.47 -12.36,18.29 -3.76,9.79 -5.72,22.05 -5.72,35.95 0,29.27 0.93,150.59 1.75,254.62 0.61,80.33 1.18,150.59 1.18,159.24 0,11.75 3.25,21.55 12.36,30.66 9.72,9.72 25.91,18.83 51.43,28.73 52.85,20.55 350.24,141.8 352.67,142.8 2.33,0.82 39.71,13.62 39.71,-27.34 0,-47.06 2.93,-415.71 2.93,-416.78l0.07 -0.75c0.03,-0.15 8.11,-45.78 -64.15,-79.12 -53.67,-24.77 -112.85,-51.64 -172.1,-77.48 -59.47,-25.94 -119.04,-50.88 -173.21,-71.72l-0.04 -0.03zm-16.4 -13.51c6.15,0 12.83,1.32 20.01,4.07 54.64,21.01 114.28,45.99 173.64,71.87 59.57,25.98 118.79,52.85 172.28,77.54 75.48,34.84 70.62,84.7 69.97,89.52 -0.1,12.79 -2.89,365.18 -2.89,416.32 0,56.86 -53.28,36.88 -53.46,36.81l-0.14 -0.07c-0.86,-0.36 -300.65,-122.61 -352.57,-142.77 -26.95,-10.47 -44.24,-20.29 -54.96,-31.02 -11.3,-11.29 -15.33,-23.37 -15.33,-37.84 0,-13.83 -0.54,-81.66 -1.15,-159.2 -0.82,-106.42 -1.78,-230.61 -1.78,-254.66 0,-15.04 2.21,-28.51 6.43,-39.56 3.64,-9.47 8.82,-17.15 15.4,-22.55 6.79,-5.53 15.01,-8.57 24.48,-8.57l0.07 0.11z"/>
   <path class="fil12" d="M1467.57 1274.12c4.82,2.04 1675.32,713 1751.61,751.17 42.78,21.4 83.73,61.32 110.79,118.28 22.72,47.89 35.7,107.85 31.66,179.04l0 1089.93 -0.04 0c0.39,8.58 4.86,135.41 -61.32,190.19l-12.58 -15.19c60.82,-50.31 54.25,-174.17 54.21,-174.53l-0.04 -0.46 0 -1089.94 0.04 -0.54c3.93,-67.86 -8.29,-124.82 -29.8,-170.06 -25.05,-52.75 -62.61,-89.56 -101.74,-109.1 -75.23,-37.63 -1745.72,-748.56 -1750.55,-750.59l7.72 -18.12 0.04 -0.08z"/>
   <path class="fil10" d="M2749.51 2120.88c31.06,-23.48 79.87,-6.9 109.07,37.02 29.16,43.92 27.62,98.52 -3.43,122 -31.06,23.48 -79.87,6.9 -109.07,-37.02 -29.16,-43.92 -27.62,-98.52 3.43,-122z"/>
   <path class="fil13" d="M2730.64 2139.21c29.31,-22.12 75.37,-6.5 102.89,34.92 27.51,41.41 26.05,92.94 -3.22,115.06 -29.3,22.13 -75.37,6.51 -102.88,-34.91 -27.52,-41.42 -26.05,-92.95 3.21,-115.07z"/>
   <path class="fil10" d="M2968.11 2219.94c31.05,-23.48 79.87,-6.9 109.06,37.02 29.16,43.92 27.62,98.53 -3.43,122 -31.05,23.48 -79.87,6.9 -109.07,-37.02 -29.16,-43.92 -27.62,-98.52 3.44,-122z"/>
   <path class="fil13" d="M2949.24 2238.31c29.3,-22.12 75.36,-6.51 102.88,34.91 27.52,41.42 26.09,92.95 -3.22,115.07 -29.3,22.12 -75.36,6.5 -102.88,-34.91 -27.52,-41.42 -26.05,-92.95 3.22,-115.07z"/>
   <path class="fil14" d="M2968.11 2467.66c31.05,-23.48 79.87,-6.9 109.06,37.02 29.16,43.92 27.62,98.52 -3.43,122 -31.05,23.48 -79.87,6.9 -109.07,-37.02 -29.16,-43.92 -27.62,-98.52 3.44,-122z"/>
   <path class="fil7" d="M2949.24 2486.03c29.3,-22.12 75.36,-6.51 102.88,34.91 27.52,41.42 26.09,92.95 -3.22,115.07 -29.3,22.12 -75.36,6.5 -102.88,-34.91 -27.52,-41.42 -26.05,-92.95 3.22,-115.07z"/>
   <path class="fil14" d="M2743.69 2374.42c31.05,-23.47 79.87,-6.89 109.06,37.03 29.16,43.91 27.62,98.52 -3.43,122 -31.05,23.48 -79.87,6.89 -109.07,-37.02 -29.16,-43.92 -27.62,-98.53 3.44,-122.01z"/>
   <path class="fil7" d="M2724.82 2392.76c29.3,-22.12 75.36,-6.51 102.88,34.91 27.52,41.42 26.05,92.95 -3.22,115.07 -29.3,22.12 -75.36,6.5 -102.88,-34.91 -27.52,-41.42 -26.05,-92.95 3.22,-115.07z"/>
   <polygon class="fil9" points="2697.98,2612.24 3126.38,2790.03 3122.52,2799.39 2694.08,2621.61 "/>
   <polygon class="fil9" points="2697.98,2652.84 3126.38,2830.63 3122.52,2839.99 2694.08,2662.2 "/>
   <polygon class="fil9" points="2697.98,2693.44 3126.38,2871.22 3122.52,2880.55 2694.08,2702.8 "/>
   <polygon class="fil9" points="2697.98,2734.03 3126.38,2911.82 3122.52,2921.14 2694.08,2743.39 "/>
   <polygon class="fil9" points="2697.98,2774.63 3126.38,2952.41 3122.52,2961.74 2694.08,2783.99 "/>
   <polygon class="fil9" points="2697.98,2815.22 3126.38,2993.01 3122.52,3002.34 2694.08,2824.55 "/>
   <polygon class="fil9" points="2697.98,2855.82 3126.38,3033.57 3122.52,3042.93 2694.08,2865.15 "/>
   <polygon class="fil9" points="2697.98,2896.41 3126.38,3074.16 3122.52,3083.53 2694.08,2905.74 "/>
   <polygon class="fil9" points="2697.98,2937.01 3126.38,3114.76 3122.52,3124.12 2694.08,2946.34 "/>
   <polygon class="fil9" points="2697.98,2977.57 3126.38,3155.36 3122.52,3164.72 2694.08,2986.93 "/>
   <polygon class="fil9" points="2697.98,3018.17 3126.38,3195.95 3122.52,3205.31 2694.08,3027.53 "/>
   <polygon class="fil9" points="2697.98,3058.76 3126.38,3236.55 3122.52,3245.91 2694.08,3068.13 "/>
   <polygon class="fil9" points="2697.98,3099.36 3126.38,3277.14 3122.52,3286.5 2694.08,3108.72 "/>
   <polygon class="fil9" points="2697.98,3139.95 3126.38,3317.74 3122.52,3327.06 2694.08,3149.32 "/>
   <polygon class="fil9" points="2697.98,3180.55 3126.38,3358.33 3122.52,3367.66 2694.08,3189.91 "/>
  </g>
 </g>
</svg>
