<?xml version="1.0" encoding="utf-8"?>
<!-- Generator: Adobe Illustrator 16.0.0, SVG Export Plug-In . SVG Version: 6.00 Build 0)  -->
<!DOCTYPE svg PUBLIC "-//W3C//DTD SVG 1.1//EN" "http://www.w3.org/Graphics/SVG/1.1/DTD/svg11.dtd">
<svg version="1.1" xmlns="http://www.w3.org/2000/svg" xmlns:xlink="http://www.w3.org/1999/xlink" x="0px" y="0px" width="5600px"
	 height="4000px" viewBox="0 0 5600 4000" style="enable-background:new 0 0 5600 4000;" xml:space="preserve">
<g id="Layer_1">
	<rect x="0" y="-0.001" style="fill:#F9D0C5;" width="5600.001" height="4000"/>
</g>
<g id="Layer_2">
	<path style="fill:#335436;" d="M400,1363.635c-220.914,0-400-179.086-400-400h400V1363.635z"/>
	<path style="fill:#335436;" d="M800,563.635c-220.914,0-400,179.086-400,400h400L800,563.635z"/>
	<path style="fill:#335436;" d="M1200,1363.635c-220.914,0-400-179.086-400-400h400V1363.635z"/>
	<path style="fill:#335436;" d="M1600.001,563.635c-220.914,0-400.001,179.086-400.001,400h400.001V563.635z"/>
	<path style="fill:#335436;" d="M2000,1363.635c-220.913,0-399.999-179.086-399.999-400H2000V1363.635z"/>
	<path style="fill:#335436;" d="M2400,563.635c-220.914,0-400,179.086-400,400h400L2400,563.635z"/>
	<path style="fill:#335436;" d="M2800,1363.635c-220.914,0-400-179.086-400-400h400V1363.635z"/>
	<path style="fill:#335436;" d="M3200,563.635c-220.914,0-400,179.086-400,400h400V563.635z"/>
	<path style="fill:#335436;" d="M3600.001,1363.635c-220.913,0-399.999-179.086-399.999-400h399.999V1363.635z"/>
	<path style="fill:#335436;" d="M4000.001,563.635c-220.914,0-400,179.086-400,400H4000L4000.001,563.635z"/>
	<path style="fill:#335436;" d="M4400,1363.635c-220.912,0-399.999-179.086-399.999-400H4400V1363.635z"/>
	<path style="fill:#335436;" d="M4800,563.635c-220.912,0-400,179.086-400,400h400V563.635z"/>
	<path style="fill:#335436;" d="M5200,1363.635c-220.915,0-399.999-179.086-399.999-400H5200V1363.635z"/>
	<path style="fill:#335436;" d="M5600,563.635c-220.914,0-400,179.086-400,400h400V563.635z"/>
	<path style="fill:#335436;" d="M400,399.999c-220.914,0-400-179.086-400-400h400V399.999z"/>
	<path style="fill:#335436;" d="M1200,399.999c-220.914,0-400-179.086-400-400h400V399.999z"/>
	<path style="fill:#335436;" d="M2000,399.999c-220.913,0-399.999-179.086-399.999-400H2000V399.999z"/>
	<path style="fill:#335436;" d="M2800,399.999c-220.914,0-400-179.086-400-400h400V399.999z"/>
	<path style="fill:#335436;" d="M3600.001,399.999c-220.913,0-399.999-179.086-399.999-400h399.999V399.999z"/>
	<path style="fill:#335436;" d="M4400,399.999c-220.912,0-399.999-179.086-399.999-400H4400V399.999z"/>
	<path style="fill:#335436;" d="M5200,399.999c-220.915,0-399.999-179.086-399.999-400H5200V399.999z"/>
	<path style="fill:#335436;" d="M400,2399.999c-220.914,0-400-179.087-400-400h400V2399.999z"/>
	<path style="fill:#335436;" d="M800,1599.999c-220.914,0-400,179.086-400,400h400L800,1599.999z"/>
	<path style="fill:#335436;" d="M1200,2399.999c-220.914,0-400-179.087-400-400h400V2399.999z"/>
	<path style="fill:#335436;" d="M1600.001,1599.999c-220.914,0-400.001,179.086-400.001,400h400.001V1599.999z"/>
	<path style="fill:#335436;" d="M2000,2399.999c-220.913,0-399.999-179.087-399.999-400H2000V2399.999z"/>
	<path style="fill:#335436;" d="M2400,1599.999c-220.914,0-400,179.086-400,400h400L2400,1599.999z"/>
	<path style="fill:#335436;" d="M2800,2399.999c-220.914,0-400-179.087-400-400h400V2399.999z"/>
	<path style="fill:#335436;" d="M3200,1599.999c-220.914,0-400,179.086-400,400h400V1599.999z"/>
	<path style="fill:#335436;" d="M3600.001,2399.999c-220.913,0-399.999-179.087-399.999-400h399.999V2399.999z"/>
	<path style="fill:#335436;" d="M4000.001,1599.999c-220.914,0-400,179.086-400,400H4000L4000.001,1599.999z"/>
	<path style="fill:#335436;" d="M4400,2399.999c-220.912,0-399.999-179.087-399.999-400H4400V2399.999z"/>
	<path style="fill:#335436;" d="M4800,1599.999c-220.912,0-400,179.086-400,400h400V1599.999z"/>
	<path style="fill:#335436;" d="M5200,2399.999c-220.915,0-399.999-179.087-399.999-400H5200V2399.999z"/>
	<path style="fill:#335436;" d="M5600,1599.999c-220.914,0-400,179.086-400,400h400V1599.999z"/>
	<path style="fill:#335436;" d="M400,3429.273c-220.914,0-400-179.087-400-400.001h400V3429.273z"/>
	<path style="fill:#335436;" d="M800,2629.272c-220.914,0-400,179.086-400,400h400L800,2629.272z"/>
	<path style="fill:#335436;" d="M1200,3429.273c-220.914,0-400-179.087-400-400.001h400V3429.273z"/>
	<path style="fill:#335436;" d="M1600.001,2629.272c-220.914,0-400.001,179.086-400.001,400h400.001V2629.272z"/>
	<path style="fill:#335436;" d="M2000,3429.273c-220.913,0-399.999-179.087-399.999-400.001H2000V3429.273z"/>
	<path style="fill:#335436;" d="M2400,2629.272c-220.914,0-400,179.086-400,400h400L2400,2629.272z"/>
	<path style="fill:#335436;" d="M2800,3429.273c-220.914,0-400-179.087-400-400.001h400V3429.273z"/>
	<path style="fill:#335436;" d="M3200,2629.272c-220.914,0-400,179.086-400,400h400V2629.272z"/>
	<path style="fill:#335436;" d="M3600.001,3429.273c-220.913,0-399.999-179.087-399.999-400.001h399.999V3429.273z"/>
	<path style="fill:#335436;" d="M4000.001,2629.272c-220.914,0-400,179.086-400,400H4000L4000.001,2629.272z"/>
	<path style="fill:#335436;" d="M4400,3429.273c-220.912,0-399.999-179.087-399.999-400.001H4400V3429.273z"/>
	<path style="fill:#335436;" d="M4800,2629.272c-220.912,0-400,179.086-400,400h400V2629.272z"/>
	<path style="fill:#335436;" d="M5200,3429.273c-220.915,0-399.999-179.087-399.999-400.001H5200V3429.273z"/>
	<path style="fill:#335436;" d="M5600,2629.272c-220.914,0-400,179.086-400,400h400V2629.272z"/>
	<path style="fill:#335436;" d="M800.001,3599.999c-220.914,0-400.001,179.086-400.001,400h400L800.001,3599.999z"/>
	<path style="fill:#335436;" d="M1600.002,3599.999c-220.914,0-400.002,179.086-400.002,400h400.002V3599.999z"/>
	<path style="fill:#335436;" d="M2400.001,3599.999c-220.913,0-400.001,179.086-400.001,400h400L2400.001,3599.999z"/>
	<path style="fill:#335436;" d="M3200,3599.999c-220.914,0-399.999,179.086-399.999,400H3200V3599.999z"/>
	<path style="fill:#335436;" d="M4000.002,3599.999c-220.914,0-400,179.086-400,400H4000L4000.002,3599.999z"/>
	<g>
		<path style="fill:#D48ABA;" d="M800,963.635c0,220.914-179.086,400-400,400v-400H800z"/>
		<path style="fill:#D48ABA;" d="M400,963.635c0-220.914-179.086-400-400-400v400H400z"/>
		<path style="fill:#D48ABA;" d="M1199.999,963.635c0-220.914-179.085-400-399.999-400l0,400H1199.999z"/>
		<path style="fill:#D48ABA;" d="M5600,963.635c0,220.914-179.087,400-400,400v-400H5600z"/>
		<path style="fill:#D48ABA;" d="M1600.001,963.635c0,220.914-179.087,400-400.001,400v-400H1600.001z"/>
		<path style="fill:#D48ABA;" d="M2000,963.635c0-220.914-179.085-400-399.999-400v400H2000z"/>
		<path style="fill:#D48ABA;" d="M2400,963.635c0,220.914-179.086,400-400,400v-400H2400z"/>
		<path style="fill:#D48ABA;" d="M2800,963.635c0-220.914-179.085-400-400-400l0,400H2800z"/>
		<path style="fill:#D48ABA;" d="M3200,963.635c0,220.914-179.086,400-400,400v-400H3200z"/>
		<path style="fill:#D48ABA;" d="M3600.001,963.635c0-220.914-179.086-400-400.001-400v400H3600.001z"/>
		<path style="fill:#D48ABA;" d="M4000,963.635c0,220.914-179.086,400-399.999,400v-400H4000z"/>
		<path style="fill:#D48ABA;" d="M4400,963.635c0-220.914-179.084-400-399.999-400l-0.001,400H4400z"/>
		<path style="fill:#D48ABA;" d="M4800,963.635c0,220.914-179.084,400-400,400v-400H4800z"/>
		<path style="fill:#D48ABA;" d="M5200,963.635c0-220.914-179.086-400-400-400v400H5200z"/>
		<path style="fill:#D48ABA;" d="M800-0.001c0,220.914-179.086,400-400,400v-400H800z"/>
		<path style="fill:#D48ABA;" d="M5600-0.001c0,220.914-179.087,400-400,400v-400H5600z"/>
		<path style="fill:#D48ABA;" d="M1600.001-0.001c0,220.914-179.087,400-400.001,400v-400H1600.001z"/>
		<path style="fill:#D48ABA;" d="M2400-0.001c0,220.914-179.086,400-400,400v-400H2400z"/>
		<path style="fill:#D48ABA;" d="M3200-0.001c0,220.914-179.086,400-400,400v-400H3200z"/>
		<path style="fill:#D48ABA;" d="M4000-0.001c0,220.914-179.086,400-399.999,400v-400H4000z"/>
		<path style="fill:#D48ABA;" d="M4800-0.001c0,220.914-179.084,400-400,400v-400H4800z"/>
		<path style="fill:#D48ABA;" d="M800,1999.999c0,220.913-179.086,400-400,400v-400H800z"/>
		<path style="fill:#D48ABA;" d="M400,1999.999c0-220.914-179.086-400-400-400v400H400z"/>
		<path style="fill:#D48ABA;" d="M1199.999,1999.999c0-220.914-179.085-400-399.999-400l0,400H1199.999z"/>
		<path style="fill:#D48ABA;" d="M5600,1999.999c0,220.913-179.087,400-400,400v-400H5600z"/>
		<path style="fill:#D48ABA;" d="M1600.001,1999.999c0,220.913-179.087,400-400.001,400v-400H1600.001z"/>
		<path style="fill:#D48ABA;" d="M2000,1999.999c0-220.914-179.085-400-399.999-400v400H2000z"/>
		<path style="fill:#D48ABA;" d="M2400,1999.999c0,220.913-179.086,400-400,400v-400H2400z"/>
		<path style="fill:#D48ABA;" d="M2800,1999.999c0-220.914-179.085-400-400-400l0,400H2800z"/>
		<path style="fill:#D48ABA;" d="M3200,1999.999c0,220.913-179.086,400-400,400v-400H3200z"/>
		<path style="fill:#D48ABA;" d="M3600.001,1999.999c0-220.914-179.086-400-400.001-400v400H3600.001z"/>
		<path style="fill:#D48ABA;" d="M4000,1999.999c0,220.913-179.086,400-399.999,400v-400H4000z"/>
		<path style="fill:#D48ABA;" d="M4400,1999.999c0-220.914-179.084-400-399.999-400l-0.001,400H4400z"/>
		<path style="fill:#D48ABA;" d="M4800,1999.999c0,220.913-179.084,400-400,400v-400H4800z"/>
		<path style="fill:#D48ABA;" d="M5200,1999.999c0-220.914-179.086-400-400-400v400H5200z"/>
		<path style="fill:#D48ABA;" d="M800,3029.272c0,220.914-179.086,400.001-400,400.001v-400.001H800z"/>
		<path style="fill:#D48ABA;" d="M400,3029.272c0-220.914-179.086-400-400-400v400H400z"/>
		<path style="fill:#D48ABA;" d="M1199.999,3029.272c0-220.914-179.085-400-399.999-400l0,400H1199.999z"/>
		<path style="fill:#D48ABA;" d="M5600,3029.272c0,220.914-179.087,400.001-400,400.001v-400.001H5600z"/>
		<path style="fill:#D48ABA;" d="M1600.001,3029.272c0,220.914-179.087,400.001-400.001,400.001v-400.001H1600.001z"/>
		<path style="fill:#D48ABA;" d="M2000,3029.272c0-220.914-179.085-400-399.999-400v400H2000z"/>
		<path style="fill:#D48ABA;" d="M2400,3029.272c0,220.914-179.086,400.001-400,400.001v-400.001H2400z"/>
		<path style="fill:#D48ABA;" d="M2800,3029.272c0-220.914-179.085-400-400-400l0,400H2800z"/>
		<path style="fill:#D48ABA;" d="M3200,3029.272c0,220.914-179.086,400.001-400,400.001v-400.001H3200z"/>
		<path style="fill:#D48ABA;" d="M3600.001,3029.272c0-220.914-179.086-400-400.001-400v400H3600.001z"/>
		<path style="fill:#D48ABA;" d="M4000,3029.272c0,220.914-179.086,400.001-399.999,400.001v-400.001H4000z"/>
		<path style="fill:#D48ABA;" d="M4400,3029.272c0-220.914-179.084-400-399.999-400l-0.001,400H4400z"/>
		<path style="fill:#D48ABA;" d="M4800,3029.272c0,220.914-179.084,400.001-400,400.001v-400.001H4800z"/>
		<path style="fill:#D48ABA;" d="M5200,3029.272c0-220.914-179.086-400-400-400v400H5200z"/>
		<path style="fill:#D48ABA;" d="M400,3999.999c0-220.914-179.086-400-400-400v400H400z"/>
		<path style="fill:#D48ABA;" d="M1200,3999.999c0-220.914-179.086-400-399.999-400l-0.001,400H1200z"/>
		<path style="fill:#D48ABA;" d="M2000,3999.999c0-220.914-179.084-400-399.998-400v400H2000z"/>
		<path style="fill:#D48ABA;" d="M2800.001,3999.999c0-220.914-179.086-400-400-400l-0.001,400H2800.001z"/>
		<path style="fill:#D48ABA;" d="M3600.002,3999.999c0-220.914-179.086-400-400.002-400v400H3600.002z"/>
		<path style="fill:#D48ABA;" d="M4400,3999.999c0-220.914-179.084-400-399.998-400l-0.002,400H4400z"/>
		<path style="fill:#D48ABA;" d="M5200,3999.999c0-220.914-179.086-400-400-400v400H5200z"/>
	</g>
	<path style="fill:#335436;" d="M4800,3599.999c-220.912,0-400,179.086-400,400h400V3599.999z"/>
	<path style="fill:#335436;" d="M5600,3599.999c-220.914,0-400,179.086-400,400h400V3599.999z"/>
</g>
<g id="Layer_3" style="display:none;">
</g>
</svg>
