<?xml version="1.0" encoding="utf-8"?>
<!-- Generator: Adobe Illustrator 25.0.1, SVG Export Plug-In . SVG Version: 6.00 Build 0)  -->
<svg version="1.1" id="Layer_1" xmlns:serif="http://www.serif.com/"
	 xmlns="http://www.w3.org/2000/svg" xmlns:xlink="http://www.w3.org/1999/xlink" x="0px" y="0px" viewBox="0 0 1092.6 1092.8"
	 style="enable-background:new 0 0 1092.6 1092.8;" xml:space="preserve">
<style type="text/css">
	.st0{fill-rule:evenodd;clip-rule:evenodd;fill:#FF9E80;}
	.st1{fill-rule:evenodd;clip-rule:evenodd;fill:#00897B;}
	.st2{fill-rule:evenodd;clip-rule:evenodd;fill:#721359;}
	.st3{fill-rule:evenodd;clip-rule:evenodd;fill:#2962FF;}
	.st4{fill-rule:evenodd;clip-rule:evenodd;fill:#FF3AFF;}
	.st5{fill-rule:evenodd;clip-rule:evenodd;fill:#F4511E;}
	.st6{fill-rule:evenodd;clip-rule:evenodd;fill:#FFD740;}
	.st7{fill-rule:evenodd;clip-rule:evenodd;fill:#18FFFF;}
	.st8{fill-rule:evenodd;clip-rule:evenodd;fill:#6200EA;}
	.st9{fill-rule:evenodd;clip-rule:evenodd;fill:#D81B60;}
	.st10{fill-rule:evenodd;clip-rule:evenodd;fill:#EA80FC;}
	.st11{fill-rule:evenodd;clip-rule:evenodd;fill:#304FFE;}
	.st12{fill-rule:evenodd;clip-rule:evenodd;fill:#FFD600;}
	.st13{fill-rule:evenodd;clip-rule:evenodd;fill:#F57F17;}
	.st14{fill-rule:evenodd;clip-rule:evenodd;fill:#FFEB3B;}
	.st15{fill-rule:evenodd;clip-rule:evenodd;fill:#FFF59D;}
	.st16{fill-rule:evenodd;clip-rule:evenodd;fill:#84FFFF;}
	.st17{fill-rule:evenodd;clip-rule:evenodd;fill:#01579B;}
	.st18{fill-rule:evenodd;clip-rule:evenodd;fill:#E1F5FE;}
	.st19{fill-rule:evenodd;clip-rule:evenodd;fill:#B3E5FC;}
	.st20{fill-rule:evenodd;clip-rule:evenodd;fill:#0288D1;}
	.st21{fill-rule:evenodd;clip-rule:evenodd;fill:#4FC3F7;}
	.st22{fill-rule:evenodd;clip-rule:evenodd;fill:#FFD96F;}
	.st23{fill-rule:evenodd;clip-rule:evenodd;fill:#FFCC3F;}
	.st24{fill-rule:evenodd;clip-rule:evenodd;fill:#FFE8A8;}
</style>
<path class="st0" d="M1092.3,744.5L0,489.6v603.1l1092.6,0.1L1092.3,744.5z"/>
<path class="st1" d="M980.5,786.9L683.7,993.4L31.9,865.8l280-204.6L980.5,786.9z"/>
<path class="st2" d="M982.7,790.2L685.9,996.7c-0.9,0.6-2,0.9-3.1,0.6L31.1,869.7c-1.6-0.3-2.8-1.5-3.1-3.1
	c-0.3-1.6,0.3-3.2,1.5-4.1l280-204.6c0.9-0.7,2-0.9,3.1-0.7L981.2,783c1.6,0.3,2.8,1.5,3.2,3.1C984.7,787.7,984,789.3,982.7,790.2z
	 M970.3,789.1L312.9,665.4L41.7,863.6l641.1,125.5L970.3,789.1z"/>
<path class="st3" d="M1092.3,744.5L1092.6,0H1.9L0,489.6L1092.3,744.5z"/>
<path class="st4" d="M583.9,474.3h-89.8l0.5-84.1l89.2,0.3L583.9,474.3L583.9,474.3z"/>
<path class="st5" d="M494.5,408.4l-0.4,65.9h75.3v14.4h-92.8v-80.3L494.5,408.4z"/>
<path class="st6" d="M465,425.7l11.6-1.1v64.1h77.5v15.5H465V425.7z"/>
<path class="st7" d="M535.1,504.2H554v-15.5h15.3v-14.4h14.5l69.6,5.2v63.6l-119.2-8.7L535.1,504.2z"/>
<path class="st8" d="M546.2,390.4l-51.5-0.2l-91.6-5.3v-91.5l143.1,9.7V390.4z"/>
<path class="st9" d="M494.7,390.2l-0.1,18.2h-17.9v16.2l-11.6,1.1v43.7l-78.2-9V384L494.7,390.2z"/>
<path class="st10" d="M583.9,425.3v-34.7l-37.8-0.1v-51.1l99.1,4.8v85.6L583.9,425.3z"/>
<path class="st11" d="M363.3,225.9L689,253l-1.6,362.1l-325.1-49.8L363.3,225.9z M403.1,384.9l-16.3-0.9v76.5l78.2,9v34.8h70.1
	l-0.9,30.2l119.2,8.7v-63.6l-69.6-5.2v-49.1l61.3,4.5v-85.6l-99.1-4.8V303l-143.1-9.7v91.6H403.1z"/>
<path class="st12" d="M302.2,747.9l-19.3,20l-67.4-9.3l23.2-19L302.2,747.9z"/>
<path class="st12" d="M215.5,758.6l67.4,9.3l-19.2,19.9l-70.5-11L215.5,758.6z"/>
<path class="st12" d="M193.3,776.8l70.5,11l-21.2,22l-75.3-11.6L193.3,776.8z"/>
<path class="st12" d="M242.5,809.7l21.2-22l50.9,7.9L296.4,818L242.5,809.7z"/>
<path class="st12" d="M314.6,795.7l-50.9-7.9l19.2-19.9l48.8,6.7L314.6,795.7z"/>
<path class="st12" d="M348.4,753.9l-16.8,20.7l-48.8-6.7l19.3-20L348.4,753.9z"/>
<path class="st12" d="M314.6,795.7l17.1-21.1l36.3,5l-15.8,21.9L314.6,795.7z"/>
<path class="st12" d="M383.2,758.4l-15.3,21.2l-36.3-5l16.8-20.7L383.2,758.4z"/>
<path class="st12" d="M418.9,763.1L405,784.7l-37.1-5.1l15.3-21.2L418.9,763.1z"/>
<path class="st12" d="M352.1,801.5l15.8-21.9l37.1,5.1l-14.6,22.7L352.1,801.5z"/>
<path class="st12" d="M390.4,807.4l14.6-22.7l37.3,5.1l-13.9,23.5L390.4,807.4z"/>
<path class="st12" d="M455.4,767.9l-13,22l-37.3-5.1l13.9-21.6L455.4,767.9z"/>
<path class="st12" d="M490.7,772.5l-13.1,22.2l-35.2-4.9l13-22L490.7,772.5z"/>
<path class="st12" d="M428.5,813.3l13.9-23.5l35.2,4.9l-14.2,24.1L428.5,813.3z"/>
<path class="st12" d="M296.4,818l18.2-22.4L485,822.1l-16.8,22.3L296.4,818z"/>
<path class="st12" d="M485,822.1l-21.6-3.3l14.2-24.1l25.3,3.5L485,822.1z"/>
<path class="st12" d="M519.5,776.2l-16.5,22l-25.3-3.5l13.1-22.2L519.5,776.2z"/>
<path class="st12" d="M571.1,782.9l-17,22.3l-51.2-7l16.5-22L571.1,782.9z"/>
<path class="st12" d="M485,822.1l18-23.9l51.2,7l-18.8,24.7L485,822.1z"/>
<path class="st12" d="M468.2,844.4l16.8-22.3l50.3,7.8l-16.9,22.2L468.2,844.4z"/>
<path class="st12" d="M518.4,852.2l16.9-22.2l50.7,7.9l-25,20.9L518.4,852.2z"/>
<path class="st12" d="M585.9,837.8l-50.7-7.9l18.8-24.7l60.8,8.4L585.9,837.8z"/>
<path class="st12" d="M614.9,813.6l-60.8-8.4l17-22.3l69.7,9.1L614.9,813.6z"/>
<path class="st13" d="M441.1,901.5v-29.7l56.1,8.4L497,909L441.1,901.5z"/>
<path class="st14" d="M497,909l0.2-28.8l-56.1-8.4v29.7l-316.9-42.3v-50.7L564,874.7v43.2L497,909z"/>
<path class="st14" d="M563.9,917.9v-43.2l138.8-93.5v67L563.9,917.9z"/>
<path class="st15" d="M702.7,781.2l-138.8,93.5l-439.8-66.2l105.5-88.6L702.7,781.2z M560.9,858.7l79.9-66.7l-402.1-52.4l-71.5,58.5
	L560.9,858.7z"/>
<path class="st16" d="M289.4,679.5l51.2,6.5l-0.4,15.1l-50.8-6.8L289.4,679.5L289.4,679.5z"/>
<path class="st16" d="M696,681.5l-0.9,26l-53.3-8.6l0.1-8.2L568.2,680l0.5-12.3l73.2,13.1l0.9-7.2L696,681.5z"/>
<path class="st17" d="M920.7,656.8l-93,44.6v-29.3l49.5-26.5L920.7,656.8z"/>
<path class="st17" d="M759.3,708.7l39.8-21.3v37.2l-41.4,21.5L759.3,708.7z"/>
<path class="st18" d="M574.6,764.5l-84.9-11v-42.3l84.5,10.4L574.6,764.5z"/>
<path class="st18" d="M665.1,776.3L587,766.2l0.3-42.9l77.7,9.6L665.1,776.3z"/>
<path class="st19" d="M732.9,813.2l-30.2-2.7v-29.3l-37.7-4.9l-0.2-43.5l-175.2-21.5v42.3L267,724.7l-1.9-70.2L736,721.2
	L732.9,813.2z M289.4,679.5v14.8l50.8,6.8l0.4-15.1L289.4,679.5z"/>
<path class="st20" d="M732.9,813.2l3.1-92l23.3-12.5l-1.6,37.4l41.4-21.5v-37.2l28.5-15.3v29.3l93-44.6V723L732.9,813.2z"/>
<path class="st21" d="M801.9,547.4l119,29.1l-184,100.7l-472.2-68.3l54.7-31v14.7l408.5,63.9l64.3-34.9v-67.8L801.9,547.4z"/>
<path class="st19" d="M265.1,654.5l-0.4-45.6l472.2,68.3l-0.9,44L265.1,654.5z M696,681.5l-53.3-7.9l-0.9,7.2l-73.2-13.1l-0.5,12.3
	l73.7,10.7l-0.1,8.2l53.3,8.6L696,681.5z"/>
<path class="st20" d="M920.9,576.5v45.6L736,721.2l0.9-44L920.9,576.5z"/>
<path class="st22" d="M792.2,209.8l65.7,12.4L792.2,256V209.8z"/>
<path class="st23" d="M857.9,222.3v288.1l-65.7,43.4V256.1L857.9,222.3z"/>
<path class="st24" d="M452.1,613.4l-132.7-20.8c8.6-13.5,42.8-27.4,42.8-27.4l90.8,13.9L452.1,613.4z"/>
<path class="st24" d="M597.5,636.2l-145.4-22.7l0.9-34.2l146.8,22.5L597.5,636.2z"/>
<path class="st24" d="M727.9,656.5l-130.4-20.4l2.2-34.5l87.6,13.4l1.7-362c0,0,27.3-29.1,38.9-48.4V656.5z"/>
<path class="st24" d="M727.9,204.6C716.3,223.9,689,253,689,253l-325.7-27.1c-18.8-11.3-43.9-57.6-43.9-57.6L727.9,204.6z"/>
<path class="st24" d="M319.4,592.7V168.3c0,0,25.1,46.2,43.9,57.6l-1.1,339.4C362.2,565.3,327.9,579.2,319.4,592.7z"/>
<path class="st24" d="M319.4,168.3l76.1-34.1l396.7,37.4l-64.3,32.9L319.4,168.3z"/>
<path class="st24" d="M792.2,171.7v449.9l-64.3,34.9V204.6L792.2,171.7z"/>
<path class="st2" d="M693,253l-1.6,362.1c0,1.2-0.5,2.3-1.4,3c-0.9,0.8-2.1,1.1-3.2,0.9l-325.1-49.8c-2-0.3-3.4-2-3.4-4l1.1-339.4
	c0-1.1,0.5-2.2,1.3-2.9c0.8-0.8,1.9-1.1,3-1L689.3,249C691.4,249.2,693,250.9,693,253z M685,256.7l-317.7-26.4l-1,331.6l317.2,48.6
	L685,256.7z"/>
<path class="st2" d="M731.9,204.6v451.9c0,1.2-0.5,2.3-1.4,3s-2.1,1.1-3.2,0.9l-408.5-63.9c-1.9-0.3-3.4-2-3.4-3.9V168.3
	c0-1.1,0.5-2.2,1.3-2.9c0.8-0.8,1.9-1.1,3.1-1l408.5,36.2C730.3,200.8,731.9,202.5,731.9,204.6z M723.9,208.3l-400.5-35.6v416.5
	l400.5,62.6V208.3z"/>
<path class="st2" d="M315.9,170.3l7-3.8c0,0,8.9,16.4,20.1,32c7.2,10,15.2,19.7,22.4,24.1l-4.1,6.8c-6-3.6-12.6-10.4-18.8-18.4
	C328.4,193.2,315.9,170.3,315.9,170.3z"/>
<path class="st2" d="M691.9,255.7l-5.8-5.5c0,0,27-28.7,38.4-47.7l6.9,4.1C719.6,226.2,691.9,255.7,691.9,255.7z"/>
<path class="st2" d="M360.7,561.6l3,7.4c0,0-12.1,4.9-23.5,11.7c-7.2,4.3-14.3,9.2-17.4,14.2l-6.8-4.3c2.8-4.4,8.1-9,14.2-13.1
	C343.5,568.5,360.7,561.6,360.7,561.6z"/>
<path class="st2" d="M685.1,617.3l4.8-6.4c0,0,28.9,21.6,41.5,43.7l-7,4C712.5,637.7,685.1,617.3,685.1,617.3z"/>
<path class="st2" d="M595.8,601.4l8,0.5l-2.2,34.5l-8-0.5L595.8,601.4z"/>
<path class="st2" d="M449,579.1l8,0.2l-0.9,34.2l-8-0.2L449,579.1z"/>
<path class="st2" d="M321,172l-3.3-7.3l76.1-34.1c0.6-0.3,1.3-0.4,2-0.3l396.7,37.4c2,0.2,3.6,1.9,3.6,4v449.9
	c0,1.5-0.8,2.8-2.1,3.5L729.7,660l-3.8-7l62.2-33.8V175.3l-392-36.9L321,172z"/>
<path class="st2" d="M729.7,208.2l-3.7-7.1l64.3-32.9l3.6,7.1L729.7,208.2z"/>
<path class="st2" d="M791.5,213.8l1.5-7.9l65.7,12.4c1.9,0.4,3.3,2,3.3,3.9v288.1c0,1.3-0.7,2.6-1.8,3.3L794.5,557l-4.4-6.7
	l63.9-42.2V225.6L791.5,213.8z"/>
<path class="st2" d="M794,259.7l-3.7-7.1l65.7-33.9l3.7,7.1L794,259.7z"/>
<path class="st2" d="M800.9,551.3l1.9-7.8l119,29.2c1.6,0.4,2.8,1.7,3,3.4c0.2,1.6-0.6,3.2-2.1,4l-184,100.7
	c-0.8,0.4-1.6,0.6-2.5,0.4L264,612.9c-1.7-0.2-3-1.5-3.4-3.2c-0.3-1.7,0.5-3.4,2-4.2l55-31.2l3.9,7l-44.8,25.4L736,673.1L909.9,578
	L800.9,551.3z"/>
<path class="st2" d="M916.9,576.5h8v45.6c0,1.5-0.8,2.8-2.1,3.5l-184.9,99.1c-0.8,0.4-1.6,0.6-2.4,0.4l-470.9-66.7
	c-2-0.3-3.4-1.9-3.4-3.9l-0.4-45.6l8-0.1L269,651l466.2,66l181.6-97.3L916.9,576.5z"/>
<path class="st2" d="M916.7,663.1L829.3,705l-3.5-7.2l83.1-39.9l-32.9-8.4l2-7.8l43.5,11.2c0.4,0.1,0.8,0.3,1.1,0.5
	c1,0.7,1.7,1.8,1.9,3c0,0.1,0,0.3,0,0.4V723c0,1.5-0.9,2.9-2.3,3.6l-187.7,90.3c-1.3,0.6-2.8,0.5-3.9-0.3c-1.2-0.8-1.9-2.1-1.8-3.5
	l3.1-92l8,0.3l-2.9,85.4l179.5-86.3v-57.4H916.7z"/>
<path class="st2" d="M261.1,654.6l8-0.2l1.9,70.2l-8,0.2L261.1,654.6z"/>
<rect x="823.6" y="672.1" class="st2" width="8" height="94.7"/>
<path class="st2" d="M732.9,677.2l8,0.2l-0.9,44l-8-0.2L732.9,677.2z"/>
<path class="st2" d="M860.3,753.9h-8v-36.1c0-1.6,0.9-3,2.4-3.7l38.4-17.3c1.2-0.6,2.7-0.4,3.8,0.3s1.8,2,1.8,3.4v34.4h-8v-28.2
	l-30.4,13.7V753.9z"/>
<path class="st2" d="M795.1,687.4h8v37.2c0,1.5-0.8,2.9-2.2,3.5l-41.4,21.5c-1.3,0.7-2.8,0.6-4-0.2s-1.9-2.1-1.8-3.5l1.6-37.4l8,0.3
	l-1.3,30.5l33.1-17.2L795.1,687.4L795.1,687.4z"/>
<path class="st2" d="M698,681.6l-0.9,26c0,0.6-0.3,1.1-0.7,1.5s-1,0.5-1.6,0.4l-53.3-8.6c-1-0.2-1.7-1-1.7-2l0.1-6.4l-72-10.4
	c-1-0.1-1.8-1-1.7-2.1l0.5-12.3c0-0.6,0.3-1.1,0.8-1.5s1-0.5,1.6-0.4l71.1,12.7l0.6-5.1c0.1-0.5,0.3-1,0.8-1.3
	c0.4-0.3,1-0.5,1.5-0.4l53.3,7.9C697.3,679.7,698.1,680.6,698,681.6z M694,683.2l-49.5-7.4l-0.7,5.2c-0.1,0.6-0.4,1-0.8,1.4
	c-0.4,0.3-1,0.5-1.5,0.4l-70.9-12.7l-0.3,8.2l72,10.4c1,0.1,1.7,1,1.7,2l-0.1,6.4l49.3,8L694,683.2z"/>
<path class="st2" d="M289.7,677.5l51.2,6.5c1,0.1,1.8,1,1.8,2l-0.4,15.1c0,0.6-0.3,1.1-0.7,1.5c-0.4,0.4-1,0.5-1.6,0.5l-50.8-6.8
	c-1-0.1-1.7-1-1.7-2v-14.8c0-0.6,0.2-1.1,0.7-1.5C288.5,677.6,289.1,677.5,289.7,677.5z M291.4,681.8v10.8l46.8,6.3l0.3-11.1
	L291.4,681.8z"/>
<path class="st2" d="M230.2,715.9l473.1,61.3c2,0.3,3.5,2,3.5,4v67c0,1.5-0.8,2.9-2.2,3.6l-138.8,69.8c-0.7,0.4-1.5,0.5-2.3,0.4
	l-439.8-58.7c-2-0.3-3.5-2-3.5-4v-50.7c0-1.2,0.5-2.3,1.4-3.1l105.5-88.6C227.9,716,229.1,715.7,230.2,715.9z M230.9,724
	l-102.7,86.3v45.3l435.1,58.1l135.5-68.1v-61L230.9,724z"/>
<path class="st2" d="M567.9,917.9h-8v-43.2c0-1.3,0.7-2.6,1.8-3.3l138.8-93.5l4.5,6.6l-137,92.3L567.9,917.9L567.9,917.9z"/>
<path class="st2" d="M564.5,870.7l-1.2,7.9l-439.8-66.2l1.2-7.9L564.5,870.7z"/>
<path class="st2" d="M445.1,901.5h-8v-29.7c0-1.2,0.5-2.3,1.4-3c0.9-0.8,2-1.1,3.2-0.9l56.1,8.4c2,0.3,3.4,2,3.4,4L501,909l-8-0.1
	l0.2-25.3l-48.1-7.2V901.5z"/>
<path class="st2" d="M164.6,795l71.5-58.5c0.9-0.7,2-1,3.1-0.9L641.3,788c1.6,0.2,2.9,1.3,3.3,2.9c0.5,1.5,0,3.2-1.3,4.2l-79.9,66.7
	c-0.9,0.7-2,1.1-3.2,0.9l-393.8-60.6c-1.6-0.2-2.8-1.4-3.2-2.9C162.9,797.7,163.4,796,164.6,795z M176.7,795.5l383.1,58.9l71.5-59.7
	l-391.3-51L176.7,795.5z"/>
<path class="st2" d="M586.4,834.9l-0.9,5.9l-392.7-61l0.9-5.9L586.4,834.9z"/>
<path class="st2" d="M615.3,810.7l-0.8,5.9l-399.4-55l0.8-5.9L615.3,810.7z"/>
<path class="st2" d="M244.7,811.8l-4.3-4.2l59.7-61.8l4.3,4.2L244.7,811.8z"/>
<path class="st2" d="M298.8,819.9l-4.7-3.8l52-64.1l4.7,3.8L298.8,819.9z"/>
<path class="st2" d="M354.6,803.2l-4.9-3.5l31.1-43l4.9,3.5L354.6,803.2z"/>
<path class="st2" d="M393,809.1l-5.1-3.2l28.5-44.3l5.1,3.2L393,809.1z"/>
<path class="st2" d="M431.1,814.9l-5.2-3.1l26.9-45.5l5.2,3.1L431.1,814.9z"/>
<path class="st2" d="M466,820.3l-5.2-3l27.3-46.3l5.2,3.1L466,820.3z"/>
<path class="st2" d="M470.6,846.2l-4.8-3.6l51.3-68.2l4.8,3.6L470.6,846.2z"/>
<path class="st2" d="M520.8,854l-4.8-3.6l52.7-69.2l4.8,3.6L520.8,854z"/>
<path class="st2" d="M733.3,809.2l-0.7,8l-30.2-2.7l0.7-8L733.3,809.2z"/>
<path class="st2" d="M669.1,776.3h-8l-0.2-40l-167.2-20.5v37.8h-8v-42.3c0-1.2,0.5-2.2,1.3-3s2-1.1,3.1-1l175.2,21.5
	c2,0.2,3.5,1.9,3.5,4L669.1,776.3z"/>
<path class="st2" d="M578.6,764.5l-8,0.1l-0.4-42.9l8-0.1L578.6,764.5z"/>
<path class="st2" d="M590.9,766.2h-8l0.3-42.9h8L590.9,766.2z"/>
<path class="st2" d="M494.7,386.2l89.2,0.3c2.2,0,4,1.8,4,4v83.8c0,2.2-1.8,4-4,4h-89.8c-1.1,0-2.1-0.4-2.8-1.2
	c-0.8-0.8-1.2-1.8-1.2-2.8l0.5-84.1C490.7,388,492.5,386.2,494.7,386.2z M498.6,394.2l-0.5,76.1h81.8v-75.8L498.6,394.2z"/>
<path class="st2" d="M583.6,478.3l0.6-8l69.6,5.2c2.1,0.2,3.7,1.9,3.7,4v63.6c0,1.1-0.5,2.2-1.3,2.9c-0.8,0.8-1.9,1.2-3,1.1
	L534,538.4c-2.1-0.2-3.8-2-3.7-4.1l0.9-31.1l8,0.2l-0.8,27.3l111.1,8.1v-55.6L583.6,478.3z"/>
<path class="st2" d="M494.9,386.2l-0.5,8l-103.6-6v68.7l74.8,8.6l-0.9,7.9l-78.4-9c-2-0.2-3.5-1.9-3.5-4V384c0-1.1,0.5-2.2,1.3-2.9
	c0.8-0.8,1.9-1.2,3-1.1L494.9,386.2z"/>
<path class="st2" d="M407.1,384.9h-8v-91.5c0-1.1,0.5-2.2,1.3-2.9c0.8-0.8,1.9-1.1,3-1.1l143.1,9.7c2.1,0.1,3.7,1.9,3.7,4v87.4h-8
	v-83.6l-135.1-9.1V384.9z"/>
<path class="st2" d="M546,343.3l0.4-8l99.1,4.8c2.1,0.1,3.8,1.9,3.8,4v85.6c0,1.1-0.5,2.2-1.3,2.9c-0.8,0.8-1.9,1.1-3,1.1l-61.3-4.5
	l0.6-8l57,4.2v-77.5L546,343.3z"/>
<path class="st2" d="M565.4,474.3h8v14.4c0,2.2-1.8,4-4,4h-92.8c-2.2,0-4-1.8-4-4v-80.3c0-1.1,0.4-2.1,1.2-2.8
	c0.8-0.8,1.8-1.2,2.8-1.2h17.9v8h-13.9v72.3h84.8V474.3z"/>
<path class="st2" d="M550.1,488.8h8v15.5c0,2.2-1.8,4-4,4H465c-2.2,0-4-1.8-4-4v-78.5c0-2.1,1.6-3.8,3.6-4l11.6-1.1l0.8,8l-8,0.8
	v70.9h81.1V488.8z"/>
</svg>
