<?xml version="1.0" encoding="utf-8"?>
<!-- Generator: Adobe Illustrator 28.1.0, SVG Export Plug-In . SVG Version: 6.00 Build 0)  -->
<svg version="1.1" xmlns="http://www.w3.org/2000/svg" xmlns:xlink="http://www.w3.org/1999/xlink" x="0px" y="0px"
	 viewBox="0 0 2000 2000" style="enable-background:new 0 0 2000 2000;" xml:space="preserve">
<g id="Layer_4">
	<g id="Layer_3">
		<g>
			<defs>
				<rect id="XMLID_00000131357218194818759540000007504420511515257736_" width="2000" height="2000"/>
			</defs>
			<use xlink:href="#XMLID_00000131357218194818759540000007504420511515257736_"  style="overflow:visible;fill:#9FBDF3;"/>
			<clipPath id="XMLID_00000176037071110224262600000012169995965359208082_">
				<use xlink:href="#XMLID_00000131357218194818759540000007504420511515257736_"  style="overflow:visible;"/>
			</clipPath>
			<path style="clip-path:url(#XMLID_00000176037071110224262600000012169995965359208082_);fill:#F8F6E9;" d="M0,0
				c0,0,486.29,386.55,465.93,838.4c-7.68,170.45-77.37,326.72-153.47,476.55c-35.56,70-67.85,139.88-98.56,211.2
				c-36.82,85.49-87.33,159.01-106.37,252.26c-20.05,98.23-5.83,208.78,61.14,283.39c80.3,89.46,212.05,106.46,331.95,115.09
				c348,25.03,697.59,27.88,1045.95,8.54c41.89-2.33,85.62-5.53,121.53-27.24c67.75-40.97,84.09-131.5,84.2-210.69
				c0.23-171.84-44.54-343.54-128.65-493.38c-58.47-104.16-138.56-209.43-126.73-328.3c9.88-99.22,81.78-178.92,137.69-261.48
				c97.86-144.5,153.37-317.3,157.98-491.76c2.59-98.06-10.49-195.78-23.54-293.01c-6.47-48.18-12.94-96.37-19.41-144.55
				c-2.06-15.36-4.15-30.84-9.22-45.48c-19.73-56.98-81.92-90.43-142.06-94.72c-60.15-4.29-119.23,14.78-176.51,33.6
				c84.99,143.77,119.98,316.46,97.66,481.97s-101.82,322.76-221.86,438.87c-69.49,67.22-152.01,121.06-214.16,195.12
				c-62.15,74.06-101.8,178.46-65.32,268c-64.59-146.11-129.97-311.8-71.7-460.54c23.69-60.46,66.06-111.75,94.21-170.26
				c84.85-176.35,29.68-384.89-26.77-572.27C998.77-40.91,982.3-93.42,944.79-130.1c-37.5-36.68-103.08-50.36-141.92-15.1
				c166.64,241.67,187.85,575.96,53.08,836.76c-64.41,124.64-164.5,238.08-152.76,385.73c10.02,125.99,75.8,248.15,179.64,321.25
				c24.29,17.1,54.11,40.25,46.68,69.01c-8.4,32.5-53.5,34.09-86.6,28.49c-83.96-14.2-178.72-35.57-221.21-109.37
				c-34.19-59.37-22.53-133.42-9.84-200.75c18.88-113.25,42.56-225.92,63.82-338.75c20.63-109.49,55.1-224.14,52.27-336.14
				c-6.67-263.65-243.33-476.29-400.43-665.88L0,0"/>
			<g style="clip-path:url(#XMLID_00000176037071110224262600000012169995965359208082_);">
				<path style="fill:#FD9797;" d="M614.22,209.13c-21.57-3.6-24.65-6.52-28.46-26.93c-3.81,20.41-6.89,23.33-28.46,26.93
					c21.57,3.6,24.65,6.52,28.46,26.93C589.57,215.66,592.66,212.74,614.22,209.13z"/>
				<path style="fill:#FD9797;" d="M1410.47,246.51c-21.57-3.6-24.65-6.52-28.46-26.93c-3.81,20.41-6.89,23.33-28.46,26.93
					c21.57,3.6,24.65,6.52,28.46,26.93C1385.81,253.04,1388.9,250.12,1410.47,246.51z"/>
				<path style="fill:#FD9797;" d="M1706.49,575.82c-21.57-3.6-24.65-6.52-28.46-26.93c-3.81,20.41-6.89,23.33-28.46,26.93
					c21.57,3.6,24.65,6.52,28.46,26.93C1681.84,582.35,1684.93,579.43,1706.49,575.82z"/>
				<path style="fill:#FD9797;" d="M1051.84,384.69c-21.57-3.6-24.65-6.52-28.46-26.93c-3.81,20.41-6.89,23.33-28.46,26.93
					c21.57,3.6,24.65,6.52,28.46,26.93C1027.19,391.22,1030.27,388.29,1051.84,384.69z"/>
				<circle cx="523" cy="564.95" r="6.31"/>
				<path style="fill:#FD9797;" d="M313.29,170.1c-21.57-3.33-24.65-6.02-28.46-24.87c-3.81,18.85-6.89,21.54-28.46,24.87
					c21.57,3.33,24.65,6.02,28.46,24.87C288.64,176.12,291.73,173.42,313.29,170.1z"/>
			</g>
			<g style="clip-path:url(#XMLID_00000176037071110224262600000012169995965359208082_);">
				<path style="fill:#FD9797;" d="M584.75,928.75c-19.83-3.31-22.67-6-26.17-24.77c-3.5,18.77-6.34,21.45-26.17,24.77
					c19.83,3.31,22.67,6,26.17,24.77C562.07,934.75,564.91,932.06,584.75,928.75z"/>
				<path style="fill:#FD9797;" d="M1316.99,963.12c-19.83-3.31-22.67-6-26.17-24.77c-3.5,18.77-6.34,21.45-26.17,24.77
					c19.83,3.31,22.67,6,26.17,24.77C1294.32,969.12,1297.16,966.43,1316.99,963.12z"/>
				<path style="fill:#FD9797;" d="M1589.22,1265.96c-19.83-3.31-22.67-6-26.17-24.77c-3.5,18.77-6.34,21.45-26.17,24.77
					c19.83,3.31,22.67,6,26.17,24.77C1566.55,1271.96,1569.39,1269.27,1589.22,1265.96z"/>
				<path style="fill:#FD9797;" d="M987.19,1090.19c-19.83-3.31-22.67-6-26.17-24.77c-3.5,18.77-6.34,21.45-26.17,24.77
					c19.83,3.31,22.67,6,26.17,24.77C964.52,1096.19,967.35,1093.5,987.19,1090.19z"/>
				<circle cx="500.86" cy="1255.96" r="5.8"/>
				<path style="fill:#FD9797;" d="M308,892.84c-19.83-3.06-22.67-5.54-26.17-22.87c-3.5,17.33-6.34,19.81-26.17,22.87
					c19.83,3.06,22.67,5.54,26.17,22.87C285.33,898.38,288.17,895.9,308,892.84z"/>
			</g>
			<g style="clip-path:url(#XMLID_00000176037071110224262600000012169995965359208082_);">
				<path style="fill:#FD9797;" d="M612.75,1593.5c-18.9-3.16-21.6-5.72-24.94-23.6c-3.34,17.88-6.04,20.44-24.94,23.6
					c18.9,3.16,21.6,5.72,24.94,23.6C591.15,1599.22,593.85,1596.66,612.75,1593.5z"/>
				<path style="fill:#FD9797;" d="M1310.46,1626.26c-18.9-3.16-21.6-5.72-24.94-23.6c-3.34,17.88-6.04,20.44-24.94,23.6
					c18.9,3.16,21.6,5.72,24.94,23.6C1288.85,1631.97,1291.56,1629.41,1310.46,1626.26z"/>
				<path style="fill:#FD9797;" d="M1569.85,1914.81c-18.9-3.16-21.6-5.72-24.94-23.6c-3.34,17.88-6.04,20.44-24.94,23.6
					c18.9,3.16,21.6,5.72,24.94,23.6C1548.24,1920.53,1550.95,1917.97,1569.85,1914.81z"/>
				<path style="fill:#FD9797;" d="M996.21,1747.33c-18.9-3.16-21.6-5.72-24.94-23.6c-3.34,17.88-6.04,20.44-24.94,23.6
					c18.9,3.16,21.6,5.72,24.94,23.6C974.61,1753.05,977.31,1750.49,996.21,1747.33z"/>
				<circle cx="532.82" cy="1905.28" r="5.53"/>
				<path d="M44.62,1704.33c0-3.05-2.47-5.53-5.52-5.53c-3.05,0-5.53,2.47-5.53,5.53c0,3.05,2.47,5.53,5.53,5.53
					C42.15,1709.85,44.62,1707.38,44.62,1704.33z"/>
				<path style="fill:#FD9797;" d="M349.06,1559.29c-18.9-2.92-21.6-5.28-24.94-21.79c-3.34,16.51-6.04,18.88-24.94,21.79
					c18.9,2.92,21.6,5.28,24.94,21.79C327.46,1564.57,330.17,1562.21,349.06,1559.29z"/>
			</g>
		</g>
	</g>
	<circle style="fill:#F36979;" cx="1283.69" cy="1084.26" r="81.94"/>
	<circle style="fill:#F36979;" cx="596.29" cy="1128.15" r="79.38"/>
	<g>
		<defs>
			<path id="XMLID_00000072959497466469725240000010568701680004898443_" d="M661.48,1046.68c4.66-8.44-33.02,259.37-207.51,295.86
				c-192.19,40.19-641.31,199.44-222.87,532.24c385.81,306.85,1561.1-46.81,1561.1-46.81c45.8-57.83,277.79-447.03-373.73-526.53
				c-571.21-69.7-308.1-409.72-308.1-409.72L661.48,1046.68z"/>
		</defs>
		<use xlink:href="#XMLID_00000072959497466469725240000010568701680004898443_"  style="overflow:visible;fill:#DD0044;"/>
		<clipPath id="XMLID_00000160148547014228123240000000772238550885930135_">
			<use xlink:href="#XMLID_00000072959497466469725240000010568701680004898443_"  style="overflow:visible;"/>
		</clipPath>
		<path style="clip-path:url(#XMLID_00000160148547014228123240000000772238550885930135_);fill:#F42771;" d="M220.67,1799.08
			c-29.24-37.44-52.32-79.56-68.33-124.38c-38-107.85-15.39-206.3,94.09-256.41c2.89-1.27,9.47-4.07,12.38-5.34
			c13.7-5.38,28.28-10.07,42.49-13.86c23.05-5.86,46.46-9.84,69.99-12.06c-34.51,7.54-68.59,16.56-100.91,30.67
			c0,0-7.99,3.52-7.99,3.52s-7.83,3.83-7.83,3.83l-3.91,1.91c0,0-3.81,2.08-3.81,2.08l-7.62,4.15c0,0-7.4,4.51-7.4,4.51
			c-3.44,1.95-7.48,4.95-10.81,7.14c-22.13,15.45-41.46,35.48-54.18,59.35C118.62,1594.04,172.02,1718.98,220.67,1799.08
			L220.67,1799.08z"/>
		<path style="clip-path:url(#XMLID_00000160148547014228123240000000772238550885930135_);fill:#F42771;" d="M829.24,1400.15
			c4.55,64.99-13.76,136.31-55.08,187.63c-23.55,29.11-55.81,51.12-91.81,61.49c-12.42,3.54-25.08,6-37.94,6.95
			c-1.82,0.15-3.65,0.27-5.47,0.39c19.4-5.14,37.97-11.54,55.63-20.64C782.24,1591.82,817.87,1492.27,829.24,1400.15L829.24,1400.15
			z"/>
		<path style="clip-path:url(#XMLID_00000160148547014228123240000000772238550885930135_);fill:#F42771;" d="M1156.93,1375.77
			c10.95,110.29,48.84,243.74,164.48,283.99c10.61,3.67,21.83,6.75,32.86,8.87c4,0.89,8.27,1.46,12.29,2.22
			c-8.34-0.11-16.73-0.48-25.05-1.66c-3.51-0.35-8.93-1.38-12.46-2.01c-3.6-0.79-8.85-1.9-12.32-2.9
			c-77.9-20.73-124.85-89.73-145.55-164.02C1159.99,1459.86,1154.6,1417.63,1156.93,1375.77L1156.93,1375.77z"/>
		<path style="clip-path:url(#XMLID_00000160148547014228123240000000772238550885930135_);fill:#F42771;" d="M1263.23,1316.6
			c112.78,11.29,318.34,45.16,411.75,105.5c11.12,7.34,21.78,16.66,29.78,27.6c38.1,53.04,40.34,131.86,37.49,194.79
			c-1.92,31.54-5.48,62.97-11.83,93.92c1.58-15.66,2.67-31.35,3.42-47.06c2.12-46.81,1.62-93.98-5.93-140.28
			c-6.14-35.11-15.94-71.91-39.9-99.05c-24.1-26.04-71.74-43.96-105.14-56.09C1478.94,1360.34,1370.74,1338.47,1263.23,1316.6
			L1263.23,1316.6z"/>
		<path style="clip-path:url(#XMLID_00000160148547014228123240000000772238550885930135_);fill:#F42771;" d="M690.84,1282.35
			c-21.74,85.95-75.06,187.74-162.85,220.05c-28.5,10.36-59.24,18.97-87.07,30.81c-9.97,4.28-20.04,9.44-28.74,15.93
			c-8.33,6.34-15.51,14.23-20.44,23.49c-10.97,21.18-11.69,46.38-10.77,69.8c0.48,12.74,2.09,27.18,3.73,39.86
			c9.01,61.17,18.88,122.55,26.28,183.95c-7.21-30.18-13.7-60.49-20.24-90.79c-4.7-21.79-9.64-46.29-14.13-68.28
			c-4.68-23.09-8.66-46.14-9.96-69.85c-2.12-38.21,3.17-76.14,35.95-100.83c9.7-7.29,20.85-13.18,31.97-17.97
			c28.31-11.98,59.37-20.51,88.38-30.41C606.8,1458.99,661.44,1361.45,690.84,1282.35L690.84,1282.35z"/>
		<path style="clip-path:url(#XMLID_00000160148547014228123240000000772238550885930135_);fill:#F42771;" d="M1283.12,1414.4
			c47.5,57.53,103.85,107.32,163.83,151.4c30.08,21.86,61.63,42.3,93.46,61.5c7.84,4.56,17.69,10.57,25.56,15.05
			c3.41,2.04,6.85,4.01,10.24,6.11c-11.31-3.8-22.51-7.94-33.51-12.57c-77.2-32.53-147.49-81.95-203.97-143.85
			C1317.54,1468.25,1297.62,1442.87,1283.12,1414.4L1283.12,1414.4z"/>
	</g>
	<g>
		<defs>
			<path id="XMLID_00000034062851420708373870000004593464491125247109_" d="M899.46,1339.09c0,0,68.18,235.08-181.14,254.42
				S170.81,1568.95,180.99,2000h1673.05c0,0,102.21-326.62-274.77-396.23c-332.94-61.48-449.41,90.98-482.37-264.68
				C1069.45,1043.09,899.46,1339.09,899.46,1339.09z"/>
		</defs>
		<use xlink:href="#XMLID_00000034062851420708373870000004593464491125247109_"  style="overflow:visible;fill:#F36979;"/>
		<clipPath id="XMLID_00000170270029551814393450000011257105813017906863_">
			<use xlink:href="#XMLID_00000034062851420708373870000004593464491125247109_"  style="overflow:visible;"/>
		</clipPath>
		<path style="clip-path:url(#XMLID_00000170270029551814393450000011257105813017906863_);fill:#4C001D;" d="M855.19,1474.95
			c0,0,260.04-36.9,288.52-139.04s-308.87-38.03-308.87-38.03L855.19,1474.95z"/>
		<g style="clip-path:url(#XMLID_00000170270029551814393450000011257105813017906863_);">
			<defs>
				<path id="XMLID_00000179647851074963061240000002267943625655971761_" d="M842.47,1534.48l90.12,96.72
					c42.63,45.75,114.04,48.92,160.56,7.14l133.76-120.14l669.86,46.81l48.85,555.65L433.37,2368.97l-610.6-197.43l56.99-478.3
					l665.55-197.33L842.47,1534.48z"/>
			</defs>
			<use xlink:href="#XMLID_00000179647851074963061240000002267943625655971761_"  style="overflow:visible;fill:#7050B3;"/>
			<clipPath id="XMLID_00000084511573469329030960000015117895143755131305_">
				<use xlink:href="#XMLID_00000179647851074963061240000002267943625655971761_"  style="overflow:visible;"/>
			</clipPath>
			<path style="clip-path:url(#XMLID_00000084511573469329030960000015117895143755131305_);fill:#FD9797;" d="M1470.37,1293.57
				c-15.39-2.57-17.6-4.66-20.31-19.22c-2.72,14.57-4.92,16.65-20.31,19.22c15.39,2.57,17.6,4.66,20.31,19.22
				C1452.77,1298.22,1454.97,1296.14,1470.37,1293.57z"/>
			<path style="clip-path:url(#XMLID_00000084511573469329030960000015117895143755131305_);" d="M863.81,1468.79
				c0-2.49-2.02-4.5-4.5-4.5c-2.49,0-4.5,2.02-4.5,4.5s2.01,4.5,4.5,4.5C861.79,1473.3,863.81,1471.28,863.81,1468.79z"/>
			<path style="clip-path:url(#XMLID_00000084511573469329030960000015117895143755131305_);" d="M1484.03,1695.28
				c0-2.49-2.02-4.5-4.5-4.5c-2.49,0-4.5,2.02-4.5,4.5c0,2.49,2.02,4.5,4.5,4.5C1482.02,1699.78,1484.03,1697.76,1484.03,1695.28z"
				/>
			<path style="clip-path:url(#XMLID_00000084511573469329030960000015117895143755131305_);" d="M1302.24,1496.76
				c0-2.49-2.02-4.5-4.5-4.5s-4.5,2.02-4.5,4.5c0,2.49,2.02,4.5,4.5,4.5S1302.24,1499.25,1302.24,1496.76z"/>
			<g style="clip-path:url(#XMLID_00000084511573469329030960000015117895143755131305_);">
				<path style="fill:#FD9797;" d="M558.73,1677.84c-15.39-2.57-17.6-4.66-20.31-19.22c-2.72,14.57-4.92,16.65-20.31,19.22
					c15.39,2.57,17.6,4.66,20.31,19.22C541.13,1682.5,543.33,1680.41,558.73,1677.84z"/>
				<path style="fill:#FD9797;" d="M1127.07,1704.52c-15.39-2.57-17.6-4.66-20.31-19.22c-2.72,14.57-4.92,16.65-20.31,19.22
					c15.39,2.57,17.6,4.66,20.31,19.22C1109.47,1709.18,1111.67,1707.09,1127.07,1704.52z"/>
				<path style="fill:#FD9797;" d="M1338.37,1939.58c-15.39-2.57-17.6-4.66-20.31-19.22c-2.72,14.57-4.92,16.65-20.31,19.22
					c15.39,2.57,17.6,4.66,20.31,19.22C1320.77,1944.23,1322.97,1942.15,1338.37,1939.58z"/>
				<path style="fill:#FD9797;" d="M871.09,1803.15c-15.39-2.57-17.6-4.66-20.31-19.22c-2.72,14.57-4.92,16.65-20.31,19.22
					c15.39,2.57,17.6,4.66,20.31,19.22C853.49,1807.81,855.69,1805.72,871.09,1803.15z"/>
				<circle cx="493.61" cy="1931.81" r="4.5"/>
				<path d="M95.93,1768.12c0-2.49-2.02-4.5-4.5-4.5c-2.49,0-4.5,2.02-4.5,4.5c0,2.49,2.02,4.5,4.5,4.5
					C93.92,1772.62,95.93,1770.6,95.93,1768.12z"/>
				<path style="fill:#FD9797;" d="M1794.97,1748.19c-15.39-2.57-17.6-4.66-20.31-19.22c-2.72,14.57-4.92,16.65-20.31,19.22
					c15.39,2.57,17.6,4.66,20.31,19.22C1777.37,1752.85,1779.57,1750.77,1794.97,1748.19z"/>
				<path style="fill:#FD9797;" d="M343.93,1649.97c-15.39-2.38-17.6-4.3-20.31-17.75c-2.72,13.45-4.92,15.38-20.31,17.75
					c15.39,2.38,17.6,4.3,20.31,17.75C326.33,1654.27,328.53,1652.35,343.93,1649.97z"/>
			</g>
			<g style="clip-path:url(#XMLID_00000084511573469329030960000015117895143755131305_);">
				<g>
					<path style="fill:#65CA97;" d="M905.24,1929.73c-10.11,0.87-19.14,4.6-26.07,10.1c7.77,4.24,17.3,6.37,27.41,5.5
						s19.14-4.59,26.07-10.1C924.88,1930.99,915.35,1928.86,905.24,1929.73z"/>
					<path style="fill:#65CA97;" d="M867.66,1912.13c4.19,8.52,10.5,15.12,17.65,19.29c1.06-8.21-0.32-17.24-4.51-25.75
						c-4.19-8.52-10.5-15.12-17.65-19.29C862.09,1894.59,863.47,1903.62,867.66,1912.13z"/>
					<path d="M870.26,1952.94c-0.36,0-0.73-0.12-1.03-0.38c-0.67-0.57-0.75-1.58-0.18-2.25c13.78-16.24,23.89-34.82,30.06-55.2
						l1.85-6.13c0.25-0.84,1.14-1.32,1.99-1.06c0.84,0.25,1.32,1.15,1.06,1.99l-1.85,6.13c-6.3,20.81-16.62,39.76-30.68,56.34
						C871.16,1952.75,870.71,1952.94,870.26,1952.94z"/>
					<path style="fill:#FF3333;" d="M878.77,1856.99c-2.5,6.07,0.39,13.02,6.46,15.52c1.14,0.47,2.31,0.69,3.48,0.8
						c-1.1,0.41-2.17,0.93-3.15,1.68c-5.2,4-6.17,11.47-2.17,16.67c4,5.2,11.47,6.17,16.67,2.17c0.98-0.75,1.76-1.66,2.43-2.62
						c-0.2,1.16-0.28,2.34-0.12,3.57c0.87,6.51,6.85,11.08,13.35,10.21c6.51-0.87,11.08-6.85,10.21-13.35
						c-0.16-1.22-0.56-2.35-1.05-3.41c0.9,0.75,1.89,1.42,3.03,1.89c6.07,2.5,13.02-0.39,15.52-6.46c2.5-6.07-0.39-13.02-6.46-15.52
						c-1.14-0.47-2.31-0.69-3.48-0.8c1.1-0.41,2.17-0.93,3.15-1.68c5.2-4,6.17-11.47,2.17-16.67c-4-5.2-11.47-6.17-16.67-2.17
						c-0.98,0.75-1.76,1.66-2.43,2.62c0.2-1.16,0.28-2.34,0.12-3.57c-0.87-6.51-6.85-11.08-13.35-10.21
						c-6.51,0.87-11.08,6.85-10.21,13.35c0.16,1.22,0.56,2.35,1.05,3.41c-0.9-0.75-1.89-1.42-3.03-1.89
						C888.22,1848.03,881.27,1850.92,878.77,1856.99z"/>
					<path style="fill:#FD9797;" d="M899.75,1862.65c-4.23,6.27-2.58,14.78,3.69,19.01c6.27,4.23,14.78,2.58,19.01-3.69
						c4.23-6.27,2.58-14.78-3.69-19.01S903.98,1856.38,899.75,1862.65z"/>
				</g>
				<path style="fill:#65CA97;" d="M712.37,1870.02c8.71,11.38,13.4,24.34,14.24,36.81c-11.81-4.08-23.09-12-31.8-23.38
					c-8.71-11.38-13.4-24.34-14.24-36.81C692.38,1850.72,703.67,1858.64,712.37,1870.02z"/>
			</g>
			<g style="clip-path:url(#XMLID_00000084511573469329030960000015117895143755131305_);">
				<g>
					<path style="fill:#65CA97;" d="M1478.38,1685.97c-10.11,0.87-19.14,4.6-26.07,10.1c7.77,4.24,17.3,6.37,27.41,5.5
						s19.14-4.59,26.07-10.1C1498.02,1687.23,1488.5,1685.1,1478.38,1685.97z"/>
					<path style="fill:#65CA97;" d="M1440.8,1668.37c4.19,8.52,10.5,15.12,17.65,19.29c1.06-8.21-0.32-17.24-4.51-25.75
						c-4.19-8.52-10.5-15.12-17.65-19.29C1435.24,1650.83,1436.61,1659.85,1440.8,1668.37z"/>
					<path d="M1443.4,1709.18c-0.36,0-0.73-0.12-1.03-0.38c-0.67-0.57-0.75-1.58-0.19-2.25c13.78-16.24,23.89-34.82,30.06-55.2
						l1.85-6.13c0.25-0.84,1.15-1.32,1.99-1.06c0.84,0.25,1.32,1.14,1.06,1.99l-1.85,6.13c-6.29,20.81-16.62,39.76-30.68,56.34
						C1444.3,1708.98,1443.85,1709.18,1443.4,1709.18z"/>
					<path style="fill:#FF3333;" d="M1451.91,1613.22c-2.5,6.07,0.39,13.02,6.46,15.52c1.14,0.47,2.31,0.69,3.48,0.8
						c-1.1,0.41-2.17,0.93-3.15,1.68c-5.2,4-6.17,11.47-2.17,16.67c4,5.2,11.47,6.17,16.67,2.17c0.98-0.75,1.76-1.66,2.43-2.62
						c-0.2,1.16-0.28,2.34-0.12,3.57c0.87,6.51,6.85,11.08,13.35,10.21c6.51-0.87,11.08-6.85,10.21-13.35
						c-0.16-1.22-0.56-2.35-1.05-3.41c0.9,0.75,1.89,1.42,3.03,1.89c6.07,2.5,13.02-0.39,15.52-6.46c2.5-6.07-0.39-13.02-6.46-15.52
						c-1.14-0.47-2.31-0.69-3.48-0.8c1.1-0.41,2.17-0.93,3.15-1.68c5.2-4,6.17-11.47,2.17-16.67c-4-5.2-11.47-6.17-16.67-2.17
						c-0.98,0.75-1.76,1.66-2.43,2.62c0.2-1.16,0.28-2.34,0.12-3.57c-0.87-6.51-6.85-11.08-13.35-10.21
						c-6.51,0.87-11.08,6.85-10.21,13.35c0.16,1.22,0.56,2.35,1.05,3.41c-0.9-0.75-1.89-1.42-3.03-1.89
						C1461.36,1604.26,1454.41,1607.16,1451.91,1613.22z"/>
					<path style="fill:#FD9797;" d="M1472.89,1618.89c-4.23,6.27-2.58,14.78,3.69,19.01c6.27,4.23,14.78,2.58,19.01-3.69
						c4.23-6.27,2.58-14.78-3.69-19.01C1485.63,1610.97,1477.12,1612.62,1472.89,1618.89z"/>
				</g>
				<path style="fill:#65CA97;" d="M1285.52,1626.26c8.71,11.38,13.4,24.34,14.24,36.81c-11.81-4.08-23.09-12-31.8-23.38
					c-8.71-11.38-13.4-24.34-14.24-36.81C1265.53,1606.96,1276.81,1614.88,1285.52,1626.26z"/>
			</g>
			<g style="clip-path:url(#XMLID_00000084511573469329030960000015117895143755131305_);">
				<g>
					<path style="fill:#65CA97;" d="M370.52,1910.83c-10.11,0.87-19.14,4.6-26.07,10.1c7.77,4.24,17.3,6.37,27.41,5.5
						c10.11-0.87,19.14-4.59,26.07-10.1C390.16,1912.09,380.63,1909.96,370.52,1910.83z"/>
					<path style="fill:#65CA97;" d="M332.94,1893.23c4.19,8.52,10.5,15.12,17.65,19.29c1.06-8.21-0.32-17.24-4.51-25.75
						c-4.19-8.52-10.5-15.12-17.65-19.29C327.38,1875.69,328.75,1884.72,332.94,1893.23z"/>
					<path d="M335.54,1934.04c-0.36,0-0.73-0.12-1.03-0.38c-0.67-0.57-0.75-1.58-0.18-2.25c13.78-16.24,23.89-34.82,30.06-55.2
						l1.85-6.13c0.25-0.84,1.14-1.32,1.99-1.06c0.84,0.25,1.32,1.15,1.06,1.99l-1.85,6.13c-6.3,20.81-16.62,39.76-30.68,56.34
						C336.44,1933.85,335.99,1934.04,335.54,1934.04z"/>
					<path style="fill:#FF3333;" d="M344.05,1838.09c-2.5,6.07,0.39,13.02,6.46,15.52c1.14,0.47,2.31,0.69,3.48,0.8
						c-1.1,0.41-2.17,0.93-3.15,1.68c-5.2,4-6.17,11.47-2.17,16.67c4,5.2,11.47,6.17,16.67,2.17c0.98-0.75,1.76-1.66,2.43-2.62
						c-0.2,1.16-0.28,2.34-0.12,3.57c0.87,6.51,6.85,11.08,13.35,10.21c6.51-0.87,11.08-6.85,10.21-13.35
						c-0.16-1.22-0.56-2.35-1.05-3.41c0.9,0.75,1.89,1.42,3.03,1.89c6.07,2.5,13.02-0.39,15.52-6.46s-0.39-13.02-6.46-15.52
						c-1.14-0.47-2.31-0.69-3.48-0.8c1.1-0.41,2.17-0.93,3.15-1.68c5.2-4,6.17-11.47,2.17-16.67c-4-5.2-11.47-6.17-16.67-2.17
						c-0.98,0.75-1.76,1.66-2.43,2.62c0.2-1.16,0.28-2.34,0.12-3.57c-0.87-6.51-6.85-11.08-13.35-10.21
						c-6.51,0.87-11.08,6.85-10.21,13.35c0.16,1.22,0.56,2.35,1.05,3.41c-0.9-0.75-1.89-1.42-3.03-1.89
						C353.5,1829.13,346.55,1832.02,344.05,1838.09z"/>
					<path style="fill:#FD9797;" d="M365.03,1843.75c-4.23,6.27-2.58,14.78,3.69,19.01c6.27,4.23,14.78,2.58,19.01-3.69
						c4.23-6.27,2.58-14.78-3.69-19.01C377.77,1835.83,369.26,1837.48,365.03,1843.75z"/>
				</g>
				<path style="fill:#65CA97;" d="M177.66,1851.12c8.71,11.38,13.4,24.34,14.24,36.81c-11.81-4.08-23.09-12-31.8-23.38
					s-13.4-24.34-14.24-36.81C157.67,1831.82,168.95,1839.74,177.66,1851.12z"/>
			</g>
			<g style="clip-path:url(#XMLID_00000084511573469329030960000015117895143755131305_);">
				<g>
					<path style="fill:#65CA97;" d="M1761.52,1956.67c-10.11,0.87-19.14,4.6-26.07,10.1c7.77,4.24,17.3,6.37,27.41,5.5
						c10.11-0.87,19.14-4.59,26.07-10.1C1781.16,1957.93,1771.63,1955.8,1761.52,1956.67z"/>
					<path style="fill:#65CA97;" d="M1723.94,1939.07c4.19,8.52,10.5,15.12,17.65,19.29c1.06-8.21-0.32-17.24-4.51-25.75
						c-4.19-8.52-10.5-15.12-17.65-19.29C1718.37,1921.53,1719.75,1930.55,1723.94,1939.07z"/>
					<path d="M1726.54,1979.88c-0.36,0-0.73-0.12-1.03-0.38c-0.67-0.57-0.75-1.58-0.19-2.25c13.78-16.24,23.89-34.82,30.06-55.2
						l1.85-6.13c0.25-0.84,1.14-1.32,1.99-1.06c0.84,0.25,1.32,1.15,1.06,1.99l-1.85,6.13c-6.3,20.81-16.62,39.76-30.68,56.34
						C1727.44,1979.68,1726.99,1979.88,1726.54,1979.88z"/>
					<path style="fill:#FF3333;" d="M1735.05,1883.92c-2.5,6.07,0.39,13.02,6.46,15.52c1.14,0.47,2.31,0.69,3.48,0.8
						c-1.1,0.41-2.17,0.93-3.15,1.68c-5.2,4-6.17,11.47-2.17,16.67c4,5.2,11.47,6.17,16.67,2.17c0.98-0.75,1.76-1.66,2.43-2.62
						c-0.2,1.16-0.28,2.34-0.12,3.57c0.87,6.51,6.85,11.08,13.35,10.21c6.51-0.87,11.08-6.85,10.21-13.35
						c-0.16-1.22-0.56-2.35-1.05-3.41c0.9,0.75,1.89,1.42,3.03,1.89c6.07,2.5,13.02-0.39,15.52-6.46s-0.39-13.02-6.46-15.52
						c-1.14-0.47-2.31-0.69-3.48-0.8c1.1-0.41,2.17-0.93,3.15-1.68c5.2-4,6.17-11.47,2.17-16.67c-4-5.2-11.47-6.17-16.67-2.17
						c-0.98,0.75-1.76,1.66-2.43,2.62c0.2-1.16,0.28-2.34,0.12-3.57c-0.87-6.51-6.85-11.08-13.35-10.21
						c-6.51,0.87-11.08,6.85-10.21,13.35c0.16,1.22,0.56,2.35,1.05,3.41c-0.9-0.75-1.89-1.42-3.03-1.89
						C1744.49,1874.96,1737.55,1877.86,1735.05,1883.92z"/>
					<path style="fill:#FD9797;" d="M1756.02,1889.59c-4.23,6.27-2.58,14.78,3.69,19.01c6.27,4.23,14.78,2.58,19.01-3.69
						c4.23-6.27,2.58-14.78-3.69-19.01C1768.77,1881.67,1760.26,1883.32,1756.02,1889.59z"/>
				</g>
				<path style="fill:#65CA97;" d="M1568.65,1896.96c8.71,11.38,13.4,24.34,14.24,36.81c-11.81-4.08-23.09-12-31.8-23.38
					c-8.71-11.38-13.4-24.34-14.24-36.81C1548.66,1877.66,1559.95,1885.58,1568.65,1896.96z"/>
			</g>
			<g style="clip-path:url(#XMLID_00000084511573469329030960000015117895143755131305_);">
				<g>
					<path style="fill:#65CA97;" d="M710.74,1610.61c-10.11,0.87-19.14,4.6-26.07,10.1c7.77,4.24,17.3,6.37,27.41,5.5
						s19.14-4.59,26.07-10.1C730.38,1611.87,720.85,1609.74,710.74,1610.61z"/>
					<path style="fill:#65CA97;" d="M673.15,1593.01c4.19,8.52,10.5,15.12,17.65,19.29c1.06-8.21-0.32-17.24-4.51-25.75
						c-4.19-8.52-10.5-15.12-17.65-19.29C667.59,1575.47,668.97,1584.49,673.15,1593.01z"/>
					<path d="M675.75,1633.82c-0.36,0-0.73-0.12-1.03-0.38c-0.67-0.57-0.75-1.58-0.18-2.25c13.78-16.24,23.89-34.82,30.06-55.2
						l1.85-6.13c0.25-0.84,1.15-1.32,1.99-1.06c0.84,0.25,1.32,1.15,1.06,1.99l-1.85,6.13c-6.3,20.81-16.62,39.76-30.68,56.34
						C676.66,1633.62,676.21,1633.82,675.75,1633.82z"/>
					<path style="fill:#FF3333;" d="M684.26,1537.86c-2.5,6.07,0.39,13.02,6.46,15.52c1.14,0.47,2.31,0.69,3.48,0.8
						c-1.1,0.41-2.17,0.93-3.15,1.68c-5.2,4-6.17,11.47-2.17,16.67c4,5.2,11.47,6.17,16.67,2.17c0.98-0.75,1.76-1.66,2.43-2.62
						c-0.2,1.16-0.28,2.34-0.12,3.57c0.87,6.51,6.85,11.08,13.35,10.21c6.51-0.87,11.08-6.85,10.21-13.35
						c-0.16-1.22-0.56-2.35-1.05-3.41c0.9,0.75,1.89,1.42,3.03,1.89c6.07,2.5,13.02-0.39,15.52-6.46c2.5-6.07-0.39-13.02-6.46-15.52
						c-1.14-0.47-2.31-0.69-3.48-0.8c1.1-0.41,2.17-0.93,3.15-1.68c5.2-4,6.17-11.47,2.17-16.67s-11.47-6.17-16.67-2.17
						c-0.98,0.75-1.76,1.66-2.43,2.62c0.2-1.16,0.28-2.34,0.12-3.57c-0.87-6.51-6.85-11.08-13.35-10.21
						c-6.51,0.87-11.08,6.85-10.21,13.35c0.16,1.22,0.56,2.35,1.05,3.41c-0.9-0.75-1.89-1.42-3.03-1.89
						C693.71,1528.9,686.77,1531.8,684.26,1537.86z"/>
					<path style="fill:#FD9797;" d="M705.24,1543.53c-4.23,6.27-2.58,14.78,3.69,19.01c6.27,4.23,14.78,2.58,19.01-3.69
						c4.23-6.27,2.58-14.78-3.69-19.01S709.48,1537.26,705.24,1543.53z"/>
				</g>
				<path style="fill:#65CA97;" d="M517.87,1550.89c8.71,11.38,13.4,24.34,14.24,36.81c-11.81-4.08-23.09-12-31.8-23.38
					c-8.71-11.38-13.4-24.34-14.24-36.81C497.88,1531.6,509.17,1539.52,517.87,1550.89z"/>
			</g>
			<g style="clip-path:url(#XMLID_00000084511573469329030960000015117895143755131305_);">
				<g>
					<path style="fill:#65CA97;" d="M224.67,1697.95c-10.11,0.87-19.14,4.6-26.07,10.1c7.77,4.24,17.3,6.37,27.41,5.5
						c10.11-0.87,19.14-4.59,26.07-10.1C244.31,1699.21,234.78,1697.08,224.67,1697.95z"/>
					<path style="fill:#65CA97;" d="M187.08,1680.35c4.19,8.52,10.5,15.12,17.65,19.29c1.06-8.21-0.32-17.24-4.51-25.75
						c-4.19-8.52-10.5-15.12-17.65-19.29C181.52,1662.81,182.9,1671.84,187.08,1680.35z"/>
					<path d="M189.68,1721.16c-0.36,0-0.73-0.12-1.03-0.38c-0.67-0.57-0.75-1.58-0.18-2.25c13.78-16.24,23.89-34.82,30.06-55.2
						l1.85-6.13c0.25-0.84,1.15-1.32,1.99-1.06c0.84,0.25,1.32,1.15,1.06,1.99l-1.85,6.13c-6.3,20.81-16.62,39.76-30.68,56.34
						C190.58,1720.97,190.14,1721.16,189.68,1721.16z"/>
					<path style="fill:#FF3333;" d="M198.19,1625.21c-2.5,6.07,0.39,13.02,6.46,15.52c1.14,0.47,2.31,0.69,3.48,0.8
						c-1.1,0.41-2.17,0.93-3.15,1.68c-5.2,4-6.17,11.47-2.17,16.67c4,5.2,11.47,6.17,16.67,2.17c0.98-0.75,1.76-1.66,2.43-2.62
						c-0.2,1.16-0.28,2.34-0.12,3.57c0.87,6.51,6.85,11.08,13.35,10.21c6.51-0.87,11.08-6.85,10.21-13.35
						c-0.16-1.22-0.56-2.35-1.05-3.41c0.9,0.75,1.89,1.42,3.03,1.89c6.07,2.5,13.02-0.39,15.52-6.46c2.5-6.07-0.39-13.02-6.46-15.52
						c-1.14-0.47-2.31-0.69-3.48-0.8c1.1-0.41,2.17-0.93,3.15-1.68c5.2-4,6.17-11.47,2.17-16.67c-4-5.2-11.47-6.17-16.67-2.17
						c-0.98,0.75-1.76,1.66-2.43,2.62c0.2-1.16,0.28-2.34,0.12-3.57c-0.87-6.51-6.85-11.08-13.35-10.21
						c-6.51,0.87-11.08,6.85-10.21,13.35c0.16,1.22,0.56,2.35,1.05,3.41c-0.9-0.75-1.89-1.42-3.03-1.89
						C207.64,1616.25,200.7,1619.14,198.19,1625.21z"/>
					<path style="fill:#FD9797;" d="M219.17,1630.87c-4.23,6.27-2.58,14.78,3.69,19.01c6.27,4.23,14.78,2.58,19.01-3.69
						s2.58-14.78-3.69-19.01S223.41,1624.6,219.17,1630.87z"/>
				</g>
				<path style="fill:#65CA97;" d="M31.8,1638.24c8.71,11.38,13.4,24.34,14.24,36.81c-11.81-4.08-23.09-12-31.8-23.38
					c-8.71-11.38-13.4-24.34-14.24-36.81C11.81,1618.94,23.09,1626.86,31.8,1638.24z"/>
			</g>
			<g style="clip-path:url(#XMLID_00000084511573469329030960000015117895143755131305_);">
				<g>
					<path style="fill:#65CA97;" d="M1865.24,1622.39c-10.11,0.87-19.14,4.6-26.07,10.1c7.77,4.24,17.3,6.37,27.41,5.5
						s19.14-4.59,26.07-10.1C1884.88,1623.66,1875.36,1621.53,1865.24,1622.39z"/>
					<path style="fill:#65CA97;" d="M1827.66,1604.8c4.19,8.52,10.5,15.12,17.65,19.29c1.06-8.21-0.32-17.24-4.51-25.75
						c-4.19-8.52-10.5-15.12-17.65-19.29C1822.1,1587.25,1823.47,1596.28,1827.66,1604.8z"/>
					<path d="M1830.26,1645.6c-0.36,0-0.73-0.12-1.03-0.38c-0.67-0.57-0.75-1.58-0.18-2.25c13.78-16.24,23.89-34.82,30.06-55.2
						l1.85-6.13c0.25-0.84,1.15-1.32,1.99-1.06c0.84,0.25,1.32,1.15,1.06,1.99l-1.85,6.13c-6.3,20.81-16.62,39.76-30.68,56.34
						C1831.16,1645.41,1830.71,1645.6,1830.26,1645.6z"/>
					<path style="fill:#FF3333;" d="M1838.77,1549.65c-2.5,6.07,0.39,13.02,6.46,15.52c1.14,0.47,2.31,0.69,3.48,0.8
						c-1.1,0.41-2.17,0.93-3.15,1.68c-5.2,4-6.17,11.47-2.17,16.67c4,5.2,11.47,6.17,16.67,2.17c0.98-0.75,1.76-1.66,2.43-2.62
						c-0.2,1.16-0.28,2.34-0.12,3.57c0.87,6.51,6.85,11.08,13.35,10.21c6.51-0.87,11.08-6.85,10.21-13.35
						c-0.16-1.22-0.56-2.35-1.05-3.41c0.9,0.75,1.89,1.42,3.03,1.89c6.07,2.5,13.02-0.39,15.52-6.46s-0.39-13.02-6.46-15.52
						c-1.14-0.47-2.31-0.69-3.48-0.8c1.1-0.41,2.17-0.93,3.15-1.68c5.2-4,6.17-11.47,2.17-16.67s-11.47-6.17-16.67-2.17
						c-0.98,0.75-1.76,1.66-2.43,2.62c0.2-1.16,0.28-2.34,0.12-3.57c-0.87-6.51-6.85-11.08-13.35-10.21
						c-6.51,0.87-11.08,6.85-10.21,13.35c0.16,1.22,0.56,2.35,1.05,3.41c-0.9-0.75-1.89-1.42-3.03-1.89
						C1848.22,1540.69,1841.27,1543.58,1838.77,1549.65z"/>
					<path style="fill:#FD9797;" d="M1859.75,1555.31c-4.23,6.27-2.58,14.78,3.69,19.01c6.27,4.23,14.78,2.58,19.01-3.69
						c4.23-6.27,2.58-14.78-3.69-19.01C1872.49,1547.4,1863.98,1549.05,1859.75,1555.31z"/>
				</g>
				<path style="fill:#65CA97;" d="M1672.38,1562.68c8.71,11.38,13.4,24.34,14.24,36.81c-11.81-4.08-23.09-12-31.8-23.38
					c-8.71-11.38-13.4-24.34-14.24-36.81C1652.39,1543.39,1663.67,1551.3,1672.38,1562.68z"/>
			</g>
		</g>
		<path style="opacity:0.36;clip-path:url(#XMLID_00000170270029551814393450000011257105813017906863_);fill:#CE6BF2;" d="
			M780.21,1507.01c0,0-50.78,151.12-305.41,158.76c-254.63,7.63-185.94,494.59-185.94,494.59l-473.22-15.27L0,1363.85l701.01,28.1
			L780.21,1507.01z"/>
		<path style="opacity:0.39;clip-path:url(#XMLID_00000170270029551814393450000011257105813017906863_);fill:#CE6BF2;" d="
			M1414.95,1551.68c0,0,467.58,120.19,363.78,559.82s207.6,247.29,207.6,247.29l-64.11-772.41l-545.59-199.36L1414.95,1551.68z"/>
	</g>
	<path style="fill:#DD0044;" d="M1438.31,1268.87c-40.85,19.54-91.18,24.44-134.76,11.51c-33.55-9.84-63.19-31.77-82.64-60.79
		c-4.8-7.03-9.05-14.63-12.73-22.3c-1.19-2.58-2.32-5.19-3.42-7.8c4.94,6.87,9.91,13.7,15.35,20.14
		c19.13,23.28,43.43,42.63,71.53,53.86C1338.06,1282.17,1390.2,1279.99,1438.31,1268.87L1438.31,1268.87z"/>
	<g>
		<defs>
			<path id="XMLID_00000175296575092223727990000014180757681898855045_" d="M638.94,881.14c0,0-60.04,496.62,331.76,505.78
				c391.8,9.16,276.81-572.95,276.81-572.95C1243.74,807.64,1018.52,987.04,638.94,881.14z"/>
		</defs>
		<use xlink:href="#XMLID_00000175296575092223727990000014180757681898855045_"  style="overflow:visible;fill:#F36979;"/>
		<clipPath id="XMLID_00000039823204568861271440000015024376078919981219_">
			<use xlink:href="#XMLID_00000175296575092223727990000014180757681898855045_"  style="overflow:visible;"/>
		</clipPath>
		<path style="opacity:0.6;clip-path:url(#XMLID_00000039823204568861271440000015024376078919981219_);fill:#FFBBC5;" d="
			M1091.47,1387.03c0,0-348.73-40.87-399.61-286.61C640.97,854.68,474.07,734.6,474.07,734.6L29.35,830.2l273.94,529.4
			c0,0,235.91,322.95,281.7,330.58C630.8,1697.82,1091.47,1387.03,1091.47,1387.03z"/>
	</g>
	<path style="fill:#1E1919;" d="M638.94,881.14c20.33-29.93,99.23-118.47,234.17-154.41c204.96-54.59,361.2,75.44,374.39,87.24
		C1247.5,813.98,1070.43,1014.46,638.94,881.14z"/>
	<g>
		<defs>
			<path id="XMLID_00000019672971923189406000000007232649060344725912_" d="M842.47,930.95C716.4,776.11,572.3,695.22,474.07,734.6
				c-46.96,18.83-88.53,67.19-79.38,89.55c13.4,32.75,121.95-23.57,246.28,30.53C703.76,882,781.4,942.19,781.41,942.2l0,0
				c0,0,2.36,14.04,6.55,17.52C792.79,963.73,806.78,959.34,842.47,930.95z"/>
		</defs>
		<use xlink:href="#XMLID_00000019672971923189406000000007232649060344725912_"  style="overflow:visible;fill:#4DAD81;"/>
		<clipPath id="XMLID_00000051353439503171149370000003553436220456985494_">
			<use xlink:href="#XMLID_00000019672971923189406000000007232649060344725912_"  style="overflow:visible;"/>
		</clipPath>
		<path style="clip-path:url(#XMLID_00000051353439503171149370000003553436220456985494_);fill:#14472E;" d="M477.13,763.92
			c20.05-3.98,40.99-4.02,61.36-2.07c45.3,4.37,89.15,20.79,126.98,46.1c54.73,36.88,96.19,91.79,122.5,151.77
			c-26.59-45.67-58.23-88.41-98.64-122.48c-4.16-3.64-9.82-7.81-14.13-11.33c-3.7-2.78-8.48-6.06-12.25-8.8
			c-0.61-0.45-1.85-1.3-2.5-1.69c-36.74-24.63-78.83-41.57-122.62-48.47C517.81,763.82,497.47,762.34,477.13,763.92L477.13,763.92z"
			/>
	</g>
	<g>
		<defs>
			<path id="XMLID_00000111184464452487270970000015608385548010132119_" d="M1078.57,907.6c0,0-29.51-300.21,185.22-333.8
				c214.73-33.58,74.29,59.36-22.39,169.1s-85.48,218.09-85.48,218.09L1078.57,907.6z"/>
		</defs>
		<use xlink:href="#XMLID_00000111184464452487270970000015608385548010132119_"  style="overflow:visible;fill:#4DAD81;"/>
		<clipPath id="XMLID_00000016755860788545918670000005166865277323902090_">
			<use xlink:href="#XMLID_00000111184464452487270970000015608385548010132119_"  style="overflow:visible;"/>
		</clipPath>
		<path style="clip-path:url(#XMLID_00000016755860788545918670000005166865277323902090_);fill:#0D4229;" d="M1263.23,622.65
			c-17.4,9.87-32.62,23.26-46.35,37.7c-18.53,19.69-33.89,42.34-46.41,66.26c-28.52,54.74-41.5,116.44-48.05,177.43
			c-0.52,6-1.47,15.85-2.14,21.88c-1.58-29.31-0.25-58.88,4.21-88.07c8.68-58.41,30.2-116.42,68.83-161.74
			C1212.01,654.28,1236.33,633.25,1263.23,622.65L1263.23,622.65z"/>
	</g>
	<g>
		<defs>
			<path id="XMLID_00000021815933522657562630000014318013532531556266_" d="M851.66,920.32c0,0-29.51-300.21,185.22-333.8
				c214.73-33.58,74.29,59.36-22.39,169.1S912.66,947.29,912.66,947.29L851.66,920.32z"/>
		</defs>
		<use xlink:href="#XMLID_00000021815933522657562630000014318013532531556266_"  style="overflow:visible;fill:#69CC9D;"/>
		<clipPath id="XMLID_00000134952096984327583160000010502838799739423127_">
			<use xlink:href="#XMLID_00000021815933522657562630000014318013532531556266_"  style="overflow:visible;"/>
		</clipPath>
		<path style="clip-path:url(#XMLID_00000134952096984327583160000010502838799739423127_);fill:#0D4229;" d="M1036.32,635.37
			c-17.4,9.87-32.62,23.26-46.35,37.7c-18.53,19.69-33.89,42.34-46.41,66.26c-28.52,54.74-41.5,116.44-48.05,177.43
			c-0.52,6-1.47,15.85-2.14,21.88c-1.58-29.31-0.25-58.88,4.21-88.07c8.68-58.41,30.2-116.42,68.83-161.74
			C985.09,667,1009.41,645.97,1036.32,635.37L1036.32,635.37z"/>
	</g>
	<path style="fill:#4DAD81;" d="M991.03,974.99c-7.28,0-13.42-5.63-13.95-13c-5.27-73.62,6.69-145.29,35.53-213.01
		c22.99-53.98,56.68-105.51,100.14-153.16c73.77-80.89,149.34-122.17,152.53-123.89c6.81-3.67,15.3-1.14,18.97,5.67
		s1.14,15.29-5.66,18.97c-0.92,0.5-75.25,41.26-145.75,118.79c-93.79,103.15-136.8,219.1-127.82,344.64
		c0.55,7.71-5.25,14.41-12.97,14.96C991.71,974.98,991.37,974.99,991.03,974.99z"/>
	<g>
		<path style="fill:#4DAD81;" d="M915.86,954.12c-3.36,0-6.7-1.41-9.07-4.15c-71-82.18-99.68-162.92-85.24-239.98
			c9.62-51.38,39.27-101.27,85.74-144.27c34.8-32.21,66.51-49.19,67.84-49.9c5.84-3.1,13.09-0.88,16.19,4.96s0.88,13.09-4.96,16.19
			c-0.63,0.34-30.92,16.69-63.32,46.8c-29.57,27.48-67.1,72.47-77.98,130.77c-12.96,69.49,13.91,143.43,79.85,219.77
			c4.32,5,3.77,12.57-1.23,16.89C921.42,953.16,918.64,954.12,915.86,954.12z"/>
		<path style="fill:#C03FFC;" d="M1008.72,597.35c7.34-2.24,14.01-5.14,18.41-10.53c2.59-3.17,4.07-6.51,3.63-9.99
			c-0.36-2.85,0.83-2.52,3.39-1.76c8.41,2.48,17.16,2.69,26.27,0.23c11.06-2.98,17.91-11.13,15.75-19.45
			c-0.73-2.83-0.24-3.78,3.92-3.86c5.7-0.11,11.45-0.85,16.87-2.75c19.96-6.99,26.14-22.06,14.64-35.1
			c-5.6-6.34-13.12-11.04-21.68-14.86c-3.11-1.39-2.76-2.06,0.18-3.58c11.42-5.94,19.63-13.58,23.07-23.79
			c7.4-21.95-16.14-41.66-45.54-37.92c-3.09,0.39-3.23-0.39-2.88-2.33c1.93-10.53-0.25-20.16-8.65-28.25
			c-10.03-9.67-26.39-11.41-41.45-4.5c-7.46,3.43-13.68,7.87-18.44,13.45c-2.59,3.03-2.61,3.02-5.03,0.07
			c-0.72-0.88-1.62-1.68-2.28-2.58c-11.67-15.94-44.75-13.38-57.61,5.56c-6.13,9.03-8.47,18.32-7.08,27.89
			c0.38,2.6,0.37,3.48-3.71,2.63c-11.86-2.47-23.44-0.89-34,5.08c-12.71,7.19-17.56,20.21-12.1,31.55
			c2.96,6.15,7.16,11.71,12.99,16.47c3.42,2.79,3.34,2.8-1.63,4.19c-10.41,2.9-19.52,7.43-26.49,14.17
			c-15.87,15.32-7.33,32.57,7.94,40.49c8.97,4.65,19.22,5.7,30.27,3.86c3.22-0.54,3.86,0.06,3.85,2.29
			c-0.02,8.65,3.92,15.88,13.03,20.69c13.18,6.96,34.42,3.15,45.3-7.8c0.77-0.78,1.19-2.11,2.61-2.09c1.42,0.02,1.54,1.3,1.96,2.14
			c5.27,10.59,14.47,17.97,29.59,20.55C998.6,599.41,1003.6,598.96,1008.72,597.35z"/>
		<path style="fill:#FE7A01;" d="M1026.35,499.7c-4.71-17.59-21.69-28.88-43.73-29.06c-18.26-0.15-34.67,8.35-40.23,21.58
			c-4.59,10.91-1.05,20.73,6.2,29.69c9.19,11.36,29.54,18.18,45.74,15.37C1017.18,533.33,1031.01,517.1,1026.35,499.7z"/>
	</g>
	<g>
		<path style="fill:#4DAD81;" d="M832.96,978.67c-0.16,0-0.33,0-0.5-0.01c-7.73-0.27-13.77-6.75-13.51-14.48
			c4.25-122.33-26.61-215.72-91.71-277.59c-52.11-49.52-117.32-69.57-162.85-77.68c-49.99-8.9-88.01-5.79-88.39-5.76
			c-7.7,0.67-14.48-5.04-15.15-12.74c-0.67-7.7,5.02-14.48,12.72-15.16c1.66-0.15,41.38-3.47,94.78,5.91
			c49.52,8.7,120.6,30.5,177.99,84.93c71.3,67.63,105.14,168.24,100.6,299.04C846.68,972.72,840.46,978.67,832.96,978.67z"/>
		<path style="fill:#FEB03D;" d="M500.87,678.47c-8.2,2.48-16.28,3.88-24.12,1.31c-4.61-1.51-8.35-3.9-10.47-7.68
			c-1.73-3.09-2.56-1.99-4.32,0.42c-5.76,7.92-13.46,13.76-23.41,17.18c-12.08,4.15-24.11,0.38-28.17-9.36
			c-1.38-3.31-2.51-3.95-6.3-1.34c-5.19,3.57-10.89,6.53-17.13,8.13c-22.96,5.86-39.39-5.28-38.46-25.79
			c0.45-9.98,3.82-19.55,8.75-28.9c1.79-3.4,0.99-3.84-2.74-3.48c-14.54,1.4-27.42-0.97-37.87-9
			c-22.48-17.27-15.56-52.23,13.53-67.45c3.06-1.6,2.62-2.48,0.9-4.19c-9.33-9.32-14.32-20.4-12.62-33.94
			c2.03-16.17,15.46-28.48,33.96-31.26c9.17-1.37,17.96-0.92,26.26,1.61c4.51,1.37,4.52,1.34,4.57-3.18
			c0.02-1.35,0.24-2.73,0.18-4.06c-1.02-23.53,30.53-42.31,55.73-31.59c12.01,5.11,20.82,12.93,26.48,23.43
			c1.54,2.85,2.17,3.73,5.22,0.25c8.86-10.13,20.41-16.01,34.19-16.83c16.59-0.99,30.34,8.96,33.62,23.86
			c1.78,8.08,2.02,16.37,0.22,24.91c-1.06,5.01-0.98,4.97,4.49,3.15c11.43-3.8,22.88-5.13,34-2.87
			c25.3,5.14,30.08,27.97,22.08,45.77c-4.7,10.46-13.14,18.12-24.39,23.41c-3.28,1.54-3.42,2.55-1.81,4.78
			c6.25,8.67,7.93,18.47,3.23,29.17c-6.81,15.49-28.63,25.37-46.3,21.39c-1.25-0.28-2.59-1.35-3.85-0.41
			c-1.27,0.93-0.45,2.29-0.21,3.42c2.9,14.03-0.02,27.38-11.75,39.72C511.44,674.02,506.63,676.8,500.87,678.47z"/>
		<path style="fill:#FE7A01;" d="M414.6,591.83c-8.46-20.7-1.36-42.98,18.3-57.39c16.28-11.93,37.15-13.99,51.69-4.29
			c11.99,7.99,15.9,20.14,15.85,33.81c-0.06,17.33-13.41,37.3-29.97,44.94C447.09,619.67,422.97,612.3,414.6,591.83z"/>
	</g>
	<g>
		<defs>
			<path id="XMLID_00000136391346947778563570000014055735169900738480_" d="M638.94,881.14c0,0,154.37,51.6,330.95,34.41
				c92.8-9.04,191.73-37.07,277.62-101.57c0,0,15.82,122.06,15.73,144.51c0,0-161.26,130.26-320.02-11.19
				c-22.64,20.53-165.6,143.84-303.36,84.75C639.86,1032.04,627.74,924.9,638.94,881.14z"/>
		</defs>
		<use xlink:href="#XMLID_00000136391346947778563570000014055735169900738480_"  style="overflow:visible;fill:#DD0044;"/>
		<clipPath id="XMLID_00000058583509023650073910000012158763939609441464_">
			<use xlink:href="#XMLID_00000136391346947778563570000014055735169900738480_"  style="overflow:visible;"/>
		</clipPath>
		<path style="clip-path:url(#XMLID_00000058583509023650073910000012158763939609441464_);fill:#F42771;" d="M702.03,1000
			c70.61-11.33,191.26-26.61,239.11-82.37c3.77-4.36,7.03-9.16,10.02-14.1c-1.71,5.65-4.09,11.07-7.07,16.18
			C903.65,987.48,774.71,1005.88,702.03,1000L702.03,1000z"/>
		<path style="clip-path:url(#XMLID_00000058583509023650073910000012158763939609441464_);fill:#F42771;" d="M688.8,947.29
			c56.26-7.58,125.15-12.63,170.3-49.4c6.69-5.52,12.53-11.88,17.96-18.79c-2.4,8.63-6.69,16.85-12.24,24.18
			C827.98,951.28,744.19,960.9,688.8,947.29L688.8,947.29z"/>
		<path style="clip-path:url(#XMLID_00000058583509023650073910000012158763939609441464_);fill:#F42771;" d="M1187.04,977.82
			c-60.25,18.9-161.21,19.96-203.65-34.48c-6.43-8.32-11.06-17.9-13.5-27.79c5.18,8.59,11.24,16.5,18.6,23.17
			C1036.18,981.93,1125.57,978.49,1187.04,977.82L1187.04,977.82z"/>
		<path style="clip-path:url(#XMLID_00000058583509023650073910000012158763939609441464_);fill:#F42771;" d="M1204.76,919.81
			c-27.66,14.28-62.43,17.19-92.26,7.5c-11.48-3.82-22.51-9.56-31.81-17.38c-1.31-1.18-3.38-2.69-4.58-3.95
			c-1.41-1.47-5.07-4.91-6.29-6.5c-7.2-8.16-12.98-17.59-17.07-27.64c-1.53-3.56-2.57-7.37-3.7-11.06
			c9.3,12.41,18.98,23.78,30.29,32.88C1114.29,922.34,1161.25,924.66,1204.76,919.81L1204.76,919.81z"/>
	</g>
	<path d="M826,1110.9c-20.66,0-44.42-7.29-66.87-31.14l-29.41-4.2c-4.1-0.59-6.95-4.38-6.36-8.49c0.59-4.1,4.39-6.94,8.49-6.36
		l32.06,4.58c1.74,0.25,3.33,1.1,4.51,2.4c22.8,25.25,49.76,33.63,80.13,24.91c23.48-6.74,40.44-21.54,40.61-21.69
		c3.1-2.74,7.84-2.45,10.58,0.65c2.74,3.1,2.46,7.83-0.64,10.58c-0.78,0.69-19.31,16.95-45.9,24.72
		C845.18,1109.21,835.95,1110.9,826,1110.9z"/>
	<path d="M1091.81,1099.96c-9.95,0-19.17-1.69-27.19-4.03c-26.59-7.78-45.12-24.04-45.9-24.72c-3.1-2.75-3.38-7.49-0.63-10.59
		c2.75-3.1,7.49-3.38,10.58-0.64c0.35,0.31,17.26,14.98,40.61,21.68c30.37,8.72,57.33,0.34,80.13-24.91c1.17-1.3,2.77-2.15,4.51-2.4
		l32.06-4.58c4.09-0.58,7.9,2.26,8.49,6.36c0.59,4.1-2.26,7.9-6.36,8.49l-29.41,4.2
		C1136.24,1092.67,1112.48,1099.96,1091.81,1099.96z"/>
	<path style="fill:#DD0044;" d="M0,1632.22c82.95-115.44,258.92-281.9,409.91-274.77c8.44,0.4,17,1.45,25.28,3.09
		c2.76,0.6,5.51,1.23,8.24,1.87c-6.98-0.55-13.99-1.02-20.98-0.95c-17.98,0.03-36.07,2.57-53.53,6.64
		C237.19,1399.8,93.72,1536,0,1632.22L0,1632.22z"/>
	<path style="fill:#DD0044;" d="M1884.82,1467.32c-113.18-61.48-232.87-114.99-359.95-139.11c-42.22-7.71-85.26-11.45-128.53-8.96
		c5.34-0.89,10.69-1.76,16.08-2.41c5.39-0.7,10.79-1.17,16.2-1.65c6.46-0.51,13.96-0.83,20.36-1.03
		C1595.37,1311.05,1766.11,1384.35,1884.82,1467.32L1884.82,1467.32z"/>
	<path style="fill:#DD0044;" d="M855.19,1045.9c-2.68,0-5.12-1.81-5.81-4.53c-0.81-3.21,1.13-6.48,4.34-7.29
		c1.13-0.29,98.33-25.82,83.68-85.36c-0.79-3.22,1.17-6.47,4.39-7.26c3.21-0.79,6.47,1.17,7.26,4.39
		c7.34,29.82-6.69,56.67-40.58,77.65c-24.55,15.2-50.7,21.93-51.8,22.21C856.17,1045.84,855.67,1045.9,855.19,1045.9z"/>
	<path style="fill:#0C0608;" d="M938.39,1133.67c-1.57,0-3.13-0.61-4.31-1.82c-2.31-2.38-2.25-6.18,0.13-8.48
		c18.81-18.24,8.73-70.16,3.26-88.63c-0.94-3.18,0.87-6.52,4.05-7.46c3.17-0.94,6.51,0.87,7.46,4.04
		c0.89,2.99,21.45,73.63-6.41,100.66C941.4,1133.11,939.89,1133.67,938.39,1133.67z"/>
	<path style="fill:#0C0608;" d="M955.18,1169.54c-0.39,0-0.79-0.04-1.18-0.12c-3.55-0.71-34.9-7.34-43.78-21.52
		c-2.47-3.95-3.19-8.3-2.07-12.59c1.1-4.2,3.8-7.6,7.82-9.83c14.91-8.26,47.02,1.43,50.63,2.56c3.16,0.99,4.92,4.36,3.93,7.52
		c-0.99,3.16-4.36,4.92-7.52,3.93c-11.76-3.68-33.36-7.88-41.23-3.52c-1.45,0.81-1.84,1.64-2.03,2.36c-0.2,0.76-0.28,1.74,0.63,3.2
		c4.63,7.41,24.52,13.82,35.96,16.12c3.25,0.65,5.35,3.81,4.7,7.06C960.49,1167.57,957.98,1169.54,955.18,1169.54z"/>
	<path style="fill:#4C001D;" d="M900.07,1207.54c43.21,13.27,80.59,13.01,122.68-3.4c8.02-3.15,16.1-6.72,23.98-10.23
		c3.23-1.51,6.48-3.06,9.96-4.42c-4.05,6.15-8.84,11.76-14.16,16.87c-16.34,15.55-37.6,26.08-60.03,29.04
		C953.42,1239.47,919.52,1230.29,900.07,1207.54L900.07,1207.54z"/>
	<path style="fill:#FC35A2;" d="M1260.13,582.02c-8.22-2.42-15.74-5.68-20.9-12.12c-3.02-3.79-4.84-7.84-4.55-12.16
		c0.24-3.54-1.05-3.07-3.84-2.02c-9.16,3.47-18.81,4.13-29,1.54c-12.37-3.15-20.37-12.9-18.43-23.27c0.66-3.53,0.06-4.68-4.53-4.58
		c-6.3,0.14-12.69-0.5-18.78-2.59c-22.41-7.68-30.05-26-18.04-42.65c5.84-8.1,13.91-14.26,23.16-19.38
		c3.36-1.86,2.94-2.67-0.39-4.42c-12.93-6.79-22.4-15.84-26.75-28.28c-9.34-26.76,15.61-52.22,48.28-49
		c3.43,0.34,3.55-0.64,3.05-3.01c-2.69-12.91-0.8-24.91,8.04-35.3c10.56-12.41,28.54-15.35,45.54-7.54
		c8.43,3.88,15.52,9.07,21.09,15.73c3.02,3.62,3.04,3.6,5.56-0.16c0.75-1.12,1.7-2.15,2.38-3.3c12.04-20.24,48.72-18.66,63.93,4.12
		c7.25,10.85,10.33,22.22,9.31,34.11c-0.28,3.22-0.23,4.31,4.23,3.07c12.97-3.62,25.84-2.21,37.83,4.66
		c14.42,8.27,20.47,24.12,15.04,38.38c-2.94,7.73-7.29,14.8-13.47,20.96c-3.63,3.61-3.54,3.62,2.03,5.1
		c11.65,3.08,21.95,8.25,30.01,16.23c18.34,18.17,9.83,39.88-6.61,50.38c-9.66,6.17-20.92,7.96-33.23,6.21
		c-3.59-0.51-4.25,0.26-4.13,3.01c0.48,10.68-3.49,19.79-13.29,26.17c-14.19,9.23-37.85,5.53-50.45-7.48
		c-0.89-0.92-1.43-2.54-3-2.46c-1.57,0.09-1.63,1.67-2.05,2.74c-5.26,13.33-15.02,22.89-31.59,26.79
		C1271.41,584.09,1265.87,583.77,1260.13,582.02z"/>
	<path style="fill:#FE7A01;" d="M1235.45,462.27c4.26-21.95,22.42-36.7,46.76-37.98c20.16-1.06,38.74,8.66,45.59,24.73
		c5.65,13.26,2.27,25.56-5.26,36.97c-9.55,14.46-31.66,23.85-49.7,21.16C1247.37,503.36,1231.23,483.98,1235.45,462.27z"/>
	<path style="fill:#FC35A2;" d="M867.16,817.93c4.18-1.23,8-2.88,10.62-6.16c1.54-1.92,2.46-3.98,2.31-6.18
		c-0.12-1.8,0.53-1.56,1.95-1.02c4.65,1.76,9.55,2.1,14.73,0.78c6.29-1.6,10.35-6.55,9.37-11.82c-0.33-1.79-0.03-2.38,2.3-2.33
		c3.2,0.07,6.45-0.26,9.54-1.32c11.39-3.9,15.27-13.21,9.17-21.67c-2.97-4.11-7.06-7.25-11.77-9.85c-1.71-0.94-1.49-1.36,0.2-2.24
		c6.57-3.45,11.38-8.05,13.59-14.37c4.74-13.6-7.93-26.53-24.53-24.9c-1.74,0.17-1.8-0.32-1.55-1.53
		c1.37-6.56,0.41-12.66-4.09-17.94c-5.37-6.31-14.5-7.8-23.14-3.83c-4.28,1.97-7.89,4.61-10.71,7.99c-1.54,1.84-1.55,1.83-2.83-0.08
		c-0.38-0.57-0.86-1.09-1.21-1.68c-6.12-10.28-24.75-9.48-32.48,2.09c-3.68,5.51-5.25,11.29-4.73,17.33
		c0.14,1.64,0.12,2.19-2.15,1.56c-6.59-1.84-13.13-1.12-19.22,2.37c-7.33,4.2-10.4,12.26-7.64,19.5c1.5,3.93,3.7,7.52,6.84,10.65
		c1.84,1.84,1.8,1.84-1.03,2.59c-5.92,1.57-11.15,4.19-15.25,8.25c-9.32,9.23-4.99,20.26,3.36,25.6c4.91,3.14,10.63,4.04,16.88,3.16
		c1.82-0.26,2.16,0.13,2.1,1.53c-0.24,5.42,1.77,10.06,6.75,13.3c7.21,4.69,19.23,2.81,25.63-3.8c0.45-0.47,0.72-1.29,1.52-1.25
		c0.8,0.04,0.83,0.85,1.04,1.39c2.67,6.77,7.63,11.63,16.05,13.61C861.43,818.98,864.25,818.82,867.16,817.93z"/>
	<path style="fill:#FE7A01;" d="M879.7,757.09c-2.17-11.15-11.39-18.64-23.76-19.29c-10.24-0.54-19.68,4.4-23.16,12.57
		c-2.87,6.74-1.15,12.98,2.67,18.78c4.85,7.35,16.09,12.12,25.25,10.75C873.64,777.97,881.84,768.12,879.7,757.09z"/>
	<path style="fill:#F99C38;" d="M1063.72,896.6c-4.7-1.38-9-3.25-11.95-6.93c-1.73-2.17-2.77-4.48-2.6-6.95
		c0.14-2.02-0.6-1.76-2.19-1.15c-5.24,1.98-10.75,2.36-16.58,0.88c-7.08-1.8-11.65-7.37-10.54-13.31c0.38-2.02,0.03-2.68-2.59-2.62
		c-3.6,0.08-7.26-0.29-10.74-1.48c-12.82-4.39-17.19-14.87-10.32-24.39c3.34-4.63,7.95-8.16,13.24-11.08
		c1.92-1.06,1.68-1.53-0.22-2.53c-7.39-3.89-12.81-9.06-15.29-16.17c-5.34-15.3,8.93-29.86,27.61-28.02
		c1.96,0.19,2.03-0.36,1.75-1.72c-1.54-7.38-0.46-14.25,4.6-20.19c6.04-7.1,16.32-8.78,26.04-4.31c4.82,2.22,8.88,5.19,12.06,9
		c1.73,2.07,1.74,2.06,3.18-0.09c0.43-0.64,0.97-1.23,1.36-1.89c6.89-11.57,27.86-10.67,36.56,2.35c4.15,6.21,5.91,12.71,5.32,19.51
		c-0.16,1.84-0.13,2.47,2.42,1.76c7.42-2.07,14.78-1.27,21.63,2.66c8.25,4.73,11.71,13.8,8.6,21.95c-1.68,4.42-4.17,8.47-7.7,11.99
		c-2.08,2.07-2.02,2.07,1.16,2.91c6.66,1.76,12.55,4.72,17.16,9.28c10.49,10.39,5.62,22.81-3.78,28.81
		c-5.53,3.53-11.97,4.55-19,3.55c-2.05-0.29-2.43,0.15-2.36,1.72c0.28,6.11-1.99,11.32-7.6,14.97c-8.11,5.28-21.64,3.16-28.85-4.28
		c-0.51-0.53-0.82-1.46-1.71-1.4c-0.9,0.05-0.93,0.96-1.17,1.57c-3.01,7.62-8.59,13.09-18.07,15.32
		C1070.18,897.78,1067,897.6,1063.72,896.6z"/>
	<path style="fill:#FE7A01;" d="M1049.61,828.12c2.44-12.55,12.82-20.99,26.74-21.72c11.53-0.61,22.15,4.95,26.07,14.14
		c3.23,7.58,1.3,14.62-3.01,21.14c-5.46,8.27-18.11,13.64-28.42,12.1C1056.43,851.62,1047.2,840.54,1049.61,828.12z"/>
	<path d="M624.31,1151.11c-2.14,0-4.17-1.25-5.06-3.35c-12.4-29.13-27.4-47.17-43.37-52.16c-12.41-3.88-21.44,1.48-21.52,1.53
		c-2.57,1.62-5.97,0.85-7.59-1.72c-1.62-2.57-0.85-5.97,1.72-7.58c0.53-0.34,13.27-8.17,30.67-2.73
		c19.42,6.08,36.32,25.71,50.21,58.35c1.19,2.8-0.11,6.03-2.91,7.21C625.76,1150.97,625.03,1151.11,624.31,1151.11z"/>
	<path d="M568.98,1143.09c-2,0-3.94-1.1-4.91-3.01c-1.38-2.71-0.3-6.02,2.41-7.4l40.21-20.45c2.71-1.38,6.02-0.3,7.4,2.41
		c1.38,2.71,0.3,6.02-2.41,7.4l-40.21,20.45C570.67,1142.9,569.81,1143.09,568.98,1143.09z"/>
	<path d="M1266.58,1102.64c-0.04,0-0.08,0-0.11,0c-3.04-0.06-5.45-2.57-5.39-5.61c0.33-16.17,5.84-28.51,16.39-36.68
		c22.15-17.16,58.3-8.87,59.83-8.51c2.96,0.7,4.79,3.66,4.09,6.62c-0.7,2.96-3.66,4.78-6.61,4.09l0,0
		c-0.33-0.08-32.62-7.44-50.6,6.52c-7.77,6.03-11.84,15.52-12.1,28.19C1272.02,1100.25,1269.57,1102.64,1266.58,1102.64z"/>
	<path d="M1331.46,1091.28c-0.56,0-1.13-0.09-1.7-0.27l-54.43-17.64c-2.89-0.94-4.47-4.04-3.54-6.93c0.94-2.89,4.04-4.47,6.93-3.54
		l54.43,17.64c2.89,0.94,4.47,4.04,3.54,6.93C1335.94,1089.8,1333.78,1091.28,1331.46,1091.28z"/>
</g>
<g id="Layer_5">
	<circle style="opacity:0.61;fill:#FFF655;" cx="747.32" cy="1250.72" r="113.13"/>
	<circle style="opacity:0.61;fill:#FFF655;" cx="1204.76" cy="1226.62" r="113.29"/>
</g>
</svg>
