<?xml version="1.0" encoding="UTF-8"?>
<!DOCTYPE svg PUBLIC "-//W3C//DTD SVG 1.1//EN" "http://www.w3.org/Graphics/SVG/1.1/DTD/svg11.dtd">
<!-- Creator: CorelDRAW -->
<svg xmlns="http://www.w3.org/2000/svg" xml:space="preserve" width="5500px" height="4000px" version="1.1" style="shape-rendering:geometricPrecision; text-rendering:geometricPrecision; image-rendering:optimizeQuality; fill-rule:evenodd; clip-rule:evenodd"
viewBox="0 0 4320.39 3142.1"
 xmlns:xlink="http://www.w3.org/1999/xlink"
 xmlns:xodm="http://www.corel.com/coreldraw/odm/2003">
 <defs>
  <style type="text/css">
   <![CDATA[
    .fil12 {fill:#182035}
    .fil10 {fill:#1959D4}
    .fil1 {fill:#1E439E}
    .fil6 {fill:#233567}
    .fil0 {fill:#3766D0}
    .fil13 {fill:#4176E6}
    .fil11 {fill:#588EF0}
    .fil3 {fill:#8C91AE}
    .fil2 {fill:#ADCCF8}
    .fil5 {fill:#B6B9CC}
    .fil8 {fill:#D43C00}
    .fil15 {fill:#D4D6E2}
    .fil14 {fill:#E04C12}
    .fil4 {fill:#FEFEFE}
    .fil9 {fill:#FF6600}
    .fil7 {fill:#182035;fill-rule:nonzero}
    .fil16 {fill:#233567;fill-rule:nonzero}
    .fil17 {fill:#B6B9CC;fill-rule:nonzero}
   ]]>
  </style>
 </defs>
 <g id="Layer_x0020_1">
  <metadata id="CorelCorpID_0Corel-Layer"/>
  <g id="_2164993795760">
   <polygon class="fil0" points="0,0 4320.39,0 4320.39,3142.1 0,3142.1 "/>
   <path class="fil1" d="M2207.75 2858.53l285.64 -1.61 1599.2 -844.54 -337.87 -166.1c0,0 -1575.39,527.08 -1546.97,1012.27l0 -0.02z"/>
   <polygon class="fil2" points="2091.93,501.97 2019.18,539.72 545.82,1129.66 545.82,1995.82 2207.75,2858.53 3752.5,2026.76 3752.5,1160.58 "/>
   <polygon class="fil3" points="2210.34,2857.14 3752.5,2026.73 3752.5,1160.58 3462.64,1045.61 2210.34,1045.61 "/>
   <polygon class="fil4" points="2091.93,298.57 2019.18,336.31 545.82,1129.66 2207.75,1992.37 3752.5,1160.58 "/>
   <path class="fil5" d="M2128.9 646.58c483.87,0 876.14,210.06 876.14,469.15 0,259.12 -392.25,469.15 -876.14,469.15 -483.87,0 -876.14,-210.05 -876.14,-469.15 0,-259.12 392.25,-469.15 876.14,-469.15z"/>
   <path class="fil6" d="M2119.72 594.43c474.88,0 859.83,206.15 859.83,460.44 0,254.29 -384.97,460.44 -859.83,460.44 -474.89,0 -859.83,-206.15 -859.83,-460.44 0,-254.29 384.96,-460.44 859.83,-460.44z"/>
   <path class="fil7" d="M2119.72 822.5c112.46,0 214.36,24.45 288.19,63.99 74.56,39.92 120.7,95.34 120.7,156.79 0,61.43 -46.11,116.84 -120.7,156.79 -73.83,39.54 -175.73,63.99 -288.19,63.99 -112.47,0 -214.37,-24.45 -288.2,-63.99 -74.56,-39.93 -120.7,-95.34 -120.7,-156.79 0,-61.43 46.11,-116.85 120.7,-156.79 73.83,-39.54 175.73,-63.99 288.2,-63.99zm284.5 70.88c-72.73,-38.95 -173.31,-63.04 -284.5,-63.04 -111.2,0 -211.78,24.09 -284.5,63.04 -72,38.54 -116.53,91.56 -116.53,149.87 0,58.32 44.53,111.34 116.53,149.88 72.72,38.95 173.32,63.04 284.5,63.04 111.19,0 211.77,-24.09 284.5,-63.04 71.99,-38.54 116.52,-91.56 116.52,-149.88 0,-58.31 -44.53,-111.33 -116.52,-149.87z"/>
   <path class="fil8" d="M1174.82 1234.39c0,21.32 -38.9,38.61 -86.9,38.61 -48,0 -86.9,-17.29 -86.9,-38.61l0 -107.25 173.82 0 0 107.25 -0.02 0z"/>
   <path class="fil9" d="M1087.92 1088.51c48,0 86.9,17.28 86.9,38.61 0,21.32 -38.9,38.61 -86.9,38.61 -48,0 -86.9,-17.29 -86.9,-38.61 0,-21.32 38.9,-38.61 86.9,-38.61z"/>
   <path class="fil10" d="M908.56 1125.35c0,21.32 -38.9,38.61 -86.9,38.61 -48,0 -86.9,-17.29 -86.9,-38.61l0 -107.25 173.82 0 0 107.25 -0.02 0z"/>
   <path class="fil11" d="M821.63 979.47c48,0 86.91,17.28 86.91,38.61 0,21.32 -38.91,38.6 -86.91,38.6 -47.99,0 -86.9,-17.28 -86.9,-38.6 0,-21.33 38.91,-38.61 86.9,-38.61z"/>
   <path class="fil10" d="M1058.88 1019.73c0,15.72 -28.67,28.47 -64.05,28.47 -35.39,0 -64.06,-12.75 -64.06,-28.47l0 -113.53 128.14 0 0 113.53 -0.03 0z"/>
   <path class="fil11" d="M994.8 877.73c35.39,0 64.06,12.75 64.06,28.47 0,15.72 -28.69,28.47 -64.06,28.47 -35.38,0 -64.08,-12.75 -64.08,-28.47 0,-15.72 28.7,-28.47 64.08,-28.47z"/>
   <path class="fil10" d="M1947.75 539.79c0,21.32 -38.93,38.61 -86.9,38.61 -48,0 -86.9,-17.29 -86.9,-38.61l0 -46.84 173.82 0 0 46.84 -0.02 0z"/>
   <path class="fil11" d="M1860.85 454.34c48,0 86.9,17.28 86.9,38.61 0,21.32 -38.9,38.6 -86.9,38.6 -48,0 -86.9,-17.28 -86.9,-38.6 0,-21.33 38.9,-38.61 86.9,-38.61z"/>
   <polygon class="fil6" points="1817.11,1659.64 1812.03,1662.27 1793.66,1672.16 2237.1,1903.99 2260.47,1891.43 "/>
   <path class="fil10" d="M2223.83 447.62c0,23.89 -43.59,43.26 -97.35,43.26 -53.77,0 -97.36,-19.37 -97.36,-43.26l0 -120.15 194.71 0 0 120.15z"/>
   <path class="fil12" d="M3254.02 1010.64c96.34,0 178.86,31.62 213.41,76.51l17.33 0.16 -0.77 36.79c0.5,3.33 0.77,6.69 0.77,10.07 0,4.36 -0.43,8.64 -1.25,12.89l0 0.02 0 0c-12.07,62.18 -110.2,110.65 -229.49,110.65 -127.44,0 -230.74,-55.33 -230.74,-123.56l0.13 -51.33 20.49 0.2c36.31,-42.73 116.73,-72.43 210.12,-72.43l0 0.03z"/>
   <polygon class="fil10" points="1831.74,1719.39 1897.89,1753.71 1975.99,1711.68 1975.99,1615.48 1831.74,1623.19 "/>
   <polygon class="fil1" points="1898.14,1753.58 1975.99,1711.68 1975.99,1615.48 1898.14,1619.63 "/>
   <path class="fil11" d="M2126.48 284.21c53.76,0 97.35,19.37 97.35,43.26 0,23.88 -43.59,43.26 -97.35,43.26 -53.77,0 -97.36,-19.38 -97.36,-43.26 0,-23.89 43.59,-43.26 97.36,-43.26z"/>
   <polygon class="fil11" points="1909.91,1581.18 1906.24,1583.08 1831.74,1623.19 1897.89,1657.53 1975.99,1615.48 "/>
   <path class="fil6" d="M3254.02 963.77c127.44,0 230.74,55.33 230.74,123.56 0,68.23 -103.3,123.56 -230.74,123.56 -127.44,0 -230.74,-55.33 -230.74,-123.56 0,-68.23 103.3,-123.56 230.74,-123.56z"/>
   <polygon class="fil8" points="3310.32,1075.6 3428.57,1011.93 3428.57,887.08 3310.32,893.38 "/>
   <polygon class="fil9" points="3328.17,834.95 3322.59,837.85 3209.44,898.78 3309.91,950.96 3428.57,887.08 "/>
   <polygon class="fil10" points="3251.46,1108.52 3310.37,1076.78 3310.37,951.91 3251.46,926.3 "/>
   <polygon class="fil11" points="3108.84,845.57 3103.26,848.47 3049.41,877.46 3251.05,983.87 3310.37,951.91 "/>
   <polygon class="fil13" points="3049.41,877.46 3049.41,1002.67 3251.05,1109.08 3251.05,983.87 "/>
   <polygon class="fil6" points="1673.91,1761.58 1673.91,1860.62 2058.11,2058.74 2058.11,1959.7 "/>
   <polygon class="fil4" points="1689.56,1791.46 1689.56,1847.92 1792.68,1901.09 1792.68,1844.61 "/>
   <polygon class="fil4" points="1813.6,1852.73 1813.6,1909.19 1916.7,1962.36 1916.7,1905.87 "/>
   <polygon class="fil4" points="1936.14,1914.74 1936.14,1971.2 2039.23,2024.35 2039.23,1967.89 "/>
   <polygon class="fil6" points="1631.27,1993.68 1631.27,2145.42 2026.21,2349.07 2026.21,2197.34 "/>
   <polygon class="fil6" points="698.08,1466.81 698.08,1683.89 970.76,1824.49 970.76,1607.4 "/>
   <path class="fil10" d="M1146.17 1702.38c41.63,0 84.39,44.69 95.5,99.83 9.39,46.59 -6.83,85.72 -37.2,96.75l-55.71 21.34 -48.2 -35.16c0,0 -42.24,-81.41 -41.47,-85.24 0.77,-3.84 16.13,-58.6 16.13,-58.6l40.56 -29.28 0 0c8.55,-6.17 18.82,-9.64 30.39,-9.64z"/>
   <path class="fil11" d="M1093.73 1737.77c38.72,0 78.48,41.58 88.83,92.86 10.34,51.29 -12.68,92.87 -51.4,92.87 -38.72,0 -78.49,-41.58 -88.83,-92.87 -10.35,-51.28 12.68,-92.86 51.4,-92.86z"/>
   <path class="fil10" d="M1444.17 1857.63c41.62,0 84.38,44.68 95.5,99.83 9.39,46.59 -6.83,85.72 -37.2,96.74l-55.72 21.35 -48.2 -35.16c0,0 -42.24,-81.41 -41.47,-85.25 0.78,-3.83 16.13,-58.59 16.13,-58.59l40.56 -29.28 0 0c8.55,-6.17 18.83,-9.64 30.4,-9.64z"/>
   <path class="fil11" d="M1391.75 1892.99c38.72,0 78.48,41.58 88.83,92.87 10.34,51.29 -12.68,92.87 -51.4,92.87 -38.73,0 -78.49,-41.58 -88.83,-92.87 -10.35,-51.29 12.68,-92.87 51.4,-92.87z"/>
   <path class="fil8" d="M1709.91 2045.24c2.97,-0.77 6.1,-1.18 9.41,-1.18 28.68,0 58.14,30.81 65.79,68.78 6.64,32.98 -5.33,60.52 -27.36,67.24l0 0 -39.45 16.81 -58.09 -62.79 7.19 -77.69 42.49 -11.14 0 0 0.02 -0.03z"/>
   <path class="fil7" d="M2112.32 668.06c191.47,0 364.92,41.61 490.52,108.86 126.34,67.67 204.49,161.38 204.49,265.13 0,103.76 -78.15,197.47 -204.49,265.13 -125.6,67.26 -299.04,108.86 -490.52,108.86 -191.47,0 -364.91,-41.6 -490.51,-108.86 -126.35,-67.66 -204.5,-161.37 -204.5,-265.13 0,-103.75 78.15,-197.46 204.5,-265.13 125.6,-67.25 299.04,-108.86 490.51,-108.86zm486.84 115.78c-124.51,-66.66 -296.64,-107.9 -486.84,-107.9 -190.2,0 -362.33,41.24 -486.84,107.9 -123.76,66.29 -200.32,157.59 -200.32,258.24 0,100.62 76.56,191.95 200.32,258.23 124.51,66.67 296.64,107.91 486.84,107.91 190.2,0 362.33,-41.24 486.84,-107.91 123.76,-66.28 200.32,-157.59 200.32,-258.23 0,-100.63 -76.56,-191.95 -200.32,-258.24z"/>
   <path class="fil7" d="M2112.32 733.83c157.56,0 300.29,34.25 403.66,89.6 104.12,55.75 168.54,133.04 168.54,218.62 0,85.59 -64.4,162.87 -168.54,218.63 -103.39,55.37 -246.12,89.6 -403.68,89.6 -157.56,0 -300.29,-34.25 -403.68,-89.6 -104.12,-55.76 -168.54,-133.04 -168.54,-218.63 0,-85.58 64.4,-162.87 168.54,-218.62 103.39,-55.37 246.12,-89.6 403.68,-89.6l0.02 0zm399.98 96.51c-102.28,-54.78 -243.69,-88.64 -399.98,-88.64 -156.29,0 -297.7,33.89 -399.98,88.64 -101.56,54.38 -164.37,129.26 -164.37,211.74 0,82.47 62.81,157.33 164.37,211.73 102.28,54.78 243.69,88.64 399.98,88.64 156.29,0 297.7,-33.88 399.98,-88.64 101.56,-54.38 164.35,-129.26 164.35,-211.73 0,-82.48 -62.81,-157.34 -164.37,-211.74l0.02 0z"/>
   <polygon class="fil14" points="1839.41,2237.69 1927.63,2284.35 1972.32,2263.24 1971.52,2213.13 1839.46,2191.67 "/>
   <polygon class="fil8" points="1927.63,2205.98 1927.63,2284.35 1972.32,2263.24 1971.52,2213.13 "/>
   <path class="fil9" d="M1709.25 2197.91c-29.96,0 -60.72,-32.17 -68.73,-71.87 -8.01,-39.67 9.82,-71.86 39.76,-71.86 29.97,0 60.73,32.17 68.74,71.86 7.98,39.7 -9.83,71.87 -39.77,71.87z"/>
   <polygon class="fil9" points="1883.21,2168.17 1880.33,2169.66 1839.46,2191.67 1927.81,2236.65 1971.52,2213.13 "/>
   <path class="fil8" d="M1762.88 2352.09c48.88,0 99.06,52.49 112.1,117.21 11.02,54.71 -8.01,100.64 -43.67,113.57l-65.42 25.07 -56.59 -41.26c0,0 -49.59,-95.59 -48.7,-100.11 0.9,-4.51 18.94,-68.8 18.94,-68.8l47.63 -34.36 0 0c10.05,-7.26 22.1,-11.32 35.68,-11.32l0.03 0z"/>
   <path class="fil9" d="M1701.31 2393.62c45.46,0 92.14,48.82 104.28,109.02 12.14,60.23 -14.88,109.02 -60.34,109.02 -45.46,0 -92.14,-48.82 -104.28,-109.02 -12.13,-60.2 14.89,-109.02 60.34,-109.02z"/>
   <polygon class="fil6" points="897.67,2001.69 897.67,2042.75 1486.45,2349.5 1486.45,2308.47 "/>
   <polygon class="fil2" points="3183.16,982.05 3219.77,998.5 3023.28,1134.19 2486.06,1325.01 2460.65,1301.1 2999.37,1117.3 "/>
   <polygon class="fil11" points="3219.77,998.5 3219.02,1028.38 3029.43,1162.69 2490.69,1351.78 2486.06,1325.01 3023.28,1134.19 "/>
   <polygon class="fil9" points="2430.76,1271.95 2486.06,1325.01 2198.38,1409.28 2165.51,1351.17 "/>
   <polygon class="fil8" points="2486.06,1325.01 2486.81,1443.06 2196.16,1519.27 2198.38,1409.28 "/>
   <polygon class="fil14" points="2165.51,1351.17 2164.02,1477.42 2196.16,1519.27 2198.38,1409.28 "/>
   <path class="fil11" d="M2112.32 890.55c156.25,0 282.91,67.82 282.91,151.5 0,83.66 -126.66,151.51 -282.91,151.51 -156.24,0 -282.91,-67.83 -282.91,-151.51 0,-83.65 126.66,-151.5 282.91,-151.5z"/>
   <path class="fil15" d="M2131.6 1039.13c0,4.85 -8.84,8.78 -19.76,8.78 -10.91,0 -19.75,-3.93 -19.75,-8.78l0 -117.41 39.51 0 0 117.41 0 0z"/>
   <path class="fil4" d="M2111.84 912.94c10.91,0 19.76,3.92 19.76,8.78 0,4.85 -8.85,8.77 -19.76,8.77 -10.91,0 -19.75,-3.92 -19.75,-8.77 0,-4.86 8.84,-8.78 19.75,-8.78z"/>
   <polygon class="fil16" points="2208.55,2197.45 544.03,1339.17 547.61,1332.2 2212.13,2190.49 "/>
   <polygon class="fil16" points="2208.55,2537.6 544.03,1679.31 547.61,1672.35 2212.13,2530.63 "/>
   <polygon class="fil17" points="2208.48,2186.59 3750.64,1357.56 3754.36,1364.46 2212.2,2193.51 "/>
   <polygon class="fil17" points="2208.48,2527.52 3750.64,1698.48 3754.36,1705.37 2212.2,2534.42 "/>
  </g>
 </g>
</svg>
