<svg width="393" height="852" viewBox="0 0 393 852" fill="none" xmlns="http://www.w3.org/2000/svg">
<g clip-path="url(#clip0_858_3)">
<rect width="393" height="852" fill="#090909"/>
<rect x="270.269" y="796.559" width="94" height="81" fill="url(#paint0_linear_858_3)" fill-opacity="0.9"/>
<path d="M302.833 754.568C296.509 759.524 293.833 773.068 293.833 773.068C293.833 773.068 284.853 774.335 280.333 777.568C273.931 782.148 270.847 787.214 270.333 795.068C269.752 803.957 273.096 810.376 280.333 815.568C284.848 818.808 293.833 820.068 293.833 820.068C293.833 820.068 294.833 832.568 302.833 838.068C307.769 841.462 311.345 842.949 317.333 843.068C323.692 843.196 327.928 842.117 332.833 838.068C338.766 833.172 340.833 820.068 340.833 820.068C340.833 820.068 350.198 818.959 354.833 815.568C361.955 810.359 364.892 803.874 364.333 795.068C363.841 787.308 361.107 782.162 354.833 777.568C350.2 774.176 340.833 773.068 340.833 773.068C340.833 773.068 338.907 759.574 332.833 754.568C327.925 750.523 323.692 749.441 317.333 749.568C311.345 749.688 307.548 750.874 302.833 754.568Z" fill="#DC80FF"/>
<rect x="341.139" y="368.519" width="47" height="140" transform="rotate(-180 341.139 368.519)" fill="#009414"/>
<path d="M331.705 248.029C338.029 243.074 340.705 229.529 340.705 229.529C340.705 229.529 349.685 228.263 354.205 225.029C360.607 220.45 363.691 215.384 364.205 207.529C364.786 198.641 361.442 192.222 354.205 187.029C349.69 183.79 340.705 182.529 340.705 182.529C340.705 182.529 339.705 170.029 331.705 164.529C326.769 161.136 323.194 159.649 317.205 159.529C310.846 159.402 306.61 160.481 301.705 164.529C295.772 169.426 293.705 182.529 293.705 182.529C293.705 182.529 284.34 183.639 279.705 187.029C272.583 192.238 269.646 198.723 270.205 207.529C270.698 215.29 273.431 220.435 279.705 225.029C284.339 228.422 293.705 229.529 293.705 229.529C293.705 229.529 295.631 243.023 301.705 248.029C306.613 252.074 310.846 253.157 317.205 253.029C323.194 252.909 326.99 251.724 331.705 248.029Z" fill="#FECACE"/>
<path d="M302.704 194.529C296.38 199.485 293.704 213.029 293.704 213.029C293.704 213.029 284.724 214.296 280.204 217.529C273.802 222.109 270.718 227.175 270.204 235.029L270.204 388.039L364.204 388.039L364.204 235.029C363.712 227.269 360.978 222.123 354.704 217.529C350.071 214.137 340.704 213.029 340.704 213.029C340.704 213.029 338.778 199.535 332.704 194.529C327.796 190.484 323.563 189.402 317.204 189.529C311.215 189.649 307.419 190.835 302.704 194.529Z" fill="url(#paint1_linear_858_3)" fill-opacity="0.9"/>
<path d="M331.705 430.029C338.029 425.074 340.705 411.529 340.705 411.529C340.705 411.529 349.685 410.263 354.205 407.029C360.607 402.45 363.691 397.384 364.205 389.529C364.786 380.641 361.442 374.222 354.205 369.029C349.69 365.79 340.705 364.529 340.705 364.529C340.705 364.529 339.705 352.029 331.705 346.529C326.769 343.136 323.194 341.649 317.205 341.529C310.846 341.402 306.61 342.481 301.705 346.529C295.772 351.426 293.705 364.529 293.705 364.529C293.705 364.529 284.34 365.639 279.705 369.029C272.583 374.238 269.646 380.723 270.205 389.529C270.698 397.29 273.431 402.435 279.705 407.029C284.339 410.422 293.705 411.529 293.705 411.529C293.705 411.529 295.631 425.023 301.705 430.029C306.613 434.074 310.846 435.157 317.205 435.029C323.194 434.909 326.99 433.724 331.705 430.029Z" fill="white"/>
<rect x="293.269" y="537.039" width="47" height="110" fill="#0039FF"/>
<path d="M302.833 629.049C296.509 634.004 293.833 647.549 293.833 647.549C293.833 647.549 284.853 648.816 280.333 652.049C273.931 656.628 270.847 661.694 270.333 669.549C269.752 678.437 273.096 684.856 280.333 690.049C284.848 693.289 293.833 694.549 293.833 694.549C293.833 694.549 294.833 707.049 302.833 712.549C307.769 715.942 311.345 717.429 317.333 717.549C323.692 717.676 327.928 716.597 332.833 712.549C338.766 707.653 340.833 694.549 340.833 694.549C340.833 694.549 350.198 693.439 354.833 690.049C361.955 684.84 364.892 678.355 364.333 669.549C363.841 661.788 361.107 656.643 354.833 652.049C350.2 648.656 340.833 647.549 340.833 647.549C340.833 647.549 338.907 634.055 332.833 629.049C327.925 625.004 323.692 623.922 317.333 624.049C311.345 624.169 307.548 625.354 302.833 629.049Z" fill="white"/>
<path d="M331.833 680.029C338.157 675.074 340.833 661.529 340.833 661.529C340.833 661.529 349.813 660.263 354.333 657.029C360.735 652.45 363.819 647.384 364.333 639.529L364.333 515.039L270.333 515.039L270.333 639.529C270.826 647.29 273.559 652.435 279.833 657.029C284.467 660.422 293.833 661.529 293.833 661.529C293.833 661.529 295.759 675.023 301.833 680.029C306.741 684.074 310.974 685.157 317.333 685.029C323.322 684.909 327.118 683.724 331.833 680.029Z" fill="url(#paint2_linear_858_3)" fill-opacity="0.9"/>
<path d="M302.839 472.049C296.515 477.004 293.839 490.549 293.839 490.549C293.839 490.549 284.859 491.816 280.339 495.049C273.937 499.628 270.853 504.694 270.339 512.549C269.758 521.437 273.102 527.856 280.339 533.049C284.854 536.289 293.839 537.549 293.839 537.549C293.839 537.549 294.839 550.049 302.839 555.549C307.775 558.942 311.35 560.429 317.339 560.549C323.698 560.676 327.934 559.597 332.839 555.549C338.772 550.653 340.839 537.549 340.839 537.549C340.839 537.549 350.204 536.439 354.839 533.049C361.961 527.84 364.898 521.355 364.339 512.549C363.846 504.788 361.113 499.643 354.839 495.049C350.205 491.656 340.839 490.549 340.839 490.549C340.839 490.549 338.913 477.055 332.839 472.049C327.931 468.004 323.698 466.922 317.339 467.049C311.35 467.169 307.554 468.354 302.839 472.049Z" fill="#FF4948"/>
<path d="M302.833 39.0098C296.509 43.9654 293.833 57.5098 293.833 57.5098C293.833 57.5098 284.853 58.7765 280.333 62.0098C273.931 66.5894 270.847 71.6553 270.333 79.5098C269.752 88.3983 273.096 94.817 280.333 100.01C284.848 103.25 293.833 104.51 293.833 104.51C293.833 104.51 294.833 117.01 302.833 122.51C307.769 125.903 311.345 127.39 317.333 127.51C323.692 127.637 327.928 126.558 332.833 122.51C338.766 117.613 340.833 104.51 340.833 104.51C340.833 104.51 350.198 103.4 354.833 100.01C361.955 94.8006 364.892 88.3157 364.333 79.5098C363.841 71.7492 361.107 66.6038 354.833 62.0098C350.2 58.6171 340.833 57.5098 340.833 57.5098C340.833 57.5098 338.907 44.0159 332.833 39.0098C327.925 34.9647 323.692 33.8825 317.333 34.0098C311.345 34.1297 307.548 35.3153 302.833 39.0098Z" fill="white"/>
<path d="M331.833 89.9902C338.157 85.0346 340.833 71.4902 340.833 71.4902C340.833 71.4902 349.813 70.2235 354.333 66.9902C360.735 62.4106 363.819 57.3447 364.333 49.4902L364.333 -75L270.333 -75L270.333 49.4902C270.826 57.2508 273.559 62.3962 279.833 66.9902C284.467 70.3829 293.833 71.4902 293.833 71.4902C293.833 71.4902 295.759 84.9841 301.833 89.9902C306.741 94.0353 310.974 95.1175 317.333 94.9902C323.322 94.8703 327.118 93.6847 331.833 89.9902Z" fill="#7F9AC5" fill-opacity="0.9"/>
<rect x="171.132" y="667" width="53" height="141" fill="#008B14"/>
<path d="M159.866 835.496C159.866 835.496 148.151 842.71 153.557 853.981C159.017 865.362 170.679 861.195 170.679 861.195C170.679 861.195 166.174 873.819 178.339 878.779C190.491 883.732 196.813 872.016 196.813 872.016C196.813 872.016 203.121 882.837 213.935 878.779C225.942 874.273 222.496 861.195 222.496 861.195C222.496 861.195 236.104 864.691 240.068 853.981C244.574 841.808 233.309 835.496 233.309 835.496C233.309 835.496 244.143 828.106 240.068 817.912C235.382 806.19 222.496 809.346 222.496 809.346C222.496 809.346 225.155 795.504 213.935 791.762C203.121 788.155 196.362 798.525 196.362 798.525C196.362 798.525 189.604 787.704 177.889 792.213C168.107 795.977 170.229 809.346 170.229 809.346C170.229 809.346 156.712 807.091 153.107 818.363C149.744 828.877 159.866 835.496 159.866 835.496Z" fill="#FFFFFE"/>
<path d="M223.392 828.444C223.392 828.444 237.078 831.707 241.064 821.709C241.783 819.906 242.132 816.715 242.132 816.715L241.923 642H153.439L153.132 816.715C153.19 818.296 153.12 819.884 154.063 821.709C159.553 832.334 171.282 828.444 171.282 828.444C171.282 828.444 166.751 840.23 178.985 844.86C191.205 849.485 197.563 838.546 197.563 838.546C197.563 838.546 203.907 848.649 214.782 844.86C226.858 840.653 223.392 828.444 223.392 828.444Z" fill="url(#paint3_linear_858_3)" fill-opacity="0.9"/>
<path d="M160.866 654.496C160.866 654.496 149.151 661.71 154.557 672.981C160.017 684.362 171.679 680.195 171.679 680.195C171.679 680.195 167.174 692.819 179.339 697.779C191.491 702.732 197.813 691.016 197.813 691.016C197.813 691.016 204.121 701.837 214.935 697.779C226.942 693.273 223.496 680.195 223.496 680.195C223.496 680.195 237.104 683.691 241.068 672.981C245.574 660.808 234.309 654.496 234.309 654.496C234.309 654.496 245.143 647.106 241.068 636.912C236.382 625.19 223.496 628.346 223.496 628.346C223.496 628.346 226.155 614.504 214.935 610.762C204.121 607.155 197.362 617.525 197.362 617.525C197.362 617.525 190.604 606.704 178.889 611.213C169.107 614.977 171.229 628.346 171.229 628.346C171.229 628.346 157.712 626.091 154.107 637.363C150.744 647.877 160.866 654.496 160.866 654.496Z" fill="#FECACE"/>
<rect x="223.132" y="400" width="53" height="141" transform="rotate(-180 223.132 400)" fill="#D74AFF"/>
<path d="M234.398 231.504C234.398 231.504 246.113 224.29 240.706 213.019C235.247 201.638 223.584 205.805 223.584 205.805C223.584 205.805 228.09 193.181 215.925 188.221C203.773 183.268 197.451 194.984 197.451 194.984C197.451 194.984 191.143 184.163 180.329 188.221C168.322 192.727 171.768 205.805 171.768 205.805C171.768 205.805 158.16 202.309 154.196 213.019C149.69 225.192 160.954 231.504 160.954 231.504C160.954 231.504 150.121 238.894 154.196 249.088C158.882 260.81 171.768 257.654 171.768 257.654C171.768 257.654 169.109 271.496 180.329 275.238C191.143 278.845 197.902 268.475 197.902 268.475C197.902 268.475 204.66 279.296 216.375 274.787C226.157 271.023 224.035 257.654 224.035 257.654C224.035 257.654 237.552 259.909 241.157 248.637C244.519 238.123 234.398 231.504 234.398 231.504Z" fill="#FFFFFE"/>
<path d="M170.872 238.556C170.872 238.556 157.186 235.293 153.2 245.291C152.481 247.094 152.132 250.285 152.132 250.285L152.341 425L240.824 425L241.132 250.285C241.073 248.704 241.144 247.116 240.201 245.291C234.711 234.666 222.982 238.556 222.982 238.556C222.982 238.556 227.513 226.77 215.279 222.14C203.058 217.515 196.7 228.454 196.7 228.454C196.7 228.454 190.356 218.351 179.481 222.14C167.406 226.347 170.872 238.556 170.872 238.556Z" fill="#5C4E60" fill-opacity="0.9"/>
<path d="M233.398 412.504C233.398 412.504 245.113 405.29 239.706 394.019C234.247 382.638 222.584 386.805 222.584 386.805C222.584 386.805 227.09 374.181 214.925 369.221C202.773 364.268 196.451 375.984 196.451 375.984C196.451 375.984 190.143 365.163 179.329 369.221C167.322 373.727 170.768 386.805 170.768 386.805C170.768 386.805 157.16 383.309 153.196 394.019C148.69 406.192 159.954 412.504 159.954 412.504C159.954 412.504 149.121 419.894 153.196 430.088C157.882 441.81 170.768 438.654 170.768 438.654C170.768 438.654 168.109 452.496 179.329 456.238C190.143 459.845 196.902 449.475 196.902 449.475C196.902 449.475 203.66 460.296 215.375 455.787C225.157 452.023 223.035 438.654 223.035 438.654C223.035 438.654 236.552 440.909 240.157 429.637C243.519 419.123 233.398 412.504 233.398 412.504Z" fill="#DC80FF"/>
<path d="M159.866 533.496C159.866 533.496 148.151 540.71 153.557 551.981C159.017 563.362 170.679 559.195 170.679 559.195C170.679 559.195 166.174 571.819 178.339 576.779C190.491 581.732 196.813 570.016 196.813 570.016C196.813 570.016 203.121 580.837 213.935 576.779C225.942 572.273 222.496 559.195 222.496 559.195C222.496 559.195 236.104 562.691 240.068 551.981C244.574 539.808 233.309 533.496 233.309 533.496C233.309 533.496 244.143 526.106 240.068 515.912C235.382 504.19 222.496 507.346 222.496 507.346C222.496 507.346 225.155 493.504 213.935 489.762C203.121 486.155 196.362 496.525 196.362 496.525C196.362 496.525 189.604 485.704 177.889 490.213C168.107 493.977 170.229 507.346 170.229 507.346C170.229 507.346 156.712 505.091 153.107 516.363C149.744 526.877 159.866 533.496 159.866 533.496Z" fill="white"/>
<rect x="223.132" y="98" width="53" height="141" transform="rotate(-180 223.132 98)" fill="#644DD0"/>
<path d="M170.872 -49.7344C170.872 -49.7344 157.186 -52.758 153.2 -43.4947C152.481 -41.8244 152.132 -38.8681 152.132 -38.8681L152.341 123L240.824 123L241.132 -38.8681C241.073 -40.3334 241.144 -41.8042 240.201 -43.4947C234.711 -53.3387 222.982 -49.7344 222.982 -49.7344C222.982 -49.7344 227.513 -60.654 215.279 -64.9437C203.058 -69.2284 196.7 -59.094 196.7 -59.094C196.7 -59.094 190.356 -68.4538 179.481 -64.9437C167.406 -61.0463 170.872 -49.7344 170.872 -49.7344Z" fill="url(#paint4_linear_858_3)" fill-opacity="0.9"/>
<path d="M233.398 110.504C233.398 110.504 245.113 103.29 239.706 92.0188C234.247 80.638 222.584 84.805 222.584 84.805C222.584 84.805 227.09 72.1806 214.925 67.2212C202.773 62.2676 196.451 73.9842 196.451 73.9842C196.451 73.9842 190.143 63.1632 179.329 67.2212C167.322 71.7271 170.768 84.805 170.768 84.805C170.768 84.805 157.16 81.3093 153.196 92.0188C148.69 104.192 159.954 110.504 159.954 110.504C159.954 110.504 149.121 117.894 153.196 128.088C157.882 139.81 170.768 136.654 170.768 136.654C170.768 136.654 168.109 150.496 179.329 154.238C190.143 157.845 196.902 147.475 196.902 147.475C196.902 147.475 203.66 158.296 215.375 153.787C225.157 150.023 223.035 136.654 223.035 136.654C223.035 136.654 236.552 138.909 240.157 127.637C243.519 117.123 233.398 110.504 233.398 110.504Z" fill="#FF4948"/>
<rect x="54.1357" y="714.001" width="47" height="139" fill="#0039FF"/>
<path d="M62.7003 655.011C56.3764 659.966 53.7003 673.511 53.7003 673.511C53.7003 673.511 44.7201 674.777 40.2003 678.011C33.7984 682.59 30.714 687.656 30.2003 695.511C29.619 704.399 32.9631 710.818 40.2003 716.011C44.7155 719.251 53.7003 720.511 53.7003 720.511C53.7003 720.511 54.7002 733.011 62.7003 738.511C67.6362 741.904 71.2117 743.391 77.2003 743.511C83.5593 743.638 87.7948 742.559 92.7003 738.511C98.6332 733.614 100.7 720.511 100.7 720.511C100.7 720.511 110.065 719.401 114.7 716.011C121.822 710.802 124.759 704.317 124.2 695.511C123.708 687.75 120.975 682.605 114.7 678.011C110.067 674.618 100.7 673.511 100.7 673.511C100.7 673.511 98.7745 660.017 92.7003 655.011C87.7921 650.966 83.5593 649.883 77.2003 650.011C71.2117 650.131 67.415 651.316 62.7003 655.011Z" fill="white"/>
<path d="M62.6357 687.011C56.3118 691.966 53.6357 705.511 53.6357 705.511C53.6357 705.511 44.6556 706.777 40.1357 710.011C33.7339 714.59 30.6494 719.656 30.1357 727.511V853.001H124.136V727.511C123.643 719.75 120.91 714.605 114.636 710.011C110.002 706.618 100.636 705.511 100.636 705.511C100.636 705.511 98.71 692.017 92.6357 687.011C87.7275 682.966 83.4947 681.883 77.1357 682.011C71.1471 682.131 67.3504 683.316 62.6357 687.011Z" fill="url(#paint5_linear_858_3)" fill-opacity="0.9"/>
<rect x="53.1357" y="476.001" width="47" height="74" fill="#009414"/>
<path d="M62.7003 411.011C56.3764 415.966 53.7003 429.511 53.7003 429.511C53.7003 429.511 44.7201 430.777 40.2003 434.011C33.7984 438.59 30.714 443.656 30.2003 451.511C29.619 460.399 32.9631 466.818 40.2003 472.011C44.7155 475.251 53.7003 476.511 53.7003 476.511C53.7003 476.511 54.7002 489.011 62.7003 494.511C67.6362 497.904 71.2117 499.391 77.2003 499.511C83.5593 499.638 87.7948 498.559 92.7003 494.511C98.6332 489.614 100.7 476.511 100.7 476.511C100.7 476.511 110.065 475.401 114.7 472.011C121.822 466.802 124.759 460.317 124.2 451.511C123.708 443.75 120.975 438.605 114.7 434.011C110.067 430.618 100.7 429.511 100.7 429.511C100.7 429.511 98.7745 416.017 92.7003 411.011C87.7921 406.966 83.5593 405.883 77.2003 406.011C71.2117 406.131 67.415 407.316 62.7003 411.011Z" fill="white"/>
<path d="M62.7002 444.011C56.3763 448.966 53.7002 462.511 53.7002 462.511C53.7002 462.511 44.72 463.777 40.2002 467.011C33.7983 471.59 30.7138 476.656 30.2002 484.511V572.001H124.2V484.511C123.708 476.75 120.974 471.605 114.7 467.011C110.067 463.618 100.7 462.511 100.7 462.511C100.7 462.511 98.7744 449.017 92.7002 444.011C87.792 439.966 83.5592 438.883 77.2002 439.011C71.2116 439.131 67.4149 440.316 62.7002 444.011Z" fill="url(#paint6_linear_858_3)" fill-opacity="0.9"/>
<path d="M62.7003 530.011C56.3764 534.966 53.7003 548.511 53.7003 548.511C53.7003 548.511 44.7201 549.777 40.2003 553.011C33.7984 557.59 30.714 562.656 30.2003 570.511C29.619 579.399 32.9631 585.818 40.2003 591.011C44.7155 594.251 53.7003 595.511 53.7003 595.511C53.7003 595.511 54.7002 608.011 62.7003 613.511C67.6362 616.904 71.2117 618.391 77.2003 618.511C83.5593 618.638 87.7948 617.559 92.7003 613.511C98.6332 608.614 100.7 595.511 100.7 595.511C100.7 595.511 110.065 594.401 114.7 591.011C121.822 585.802 124.759 579.317 124.2 570.511C123.708 562.75 120.975 557.605 114.7 553.011C110.067 549.618 100.7 548.511 100.7 548.511C100.7 548.511 98.7745 535.017 92.7003 530.011C87.7921 525.966 83.5593 524.883 77.2003 525.011C71.2117 525.131 67.415 526.316 62.7003 530.011Z" fill="#FECACE"/>
<path d="M40.8694 204.497C40.8694 204.497 29.1545 211.711 34.5614 222.983C40.0207 234.364 51.6832 230.196 51.6832 230.196C51.6832 230.196 47.1776 242.821 59.343 247.78C71.4944 252.734 77.8166 241.017 77.8166 241.017C77.8166 241.017 84.1247 251.838 94.9385 247.78C106.945 243.274 103.499 230.196 103.499 230.196C103.499 230.196 117.108 233.692 121.072 222.983C125.578 210.81 114.313 204.497 114.313 204.497C114.313 204.497 125.147 197.108 121.072 186.913C116.386 175.191 103.499 178.347 103.499 178.347C103.499 178.347 106.159 164.506 94.9385 160.763C84.1247 157.157 77.366 167.526 77.366 167.526C77.366 167.526 70.6074 156.706 58.8924 161.214C49.1108 164.979 51.2327 178.347 51.2327 178.347C51.2327 178.347 37.7154 176.093 34.1108 187.364C30.7482 197.879 40.8694 204.497 40.8694 204.497Z" fill="#65B367"/>
<path d="M62.7003 286.011C56.3764 290.966 53.7003 304.511 53.7003 304.511C53.7003 304.511 44.7201 305.777 40.2003 309.011C33.7984 313.59 30.714 318.656 30.2003 326.511C29.619 335.399 32.9631 341.818 40.2003 347.011C44.7155 350.251 53.7003 351.511 53.7003 351.511C53.7003 351.511 54.7002 364.011 62.7003 369.511C67.6362 372.904 71.2117 374.391 77.2003 374.511C83.5593 374.638 87.7948 373.559 92.7003 369.511C98.6332 364.614 100.7 351.511 100.7 351.511C100.7 351.511 110.065 350.401 114.7 347.011C121.822 341.802 124.759 335.317 124.2 326.511C123.708 318.75 120.975 313.605 114.7 309.011C110.067 305.618 100.7 304.511 100.7 304.511C100.7 304.511 98.7745 291.017 92.7003 286.011C87.7921 281.966 83.5593 280.883 77.2003 281.011C71.2117 281.131 67.415 282.316 62.7003 286.011Z" fill="#758DB4"/>
<rect x="124.136" y="81.001" width="94" height="81" transform="rotate(-180 124.136 81.001)" fill="url(#paint7_linear_858_3)" fill-opacity="0.9"/>
<path d="M91.5712 122.991C97.8951 118.036 100.571 104.491 100.571 104.491C100.571 104.491 109.551 103.224 114.071 99.9912C120.473 95.4116 123.558 90.3457 124.071 82.4912C124.652 73.6027 121.308 67.184 114.071 61.9912C109.556 58.7514 100.571 57.4912 100.571 57.4912C100.571 57.4912 99.5713 44.9912 91.5712 39.4912C86.6353 36.0978 83.0598 34.611 77.0712 34.4912C70.7122 34.3639 66.4766 35.4428 61.5712 39.4912C55.6383 44.3875 53.5712 57.4912 53.5712 57.4912C53.5712 57.4912 44.2064 58.6007 39.5712 61.9912C32.4494 67.2004 29.5122 73.6853 30.0712 82.4912C30.5638 90.2518 33.297 95.3972 39.5712 99.9912C44.2047 103.384 53.5712 104.491 53.5712 104.491C53.5712 104.491 55.4969 117.985 61.5712 122.991C66.4794 127.036 70.7122 128.118 77.0712 127.991C83.0598 127.871 86.8565 126.686 91.5712 122.991Z" fill="#DC80FF"/>
</g>
<defs>
<linearGradient id="paint0_linear_858_3" x1="317.269" y1="796.559" x2="317.269" y2="877.559" gradientUnits="userSpaceOnUse">
<stop stop-color="#DC80FF" stop-opacity="0.44"/>
<stop offset="1" stop-color="#D8D2D2" stop-opacity="0.35"/>
</linearGradient>
<linearGradient id="paint1_linear_858_3" x1="317.204" y1="189.52" x2="317.204" y2="322.52" gradientUnits="userSpaceOnUse">
<stop offset="0.394231" stop-color="#297432"/>
<stop offset="1" stop-color="#FECACE"/>
</linearGradient>
<linearGradient id="paint2_linear_858_3" x1="317.332" y1="685.039" x2="317.332" y2="552.039" gradientUnits="userSpaceOnUse">
<stop offset="0.480769" stop-color="#4463CF"/>
<stop offset="1" stop-color="#B2495F"/>
</linearGradient>
<linearGradient id="paint3_linear_858_3" x1="197.632" y1="639.205" x2="197.632" y2="846" gradientUnits="userSpaceOnUse">
<stop stop-color="#AC989B"/>
<stop offset="1" stop-color="#2B7536"/>
</linearGradient>
<linearGradient id="paint4_linear_858_3" x1="196.632" y1="125.589" x2="196.632" y2="-66" gradientUnits="userSpaceOnUse">
<stop stop-color="#803773"/>
<stop offset="0.557692" stop-color="#462DBC"/>
</linearGradient>
<linearGradient id="paint5_linear_858_3" x1="77.1357" y1="682.001" x2="77.1357" y2="790.001" gradientUnits="userSpaceOnUse">
<stop offset="0.269231" stop-color="#4463CF"/>
<stop offset="1" stop-color="#885387"/>
</linearGradient>
<linearGradient id="paint6_linear_858_3" x1="77.2014" y1="439.001" x2="77.2014" y2="572.001" gradientUnits="userSpaceOnUse">
<stop offset="0.480769" stop-color="#297432"/>
<stop offset="1" stop-color="#FECACE"/>
</linearGradient>
<linearGradient id="paint7_linear_858_3" x1="171.136" y1="81.001" x2="171.136" y2="162.001" gradientUnits="userSpaceOnUse">
<stop stop-color="#DC80FF" stop-opacity="0.44"/>
<stop offset="1" stop-color="#D8D2D2" stop-opacity="0.35"/>
</linearGradient>
<clipPath id="clip0_858_3">
<rect width="393" height="852" fill="white"/>
</clipPath>
</defs>
</svg>
