<?xml version="1.0" encoding="utf-8"?>
<!-- Generator: Adobe Illustrator 22.1.0, SVG Export Plug-In . SVG Version: 6.00 Build 0)  -->
<svg version="1.1" id="Слой_1" xmlns="http://www.w3.org/2000/svg" xmlns:xlink="http://www.w3.org/1999/xlink" x="0px" y="0px"
	 viewBox="0 0 4500 4000" style="enable-background:new 0 0 4500 4000;" xml:space="preserve">
<g>
	<rect style="fill:#34BC88;" width="4500" height="4000"/>
</g>
<g>
	<g>
		<path style="fill:#995C14;" d="M3662.1,2750.9c-55.9-53.7-135.8-100.6-227.5-141.2c-91-40.2-193.6-74.3-296.2-102.7
			c-52.8-14.7-105.7-27.8-157-39.5c-243.2-55.7-450.2-79.5-450.2-79.5l-22.8-113.4c-60.4-300.2-42.3-611.8,52.4-902.2
			c0.8-2.3,1.5-4.6,2.2-6.9c105.3-324.6,200.4-751.8,47.9-928.6c-67.6-78.3-159.4-128.2-258.5-159.2c-200-62.6-410.2-42.3-592,47
			c0,0,0,0,0,0c-109.4,53.7-208.5,132.4-289,233.1c-24.1,30.1-48,60.7-71,90.9c-54.3,71.4-102.8,140.4-133.4,194.8
			c-17.5,31.1-29.1,57.5-32.6,76.8c-0.5,2.9-0.8,5.6-1,8.1c-1.5,26.5-0.5,49.7,2,70c3.8,30.7,11,54.5,18.4,72.1
			c11.4,27.1,23.2,39.4,23.2,39.4s-169.5,840.4,99.3,922c271.5,82.5,380.5,34.5,380.5,34.5l-73.8,374.4c0,0-75.7,8-192.4,23.6
			c-87.2,11.7-197.2,27.6-315.8,47.7c-82.2,13.9-168.5,29.8-254,47.7c-52.5,11-104.7,22.6-155.5,35
			c-247.9,60.5-463.2,138.1-517.6,231.6c-49.8,85.7-84.2,253.3-107.9,436.4c-6.9,53.1-12.9,107.4-18,161.5
			c-10.5,109.6-17.8,217.9-22.9,311.4c-6.8,125.6-9.4,224.6-10.3,264.2h3855.9c-2.2-115.4-21-735.6-173.2-1080.5
			C3740.6,2850,3704.6,2791.7,3662.1,2750.9z"/>
	</g>
	<g>
		<path style="fill:#F74B91;" d="M2379,210c-471.2-45.4-618.5,114.7-618.5,114.7s74.8,263.5,256.1,316.4s246.5,536.9,348,642.8
			s333.5,113.4,427.7,0S2850.2,255.4,2379,210z"/>
	</g>
	<g>
		<path style="fill:#F74B91;" d="M1471.5,557.8c-24.1,30.1-48,60.7-71,90.9c54.9,14.7,121,20.4,172-12.4
			c106-68.1,187.9-311.7,187.9-311.7C1651.1,378.4,1552,457.1,1471.5,557.8z"/>
	</g>
	<g>
		<path style="fill:#34BD8B;" d="M3662.1,2750.9c-55.9-53.7-135.8-100.6-227.5-141.2c-91-40.2-193.6-74.3-296.2-102.7
			c-52.8-14.7-105.7-27.8-157-39.5c-243.2-55.7-450.2-79.5-450.2-79.5l-459.9,1122.5l-388.3-1069.6c0,0-75.7,8-192.4,23.6
			c-87.2,11.7-197.2,27.6-315.8,47.7c-82.2,13.9-168.5,29.8-254,47.7c-52.5,11-104.7,22.6-155.5,35
			c-247.9,60.5-463.2,138.1-517.6,231.6c-49.8,85.7-84.2,253.3-107.9,436.4c-6.9,53.1-12.9,107.4-18,161.5
			c-10.5,109.6-17.8,217.9-22.9,311.4c-6.8,125.6-9.4,224.6-10.3,264.2h3855.9c-2.2-115.4-21-735.6-173.2-1080.5
			C3740.6,2850,3704.6,2791.7,3662.1,2750.9z"/>
	</g>
	<g>
		<path style="fill:#F74B91;" d="M768.2,3762.7c67.2-189.2-147.8-175.2-241.8-287.3c-94-112.1,248.5-245.2,0-398.8
			c-139.5-86.2-285.5,50.1-386.6,186.3c-6.9,53.1-12.9,107.4-18,161.5c-10.5,109.6-17.8,217.9-22.9,311.4
			c-6.8,125.6-9.4,224.6-10.3,264.2h188.4c13.7-50.7,24.6-99.8,41.1-132.2C371.9,3762.7,701.1,3951.9,768.2,3762.7z"/>
	</g>
	<g>
		<path style="fill:#F74B91;" d="M1490.6,2464.5c-87.2,11.7-197.2,27.6-315.8,47.7c-82.2,13.9-168.5,29.8-254,47.7
			c-52.5,11-104.7,22.6-155.5,35c-8.7,110.3,2.9,266.4,137.3,270.9c208.2,7,87.3-111.9,248.5-91c161.2,20.9,309,35.2,315.7-98.1
			c6.7-133.3-70.6-122.2-66.2-161.3C1403.1,2492.4,1453.7,2485.8,1490.6,2464.5z"/>
	</g>
	<g>
		<path style="fill:#F74B91;" d="M3293.9,3930.9c-60.5-161.2-208.2,0-262-77.1c-53.7-77.1,194.8-133.1,0-280.3
			c-194.8-147.2-228.4,112.1-329.1,161.2c-100.7,49-262-210.2-315.7-42.1c-32.3,100.9,42,224.6,106.5,307.4h807.8
			C3304.8,3977.7,3302.7,3954.5,3293.9,3930.9z"/>
	</g>
	<g>
		<path style="fill:#F74B91;" d="M3662.1,2750.9c-55.9-53.7-135.8-100.6-227.5-141.2c-91-40.2-193.6-74.3-296.2-102.7
			c-52.8-14.7-105.7-27.8-157-39.5c-87.9,38.1-244.4,124.5-225,251.3c26.9,175.2,214.9-49,282.1,0c67.2,49-33.6,196.2,147.8,217.2
			c181.4,21,127.6-97.5,221.7-69.8c94,27.7,161.2,139.6,268.7,111.8c37-9.6,70.8-29.1,94.6-58.4
			C3740.6,2850,3704.6,2791.7,3662.1,2750.9z"/>
	</g>
	<g>
		<path style="fill:#C9F47A;" d="M121.8,3424.4c-10.5,109.6-17.8,217.9-22.9,311.4c76.8-7.9,136.9-75.6,136.9-157.8
			C235.8,3504.1,187.4,3442,121.8,3424.4z"/>
	</g>
	<g>
		<path style="fill:#C9F47A;" d="M920.8,2559.9c15.3,56.9,65.4,98.5,124.8,98.5c71.6,0,129.7-60.6,129.7-135.3c0-3.7-0.2-7.3-0.4-11
			C1092.7,2526.1,1006.4,2542,920.8,2559.9z"/>
	</g>
	<g>
		<path style="fill:#C9F47A;" d="M3132.6,2550.9c0,90,69.9,163,156.2,163c66.4,0,123.1-43.2,145.7-104.2
			c-91-40.2-193.6-74.3-296.2-102.7C3134.6,2520.9,3132.6,2535.7,3132.6,2550.9z"/>
	</g>
	<g>
		<path style="fill:#C9F47A;" d="M2642.3,3930.9c-59.6,0-111.6,27.8-139.5,69.1h279C2753.9,3958.7,2701.9,3930.9,2642.3,3930.9z"/>
	</g>
	<g>
		<path style="fill:#7F4A0F;" d="M2002.4,1967.6c-102.4,57.3-245.5,98.9-245.5,98.9l-12.5,63.6c0,0,152.7-24.7,272.2-97.3
			c97.7-59.3,183-247.2,183-247.2S2104.8,1910.2,2002.4,1967.6z"/>
	</g>
	<g>
		<path style="fill:#2D2217;" d="M1550.2,1056.5c-0.5,0.4-50.6,41.6-100.1,90.9c-67.1,66.9-101.2,116.3-101.2,146.9
			c0,74,151,93.2,157.4,94c0.2,0,0.4,0,0.6,0c2.4,0,4.5-1.8,4.7-4.2c0.3-2.6-1.6-5-4.2-5.3c-1.5-0.2-149-18.9-149-84.4
			c0-27.6,34-76,98.3-140.1c49.1-49,99-89.9,99.5-90.3c2-1.7,2.3-4.7,0.7-6.7C1555.2,1055.1,1552.2,1054.8,1550.2,1056.5z"/>
	</g>
	<g>
		<path style="fill:#EF2B3A;" d="M1518.6,1445c-26.8-6.7-65.2,40.8-65.2,40.8s-12.2-31-52.9-40.3c-40.7-9.3-105,124.1-105,124.1
			s58.2,139.6,214.2,114.8c80.7-12.8,172.5-99.3,172.5-99.3s-17.8,0-47.6-15.5S1545.4,1451.7,1518.6,1445z"/>
	</g>
	<g>
		<path style="fill:#2D2217;" d="M1581.2,1574.7c-0.6-0.1-62.9-8.6-108.9-13.6c-46.7-5-142.4,12.8-146.5,13.6
			c-2.6,0.5-4.3,3-3.8,5.6c0.4,2.3,2.4,3.9,4.7,3.9c0.3,0,0.6,0,0.9-0.1c1-0.2,98.4-18.4,143.7-13.5c45.9,4.9,108,13.5,108.6,13.5
			c2.6,0.4,5-1.5,5.4-4.1C1585.6,1577.5,1583.8,1575.1,1581.2,1574.7z"/>
	</g>
	<g>
		<g>
			<ellipse style="fill:#2D2217;" cx="1831" cy="1073.6" rx="53.1" ry="45.6"/>
		</g>
		<g>
			<path style="fill:#C9F47A;" d="M1797.6,991.4c-100.2,22.2-127.5,120.4-127.5,120.4s48.6-76,130.6-76s121,44.3,171.4,38
				c50.3-6.3,126.2-82.4,126.2-82.4S1897.8,969.2,1797.6,991.4z"/>
		</g>
		<g>
			<path style="fill:#2D2217;" d="M1770.4,1020.7c-52.5,13.9-100.3,91.1-100.3,91.1s65-68.2,107.9-69.2
				c42.8-1.1,162.7,37.4,193.2,35.1c35.1-2.6,60.4-31,60.4-31S1822.9,1006.8,1770.4,1020.7z"/>
		</g>
	</g>
	<g>
		<path style="fill:#C9F47A;" d="M1353.7,1028c-30.4-18.7-82.5-26.4-118.1-29.6c3.8,30.7,11,54.5,18.4,72.1c0,0,0,0,0.1,0
			c22.7-3,57-7,72.6-5.7c23.7,1.8,99.2,44.6,103.2,46.9c0.1,0,0.1,0.1,0.1,0.1c0,0,0,0,0,0c0,0,0,0,0,0S1403.3,1058.5,1353.7,1028z"
			/>
	</g>
	<g>
		<path style="fill:#2D2217;" d="M1336.5,1064.7c-33.9-6.9-80.2,5.1-82.5,5.7c-0.1,0-0.1,0-0.1,0c11.4,27.1,23.2,39.4,23.2,39.4
			s9.7-21.4,47-22.6c3.2-0.1,6.5,0,10.1,0.2c12.6,0.9,27.4,3.8,41.5,7.4c27.9,7,53.1,16.3,54.3,16.8v0c0,0-0.1,0-0.1-0.1
			C1426.4,1109.3,1370.2,1071.6,1336.5,1064.7z"/>
	</g>
	<g>
		<ellipse style="fill:#2D2217;" cx="1350.6" cy="1111.8" rx="30.9" ry="28.6"/>
	</g>
	<g>
		<path style="fill:#2D2217;" d="M1972,798.5c-64.3-21.5-226.7,11.6-315,32.5c-34.8,8.2-59.4,40.5-59.4,77.6v0
			c0,14.2,13.8,23.8,26.4,18.5c50.2-21.2,160.5-73.3,236-76.1c111-4.1,262.4,59.5,262.4,59.5S2062.4,828.7,1972,798.5z"/>
	</g>
	<g>
		<path style="fill:#2D2217;" d="M1388.9,847.7c-33.5-6.2-75.8-9.9-121.7-4.2c-17.5,31.1-29.1,57.5-32.6,76.8
			c17.7-9.2,44-17.3,77.9-13.1c52.1,6.5,116.2,31.9,142.8,43.2c5.9,2.5,12.2-2.2,11.9-8.7C1465.5,895,1433,855.8,1388.9,847.7z"/>
	</g>
	<g>
		<path style="fill:#995C14;" d="M2297.2,1221.9V1565c0,0,84.3,59.9,160.2,14.4c75.9-45.5,178.2-288.5,99-415.9
			S2297.2,1221.9,2297.2,1221.9z"/>
	</g>
	<g>
		<path style="fill:#2D2217;" d="M2408.6,1267.4c-39.3-8.4-85.3,25.4-87.3,26.8c-2.1,1.6-2.6,4.6-1,6.7c1.6,2.1,4.6,2.6,6.7,1
			c0.4-0.3,44.6-32.6,79.6-25.2c12.8,2.7,23.1,10.7,30.4,23.7c15.9,28.2,11.5,59.9,5.1,81.6c-10.9,36.7-36.8,72.9-61.7,85.9
			c-10.8,5.6-20.4,6.7-28.8,3.3c-16-6.7-22.8-28.1-22.9-28.3c-0.8-2.5-3.5-4-6-3.2c-2.5,0.8-4,3.5-3.2,6c0.3,1.1,8.1,25.9,28.3,34.3
			c4.4,1.8,9,2.7,13.8,2.7c7.3,0,15-2.1,23.1-6.4c27.4-14.4,54.7-52.1,66.4-91.7c6.9-23.4,11.5-57.9-6-89
			C2436.6,1280.3,2424.3,1270.8,2408.6,1267.4z"/>
	</g>
	<g>
		<ellipse style="fill:#C9F47A;" cx="2318" cy="1619.5" rx="84" ry="87.6"/>
	</g>
</g>
<g>
	<path style="fill:#F74B91;" d="M257.1,2834c88.5-109.8,220.8-184.1,665.8-262.4c424-74.6,630.2-108,632.2-108.3
		c6.5-1.1,11-7.2,9.9-13.8c-1.1-6.5-7.2-11-13.8-9.9c-2,0.3-208.3,33.8-632.5,108.4c-213.1,37.5-360.3,74.7-463.4,117.1
		c-50.7,20.9-92.8,43.7-128.7,69.7c-33,23.9-61.8,51.4-88.2,84.2c-29.9,37.1-56,121-79.6,256.5c-18.4,105.6-35,241.4-49.2,403.7
		C89.2,3713,79.5,3935.9,77,4000h24c2.6-65.1,12.3-286.5,32.6-518.8C173.7,3023.2,222.9,2876.5,257.1,2834z"/>
</g>
<g>
	<g>
		<g>
			<g>
				<path style="fill:#F4AA62;" d="M4500,3661.2V4000H931.7c40.2-64.6,195.8-300.6,418.2-463.4c31.5-23.1,64.4-44.7,98.5-64.2
					c76.9-43.9,159.9-76.7,247.5-90.4c141.4-22.2,291.8-40.2,431.2-54.4c38.3-3.9,75.9-7.5,112.1-10.9c247.9-22.8,438-32.7,438-32.7
					l22.7-326.9v0l38.3-549.6c0,0-151.1-540.9-75.6-776.1c75.6-235.2,198.6-296.8,430.3-328.6c28.9-4,59-5,89.5-3.7
					c273.5,11.5,506.7,204.7,579.6,473.3c15.8,58.3,24.6,111.7,18.6,148.2c-2.9,17.4-5.3,32.6-7.5,45.7v0
					c-14.2,87.3-14.2,87.3-14.2,87.3s28.9,299.2-21.7,458.8c-50.7,159.6-143.5,413.8-218.1,469.2c-44,32.7-117.4,75-117.4,75
					l13,322.8c0,0,95.4,16.6,233.3,44.9c35,7.2,72.6,15.1,112.2,23.6c205,44.4,460.2,106.5,645.3,174.9
					C4439.6,3635.4,4471.4,3648.3,4500,3661.2z"/>
			</g>
			<g>
				<path style="fill:#C17B42;" d="M3195.2,3056.6c-97.3-20.8-248.8-99.5-248.8-99.5s166.6,142.5,285.6,169
					c119,26.4,169.6,19.8,169.6,19.8v-89.3C3401.6,3056.6,3292.6,3077.4,3195.2,3056.6z"/>
			</g>
			<g>
				<g>
					<ellipse style="fill:#2D2217;" cx="3531" cy="2117.1" rx="44.7" ry="37.3"/>
				</g>
				<g>
					<path style="fill:#C9F47A;" d="M3502.8,2049.8c-84.3,18.1-107.3,98.5-107.3,98.5s40.9-62.2,109.9-62.2
						c69,0,101.9,36.3,144.2,31.1c42.3-5.2,106.2-67.4,106.2-67.4S3587.2,2031.7,3502.8,2049.8z"/>
				</g>
				<g>
					<path style="fill:#2D2217;" d="M3479.9,2073.8c-44.2,11.3-84.4,74.6-84.4,74.6s54.7-55.8,90.8-56.7s137,30.6,162.6,28.7
						c29.6-2.2,50.8-25.4,50.8-25.4S3524.2,2062.4,3479.9,2073.8z"/>
				</g>
			</g>
			<g>
				<g>
					<ellipse style="fill:#2D2217;" cx="3103.3" cy="2133.5" rx="44.7" ry="37.3"/>
				</g>
				<g>
					<path style="fill:#C9F47A;" d="M3131.4,2066.3c-84.3-18.1-253,0-253,0s63.9,62.2,106.2,67.4c42.3,5.2,75.2-31.1,144.2-31.1
						c69,0,109.9,62.2,109.9,62.2S3215.7,2084.4,3131.4,2066.3z"/>
				</g>
				<g>
					<path style="fill:#2D2217;" d="M3154.3,2090.2c-44.2-11.3-219.7,21.3-219.7,21.3s21.2,23.2,50.8,25.4
						c25.6,1.9,126.5-29.6,162.6-28.7c36.1,0.9,90.8,56.7,90.8,56.7S3198.5,2101.6,3154.3,2090.2z"/>
				</g>
			</g>
			<g>
				<path style="fill:#2D2217;" d="M3219.5,1943.2c-53.5-15.5-151-39.2-213-28.1c-89,16-172.8,99.8-172.8,99.8s151.9-57.4,212.1-44
					c42.6,9.5,144.6,35,200.5,49.1c16.3,4.1,30.5-12,24.8-28.1C3262.5,1968.3,3243.4,1950.1,3219.5,1943.2z"/>
			</g>
			<g>
				<path style="fill:#2D2217;" d="M3560.7,1896.6c-41.3,2.1-110.7,29-153.1,47c-21.1,9-33.6,34-29.7,59.5h0
					c2.9,19.1,20.7,29.9,36.2,21.9c33.2-17.1,85.8-43.5,117.1-55.8c48.3-18.9,219,15.8,219,15.8S3623.2,1893.4,3560.7,1896.6z"/>
			</g>
			<g>
				<path style="fill:#7B6EE4;" d="M3435.1,1191.4c-566.5-186-1021.4,271.2-1081.1,655.9s201.9,1097.9,201.9,1097.9
					s437.8,81.8,389.3-183.7s-224.8-551.6-206.7-690.3c18.1-138.7,164.1-109.5,206.7-223.9c42.6-114.5,13.7-262.5,188.8-299.4
					c175.1-36.9,373.5,475.4,639.1,418.5C4038.8,1909.4,4001.6,1377.4,3435.1,1191.4z"/>
			</g>
			<g>
				<path style="fill:#EF2B3A;" d="M3441.6,2451.5c-55.4,0-75.1,59.9-75.1,59.9s-15.1-48.8-81.6-45.1
					c-66.5,3.7-136.9,147.2-136.9,147.2s109.3,136.5,235.4,137.4c112.3,0.8,202.4-159.5,202.4-159.5s0,0-28.5-7.4
					C3528.7,2576.6,3497,2451.5,3441.6,2451.5z"/>
			</g>
			<g>
				<path style="fill:#2D2217;" d="M3340.7,2060.7c-0.9-2.2-3.5-3.3-5.7-2.3c-2.2,0.9-3.3,3.5-2.3,5.7c0.2,0.5,22.3,53.8,42.8,111.6
					c33.8,95.8,37.2,129.8,34,141.4c-8.9,32.5-101.9,39.6-137,39.6c-2.4,0-4.4,1.9-4.4,4.4c0,2.4,1.9,4.4,4.4,4.4
					c0.3,0,33.1-0.1,66.9-5.4c46.8-7.4,73.2-21,78.5-40.6c5.1-18.6-6.4-67.9-34.2-146.6C3363.1,2114.8,3340.9,2061.3,3340.7,2060.7z
					"/>
			</g>
			<g>
				<path style="fill:#2D2217;" d="M3479.5,2596.6c-0.7,0.2-69.5,17.3-112.9,19.6c-43.2,2.3-102.1-9.3-102.7-9.4
					c-2.6-0.5-5,1.1-5.6,3.7c-0.5,2.6,1.1,5,3.7,5.6c2.2,0.4,50.2,9.9,92.3,9.9c4.4,0,8.6-0.1,12.8-0.3
					c44.3-2.4,111.8-19.1,114.7-19.9c2.5-0.6,4.1-3.2,3.4-5.7C3484.6,2597.5,3482,2595.9,3479.5,2596.6z"/>
			</g>
		</g>
		<g>
			<path style="fill:#702D9B;" d="M4500,3661.2V4000H931.7c40.2-64.6,195.8-300.6,418.2-463.4c31.5-23.1,64.4-44.7,98.5-64.2
				c76.9-43.9,159.9-76.7,247.5-90.4c141.4-22.2,291.8-40.2,431.2-54.4c38.3-3.9,75.9-7.5,112.1-10.9c247.9-22.8,438-32.7,438-32.7
				s270.3,521,409.5,543.9c139.2,22.9,328-448.5,328-448.5s95.4,16.6,233.3,44.9c35,7.2,72.6,15.1,112.2,23.6
				c205,44.4,460.2,106.5,645.3,174.9C4439.6,3635.4,4471.4,3648.3,4500,3661.2z"/>
		</g>
	</g>
	<g>
		<path style="fill:#C9F47A;" d="M1448.4,3472.4c-34.1,19.4-67,41.1-98.5,64.2c7.2,26.3,30.8,45.5,58.9,45.5
			c33.8,0,61.2-27.9,61.2-62.3C1469.9,3500.8,1461.6,3483.8,1448.4,3472.4z"/>
	</g>
	<g>
		<ellipse style="fill:#C9F47A;" cx="1408.8" cy="3834.2" rx="61.2" ry="62.3"/>
	</g>
	<g>
		<ellipse style="fill:#C9F47A;" cx="1793.6" cy="3578.3" rx="61.2" ry="62.3"/>
	</g>
	<g>
		<path style="fill:#C9F47A;" d="M2127.1,3327.6c-1.8,5.9-2.8,12.2-2.8,18.7c0,34.4,27.4,62.3,61.2,62.3c33.8,0,61.2-27.9,61.2-62.3
			c0-10.7-2.7-20.8-7.4-29.6C2202.9,3320.1,2165.4,3323.7,2127.1,3327.6z"/>
	</g>
	<g>
		<ellipse style="fill:#C9F47A;" cx="2307.7" cy="3797.3" rx="61.2" ry="62.3"/>
	</g>
	<g>
		<path style="fill:#C9F47A;" d="M3648,3424.3c-6,9.6-9.4,21-9.4,33.3c0,34.4,27.4,62.3,61.2,62.3s61.2-27.9,61.2-62.3
			c0-3.3-0.2-6.5-0.7-9.7C3720.6,3439.4,3682.9,3431.5,3648,3424.3z"/>
	</g>
	<g>
		<ellipse style="fill:#C9F47A;" cx="3456.7" cy="3859.6" rx="61.2" ry="62.3"/>
	</g>
	<g>
		<ellipse style="fill:#C9F47A;" cx="4006" cy="3797.3" rx="61.2" ry="62.3"/>
	</g>
	<g>
		<path style="fill:#C9F47A;" d="M4500,3661.2v28.9c-7.2,26.2-30.8,45.4-58.9,45.4c-33.8,0-61.2-27.9-61.2-62.3
			c0-20.8,10-39.2,25.4-50.5C4439.6,3635.4,4471.4,3648.3,4500,3661.2z"/>
	</g>
</g>
</svg>
