<?xml version="1.0" encoding="utf-8"?>
<!-- Generator: Adobe Illustrator 29.8.1, SVG Export Plug-In . SVG Version: 9.03 Build 0)  -->
<svg version="1.0" id="Layer_1" xmlns="http://www.w3.org/2000/svg" xmlns:xlink="http://www.w3.org/1999/xlink" x="0px" y="0px"
	 viewBox="0 0 2000 1500" style="enable-background:new 0 0 2000 1500;" xml:space="preserve">
<g>
	<g>
		<rect style="fill:#02CE53;" width="2000" height="1500"/>
	</g>
	<g>
		<path style="fill:#009937;" d="M2000,1241.983L999.99,983.966c-1.101,0.006-1.99,0.899-1.99,2v328.957
			c0,0.717,0.384,1.379,1.006,1.735L1314.699,1500H2000V1241.983z"/>
	</g>
	<g>
		<g>
			<path d="M268.898,852.742c-1.759,0-3.466-0.931-4.378-2.578c-1.338-2.416-0.464-5.459,1.952-6.797
				c49.833-27.599,121.472-72.899,179.77-131.981c59.091-59.886,90.472-119.769,93.272-177.985c0.133-2.758,2.471-4.88,5.234-4.754
				c2.758,0.133,4.887,2.476,4.754,5.234c-7.321,152.225-196.982,273.262-278.186,318.234
				C270.549,852.54,269.718,852.742,268.898,852.742z"/>
		</g>
		<g>
			<path d="M490.677,1204.057c-0.738,0-1.488-0.164-2.196-0.511c-47.717-23.384-77.485-52.04-88.477-85.172
				c-10.708-32.275,0.013-58.886,5.12-68.828c13.546-26.377,41.399-40.322,68.334-53.808c21.953-10.99,44.652-22.355,58.664-40.216
				c33.919-43.239,32.57-59.402,16.048-257.274c-2.139-25.616-4.563-54.651-7.181-87.021
				c-6.238-77.145,2.314-139.977,12.397-173.055c17.257-56.607,63.122-99.486,116.847-109.239c2.716-0.497,5.319,1.31,5.812,4.026
				c0.493,2.717-1.31,5.319-4.026,5.812c-60.849,11.046-96.784,62.021-109.068,102.316
				c-14.985,49.158-15.828,121.942-11.995,169.333c2.616,32.357,5.04,61.385,7.178,86.995
				c8.268,99.026,12.823,153.575,10.849,188.713c-1.999,35.578-10.56,52.065-28.995,75.565
				c-15.396,19.626-39.116,31.502-62.055,42.986c-26.671,13.354-51.864,25.966-63.916,49.434c-4.53,8.82-14.039,32.432-4.524,61.11
				c10.115,30.489,38.17,57.183,83.386,79.341c2.48,1.216,3.505,4.211,2.29,6.69
				C494.303,1203.027,492.526,1204.057,490.677,1204.057z"/>
		</g>
		<g>
			<g>
				<path style="fill:#233344;" d="M589.51,1248.868c8.153,4.707,14.74,16.123,14.713,25.492s-6.656,13.154-14.809,8.447
					l-125.35-67.712c-8.153-4.707-14.746-16.119-14.72-25.495c0.027-9.369,6.663-13.143,14.816-8.436L589.51,1248.868z"/>
				<path d="M596.038,1286.84c-2.381,0-4.975-0.771-7.624-2.301l-125.301-67.685c-8.893-5.134-15.798-17.096-15.769-27.262
					c0.015-5.256,1.909-9.236,5.333-11.207c3.448-1.983,7.879-1.612,12.482,1.045l125.301,67.678
					c0.017,0.009,0.033,0.019,0.049,0.027c8.84,5.104,15.742,17.064,15.713,27.229c-0.015,5.262-1.911,9.245-5.337,11.217
					C599.427,1286.422,597.79,1286.84,596.038,1286.84z M457.534,1181.133c-1.062,0-2.026,0.239-2.861,0.72
					c-2.136,1.229-3.318,3.982-3.329,7.752c-0.025,8.719,6.13,19.376,13.72,23.758l125.301,67.685
					c3.359,1.939,6.37,2.309,8.526,1.068c2.138-1.23,3.322-3.987,3.333-7.762c0.024-8.709-6.114-19.352-13.689-23.739
					l-125.325-67.691C461.147,1181.732,459.216,1181.133,457.534,1181.133z"/>
			</g>
			<g>
				<path d="M610.654,1236.581l-125.35-67.705c-4.104-2.37-7.824-2.59-10.51-1.029l-21.144,12.287
					c2.686-1.561,6.406-1.341,10.51,1.029l125.35,67.705c8.153,4.707,14.74,16.123,14.713,25.492
					c-0.013,4.656-1.657,7.933-4.309,9.474l21.144-12.287c2.651-1.541,4.296-4.818,4.309-9.474
					C625.394,1252.704,618.807,1241.288,610.654,1236.581z"/>
				<path d="M599.917,1285.834c-0.689,0-1.36-0.356-1.731-0.995c-0.555-0.955-0.231-2.179,0.724-2.734l0.011-0.006
					c2.119-1.239,3.292-3.989,3.303-7.745c0.024-8.718-6.127-19.374-13.713-23.753l-125.301-67.678
					c-3.371-1.945-6.388-2.314-8.545-1.065l-0.01,0.006l0,0c-0.957,0.555-2.18,0.229-2.734-0.725
					c-0.555-0.955-0.231-2.179,0.724-2.734l0,0c0.003-0.002,0.007-0.004,0.011-0.006l21.133-12.281
					c3.451-2.007,7.896-1.64,12.515,1.026l125.301,67.678c0.017,0.009,0.033,0.019,0.049,0.027
					c8.84,5.104,15.742,17.064,15.713,27.229c-0.014,5.242-1.898,9.219-5.304,11.197l-21.144,12.288l0,0
					C600.603,1285.747,600.257,1285.834,599.917,1285.834z M461.611,1177.82c1.162,0.381,2.349,0.918,3.549,1.61l125.301,67.678
					c8.889,5.131,15.792,17.092,15.763,27.257c-0.004,1.316-0.125,2.553-0.359,3.697l14.189-8.246
					c2.126-1.235,3.303-3.987,3.313-7.75c0.025-8.708-6.114-19.351-13.688-23.739l-125.326-67.691
					c-3.375-1.948-6.396-2.315-8.554-1.06L461.611,1177.82z"/>
			</g>
			<g>
				<path d="M574.21,1220.703c-10.583-6.11-20.173-6.677-27.097-2.653l-33.24,19.317c6.925-4.024,16.514-3.457,27.097,2.653
					c21.041,12.148,38.036,41.585,37.968,65.752c-0.034,12.004-4.272,20.451-11.108,24.424l33.24-19.317
					c6.836-3.973,11.074-12.419,11.108-24.424C612.246,1262.288,595.25,1232.851,574.21,1220.703z"/>
				<path d="M567.831,1332.195c-0.689,0-1.36-0.356-1.731-0.995c-0.555-0.955-0.231-2.179,0.724-2.734
					c6.491-3.771,10.083-11.834,10.113-22.7c0.066-23.49-16.517-52.206-36.968-64.013c-9.591-5.538-18.497-6.485-25.081-2.663
					l-0.012,0.007c-0.955,0.555-2.18,0.229-2.734-0.725c-0.555-0.955-0.231-2.179,0.724-2.734c0.006-0.003,0.012-0.007,0.017-0.01
					l33.223-19.308c7.876-4.578,18.213-3.636,29.102,2.65l0,0c21.557,12.445,39.038,42.721,38.968,67.489
					c-0.035,12.346-4.333,21.632-12.104,26.147l-33.24,19.317C568.518,1332.108,568.171,1332.195,567.831,1332.195z
					 M525.646,1232.838c5.11,0.345,10.64,2.17,16.323,5.45c21.557,12.446,39.038,42.722,38.968,67.489
					c-0.018,6.372-1.172,11.929-3.353,16.436l22.479-13.064c6.491-3.771,10.083-11.834,10.113-22.7
					c0.066-23.49-16.517-52.206-36.968-64.013l0,0c-9.597-5.542-18.508-6.483-25.092-2.656L525.646,1232.838z"/>
			</g>
			<g>
				<path style="fill:#233344;" d="M540.969,1240.02c21.041,12.148,38.036,41.585,37.968,65.751
					c-0.068,24.167-17.175,33.915-38.216,21.767c-21.031-12.142-38.027-41.58-37.958-65.746
					C502.832,1237.626,519.938,1227.878,540.969,1240.02z"/>
				<path d="M557.821,1334.783c-5.595,0.001-11.754-1.849-18.1-5.512c-21.552-12.443-39.028-42.717-38.958-67.484
					c0.035-12.391,4.36-21.693,12.178-26.192c7.868-4.526,18.178-3.569,29.028,2.693l0,0c21.557,12.445,39.038,42.721,38.968,67.489
					c-0.035,12.391-4.36,21.691-12.177,26.19C565.49,1333.849,561.797,1334.783,557.821,1334.783z M523.892,1236.783
					c-3.288,0-6.309,0.756-8.955,2.279c-6.53,3.757-10.143,11.832-10.173,22.736c-0.067,23.489,16.512,52.204,36.958,64.008
					c9.568,5.525,18.462,6.482,25.043,2.693c6.529-3.757,10.141-11.831,10.172-22.734c0.066-23.49-16.517-52.206-36.968-64.013l0,0
					C534.253,1238.452,528.777,1236.783,523.892,1236.783z"/>
			</g>
			<g>
				<g>
					<path d="M533.614,1249.902c2.109,1.218,3.813,4.168,3.806,6.591c-0.007,2.422-1.722,3.4-3.831,2.182
						c-2.108-1.217-3.812-4.168-3.805-6.59C529.791,1249.662,531.506,1248.685,533.614,1249.902z"/>
				</g>
				<g>
					<path d="M551.708,1261.095c2.109,1.218,3.813,4.168,3.806,6.591c-0.007,2.422-1.722,3.4-3.831,2.182
						c-2.108-1.217-3.812-4.168-3.805-6.59C547.885,1260.855,549.6,1259.878,551.708,1261.095z"/>
				</g>
				<g>
					<path d="M520.83,1258.087c2.109,1.218,3.813,4.168,3.806,6.591c-0.007,2.422-1.722,3.4-3.831,2.182
						c-2.108-1.217-3.812-4.168-3.805-6.59C517.007,1257.847,518.722,1256.87,520.83,1258.087z"/>
				</g>
				<g>
					<path d="M538.75,1269.641c2.109,1.218,3.813,4.168,3.806,6.591c-0.007,2.422-1.722,3.4-3.831,2.182
						c-2.108-1.217-3.812-4.168-3.805-6.59C534.927,1269.401,536.642,1268.424,538.75,1269.641z"/>
				</g>
				<g>
					<path d="M556.67,1281.194c2.109,1.218,3.813,4.168,3.806,6.591c-0.007,2.422-1.722,3.4-3.831,2.182
						c-2.108-1.217-3.812-4.168-3.805-6.59C552.847,1280.954,554.562,1279.977,556.67,1281.194z"/>
				</g>
				<g>
					<path d="M520.83,1277.401c2.109,1.218,3.813,4.168,3.806,6.591c-0.007,2.422-1.722,3.4-3.831,2.182
						c-2.108-1.217-3.812-4.168-3.805-6.59C517.007,1277.161,518.722,1276.184,520.83,1277.401z"/>
				</g>
				<g>
					<path d="M538.75,1288.955c2.109,1.218,3.813,4.168,3.806,6.591c-0.007,2.422-1.722,3.4-3.831,2.182
						c-2.108-1.217-3.812-4.168-3.805-6.59C534.927,1288.715,536.642,1287.738,538.75,1288.955z"/>
				</g>
				<g>
					<path d="M556.67,1300.508c2.109,1.218,3.813,4.168,3.806,6.591c-0.007,2.422-1.722,3.4-3.831,2.182
						c-2.108-1.217-3.812-4.168-3.805-6.59C552.847,1300.268,554.562,1299.291,556.67,1300.508z"/>
				</g>
				<g>
					<path d="M529.79,1300.788c2.109,1.218,3.813,4.168,3.806,6.591c-0.007,2.422-1.722,3.4-3.831,2.182
						c-2.108-1.217-3.812-4.168-3.805-6.59C525.967,1300.548,527.682,1299.571,529.79,1300.788z"/>
				</g>
				<g>
					<path d="M547.71,1312.342c2.109,1.218,3.813,4.168,3.806,6.591c-0.007,2.422-1.722,3.4-3.831,2.182
						c-2.108-1.217-3.812-4.168-3.805-6.59C543.887,1312.102,545.602,1311.125,547.71,1312.342z"/>
				</g>
			</g>
		</g>
		<g>
			<g>
				<path style="fill:#233344;" d="M177.634,891.771c-8.153,4.707-14.74,16.123-14.713,25.492
					c0.027,9.369,6.656,13.154,14.809,8.447l125.35-67.712c8.153-4.707,14.746-16.119,14.72-25.495
					c-0.027-9.369-6.663-13.143-14.816-8.436L177.634,891.771z"/>
				<path d="M171.115,929.745c-1.753,0-3.394-0.417-4.858-1.26c-3.427-1.972-5.322-5.956-5.337-11.217
					c-0.029-10.165,6.873-22.125,15.713-27.229c0.017-0.009,0.033-0.019,0.049-0.027l125.351-67.705
					c4.553-2.63,8.986-3.002,12.433-1.018c3.424,1.971,5.319,5.951,5.334,11.207c0.029,10.166-6.876,22.128-15.72,27.233
					l-125.4,67.74C176.064,928.98,173.488,929.745,171.115,929.745z M178.609,893.518c-7.576,4.389-13.714,15.03-13.689,23.739
					c0.011,3.774,1.194,6.531,3.332,7.762c2.156,1.24,5.167,0.872,8.477-1.041l125.4-67.74c7.541-4.354,13.695-15.012,13.67-23.729
					c-0.011-3.77-1.193-6.522-3.329-7.752c-2.157-1.242-5.171-0.871-8.487,1.043L178.609,893.518z"/>
			</g>
			<g>
				<path d="M156.49,879.484l125.35-67.705c4.104-2.37,7.824-2.59,10.51-1.029l21.144,12.287c-2.686-1.561-6.406-1.341-10.51,1.029
					l-125.35,67.705c-8.153,4.707-14.74,16.123-14.713,25.492c0.013,4.656,1.657,7.933,4.309,9.474l-21.144-12.287
					c-2.651-1.541-4.296-4.818-4.309-9.474C141.75,895.607,148.336,884.191,156.49,879.484z"/>
				<path d="M167.227,928.737c-0.341,0-0.687-0.087-1.003-0.271l-21.144-12.288c-3.406-1.979-5.29-5.956-5.304-11.197
					c-0.029-10.165,6.874-22.126,15.713-27.23c0.016-0.009,0.033-0.019,0.049-0.027L280.89,810.02
					c4.57-2.639,9.013-3.004,12.465-0.999l21.133,12.28c0.003,0.003,0.007,0.005,0.011,0.007l0,0
					c0.955,0.556,1.279,1.779,0.725,2.734c-0.555,0.954-1.777,1.28-2.734,0.725l-0.001-0.001c-2.159-1.254-5.179-0.888-8.504,1.033
					l-125.4,67.732c-7.537,4.353-13.688,15.008-13.664,23.726c0.011,3.763,1.188,6.516,3.313,7.751
					c0.955,0.556,1.279,1.779,0.724,2.734C168.587,928.381,167.917,928.737,167.227,928.737z M157.466,881.229
					c-7.575,4.389-13.714,15.031-13.689,23.74c0.011,3.763,1.188,6.515,3.314,7.75l14.189,8.247
					c-0.234-1.146-0.355-2.382-0.359-3.698c-0.029-10.165,6.873-22.125,15.713-27.229l125.4-67.732
					c1.178-0.681,2.348-1.21,3.494-1.586l-14.182-8.241c-2.159-1.258-5.18-0.889-8.505,1.032L157.466,881.229z"/>
			</g>
			<g>
				<path d="M192.934,863.606c10.583-6.11,20.173-6.677,27.097-2.653l33.24,19.317c-6.925-4.024-16.514-3.457-27.097,2.653
					c-21.041,12.148-38.036,41.585-37.968,65.752c0.034,12.004,4.272,20.451,11.108,24.424l-33.24-19.317
					c-6.836-3.973-11.074-12.419-11.108-24.424C154.898,905.191,171.894,875.754,192.934,863.606z"/>
				<path d="M199.313,975.099c-0.341,0-0.687-0.087-1.003-0.271l-33.24-19.317c-7.77-4.516-12.068-13.802-12.103-26.147
					c-0.07-24.767,17.413-55.042,38.967-67.489l0,0c10.89-6.287,21.225-7.229,29.102-2.65l33.228,19.311
					c0.004,0.002,0.008,0.005,0.013,0.007c0.955,0.556,1.279,1.779,0.724,2.734c-0.555,0.955-1.779,1.278-2.734,0.725l-0.007-0.005
					c-6.585-3.823-15.493-2.879-25.084,2.66c-20.451,11.808-37.034,40.523-36.968,64.014c0.031,10.867,3.623,18.929,10.113,22.7
					c0.955,0.556,1.279,1.779,0.724,2.734C200.673,974.742,200.002,975.099,199.313,975.099z M210.012,860.368
					c-4.885,0-10.359,1.669-16.078,4.971l0,0c-20.45,11.807-37.034,40.522-36.967,64.013c0.031,10.867,3.623,18.929,10.113,22.7
					l22.48,13.064c-2.181-4.507-3.334-10.063-3.353-16.436c-0.07-24.768,17.411-55.044,38.968-67.49
					c5.681-3.279,11.212-5.104,16.322-5.45l-22.47-13.058C216.366,861.136,213.324,860.368,210.012,860.368z M192.934,863.606h0.01
					H192.934z"/>
			</g>
			<g>
				<path style="fill:#233344;" d="M226.175,882.923c-21.041,12.148-38.036,41.585-37.968,65.752s17.175,33.915,38.216,21.767
					c21.031-12.142,38.027-41.58,37.958-65.746C264.312,880.529,247.206,870.781,226.175,882.923z"/>
				<path d="M209.323,977.687c-3.978,0-7.668-0.935-10.938-2.816c-7.817-4.498-12.142-13.8-12.177-26.189
					c-0.07-24.768,17.411-55.044,38.968-67.49c10.85-6.265,21.158-7.222,29.028-2.692c7.818,4.499,12.143,13.801,12.178,26.191
					c0.07,24.769-17.406,55.042-38.958,67.484C221.078,975.837,214.917,977.687,209.323,977.687z M226.175,882.923l1,1.732
					c-20.451,11.808-37.034,40.523-36.968,64.014c0.031,10.903,3.644,18.978,10.172,22.734c6.581,3.788,15.475,2.829,25.043-2.694
					c20.445-11.803,37.024-40.517,36.958-64.008c-0.031-10.904-3.644-18.979-10.173-22.736c-6.581-3.787-15.47-2.83-25.033,2.69
					L226.175,882.923z"/>
			</g>
			<g>
				<g>
					<path d="M233.53,892.805c-2.109,1.218-3.813,4.168-3.806,6.591s1.722,3.4,3.831,2.182c2.108-1.217,3.812-4.168,3.805-6.59
						S235.638,891.588,233.53,892.805z"/>
				</g>
				<g>
					<path d="M215.436,903.998c-2.109,1.218-3.813,4.168-3.806,6.591s1.722,3.4,3.831,2.182c2.108-1.217,3.812-4.168,3.805-6.59
						S217.544,902.781,215.436,903.998z"/>
				</g>
				<g>
					<path d="M246.314,900.99c-2.109,1.218-3.813,4.168-3.806,6.591s1.722,3.4,3.831,2.182c2.108-1.217,3.812-4.168,3.805-6.59
						S248.422,899.773,246.314,900.99z"/>
				</g>
				<g>
					<path d="M228.394,912.544c-2.109,1.218-3.813,4.168-3.806,6.591s1.722,3.4,3.831,2.182c2.108-1.217,3.812-4.168,3.805-6.59
						S230.502,911.327,228.394,912.544z"/>
				</g>
				<g>
					<path d="M210.474,924.097c-2.109,1.218-3.813,4.168-3.806,6.591s1.722,3.4,3.831,2.182c2.108-1.217,3.812-4.168,3.805-6.59
						S212.582,922.88,210.474,924.097z"/>
				</g>
				<g>
					<path d="M246.314,920.304c-2.109,1.218-3.813,4.168-3.806,6.591s1.722,3.4,3.831,2.182c2.108-1.217,3.812-4.168,3.805-6.59
						S248.422,919.087,246.314,920.304z"/>
				</g>
				<g>
					<path d="M228.394,931.858c-2.109,1.218-3.813,4.168-3.806,6.591s1.722,3.4,3.831,2.182c2.108-1.217,3.812-4.168,3.805-6.59
						S230.502,930.641,228.394,931.858z"/>
				</g>
				<g>
					<path d="M210.474,943.411c-2.109,1.218-3.813,4.168-3.806,6.591s1.722,3.4,3.831,2.182c2.108-1.217,3.812-4.168,3.805-6.59
						S212.582,942.194,210.474,943.411z"/>
				</g>
				<g>
					<path d="M237.354,943.691c-2.109,1.218-3.813,4.168-3.806,6.591s1.722,3.4,3.831,2.182c2.108-1.217,3.812-4.168,3.805-6.59
						S239.462,942.474,237.354,943.691z"/>
				</g>
				<g>
					<path d="M219.434,955.245c-2.109,1.218-3.813,4.168-3.806,6.591s1.722,3.4,3.831,2.182c2.108-1.217,3.812-4.168,3.805-6.59
						S221.542,954.028,219.434,955.245z"/>
				</g>
			</g>
		</g>
		<g>
			<path d="M1337.042,495.186c-1.63,0-3.229-0.796-4.188-2.261c-1.513-2.31-0.867-5.409,1.443-6.922
				c10.369-6.79,22.612-13.493,34.451-19.975c17.614-9.644,35.829-19.615,42.257-27.266c5.822-6.93,6.16-10.619,5.907-12.791
				c-0.659-5.668-7.792-12.024-19.088-20.442c-25.005-18.636-58.838,2.667-79.053,15.395c-1.463,0.921-2.854,1.797-4.165,2.61
				c-2.347,1.455-5.428,0.732-6.885-1.615c-1.455-2.347-0.731-5.429,1.615-6.884c1.293-0.801,2.664-1.665,4.105-2.573
				c20.916-13.171,59.85-37.687,90.358-14.952c14.108,10.515,21.96,17.981,23.045,27.305c0.741,6.375-1.859,12.851-8.185,20.379
				c-7.636,9.088-25.839,19.054-45.11,29.605c-11.67,6.389-23.736,12.995-33.775,19.569
				C1338.932,494.921,1337.981,495.186,1337.042,495.186z"/>
		</g>
		<g>
			<polygon style="fill:#509EFF;" points="1173.318,453.452 1173.318,1414.214 653.364,1114.018 653.364,153.53 			"/>
			<path d="M1173.318,1416.214c-0.346,0-0.69-0.089-1-0.268l-519.954-300.195c-0.619-0.357-1-1.018-1-1.732V153.53
				c0-0.714,0.381-1.375,1-1.732c0.619-0.356,1.381-0.357,2,0l519.954,299.922c0.619,0.357,1.001,1.018,1.001,1.732v960.762
				c0,0.715-0.381,1.375-1,1.732C1174.009,1416.125,1173.664,1416.214,1173.318,1416.214z M655.364,1112.864l515.954,297.886
				V454.607L655.364,156.992V1112.864z"/>
		</g>
		<g>
			<path style="fill:#233344;" d="M722.691,970.846V388.164c0-15.396,16.667-25.018,30-17.32L980,502.08
				c12.376,7.145,20,20.35,20,34.641v582.682c0,15.396-16.667,25.019-30,17.321l-227.309-131.237
				C730.315,998.342,722.691,985.137,722.691,970.846z"/>
			<path d="M980,1141.438c-3.779,0-7.556-0.994-11-2.982L741.691,1007.22c-12.953-7.479-21-21.416-21-36.373V388.164
				c0-7.954,4.112-15.076,11-19.053c6.889-3.976,15.113-3.976,22,0L981,500.349c12.953,7.478,21,21.416,21,36.373v582.682
				c0,7.953-4.112,15.076-11,19.053C987.557,1140.444,983.778,1141.438,980,1141.438z M742.691,370.135c-3.091,0-6.182,0.813-9,2.44
				c-5.636,3.253-9,9.081-9,15.588v582.683c0,13.532,7.28,26.142,19,32.908L971,1134.991c5.636,3.254,12.365,3.255,18,0.001
				c5.636-3.254,9-9.081,9-15.589V536.722c0-13.533-7.28-26.143-19-32.909L751.691,372.576
				C748.874,370.949,745.782,370.135,742.691,370.135z"/>
		</g>
		<g>
			<path style="fill:#FDC41F;" d="M752.691,988.167c-6.168-3.562-10-10.198-10-17.32V388.164L970,519.401
				c6.168,3.562,10,10.198,10,17.321c0,0,0,43.988,0,107.792c0,168.414,0,474.89,0,474.891L752.691,988.167z"/>
			<path d="M979.996,1121.403c-0.344,0-0.688-0.089-0.996-0.267L751.691,989.899l0,0c-6.785-3.918-11-11.219-11-19.053V388.165
				c0-0.714,0.381-1.375,1-1.732c0.619-0.357,1.381-0.357,2,0L971,517.669c6.785,3.918,11,11.218,11,19.053l0,582.678
				c0,0.714-0.381,1.377-1,1.734C980.689,1121.312,980.342,1121.403,979.996,1121.403z M753.691,986.435L978,1115.94l0-579.219
				c0-6.41-3.449-12.383-9-15.589L744.691,391.628v579.218C744.691,977.257,748.14,983.229,753.691,986.435L753.691,986.435z"/>
		</g>
		<g>
			<path style="fill:#BFD8F6;" d="M792.018,832.1V620.839c0-7.704,8.345-12.515,15.012-8.653l79.946,46.305
				c6.184,3.582,9.987,10.19,9.976,17.336l-0.313,210.918c-0.011,7.691-8.339,12.491-15,8.645l-79.621-45.969
				C795.83,845.847,792.018,839.245,792.018,832.1z"/>
			<path d="M886.639,898.748c-2.061,0-4.122-0.542-6-1.626l-79.621-45.97c-6.785-3.917-11-11.218-11-19.053V620.838
				c0-4.342,2.246-8.229,6.007-10.396c3.762-2.169,8.25-2.164,12.007,0.013l79.946,46.305c6.781,3.927,10.985,11.234,10.974,19.069
				l-0.312,210.918c-0.007,4.335-2.253,8.215-6.008,10.379C890.755,898.208,888.697,898.748,886.639,898.748z M802.019,612.826
				c-1.372,0-2.744,0.36-3.995,1.082c-2.508,1.446-4.005,4.037-4.005,6.931V832.1c0,6.41,3.449,12.384,9,15.588l79.621,45.97
				c2.503,1.446,5.491,1.446,7.994,0.004c2.504-1.443,4.001-4.03,4.006-6.92l0.312-210.918c0.01-6.411-3.431-12.389-8.979-15.603
				l-79.946-46.305C804.773,613.189,803.396,612.826,802.019,612.826z"/>
		</g>
		<g>
			<polygon style="fill:#1D7FD8;" points="1173.318,453.452 1346.636,353.66 1346.637,1314.149 1173.318,1414.214 			"/>
			<path d="M1173.318,1416.214c-0.346,0-0.69-0.089-1-0.268c-0.619-0.357-1-1.018-1-1.732V453.452c0-0.715,0.382-1.376,1.002-1.733
				l173.317-99.792c0.618-0.356,1.381-0.356,1.999,0.002c0.618,0.357,0.999,1.017,0.999,1.731l0.001,960.488
				c0,0.715-0.381,1.375-1,1.732l-173.318,100.065C1174.009,1416.125,1173.664,1416.214,1173.318,1416.214z M1175.318,454.608
				v956.142l169.318-97.756l-0.001-955.875L1175.318,454.608z"/>
		</g>
		<g>
			<polygon style="fill:#509EFF;" points="653.364,153.53 826.682,53.464 1346.636,353.66 1173.318,453.452 			"/>
			<path d="M1173.318,455.452c-0.345,0-0.69-0.089-0.999-0.268L652.365,155.262c-0.619-0.357-1-1.018-1-1.732
				c0-0.715,0.381-1.375,1-1.732L825.682,51.732c0.619-0.357,1.381-0.357,2,0l519.954,300.196c0.619,0.357,1,1.018,1,1.733
				c0,0.715-0.383,1.375-1.002,1.732l-173.317,99.792C1174.008,455.363,1173.663,455.452,1173.318,455.452z M657.366,153.529
				l515.954,297.615l169.312-97.486L826.682,55.774L657.366,153.529z"/>
		</g>
		<g>
			<g>
				<path style="fill:#FF613C;" d="M1250.787,543.065c-12.583,0-21.399-10.116-21.44-24.6c-0.047-16.54,11.181-36,25.562-44.302
					c4.793-2.768,9.591-4.17,14.26-4.17c12.583,0,21.399,10.113,21.44,24.593c0.047,16.543-11.184,36.006-25.566,44.31
					C1260.251,541.662,1255.455,543.065,1250.787,543.065z"/>
				<path d="M1250.787,545.065c-13.757,0-23.396-10.936-23.44-26.594c-0.049-17.189,11.618-37.413,26.562-46.04
					c5.101-2.945,10.234-4.438,15.26-4.438c13.757,0,23.396,10.933,23.44,26.587c0.049,17.193-11.621,37.419-26.566,46.048
					C1260.942,543.572,1255.811,545.065,1250.787,545.065z M1269.168,471.993c-4.314,0-8.775,1.313-13.26,3.902
					c-13.817,7.978-24.606,26.674-24.562,42.564c0.038,13.31,8.032,22.605,19.44,22.605c4.312,0,8.771-1.312,13.255-3.901
					c13.82-7.979,24.611-26.679,24.566-42.572C1288.57,481.286,1280.576,471.993,1269.168,471.993z"/>
			</g>
			<g>
				<path d="M1259.908,482.823c11.396-6.58,20.663-1.299,20.7,11.791c0.037,13.095-9.17,29.042-20.566,35.622
					c-11.392,6.577-20.659,1.296-20.696-11.799C1239.309,505.347,1248.516,489.4,1259.908,482.823z"/>
				<path d="M1250.784,535.076c-2.312,0-4.465-0.547-6.38-1.649c-4.531-2.608-7.038-7.929-7.058-14.985
					c-0.039-13.709,9.634-30.465,21.562-37.351c6.174-3.565,12.083-4.084,16.645-1.461c4.529,2.607,7.036,7.926,7.056,14.978
					c0.039,13.712-9.636,30.472-21.566,37.359C1257.464,534.034,1253.974,535.076,1250.784,535.076z M1269.159,481.985
					c-2.484,0-5.295,0.864-8.251,2.57l0,0c-10.821,6.248-19.597,21.444-19.562,33.875c0.016,5.569,1.811,9.664,5.053,11.529
					c3.268,1.881,7.757,1.364,12.643-1.456c10.824-6.25,19.602-21.45,19.566-33.884c-0.016-5.565-1.81-9.657-5.051-11.523
					C1272.265,482.354,1270.782,481.985,1269.159,481.985z M1259.908,482.823h0.01H1259.908z"/>
			</g>
		</g>
		<g>
			<g>
				<path style="fill:#02CE53;" d="M1250.787,673.732c-12.583,0-21.399-10.116-21.44-24.6c-0.047-16.54,11.181-36,25.562-44.302
					c4.793-2.768,9.591-4.17,14.26-4.17c12.583,0,21.399,10.113,21.44,24.593c0.047,16.543-11.184,36.006-25.566,44.31
					C1260.251,672.329,1255.455,673.732,1250.787,673.732z"/>
				<path d="M1250.787,675.732c-13.757,0-23.396-10.936-23.44-26.594c-0.049-17.189,11.618-37.413,26.562-46.04
					c5.101-2.945,10.234-4.438,15.26-4.438c13.757,0,23.396,10.933,23.44,26.587c0.049,17.193-11.621,37.419-26.566,46.048
					C1260.942,674.239,1255.811,675.732,1250.787,675.732z M1269.168,602.66c-4.314,0-8.775,1.313-13.26,3.902
					c-13.817,7.978-24.606,26.674-24.562,42.564c0.038,13.31,8.032,22.605,19.44,22.605c4.312,0,8.771-1.312,13.255-3.901
					c13.82-7.979,24.611-26.679,24.566-42.572C1288.57,611.953,1280.576,602.66,1269.168,602.66z"/>
			</g>
			<g>
				<path d="M1259.908,613.49c11.396-6.58,20.663-1.299,20.7,11.791c0.037,13.095-9.17,29.042-20.566,35.622
					c-11.392,6.577-20.659,1.296-20.696-11.799C1239.309,636.014,1248.516,620.067,1259.908,613.49z"/>
				<path d="M1250.784,665.743c-2.312,0-4.465-0.547-6.38-1.649c-4.531-2.608-7.038-7.929-7.058-14.985
					c-0.039-13.71,9.634-30.465,21.562-37.351c6.174-3.565,12.083-4.084,16.645-1.461c4.529,2.607,7.036,7.926,7.056,14.978
					c0.039,13.712-9.636,30.472-21.566,37.359C1257.464,664.701,1253.974,665.743,1250.784,665.743z M1269.159,612.652
					c-2.484,0-5.295,0.864-8.251,2.57l0,0c-10.821,6.247-19.597,21.444-19.562,33.875c0.016,5.569,1.811,9.664,5.053,11.529
					c3.268,1.88,7.757,1.363,12.643-1.456c10.824-6.25,19.602-21.45,19.566-33.884c-0.016-5.565-1.81-9.657-5.051-11.523
					C1272.265,613.021,1270.782,612.652,1269.159,612.652z M1259.908,613.49h0.01H1259.908z"/>
			</g>
		</g>
		<g>
			<g>
				<g>
					<polygon style="fill:#FF613C;" points="757.355,116.414 826.682,76.251 930.673,136.29 861.346,176.316 					"/>
					<path d="M861.346,178.316c-0.345,0-0.689-0.089-0.999-0.267l-103.99-59.902c-0.619-0.356-1.001-1.016-1.002-1.73
						s0.379-1.375,0.998-1.733l69.327-40.163c0.619-0.359,1.382-0.359,2.002-0.001l103.991,60.039c0.619,0.357,1,1.018,1,1.732
						s-0.381,1.375-1,1.732l-69.327,40.026C862.036,178.227,861.691,178.316,861.346,178.316z M761.354,116.409l99.991,57.599
						l65.328-37.717l-99.989-57.729L761.354,116.409z"/>
				</g>
				<g>
					<polygon style="fill:#FF613C;" points="757.355,156.44 757.355,116.414 861.346,176.316 861.346,216.342 					"/>
					<path d="M861.346,218.342c-0.345,0-0.689-0.089-0.998-0.267l-103.991-59.902c-0.62-0.357-1.002-1.018-1.002-1.733v-40.026
						c0-0.714,0.381-1.374,0.999-1.731c0.618-0.358,1.38-0.358,2-0.001l103.99,59.902c0.62,0.357,1.002,1.018,1.002,1.733v40.026
						c0,0.714-0.381,1.374-0.999,1.731C862.037,218.253,861.691,218.342,861.346,218.342z M759.355,155.284l99.991,57.598v-35.41
						l-99.991-57.599V155.284z"/>
				</g>
				<g>
					<polygon style="fill:#E54728;" points="930.673,176.408 930.673,136.29 861.346,176.316 861.346,216.342 					"/>
					<path d="M861.346,218.342c-0.346,0-0.691-0.089-1.001-0.269c-0.618-0.357-0.999-1.017-0.999-1.731v-40.026
						c0-0.714,0.381-1.375,1-1.732l69.327-40.026c0.619-0.357,1.381-0.357,2,0c0.619,0.357,1,1.018,1,1.732v40.117
						c0,0.715-0.382,1.376-1.002,1.733l-69.327,39.935C862.035,218.253,861.69,218.342,861.346,218.342z M863.346,177.471v35.411
						l65.327-37.631v-35.497L863.346,177.471z M930.673,176.408h0.01H930.673z"/>
				</g>
			</g>
			<g>
				<g>
					<polygon style="fill:#BFD8F6;" points="861.346,200.528 930.673,160.365 1034.664,220.404 965.336,260.431 					"/>
					<path d="M965.336,262.431c-0.345,0-0.689-0.089-0.998-0.267l-103.991-59.902c-0.619-0.356-1-1.016-1.001-1.73
						s0.379-1.375,0.998-1.733l69.327-40.163c0.62-0.358,1.383-0.36,2.002-0.001l103.991,60.039c0.619,0.357,1,1.018,1,1.732
						s-0.381,1.375-1,1.732l-69.328,40.026C966.027,262.341,965.682,262.431,965.336,262.431z M865.344,200.523l99.992,57.599
						l65.329-37.718l-99.99-57.729L865.344,200.523z"/>
				</g>
				<g>
					<polygon style="fill:#BFD8F6;" points="861.346,216.548 861.346,200.528 965.336,260.431 965.336,276.45 					"/>
					<path d="M965.336,278.45c-0.345,0-0.689-0.089-0.998-0.267l-103.991-59.902c-0.62-0.357-1.002-1.018-1.002-1.733v-16.02
						c0-0.714,0.381-1.374,0.999-1.731c0.619-0.358,1.381-0.358,2-0.001l103.99,59.902c0.62,0.357,1.002,1.018,1.002,1.733v16.019
						c0,0.714-0.381,1.374-0.999,1.731C966.028,278.36,965.682,278.45,965.336,278.45z M863.346,215.392l99.991,57.598v-11.403
						l-99.991-57.599V215.392z"/>
				</g>
			</g>
			<g>
				<g>
					<polygon style="fill:#BFD8F6;" points="965.336,236.629 1034.664,196.466 1138.654,256.505 1069.327,296.531 					"/>
					<path d="M1069.327,298.531c-0.345,0-0.689-0.089-0.998-0.267l-103.991-59.902c-0.619-0.356-1.001-1.016-1.002-1.73
						s0.379-1.375,0.998-1.733l69.327-40.163c0.62-0.359,1.383-0.36,2.003-0.001l103.99,60.039c0.619,0.357,1,1.018,1,1.732
						s-0.381,1.375-1,1.732l-69.327,40.026C1070.018,298.442,1069.673,298.531,1069.327,298.531z M969.335,236.624l99.991,57.599
						l65.328-37.717l-99.988-57.729L969.335,236.624z"/>
				</g>
				<g>
					<polygon style="fill:#BFD8F6;" points="965.336,276.655 965.336,236.629 1069.327,296.531 1069.327,336.557 					"/>
					<path d="M1069.327,338.557c-0.345,0-0.689-0.089-0.998-0.267l-103.991-59.902c-0.62-0.357-1.002-1.018-1.002-1.733v-40.026
						c0-0.714,0.381-1.374,0.999-1.731c0.618-0.358,1.38-0.358,2-0.001l103.99,59.902c0.62,0.357,1.002,1.018,1.002,1.733v40.026
						c0,0.714-0.381,1.374-0.999,1.731C1070.019,338.468,1069.673,338.557,1069.327,338.557z M967.336,275.499l99.991,57.598v-35.41
						l-99.991-57.599V275.499z"/>
				</g>
				<g>
					<polygon style="fill:#BFD8F6;" points="1138.654,296.622 1138.654,256.505 1069.327,296.531 1069.327,336.557 					"/>
					<path d="M1069.327,338.557c-0.346,0-0.691-0.089-1.001-0.269c-0.618-0.357-0.999-1.017-0.999-1.731v-40.026
						c0-0.714,0.381-1.375,1-1.732l69.327-40.026c0.619-0.357,1.381-0.357,2,0c0.619,0.357,1,1.018,1,1.732v40.117
						c0,0.715-0.382,1.376-1.002,1.733l-69.327,39.935C1070.017,338.468,1069.672,338.557,1069.327,338.557z M1071.327,297.686
						v35.411l65.327-37.631v-35.497L1071.327,297.686z M1138.654,296.623h0.01H1138.654z"/>
				</g>
			</g>
			<g>
				<g>
					<polygon style="fill:#BFD8F6;" points="1069.327,296.737 1138.654,256.574 1242.645,316.613 1173.318,356.639 					"/>
					<path d="M1173.318,358.639c-0.345,0-0.689-0.089-0.998-0.267l-103.991-59.902c-0.619-0.356-1.001-1.016-1.002-1.73
						s0.379-1.375,0.997-1.733l69.327-40.163c0.62-0.359,1.383-0.36,2.003-0.001l103.991,60.039c0.619,0.357,1,1.018,1,1.732
						s-0.381,1.375-1,1.732l-69.327,40.026C1174.009,358.549,1173.664,358.639,1173.318,358.639z M1073.325,296.732l99.992,57.598
						l65.328-37.717l-99.989-57.729L1073.325,296.732z"/>
				</g>
				<g>
					<polygon style="fill:#BFD8F6;" points="1069.327,336.763 1069.327,296.737 1173.318,356.639 1173.318,396.665 					"/>
					<path d="M1173.318,398.665c-0.345,0-0.689-0.089-0.998-0.267l-103.991-59.902c-0.62-0.357-1.002-1.018-1.002-1.733v-40.026
						c0-0.714,0.381-1.374,0.999-1.731c0.619-0.358,1.382-0.358,1.999-0.001l103.991,59.902c0.62,0.357,1.002,1.018,1.002,1.733
						v40.026c0,0.714-0.381,1.374-0.999,1.731C1174.01,398.575,1173.664,398.665,1173.318,398.665z M1071.327,335.606l99.991,57.598
						v-35.41l-99.991-57.598V335.606z"/>
				</g>
				<g>
					<polygon style="fill:#9ABAD8;" points="1242.645,356.73 1242.645,316.613 1173.318,356.639 1173.318,396.665 					"/>
					<path d="M1173.318,398.665c-0.346,0-0.691-0.089-1.001-0.269c-0.618-0.357-0.999-1.017-0.999-1.731v-40.026
						c0-0.714,0.381-1.375,1-1.732l69.327-40.026c0.619-0.357,1.381-0.357,2,0c0.619,0.357,1,1.018,1,1.732v40.117
						c0,0.715-0.382,1.376-1.002,1.733l-69.327,39.935C1174.008,398.576,1173.663,398.665,1173.318,398.665z M1175.318,357.793
						v35.411l65.327-37.631v-35.497L1175.318,357.793z M1242.646,356.73h0.01H1242.646z"/>
				</g>
			</g>
			<g>
				<g>
					<path style="fill:#85A8C6;" d="M1169.254,297.015c0.556,0.321,0.986,0.732,1.215,1.223l9.27,19.894
						c0.947,2.016-2.225,3.859-5.715,3.321l-34.376-5.304c-0.847-0.131-1.559-0.379-2.114-0.7c-1.737-1.003-1.95-2.723-0.018-3.846
						l6.388-3.712l-25.331-3.911c-0.846-0.13-1.557-0.377-2.112-0.698c-1.736-1.003-1.952-2.724-0.02-3.847l25.106-14.59
						c1.927-1.12,4.899-1,6.635,0.003c0.555,0.321,0.984,0.732,1.212,1.221l6.835,14.66l6.394-3.716
						C1164.549,295.894,1167.516,296.012,1169.254,297.015z"/>
					<path d="M1175.259,322.548c-0.458,0-0.923-0.035-1.388-0.106l-34.376-5.304c-0.941-0.146-1.77-0.422-2.462-0.822
						c-1.197-0.691-1.885-1.714-1.887-2.806c0-0.629,0.241-1.826,1.867-2.77l3.941-2.291l-22.536-3.479
						c-0.941-0.145-1.769-0.421-2.46-0.821c-1.197-0.691-1.885-1.714-1.886-2.808c-0.001-0.629,0.239-1.826,1.863-2.77l25.106-14.59
						c2.134-1.24,5.488-1.239,7.638,0.001c0.766,0.442,1.311,1.002,1.618,1.666l6.372,13.667l5.447-3.166
						c2.135-1.24,5.489-1.239,7.636,0l0,0c0.766,0.442,1.311,1.002,1.621,1.666l9.27,19.896c0.437,0.929,0.322,1.951-0.313,2.801
						C1179.378,321.785,1177.405,322.548,1175.259,322.548z M1144.812,285.049c-0.975,0-1.972,0.201-2.764,0.662l-25.106,14.59
						c-0.554,0.321-0.87,0.699-0.869,1.037c0,0.355,0.332,0.758,0.887,1.079c0.469,0.271,1.079,0.471,1.764,0.576l28.128,4.343
						l-8.834,5.133c-0.554,0.322-0.871,0.7-0.871,1.038c0.001,0.354,0.332,0.756,0.887,1.076c0.471,0.271,1.081,0.471,1.768,0.578
						l34.375,5.304c2.071,0.319,3.941-0.334,4.554-1.152c0.248-0.332,0.191-0.568,0.104-0.755l-9.271-19.897
						c-0.131-0.28-0.411-0.55-0.809-0.779c-1.364-0.788-3.952-0.977-5.631-0.002l-7.339,4.266l-7.298-15.652
						c-0.13-0.28-0.408-0.548-0.806-0.777C1146.96,285.299,1145.9,285.049,1144.812,285.049z"/>
				</g>
			</g>
			<g>
				<g>
					<path style="fill:#85A8C6;" d="M1091.52,249.82c1.738,1.004,1.949,2.726,0.021,3.847l-25.106,14.59
						c-1.927,1.12-4.895,1.002-6.632-0.001c-0.556-0.321-0.986-0.732-1.215-1.223l-6.835-14.66l-6.394,3.716
						c-1.927,1.12-4.895,1.002-6.629,0.001c-0.555-0.32-0.984-0.731-1.211-1.221l-9.276-19.898c-0.94-2.013,2.231-3.856,5.715-3.321
						l34.382,5.308c0.844,0.13,1.553,0.377,2.107,0.696c1.735,1.002,1.947,2.724,0.019,3.845l-6.388,3.712l25.331,3.911
						C1090.255,249.253,1090.965,249.5,1091.52,249.82z"/>
					<path d="M1063.124,270.051c-1.373,0-2.748-0.31-3.821-0.929c-0.765-0.442-1.311-1.002-1.62-1.665l-6.373-13.669l-5.447,3.166
						c-2.137,1.24-5.488,1.239-7.633,0.002c-0.765-0.442-1.31-1.002-1.617-1.665l-9.276-19.898
						c-0.435-0.929-0.318-1.949,0.317-2.797c1.157-1.544,3.815-2.342,6.455-1.935l34.384,5.308c0.938,0.145,1.764,0.42,2.454,0.818
						c1.197,0.691,1.884,1.714,1.885,2.806c0.001,0.629-0.24,1.827-1.864,2.77l-3.94,2.291l22.535,3.479
						c0.94,0.146,1.767,0.421,2.458,0.82v0c1.198,0.691,1.886,1.715,1.888,2.808c0,0.629-0.24,1.826-1.864,2.769l-25.105,14.59
						C1065.87,269.741,1064.498,270.051,1063.124,270.051z M1052.196,250.958l7.298,15.652c0.131,0.279,0.411,0.549,0.809,0.779
						c1.363,0.787,3.951,0.978,5.63,0.002l25.105-14.59c0.553-0.321,0.869-0.699,0.869-1.037c-0.001-0.355-0.333-0.759-0.888-1.079
						l0,0c-0.469-0.271-1.079-0.47-1.764-0.576l-28.126-4.343l8.832-5.133c0.553-0.321,0.87-0.699,0.869-1.038
						c0-0.354-0.331-0.757-0.884-1.077c-0.469-0.27-1.077-0.468-1.76-0.574l-34.383-5.308c-2.064-0.316-3.938,0.339-4.551,1.157
						c-0.248,0.331-0.192,0.566-0.105,0.752l9.276,19.899c0.13,0.28,0.408,0.548,0.805,0.777c1.363,0.787,3.948,0.976,5.628,0.001
						L1052.196,250.958z"/>
				</g>
			</g>
			<g>
				<g>
					<path style="fill:#CE2E0F;" d="M861.081,116.363c9.489,5.478,9.548,14.363,0.121,19.841c-9.427,5.479-24.774,5.479-34.263,0
						c-9.489-5.478-9.53-14.363-0.103-19.841C836.263,110.885,851.592,110.885,861.081,116.363z"/>
					<path d="M844.092,141.294c-6.386,0-12.777-1.408-17.654-4.223c-4.924-2.843-7.639-6.684-7.645-10.815
						c-0.006-4.108,2.672-7.928,7.54-10.757c9.686-5.628,25.499-5.629,35.248-0.001l0,0c4.93,2.846,7.648,6.69,7.654,10.825
						c0.006,4.105-2.669,7.922-7.531,10.748C856.858,139.885,850.478,141.293,844.092,141.294z M843.935,113.247
						c-6.02,0-12.029,1.327-16.597,3.981c-4.225,2.455-6.549,5.661-6.545,9.025c0.005,3.387,2.365,6.614,6.645,9.085
						c9.2,5.312,24.121,5.313,33.261,0.001c4.22-2.452,6.541-5.654,6.536-9.016c-0.005-3.391-2.368-6.621-6.654-9.095l0,0
						C855.983,114.575,849.954,113.247,843.935,113.247z"/>
				</g>
			</g>
			<g>
				<g>
					<g>
						<path style="fill:#85A8C6;" d="M984.155,213.577c1.832,1.058,1.848,2.779,0.022,3.841l-21.7,12.611
							c-1.82,1.058-4.799,1.058-6.631,0c-1.839-1.062-1.842-2.783-0.022-3.841l21.7-12.611
							C979.35,212.516,982.316,212.516,984.155,213.577z"/>
						<path d="M959.165,231.824c-1.373,0-2.747-0.31-3.82-0.929c-1.195-0.69-1.882-1.708-1.883-2.792
							c-0.001-1.08,0.676-2.093,1.859-2.78l21.7-12.611c2.134-1.239,5.487-1.24,7.634-0.001l0,0c1.195,0.69,1.881,1.708,1.883,2.792
							c0.002,1.079-0.676,2.092-1.859,2.78l-21.7,12.61C961.912,231.514,960.539,231.824,959.165,231.824z M980.834,213.78
							c-1.025,0-2.048,0.221-2.808,0.662l-21.7,12.611c-0.542,0.314-0.865,0.706-0.864,1.048c0,0.346,0.331,0.743,0.883,1.062
							c1.531,0.884,4.108,0.884,5.629,0.001l21.7-12.61c0.549-0.319,0.864-0.701,0.864-1.048c0-0.346-0.331-0.744-0.883-1.062
							C982.889,214.001,981.86,213.78,980.834,213.78z"/>
					</g>
				</g>
				<g>
					<g>
						<path style="fill:#85A8C6;" d="M969.444,205.084c1.839,1.062,1.848,2.779,0.022,3.841l-21.7,12.611
							c-1.82,1.058-4.792,1.062-6.631,0c-1.839-1.062-1.842-2.783-0.022-3.841l21.7-12.611
							C964.64,204.023,967.606,204.023,969.444,205.084z"/>
						<path d="M944.455,223.331c-1.373,0-2.747-0.31-3.82-0.929c-1.195-0.69-1.881-1.708-1.883-2.792
							c-0.001-1.08,0.676-2.093,1.859-2.781l21.7-12.61c2.134-1.239,5.488-1.24,7.634-0.001l0,0
							c1.197,0.691,1.884,1.708,1.886,2.792c0.001,1.078-0.677,2.091-1.862,2.78l-21.7,12.611
							C947.201,223.021,945.829,223.331,944.455,223.331z M966.124,205.287c-1.025,0-2.049,0.221-2.809,0.663l-21.7,12.61
							c-0.542,0.314-0.864,0.707-0.864,1.048c0,0.346,0.331,0.743,0.883,1.062c1.531,0.883,4.108,0.884,5.629,0.001l21.7-12.611
							c0.543-0.315,0.867-0.707,0.867-1.047c0-0.346-0.332-0.743-0.886-1.062v0C968.178,205.508,967.15,205.287,966.124,205.287z"/>
					</g>
				</g>
				<g>
					<g>
						<path style="fill:#85A8C6;" d="M933.647,187.224c0.555,0.32,0.984,0.731,1.212,1.221l6.19,13.274
							c0.94,2.02-2.231,3.863-5.715,3.321l-22.943-3.539c-0.844-0.13-1.553-0.377-2.107-0.696c-1.736-1.002-1.947-2.724-0.018-3.845
							l16.752-9.735C928.944,186.105,931.912,186.223,933.647,187.224z"/>
						<path d="M936.572,206.136c-0.459,0-0.926-0.035-1.393-0.107l-22.941-3.539c-0.94-0.145-1.766-0.42-2.455-0.819
							c-1.196-0.69-1.883-1.713-1.885-2.805c-0.001-0.63,0.24-1.827,1.864-2.771l16.752-9.735c2.134-1.24,5.486-1.24,7.631-0.002
							l0,0c0.765,0.441,1.31,1.001,1.619,1.665l6.19,13.273c0.435,0.935,0.318,1.958-0.322,2.809
							C940.678,205.375,938.71,206.136,936.572,206.136z M930.287,187.427c-0.976,0-1.973,0.201-2.767,0.662l-16.752,9.735
							c-0.552,0.321-0.869,0.699-0.869,1.038c0,0.354,0.332,0.757,0.885,1.076c0.467,0.27,1.076,0.469,1.76,0.574l22.942,3.539
							c2.067,0.321,3.935-0.332,4.549-1.148c0.251-0.335,0.196-0.574,0.107-0.763l-6.19-13.273c-0.13-0.28-0.409-0.549-0.805-0.777
							h0C932.429,187.676,931.372,187.427,930.287,187.427z"/>
					</g>
				</g>
			</g>
		</g>
		<g>
			<g>
				<g>
					<path d="M1247.392,1091.128c2.356-1.36,4.278-0.265,4.285,2.442s-1.901,6.014-4.257,7.374s-4.284,0.269-4.292-2.438
						S1245.036,1092.488,1247.392,1091.128z"/>
				</g>
			</g>
			<g>
				<g>
					<path d="M1247.383,1087.863c3.92-2.263,7.123-0.438,7.136,4.066c0.013,4.505-3.169,10.016-7.089,12.279
						c-3.92,2.263-7.123,0.438-7.136-4.066C1240.281,1095.637,1243.463,1090.126,1247.383,1087.863z M1247.42,1100.944
						c2.356-1.36,4.265-4.667,4.257-7.374c-0.008-2.707-1.929-3.802-4.285-2.442s-4.271,4.671-4.264,7.378
						S1245.064,1102.304,1247.42,1100.944"/>
				</g>
			</g>
			<g>
				<g>
					<path d="M1271.98,1076.932c2.356-1.36,4.284-0.269,4.292,2.438c0.008,2.707-1.908,6.018-4.264,7.378
						c-2.356,1.36-4.278,0.265-4.285-2.442S1269.624,1078.292,1271.98,1076.932z"/>
				</g>
			</g>
			<g>
				<g>
					<path d="M1271.97,1073.667c3.92-2.263,7.123-0.438,7.136,4.066c0.013,4.505-3.169,10.016-7.089,12.279
						c-3.92,2.263-7.123,0.438-7.136-4.066C1264.868,1081.442,1268.05,1075.931,1271.97,1073.667z M1272.008,1086.748
						c2.356-1.36,4.271-4.671,4.264-7.378c-0.008-2.707-1.936-3.799-4.292-2.438c-2.356,1.36-4.265,4.667-4.257,7.374
						C1267.73,1087.013,1269.651,1088.108,1272.008,1086.748"/>
				</g>
			</g>
			<g>
				<g>
					<path d="M1247.947,1286.894c2.356-1.36,4.278-0.265,4.285,2.442c0.008,2.707-1.901,6.014-4.257,7.374s-4.284,0.269-4.292-2.438
						C1243.676,1291.564,1245.591,1288.254,1247.947,1286.894z"/>
				</g>
			</g>
			<g>
				<g>
					<path d="M1247.938,1283.629c3.92-2.263,7.123-0.438,7.136,4.066c0.013,4.505-3.169,10.016-7.089,12.279
						c-3.92,2.263-7.123,0.438-7.136-4.067C1240.836,1291.404,1244.018,1285.892,1247.938,1283.629z M1247.975,1296.71
						c2.356-1.36,4.265-4.667,4.257-7.374c-0.008-2.707-1.929-3.802-4.285-2.442c-2.356,1.36-4.272,4.671-4.264,7.378
						S1245.619,1298.07,1247.975,1296.71"/>
				</g>
			</g>
			<g>
				<g>
					<path d="M1272.535,1272.698c2.356-1.36,4.284-0.269,4.292,2.438c0.008,2.707-1.908,6.018-4.264,7.378
						c-2.356,1.36-4.277,0.265-4.285-2.442S1270.179,1274.058,1272.535,1272.698z"/>
				</g>
			</g>
			<g>
				<g>
					<path d="M1272.525,1269.433c3.92-2.263,7.123-0.438,7.136,4.066s-3.169,10.016-7.089,12.279s-7.123,0.438-7.136-4.066
						C1265.423,1277.208,1268.605,1271.697,1272.525,1269.433z M1272.562,1282.514c2.356-1.36,4.271-4.671,4.264-7.378
						s-1.936-3.799-4.292-2.438s-4.265,4.667-4.257,7.374S1270.207,1283.875,1272.562,1282.514"/>
				</g>
			</g>
			<g>
				<g>
					<path d="M1284.36,1099.193c3.92-2.263,7.123-0.438,7.136,4.067c0.013,4.505-3.169,10.016-7.089,12.279
						c-3.92,2.263-7.123,0.438-7.136-4.066C1277.258,1106.968,1280.44,1101.456,1284.36,1099.193z M1284.397,1112.281
						c2.356-1.36,4.265-4.674,4.257-7.381c-0.008-2.707-1.929-3.802-4.285-2.442c-2.356,1.36-4.265,4.667-4.257,7.374
						C1280.119,1112.539,1282.041,1113.641,1284.397,1112.281"/>
				</g>
			</g>
			<g>
				<g>
					<path d="M1284.369,1102.458c2.356-1.36,4.278-0.265,4.285,2.442c0.008,2.707-1.901,6.021-4.257,7.381
						c-2.356,1.36-4.278,0.258-4.285-2.449C1280.104,1107.125,1282.013,1103.818,1284.369,1102.458z"/>
				</g>
			</g>
			<g>
				<g>
					<path d="M1259.782,1116.653c2.356-1.36,4.278-0.265,4.285,2.442c0.008,2.707-1.901,6.021-4.257,7.382
						c-2.362,1.364-4.284,0.261-4.292-2.446C1255.51,1121.324,1257.419,1118.017,1259.782,1116.653z"/>
				</g>
			</g>
			<g>
				<g>
					<path d="M1259.772,1113.388c3.92-2.263,7.116-0.434,7.129,4.07c0.013,4.505-3.163,10.012-7.083,12.276
						c-3.927,2.267-7.123,0.438-7.136-4.066C1252.67,1121.163,1255.846,1115.655,1259.772,1113.388z M1259.81,1126.477
						c2.356-1.36,4.265-4.674,4.257-7.381s-1.929-3.802-4.285-2.442c-2.362,1.364-4.272,4.671-4.264,7.378
						C1255.526,1126.738,1257.447,1127.841,1259.81,1126.477"/>
				</g>
			</g>
			<g>
				<g>
					<path d="M1235.179,1127.588c3.92-2.263,7.123-0.438,7.136,4.066c0.013,4.505-3.169,10.016-7.089,12.279
						s-7.123,0.438-7.136-4.067C1228.077,1135.362,1231.259,1129.851,1235.179,1127.588z M1235.216,1140.676
						c2.356-1.36,4.265-4.674,4.257-7.381c-0.008-2.707-1.929-3.802-4.285-2.442c-2.356,1.36-4.265,4.667-4.257,7.374
						C1230.938,1140.934,1232.86,1142.036,1235.216,1140.676"/>
				</g>
			</g>
			<g>
				<g>
					<path d="M1235.188,1130.852c2.356-1.36,4.278-0.265,4.285,2.442c0.008,2.707-1.901,6.021-4.257,7.381
						c-2.356,1.36-4.278,0.258-4.285-2.449C1230.923,1135.519,1232.832,1132.213,1235.188,1130.852z"/>
				</g>
			</g>
			<g>
				<g>
					<path d="M1284.452,1131.826c3.92-2.263,7.123-0.446,7.136,4.066c0.013,4.505-3.169,10.009-7.089,12.272
						c-3.92,2.263-7.123,0.446-7.136-4.059C1277.35,1139.593,1280.532,1134.089,1284.452,1131.826z M1284.489,1144.906
						c2.356-1.36,4.265-4.667,4.257-7.374c-0.008-2.714-1.929-3.81-4.285-2.449c-2.356,1.36-4.265,4.667-4.257,7.381
						C1280.212,1145.172,1282.133,1146.267,1284.489,1144.906"/>
				</g>
			</g>
			<g>
				<g>
					<path d="M1284.462,1135.083c2.356-1.36,4.278-0.265,4.285,2.449c0.008,2.707-1.901,6.014-4.257,7.374s-4.278,0.265-4.285-2.442
						C1280.196,1139.75,1282.106,1136.443,1284.462,1135.083z"/>
				</g>
			</g>
			<g>
				<g>
					<path d="M1259.865,1146.021c3.92-2.263,7.116-0.442,7.129,4.07c0.013,4.505-3.163,10.005-7.083,12.268
						c-3.927,2.267-7.123,0.446-7.136-4.059C1252.763,1153.788,1255.938,1148.288,1259.865,1146.021z M1259.902,1159.102
						c2.356-1.36,4.265-4.667,4.257-7.374c-0.008-2.714-1.929-3.81-4.285-2.449c-2.362,1.364-4.271,4.671-4.264,7.385
						C1255.618,1159.371,1257.54,1160.466,1259.902,1159.102"/>
				</g>
			</g>
			<g>
				<g>
					<path d="M1259.874,1149.278c2.356-1.36,4.278-0.265,4.285,2.449c0.008,2.707-1.901,6.014-4.257,7.374
						c-2.362,1.364-4.284,0.269-4.292-2.438C1255.603,1153.949,1257.512,1150.642,1259.874,1149.278z"/>
				</g>
			</g>
			<g>
				<g>
					<path d="M1235.281,1163.478c2.356-1.36,4.278-0.265,4.285,2.449c0.008,2.707-1.901,6.014-4.257,7.374s-4.278,0.265-4.285-2.442
						C1231.015,1168.145,1232.925,1164.838,1235.281,1163.478z"/>
				</g>
			</g>
			<g>
				<g>
					<path d="M1235.271,1160.22c3.92-2.263,7.123-0.446,7.136,4.066c0.013,4.505-3.169,10.009-7.089,12.272
						c-3.92,2.263-7.123,0.446-7.136-4.059C1228.169,1167.988,1231.351,1162.484,1235.271,1160.22z M1235.308,1173.301
						c2.356-1.36,4.265-4.667,4.257-7.374c-0.008-2.714-1.929-3.81-4.285-2.449s-4.265,4.667-4.257,7.382
						C1231.031,1173.566,1232.952,1174.661,1235.308,1173.301"/>
				</g>
			</g>
			<g>
				<g>
					<path d="M1284.554,1167.715c2.356-1.36,4.278-0.265,4.285,2.442c0.008,2.707-1.902,6.014-4.257,7.374
						c-2.356,1.36-4.278,0.265-4.285-2.442C1280.289,1172.383,1282.198,1169.076,1284.554,1167.715z"/>
				</g>
			</g>
			<g>
				<g>
					<path d="M1284.545,1164.451c3.92-2.263,7.123-0.438,7.136,4.066c0.013,4.505-3.169,10.016-7.089,12.279
						c-3.92,2.263-7.123,0.438-7.136-4.066S1280.625,1166.714,1284.545,1164.451z M1284.582,1177.532
						c2.356-1.36,4.265-4.667,4.257-7.374c-0.008-2.707-1.929-3.802-4.285-2.442c-2.356,1.36-4.265,4.667-4.257,7.374
						C1280.304,1177.797,1282.226,1178.892,1284.582,1177.532"/>
				</g>
			</g>
			<g>
				<g>
					<path d="M1259.957,1178.646c3.92-2.263,7.117-0.435,7.129,4.07c0.013,4.505-3.163,10.012-7.083,12.276
						c-3.927,2.267-7.123,0.438-7.136-4.067C1252.855,1186.421,1256.031,1180.913,1259.957,1178.646z M1259.995,1191.727
						c2.356-1.36,4.265-4.667,4.257-7.374c-0.008-2.707-1.929-3.802-4.285-2.442c-2.362,1.364-4.271,4.671-4.264,7.378
						C1255.71,1191.996,1257.632,1193.091,1259.995,1191.727"/>
				</g>
			</g>
			<g>
				<g>
					<path d="M1259.967,1181.911c2.356-1.36,4.278-0.265,4.285,2.442s-1.901,6.014-4.257,7.374
						c-2.362,1.364-4.284,0.269-4.292-2.438C1255.695,1186.582,1257.604,1183.275,1259.967,1181.911z"/>
				</g>
			</g>
			<g>
				<g>
					<path d="M1235.364,1192.845c3.92-2.263,7.123-0.438,7.136,4.067c0.013,4.505-3.169,10.016-7.089,12.279
						c-3.92,2.263-7.123,0.438-7.136-4.066S1231.444,1195.109,1235.364,1192.845z M1235.401,1205.926
						c2.356-1.36,4.265-4.667,4.257-7.374c-0.008-2.707-1.929-3.802-4.285-2.442c-2.356,1.36-4.265,4.667-4.257,7.374
						C1231.123,1206.192,1233.045,1207.286,1235.401,1205.926"/>
				</g>
			</g>
			<g>
				<g>
					<path d="M1235.373,1196.11c2.356-1.36,4.278-0.265,4.285,2.442c0.008,2.707-1.901,6.014-4.257,7.374
						c-2.356,1.36-4.278,0.265-4.285-2.442C1231.108,1200.777,1233.017,1197.47,1235.373,1196.11z"/>
				</g>
			</g>
			<g>
				<g>
					<path d="M1284.647,1200.341c2.356-1.36,4.278-0.265,4.285,2.442c0.008,2.707-1.901,6.021-4.257,7.381
						c-2.356,1.36-4.278,0.258-4.285-2.449C1280.381,1205.008,1282.291,1201.701,1284.647,1200.341z"/>
				</g>
			</g>
			<g>
				<g>
					<path d="M1284.637,1197.076c3.92-2.263,7.123-0.438,7.136,4.066c0.013,4.505-3.169,10.016-7.089,12.279
						s-7.123,0.438-7.136-4.066C1277.535,1204.851,1280.717,1199.339,1284.637,1197.076z M1284.674,1210.164
						c2.356-1.36,4.265-4.674,4.257-7.381c-0.008-2.707-1.929-3.802-4.285-2.442c-2.356,1.36-4.265,4.667-4.257,7.374
						C1280.397,1210.422,1282.318,1211.524,1284.674,1210.164"/>
				</g>
			</g>
			<g>
				<g>
					<path d="M1260.059,1214.536c2.356-1.36,4.278-0.265,4.285,2.442s-1.901,6.021-4.257,7.381
						c-2.362,1.364-4.284,0.261-4.292-2.446C1255.788,1219.207,1257.697,1215.9,1260.059,1214.536z"/>
				</g>
			</g>
			<g>
				<g>
					<path d="M1260.05,1211.271c3.92-2.263,7.116-0.434,7.129,4.07c0.013,4.505-3.163,10.012-7.083,12.276
						c-3.927,2.267-7.123,0.438-7.136-4.066C1252.948,1219.046,1256.123,1213.538,1260.05,1211.271z M1260.087,1224.36
						c2.356-1.36,4.265-4.674,4.257-7.381c-0.008-2.707-1.929-3.802-4.285-2.442c-2.362,1.364-4.272,4.671-4.264,7.378
						C1255.803,1224.621,1257.725,1225.724,1260.087,1224.36"/>
				</g>
			</g>
			<g>
				<g>
					<path d="M1235.456,1225.471c3.92-2.263,7.123-0.438,7.136,4.066c0.013,4.505-3.169,10.016-7.089,12.279
						s-7.123,0.438-7.136-4.066C1228.354,1233.245,1231.536,1227.734,1235.456,1225.471z M1235.493,1238.559
						c2.356-1.36,4.265-4.674,4.257-7.381c-0.008-2.707-1.929-3.802-4.285-2.442c-2.356,1.36-4.265,4.667-4.257,7.374
						C1231.216,1238.817,1233.137,1239.919,1235.493,1238.559"/>
				</g>
			</g>
			<g>
				<g>
					<path d="M1235.466,1228.735c2.356-1.36,4.277-0.265,4.285,2.442c0.008,2.707-1.901,6.021-4.257,7.381
						c-2.356,1.36-4.278,0.258-4.285-2.449C1231.2,1233.402,1233.109,1230.096,1235.466,1228.735z"/>
				</g>
			</g>
			<g>
				<g>
					<path d="M1284.739,1232.966c2.356-1.36,4.278-0.258,4.285,2.449c0.008,2.707-1.901,6.014-4.257,7.374s-4.277,0.265-4.285-2.442
						C1280.474,1237.64,1282.383,1234.326,1284.739,1232.966z"/>
				</g>
			</g>
			<g>
				<g>
					<path d="M1284.73,1229.709c3.92-2.263,7.123-0.438,7.136,4.066c0.013,4.505-3.169,10.009-7.089,12.272
						s-7.123,0.446-7.136-4.059C1277.628,1237.483,1280.81,1231.972,1284.73,1229.709z M1284.767,1242.789
						c2.356-1.36,4.265-4.667,4.257-7.374s-1.929-3.81-4.285-2.449c-2.356,1.36-4.265,4.674-4.257,7.382
						C1280.489,1243.055,1282.411,1244.15,1284.767,1242.789"/>
				</g>
			</g>
			<g>
				<g>
					<path d="M1260.152,1247.161c2.356-1.36,4.278-0.258,4.285,2.449c0.008,2.707-1.901,6.014-4.257,7.374
						c-2.362,1.364-4.284,0.269-4.292-2.438C1255.88,1251.839,1257.789,1248.525,1260.152,1247.161z"/>
				</g>
			</g>
			<g>
				<g>
					<path d="M1260.142,1243.904c3.92-2.263,7.116-0.434,7.129,4.07c0.013,4.505-3.163,10.005-7.083,12.268
						c-3.927,2.267-7.123,0.445-7.136-4.059C1253.04,1251.679,1256.216,1246.171,1260.142,1243.904z M1260.18,1256.985
						c2.356-1.36,4.265-4.667,4.257-7.374c-0.008-2.707-1.929-3.81-4.285-2.45c-2.362,1.364-4.272,4.678-4.264,7.385
						C1255.896,1257.254,1257.817,1258.349,1260.18,1256.985"/>
				</g>
			</g>
			<g>
				<g>
					<path d="M1235.558,1261.361c2.356-1.36,4.278-0.258,4.285,2.449s-1.901,6.014-4.257,7.374c-2.356,1.36-4.277,0.265-4.285-2.442
						S1233.202,1262.721,1235.558,1261.361z"/>
				</g>
			</g>
			<g>
				<g>
					<path d="M1235.549,1258.103c3.92-2.263,7.123-0.438,7.136,4.066c0.013,4.505-3.169,10.009-7.089,12.272
						s-7.123,0.446-7.136-4.059C1228.447,1265.878,1231.629,1260.367,1235.549,1258.103z M1235.586,1271.184
						c2.356-1.36,4.265-4.667,4.257-7.374s-1.929-3.81-4.285-2.449s-4.265,4.674-4.257,7.382
						C1231.308,1271.449,1233.23,1272.544,1235.586,1271.184"/>
				</g>
			</g>
		</g>
		<g>
			<g>
				<path d="M1250.557,714.261l14.708-8.618c5.333-3.125,12.044,0.721,12.044,6.902V905.05c0,5.781-3.119,11.113-8.158,13.946
					l-14.585,8.201c-5.333,2.999-11.921-0.855-11.921-6.973V728.066C1242.645,722.386,1245.656,717.132,1250.557,714.261z"/>
				<path d="M1250.644,930.239c-1.736,0-3.472-0.461-5.048-1.383c-3.1-1.813-4.95-5.04-4.95-8.632V728.065
					c0-6.363,3.411-12.314,8.9-15.53l14.708-8.618c3.129-1.834,6.878-1.854,10.026-0.048c3.148,1.804,5.028,5.047,5.028,8.676
					v192.505c0,6.494-3.517,12.506-9.178,15.689l-14.584,8.201C1254.007,929.807,1252.324,930.239,1250.644,930.239z
					 M1269.309,706.535c-1.043,0-2.085,0.278-3.033,0.833l-14.708,8.618l0,0c-4.27,2.501-6.922,7.13-6.922,12.079v192.159
					c0,2.155,1.11,4.091,2.971,5.179c1.858,1.089,4.091,1.107,5.97,0.052l14.584-8.201c4.403-2.476,7.139-7.152,7.139-12.203
					V712.545c0-2.177-1.128-4.124-3.017-5.206C1271.356,706.803,1270.332,706.535,1269.309,706.535z M1250.557,714.261h0.01
					H1250.557z"/>
			</g>
			<g>
				<path style="fill:#BFD8F6;" d="M1250.44,729.394c26.985,34.649,44.937,79.339,44.826,118.457
					c-0.111,39.111-18.257,62.958-45.35,66.393L1250.44,729.394z"/>
				<path d="M1249.916,916.243c-0.485,0-0.957-0.177-1.324-0.501c-0.432-0.381-0.678-0.93-0.676-1.505l0.524-184.849
					c0.002-0.853,0.546-1.611,1.353-1.887c0.806-0.275,1.7-0.011,2.226,0.664c28.441,36.52,45.356,81.265,45.248,119.691
					c-0.055,19.283-4.523,35.784-12.922,47.72c-8.247,11.721-20.065,18.862-34.177,20.651
					C1250.084,916.238,1250,916.243,1249.916,916.243z M1252.424,735.321l-0.501,176.6c25.838-4.469,41.242-28.223,41.344-64.076
					C1293.368,811.907,1278.18,770.244,1252.424,735.321z"/>
			</g>
			<g>
				<path style="fill:#9ABAD8;" d="M1283.268,899.297l-15.505,9.011c16.922-9.834,27.419-30.74,27.504-60.457
					c0.111-39.118-17.841-83.807-44.826-118.457l15.505-9.011c26.985,34.649,44.937,79.339,44.826,118.456
					C1310.688,868.557,1300.191,889.463,1283.268,899.297z"/>
				<path d="M1267.765,910.308c-0.689,0-1.36-0.356-1.731-0.995c-0.555-0.955-0.23-2.179,0.725-2.734l0.029-0.017
					c16.997-9.895,26.4-30.745,26.479-58.717c0.106-37.562-16.494-81.384-44.404-117.222c-0.354-0.456-0.495-1.042-0.386-1.609
					c0.11-0.567,0.46-1.059,0.959-1.349l15.505-9.011c0.864-0.504,1.968-0.289,2.583,0.5c28.442,36.52,45.357,81.265,45.248,119.691
					c-0.083,29.466-10.204,51.549-28.498,62.181l-15.506,9.011c-0.001,0,0.001-0.001,0,0
					C1268.451,910.221,1268.105,910.308,1267.765,910.308z M1283.269,899.297h0.01H1283.269z M1253.416,729.978
					c27.598,36.181,43.957,80.084,43.851,117.878c-0.058,20.262-4.859,37.031-13.803,48.988
					c16.257-10.16,25.23-30.688,25.308-58.011c0.105-37.081-16.07-80.263-43.337-115.841L1253.416,729.978z"/>
			</g>
			<g>
				<g>
					<path d="M1255.381,736.984c-0.346,0-0.682-0.179-0.867-0.5c-0.276-0.479-0.112-1.09,0.366-1.366l15.54-8.97
						c0.477-0.276,1.089-0.113,1.366,0.366c0.276,0.479,0.112,1.09-0.366,1.366l-15.54,8.97
						C1255.723,736.941,1255.551,736.984,1255.381,736.984z"/>
				</g>
				<g>
					<path d="M1261.931,746.594c-0.346,0-0.682-0.179-0.867-0.5c-0.276-0.479-0.112-1.09,0.366-1.366l15.54-8.97
						c0.476-0.276,1.089-0.112,1.366,0.366c0.276,0.479,0.112,1.09-0.366,1.366l-15.54,8.97
						C1262.272,746.551,1262.101,746.594,1261.931,746.594z"/>
				</g>
				<g>
					<path d="M1267.971,756.494c-0.346,0-0.682-0.179-0.867-0.5c-0.276-0.479-0.112-1.09,0.366-1.366l15.53-8.97
						c0.152-0.088,0.324-0.134,0.5-0.134c0.553,0,1.005,0.448,1.005,1c0,0.405-0.237,0.753-0.582,0.911l-15.453,8.926
						C1268.312,756.451,1268.141,756.494,1267.971,756.494z"/>
				</g>
				<g>
					<path d="M1273.511,766.694c-0.346,0-0.682-0.18-0.867-0.5c-0.276-0.479-0.112-1.09,0.366-1.366l15.53-8.96
						c0.476-0.275,1.089-0.111,1.366,0.366c0.276,0.479,0.112,1.09-0.366,1.366l-15.53,8.96
						C1273.853,766.651,1273.681,766.694,1273.511,766.694z"/>
				</g>
				<g>
					<path d="M1278.541,777.185c-0.346,0-0.682-0.179-0.867-0.5c-0.276-0.479-0.112-1.09,0.366-1.366l15.52-8.96
						c0.477-0.275,1.09-0.113,1.366,0.366c0.276,0.479,0.112,1.09-0.366,1.366l-15.52,8.96
						C1278.883,777.142,1278.711,777.185,1278.541,777.185z"/>
				</g>
				<g>
					<path d="M1283.031,787.975c-0.346,0-0.682-0.179-0.867-0.5c-0.276-0.479-0.112-1.09,0.366-1.366l15.52-8.96
						c0.477-0.276,1.089-0.113,1.366,0.366c0.276,0.479,0.112,1.09-0.366,1.366l-15.52,8.96
						C1283.373,787.932,1283.201,787.975,1283.031,787.975z"/>
				</g>
				<g>
					<path d="M1286.951,799.104c-0.346,0-0.682-0.179-0.867-0.5c-0.276-0.479-0.112-1.09,0.366-1.366l15.52-8.96
						c0.476-0.277,1.089-0.113,1.366,0.366c0.276,0.479,0.112,1.09-0.366,1.366l-15.52,8.96
						C1287.293,799.062,1287.121,799.104,1286.951,799.104z"/>
				</g>
				<g>
					<path d="M1290.251,810.594c-0.346,0-0.682-0.179-0.867-0.5c-0.276-0.478-0.112-1.09,0.366-1.366l15.51-8.96
						c0.477-0.275,1.089-0.113,1.366,0.366c0.276,0.478,0.112,1.09-0.366,1.366l-15.51,8.96
						C1290.593,810.551,1290.421,810.594,1290.251,810.594z"/>
				</g>
				<g>
					<path d="M1292.831,822.494c-0.346,0-0.682-0.18-0.867-0.5c-0.276-0.479-0.112-1.09,0.366-1.366l15.51-8.95
						c0.477-0.276,1.09-0.111,1.366,0.366c0.276,0.479,0.112,1.09-0.366,1.366l-15.51,8.95
						C1293.173,822.451,1293.001,822.494,1292.831,822.494z"/>
				</g>
				<g>
					<path d="M1294.581,834.884c-0.346,0-0.682-0.179-0.867-0.5c-0.276-0.479-0.112-1.09,0.366-1.366l15.5-8.949
						c0.476-0.277,1.089-0.113,1.366,0.366c0.276,0.479,0.112,1.09-0.366,1.366l-15.5,8.949
						C1294.923,834.841,1294.751,834.884,1294.581,834.884z"/>
				</g>
				<g>
					<path d="M1295.271,847.874c-0.346,0-0.682-0.179-0.867-0.5c-0.276-0.479-0.112-1.09,0.366-1.366l15.5-8.95
						c0.477-0.276,1.09-0.113,1.366,0.366c0.276,0.479,0.112,1.09-0.366,1.366l-15.5,8.95
						C1295.612,847.831,1295.44,847.874,1295.271,847.874z"/>
				</g>
				<g>
					<path d="M1294.531,861.694c-0.346,0-0.682-0.18-0.867-0.5c-0.276-0.479-0.112-1.09,0.366-1.366l15.489-8.94
						c0.477-0.276,1.089-0.112,1.366,0.366c0.276,0.479,0.112,1.09-0.366,1.366l-15.489,8.94
						C1294.873,861.651,1294.701,861.694,1294.531,861.694z"/>
				</g>
				<g>
					<path d="M1291.481,876.844c-0.346,0-0.682-0.18-0.867-0.5c-0.276-0.479-0.112-1.09,0.366-1.366l15.489-8.939
						c0.476-0.276,1.089-0.112,1.366,0.366c0.276,0.479,0.112,1.09-0.366,1.366l-15.489,8.939
						C1291.823,876.801,1291.651,876.844,1291.481,876.844z"/>
				</g>
				<g>
					<path d="M1282.85,895.225c-0.553,0-1.005-0.447-1.005-1c0-0.404,0.237-0.753,0.582-0.91l15.363-8.877
						c0.476-0.276,1.089-0.113,1.366,0.366c0.276,0.478,0.112,1.09-0.366,1.366l-15.44,8.921
						C1283.198,895.179,1283.025,895.225,1282.85,895.225z"/>
				</g>
			</g>
		</g>
		<g>
			<g>
				<g>
					<path style="fill:#FF613C;" d="M851.95,509.099c21.414,12.363,38.717,42.334,38.648,66.94
						c-0.07,24.606-17.486,34.531-38.9,22.168c-21.414-12.363-38.711-42.33-38.641-66.936
						C813.127,506.665,830.537,496.736,851.95,509.099z"/>
					<path d="M869.099,605.544c-5.688,0-11.949-1.88-18.401-5.605c-21.929-12.661-39.712-43.468-39.641-68.674
						c0.036-12.605,4.433-22.066,12.381-26.64c7.996-4.602,18.479-3.628,29.513,2.743l0,0
						c21.933,12.663,39.719,43.472,39.647,68.678c-0.036,12.603-4.433,22.062-12.381,26.637
						C876.894,604.594,873.141,605.543,869.099,605.544z M834.565,505.767c-3.353,0-6.433,0.771-9.132,2.324
						c-6.66,3.833-10.345,12.066-10.376,23.185c-0.068,23.928,16.817,53.176,37.641,65.199c9.749,5.628,18.812,6.602,25.524,2.739
						c6.66-3.832,10.344-12.065,10.376-23.181c0.068-23.928-16.821-53.178-37.647-65.202l0,0
						C845.126,507.468,839.545,505.767,834.565,505.767z"/>
				</g>
			</g>
			<g>
				<path d="M846.849,527.382c-7.181-4.146-13.687-4.53-18.385-1.8l-22.553,13.107c4.698-2.73,11.205-2.346,18.385,1.8
					c14.276,8.242,25.807,28.215,25.761,44.612c-0.023,8.145-2.899,13.876-7.537,16.571l22.553-13.107
					c4.638-2.695,7.514-8.427,7.537-16.571C872.656,555.598,861.125,535.625,846.849,527.382z"/>
				<path d="M842.521,603.673c-0.689,0-1.36-0.357-1.731-0.996c-0.555-0.955-0.231-2.179,0.724-2.734l0,0
					c4.198-2.44,6.521-7.713,6.542-14.848c0.044-15.733-11.063-34.966-24.761-42.875c-6.302-3.639-12.12-4.279-16.38-1.803l0,0
					c-0.956,0.556-2.179,0.229-2.734-0.724c-0.555-0.955-0.231-2.179,0.724-2.734c0.005-0.003,0.01-0.006,0.015-0.009l22.539-13.098
					c5.552-3.227,12.794-2.589,20.391,1.797l0,0c14.804,8.547,26.809,29.339,26.761,46.35c-0.024,8.614-3.054,15.111-8.532,18.295
					l-22.543,13.101c-0.003,0.002-0.007,0.004-0.01,0.006C843.208,603.586,842.862,603.673,842.521,603.673z M815.89,535.203
					c3.002,0.5,6.171,1.688,9.405,3.555c14.804,8.547,26.81,29.339,26.761,46.35c-0.01,3.609-0.548,6.846-1.572,9.624l13.584-7.894
					c4.198-2.44,6.521-7.713,6.542-14.849c0.044-15.731-11.064-34.965-24.761-42.875l0,0c-6.303-3.639-12.121-4.279-16.381-1.803
					L815.89,535.203z"/>
			</g>
			<g>
				<path style="fill:#233344;" d="M824.295,540.489c14.276,8.242,25.807,28.215,25.761,44.612
					c-0.047,16.397-11.653,23.011-25.929,14.769c-14.27-8.239-25.801-28.212-25.755-44.609
					C798.419,538.865,810.026,532.25,824.295,540.489z"/>
				<path d="M835.73,605.43c-3.909,0-8.197-1.283-12.604-3.828c-14.801-8.545-26.803-29.336-26.754-46.347
					c0.024-8.646,3.073-15.155,8.585-18.327c5.545-3.191,12.769-2.542,20.337,1.828l0,0c14.804,8.547,26.81,29.339,26.761,46.35
					c-0.025,8.646-3.074,15.154-8.585,18.325C841.153,604.767,838.539,605.43,835.73,605.43z M812.711,538.936
					c-2.12,0-4.062,0.484-5.758,1.46c-4.223,2.43-6.56,7.711-6.58,14.871c-0.044,15.732,11.06,34.964,24.754,42.871
					c6.285,3.628,12.092,4.276,16.35,1.827c4.223-2.43,6.56-7.711,6.58-14.87c0.044-15.733-11.063-34.966-24.761-42.875l0,0
					C819.517,540.04,815.911,538.936,812.711,538.936z"/>
			</g>
		</g>
		<g>
			<g>
				<g>
					<path style="fill:#FF613C;" d="M851.95,899.193c21.414,12.363,38.717,42.334,38.648,66.94
						c-0.07,24.606-17.486,34.531-38.9,22.168c-21.414-12.363-38.711-42.33-38.641-66.936
						C813.127,896.758,830.537,886.829,851.95,899.193z"/>
					<path d="M869.099,995.638c-5.688,0-11.949-1.88-18.401-5.604c-21.929-12.661-39.712-43.469-39.641-68.675
						c0.036-12.604,4.433-22.066,12.381-26.64c7.998-4.604,18.478-3.628,29.513,2.741l0,0
						c21.933,12.664,39.719,43.473,39.647,68.679c-0.036,12.603-4.433,22.062-12.381,26.637
						C876.894,994.688,873.141,995.638,869.099,995.638z M834.566,895.861c-3.354,0-6.433,0.771-9.133,2.324
						c-6.66,3.832-10.345,12.066-10.376,23.185c-0.068,23.929,16.817,53.177,37.641,65.198c9.749,5.63,18.813,6.601,25.524,2.74
						c6.66-3.833,10.344-12.065,10.376-23.182c0.068-23.928-16.821-53.178-37.647-65.202
						C845.126,897.562,839.545,895.861,834.566,895.861z"/>
				</g>
			</g>
			<g>
				<path d="M846.849,917.476c-7.181-4.146-13.687-4.53-18.385-1.8l-22.553,13.107c4.698-2.73,11.205-2.346,18.385,1.8
					c14.276,8.242,25.807,28.215,25.761,44.612c-0.023,8.145-2.899,13.876-7.537,16.571l22.553-13.107
					c4.638-2.695,7.514-8.427,7.537-16.571C872.656,945.692,861.125,925.719,846.849,917.476z"/>
				<path d="M842.521,993.767c-0.689,0-1.36-0.356-1.731-0.995c-0.555-0.955-0.231-2.179,0.724-2.734l0,0
					c4.198-2.439,6.521-7.712,6.542-14.848c0.044-15.732-11.063-34.966-24.761-42.874c-6.303-3.64-12.12-4.278-16.38-1.803
					c-0.956,0.554-2.179,0.229-2.734-0.725c-0.555-0.955-0.231-2.179,0.724-2.734l0,0c0.005-0.003,0.011-0.006,0.017-0.01
					l22.537-13.098c5.554-3.225,12.795-2.586,20.391,1.798l0,0c14.804,8.548,26.809,29.34,26.761,46.351
					c-0.024,8.614-3.054,15.111-8.532,18.295l-22.543,13.101c-0.003,0.002-0.007,0.004-0.01,0.006
					C843.208,993.68,842.862,993.767,842.521,993.767z M815.89,925.297c3.002,0.499,6.172,1.688,9.406,3.554
					c14.804,8.547,26.81,29.34,26.761,46.351c-0.01,3.609-0.548,6.846-1.572,9.624l13.584-7.895
					c4.198-2.439,6.521-7.713,6.542-14.848c0.044-15.731-11.064-34.965-24.761-42.874l0,0c-6.303-3.64-12.119-4.28-16.381-1.804
					L815.89,925.297z"/>
			</g>
			<g>
				<path style="fill:#233344;" d="M824.295,930.583c14.276,8.242,25.807,28.215,25.761,44.612s-11.653,23.011-25.929,14.769
					c-14.27-8.239-25.801-28.212-25.755-44.609C798.419,928.959,810.026,922.344,824.295,930.583z"/>
				<path d="M835.731,995.524c-3.909,0-8.198-1.284-12.604-3.828c-14.8-8.545-26.803-29.336-26.754-46.347
					c0.024-8.646,3.073-15.154,8.585-18.326c5.546-3.192,12.768-2.542,20.338,1.827c14.804,8.547,26.81,29.34,26.761,46.351
					c-0.025,8.646-3.074,15.154-8.585,18.325C841.152,994.861,838.54,995.523,835.731,995.524z M812.711,929.03
					c-2.12,0-4.062,0.484-5.758,1.46c-4.223,2.431-6.56,7.712-6.58,14.871c-0.044,15.732,11.06,34.965,24.754,42.87
					c6.285,3.629,12.091,4.279,16.35,1.828c4.223-2.43,6.56-7.711,6.58-14.87c0.044-15.732-11.063-34.966-24.761-42.874
					C819.517,930.134,815.911,929.03,812.711,929.03z"/>
			</g>
		</g>
		<g>
			<path style="fill:#9ABAD8;" d="M1116.454,1281.245c-4.997-2.885-9.526-3.153-12.795-1.253l-15.696,9.122
				c3.27-1.9,7.798-1.632,12.795,1.253c9.935,5.736,17.961,19.636,17.928,31.048c-0.016,5.668-2.017,9.657-5.245,11.533
				l15.696-9.122c3.228-1.876,5.229-5.865,5.245-11.533C1134.415,1300.882,1126.389,1286.982,1116.454,1281.245z"/>
			<path d="M1113.442,1334.948c-0.689,0-1.36-0.356-1.731-0.995c-0.555-0.955-0.23-2.179,0.725-2.734l0.006-0.003
				c2.724-1.586,4.231-5.068,4.245-9.807c0.03-10.755-7.563-23.903-16.929-29.31c-4.189-2.42-8.022-2.868-10.791-1.256
				c-0.957,0.555-2.18,0.229-2.734-0.725c-0.555-0.955-0.23-2.179,0.725-2.734l15.696-9.122c4.06-2.356,9.315-1.914,14.801,1.25l0,0
				c10.472,6.046,18.963,20.754,18.928,32.787c-0.018,6.22-2.233,10.928-6.24,13.256l-15.696,9.122l0,0
				C1114.129,1334.861,1113.783,1334.948,1113.442,1334.948z M1096.566,1286.427c1.686,0.452,3.427,1.189,5.191,2.208
				c10.472,6.046,18.963,20.754,18.929,32.786c-0.006,1.952-0.228,3.756-0.654,5.383l8.1-4.707c2.728-1.585,4.237-5.068,4.25-9.809
				c0.031-10.754-7.563-23.903-16.928-29.311l0,0c-4.189-2.419-8.022-2.864-10.791-1.256L1096.566,1286.427z"/>
		</g>
		<g>
			<path style="fill:#BFD8F6;" d="M1100.758,1290.367c9.935,5.736,17.961,19.637,17.928,31.048s-8.11,16.015-18.046,10.279
				c-9.931-5.734-17.956-19.634-17.924-31.046C1082.749,1289.237,1090.827,1284.633,1100.758,1290.367z"/>
			<path d="M1108.718,1336.172c-2.827,0-5.914-0.921-9.077-2.746c-10.469-6.044-18.958-20.75-18.924-32.783
				c0.018-6.243,2.248-10.96,6.279-13.279c4.053-2.336,9.296-1.883,14.762,1.271l0,0c10.472,6.046,18.963,20.754,18.929,32.786
				c-0.019,6.243-2.248,10.959-6.28,13.279C1112.697,1335.684,1110.776,1336.172,1108.718,1336.172z M1092.698,1289.895
				c-1.371,0-2.62,0.31-3.707,0.936c-2.743,1.578-4.261,5.067-4.274,9.824c-0.03,10.755,7.562,23.902,16.924,29.307
				c4.178,2.413,8.004,2.866,10.771,1.271c2.742-1.578,4.261-5.066,4.274-9.823c0.03-10.755-7.563-23.903-16.929-29.31
				C1097.222,1290.636,1094.816,1289.895,1092.698,1289.895z"/>
		</g>
		<g>
			<path style="fill:#9ABAD8;" d="M1054.932,1246.044c-4.997-2.885-9.526-3.153-12.795-1.253l-15.696,9.122
				c3.27-1.9,7.798-1.632,12.795,1.253c9.936,5.736,17.961,19.637,17.928,31.048c-0.016,5.669-2.017,9.657-5.245,11.533
				l15.696-9.122c3.228-1.876,5.229-5.865,5.245-11.533C1072.892,1265.68,1064.867,1251.78,1054.932,1246.044z"/>
			<path d="M1051.921,1299.746c-0.689,0-1.359-0.356-1.731-0.995c-0.555-0.955-0.23-2.179,0.725-2.734
				c2.727-1.585,4.236-5.068,4.25-9.809c0.03-10.755-7.563-23.904-16.929-29.311c-4.188-2.417-8.017-2.865-10.788-1.258
				l-0.002,0.002l0,0c-0.958,0.555-2.18,0.229-2.734-0.725c-0.555-0.955-0.23-2.179,0.725-2.734l15.695-9.121
				c4.062-2.36,9.318-1.915,14.801,1.25c10.472,6.046,18.963,20.754,18.929,32.786c-0.019,6.221-2.234,10.929-6.241,13.257
				l-15.688,9.117c-0.002,0.001-0.005,0.002-0.007,0.004l0,0C1052.607,1299.659,1052.262,1299.746,1051.921,1299.746z
				 M1035.045,1251.226c1.685,0.452,3.426,1.188,5.19,2.207c10.472,6.046,18.963,20.754,18.929,32.787
				c-0.006,1.952-0.228,3.755-0.654,5.383l8.1-4.707c2.728-1.585,4.237-5.068,4.251-9.81c0.03-10.755-7.563-23.903-16.929-29.31l0,0
				c-4.189-2.42-8.021-2.866-10.791-1.256L1035.045,1251.226z"/>
		</g>
		<g>
			<path style="fill:#BFD8F6;" d="M1039.235,1255.165c9.936,5.736,17.961,19.637,17.928,31.048
				c-0.032,11.412-8.11,16.015-18.046,10.279c-9.931-5.734-17.956-19.634-17.924-31.046S1029.304,1249.432,1039.235,1255.165z"/>
			<path d="M1047.195,1300.971c-2.827,0-5.915-0.921-9.077-2.746c-10.469-6.045-18.958-20.752-18.924-32.784
				c0.018-6.243,2.248-10.959,6.279-13.279c4.055-2.335,9.298-1.884,14.762,1.271l0,0c10.472,6.046,18.963,20.754,18.929,32.787
				c-0.018,6.242-2.248,10.958-6.279,13.278C1051.176,1300.482,1049.254,1300.971,1047.195,1300.971z M1031.177,1254.692
				c-1.371,0-2.621,0.31-3.708,0.936c-2.743,1.578-4.261,5.067-4.274,9.824c-0.03,10.754,7.562,23.902,16.924,29.308
				c4.178,2.412,8.003,2.866,10.771,1.271c2.743-1.578,4.261-5.067,4.274-9.823c0.03-10.755-7.563-23.904-16.929-29.311
				C1035.7,1255.434,1033.294,1254.692,1031.177,1254.692z"/>
		</g>
		<g>
			<path style="fill:#E54728;" d="M993.409,1210.842c-4.997-2.885-9.526-3.153-12.795-1.253l-15.696,9.122
				c3.27-1.9,7.798-1.633,12.795,1.253c9.935,5.736,17.961,19.637,17.928,31.048c-0.016,5.668-2.017,9.657-5.245,11.533
				l15.696-9.122c3.228-1.876,5.229-5.865,5.245-11.533C1011.37,1230.479,1003.345,1216.578,993.409,1210.842z"/>
			<path d="M990.398,1264.545c-0.689,0-1.36-0.356-1.731-0.995c-0.555-0.955-0.231-2.179,0.724-2.734
				c2.727-1.585,4.236-5.068,4.25-9.81c0.03-10.755-7.563-23.903-16.928-29.31c-4.19-2.42-8.021-2.865-10.791-1.256l0,0
				c-0.955,0.554-2.18,0.229-2.734-0.725c-0.555-0.955-0.231-2.179,0.724-2.734c0,0,0,0,0.001,0l15.695-9.122
				c4.06-2.358,9.316-1.916,14.8,1.25l0,0c10.472,6.046,18.963,20.754,18.929,32.786c-0.019,6.221-2.234,10.928-6.24,13.257
				l-15.691,9.119c-0.002,0.001-0.003,0.002-0.005,0.003l0,0C991.085,1264.458,990.739,1264.545,990.398,1264.545z
				 M973.522,1216.023c1.686,0.452,3.426,1.189,5.191,2.208c10.471,6.046,18.962,20.754,18.928,32.786
				c-0.005,1.952-0.228,3.756-0.654,5.384l8.1-4.708c2.727-1.585,4.236-5.068,4.25-9.81c0.03-10.755-7.563-23.903-16.929-29.31
				c-4.19-2.42-8.022-2.865-10.791-1.256L973.522,1216.023z"/>
		</g>
		<g>
			<path style="fill:#FF613C;" d="M977.713,1219.964c9.935,5.736,17.961,19.636,17.928,31.048
				c-0.032,11.411-8.11,16.015-18.046,10.279c-9.931-5.734-17.956-19.634-17.924-31.046
				C959.704,1218.833,967.782,1214.23,977.713,1219.964z"/>
			<path d="M985.673,1265.769c-2.827,0-5.915-0.921-9.077-2.746c-10.469-6.044-18.958-20.75-18.924-32.783
				c0.018-6.244,2.249-10.96,6.28-13.28c4.057-2.334,9.298-1.881,14.761,1.272l0,0c10.471,6.046,18.962,20.754,18.928,32.786
				c-0.018,6.243-2.248,10.959-6.279,13.278C989.653,1265.28,987.732,1265.769,985.673,1265.769z M969.654,1219.49
				c-1.37,0-2.62,0.311-3.707,0.936c-2.743,1.578-4.262,5.067-4.275,9.825c-0.03,10.755,7.562,23.902,16.924,29.307
				c4.178,2.413,8.004,2.865,10.771,1.271c2.743-1.578,4.261-5.067,4.274-9.823c0.03-10.755-7.563-23.903-16.928-29.31l0,0
				C974.178,1220.231,971.772,1219.49,969.654,1219.49z"/>
		</g>
		<g>
			<g>
				<polygon style="fill:#BFD8F6;" points="980,641.138 979.053,975.013 929.942,922.166 930.75,637.195 				"/>
				<path d="M979.054,977.013c-0.545,0-1.08-0.224-1.465-0.639l-49.111-52.847c-0.345-0.371-0.537-0.86-0.535-1.367l0.808-284.971
					c0.001-0.557,0.235-1.088,0.646-1.466c0.41-0.377,0.96-0.565,1.514-0.522l49.25,3.942c1.042,0.083,1.843,0.955,1.84,2
					l-0.947,333.875c-0.002,0.821-0.506,1.558-1.271,1.856C979.545,976.968,979.298,977.013,979.054,977.013z M931.944,921.383
					l45.123,48.556l0.927-326.955l-45.251-3.622L931.944,921.383z"/>
			</g>
		</g>
		<g>
			<path style="fill:#233344;" d="M1363.299,460.018c-3.511-2.027-6.69-2.215-8.986-0.881L1290.882,496
				c0.007-0.004,0.015-0.006,0.022-0.01c-2.28,1.313-3.695,4.118-3.706,8.111c-0.023,8.011,5.609,17.774,12.588,21.803
				c3.729,2.153,7.074,2.211,9.393,0.59c-0.138,0.096-0.269,0.204-0.414,0.288l63.432-36.862c2.268-1.318,3.674-4.12,3.685-8.102
				C1375.903,473.806,1370.271,464.044,1363.299,460.018z"/>
			<path d="M1305.435,529.622c-2.089,0-4.36-0.664-6.649-1.986c-7.645-4.413-13.612-14.753-13.587-23.541
				c0.013-4.54,1.639-8.001,4.583-9.765c0.031-0.021,0.063-0.041,0.096-0.059l63.432-36.862c3.045-1.769,6.946-1.457,10.991,0.878
				l0,0c7.641,4.411,13.605,14.749,13.581,23.536c-0.014,4.591-1.676,8.081-4.68,9.826l-63.432,36.862
				c-0.096,0.056-0.194,0.103-0.295,0.141C1308.254,529.299,1306.889,529.622,1305.435,529.622z M1291.994,497.667
				c-0.03,0.02-0.061,0.038-0.092,0.056c-1.735,0.999-2.695,3.266-2.704,6.383c-0.021,7.239,5.285,16.427,11.587,20.065
				c2.863,1.652,5.503,1.902,7.246,0.683c0.163-0.114,0.338-0.2,0.518-0.26l62.643-36.404c1.726-1.002,2.681-3.268,2.689-6.379
				c0.021-7.238-5.283-16.425-11.581-20.061c-2.75-1.587-5.23-1.902-6.981-0.883L1291.994,497.667z"/>
		</g>
		<g>
			<path style="fill:#233344;" d="M1275.842,478.609c-4.204-2.443-10.025-2.098-16.451,1.612
				c-12.769,7.372-23.085,25.24-23.044,39.913c0.021,7.289,2.594,12.418,6.744,14.829l42.288,24.575
				c-4.15-2.412-6.723-7.54-6.743-14.829c-0.042-14.673,10.274-32.541,23.043-39.913c6.426-3.71,12.247-4.055,16.451-1.612
				L1275.842,478.609z"/>
			<path d="M1285.377,561.538c-0.341,0-0.687-0.087-1.003-0.271c-0.004-0.002-0.008-0.005-0.012-0.007l-42.276-24.568
				c-4.968-2.887-7.717-8.766-7.738-16.553c-0.044-15.287,10.742-33.972,24.043-41.651c6.866-3.965,13.42-4.534,18.456-1.609
				c0,0,0,0,0,0l42.287,24.575c0,0,0,0,0,0c0.955,0.555,1.279,1.779,0.725,2.734s-1.777,1.281-2.734,0.724l-0.011-0.006
				c-3.742-2.168-8.869-1.593-14.435,1.621c-12.194,7.04-22.083,24.166-22.044,38.176c0.019,6.303,2.057,10.955,5.74,13.1
				l0.009,0.005c0.955,0.555,1.279,1.779,0.725,2.734C1286.737,561.181,1286.066,561.538,1285.377,561.538z M1269.756,479.04
				c-2.825,0-6.016,0.978-9.365,2.912c-12.194,7.041-22.083,24.166-22.043,38.175c0.018,6.308,2.06,10.962,5.748,13.106
				l33.769,19.624c-0.801-2.384-1.221-5.12-1.229-8.143c-0.043-15.288,10.743-33.972,24.044-41.651
				c2.714-1.567,5.38-2.604,7.922-3.104l-33.764-19.622C1273.344,479.47,1271.63,479.04,1269.756,479.04z"/>
		</g>
		<g>
			<path d="M1301.679,504.795c12.769-7.372,23.152-1.455,23.194,13.218s-10.274,32.541-23.043,39.913
				c-12.769,7.372-23.153,1.455-23.194-13.218C1278.593,530.035,1288.909,512.168,1301.679,504.795z"/>
			<path d="M1291.45,563.11c-2.549,0-4.921-0.602-7.028-1.815c-4.999-2.876-7.765-8.765-7.787-16.58
				c-0.043-15.287,10.744-33.971,24.044-41.651l0,0c6.84-3.95,13.378-4.532,18.407-1.637c4.999,2.876,7.765,8.765,7.787,16.58
				c0.043,15.288-10.743,33.972-24.044,41.651C1298.855,561.952,1294.983,563.11,1291.45,563.11z M1312.045,503.615
				c-2.826,0-6.017,0.979-9.366,2.912l0,0c-12.194,7.04-22.083,24.166-22.044,38.176c0.019,6.328,2.071,10.99,5.782,13.125
				c3.74,2.153,8.858,1.572,14.412-1.634c12.194-7.04,22.083-24.166,22.044-38.176c-0.019-6.328-2.071-10.99-5.782-13.125
				C1315.606,504.039,1313.904,503.615,1312.045,503.615z M1301.679,504.795h0.01H1301.679z"/>
		</g>
	</g>
</g>
</svg>
