<?xml version="1.0" encoding="UTF-8" standalone="no"?><!DOCTYPE svg PUBLIC "-//W3C//DTD SVG 1.1//EN" "http://www.w3.org/Graphics/SVG/1.1/DTD/svg11.dtd"><svg width="4000px" height="3000px" version="1.1" xmlns="http://www.w3.org/2000/svg" xmlns:xlink="http://www.w3.org/1999/xlink" xml:space="preserve" xmlns:serif="http://www.serif.com/" style="fill-rule:evenodd;clip-rule:evenodd;stroke-linejoin:round;stroke-miterlimit:2;"><path d="M400,0l0,200l-200,-0l0,200l-200,-0l400,-400Z" style="fill:#0a0079;"/><path d="M400,1000l0,200l-200,-0l0,200l-200,-0l400,-400Z" style="fill:#0a0079;"/><path d="M400,2000l0,200l-200,-0l0,200l-200,-0l400,-400Z" style="fill:#0a0079;"/><path d="M1400,0l0,200l-200,-0l0,200l-200,-0l400,-400Z" style="fill:#0a0079;"/><path d="M1400,1000l0,200l-200,-0l0,200l-200,-0l400,-400Z" style="fill:#0a0079;"/><path d="M1400,2000l0,200l-200,-0l0,200l-200,-0l400,-400Z" style="fill:#0a0079;"/><path d="M2400,0l0,200l-200,-0l0,200l-200,-0l400,-400Z" style="fill:#0a0079;"/><path d="M2400,1000l0,200l-200,-0l0,200l-200,-0l400,-400Z" style="fill:#0a0079;"/><path d="M2400,2000l0,200l-200,-0l0,200l-200,-0l400,-400Z" style="fill:#0a0079;"/><path d="M3400,0l0,200l-200,-0l0,200l-200,-0l400,-400Z" style="fill:#0a0079;"/><path d="M3400,1000l0,200l-200,-0l0,200l-200,-0l400,-400Z" style="fill:#0a0079;"/><path d="M3400,2000l0,200l-200,-0l0,200l-200,-0l400,-400Z" style="fill:#0a0079;"/><path d="M600,1000l0,-200l200,-0l-0,-200l200,-0l-400,400Z" style="fill:#0a0079;"/><path d="M600,2000l0,-200l200,-0l-0,-200l200,-0l-400,400Z" style="fill:#0a0079;"/><path d="M600,3000l0,-200l200,-0l-0,-200l200,-0l-400,400Z" style="fill:#0a0079;"/><path d="M1600,1000l0,-200l200,-0l0,-200l200,-0l-400,400Z" style="fill:#0a0079;"/><path d="M1600,2000l0,-200l200,-0l0,-200l200,-0l-400,400Z" style="fill:#0a0079;"/><path d="M1600,3000l0,-200l200,-0l0,-200l200,-0l-400,400Z" style="fill:#0a0079;"/><path d="M2600,1000l0,-200l200,-0l0,-200l200,-0l-400,400Z" style="fill:#0a0079;"/><path d="M2600,2000l0,-200l200,-0l0,-200l200,-0l-400,400Z" style="fill:#0a0079;"/><path d="M2600,3000l0,-200l200,-0l0,-200l200,-0l-400,400Z" style="fill:#0a0079;"/><path d="M3600,1000l0,-200l200,-0l0,-200l200,-0l-400,400Z" style="fill:#0a0079;"/><path d="M3600,2000l0,-200l200,-0l0,-200l200,-0l-400,400Z" style="fill:#0a0079;"/><path d="M3600,3000l0,-200l200,-0l0,-200l200,-0l-400,400Z" style="fill:#0a0079;"/><path d="M600,0l-200,200l0,200l-200,-0l-200,200l200,-0l400,-400l-0,-200Z" style="fill:#fed11f;"/><path d="M600,1000l-200,200l0,200l-200,-0l-200,200l200,-0l400,-400l-0,-200Z" style="fill:#fed11f;"/><path d="M600,2000l-200,200l0,200l-200,-0l-200,200l200,-0l400,-400l-0,-200Z" style="fill:#fed11f;"/><path d="M1600,0l-200,200l0,200l-200,-0l-200,200l200,-0l400,-400l0,-200Z" style="fill:#fed11f;"/><path d="M1600,1000l-200,200l0,200l-200,-0l-200,200l200,-0l400,-400l0,-200Z" style="fill:#fed11f;"/><path d="M1600,2000l-200,200l0,200l-200,-0l-200,200l200,-0l400,-400l0,-200Z" style="fill:#fed11f;"/><path d="M2600,0l-200,200l0,200l-200,-0l-200,200l200,-0l400,-400l0,-200Z" style="fill:#fed11f;"/><path d="M2600,1000l-200,200l0,200l-200,-0l-200,200l200,-0l400,-400l0,-200Z" style="fill:#fed11f;"/><path d="M2600,2000l-200,200l0,200l-200,-0l-200,200l200,-0l400,-400l0,-200Z" style="fill:#fed11f;"/><path d="M3600,0l-200,200l0,200l-200,-0l-200,200l200,-0l400,-400l0,-200Z" style="fill:#fed11f;"/><path d="M3600,1000l-200,200l0,200l-200,-0l-200,200l200,-0l400,-400l0,-200Z" style="fill:#fed11f;"/><path d="M3600,2000l-200,200l0,200l-200,-0l-200,200l200,-0l400,-400l0,-200Z" style="fill:#fed11f;"/><path d="M400,1000l200,-200l0,-200l200,-0l200,-200l-200,-0l-400,400l0,200Z" style="fill:#fed11f;"/><path d="M400,2000l200,-200l0,-200l200,-0l200,-200l-200,-0l-400,400l0,200Z" style="fill:#fed11f;"/><path d="M400,3000l200,-200l0,-200l200,-0l200,-200l-200,-0l-400,400l0,200Z" style="fill:#fed11f;"/><path d="M1400,1000l200,-200l0,-200l200,-0l200,-200l-200,-0l-400,400l0,200Z" style="fill:#fed11f;"/><path d="M1400,2000l200,-200l0,-200l200,-0l200,-200l-200,-0l-400,400l0,200Z" style="fill:#fed11f;"/><path d="M1400,3000l200,-200l0,-200l200,-0l200,-200l-200,-0l-400,400l0,200Z" style="fill:#fed11f;"/><path d="M2400,1000l200,-200l0,-200l200,-0l200,-200l-200,-0l-400,400l0,200Z" style="fill:#fed11f;"/><path d="M2400,2000l200,-200l0,-200l200,-0l200,-200l-200,-0l-400,400l0,200Z" style="fill:#fed11f;"/><path d="M2400,3000l200,-200l0,-200l200,-0l200,-200l-200,-0l-400,400l0,200Z" style="fill:#fed11f;"/><path d="M3400,1000l200,-200l0,-200l200,-0l200,-200l-200,-0l-400,400l0,200Z" style="fill:#fed11f;"/><path d="M3400,2000l200,-200l0,-200l200,-0l200,-200l-200,-0l-400,400l0,200Z" style="fill:#fed11f;"/><path d="M3400,3000l200,-200l0,-200l200,-0l200,-200l-200,-0l-400,400l0,200Z" style="fill:#fed11f;"/><path d="M400,0l0,200l200,-200l-200,0Z" style="fill:#9e0093;"/><path d="M400,1000l0,200l200,-200l-200,-0Z" style="fill:#9e0093;"/><path d="M400,2000l0,200l200,-200l-200,-0Z" style="fill:#9e0093;"/><path d="M1400,0l0,200l200,-200l-200,0Z" style="fill:#9e0093;"/><path d="M1400,1000l0,200l200,-200l-200,-0Z" style="fill:#9e0093;"/><path d="M1400,2000l0,200l200,-200l-200,-0Z" style="fill:#9e0093;"/><path d="M2400,0l0,200l200,-200l-200,0Z" style="fill:#9e0093;"/><path d="M2400,1000l0,200l200,-200l-200,-0Z" style="fill:#9e0093;"/><path d="M2400,2000l0,200l200,-200l-200,-0Z" style="fill:#9e0093;"/><path d="M3400,0l0,200l200,-200l-200,0Z" style="fill:#9e0093;"/><path d="M3400,1000l0,200l200,-200l-200,-0Z" style="fill:#9e0093;"/><path d="M3400,2000l0,200l200,-200l-200,-0Z" style="fill:#9e0093;"/><path d="M600,1000l0,-200l-200,200l200,-0Z" style="fill:#9e0093;"/><path d="M600,2000l0,-200l-200,200l200,-0Z" style="fill:#9e0093;"/><path d="M600,3000l0,-200l-200,200l200,-0Z" style="fill:#9e0093;"/><path d="M1600,1000l0,-200l-200,200l200,-0Z" style="fill:#9e0093;"/><path d="M1600,2000l0,-200l-200,200l200,-0Z" style="fill:#9e0093;"/><path d="M1600,3000l0,-200l-200,200l200,-0Z" style="fill:#9e0093;"/><path d="M2600,1000l0,-200l-200,200l200,-0Z" style="fill:#9e0093;"/><path d="M2600,2000l0,-200l-200,200l200,-0Z" style="fill:#9e0093;"/><path d="M2600,3000l0,-200l-200,200l200,-0Z" style="fill:#9e0093;"/><path d="M3600,1000l0,-200l-200,200l200,-0Z" style="fill:#9e0093;"/><path d="M3600,2000l0,-200l-200,200l200,-0Z" style="fill:#9e0093;"/><path d="M3600,3000l0,-200l-200,200l200,-0Z" style="fill:#9e0093;"/><path d="M200,400l-200,-0l0,200l200,-200Z" style="fill:#fe376a;"/><path d="M200,1400l-200,-0l0,200l200,-200Z" style="fill:#fe376a;"/><path d="M200,2400l-200,-0l0,200l200,-200Z" style="fill:#fe376a;"/><path d="M1200,400l-200,-0l0,200l200,-200Z" style="fill:#fe376a;"/><path d="M1200,1400l-200,-0l0,200l200,-200Z" style="fill:#fe376a;"/><path d="M1200,2400l-200,-0l0,200l200,-200Z" style="fill:#fe376a;"/><path d="M2200,400l-200,-0l0,200l200,-200Z" style="fill:#fe376a;"/><path d="M2200,1400l-200,-0l0,200l200,-200Z" style="fill:#fe376a;"/><path d="M2200,2400l-200,-0l0,200l200,-200Z" style="fill:#fe376a;"/><path d="M3200,400l-200,-0l0,200l200,-200Z" style="fill:#fe376a;"/><path d="M3200,1400l-200,-0l0,200l200,-200Z" style="fill:#fe376a;"/><path d="M3200,2400l-200,-0l0,200l200,-200Z" style="fill:#fe376a;"/><path d="M800,600l200,-0l-0,-200l-200,200Z" style="fill:#fe376a;"/><path d="M800,1600l200,-0l-0,-200l-200,200Z" style="fill:#fe376a;"/><path d="M800,2600l200,-0l-0,-200l-200,200Z" style="fill:#fe376a;"/><path d="M1800,600l200,-0l-0,-200l-200,200Z" style="fill:#fe376a;"/><path d="M1800,1600l200,-0l-0,-200l-200,200Z" style="fill:#fe376a;"/><path d="M1800,2600l200,-0l-0,-200l-200,200Z" style="fill:#fe376a;"/><path d="M2800,600l200,-0l0,-200l-200,200Z" style="fill:#fe376a;"/><path d="M2800,1600l200,-0l0,-200l-200,200Z" style="fill:#fe376a;"/><path d="M2800,2600l200,-0l0,-200l-200,200Z" style="fill:#fe376a;"/><path d="M3800,600l200,-0l0,-200l-200,200Z" style="fill:#fe376a;"/><path d="M3800,1600l200,-0l0,-200l-200,200Z" style="fill:#fe376a;"/><path d="M3800,2600l200,-0l0,-200l-200,200Z" style="fill:#fe376a;"/><rect x="200" y="200" width="200" height="200" style="fill:#fff;"/><rect x="200" y="1200" width="200" height="200" style="fill:#fff;"/><rect x="200" y="2200" width="200" height="200" style="fill:#fff;"/><rect x="1200" y="200" width="200" height="200" style="fill:#fff;"/><rect x="1200" y="1200" width="200" height="200" style="fill:#fff;"/><rect x="1200" y="2200" width="200" height="200" style="fill:#fff;"/><rect x="2200" y="200" width="200" height="200" style="fill:#fff;"/><rect x="2200" y="1200" width="200" height="200" style="fill:#fff;"/><rect x="2200" y="2200" width="200" height="200" style="fill:#fff;"/><rect x="3200" y="200" width="200" height="200" style="fill:#fff;"/><rect x="3200" y="1200" width="200" height="200" style="fill:#fff;"/><rect x="3200" y="2200" width="200" height="200" style="fill:#fff;"/><rect x="600" y="600" width="200" height="200" style="fill:#fff;"/><rect x="600" y="1600" width="200" height="200" style="fill:#fff;"/><rect x="600" y="2600" width="200" height="200" style="fill:#fff;"/><rect x="1600" y="600" width="200" height="200" style="fill:#fff;"/><rect x="1600" y="1600" width="200" height="200" style="fill:#fff;"/><rect x="1600" y="2600" width="200" height="200" style="fill:#fff;"/><rect x="2600" y="600" width="200" height="200" style="fill:#fff;"/><rect x="2600" y="1600" width="200" height="200" style="fill:#fff;"/><rect x="2600" y="2600" width="200" height="200" style="fill:#fff;"/><rect x="3600" y="600" width="200" height="200" style="fill:#fff;"/><rect x="3600" y="1600" width="200" height="200" style="fill:#fff;"/><rect x="3600" y="2600" width="200" height="200" style="fill:#fff;"/><rect x="400" y="400" width="200" height="200" style="fill:#fff;"/><rect x="400" y="1400" width="200" height="200" style="fill:#fff;"/><rect x="400" y="2400" width="200" height="200" style="fill:#fff;"/><rect x="1400" y="400" width="200" height="200" style="fill:#fff;"/><rect x="1400" y="1400" width="200" height="200" style="fill:#fff;"/><rect x="1400" y="2400" width="200" height="200" style="fill:#fff;"/><rect x="2400" y="400" width="200" height="200" style="fill:#fff;"/><rect x="2400" y="1400" width="200" height="200" style="fill:#fff;"/><rect x="2400" y="2400" width="200" height="200" style="fill:#fff;"/><rect x="3400" y="400" width="200" height="200" style="fill:#fff;"/><rect x="3400" y="1400" width="200" height="200" style="fill:#fff;"/><rect x="3400" y="2400" width="200" height="200" style="fill:#fff;"/><rect x="800" y="0" width="200" height="200" style="fill:#9e0093;"/><rect x="800" y="1000" width="200" height="200" style="fill:#9e0093;"/><rect x="800" y="2000" width="200" height="200" style="fill:#9e0093;"/><rect x="1800" y="0" width="200" height="200" style="fill:#9e0093;"/><rect x="1800" y="1000" width="200" height="200" style="fill:#9e0093;"/><rect x="1800" y="2000" width="200" height="200" style="fill:#9e0093;"/><rect x="2800" y="0" width="200" height="200" style="fill:#9e0093;"/><rect x="2800" y="1000" width="200" height="200" style="fill:#9e0093;"/><rect x="2800" y="2000" width="200" height="200" style="fill:#9e0093;"/><rect x="3800" y="0" width="200" height="200" style="fill:#9e0093;"/><rect x="3800" y="1000" width="200" height="200" style="fill:#9e0093;"/><rect x="3800" y="2000" width="200" height="200" style="fill:#9e0093;"/><rect x="0" y="0" width="200" height="200" style="fill:#fe376a;"/><rect x="0" y="1000" width="200" height="200" style="fill:#fe376a;"/><rect x="0" y="2000" width="200" height="200" style="fill:#fe376a;"/><rect x="1000" y="0" width="200" height="200" style="fill:#fe376a;"/><rect x="1000" y="1000" width="200" height="200" style="fill:#fe376a;"/><rect x="1000" y="2000" width="200" height="200" style="fill:#fe376a;"/><rect x="2000" y="0" width="200" height="200" style="fill:#fe376a;"/><rect x="2000" y="1000" width="200" height="200" style="fill:#fe376a;"/><rect x="2000" y="2000" width="200" height="200" style="fill:#fe376a;"/><rect x="3000" y="0" width="200" height="200" style="fill:#fe376a;"/><rect x="3000" y="1000" width="200" height="200" style="fill:#fe376a;"/><rect x="3000" y="2000" width="200" height="200" style="fill:#fe376a;"/><rect x="800" y="800" width="200" height="200" style="fill:#fe376a;"/><rect x="800" y="1800" width="200" height="200" style="fill:#fe376a;"/><rect x="800" y="2800" width="200" height="200" style="fill:#fe376a;"/><rect x="1800" y="800" width="200" height="200" style="fill:#fe376a;"/><rect x="1800" y="1800" width="200" height="200" style="fill:#fe376a;"/><rect x="1800" y="2800" width="200" height="200" style="fill:#fe376a;"/><rect x="2800" y="800" width="200" height="200" style="fill:#fe376a;"/><rect x="2800" y="1800" width="200" height="200" style="fill:#fe376a;"/><rect x="2800" y="2800" width="200" height="200" style="fill:#fe376a;"/><rect x="3800" y="800" width="200" height="200" style="fill:#fe376a;"/><rect x="3800" y="1800" width="200" height="200" style="fill:#fe376a;"/><rect x="3800" y="2800" width="200" height="200" style="fill:#fe376a;"/><rect x="0" y="800" width="200" height="200" style="fill:#9e0093;"/><rect x="0" y="1800" width="200" height="200" style="fill:#9e0093;"/><rect x="0" y="2800" width="200" height="200" style="fill:#9e0093;"/><rect x="1000" y="800" width="200" height="200" style="fill:#9e0093;"/><rect x="1000" y="1800" width="200" height="200" style="fill:#9e0093;"/><rect x="1000" y="2800" width="200" height="200" style="fill:#9e0093;"/><rect x="2000" y="800" width="200" height="200" style="fill:#9e0093;"/><rect x="2000" y="1800" width="200" height="200" style="fill:#9e0093;"/><rect x="2000" y="2800" width="200" height="200" style="fill:#9e0093;"/><rect x="3000" y="800" width="200" height="200" style="fill:#9e0093;"/><rect x="3000" y="1800" width="200" height="200" style="fill:#9e0093;"/><rect x="3000" y="2800" width="200" height="200" style="fill:#9e0093;"/><path d="M600,200l200,200l200,-0l-400,-400l0,200Z" style="fill:#fe376a;"/><path d="M600,1200l200,200l200,-0l-400,-400l0,200Z" style="fill:#fe376a;"/><path d="M600,2200l200,200l200,-0l-400,-400l0,200Z" style="fill:#fe376a;"/><path d="M1600,200l200,200l200,-0l-400,-400l0,200Z" style="fill:#fe376a;"/><path d="M1600,1200l200,200l200,-0l-400,-400l0,200Z" style="fill:#fe376a;"/><path d="M1600,2200l200,200l200,-0l-400,-400l0,200Z" style="fill:#fe376a;"/><path d="M2600,200l200,200l200,-0l-400,-400l0,200Z" style="fill:#fe376a;"/><path d="M2600,1200l200,200l200,-0l-400,-400l0,200Z" style="fill:#fe376a;"/><path d="M2600,2200l200,200l200,-0l-400,-400l0,200Z" style="fill:#fe376a;"/><path d="M3600,200l200,200l200,-0l-400,-400l0,200Z" style="fill:#fe376a;"/><path d="M3600,1200l200,200l200,-0l-400,-400l0,200Z" style="fill:#fe376a;"/><path d="M3600,2200l200,200l200,-0l-400,-400l0,200Z" style="fill:#fe376a;"/><path d="M400,800l-200,-200l-200,-0l400,400l0,-200Z" style="fill:#fe376a;"/><path d="M400,1800l-200,-200l-200,-0l400,400l0,-200Z" style="fill:#fe376a;"/><path d="M400,2800l-200,-200l-200,-0l400,400l0,-200Z" style="fill:#fe376a;"/><path d="M1400,800l-200,-200l-200,-0l400,400l0,-200Z" style="fill:#fe376a;"/><path d="M1400,1800l-200,-200l-200,-0l400,400l0,-200Z" style="fill:#fe376a;"/><path d="M1400,2800l-200,-200l-200,-0l400,400l0,-200Z" style="fill:#fe376a;"/><path d="M2400,800l-200,-200l-200,-0l400,400l0,-200Z" style="fill:#fe376a;"/><path d="M2400,1800l-200,-200l-200,-0l400,400l0,-200Z" style="fill:#fe376a;"/><path d="M2400,2800l-200,-200l-200,-0l400,400l0,-200Z" style="fill:#fe376a;"/><path d="M3400,800l-200,-200l-200,-0l400,400l0,-200Z" style="fill:#fe376a;"/><path d="M3400,1800l-200,-200l-200,-0l400,400l0,-200Z" style="fill:#fe376a;"/><path d="M3400,2800l-200,-200l-200,-0l400,400l0,-200Z" style="fill:#fe376a;"/><path d="M600,200l-0,200l200,-0l-200,-200Z" style="fill:#fff;"/><path d="M600,1200l-0,200l200,-0l-200,-200Z" style="fill:#fff;"/><path d="M600,2200l-0,200l200,-0l-200,-200Z" style="fill:#fff;"/><path d="M1600,200l0,200l200,-0l-200,-200Z" style="fill:#fff;"/><path d="M1600,1200l0,200l200,-0l-200,-200Z" style="fill:#fff;"/><path d="M1600,2200l0,200l200,-0l-200,-200Z" style="fill:#fff;"/><path d="M2600,200l0,200l200,-0l-200,-200Z" style="fill:#fff;"/><path d="M2600,1200l0,200l200,-0l-200,-200Z" style="fill:#fff;"/><path d="M2600,2200l0,200l200,-0l-200,-200Z" style="fill:#fff;"/><path d="M3600,200l0,200l200,-0l-200,-200Z" style="fill:#fff;"/><path d="M3600,1200l0,200l200,-0l-200,-200Z" style="fill:#fff;"/><path d="M3600,2200l0,200l200,-0l-200,-200Z" style="fill:#fff;"/><path d="M200,800l0,200l200,-0l-200,-200Z" style="fill:#fed11f;"/><path d="M200,1800l0,200l200,-0l-200,-200Z" style="fill:#fed11f;"/><path d="M200,2800l0,200l200,-0l-200,-200Z" style="fill:#fed11f;"/><path d="M1200,800l0,200l200,-0l-200,-200Z" style="fill:#fed11f;"/><path d="M1200,1800l0,200l200,-0l-200,-200Z" style="fill:#fed11f;"/><path d="M1200,2800l0,200l200,-0l-200,-200Z" style="fill:#fed11f;"/><path d="M2200,800l0,200l200,-0l-200,-200Z" style="fill:#fed11f;"/><path d="M2200,1800l0,200l200,-0l-200,-200Z" style="fill:#fed11f;"/><path d="M2200,2800l0,200l200,-0l-200,-200Z" style="fill:#fed11f;"/><path d="M3200,800l0,200l200,-0l-200,-200Z" style="fill:#fed11f;"/><path d="M3200,1800l0,200l200,-0l-200,-200Z" style="fill:#fed11f;"/><path d="M3200,2800l0,200l200,-0l-200,-200Z" style="fill:#fed11f;"/><path d="M800,200l0,-200l-200,-0l200,200Z" style="fill:#fed11f;"/><path d="M800,1200l0,-200l-200,-0l200,200Z" style="fill:#fed11f;"/><path d="M800,2200l0,-200l-200,-0l200,200Z" style="fill:#fed11f;"/><path d="M1800,200l0,-200l-200,-0l200,200Z" style="fill:#fed11f;"/><path d="M1800,1200l0,-200l-200,-0l200,200Z" style="fill:#fed11f;"/><path d="M1800,2200l0,-200l-200,-0l200,200Z" style="fill:#fed11f;"/><path d="M2800,200l0,-200l-200,-0l200,200Z" style="fill:#fed11f;"/><path d="M2800,1200l0,-200l-200,-0l200,200Z" style="fill:#fed11f;"/><path d="M2800,2200l0,-200l-200,-0l200,200Z" style="fill:#fed11f;"/><path d="M3800,200l0,-200l-200,-0l200,200Z" style="fill:#fed11f;"/><path d="M3800,1200l0,-200l-200,-0l200,200Z" style="fill:#fed11f;"/><path d="M3800,2200l0,-200l-200,-0l200,200Z" style="fill:#fed11f;"/><path d="M200,200l-0,-200l200,-0l-200,200Z" style="fill:#fed11f;"/><path d="M200,1200l-0,-200l200,-0l-200,200Z" style="fill:#fed11f;"/><path d="M200,2200l-0,-200l200,-0l-200,200Z" style="fill:#fed11f;"/><path d="M1200,200l0,-200l200,-0l-200,200Z" style="fill:#fed11f;"/><path d="M1200,1200l0,-200l200,-0l-200,200Z" style="fill:#fed11f;"/><path d="M1200,2200l0,-200l200,-0l-200,200Z" style="fill:#fed11f;"/><path d="M2200,200l0,-200l200,-0l-200,200Z" style="fill:#fed11f;"/><path d="M2200,1200l0,-200l200,-0l-200,200Z" style="fill:#fed11f;"/><path d="M2200,2200l0,-200l200,-0l-200,200Z" style="fill:#fed11f;"/><path d="M3200,200l0,-200l200,-0l-200,200Z" style="fill:#fed11f;"/><path d="M3200,1200l0,-200l200,-0l-200,200Z" style="fill:#fed11f;"/><path d="M3200,2200l0,-200l200,-0l-200,200Z" style="fill:#fed11f;"/><path d="M800,800l0,200l-200,0l200,-200Z" style="fill:#fed11f;"/><path d="M800,1800l0,200l-200,-0l200,-200Z" style="fill:#fed11f;"/><path d="M800,2800l0,200l-200,-0l200,-200Z" style="fill:#fed11f;"/><path d="M1800,800l0,200l-200,0l200,-200Z" style="fill:#fed11f;"/><path d="M1800,1800l0,200l-200,-0l200,-200Z" style="fill:#fed11f;"/><path d="M1800,2800l0,200l-200,-0l200,-200Z" style="fill:#fed11f;"/><path d="M2800,800l0,200l-200,0l200,-200Z" style="fill:#fed11f;"/><path d="M2800,1800l0,200l-200,-0l200,-200Z" style="fill:#fed11f;"/><path d="M2800,2800l0,200l-200,-0l200,-200Z" style="fill:#fed11f;"/><path d="M3800,800l0,200l-200,0l200,-200Z" style="fill:#fed11f;"/><path d="M3800,1800l0,200l-200,-0l200,-200Z" style="fill:#fed11f;"/><path d="M3800,2800l0,200l-200,-0l200,-200Z" style="fill:#fed11f;"/><path d="M600,600l-200,-0l-0,200l200,-200Z" style="fill:#0a0079;"/><path d="M600,1600l-200,-0l-0,200l200,-200Z" style="fill:#0a0079;"/><path d="M600,2600l-200,-0l-0,200l200,-200Z" style="fill:#0a0079;"/><path d="M1600,600l-200,-0l0,200l200,-200Z" style="fill:#0a0079;"/><path d="M1600,1600l-200,-0l0,200l200,-200Z" style="fill:#0a0079;"/><path d="M1600,2600l-200,-0l0,200l200,-200Z" style="fill:#0a0079;"/><path d="M2600,600l-200,-0l0,200l200,-200Z" style="fill:#0a0079;"/><path d="M2600,1600l-200,-0l0,200l200,-200Z" style="fill:#0a0079;"/><path d="M2600,2600l-200,-0l0,200l200,-200Z" style="fill:#0a0079;"/><path d="M3600,600l-200,-0l0,200l200,-200Z" style="fill:#0a0079;"/><path d="M3600,1600l-200,-0l0,200l200,-200Z" style="fill:#0a0079;"/><path d="M3600,2600l-200,-0l0,200l200,-200Z" style="fill:#0a0079;"/><path d="M800,400l-200,0l-0,200l200,-200Z" style="fill:#9e0093;"/><path d="M800,1400l-200,-0l-0,200l200,-200Z" style="fill:#9e0093;"/><path d="M800,2400l-200,-0l-0,200l200,-200Z" style="fill:#9e0093;"/><path d="M1800,400l-200,0l-0,200l200,-200Z" style="fill:#9e0093;"/><path d="M1800,1400l-200,-0l-0,200l200,-200Z" style="fill:#9e0093;"/><path d="M1800,2400l-200,-0l-0,200l200,-200Z" style="fill:#9e0093;"/><path d="M2800,400l-200,0l-0,200l200,-200Z" style="fill:#9e0093;"/><path d="M2800,1400l-200,-0l-0,200l200,-200Z" style="fill:#9e0093;"/><path d="M2800,2400l-200,-0l-0,200l200,-200Z" style="fill:#9e0093;"/><path d="M3800,400l-200,0l0,200l200,-200Z" style="fill:#9e0093;"/><path d="M3800,1400l-200,-0l0,200l200,-200Z" style="fill:#9e0093;"/><path d="M3800,2400l-200,-0l0,200l200,-200Z" style="fill:#9e0093;"/><path d="M200,600l200,-0l-0,-200l-200,200Z" style="fill:#9e0093;"/><path d="M200,1600l200,-0l-0,-200l-200,200Z" style="fill:#9e0093;"/><path d="M200,2600l200,-0l-0,-200l-200,200Z" style="fill:#9e0093;"/><path d="M1200,600l200,-0l0,-200l-200,200Z" style="fill:#9e0093;"/><path d="M1200,1600l200,-0l0,-200l-200,200Z" style="fill:#9e0093;"/><path d="M1200,2600l200,-0l0,-200l-200,200Z" style="fill:#9e0093;"/><path d="M2200,600l200,-0l0,-200l-200,200Z" style="fill:#9e0093;"/><path d="M2200,1600l200,-0l0,-200l-200,200Z" style="fill:#9e0093;"/><path d="M2200,2600l200,-0l0,-200l-200,200Z" style="fill:#9e0093;"/><path d="M3200,600l200,-0l0,-200l-200,200Z" style="fill:#9e0093;"/><path d="M3200,1600l200,-0l0,-200l-200,200Z" style="fill:#9e0093;"/><path d="M3200,2600l200,-0l0,-200l-200,200Z" style="fill:#9e0093;"/><path d="M400,400l200,0l-0,-200l-200,200Z" style="fill:#0a0079;"/><path d="M400,1400l200,-0l-0,-200l-200,200Z" style="fill:#0a0079;"/><path d="M400,2400l200,-0l-0,-200l-200,200Z" style="fill:#0a0079;"/><path d="M1400,400l200,0l-0,-200l-200,200Z" style="fill:#0a0079;"/><path d="M1400,1400l200,-0l-0,-200l-200,200Z" style="fill:#0a0079;"/><path d="M1400,2400l200,-0l-0,-200l-200,200Z" style="fill:#0a0079;"/><path d="M2400,400l200,0l0,-200l-200,200Z" style="fill:#0a0079;"/><path d="M2400,1400l200,-0l0,-200l-200,200Z" style="fill:#0a0079;"/><path d="M2400,2400l200,-0l0,-200l-200,200Z" style="fill:#0a0079;"/><path d="M3400,400l200,0l0,-200l-200,200Z" style="fill:#0a0079;"/><path d="M3400,1400l200,-0l0,-200l-200,200Z" style="fill:#0a0079;"/><path d="M3400,2400l200,-0l0,-200l-200,200Z" style="fill:#0a0079;"/><path d="M0,600l0,200l200,-0l-200,-200Z" style="fill:#fed11f;"/><path d="M0,1600l0,200l200,-0l-200,-200Z" style="fill:#fed11f;"/><path d="M0,2600l0,200l200,-0l-200,-200Z" style="fill:#fed11f;"/><path d="M1000,600l0,200l200,-0l-200,-200Z" style="fill:#fed11f;"/><path d="M1000,1600l0,200l200,-0l-200,-200Z" style="fill:#fed11f;"/><path d="M1000,2600l0,200l200,-0l-200,-200Z" style="fill:#fed11f;"/><path d="M2000,600l0,200l200,-0l-200,-200Z" style="fill:#fed11f;"/><path d="M2000,1600l0,200l200,-0l-200,-200Z" style="fill:#fed11f;"/><path d="M2000,2600l0,200l200,-0l-200,-200Z" style="fill:#fed11f;"/><path d="M3000,600l0,200l200,-0l-200,-200Z" style="fill:#fed11f;"/><path d="M3000,1600l0,200l200,-0l-200,-200Z" style="fill:#fed11f;"/><path d="M3000,2600l0,200l200,-0l-200,-200Z" style="fill:#fed11f;"/><path d="M1000,400l-0,-200l-200,-0l200,200Z" style="fill:#fed11f;"/><path d="M1000,1400l-0,-200l-200,-0l200,200Z" style="fill:#fed11f;"/><path d="M1000,2400l-0,-200l-200,-0l200,200Z" style="fill:#fed11f;"/><path d="M2000,400l0,-200l-200,-0l200,200Z" style="fill:#fed11f;"/><path d="M2000,1400l0,-200l-200,-0l200,200Z" style="fill:#fed11f;"/><path d="M2000,2400l0,-200l-200,-0l200,200Z" style="fill:#fed11f;"/><path d="M3000,400l0,-200l-200,-0l200,200Z" style="fill:#fed11f;"/><path d="M3000,1400l0,-200l-200,-0l200,200Z" style="fill:#fed11f;"/><path d="M3000,2400l0,-200l-200,-0l200,200Z" style="fill:#fed11f;"/><path d="M4000,400l0,-200l-200,-0l200,200Z" style="fill:#fed11f;"/><path d="M4000,1400l0,-200l-200,-0l200,200Z" style="fill:#fed11f;"/><path d="M4000,2400l0,-200l-200,-0l200,200Z" style="fill:#fed11f;"/><path d="M0,400l0,-200l200,-0l-200,200Z" style="fill:#fed11f;"/><path d="M0,1400l0,-200l200,-0l-200,200Z" style="fill:#fed11f;"/><path d="M0,2400l0,-200l200,-0l-200,200Z" style="fill:#fed11f;"/><path d="M1000,400l0,-200l200,-0l-200,200Z" style="fill:#fed11f;"/><path d="M1000,1400l0,-200l200,-0l-200,200Z" style="fill:#fed11f;"/><path d="M1000,2400l0,-200l200,-0l-200,200Z" style="fill:#fed11f;"/><path d="M2000,400l0,-200l200,-0l-200,200Z" style="fill:#fed11f;"/><path d="M2000,1400l0,-200l200,-0l-200,200Z" style="fill:#fed11f;"/><path d="M2000,2400l0,-200l200,-0l-200,200Z" style="fill:#fed11f;"/><path d="M3000,400l0,-200l200,-0l-200,200Z" style="fill:#fed11f;"/><path d="M3000,1400l0,-200l200,-0l-200,200Z" style="fill:#fed11f;"/><path d="M3000,2400l0,-200l200,-0l-200,200Z" style="fill:#fed11f;"/><path d="M1000,600l-0,200l-200,-0l200,-200Z" style="fill:#fed11f;"/><path d="M1000,1600l-0,200l-200,-0l200,-200Z" style="fill:#fed11f;"/><path d="M1000,2600l-0,200l-200,-0l200,-200Z" style="fill:#fed11f;"/><path d="M2000,600l0,200l-200,-0l200,-200Z" style="fill:#fed11f;"/><path d="M2000,1600l0,200l-200,-0l200,-200Z" style="fill:#fed11f;"/><path d="M2000,2600l0,200l-200,-0l200,-200Z" style="fill:#fed11f;"/><path d="M3000,600l0,200l-200,-0l200,-200Z" style="fill:#fed11f;"/><path d="M3000,1600l0,200l-200,-0l200,-200Z" style="fill:#fed11f;"/><path d="M3000,2600l0,200l-200,-0l200,-200Z" style="fill:#fed11f;"/><path d="M4000,600l0,200l-200,-0l200,-200Z" style="fill:#fed11f;"/><path d="M4000,1600l0,200l-200,-0l200,-200Z" style="fill:#fed11f;"/><path d="M4000,2600l0,200l-200,-0l200,-200Z" style="fill:#fed11f;"/><path d="M400,800l0,-200l-200,-0l200,200Z" style="fill:#fff;"/><path d="M400,1800l0,-200l-200,-0l200,200Z" style="fill:#fff;"/><path d="M400,2800l0,-200l-200,-0l200,200Z" style="fill:#fff;"/><path d="M1400,800l0,-200l-200,-0l200,200Z" style="fill:#fff;"/><path d="M1400,1800l0,-200l-200,-0l200,200Z" style="fill:#fff;"/><path d="M1400,2800l0,-200l-200,-0l200,200Z" style="fill:#fff;"/><path d="M2400,800l0,-200l-200,-0l200,200Z" style="fill:#fff;"/><path d="M2400,1800l0,-200l-200,-0l200,200Z" style="fill:#fff;"/><path d="M2400,2800l0,-200l-200,-0l200,200Z" style="fill:#fff;"/><path d="M3400,800l0,-200l-200,-0l200,200Z" style="fill:#fff;"/><path d="M3400,1800l0,-200l-200,-0l200,200Z" style="fill:#fff;"/><path d="M3400,2800l0,-200l-200,-0l200,200Z" style="fill:#fff;"/></svg>