<?xml version="1.0" encoding="UTF-8"?>
<svg id="Art" xmlns="http://www.w3.org/2000/svg" version="1.1" xmlns:xlink="http://www.w3.org/1999/xlink" viewBox="0 0 2418.2608696 3000">
  <!-- Generator: Adobe Illustrator 30.0.0, SVG Export Plug-In . SVG Version: 2.1.1 Build 123)  -->
  <defs>
    <linearGradient id="linear-gradient" x1="1205.3512176" y1="2494.1090873" x2="1214.5444411" y2="75.8656922" gradientUnits="userSpaceOnUse">
      <stop offset="0" stop-color="#cff500"/>
      <stop offset=".0864116" stop-color="#cff405"/>
      <stop offset=".1907088" stop-color="#d2f413"/>
      <stop offset=".3042576" stop-color="#d6f42c"/>
      <stop offset=".4244538" stop-color="#dcf44e"/>
      <stop offset=".5499072" stop-color="#e3f37a"/>
      <stop offset=".6797011" stop-color="#edf2b0"/>
      <stop offset=".8107629" stop-color="#f7f2ee"/>
      <stop offset=".8260671" stop-color="#f9f2f6"/>
    </linearGradient>
    <clipPath id="clippath">
      <rect width="2418.2608696" height="3000" fill="none"/>
    </clipPath>
    <linearGradient id="linear-gradient1" x1="1610.5340225" y1="-37.3052959" x2="1592.7055976" y2="2562.4303681" gradientUnits="userSpaceOnUse">
      <stop offset="0" stop-color="#fe77ff"/>
      <stop offset=".1435022" stop-color="#fd7efe"/>
      <stop offset=".36542" stop-color="#fc94fc"/>
      <stop offset=".6379854" stop-color="#fbb8fa"/>
      <stop offset=".9481489" stop-color="#f9e9f6"/>
      <stop offset="1" stop-color="#f9f2f6"/>
    </linearGradient>
    <linearGradient id="linear-gradient2" x1="1174.625276" y1="2945.9599609" x2="1332.8552565" y2="2945.9599609" gradientUnits="userSpaceOnUse">
      <stop offset="0" stop-color="#fe77ff"/>
      <stop offset=".6782336" stop-color="#facdf8"/>
      <stop offset="1" stop-color="#f9f2f6"/>
    </linearGradient>
    <linearGradient id="linear-gradient3" x1="1494.1485261" y1="2794.6687308" x2="1489.6077156" y2="2911.1514706" xlink:href="#linear-gradient2"/>
    <linearGradient id="linear-gradient4" x1="1637.0652174" y1="2239.4851074" x2="1751.4751295" y2="2239.4851074" xlink:href="#linear-gradient2"/>
    <linearGradient id="linear-gradient5" x1="1835.995149" y1="2316.1999512" x2="1894.9553541" y2="2316.1999512" xlink:href="#linear-gradient2"/>
    <linearGradient id="linear-gradient6" x1="2042.6052565" y1="2429.0700684" x2="2192.8652662" y2="2429.0700684" xlink:href="#linear-gradient2"/>
    <linearGradient id="linear-gradient7" x1="1798.4353346" y1="1627.0500488" x2="1958.875276" y2="1627.0500488" gradientUnits="userSpaceOnUse">
      <stop offset="0" stop-color="#a66cff"/>
      <stop offset=".0444285" stop-color="#a972fe"/>
      <stop offset=".7027317" stop-color="#e2cdf8"/>
      <stop offset="1" stop-color="#f9f2f6"/>
    </linearGradient>
    <linearGradient id="linear-gradient8" x1="2071.9553541" y1="1526.6449585" x2="2152.1750807" y2="1526.6449585" xlink:href="#linear-gradient7"/>
    <linearGradient id="linear-gradient9" x1="572.6532388" y1="2200.5343154" x2="733.0931802" y2="2200.5343154" xlink:href="#linear-gradient7"/>
    <linearGradient id="linear-gradient10" x1="846.1732583" y1="2100.1292251" x2="926.3929848" y2="2100.1292251" xlink:href="#linear-gradient7"/>
    <linearGradient id="linear-gradient11" x1="275.665193" y1="2806.75" x2="468.8752149" y2="2806.75" xlink:href="#linear-gradient2"/>
  </defs>
  <g id="Background">
    <rect width="2418.2608696" height="3000" fill="url(#linear-gradient)"/>
  </g>
  <g id="Graphics">
    <g clip-path="url(#clippath)">
      <g>
        <path d="M0,1333.8695652l1455.1847909-619.4929538c120.2773799-51.2037989,256.2494932-51.0631067,376.4206532.3894877l628.916295,269.2773792v2049.6521739H-43.3913043v-1681.0434783l43.3913043-18.7826087Z" fill="#761efe"/>
        <path d="M2598.495149,1246.3399658c-2.6398926,8.2000732-10.2700195,15.4700928-23.1799316,21.0300293l-423.1401367,182.0200195-80.2197266,34.5098877-113.0800781,48.6401367-160.4399414,69.0200195-118.3701172,50.9199219c-42.4599609,18.2600098-126.0500488,11.0400391-186.6999512-16.1400146l-692.7299805-310.4200439c-31.5600586-14.1398926-50.6900635-30.8999023-55.8000488-46.2999268-4.7099609-14.1900635,2.5-27.2200928,22.8599854-35.9799805l895.25-385.1100464c42.460083-18.2699585,126.0499268-11.039978,186.7000732,16.1400146l692.7299805,310.4099731c42.2099609,18.9100342,62.1799316,42.5100098,56.119873,61.2600098Z" fill="#cff500"/>
        <path d="M1368.2100079,2031.5693457l-903.7821841,392.620452c-42.8645032,18.6158535-126.1938687,8.9655538-186.1172783-21.5692192l-684.4327406-348.7351316c-47.2967772-24.0975748-65.8747443-53.99942-50.5193294-74.6920248l-4.8788203-2.1395467,3.7266102-102.8024593c4.7277268,16.6335073,23.4280943,35.0454316,54.610201,50.9307369l684.4327406,348.7351316c59.9234095,30.5347729,143.2527751,40.1850727,186.1172783,21.5692192l903.7821841-392.620452c13.0331087-5.6687105,20.8336103-13.2919635,23.6716631-22.0265514l-2.5980208,113.7844005c3.6782818,14.8818917-3.9629994,28.2284155-24.0123038,36.9454448Z"/>
        <path d="M2579.2341638,1469.8944754l-907.3496459,384.3041447c-43.0336517,18.2214286-126.2708812,7.8062928-185.9113523-23.2774904l-681.2013216-355.005814c-47.0734863-24.5309017-65.3760707-54.602094-49.8312759-75.1528121l-4.8589664-2.1842604,4.6705244-102.7639016c4.574776,16.6762222,23.1052718,35.2591023,54.1401833,51.430094l681.2013216,355.005814c59.6404711,31.0837832,142.8777007,41.498919,185.9113523,23.2774904l907.3496459-384.3041447c13.0846169-5.5487838,20.9547966-13.1000806,23.8729426-21.8082373l-3.6428337,113.7557439c3.541461,14.9150432-4.2220638,28.1908316-24.3505744,36.7233735Z"/>
        <path d="M2575.3152174,1387.3699951l-423.1401367,182.0200195-80.2197266,34.5098877-113.0800781,48.6401367-160.4399414,69.0200195-118.3701172,50.9199219c-42.4599609,18.2600098-126.0500488,11.0400391-186.6999512-16.1400146l-692.7299805-310.4200439c-47.8701172-21.4499512-67.1401367-48.9199219-52.25-68.5299072l-4.9300537-1.8900146,1.3800049-95.8800049c5.1099854,15.4000244,24.2399902,32.1600342,55.8000488,46.2999268l692.7299805,310.4200439c60.6499023,27.1800537,144.2399902,34.4000244,186.6999512,16.1400146l118.3701172-50.9199219,160.4399414-69.0200195,113.0800781-48.6401367,80.2197266-34.5098877,423.1401367-182.0200195c12.9099121-5.5599365,20.5400391-12.8299561,23.1799316-21.0300293v106.0899658c4.0200195,13.7900391-3.3200684,26.3901367-23.1799316,34.9400635Z" fill="#a66cff"/>
        <path d="M1394.3395359,1808.8903278c-2.6398926,8.2000732-10.2700195,15.4700928-23.1799316,21.0300293l-895.25,385.1099854c-42.4599609,18.2600098-126.0500488,11.0400391-186.6999512-16.1400146l-692.7299805-310.4200439c-31.5600586-14.1398926-50.6900635-30.8999023-55.8000488-46.2999268-4.7099609-14.1900635,2.5-27.2200928,22.8599854-35.9799805l895.25-385.1100464c42.460083-18.2699585,126.0499268-11.039978,186.7000732,16.1400146l692.7299805,310.4099731c42.2099609,18.9100342,62.1799316,42.5100098,56.119873,61.2600098Z" fill="#cff500"/>
        <path d="M1371.1596043,1949.9203571l-895.25,385.1099854c-42.4599609,18.2600098-126.0500488,11.0400391-186.6999512-16.1400146l-692.7299805-310.4200439c-47.8701172-21.4499512-67.1401367-48.9199219-52.25-68.5299072l-4.9300537-1.8900146,1.3800049-95.8800049c5.1099854,15.4000244,24.2399902,32.1600342,55.8000488,46.2999268l692.7299805,310.4200439c60.6499023,27.1800537,144.2399902,34.4000244,186.6999512,16.1400146l895.25-385.1099854c12.9099121-5.5599365,20.5400391-12.8299561,23.1799316-21.0300293v106.0899658c4.0200195,13.7900391-3.3200684,26.3901367-23.1799316,34.9400635Z" fill="#a66cff"/>
        <path d="M3258.0916657,2195.7345836l-934.4124421,451.4440109c-44.3172382,21.4053139-130.5202147,13.5705289-192.5355441-17.5154338l-708.3261861-355.0286049c-48.9478993-24.5323756-68.1964739-56.213199-52.3357774-79.0086439l-5.0487654-2.1571547,3.7437172-111.007382c4.9081215,17.7963481,24.2709029,37.0792995,56.5415694,53.251114l724.8904585,319.2005542c62.0153294,31.0859627,131.6540335,74.7487984,175.9712717,53.3434845l934.4124421-451.4440109c13.4748089-6.5175244,21.5351091-14.9817086,24.4612515-24.4913391l-2.5644984,122.8186441c3.8207274,15.9393222-4.0687054,30.572235-24.7974969,40.5947616Z"/>
        <path d="M1957.8152174,2572.0300293c-2.6401367,8.1999512-10.2700195,15.4699707-23.1799316,21.0300293l-402.8300781,173.2900391-79.1099854,34.0297852-119.8399658,51.5500488-158.2299805,68.0600586-135.2399902,58.1799316c-42.460083,18.2600098-126.0500488,11.0400391-186.7000732-16.1398926l-383.8099976-171.9899902-193.210022-86.5800781-115.7099609-51.8500977c-31.5599976-14.1398926-50.6900024-30.8999023-55.7999878-46.2998047-4.710022-14.1899414,2.5-27.2202148,22.8599854-35.9799805l895.249939-385.1101074c42.4599609-18.2700195,126.0500488-11.0400391,186.7000732,16.1398926l692.7298584,310.4101562c42.2102051,18.9099121,62.1801758,42.5100098,56.1201172,61.2600098Z" fill="#4cee99"/>
        <path d="M1827.835401,2563.2616303c-3.5230055,9.4662593-14.1323279,13.1521283-22.7820468,16.8730771-7.9720192,3.429415-15.9440384,6.85883-23.9160576,10.288245-28.7620111,12.3728845-57.5240222,24.745769-86.2860333,37.1186535-65.1930069,28.0448242-130.3860138,56.0896483-195.5790206,84.1344725-34.5594716,14.8668446-69.1192423,29.7329939-103.6790152,44.5991382-47.5078333,20.4358491-95.0156231,40.8717993-142.523865,61.3066987-50.4173489,21.6862045-100.834523,43.3728136-151.2507021,65.0617374-15.5951652,6.7090041-31.1903303,13.4180081-46.7854955,20.1270122-12.0570985,5.1869359-23.7639485,9.4961316-36.9707402,11.217035-43.9294277,5.7241986-91.1557251-3.7281737-131.2889005-21.7123443-52.5013122-23.526485-105.0026243-47.0529701-157.5039365-70.5794551-54.3174004-24.3402966-108.6348009-48.6805932-162.9522013-73.0208897-45.9657832-20.597834-91.9315185-41.1957751-137.8972763-61.7936657-43.7720152-19.6148443-87.6099153-39.088076-131.318018-58.8444503-12.0533788-5.4482132-24.1816764-11.795627-34.0154435-20.7814898-7.1035023-6.4910117-16.1951111-17.1013159-10.7691441-27.2641749,3.823004-7.1605025,11.9151689-10.4522473,19.0627424-13.5269225,10.844527-4.6649955,21.6890539-9.329991,32.5335809-13.9949865,49.115622-21.1280913,98.2312439-42.2561826,147.3468659-63.3842739,69.0564595-29.7060512,138.112919-59.4121024,207.1693785-89.1181536,68.2302965-29.3506603,136.460593-58.7013205,204.6908895-88.0519808,47.3696899-20.3770429,94.7393798-40.7540857,142.1090698-61.1311286,9.5339495-4.1012238,19.0339534-8.2953495,28.6066203-12.3057239,10.6563451-4.4643708,22.089439-6.7174121,33.5691904-7.7193305,29.6621739-2.588826,60.0367422,1.3352558,88.6499477,9.2410987,36.3304931,10.0381333,71.0758784,28.6956463,105.3319757,44.0457,62.5434457,28.025529,125.0868914,56.0510581,187.6303371,84.0765871,68.2427591,30.5793741,136.4855182,61.1587483,204.7282773,91.7381224,40.9175679,18.3350385,81.8351358,36.6700771,122.7527037,55.0051156,2.0060375.8988994,4.0173303,1.7870016,6.0184414,2.6968454,12.772446,5.8072391,25.6822503,12.654957,35.7318779,22.6265823,6.0272706,5.9804886,12.1457989,14.1448102,9.585998,23.0728491-2.132311,7.4370454,9.4433198,10.612185,11.5713484,3.1900753,8.8081487-30.7209424-33.0971939-51.3039755-55.0623937-61.1465152-14.1903318-6.3586448-28.3806637-12.7172896-42.5709955-19.0759344-58.6808818-26.2947258-117.3617636-52.5894516-176.0426454-78.8841775-70.7206578-31.6897131-141.4413156-63.3794261-212.1619734-95.0691392-47.8403255-21.4371053-95.6806509-42.8742105-143.5209764-64.3113158-17.3897918-7.7923131-34.6883502-15.2518489-53.2130115-20.1904546-40.2269702-10.7243606-89.1828479-16.6790757-128.5944714.1442527-29.2104414,12.4688303-58.3521313,25.1013651-87.527571,37.6517783-61.3563618,26.3936964-122.7127236,52.7873928-184.0690854,79.1810892-72.2479845,31.0789511-144.4959691,62.1579022-216.7439536,93.2368533-61.6865653,26.5357402-123.3731305,53.0714804-185.0596958,79.6072205-30.329719,13.0469502-60.7295759,25.9432207-90.9933785,39.1426665-10.7905885,4.7062753-21.723549,11.9057802-24.5541559,24.1112974-5.814097,25.0702637,24.9468438,44.2583359,43.2699144,53.5263802,27.871824,14.0979264,57.1348755,25.823889,85.6296071,38.5924926,50.264622,22.5237788,100.5289553,45.0482018,150.7933937,67.5723906,34.0285526,15.2486642,68.0571227,30.4972891,102.085694,45.7459113,67.8188098,30.3904445,135.6376196,60.780889,203.4564294,91.1713336,19.0265418,8.5260279,38.045638,17.0689035,57.0797066,25.57812,41.8688221,18.7175363,90.605445,28.5978044,136.4552375,22.9517448,29.9404205-3.6869392,58.0788364-19.3304928,85.472416-31.1151476,21.7713461-9.3659828,43.5422581-18.7329754,65.3141094-28.097784,48.2943353-20.7730247,96.5889785-41.5453336,144.8828995-62.3193214,52.5831638-22.6190373,105.1665353-45.237592,157.7494793-67.8571402,43.3915534-18.6656976,86.7827133-37.3323098,130.1740688-55.9984673,63.7695619-27.4324845,127.5391239-54.864969,191.3086858-82.2974535,16.6281146-7.1531069,39.597301-13.4572944,46.442666-31.8506804,2.6971079-7.2470857-8.897143-10.3756224-11.5713484-3.1900753Z" fill="#fe77ff"/>
        <path d="M1934.5652174,2784.5200195l-897.9000244,413.1499023c-42.5799561,19.5900879-126.4200439,11.8400879-187.25-17.3100586l-380.539978-182.3999023-193.210022-92.6201172-121.0299683-58.0097656c-48.0100098-23.0100098-67.3400269-52.4799805-52.4000244-73.5100098l-4.9500122-2.0300293,1.3900146-102.8601074c.9700317,3.1401367,2.4500122,6.3300781,4.4299927,9.5400391,8.4299927,13.7099609,25.8900146,27.8400879,51.5300293,40.130127l121.0299683,58.0097656v46.8500977l193.210022,86.5800781v-40.8200684l380.539978,182.4001465c60.8299561,29.1599121,144.6700439,36.8999023,187.25,17.3098145l897.9000244-413.1398926c12.9499512-5.9699707,20.6098633-13.7700195,23.25-22.5700684v113.8200684c4.0300293,14.7900391-3.3300781,28.3100586-23.25,37.4799805Z"/>
        <path d="M159.955232,2651.6098633l115.7099609,51.8500977v120l-115.7099609-51.8500977c-47.8699951-21.4499512-67.1400146-48.9199219-52.25-68.5297852l-4.9299927-1.8901367.3299561-22.7199707,1.0500488-73.1599121c5.1099854,15.3999023,24.2399902,32.1599121,55.7999878,46.2998047Z" fill="#fe77ff"/>
        <path d="M1957.8152174,2692.0100098c-2.6298828,8.1999512-10.25,15.4899902-23.1799316,21.0500488l-402.8300781,173.2900391-79.1099854,34.0297852-119.8399658,51.5500488-158.2299805,68.0600586-135.2399902,58.1799316c-42.460083,18.2600098-126.0500488,11.0400391-186.7000732-16.1398926l-383.8099976-171.9899902v-120l383.8099976,171.9899902c60.6500244,27.1799316,144.2399902,34.3999023,186.7000732,16.1398926l135.2399902-58.1799316,158.2299805-68.0600586,119.8399658-51.5500488,79.1099854-34.0297852,402.8300781-173.2900391c12.9099121-5.5600586,20.5397949-12.8300781,23.1799316-21.0300293v106.0900879c1.3999023,4.8198242,1.4199219,9.4897461,0,13.8898926Z" fill="#fe77ff"/>
        <path d="M3286.687362,2007.8397098c-2.6398926,8.2000732-10.2700195,15.4700928-23.1799316,21.0300293l-895.25,385.1099854c-42.4599609,18.2600098-126.0500488,11.0400391-186.6999512-16.1400146l-692.7299805-310.4200439c-31.5600586-14.1398926-50.6900635-30.8999023-55.8000488-46.2999268-4.7099609-14.1900635,2.5-27.2200928,22.8599854-35.9799805l895.25-385.1100464c42.460083-18.2699585,126.0499268-11.039978,186.7000732,16.1400146l692.7299805,310.4099731c42.2099609,18.9100342,62.1799316,42.5100098,56.119873,61.2600098Z" fill="#4cee99"/>
        <path d="M3263.5051588,2148.8701172l-895.25,385.1098633c-39.8798828,17.1499023-116.0300293,11.8200684-175.3898926-11.4099121-3.8500977-1.5-7.6201172-3.0800781-11.3100586-4.7302246l-138.9499512-62.2697754-147.6499023-66.1601562-58.9602051-26.4199219-84.5200195-37.869873-114.4099121-51.2700195-148.2399902-66.4301758c-47.8699951-21.4499512-67.1400146-48.9199219-52.25-68.5297852l-4.9299316-1.8901367,1.3798828-95.8800049c5.1101074,15.4000244,24.2399902,32.1600342,55.8000488,46.2999268l148.2399902,66.4301758,114.4099121,51.2700195,84.5200195,37.869873,58.9602051,26.4199219,147.6499023,66.1601562,138.9499512,62.2697754c3.6899414,1.6501465,7.4599609,3.2302246,11.3100586,4.7302246,59.3598633,23.2299805,135.5100098,28.5598145,175.3898926,11.4099121l895.25-385.1099854c12.9101562-5.5599365,20.5400391-12.8299561,23.1801758-21.0300293v106.0899658c4.0200195,13.7900391-3.3200684,26.3901367-23.1801758,34.9401855Z" fill="#fe77ff"/>
        <path d="M3784.4264924,2793.1443136c-2.6398926,8.2000732-10.2700195,15.4700928-23.1799316,21.0300293l-895.25,385.1099854c-42.4599609,18.2600098-126.0500488,11.0400391-186.6999512-16.1400146l-692.7299805-310.4200439c-31.5600586-14.1398926-50.6900635-30.8999023-55.8000488-46.2999268-4.7099609-14.1900635,2.5-27.2200928,22.8599854-35.9799805l895.25-385.1100464c42.460083-18.2699585,126.0499268-11.039978,186.7000732,16.1400146l692.7299805,310.4099731c42.2099609,18.9100342,62.1799316,42.5100098,56.119873,61.2600098Z" fill="#4cee99"/>
        <path d="M3761.2465608,2934.1743429l-895.25,385.1099854c-42.4599609,18.2600098-126.0500488,11.0400391-186.6999512-16.1400146l-692.7299805-310.4200439c-47.8701172-21.4499512-67.1401367-48.9199219-52.25-68.5299072l-4.9300537-1.8900146,1.3800049-95.8800049c5.1099854,15.4000244,24.2399902,32.1600342,55.8000488,46.2999268l692.7299805,310.4200439c60.6499023,27.1800537,144.2399902,34.4000244,186.6999512,16.1400146l895.25-385.1099854c12.9099121-5.5599365,20.5400391-12.8299561,23.1799316-21.0300293v106.0899658c4.0200195,13.7900391-3.3200684,26.3901367-23.1799316,34.9400635Z" fill="#fe77ff"/>
        <path d="M709.6663651-46.8842759c19.9075958,210.3076906,44.8710559,420.1367774,74.8615468,629.2449015,19.2505839,134.2243245,40.5706112,268.1420654,61.8896705,402.053424,52.0261868,326.7919654,104.0523734,653.5839309,156.0785599,980.3758964,21.2542376,133.5041962,42.5189545,267.0659674,69.9592538,399.4371992,19.3478746,93.3337196,56.2391944,201.8484781,148.2432076,226.7640319,60.6364538,16.4208722,126.8161323-12.8371736,168.7990324-59.5689227,41.9829001-46.7317491,63.6392948-108.1401858,78.5943628-169.1546612,74.1903779-302.6859892,6.1699465-619.6931989,2.8966294-931.321668-.9175937-87.3588057,3.2985459-174.6810185,7.513462-261.942904,12.0813297-250.1211558,24.1626598-500.2423116,36.2439898-750.3634674,0,0,560.7321809,337.6647941,772.0365287-268.0743363,0,0,75.1304348,46.9565217,201.9130435-18.7826087l23.4782609-216-1802.5075479-18.7826087v56.1157241Z" fill="url(#linear-gradient1)"/>
        <path d="M1045.7034623,2225.1147493s173.624941-126.9033839,208.0356681,120c0,0,36.368506,231.2098681-62.6677141,283.6942744-20.0388271,10.6196091-44.8166505-.0352829-51.5015227-21.7065351-20.7502829-67.2689928-68.2232321-229.2822785-93.8664313-381.9877392Z" fill="#761efe"/>
        <path d="M1103.4783033,208.4782562c183.4779795,90.9789417,362.2423638,192.4801,552.4306351,268.9359893,20.4544297,7.7802466,41.1823923,14.9832332,62.4619094,20.139786,7.0998871,1.7282256,14.2829925,3.0719451,21.5610687,4.0802153-9.1946135-.1427434-18.3924958-1.0360015-27.4688755-2.5382078-12.6639604-2.0085947-25.4185399-4.8875864-37.8133293-8.2208165-35.5895656-9.4354709-70.313981-22.117998-104.4496271-35.7151662-162.9337192-67.1782399-318.2946076-151.9671344-466.7217815-246.6818001h0Z"/>
        <path d="M1294.4347242,386.9130554c73.9758294,6.0819259,146.5895581,24.0230883,220.3113766,31.7266177-4.5624452,1.2564836-9.2093451,2.2020696-13.8948862,2.9506043-60.5242872,8.8968091-150.6019313-9.7950909-206.4164904-34.677222h0Z"/>
        <path d="M1958.8784498,0c91.5904692,47.3208449,183.5829263,95.7978868,280.0570177,132.2444875,23.9754224,8.9171988,48.4260631,16.9971047,73.2613475,23.1842465,26.0024559,6.2843798,52.7603413,10.8903095,79.5920323,8.9551979,7.6338825-.7250992,15.3799865-1.8846297,22.7297468-4.1146194-.0000077-.0000406,3.7421798-1.0984598,3.7421798-1.0984598-6.9340992,3.5735125-14.4279406,6.416461-22.0500524,8.1844099-120.0689977,27.7217469-340.8969981-95.6221174-437.3322718-167.3552626h0Z"/>
        <path d="M1045.7035231,2225.1147461c45.9104548-40.6763298,118.3452812-59.5973112,164.9931403-9.6459528,22.9714522,24.6111766,34.2783756,58.0990868,39.6538084,90.7154846,2.0989735,12.8723088,3.2084668,25.895285,3.3886723,38.9304699-12.1755268-41.7722198-23.8343064-86.5164143-54.4350626-118.6953252-41.8100555-44.0177512-105.9411435-25.6405278-153.6005583-1.3046764h0Z"/>
        <path d="M1495.9131178,1874.2513428c7.6655982,52.6674496,11.352364,105.9654622,12.0181626,159.1756583.0036717.7786076.0429047,2.6234029.0533521,3.2822684.0000186-.000041.0315127.5951739.0315127.5951739l.0612793,1.3446045.1931152,5.3530273c1.6482625,56.928848-.3464044,113.930746-5.7239992,170.6221961-7.0115917,70.9732238-18.8899989,142.1472576-43.3007739,209.42217-15.0951151,40.3965908-34.9278271,80.4444644-66.1117777,110.959051-.000168-.0001212.5366972-.6429434.5366972-.6429434-2.1440519,2.8473809-4.3422043,5.2294149-6.7266895,7.796499-29.5613722,31.0639314-71.106552,50.118602-113.7583037,53.0369537-6.4846113.4558539-12.9769209.6042914-19.4465254.3784613,6.4580078-.4423828,12.8830566-1.1262207,19.2438965-2.138916,37.7615345-5.8226669,73.6379426-23.6003809,100.3811723-50.8836683,4.2669357-4.377463,8.4460672-9.0884656,11.9601529-14.0696299-.0000166-.0000709.1561113-.2329811.1561113-.2329811l.3811035-.4101562c28.3357817-30.6823552,46.0689248-69.5302223,59.6692257-108.6776578,26.9782185-80.0005754,38.2629989-164.3594551,45.5605664-248.2123963,3.6135225-44.8337252,5.8857383-89.8459657,6.1250034-134.8159984,1.9953179-53.9417988,1.1833593-107.9643404-1.3032818-161.881716h0Z"/>
        <polygon points="1332.8552565 2851.9299316 1332.8552565 2971.9299316 1174.625276 3039.9899902 1174.625276 2919.9899902 1332.8552565 2851.9299316" fill="url(#linear-gradient2)"/>
        <polygon points="1531.8052076 2766.3500977 1531.8052076 2886.3500977 1452.6952223 2920.3798828 1452.6952223 2800.3798828 1531.8052076 2766.3500977" fill="url(#linear-gradient3)"/>
        <polygon points="1751.4751295 2205.1201172 1751.4751295 2325.1201172 1637.0652174 2273.8500977 1637.0652174 2153.8500977 1751.4751295 2205.1201172" fill="url(#linear-gradient4)"/>
        <polygon points="1894.9553541 2269.4099121 1894.9553541 2389.4099121 1835.995149 2362.9899902 1835.995149 2242.9899902 1894.9553541 2269.4099121" fill="url(#linear-gradient5)"/>
        <path d="M2192.8652662,2402.5700684v120c-3.8500977-1.5-7.6201172-3.0800781-11.3100586-4.7302246l-138.9499512-62.2697754v-120l138.9499512,62.2697754c3.6899414,1.6501465,7.4599609,3.2302246,11.3100586,4.7302246Z" fill="url(#linear-gradient6)"/>
        <polygon points="1958.875276 1532.5400391 1958.875276 1652.5400391 1798.4353346 1721.5600586 1798.4353346 1601.5600586 1958.875276 1532.5400391" fill="url(#linear-gradient7)"/>
        <polygon points="2152.1750807 1449.3900146 2152.1750807 1569.3900146 2071.9553541 1603.8999023 2071.9553541 1483.8999023 2152.1750807 1449.3900146" fill="url(#linear-gradient8)"/>
        <polygon points="733.0931802 2106.0243056 733.0931802 2226.0243056 572.6532388 2295.0443252 572.6532388 2175.0443252 733.0931802 2106.0243056" fill="url(#linear-gradient9)"/>
        <polygon points="926.3929848 2022.8742812 926.3929848 2142.8742812 846.1732583 2177.3841689 846.1732583 2057.3841689 926.3929848 2022.8742812" fill="url(#linear-gradient10)"/>
        <polygon points="188.6404605 1837.5364615 286.2691277 1888.4691414 335.631937 1868.8796491 537.4709795 1859.084903 276.3965659 1741.5479494 251.1666856 1806.1932739 188.6404605 1837.5364615" fill="#fe77ff"/>
        <path d="M356.7454119,1746.163727c.9158492-.2050673,1.8432426-.3649663,2.7682588-.5216283,1.0896492-.1845444,2.1823999-.3507269,3.2769695-.5032844,1.5062245-.2099326-1.7313287.224976-.5665017.0751489.3674567-.0472645.7348369-.0949845,1.1025435-.1402939.8063136-.0993554,1.6134809-.1917729,2.421324-.2778014,9.2145891-.9812768,18.5167631-1.1751424,27.7697492-.7228072,2.9746254.1454155,5.9458414.3602233,8.9104928.6437146,1.5674534.1498859,3.133052.3191724,4.6963362.5076278.7802933.0940651,1.5597506.2185584,2.3415845.2968827.0540582.0054156-1.7432155-.238438-.8485549-.1134946.2081895.0290746.4164709.0574819.6246386.0867175.4609124.0647318.9215934.1311051,1.3820204.1992045,6.9527573,1.0283465,13.8490161,2.4408477,20.6435676,4.2392416,7.6201952,2.0169268,15.1117831,4.5200698,22.4093002,7.500736.3878664.1584238.7751847.3181917,1.1619433.479301.3817639.1590287,1.4695044.6546813-.2693741-.1152451.1929508.0854332.388774.16554.5826575.2486971.9770366.4190533,1.9503861.846714,2.9198847,1.2829233,1.9723888.8874426,3.9288593,1.8102825,5.8681261,2.7679445,3.9110031,1.9313583,7.7519593,4.0044774,11.5133214,6.2131382,3.93511,2.310685,7.7830158,4.7696993,11.5346293,7.3676859,1.9926985,1.3799407,3.958265,2.7990624,5.8955839,4.2557246.4424886.3327054.8834456.6674402,1.3229768,1.0040422.3554264.2721928.876116.8984317-.1864095-.1454682.1679706.1650262.4054408.3156813.5869232.4577774.9841611.7705731,1.960545,1.5511001,2.9292375,2.3410289,8.1186861,6.6204545,15.6855069,13.9085537,22.6715926,21.7128317,1.7982026,2.0088034,3.5559029,4.0531078,5.2798803,6.1258986,2.0150689,2.4227791,6.4303424,2.2385405,8.4852814,0,2.3646181-2.5758883,2.1494859-5.9008885,0-8.4852814-13.3637271-16.0676188-29.0610284-30.2088696-46.6930541-41.4619534-14.6260878-9.3346388-30.639063-16.5967958-47.2641181-21.5569035-13.6560106-4.0742892-27.8029468-6.5526074-42.0128053-7.5807884-9.8797399-.7148671-19.8288551-.6888903-29.6968536.1996385-4.836134.4354525-9.8433967.8591924-14.5769977,2.0101062-.0576712.014022-.1162929.0246169-.1742298.0375896-3.0661934.6865497-5.154928,4.4009512-4.1906365,7.3807119,1.040946,3.2166311,4.0955477,4.9262159,7.3807119,4.1906365h0Z" fill="#fe77ff"/>
        <path d="M373.8670944,1700.3487897c1.2765103-.2990275,2.5719349-.5280572,3.8631663-.7518451,1.5557901-.2696396,3.1167272-.5094728,4.6806301-.726969.2187294-.0304193.4379696-.0579276.6564683-.0899164.0481824-.007054-2.0293237.2683407-1.161164.156387.1476784-.0190439.2952619-.0388421.4429302-.0579693.4961145-.0642608.9925165-.1262986,1.48917-.1862502,1.1232173-.1355849,2.2477318-.260385,3.3732633-.37517,5.6377757-.5749566,11.3006077-.9027728,16.9661376-1.017759,7.3429089-.14903,14.693053.0629787,22.0162209.6190709,4.1763181.3171329,8.3440925.7470238,12.4972681,1.2886025.2538514.0331025.5079542.0769704.7627591.1007182.1006682.0093823-1.7942488-.2463713-.9389046-.125615.1095712.0154691.2192735.0300694.3288913.0452075.5879126.0811902,1.1755135.1646253,1.7627888.2503041,1.0785556.1573526,2.1560166.3222209,3.2322528.4947281,2.2833311.3659894,4.5612239.7659065,6.8326193,1.1998618,9.7242448,1.8578389,19.3293763,4.3395385,28.7332186,7.4352294,5.1464482,1.6941812,10.2324477,3.5719823,15.2448355,5.6292134.6019755.2470684,1.200962.5013506,1.8026997.7489424-.0006783-.0002791-1.5038902-.6390959-.6593631-.2777342.1290011.0551978.2582181.1098941.3872587.1650002.3448964.1472863.6894324.2954133,1.0335903.4444171,1.3011252.5633247,2.5970371,1.1386776,3.8874017,1.7262345,2.6308036,1.1979149,5.2387663,2.4458541,7.8222016,3.7427679,10.9325297,5.4882539,21.418319,11.8585066,31.3524811,18.9954078,1.3281387.9541615,2.6465081,1.9218814,3.9549745,2.9028459.616791.4624116,1.2313473.9278005,1.843657,1.3961297.1756681.134361.3503366.2700608.5264814.4037911.5148134.3908497-.6141438-.4766774-.5564066-.4304375.3903262.3125999.7902226.6141154,1.18369.9227788,2.6219184,2.0568161,5.2017712,4.1672164,7.7384408,6.3282848,5.3879553,4.5901681,10.5807168,9.4086774,15.5731878,14.4259136,5.2603828,5.286477,10.2982869,10.7934102,15.114981,16.4868105,2.5036124,2.9593052,4.9474223,5.9690882,7.3326316,9.0246097.1645135.2107465.3284557.4219346.4926665.632917.0985523.1266226.5306567.6833956.0229061.0288002-.5712342-.7364388.3744652.4900445.5133273.6718892.6570099.8603775,1.3094503,1.724249,1.9573458,2.5915105,1.2305653,1.6472129,2.4448184,3.3066319,3.6426816,4.9777764,2.3746808,3.3129279,4.6834809,6.672332,6.9345903,10.0703706,1.7308598,2.6127244,5.3798874,3.9765651,8.209139,2.1525092,2.6059839-1.6801122,4.0064698-5.4105946,2.1525092-8.209139-9.0683074-13.6885657-19.1176497-26.7748062-30.2174472-38.8813797-9.6121096-10.483949-20.0397186-20.2269483-31.2446581-28.992164-10.3047936-8.0610644-21.1382945-15.3935331-32.5989903-21.7154277-10.410404-5.7425376-21.2804147-10.6725518-32.4298217-14.798552-9.6375958-3.5665324-19.516547-6.4774622-29.5455686-8.7176922-9.3241341-2.082776-18.7828386-3.5752092-28.2848663-4.5607729-7.7150593-.8002168-15.4705596-1.2174266-23.2270955-1.2389724-6.1829426-.0171747-12.368139.2151497-18.5301099.7279235-4.7267482.3933405-9.443396.9556686-14.1297493,1.6876604-1.9269248.3009788-3.8854654.5867559-5.7819324,1.0525775-.0814009.0199942-.1638315.0361035-.245461.0552255-3.0583736.7164358-5.1617479,4.379877-4.1906365,7.3807119,1.0328809,3.1917089,4.1037916,4.9582677,7.3807119,4.1906365h0Z" fill="#fe77ff"/>
        <path d="M407.8518044,1650.5709154c1.6549214-.0962595,3.3160383-.1199252,4.9731765-.1391752,4.6138311-.053596,9.229607.0455069,13.8391677.2433031,7.116422.3053656,14.2221929.8572521,21.3039402,1.6201866,2.0796443.2240453,4.1572949.4666022,6.2326527.7273786.5116674.0642929,1.0231988.1296659,1.5345846.1961614.2754413.0358157.550789.0723297.8261959.1084058,1.3138935.1721096-1.531088-.2092854-.4503076-.060887,1.0934444.1501373,2.1866343.3017457,3.2789193.460149,4.7868299.6941866,9.5597561,1.4843263,14.3149889,2.3694139,10.6014072,1.9732314,21.1158881,4.41762,31.4958558,7.3405397,11.6468879,3.2796747,23.1252864,7.1632459,34.3546603,11.671012,1.4896912.5980012,2.9749788,1.206981,4.4556497,1.8269807,1.3774765.5767892-.8228359-.3515488-.0369287-.0163086.3727652.1590084.7458492.3172575,1.1183262.476943.7478179.3205988,1.4944214.6440335,2.2397799.9703094,3.0190017,1.3215486,6.0176161,2.6897085,8.9939575,4.1047264,6.076951,2.8891155,12.0610997,5.9737364,17.9359639,9.2544437,12.4029266,6.9261809,24.2797432,14.7438116,35.5694576,23.3645233,1.1450299.8743333-.9761856-.7624037.1620747.1244757.3208169.2499656.6418248.4996762.9619223.7505638.7800254.6113722,1.556836,1.2268435,2.3304505,1.8463073,1.4663489,1.1741637,2.9210376,2.3628617,4.3638974,3.5657723,2.8797369,2.4008335,5.7118191,4.8588572,8.4939827,7.3721129,5.8171365,5.2548855,11.4150389,10.7519897,16.7764454,16.4710666,5.5422783,5.912015,10.8301997,12.0622111,15.8511687,18.4228146.2831557.3587039.5655346.7180211.846973,1.0780743.1611413.2061531.3214901.4129233.4826202.619084.636408.8142631-.1268417-.1797984-.2161056-.2815951.6887021.7853979,1.2856526,1.6771796,1.914534,2.5114545,1.2784419,1.6959825,2.538508,3.4058421,3.7797743,5.1292198,2.5278182,3.5096299,4.9788124,7.0745224,7.351894,10.6905703,2.3565339,3.5908327,4.6336066,7.2329666,6.8393199,10.9182914,1.61171,2.6928589,5.4659357,3.9210886,8.209139,2.1525092,2.7082304-1.7460319,3.877326-5.3273003,2.1525092-8.209139-8.9770089-14.9988637-19.2244246-29.2486844-30.6278726-42.4994189-10.2337873-11.8915961-21.4485774-22.9341796-33.5049824-32.9736183-11.5011505-9.5770751-23.7025694-18.3205886-36.5038297-26.0756767-11.6013766-7.0281906-23.6816989-13.2592613-36.1066644-18.6982101-11.8389149-5.1824089-23.9410374-9.7348201-36.285679-13.5621799-10.7314506-3.3272025-21.6248481-6.1303197-32.6238947-8.4214778-9.9198145-2.0663485-19.9217086-3.6872317-29.9734205-4.9589286-7.6588126-.9689582-15.3497068-1.6936308-23.0566733-2.1434216-5.3140319-.3101354-10.6372918-.4935632-15.960692-.4994353-2.4406567-.0026922-4.8938451-.0046633-7.3316441.137026-.1017194.0059121-.2035629.0097362-.3052876.0156531-3.1276359.1819209-6.1509689,2.6294154-6,6,.1386112,3.094683,2.6442283,6.1951905,6,6h0Z" fill="#fe77ff"/>
        <polygon points="468.8752149 2790.0400391 468.8752149 2910.0400391 275.665193 2823.4599609 275.665193 2703.4599609 468.8752149 2790.0400391" fill="url(#linear-gradient11)"/>
        <g>
          <path d="M622.7243971,1968.8779297l-69.6523438-39.8408203,13.9262695-7.0849609,69.6523438,39.8408203-13.9262695,7.0849609ZM570.875276,1932.4121094l-11.5029297-6.5800781,46.7524414-23.7841797,11.5029297,6.5800781-46.7524414,23.7841797ZM601.6907057,1950.0380859l-11.0800781-6.3378906,42.331543-21.5351562,11.0800781,6.3378906-42.331543,21.5351562Z" fill="#fe77ff"/>
          <path d="M693.68094,1932.78125l-49.6015625-28.3720703-10.7211914,5.4541016-11.7138672-6.7001953c3.4624023-1.7617188,5.7548828-3.5351562,6.8769531-5.3232422,1.1230469-1.7861328.3623047-3.7949219-2.2822266-6.0244141l11.8266602-6.0166016,69.6523438,39.8417969-14.0371094,7.140625Z" fill="#fe77ff"/>
          <path d="M754.1794752,1903.6015625c-4.5698242,2.3242188-9.5595703,3.9677734-14.9702148,4.9345703s-10.9921875,1.2587891-16.7416992.8759766c-5.7509766-.3818359-11.5771484-1.4853516-17.4814453-3.3105469-5.9042969-1.8242188-11.6699219-4.3457031-17.2998047-7.5664062-7.8789062-4.5058594-13.1835938-8.9921875-15.9121094-13.4609375-2.7275391-4.4667969-3.1767578-8.6855469-1.3500977-12.6582031,1.8295898-3.9697266,5.7260742-7.4746094,11.6943359-10.5107422,6.1894531-3.1484375,12.9941406-5.0498047,20.409668-5.7060547,7.4179688-.6542969,15.0654297-.0605469,22.9521484,1.78125,7.8867188,1.8447266,15.6289062,4.9384766,23.2275391,9.2841797,5.6982422,3.2597656,10.0644531,6.5332031,13.09375,9.8193359,3.0327148,3.2871094,4.7490234,6.5195312,5.1533203,9.6962891.4038086,3.1787109-.4628906,6.1855469-2.6025391,9.0234375-2.140625,2.8369141-5.5307617,5.4365234-10.1728516,7.7978516ZM743.7458815,1897.2753906c2.1367188-1.0869141,3.7255859-2.4082031,4.765625-3.9638672,1.0395508-1.5556641,1.3305664-3.2998047.8730469-5.2333984-.4584961-1.9355469-1.84375-4.0410156-4.1621094-6.3232422-2.3173828-2.2802734-5.7265625-4.7089844-10.2304688-7.2851562-5.4169922-3.0976562-10.7617188-5.3974609-16.0302734-6.8994141-5.2695312-1.5-10.1582031-2.2070312-14.6674805-2.1191406-4.5092773.0898438-8.4208984.9765625-11.7368164,2.6640625-2.7265625,1.3867188-4.5332031,3.1992188-5.4233398,5.4384766-.8886719,2.2392578-.2973633,4.8466797,1.7729492,7.8222656,2.0732422,2.9775391,6.2392578,6.2568359,12.5,9.8378906,4.4326172,2.5351562,8.6923828,4.4931641,12.7763672,5.875,4.0869141,1.3818359,7.921875,2.2822266,11.5073242,2.7001953,3.5854492.4189453,6.902832.4052734,9.9487305-.0439453,3.0463867-.4462891,5.7475586-1.2695312,8.1064453-2.4697266Z" fill="#fe77ff"/>
        </g>
        <path d="M3147.9381878,2007.5590383c-3.5230055,9.4662593-14.1323279,13.1521283-22.7820468,16.8730771-7.9720192,3.429415-15.9440384,6.85883-23.9160576,10.288245-28.7620111,12.3728845-57.5240222,24.745769-86.2860333,37.1186535-65.1930069,28.0448242-130.3860138,56.0896483-195.5790206,84.1344725-34.5594716,14.8668446-69.1192423,29.7329939-103.6790152,44.5991382-47.5078333,20.4358491-95.0156231,40.8717993-142.523865,61.3066987-50.4173489,21.6862045-100.834523,43.3728136-151.2507021,65.0617374-15.5951652,6.7090041-31.1903303,13.4180081-46.7854955,20.1270122-12.0570985,5.1869359-23.7639485,9.4961316-36.9707402,11.217035-43.9294277,5.7241986-91.1557251-3.7281737-131.2889005-21.7123443-52.5013122-23.526485-105.0026243-47.0529701-157.5039365-70.5794551-54.3174004-24.3402966-108.6348009-48.6805932-162.9522013-73.0208897-45.9657832-20.597834-91.9315185-41.1957751-137.8972763-61.7936657-43.7720152-19.6148443-87.6099153-39.088076-131.318018-58.8444503-12.0533788-5.4482132-24.1816764-11.795627-34.0154435-20.7814898-7.1035023-6.4910117-16.1951111-17.1013159-10.7691441-27.2641749,3.823004-7.1605025,11.9151689-10.4522473,19.0627424-13.5269225,10.844527-4.6649955,21.6890539-9.329991,32.5335809-13.9949865,49.115622-21.1280913,98.2312439-42.2561826,147.3468659-63.3842739,69.0564595-29.7060512,138.112919-59.4121024,207.1693785-89.1181536,68.2302965-29.3506603,136.460593-58.7013205,204.6908895-88.0519808,47.3696899-20.3770429,94.7393798-40.7540857,142.1090698-61.1311286,9.5339495-4.1012238,19.0339534-8.2953495,28.6066203-12.3057239,10.6563451-4.4643708,22.089439-6.7174121,33.5691904-7.7193305,29.6621739-2.588826,60.0367422,1.3352558,88.6499477,9.2410987,36.3304931,10.0381333,71.0758784,28.6956463,105.3319757,44.0457l187.6303371,84.0765871c68.2427591,30.5793741,136.4855182,61.1587483,204.7282773,91.7381224,40.9175679,18.3350385,81.8351358,36.6700771,122.7527037,55.0051156,2.0060375.8988994,4.0173303,1.7870016,6.0184414,2.6968454,12.772446,5.8072391,25.6822503,12.654957,35.7318779,22.6265823,6.0272706,5.9804886,12.1457989,14.1448102,9.585998,23.0728491-2.132311,7.4370454,9.4433198,10.612185,11.5713484,3.1900753,8.8081487-30.7209424-33.0971939-51.3039755-55.0623937-61.1465152-14.1903318-6.3586448-28.3806637-12.7172896-42.5709955-19.0759344-58.6808818-26.2947258-117.3617636-52.5894516-176.0426454-78.8841775-70.7206578-31.6897131-141.4413156-63.3794261-212.1619734-95.0691392-47.8403255-21.4371053-95.6806509-42.8742105-143.5209764-64.3113158-17.3897918-7.7923131-34.6883502-15.2518489-53.2130115-20.1904546-40.2269702-10.7243606-89.1828479-16.6790757-128.5944714.1442527-29.2104414,12.4688303-58.3521313,25.1013651-87.527571,37.6517783-61.3563618,26.3936964-122.7127236,52.7873928-184.0690854,79.1810892-72.2479845,31.0789511-144.4959691,62.1579022-216.7439536,93.2368533-61.6865653,26.5357402-123.3731305,53.0714804-185.0596958,79.6072205-30.329719,13.0469502-60.7295759,25.9432207-90.9933785,39.1426665-10.7905885,4.7062753-21.723549,11.9057802-24.5541559,24.1112974-5.814097,25.0702637,24.9468438,44.2583359,43.2699144,53.5263802,27.871824,14.0979264,57.1348755,25.823889,85.6296071,38.5924926,50.264622,22.5237788,100.5289553,45.0482018,150.7933937,67.5723906,34.0285526,15.2486642,68.0571227,30.4972891,102.085694,45.7459113,67.8188098,30.3904445,135.6376196,60.780889,203.4564294,91.1713336,19.0265418,8.5260279,38.045638,17.0689035,57.0797066,25.57812,41.8688221,18.7175363,90.605445,28.5978044,136.4552375,22.9517448,29.9404205-3.6869392,58.0788364-19.3304928,85.472416-31.1151476,21.7713461-9.3659828,43.5422581-18.7329754,65.3141094-28.097784,48.2943353-20.7730247,96.5889785-41.5453336,144.8828995-62.3193214,52.5831638-22.6190373,105.1665353-45.237592,157.7494793-67.8571402,43.3915534-18.6656976,86.7827133-37.3323098,130.1740688-55.9984673,63.7695619-27.4324845,127.5391239-54.864969,191.3086858-82.2974535,16.6281146-7.1531069,39.597301-13.4572944,46.442666-31.8506804,2.6971079-7.2470857-8.897143-10.3756224-11.5713484-3.1900753Z" fill="#fe77ff"/>
        <path d="M3645.6779821,2783.7008134c-3.5230055,9.4662593-14.1323279,13.1521283-22.7820468,16.8730771-7.9720192,3.429415-15.9440384,6.85883-23.9160576,10.288245-28.7620111,12.3728845-57.5240222,24.745769-86.2860333,37.1186535-65.1930069,28.0448242-130.3860138,56.0896483-195.5790206,84.1344725-34.5594716,14.8668446-69.1192423,29.7329939-103.6790152,44.5991382-47.5078333,20.4358491-95.0156231,40.8717993-142.523865,61.3066987-50.4173489,21.6862045-100.834523,43.3728136-151.2507021,65.0617374-15.5951652,6.7090041-31.1903303,13.4180081-46.7854955,20.1270122-12.0570985,5.1869359-23.7639485,9.4961316-36.9707402,11.217035-43.9294277,5.7241986-91.1557251-3.7281737-131.2889005-21.7123443-52.5013122-23.526485-105.0026243-47.0529701-157.5039365-70.5794551-54.3174004-24.3402966-108.6348009-48.6805932-162.9522013-73.0208897-45.9657832-20.597834-91.9315185-41.1957751-137.8972763-61.7936657-43.7720152-19.6148443-87.6099153-39.088076-131.318018-58.8444503-12.0533788-5.4482132-24.1816764-11.795627-34.0154435-20.7814898-7.1035023-6.4910117-16.1951111-17.1013159-10.7691441-27.2641749,3.823004-7.1605025,11.9151689-10.4522473,19.0627424-13.5269225,10.844527-4.6649955,21.6890539-9.329991,32.5335809-13.9949865,49.115622-21.1280913,98.2312439-42.2561826,147.3468659-63.3842739,69.0564595-29.7060512,138.112919-59.4121024,207.1693785-89.1181536,68.2302965-29.3506603,136.460593-58.7013205,204.6908895-88.0519808,47.3696899-20.3770429,94.7393798-40.7540857,142.1090698-61.1311286,9.5339495-4.1012238,19.0339534-8.2953495,28.6066203-12.3057239,10.6563451-4.4643708,22.089439-6.7174121,33.5691904-7.7193305,29.6621739-2.588826,60.0367422,1.3352558,88.6499477,9.2410987,36.3304931,10.0381333,71.0758784,28.6956463,105.3319757,44.0457,62.5434457,28.025529,125.0868914,56.0510581,187.6303371,84.0765871,68.2427591,30.5793741,136.4855182,61.1587483,204.7282773,91.7381224,40.9175679,18.3350385,81.8351358,36.6700771,122.7527037,55.0051156,2.0060375.8988994,4.0173303,1.7870016,6.0184414,2.6968454,12.772446,5.8072391,25.6822503,12.654957,35.7318779,22.6265823,6.0272706,5.9804886,12.1457989,14.1448102,9.585998,23.0728491-2.132311,7.4370454,9.4433198,10.612185,11.5713484,3.1900753,8.8081487-30.7209424-33.0971939-51.3039755-55.0623937-61.1465152-14.1903318-6.3586448-28.3806637-12.7172896-42.5709955-19.0759344-58.6808818-26.2947258-117.3617636-52.5894516-176.0426454-78.8841775-70.7206578-31.6897131-141.4413156-63.3794261-212.1619734-95.0691392-47.8403255-21.4371053-95.6806509-42.8742105-143.5209764-64.3113158-17.3897918-7.7923131-34.6883502-15.2518489-53.2130115-20.1904546-40.2269702-10.7243606-89.1828479-16.6790757-128.5944714.1442527-29.2104414,12.4688303-58.3521313,25.1013651-87.527571,37.6517783-61.3563618,26.3936964-122.7127236,52.7873928-184.0690854,79.1810892-72.2479845,31.0789511-144.4959691,62.1579022-216.7439536,93.2368533-61.6865653,26.5357402-123.3731305,53.0714804-185.0596958,79.6072205-30.329719,13.0469502-60.7295759,25.9432207-90.9933785,39.1426665-10.7905885,4.7062753-21.723549,11.9057802-24.5541559,24.1112974-5.814097,25.0702637,24.9468438,44.2583359,43.2699144,53.5263802,27.871824,14.0979264,57.1348755,25.823889,85.6296071,38.5924926,50.264622,22.5237788,100.5289553,45.0482018,150.7933937,67.5723906,34.0285526,15.2486642,68.0571227,30.4972891,102.085694,45.7459113,67.8188098,30.3904445,135.6376196,60.780889,203.4564294,91.1713336,19.0265418,8.5260279,38.045638,17.0689035,57.0797066,25.57812,41.8688221,18.7175363,90.605445,28.5978044,136.4552375,22.9517448,29.9404205-3.6869392,58.0788364-19.3304928,85.472416-31.1151476,21.7713461-9.3659828,43.5422581-18.7329754,65.3141094-28.097784,48.2943353-20.7730247,96.5889785-41.5453336,144.8828995-62.3193214,52.5831638-22.6190373,105.1665353-45.237592,157.7494793-67.8571402,43.3915534-18.6656976,86.7827133-37.3323098,130.1740688-55.9984673,63.7695619-27.4324845,127.5391239-54.864969,191.3086858-82.2974535,16.6281146-7.1531069,39.597301-13.4572944,46.442666-31.8506804,2.6971079-7.2470857-8.897143-10.3756224-11.5713484-3.1900753Z" fill="#fe77ff"/>
      </g>
    </g>
  </g>
</svg>