<?xml version="1.0" encoding="utf-8"?>
<!-- Generator: Adobe Illustrator 28.1.0, SVG Export Plug-In . SVG Version: 6.00 Build 0)  -->
<svg version="1.1" id="Layer_1" xmlns="http://www.w3.org/2000/svg" xmlns:xlink="http://www.w3.org/1999/xlink" x="0px" y="0px"
	 viewBox="0 0 841.9 595.3" style="enable-background:new 0 0 841.9 595.3;" xml:space="preserve">
<path d="M395,351.3c-0.9-6.4-1.1-12.8-1.5-19.1c-0.3-3.8,0.4-3.3-3.7-3.7c-7.2-0.6-14.2-1.7-21-4.1c-3.2-1.1-6.3-2.6-9.2-4.5
	c-4-2.8-7-6.4-9-10.8c-0.4-0.8-0.5-1.8-1.2-2.5c-0.6,0.5-0.6,1.1-0.7,1.8c-7.4,34.6-14.7,69.2-22.1,103.8
	c-7.2,34-14.5,68.1-21.7,102.1c-4.9,23.1-9.8,46.2-14.7,69.3c-0.5,2.2-0.5,2.2-2.9,1.6c1.2-5.7,2.4-11.4,3.6-17.1
	c6.2-29.4,12.5-58.8,18.8-88.1c6.9-32.6,13.9-65.3,20.8-97.9c5.7-26.9,11.5-53.9,17.2-80.8c0.2-0.8,0.4-1.6,0.2-2.5
	c-1-7.9-0.3-15.8,0.6-23.7c1.7-14.7,3.6-29.3,4.2-44.1c0-1.2,0.2-2.3,0.1-3.5c-0.3-3.5,0.5-6.9,0.1-10.4c-0.4-3.6,1.1-6.8,2-10.2
	c-15.9-3.9-29.9-10.5-39.2-24.7c-6.1-9.4-11.6-19.1-16.8-29c-7.8-15.1-15.7-30.2-22.4-45.9c-5.7-13.4-9.9-27.3-14.4-41.1
	c-1.6-5-3.4-10-5.3-14.8c-0.4-1-0.9-1.9-2-2.4c-1.6-0.7-2.3-2.3-3.2-3.9c-2.1,1.6-4,2.9-6.2,4c-0.8,0.4-0.8,0.9-0.5,1.6
	c3.1,6.7,2.4,13.5,0.6,20.3c-2.4,8.9-8.5,14.5-16.7,18.1c-2.6,1.1-4.1,0.5-4.7-2.2c-2.3-8.8-2.7-17.6,0.5-26.4
	c1.7-4.5,4.4-8.2,8.1-11.2c1.3-1,2.6-1.9,4.4-2.4c-0.7-0.4-1,0-1.4,0c-1.8,0.1-2.5-0.1-3.1-1.8c-0.4-1-0.7-1.4-1.9-1.3
	c-2.7,0.3-3.8-1-3.4-3.7c0.2-1.6,0.9-3,1.7-4.4c3.7-6.2,8.6-11.3,14.5-15.3c2.3-1.5,5.1-2.4,7.8-3c2.2-0.5,4.7-0.3,6.9,0
	c3.4,0.6,5.5,3,6.6,6.2c0.5,1.5,1.1,3,1.8,4.4c16.3,35.8,33.6,71.2,50.6,106.7c3.8,8,7.9,15.8,12.6,23.4c2.8,4.6,5.9,9.1,9.7,13.1
	c2.7,2.8,5.6,5.2,9,7.1c3.3,1.8,6.7,2.9,10.5,2.7c4.9-0.3,9.6-0.9,13.8-3.7c2.9-1.8,4.8-4.3,6-7.5c1-2.9,1.5-5.8,1.6-8.8
	c0-0.7,0.1-1.3-0.8-1.6c-0.9-0.3-1.4,0-1.9,0.7c-8,11.5-27.7,12.3-38.4,0.8c-9.1-9.8-6.5-23.8,5.5-29.7c3.4-1.7,7.1-2.4,10.9-2.6
	c0.7,0,1.5,0.2,2.4-0.2c0.2-1-0.2-2-0.3-3.1c-0.7-6.7-0.5-13.5-0.1-20.2c0.4-5.7,2.5-10.3,6-14.5c3.4-4.1,7.9-6.6,13-7.9
	c11.9-3,26.4,2.2,33.6,12.1c3.2,4.4,4.7,9.4,5.4,14.6c0.5,3.6,0.7,7.1,0.6,10.7c-0.1,1.8,0,1.8,1.9,2c4.9,0.4,9.7,1.7,14.1,3.9
	c5.1,2.6,9.5,6.1,12.6,11.1c2.2,3.6,3.5,7.4,3.2,11.6c-0.4,5.1-2.8,9.2-6.9,12.2c-5.7,4.2-12.3,5.3-19.2,4.7
	c-7.7-0.7-14.5-3.4-20.5-8.3c-0.3-0.3-0.6-0.6-1.1-0.6c1.1,11.3,10.1,19.1,22.1,17.5c3.7-0.5,7.3-1.9,11-2.1
	c5.8-0.4,11.6-1,17.4,0.2c4.6,1,8.9,2.7,13.1,4.8c8.4,4.2,16.3,9,24.4,13.8c16,9.4,32.2,18.6,47.9,28.5c7.5,4.7,14.7,9.8,21.3,15.7
	c2.6,2.3,5.1,4.8,7.2,7.6c1.2,1.5,2.2,3.1,3.1,4.9c2.3,4.7,2.2,9.3-0.3,13.9c-1.8,3.2-4.2,6-6.8,8.6c-5.6,5.6-11.6,10.5-17.6,15.6
	c-9.6,8.2-19.2,16.6-27.9,25.8c-2.3,2.5-4.5,5.1-6.8,7.7c-0.5,0.6-1.2,1.2-1.2,2.1c0,0.6-0.4,0.8-0.9,1.1c-2.3,1.3-3.4,3.2-3.3,5.9
	c0.2,3.2,0.1,6.3,0.3,9.5c0.3,5.9-0.5,11.5-3.1,16.8c-2.1,4.3-4.1,8.6-6.5,12.7c-0.5,0.8-0.5,1.5-0.4,2.4
	c2.1,15.8,4.9,31.5,7.7,47.2c3.5,19.8,6.9,39.6,10.3,59.4c3.7,21.5,7.6,43,11.7,64.5c2.6,13.6,5.2,27.2,7.8,40.8
	c0.2,1.1,0.4,2.3,0.6,3.4c-2.4,0.5-2.5,0.5-2.8-1.5c-4.4-24-9.3-48-13.6-72.1c-4.8-27.2-9.5-54.4-14.3-81.6
	c-3.1-17.8-6.3-35.7-9.4-53.5c0-0.2-0.1-0.3-0.1-0.5c0.3-6.3-2-12.1-3.2-18.2c-1.5-7.4-2.6-15-4-22.4c-2-11-7.8-19.9-16.3-27.1
	c-0.4-0.3-0.8-0.6-1.2-0.8c-0.2,0.1-0.4,0.1-0.5,0.2c-4.1,5.4-9.5,9-15.5,11.9c-9.3,4.4-19.1,7-29.2,8.3c-4.9,0.6-9.8,1.1-14.7,1.1
	c-1.9,0-2,0.1-1.9,2c0.2,4.5,0.5,9,0.8,13.5c0.1,2.6,1.3,4.8,2.1,7.2c0.3,0.8,0.9,0.9,1.6,1c1.5,0.1,3,0.2,4.5,0.4
	c0.7,0.1,1.4,0.3,1.4,1.1c0,1-0.7,1.3-1.5,1.3c-1.5,0-3,0-4.4,0c-0.2,0.5-0.1,0.9,0.1,1.3c5.4,18.1,9.4,36.5,13.3,55
	c6.5,30.3,12.5,60.6,18.3,91c2,10.6,3.8,21.2,6.1,31.7c1.2,5.2,2.1,10.5,3.3,15.8c1.3,5.3,2.3,10.6,3.3,15.9
	c1.1,5.3,2.1,10.6,3.1,16c0.1,0.5,0.3,1,0.3,1.5c0,0.7,0.8,1.7-0.6,2c-1.2,0.3-1.6-0.1-1.9-1.6c-0.5-2.5-0.9-4.9-1.4-7.4
	c-2-10.3-3.8-20.7-6.2-30.9c-5.3-22.5-8.8-45.3-13.4-68c-7.5-37.1-14.7-74.3-24-111c-0.8-3.3-1.8-6.6-2.7-9.9
	c-0.3-1.2-0.8-1.8-2.2-1.9c-2.9-0.2-5.8-0.5-8.7-0.8c-2.1-0.2-2.2-0.1-2.4,2.1c-0.7,7.1-1.3,14.3-2.1,21.4
	c-1,10.1-2.2,20.2-3.3,30.4c-1.1,10.2-2.2,20.4-3.2,30.6c-1.3,12.2-2.5,24.4-3.8,36.6c-0.9,9.3-1.9,18.6-2.7,27.9
	c-1.1,12.6-2.3,25.3-3.3,37.9c-0.8,9.7-1.5,19.5-2.2,29.2c-0.3,4.6-0.6,9.2-1,13.7c0,0.5,0.1,1.2-0.6,1.5c-1.1,0.4-2-0.1-1.9-1.3
	c0.2-3.6,0.4-7.2,0.7-10.7c0.6-8.2,1.2-16.3,1.9-24.5c1.1-13,2.2-26,3.3-38.9c1-11.2,2.1-22.4,3.2-33.6c1.4-13.7,2.8-27.4,4.3-41.1
	c1.2-11.6,2.5-23.2,3.7-34.9c1.3-11.9,2.5-23.7,3.8-35.6c0.3-3.2,0.6-6.3,1-9.5c0.1-1.1-0.2-1.5-1.3-1.6c-1.7-0.1-3.5-0.3-5.2-0.4
	c-0.7-0.1-1.4-0.3-1.4-1.1c0-1,0.8-1.2,1.6-1.2c2.7,0.1,5.3,0.3,8,0.4C393.7,351.5,394.3,351.6,395,351.3z M278.5,60.7
	c-2.6,4.5-6.6,7-11.1,8.7c-1.2,0.4-1.3,0.9-0.9,2c3.5,11,6.9,22,11.4,32.6c9.3,21.8,20.2,42.9,31.8,63.5c2.9,5.2,6,10.2,9.4,15
	c4.8,6.6,10.8,11.8,18.1,15.4c3,1.5,6.1,2.7,9.2,3.8c3,1,6.2,1.8,9.1,3.3c0.3-0.7,0.5-1.3,0.8-1.9c0.5-1.2,0.9-2.3,1.5-3.5
	c0.3-0.6,0.8-0.9,1.5-0.6c0.7,0.3,0.8,0.8,0.6,1.5c-0.2,0.6-0.4,1.1-0.6,1.6c-1.4,4-3.1,7.9-3.8,12.2c-0.6,3.6,0.4,5.9,3.6,7.5
	c2,1,3.8,2.4,6,3c0.9,0.3,1.5,1,2.3,1.5c0.5,0.3,0.9,0.8,0.6,1.4c-0.3,0.6-0.9,0.7-1.5,0.6c-1-0.3-2.1-0.6-3.1-1
	c-2.8-0.9-5.3-2.7-8.2-4.4c0,1.3,0,2.1,0,3c0.1,5.6-0.2,11.2-0.6,16.8c-0.9,12.7-2.8,25.4-4.1,38.1c-0.7,6.6-0.9,13.2,0.3,19.7
	c1.6,9.6,6.7,16.5,15.8,20.3c4,1.7,8.2,2.8,12.4,3.7c10.6,2.1,21.4,2.4,32.1,1.9c10.7-0.5,21.2-2.2,31.3-5.9c6-2.2,11.8-4.9,16.9-9
	c4.5-3.7,7.4-8.3,8.1-14.2c0.7-5.5,0.1-11-0.5-16.5c-1-9.2-2.2-18.4-2.8-27.6c-0.6-8.7-1.1-17.5-0.8-26.3c0.1-2.4,0-4.8-0.4-7.2
	c-0.2-1.5-0.9-2.1-2.1-2.7c-5.8-2.9-11.6-5.8-17.4-8.8c-0.6-0.3-1.2-0.6-1.8-0.9c-0.6-0.4-1.1-0.9-0.7-1.7c0.4-0.8,1.1-0.9,1.9-0.5
	c0.6,0.3,1.2,0.6,1.8,0.9c13.3,6.7,26.6,13.5,39.9,20.2c17.2,8.7,34.5,17.4,51.7,26.2c2.1,1.1,3.7,1.3,5.5-0.4c1-0.9,2.2-1.6,3.4-2
	c0.6-0.2,1.4-0.3,1.7,0.5c0.4,0.8-0.2,1.2-0.8,1.6c-2.7,1.4-5,3.3-7.4,5.2c-7.1,5.6-14,11.6-20.5,18c-8.8,8.5-16.9,17.5-23.5,27.9
	c-0.5,0.8-1.2,1.6-1.4,2.5c4.6,4,7.3,9.6,12,13.5c0.7-0.8,1.3-1.5,1.9-2.2c2.6-3.1,5.3-6,8.1-8.9c9.5-9.8,19.8-18.6,30.2-27.4
	c4.6-3.9,9.3-7.9,13.6-12.2c2.1-2.1,4-4.3,5.6-6.8c3-4.6,3-9.2,0.2-13.9c-1.1-1.9-2.4-3.6-3.9-5.2c-3-3.3-6.3-6.2-9.7-9
	c-6.8-5.4-14-10.2-21.4-14.7c-14.7-9-29.7-17.6-44.5-26.3c-7.5-4.4-14.9-8.8-22.6-12.8c-8.9-4.6-18.2-6.2-28.1-4.5
	c-4.2,0.7-8.4,1-12.6,1.3c-3.9,0.3-7.8-0.1-11.6-1.4c-2-0.7-2.3-0.6-3.2,1.4c-2.1,4.6-4.1,9.3-6.2,14c-1.3,2.9-2.6,5.8-4,8.6
	c-0.5,1.1-1.1,2.2-1.8,3.3c-2,3-4,3-5.9-0.2c-0.6-1.1-1.2-2.2-1.7-3.4c-2.2-5.1-4-10.3-5.5-15.5c-0.4-1.5-1.1-2.8-2.2-3.8
	c-1.6-1.4-3-1.5-4.7-0.2c-1.8,1.3-3.7,2.2-5.8,2.7c-3.4,0.8-6.9,1.4-10.3,1.8c-2.8,0.3-5.4-0.3-8.1-1.2c-5.2-1.9-9.5-5.2-13.3-9.1
	c-4.2-4.4-7.6-9.5-10.8-14.7c-4.3-7.1-8.1-14.4-11.7-21.8c-11.8-24.5-23.5-49-35.3-73.6C279.6,62.3,279.4,61.5,278.5,60.7z
	 M465.5,219.3c0.2,1.9,0.4,3.2,0.4,4.5c-0.4,7.4-0.1,14.9,0.3,22.3c0.6,13.3,2.5,26.4,3.7,39.6c0.6,6.3,0.7,12.5-1.9,18.5
	c-0.6,1.3,0.2,1.6,0.9,2.2c4.4,3.4,8,7.5,11.1,12.1c0.3,0.5,0.5,1.1,1.3,1.3c1.7-1.9,3-4.1,4.3-6.3c5.7-10.2,12-20,19.9-28.8
	c9-10,18.8-19.2,29.3-27.6c0.6-0.5,1.4-0.8,1.9-1.9C513.1,243.3,489.6,231.4,465.5,219.3z M361,129.6c0.6,4.3,1.8,8.1,3.3,11.7
	c1.7,4.2,4,8.1,7.4,11.2c3.9,3.5,8.3,5.1,13.7,4.2c6.1-1.1,11-4.1,14.4-9.1c4.8-7,7.9-14.6,7.7-23.3c-0.1-3.8-0.8-7.5-1.2-11.2
	c-0.3-3-0.4-3-3.3-3c-1.4,0-2.8,0-4.2-0.1c-8.7-0.6-16-3.8-20.8-11.4c-0.2-0.3-0.3-0.6-0.9-0.5c-0.2,0.3-0.5,0.7-0.8,1.1
	c-3.7,5.1-8.4,7.7-14.8,6.9c-1.6-0.2-1.6,0.7-1.7,1.8c-0.3,4.3-0.2,8.7-0.1,13c0,0.4,0.1,0.8,0.6,1c0.7-0.2,1.4-0.5,2.1-0.7
	c3.2-0.9,6.3-0.7,9.2,0.8c0.7,0.4,1.5,0.8,1.9,1.5c0.3,0.5,0.3,1,0,1.4c-0.4,0.4-0.9,0.5-1.4,0.2c-0.4-0.3-0.8-0.6-1.2-0.8
	c-1.3-0.6-2.6-1.2-4.2-1c0.9,2.1,1.6,4.2-0.1,6C365.1,131,363.2,130.6,361,129.6z M415.5,125.1c0.6,0.6,1.5,0.7,2.2,1
	c3.9,2,4.6,6.5,1.3,9.5c-1.4,1.3-3,2-4.9,2.4c-1.6,0.3-3.2,0.3-4.7-0.1c-1.4-0.3-1.9,0.1-2.4,1.4c-1.6,3.9-3.5,7.7-6.3,11
	c-1.3,1.6-1.4,1.7,0.2,3.2c7.4,7.2,16.3,10.4,26.6,9.7c4.4-0.3,8.5-1.6,12.1-4.3c5.2-3.9,7.1-9.8,5.1-16c-1-3.3-2.8-6-5.2-8.4
	c-6.3-6.4-14-9.3-22.8-10C416.3,124.6,415.7,124.4,415.5,125.1z M375.5,158.3c-8.7-5.9-12.4-11-15.5-21.3c-0.4-1.3-0.7-2.6-1-3.9
	c-0.5-1.9-0.5-2-2.5-2c-4.5,0-8.8,0.9-12.6,3.4c-8.4,5.3-10.2,15.3-4.2,23.2c6.9,9.1,21.5,11.7,31.1,5.4
	C372.7,161.8,374.4,160.3,375.5,158.3z M410.1,126.4c1.2-0.7,2.6-0.4,2.8-1.6c0.3-2.7,1.1-5.3,0.9-8.1c-0.2-2.4-0.3-4.8-0.7-7.2
	c-1-7.6-4.1-14-10.4-18.7c-6.5-4.8-13.8-7-21.8-6.2c-9.6,1-16.3,6.2-20,15.2c-0.3,0.8-0.5,1.8-0.7,2.6c-0.2,0.7,0.2,1.1,0.9,1.3
	c0.7,0.1,1.3,0.3,2,0.3c3.3,0,6.3-1,8.7-3.2c1.9-1.8,3.7-3.7,4.1-6.4c0.1-0.8,0.6-1.4,1.4-1.5c0.7-0.1,0.9,0.5,1.2,1.1
	c2.8,7,8,11,15.2,12.8c4,1,8.1,1,12.2,0.9c2.4-0.1,2.8,0.2,3,2.6C409.1,115.4,410.4,120.6,410.1,126.4z M239.8,47
	c1-0.6,1.3-1.4,1.7-2.1c1.1-2.2,2.2-4.5,3.3-6.7c0.8-1.7,1.3-3.5,2.2-5c0.9-1.5,2.8-2.2,3.4-4c0.2-0.6,0.9-1,1.7-0.5
	c0.7,0.5,0.6,1.1,0.2,1.8c-0.2,0.4-0.4,0.7-0.6,1.1c-0.7,1.4-1.3,2.9-1.7,4.4c-0.2,0.9-0.8,2-0.1,2.6c0.9,0.7,1.6-0.4,2.3-0.9
	c1-0.7,2-1.6,3-2.3c0.7-0.5,1.5-1,2.2-0.1c0.6,0.8,0,1.6-0.7,2.1c-0.4,0.4-0.9,0.7-1.4,1.1c-3,2.3-3,2.3-1.5,5.7
	c0.2,0.4,0.3,0.8,0.6,1.1c1.1,1.8,1.9,2.2,3.9,1.5c0.5-0.2,0.9-0.4,1.4-0.6c0.7-0.3,1.4-0.1,1.7,0.6c0.3,0.8-0.2,1.3-0.8,1.6
	c-0.4,0.2-0.7,0.4-1.1,0.5c-0.8,0.3-0.9,0.7-0.6,1.5c2.2,5.2,4.1,10.6,5.9,16c0.3,1.1,1,1.3,1.9,0.9c3.9-1.7,7.6-3.8,9.6-7.9
	c0.7-1.5,0.7-2.7,0-4.2c-4.4-9.3-8.7-18.6-13-27.9c-0.5-1-1-2-1.2-3c-1.2-4.2-4.8-5.8-8.7-3.7c-1.8,1-3.2,2.4-4.5,3.9
	c-4.2,5.2-7.1,11.1-8.7,17.6C239.9,43.5,239.5,45.1,239.8,47z M378.4,175.6c3.9,1.4,5.7,4.2,6.6,7.6c1.4,5.3,3.5,10.4,5.6,15.5
	c0.4,1,0.8,2,1.8,2.8c0.9-0.6,1.3-1.5,1.7-2.4c1.6-3.4,3.2-6.8,4.8-10.2c2.3-5,4.2-10.2,7-14.9c0.5-0.9,0.3-1.3-0.4-1.9
	c-4.9-4-6.8-9.5-7.9-15.4c-0.1-0.7,0.1-1.5-0.7-2.1c-0.3,0.2-0.7,0.4-1,0.6c-3.2,2.4-6.9,3.7-10.8,4.2c-2.4,0.3-2.2,0.3-2.4,2.5
	C382.4,166.7,381.5,171.3,378.4,175.6z M492.5,307.4c-1,0.6-1.3,1.5-1.7,2.2c-2.5,4.1-4.6,8.5-7.8,12.2c-0.7,0.8-0.3,1.4,0,2
	c1.2,2.7,2.1,5.4,2.9,8.2c1.4,5.1,1.8,10.3,2.6,15.5c0.1,0.9,0.2,1.8,0.9,2.9c0.3-2.6,0.6-4.9,0.7-7.1c0.1-2.5,0.3-5,0.6-7.5
	c0.2-1.8,0.9-2.6,1.7-2.3c1.4,0.6,0.7,1.7,0.6,2.6c-0.3,2.7-1,5.5-0.3,7.9c0.5,2,0.1,3.5-0.4,5.2c-0.5,1.7-1.1,3.3-1.6,5
	c-0.2,0.8-0.6,1.6-0.4,2.4c0.6,2.5,1,5,1.8,7.5c1-0.4,1-1.4,1.4-2.1c0.5-1,1-2.1,1.6-3.1c2.7-4.8,5-9.8,5.5-15.4c0.5-5-0.1-10,0-15
	c0-0.2,0-0.6-0.1-0.7c-1.4-1.6-0.2-2.7,0.7-3.9c0.5-0.7,1-1.3,1.6-2c0.7-0.8,0.7-1.4-0.1-2.1c-2.2-2-3.9-4.5-5.8-6.9
	C495.6,311.2,494.1,309.3,492.5,307.4z M239.8,77.2c2.3-3.2,3.4-6.6,4.1-10.2c0.9-5.4,1.2-10.8-1.4-15.9c-0.5-0.9-0.7-2-2.1-0.9
	c-0.7,0.5-1.7,0.4-2.3-0.3c-0.7-0.8-1.3-0.5-2-0.1c-0.8,0.6-1.6,1.1-2.4,1.8c-5.1,4.4-7.5,10.2-8.5,16.8c-0.2,1.3,0.3,1.5,1.4,1.6
	c5.1,0.5,9.4,2.6,12.5,6.8C239.2,76.9,239.4,77,239.8,77.2z M405.4,352.3c-2.4-4.4-2.3-8.9-2.5-13.2c-0.1-1.7-0.1-3.3-0.2-5
	c-0.3-6.2,0.9-4.9-5.2-5.1c-1.8-0.1-1.9,0-1.7,1.8c0.4,5.2,0.8,10.4,1.2,15.7c0.1,1.4,0.5,2.8,0.7,4.2c0.1,0.9,0.6,1.3,1.5,1.3
	C400.9,352,402.8,352.1,405.4,352.3z M225,76.3c0.1,3.1,0.6,6.1,1.3,9.1c0.4,1.6,0.6,1.7,2,1.1c3.2-1.4,6-3.5,8.6-5.9
	c0.8-0.7,0.8-1.3,0.2-2.2c-2.3-3.4-5.5-5.2-9.4-6c-2.7-0.6-3-0.3-2.8,2.6C224.9,75.4,225,75.9,225,76.3z M246.6,22.3
	c-4.7,4-8,8.4-10.3,13.6c-1,2.3-1.1,4.8-1.5,7.2c-0.1,0.3,0.1,0.7,0.4,0.8c0.2,0.1,0.5-0.1,0.7-0.2c1.2-0.7,1.8-1.8,2.1-3.2
	c1.4-5.7,4-10.9,7.4-15.7C245.8,24.2,246.5,23.8,246.6,22.3z M409.9,130.9c1-0.2,2-0.4,2.9-0.5c0.5-0.1,1,0.2,1.1,0.8
	c0.1,0.5-0.1,1-0.6,1.2c-0.5,0.2-1.1,0.4-1.6,0.6c-0.8,0.2-1.6,0.4-2.4,0.7c-0.4,0.2-0.6,0.6-0.5,1c0,0.4,0.3,0.6,0.6,0.7
	c2.3,1,6.7-0.1,8.3-2.1c0.8-1,1.2-2,0.6-3.2c-0.7-1.5-2.5-2.5-4.6-2.3C411.7,127.9,410.7,128.7,409.9,130.9z M234.8,31.8
	c-2,2.4-3.8,4.8-4.7,7.8c-0.2,0.5-0.6,1.2,0.1,1.6c0.5,0.3,1.1-0.1,1.6-0.3c0.6-0.2,0.6-0.7,0.7-1.2c0.4-2.3,1.3-4.4,2.3-6.5
	C235,32.7,235.2,32.4,234.8,31.8z M363,123.6c-0.7,0.3-1.6,0.3-1.6,1.3c0.1,1.1,0.4,2.1,1.4,2.8c0.7,0.5,1.4,0.6,2-0.1
	c0.6-0.7,0.4-1.6,0-2.3C364.4,124.5,364,123.7,363,123.6z M243.6,46.9c2.5-0.7,4.3-1.9,5.1-3.4C245.1,43.4,244.6,43.7,243.6,46.9z
	 M247.9,40.2c-0.2-0.2-0.4-0.6-0.6-0.6c-0.4,0-0.7,0.4-0.6,0.9c0,0.4,0.4,0.4,0.7,0.4C247.7,40.9,248,40.7,247.9,40.2z"/>
<path d="M117.6,354.9c0.5,4.8,1.1,9.3,1.6,13.9c1.2,10.3,2,20.6,2.6,30.9c0.5,9.4,1,18.9,0.3,28.3c-0.9,12.4-3.6,24.4-8.9,35.7
	c-3.2,6.8-7.4,12.9-13.1,17.8c-3.8,3.3-8,5.9-13,7.3c-5.9,1.6-11.6,1-17.1-1.3c-6.6-2.7-12-7.2-16.6-12.6
	c-6.9-8.2-11.5-17.7-14.8-27.9c-3.5-10.6-5.3-21.5-6.1-32.6c-1.2-16.6-0.4-33,3-49.3c2-9.6,4.8-18.9,9.1-27.8
	c2.5-5.2,5.5-10.1,9.7-14.2c1.7-1.7,3.6-3.2,5.8-4.2c5.2-2.4,9.6-0.9,12,4.4c1.2,2.7,1.7,5.6,2,8.5c0.5,7.3-0.1,14.5-1.2,21.7
	c-1.8,11.4-3.8,22.7-5.5,34.1c-1.6,11.2-2.4,22.4-1.3,33.7c0.5,5.2,1.5,10.4,3.5,15.3c0.9,2.2,2,4.3,3.6,6c2.9,3.1,6.1,3.2,9.3,0.5
	c2.3-2,3.9-4.6,5.2-7.3c2.7-5.4,4.3-11.2,5.5-17.1c2.7-13.2,3.4-26.6,3.2-40.1c-0.3-23.3-3.2-46.3-7.2-69.1
	c-0.5-3.1-1.6-5.9-3.3-8.5c-9.1-14-13.2-29.5-12.6-46.1c0.4-11.3,3.8-21.8,9.2-31.7c7.2-13.1,17.1-24,28.4-33.7
	c8-6.8,16.7-12.7,25.5-18.5c7.5-4.9,14.9-9.8,21.9-15.4c4.4-3.6,8.7-7.3,12.1-11.9c1.7-2.2,3.2-4.5,4-7.2c0.5-1.6,0.5-1.8-1.2-2.4
	c-2.3-0.8-4.6-1.4-6.9-2.2c-1.2-0.4-2.8-0.6-2.9-2.3c-0.1-1.6,1.5-2.1,2.6-2.7c3.5-1.7,6.9-3.3,10.4-4.9c1.3-0.6,2.3-1.5,3.3-2.5
	c13.8-14.5,33.7-12.1,43.2,3.5c4.1,6.7,4.3,14.1,2.5,21.6c-0.8,3.3-1.9,6.4-3.5,9.3c-5,8.9-5.6,18.3-4.1,28.2
	c2.5,15.4,4.2,30.9,5,46.5c0.8,14.6,1,29.2,1.3,43.8c0.2,8.5,1,17,1.7,25.5c0.2,2.1,0.3,4.2,0.7,6.2c0.5,2.4,1.9,3.8,4.3,4.3
	c0.9,0.2,1.8,0.4,2.7,0.5c8.7,1.2,14.9,5.9,18.6,13.8c0.7,1.5,1.5,1.9,3,1.8c3-0.1,6,0,9,0c0.6,0,1.2-0.1,1.7,0.1
	c1.4,0.4,1.9,1.7,1,2.8c-6.5,8.4-12.8,16.9-18.4,25.9c-0.8,1.3-1.7,1.7-3.2,1.7c-41,0-82,0-123,0
	C120.8,354.9,119.3,354.9,117.6,354.9z M91.7,310.1c0,0.7,0,1,0.1,1.2c3.6,19.6,6,39.3,6.7,59.1c0.6,15.4,0.3,30.7-2.5,45.9
	c-1.3,6.9-3,13.7-6,20.1c-1.4,2.9-3,5.6-5.3,7.8c-4.7,4.6-10,4.3-14.2-0.8c-1.8-2.2-2.9-4.6-3.9-7.3c-1.7-4.7-2.6-9.7-3.1-14.7
	c-1.2-11.5-0.3-23,1.2-34.5c1.5-11.3,3.8-22.5,5.5-33.8c0.9-6.5,1.6-13.1,1.3-19.7c-0.1-2.8-0.5-5.5-1.4-8.1
	c-1.9-5.3-5.3-6.5-10.2-3.6c-1.4,0.8-2.6,1.8-3.7,2.9c-2.1,2-3.8,4.2-5.4,6.6c-2.1,3.2-3.9,6.6-5.4,10.2
	c-6.3,14.7-9.4,30.2-10.5,46.1c-0.6,8.6-0.6,17.2,0,25.8c0.8,11.8,2.7,23.4,6.6,34.6c3.2,9.4,7.6,18.2,14.1,25.8
	c4.4,5.1,9.6,9.3,15.9,11.8c7.1,2.8,14,2.3,20.7-1.5c2.9-1.6,5.5-3.7,7.9-6.1c5.6-5.6,9.5-12.2,12.4-19.5
	c5.9-14.6,7.6-29.8,7.2-45.4c-0.3-9.9-0.9-19.8-1.7-29.7c-0.7-8.6-1.6-17.3-2.8-25.9c-1.2-8.2-2.4-16.4-2.7-24.6
	c0-0.8-0.1-1.5-0.1-2.3c0-0.7,0-1.6,1.1-1.6c0.9,0,1.1,0.6,1.2,1.3c0.1,0.7,0.2,1.3,0.3,2c0.2,3.2,0.4,6.3,0.7,9.5
	c0.3,3.6,0.8,7.3,1.5,10.7c2,0,3.8,0,5.6,0c39.9,0,79.9,0,119.8,0c0.7,0,1.3-0.1,2,0c1.1,0.1,1.7-0.4,2.2-1.2
	c4.8-7.9,10.7-15.1,16-22.7c0.3-0.4,1-0.8,0.5-1.6c-0.7,0-1.4,0-2.2,0c-21.3,0-42.5,0-63.8,0c-26.6,0-53.2,0-79.8,0
	c-0.8,0-1.7,0-2.5-0.1c-0.7-0.1-1.1-0.5-1.1-1.1c0-0.7,0.4-1.1,1-1.2c0.8-0.1,1.7-0.1,2.5-0.1c18.5,0,37,0,55.5,0c0.9,0,1.8,0,2.6,0
	c0.2-0.7-0.2-0.9-0.4-1.1c-4.7-3.5-9.9-5.8-15.8-6.5c-1.8-0.2-3.7-0.3-5.5-0.5c-2.1-0.3-2.8-1.5-2-3.3c0.4-1,1-1.9,1.6-2.8
	c2.9-4.4,5.8-8.8,8.2-13.4c6-11.2,10.7-22.8,12-35.6c0.9-9.1-0.8-17.7-5.8-25.4c-6.9-10.7-19.9-16-32.3-13.3
	c-0.2,0.1-0.5,0.1-0.7,0.1c-0.7,0.1-1.4,0.2-1.7-0.6c-0.3-1,0.4-1.3,1.2-1.6c2.3-0.7,4.7-1.4,7.1-1.3c13.1,0.3,23.3,5.9,29.9,17.3
	c5.2,9,6.1,18.8,4.4,28.9c-1.8,10.7-5.7,20.7-10.6,30.3c-2.8,5.5-6.1,10.7-9.5,15.9c-0.4,0.6-1.1,1.2-0.9,2.2c1.7,0.2,3.4,0.4,5,0.6
	c7.1,0.8,13.3,3.7,18.6,8.4c1.4,1.2,2.6,1.7,4.4,1.7c21.3,0,42.5,0,63.8,0c0.5,0,1,0,1.5,0c1.7-0.1,2-0.4,1.2-1.9
	c-2.7-4.8-6.4-8.5-11.8-10.2c-2.2-0.7-4.4-1-6.6-1.4c-4.3-0.9-6-2.6-6.8-6.8c-0.2-1.2-0.4-2.5-0.5-3.7c-0.3-3.2-0.5-6.5-0.8-9.7
	c-0.4-4.6-0.9-9.1-1-13.7c-0.3-13.5-0.5-27-1.1-40.6c-0.4-8.8-0.9-17.7-1.8-26.5c-1-10.5-2.7-20.8-4.1-31.3
	c-0.6-4.7-0.7-9.5,0.3-14.2c0.8-3.9,2.4-7.5,4.1-11c1.9-3.8,3.4-7.6,4.1-11.8c1.5-9.2-0.7-17.2-7.9-23.5c-0.4-0.3-0.7-1-1.6-0.6
	c0.3,1.3,0.7,2.5,1,3.8c0.2,0.8,0.5,1.6,0.6,2.4c0.1,0.6-0.2,1.1-0.9,1.3c-0.6,0.1-1-0.1-1.2-0.6c-0.2-0.5-0.4-1.1-0.6-1.7
	c-0.4-1.4-0.8-2.9-1.2-4.5c-0.7,0.7-1.1,1.7-2.1,1.2c-0.9-0.5-0.6-1.5-0.5-2.3c0-0.2,0-0.3,0-0.5c0.2-2.5,0.2-2.5-2.2-3.2
	c-9.5-2.7-17.6,0.4-24.5,6.9c-2.2,2-4.4,3.7-7.1,4.9c-2.1,1-4.2,2-6.3,3c-0.6,0.3-1.3,0.4-1.6,1.1c0.9,0.7,2.1,0.8,3.2,1.2
	c1.8,0.5,3.5,1.1,5.2,1.9c2.2,1.1,2.2,1.1,1.2,3.4c-0.1,0.2-0.1,0.3-0.1,0.5c-1.1,4.6-3.9,8.3-6.9,11.8c-3.2,3.7-6.8,6.8-10.6,9.9
	c-7.8,6.2-16.3,11.6-24.6,17.2c-7.9,5.2-15.6,10.6-22.8,16.7c-10,8.6-18.8,18.2-25.6,29.6c-6,10-9.9,20.8-10.5,32.5
	c-0.8,15.1,2.7,29.3,10.3,42.5c2.5,4.4,5.5,8.6,8.4,12.7c0.4,0.6,0.8,1.2,1.2,1.9c0.3,0.6,0.2,1.2-0.3,1.6c-0.5,0.4-1.1,0.2-1.6-0.3
	C93.2,311.8,92.6,311.1,91.7,310.1z"/>
<path d="M574.4,63.6c0.8-0.3,0.9-1.2,1.3-1.8c1.4-2.5,3.1-4.7,5.3-6.6c1.3-1.1,2.6-2,4.3-2.5c1.9-0.6,3.9-0.6,5.4,0.8
	c1,0.9,1.8,0.6,2.7,0.3c6.1-2.4,12.3-2.6,18.6-0.9c18.5,4.9,32.5,15.3,41,32.7c1.5,3.1,2.8,6.3,3.1,9.7c0.1,1,0.5,1.3,1.4,1.2
	c0.2,0,0.3,0,0.5,0c4.2-0.6,8.3-0.4,12.5,0.2c1.8,0.2,1.9,0.2,2.3-1.5c3.1-10.9,8.6-20.4,16-28.8c5-5.7,10.8-10.5,17.8-13.5
	c14.2-6.2,27.4-4.5,39.1,5.7c9.8,8.6,15.8,19.7,19.3,32.1c0.3,1.1,0.1,2.5,0.6,3.3c0.5,0.9,1.9,1.2,2.9,1.9c1.8,1.2,3.3,2.8,4.5,4.6
	c4.3,6.6,5.9,13.9,5.1,21.7c-0.1,1.5-0.4,3.1-2,3.8c-1.7,0.8-3-0.4-4.2-1.4c-1.5-1.4-2.9-2.9-4.7-4.6c-0.3,1.9-0.5,3.5-0.7,5
	c-0.2,1.4-0.4,2.8-1,4.1c-0.9,2.1-2.7,2.4-4.3,0.7c-0.7-0.7-1.2-1.6-1.6-2.5c-0.9-1.7-1.5-3.5-2-5.4c-0.1-0.5-0.2-1-0.8-1.4
	c-1.4,2-2.7,4-4.4,5.8c-0.9,1-1.8,2-3,2.7c-1.7,0.9-3,0.3-3.2-1.7c-0.1-1.2,0.1-2.5,0.2-3.7c0.5-5.4,1.3-10.8,3.1-15.9
	c1.5-4.3,3.8-8.2,7.1-11.4c1.4-1.4,3-2.7,5-3.1c1.1-0.2,1.1-0.8,0.9-1.6c-0.1-0.5-0.2-1-0.4-1.5c-3.2-10.6-8.5-20.1-16.4-28
	c-7.4-7.3-16.2-10.9-26.7-10c-5.6,0.5-10.7,2.4-15.5,5.2c-3.9,2.3-7.4,5.1-10.6,8.3c-8.1,8.3-14,18-17.6,29
	c-0.3,0.9-0.6,1.7-0.6,2.7c1.1,0.7,2.4,0.8,3.5,1.2c2.7,0.9,5.3,1.9,7.8,3.4c1.5,0.9,2.9,1.9,4.1,3.2c3.3,3.6,3.4,7.7,0.5,11.6
	c-1.6,2-3.6,3.4-5.8,4.7c-0.7,0.4-1.6,0.6-2.1,1.3c0.1,0.7,0.8,0.5,1.2,0.7c9.4,3.1,14.4,9.8,16.1,19.3c1.5,8.7-0.1,16.9-5.4,24.4
	c1.1,0.4,2,0.2,3,0.2c34.7,0,69.3,0,104,0c0.8,0,1.5,0,2.3,0c1.1,0,1.8,0.4,1.7,1.6c-0.1,0.9,0.5,1.4,0.9,2
	c3.3,4.3,6.3,8.8,9.9,12.9c0.2,0.2,0.3,0.4,0.5,0.6c0.5,0.7,1,1.5,0.1,2.2c-0.9,0.7-1.6,0-2.1-0.6c-1.7-2-3.4-4.1-5-6.3
	c-2-2.9-4.1-5.6-6.1-8.5c-0.7-1-1.5-1.5-2.7-1.3c-0.7,0.1-1.3,0-2,0c-63.8,0-127.5,0-191.3,0c-1,0-1.9,0-3.1,0
	c0.4,1.2,1.1,1.8,1.7,2.5c3.2,4.1,6.4,8.1,9.6,12.2c0.5,0.6,1.2,1.1,1.3,1.8c0.6,2.5,2.4,2.2,4.2,2.2c64.5,0,129,0,193.5,0
	c0.9,0,1.8,0,2.7,0.1c0.7,0.1,1.3,0.5,1.2,1.3c-0.1,0.7-0.6,1-1.2,1c-0.7,0.1-1.3,0.1-2,0.1c-65.1,0-130.2,0-195.3,0
	c-1.4,0-3.2,0.4-3.3-1.9c-5.5-4.9-9.1-11.4-13.9-16.9c-0.7-0.8-1.5-1.6-1.1-2.9c0.6-1.7,1-2,3.2-2c9.3,0,18.7,0,28,0
	c0.8,0,1.6,0.2,2.6-0.3c-0.6-0.9-1.3-1.8-1.8-2.7c-5.3-9.3-5.8-19.7,0.9-29c2.8-3.9,6.3-7.1,10.3-9.7c0.6-0.4,1.3-0.8,1.9-1.2
	c-0.2-0.8-0.9-0.7-1.4-0.9c-2.5-0.8-4.9-1.6-7.1-3.1c-4.9-3.3-5.9-8.4-2.6-13.3c1.4-2,3.2-3.6,5.2-5c0.7-0.5,1.6-0.8,1.9-1.9
	c0.1-0.4,0.5-0.7,1-0.7c3.2,0.1,5.8-2,8.8-2.4c0.7-0.1,0.8-0.7,0.7-1.3c-0.2-1.7-0.6-3.3-1.2-4.8c-5.6-14-15.1-24.4-28.6-31.1
	c-5-2.4-10.1-4.2-15.6-5.2c-5-0.9-9.8-0.3-14.5,1.5c-0.6,0.2-1.3,0.4-1.3,1.2c-0.1,3.4-1.9,6-3.8,8.5c-0.1,0.1-0.1,0.3-0.3,0.6
	c0.8,0.5,1.7,0.2,2.6,0.2c3.4,0,6.7,0.6,9.7,2.1c5.2,2.7,8.4,6.8,8.4,12.9c0,4.7-3.1,7.8-7.8,8.1c-2.6,0.2-5.1-0.4-7.6-1.2
	c-1.6-0.5-3.1-1.2-4.7-1.8c-2.8-1.1-3.2-0.9-3.7,2c-0.3,2-0.6,4-0.9,5.9c-0.6,3.7-1.6,7.3-3.5,10.6c-1,1.8-2.2,3.3-3.8,4.6
	c-3.4,2.5-6.8,1.7-8.7-2.1c-1-2.1-1.4-4.3-1.5-6.5c-0.2-5.4,0.9-10.6,2.1-15.8c0.2-1,0.6-1.9,0.4-3.1c-1-0.3-1.7,0.4-2.5,0.7
	c-3.5,1.7-7.1,3.3-11,3.9c-1.9,0.3-3.8,0.4-5.7-0.1c-3.3-0.9-5.2-3.3-5.3-6.7c-0.1-3.6,1.3-6.5,3.7-9c2.1-2.2,4.6-3.8,7.5-4.7
	c-0.2-0.9-0.9-1.1-1.4-1.5c-4.8-4.2-8.3-9.3-10-15.6c-0.5-1.7-0.6-3.5-0.3-5.2c0.5-3.7,3.3-6.1,7-6.2c2.4-0.1,4.6,0.8,6.6,1.9
	c4.5,2.6,8,6.2,10.7,10.6c2.1,3.4,3.5,7,4.6,10.8C573.9,62.2,573.9,63,574.4,63.6z M688.8,114.7c-1.3-0.4-2.1,0.3-2.9,0.5
	c-11.8,4.1-22.8,2.9-32.8-4.8c-1.9-1.5-3.8-3-5.6-4.6c-3.3-3-3.3-3-6.7,0.1c-0.2,0.2-0.4,0.3-0.5,0.5c-5.1,5-4.3,10,2.1,13.1
	c2.5,1.2,5.2,1.8,7.9,2.4c1.1,0.2,2.6,0.2,2.8,1.6c0.2,1.6-1.3,1.7-2.3,2.2c-5.5,2.5-10,6.2-13.5,11.1c-4.4,6.2-5.5,12.9-3.4,20.2
	c0.7,2.5,0.7,2.6,3.4,2.6c13,0,25.3-2.7,36.8-8.8c6.7-3.6,12.4-8.3,16.9-14.5c0.8-1.1,1.4-2.5,2.7-3.2c-0.3-0.4-0.4-0.7-0.6-1
	c-3.7-4.7-8.8-6.6-14.5-7.4c-0.6-0.1-1.2-0.1-1.7-0.2c-0.6-0.2-1-0.6-1-1.3c0-0.6,0.3-1,0.8-1.2c0.5-0.2,1.1-0.4,1.6-0.6
	c2.8-1,5.6-2.1,8-3.9C687.1,116.7,688.2,116,688.8,114.7z M575,69.2c2,0.3,3.5,1.3,5.1,2.1c1.9,0.9,3.4,2.4,4.2,4.4
	c0.9,2.4-0.2,4.6-2.7,5.2c-4,1-9.7-2.4-10.7-6.4c-0.3-1.3-0.2-2.5,0.6-3.6c0.9-1.3,1.1-2.3,0.8-3.9c-0.1-0.3-0.1-0.7-0.2-1
	c-1.4-6.6-3.7-12.8-8.2-18c-2.4-2.7-5.1-5-8.5-6.5c-2.1-0.9-4.4-1.5-6.4,0.1c-2.2,1.6-2.3,4.1-1.7,6.4c2.1,7.9,5.9,14.5,13.8,17.9
	c0.8,0.3,1.8,0.6,1.5,1.6c-0.3,0.9-1,1.7-2.1,1.9c-0.6,0.1-1.2-0.1-1.7-0.1c-1-0.1-2-0.1-2.9,0.4c-3,1.3-5.4,3.2-7,6.2
	c-0.7,1.3-1.1,2.6-1.1,4.1c0,2.7,1.4,4.4,4,4.9c1.3,0.3,2.6,0.2,4-0.1c3.1-0.5,5.9-1.6,8.7-2.9c1.3-0.6,2.5-1.3,3.9-1.8
	c3-1.1,4.6,0.1,4.1,3.3c-0.3,1.6-0.6,3.1-1,4.6c-0.8,3.7-1.6,7.5-1.7,11.4c-0.1,1.8,0,3.7,0.5,5.5c0.5,1.7,0.9,3.6,2.9,4.1
	c2,0.4,3.2-1.1,4.4-2.4c0.9-1,1.5-2.2,2.1-3.4c1-2,1.7-4.2,2.1-6.4c0.6-3,1-6.1,1.6-9.1c0.7-3.4,2.6-4.5,5.8-3.4
	c1.7,0.6,3.4,1.4,5.1,2c2.1,0.8,4.3,1.4,6.6,1.3c4-0.1,6.1-2.4,5.9-6.4c-0.1-2.6-1.2-4.8-2.9-6.7c-1.6-1.9-3.7-3.1-6-3.9
	c-3.5-1.2-7.2-1.3-10.9-0.8c-0.7,0.1-1.3,0.2-2,0.3c-0.6,0.1-1.2-0.1-1.5-0.7c-0.3-0.6-0.1-1.1,0.3-1.6c0.4-0.4,0.8-0.8,1.2-1.2
	c1.5-1.5,2.8-3.1,3.9-4.9c0.6-1,1.1-2.1,1.2-3.3c0.3-2.3-1.3-3.7-3.5-3.3c-1.4,0.3-2.6,1-3.7,2c-2.1,1.8-3.8,4-5.1,6.4
	C576.8,65.2,576,67.1,575,69.2z M636.1,161.9c0.5,2.6,2.5,3.3,4,4.5c0.2,0.2,0.3,0.6,0.7,0.7c0.8,0,1.7,0.1,2.5,0.1
	c14.6,0,29.2-0.1,43.8,0.1c3.4,0,5.7-1.6,7.3-4.2c2.2-3.4,3.3-7.3,3.7-11.3c0.5-4.8,0-9.5-1.8-14c-0.3-0.7-0.4-1.8-1.3-1.9
	c-0.9-0.1-1.1,0.9-1.5,1.5c-1.2,1.8-2.6,3.5-4.1,5.1c-8.1,8.6-18.1,13.8-29.3,16.8C652.2,161.1,644.3,162.2,636.1,161.9z
	 M775.1,123.3c0.2-0.2,0.4-0.3,0.4-0.4c0.1-0.4,0.3-0.8,0.3-1.2c0.7-7.7-0.9-14.8-5.6-21c-1.4-1.9-3.3-3.3-5.5-4.2
	c-0.4-0.1-0.9-0.2-1.1-0.5c-0.9-1.3-1.8-0.7-2.8-0.1c-1,0.6-1.9,1.4-2.7,2.2c-2.5,2.6-4.2,5.6-5.5,8.9c-2.2,5.6-3.1,11.4-3.5,17.3
	c0,0.4-0.2,0.8,0.6,1.1c2.3-2.3,4.2-5,5.8-7.9c0.3-0.5,0.5-1.1,0.8-1.6c0.3-0.6,0.9-1,1.6-0.9c0.7,0.1,1.1,0.7,1.3,1.4
	c0.2,0.8,0.3,1.6,0.5,2.5c0.5,2.3,1.1,4.5,2.1,6.6c0.3,0.7,0.5,1.6,1.6,2c0.5-1.1,0.7-2.2,0.8-3.4c0.2-1.8,0.4-3.6,0.6-5.5
	c0.1-0.9,0.3-1.9,1.3-2.2c1-0.4,1.8,0.1,2.5,0.8c1.2,1.2,2.3,2.4,3.5,3.6C773,121.8,773.8,122.8,775.1,123.3z M690.1,112.4
	c0.7-2.2,0-3.8-1.2-5.3c-1.3-1.6-2.9-2.7-4.7-3.6c-11.3-5.5-22.9-6.6-34.9-2.5c-0.7,0.2-1.5,0.3-2,1.3c5,4.5,10.2,9,16.8,11.2
	c7.2,2.4,14.3,1.7,21.3-0.8C686.9,112.1,688.3,111.6,690.1,112.4z M579.3,78.4c0.5,0,0.8,0,1,0c1.8-0.1,2.2-1,1.3-2.5
	c-0.7-1.2-1.7-2-3-2.6c-1-0.4-2.1-0.6-3-1.2c-0.8-0.5-1.5-0.7-2.2,0.1c-0.6,0.7-0.4,1.6,0,2.3C574.9,76.9,577.1,77.9,579.3,78.4z"/>
<path d="M638.3,314.4c0.5-7.5,0.9-14.7,1.3-21.9c0.8-13.8,1.7-27.6,2.5-41.5c0.1-2.1,0.3-2.3,2.7-2.2c12.7,0.4,25.3,0.9,38,1.3
	c5.5,0.2,11,0.4,16.5,0.6c2.5,0.1,2.6,0.3,2.6,2.8c-0.1,8.1-0.1,16.2-0.2,24.3c0,1.2-0.1,2.2,1.2,3c0.5,0.3,0.7,1.3,1,2
	c3.9,9.7,7.8,19.3,11.7,29c1.2,3,0.7,2.6,3.7,2.6c21.7,0,43.5,0,65.2,0c4.5,0,9-0.2,13.5-0.4c1.3,0,2.5,0,3.7,0.5
	c1.1,0.4,1.3,1.3,0.4,2.1c-0.8,0.7-1.3,1.5-1.8,2.4c-3.7,5.9-7.8,11.5-13,16.1c-0.5,0.4-1,0.9-1.6,1.2c-0.5,0.3-1.3,0.5-1.6,0
	c-1-1.6-2.5-1.1-3.8-1.1c-40,0-80,0-120,0c-19.5,0-39,0-58.5,0c-0.7,0-1.3,0-2,0c-1-0.1-2.2,0.3-2.8-1.1c-0.6-1.5-0.5-2.7,0.8-3.8
	c1-0.9,1.8-2,2.7-2.9c3-3.2,6.1-6.4,9.1-9.6c0.7-0.8,1.6-1.5,2.4-2.2c1.1-0.9,2.3-1.2,3.7-1.2c6.9,0.1,13.8,0,20.7,0
	C637.1,314.4,637.6,314.4,638.3,314.4z M640.9,314.1c0.8,0.4,1.6,0.2,2.3,0.2c17.7,0,35.5,0,53.2,0c0.4,0,0.8,0,1.2,0
	c0.9,0.1,1.4-0.4,1.4-1.3c0-0.7,0-1.3,0-2c0.1-9.5,0.2-19,0.2-28.5c0.1-9.1,0.1-18.2,0.1-27.3c0-2.1,0-2.1-2-2.1
	c-4.2-0.1-8.3-0.3-12.5-0.4c-12.6-0.5-25.3-0.9-37.9-1.4c-2-0.1-2.1-0.1-2.2,1.7c-0.6,9.8-1.3,19.6-1.9,29.5
	C642.1,293,641.5,303.5,640.9,314.1z M599.9,332.4c1,0.3,2.1,0.2,3.1,0.2c59.5,0,119,0,178.5,0c0.9,0,1.9-0.2,2.7,0
	c1.6,0.4,2.5-0.4,3.5-1.4c3.9-4,7.4-8.4,10.4-13.1c0.3-0.5,0.8-0.9,0.4-1.7c-0.8,0-1.6,0-2.4,0c-3.3-0.1-6.6,0.4-10,0.4
	c-29.7,0.1-59.5,0-89.2,0c-26.7,0-53.3,0-80-0.1c-2.3,0-4,0.8-5.4,2.4c-3.5,3.9-7.1,7.7-10.7,11.6
	C600.4,331.2,599.9,331.6,599.9,332.4z M713.5,314.4c-0.4-2.6-10.5-27.4-11.8-29c0,1.1,0,2,0,2.9c0,7.3-0.1,14.5-0.2,21.8
	c0,1,0,2-0.1,3c0,0.9,0.3,1.4,1.3,1.4C706.3,314.4,709.9,314.4,713.5,314.4z"/>
<path d="M465.6,356.5c-3.4,0.1-6.1-1.2-8.5-3.3c-2.4-2.1-3.9-4.7-5-7.7c-1.8-4.9-2.3-10.1-2.8-15.2c0-0.2,0-0.5,0-0.7
	c0.1-0.6,0.5-1.1,1.1-1.1c0.6,0,0.9,0.4,1,0.9c0.1,0.6,0.2,1.3,0.2,2c0.4,4.2,1.1,8.4,2.5,12.5c0.8,2.3,1.9,4.5,3.5,6.3
	c3.9,4.3,9.3,5.1,14.2,1.9c1.2-0.8,2.4-1.8,3.6-2.8c0.7-0.5,1.4-1.2,2.2-0.3c0.8,0.8,0.2,1.5-0.4,2.1
	C473.9,354.2,470.3,356.6,465.6,356.5z"/>
<path d="M367.8,336.7c0,2.1,0.1,4.2-0.5,6.2c-1.9,6.4-6.9,10.4-13.6,10.6c-3.6,0.1-7.2-0.1-10.6-1.3c-1.7-0.6-2.4-1.4-1.9-2.1
	c0.8-1.2,1.8-0.3,2.7,0c3.6,1.2,7.4,1.5,11.1,0.9c5.7-0.9,9.7-5.3,10.2-11.1c0.3-3.4-0.1-6.8-0.6-10.2c-0.1-0.8-0.2-1.7-0.1-2.5
	c0-0.5,0.3-1,0.9-1.1c0.6-0.1,1,0.2,1.2,0.7c0.2,0.5,0.4,1.1,0.5,1.7C367.3,331.2,367.8,333.9,367.8,336.7z"/>
<path d="M464.2,330.5c-4.4,0.1-8.2-0.8-11.9-2.1c-0.5-0.2-0.9-0.4-1.4-0.6c-0.7-0.4-1.6-0.8-1.1-1.9c0.4-0.9,1.3-0.6,2-0.3
	c2.1,0.9,4.2,1.5,6.4,1.9c4.6,0.9,9.1,0.7,13.5-1c1.3-0.5,2.7-0.9,4.1-1.1c0.7-0.1,1.4,0.1,1.6,0.9c0.2,0.8-0.3,1.3-1,1.5
	C472.2,328.9,468.3,330.9,464.2,330.5z"/>
<path d="M346.1,338.7c-0.7,0-1.4-0.1-1.5-1c-0.1-0.7,0.3-1.1,0.9-1.3c0.4-0.1,0.8-0.3,1.2-0.4c4.9-1.4,9.4-3.6,13.5-6.8
	c0.3-0.2,0.5-0.4,0.8-0.6c0.5-0.3,1.1-0.5,1.6,0c0.6,0.6,0.3,1.2-0.2,1.8c-0.4,0.4-0.8,0.8-1.3,1.2c-3.9,3-8.3,5.2-13,6.8
	C347.4,338.4,346.8,338.5,346.1,338.7z"/>
<path d="M406.4,251.3c-1.1-0.2-1.9-0.3-2.7-0.4c-0.4-0.1-0.7-0.5-0.7-0.9c0-0.6,0.3-1,0.8-1.1c0.8-0.1,1.7-0.2,2.5-0.1
	c1.2,0.2,1.8-0.4,2.3-1.4c1.2-2.8,2.4-5.5,3.3-8.4c0.6-1.8,1.4-2.6,2.2-2.1c1.3,0.8,0.7,1.9,0.3,2.9c-0.9,2.5-1.6,5.1-2.1,7.7
	c-0.3,1.6-0.3,1.6,1.4,1.9c0.8,0.1,1.7,0.2,2.5,0.3c0.8,0.1,1.6,0.3,1.6,1.2c-0.1,1.1-1,1.2-1.9,1.1c-0.9,0-1.8-0.1-2.7-0.3
	c-1.3-0.2-1.8,0.4-1.8,1.6c0,1.1-0.1,2.2,0,3.3c0.2,2.8,1.5,3.7,4.2,3c1.2-0.3,2.3-0.9,3.5-1.4c0.5-0.2,1-0.5,1.6-0.8
	c0.7-0.3,1.5-0.4,1.9,0.5c0.4,0.8-0.1,1.3-0.7,1.7c-2.1,1.2-4.2,2.4-6.7,2.7c-3.7,0.5-5.9-1.2-6.3-5c-0.1-1.1,0-2.3,0-3.7
	c-1.1,0.7-1.3,1.5-1.8,2.2c-1.3,2-2.6,3.9-4.3,5.5c-0.8,0.8-1.8,1.5-2.9,2c-2.1,0.8-3.8,0.1-4.8-1.8c-0.6-1.1-0.7-2.4-1-3.6
	c-0.9,0.1-1,0.9-1.3,1.5c-1,1.6-2.1,3-3.8,3.9c-2.5,1.5-5,0.8-6.3-1.8c-0.5-1-0.8-2.2-1.2-3.3c-0.8,0-1,0.8-1.4,1.2
	c-1.3,1.6-2.7,3.2-4.5,4.3c-4.1,2.7-7.9,1.8-10.5-2.3c-0.7-1.1-1.2-2.4-1.6-3.7c-1.6-5.8-1.5-11.5,0.4-17.3c0.5-1.6,1.3-3.1,2.4-4.3
	c2.2-2.3,4.8-2.5,7-0.2c3.1,3.3,4.3,7.3,4.1,11.7c0,0.6-0.2,1.2-1,1.2c-0.9,0-1.2-0.5-1.2-1.3c-0.1-1.3-0.1-2.5-0.4-3.7
	c-0.5-2.2-1.4-4.3-3-6c-1.4-1.5-2.4-1.4-3.8,0.2c-0.7,0.8-1.1,1.7-1.5,2.6c-2.1,5.7-2.3,11.4-0.3,17.2c1.9,5.6,5.5,6.4,9.8,2.3
	c1.5-1.4,2.9-3.1,3.8-4.9c1.1-2.2,2.8-4,3.9-6.1c0.3-0.5,0.7-1,1.1-1.4c2.7-3,5.6-3.2,8.7-0.6c0.7-0.3,0.7-1,0.9-1.6
	c0.6-2.3,1.2-4.5,1.8-6.8c0.1-0.6,0.3-1.1,0.5-1.7c0.3-0.7,0.9-1,1.6-0.8c0.6,0.2,0.9,0.8,0.8,1.4c-0.1,0.8-0.3,1.6-0.5,2.4
	c-1.3,4.4-1.8,8.8-2.1,13.3c-0.2,1.8,0,3.7,0.4,5.5c0.5,2.4,1.5,2.7,3.5,1.2c0.6-0.5,1.1-1,1.6-1.6
	C403.6,256.4,405.1,254.1,406.4,251.3z M384.3,254.8c0,0.3,0,0.7,0.1,1.1c0.2,0.9,0.2,1.9,1.2,2.3c1.1,0.4,1.9-0.3,2.6-1
	c1.6-1.5,2.7-3.4,3.5-5.4c0.5-1.2-0.2-3.1-1.2-3.8c-1.2-0.7-2.3-0.2-3.2,0.5C385.4,250.2,384.6,252.3,384.3,254.8z"/>
<path d="M391.8,308.3c-9.5-0.3-19.5-3-28.3-9.4c-2-1.5-4-3-5-5.4c-0.7-1.5-0.6-1.8,0.9-2.4c0.6-0.2,1.3-0.4,1.9-0.6
	c3.5-1.1,5.6-3.6,6.3-7.1c0.5-2.6,0.9-5.3-0.1-7.9c-0.2-0.4,0-1-0.1-1.5c-0.1-0.7-0.2-1.4,0.6-1.7c0.8-0.3,1.3,0.1,1.6,0.8
	c0.3,0.7,0.8,0.7,1.4,0.7c7.8,0.2,15.5,1.3,23.2,2.9c7.6,1.6,15.3,2.4,22.8,4c1.4,0.3,2.8,0.5,4.1,1c1.9,0.7,2.1,1.7,0.5,3
	c-1.3,1.1-2.4,2.3-3.3,3.7c-1.4,2.2-1.5,4.5-0.4,6.9c1.8,3.7,1.7,3.7-1.7,6C409.7,306,401.5,308.4,391.8,308.3z M418.8,284
	c-2.5-0.9-4.9-1.2-7.3-1.7c-10.9-2.2-21.9-3.3-32.8-5c-2.2-0.3-4.4-0.7-6.7-0.9c-1.6-0.2-1.7,0-1.7,1.6c0,1.6,0.1,3.2-0.1,4.7
	c-0.6,4.8-2.9,8.4-7.7,10.2c-0.5,0.2-1,0.2-1.2,0.9c1.3,1.7,3.1,2.9,4.9,4.1c8.5,5.5,17.9,8,28,7.9c7.5-0.1,14.6-2.1,20.9-6.5
	c1.5-1.1,1.6-1.1,0.8-2.8c-1.7-3.6-1.1-7,1.2-10.1C417.4,285.7,418,285,418.8,284z"/>
<path d="M406.8,232c1.3,0,2.4,0.6,3.6,0.9c1.8,0.4,3.5,0.9,5.3,1.3c0.6,0.1,1.1,0.2,1.6,0.5c0.4,0.3,0.7,0.8,0.5,1.3
	c-0.1,0.4-0.5,0.7-0.9,0.7c-0.6,0-1.2,0-1.7-0.2c-2.3-0.6-4.7-1.2-7-1.9c-0.8-0.2-1.6-0.4-2.4-0.4c-0.7,0-1.4-0.3-1.4-1.1
	c0-0.8,0.7-1.1,1.4-1.1C406.1,232,406.4,232,406.8,232z"/>
<path d="M381.2,121.4c0,2.7-0.7,5.3-1.9,7.7c-0.7,1.5-1.5,3-2.1,4.5c-0.3,0.7-0.9,1.5-0.4,2.1c0.6,0.7,1.6,0.4,2.4,0.2
	c1.5-0.4,2.9-0.9,4.3-1.3c0.5-0.1,0.9-0.4,1.4-0.5c0.7-0.2,1.3,0.1,1.6,0.8c0.2,0.7-0.1,1.2-0.7,1.4c-2.9,1.1-5.7,2.4-8.9,2.2
	c-2.1-0.2-3.1-1.5-2.8-3.6c0.1-1,0.5-1.9,1-2.8c0.8-1.7,1.6-3.3,2.3-5c0.9-2.1,1.4-4.3,1.3-6.6c-0.1-3.5-1.8-6-4.7-7.7
	c-0.4-0.2-1-0.4-1.3-0.7c-0.4-0.3-0.5-0.9-0.4-1.4c0.2-0.6,0.7-0.5,1.2-0.5c1,0.1,1.9,0.6,2.7,1.2
	C379.6,113.9,381.3,117.2,381.2,121.4z"/>
<path d="M395.8,120.2c0.3,1.8,0.5,3.4-0.2,5c-1.1,2.4-3.6,3.6-5.7,2.5c-1.9-0.9-3-4.1-2.2-6.1c0.2-0.4,0.5-0.7,0.8-0.9
	c3.5-2.7,7.3-3.8,11.7-2.7c0.2,0.1,0.5,0.1,0.7,0.2c0.9,0.4,2.2,0.6,1.8,1.9c-0.4,1.5-1.6,0.8-2.5,0.5
	C398.9,120.1,397.5,119.8,395.8,120.2z M393.6,122.7c-0.1-0.7,0-1.8-1.1-1.6c-1.1,0.2-2.2,0.9-2.6,2c-0.4,0.9,0,1.8,0.9,2.3
	c1,0.5,1.7,0.1,2.3-0.8C393.4,124.1,393.6,123.5,393.6,122.7z"/>
<path d="M364.2,118.5c-2.4,0-3.7-0.7-4.1-1.9c-0.4-1.2,0.2-2.6,1.6-3.7c1.1-0.8,2.4-1.2,3.7-1.3c1.2-0.1,2.1,0.3,2.7,1.4
	c0.6,1.1,0.5,2.1-0.1,3.1C367,117.8,365.4,118.5,364.2,118.5z M362.5,115.9c1.1,0.3,2,0.2,2.7-0.4c0.3-0.2,0.7-0.5,0.5-1
	c-0.2-0.5-0.6-0.5-1-0.4C363.9,114.4,363,114.6,362.5,115.9z"/>
<path d="M393.6,116.5c-0.1,0-0.6,0-1.1-0.1c-1.6-0.4-2.7-1.6-2.7-2.8c0-1.3,1.3-2.7,2.9-3c1.4-0.2,2.8-0.1,4.1,0.5
	c2,1,2.2,3.3,0.3,4.6C396.1,116.2,395.1,116.5,393.6,116.5z M392.2,113.4c1.3,0.9,2.2,0.8,3.6,0
	C394.4,112.9,393.4,112.7,392.2,113.4z"/>
<path d="M380.2,140.7c2.3,0.1,4.4-0.1,6.1-1.5c0.1-0.1,0.3-0.2,0.4-0.3c0.6-0.4,1.3-0.6,1.8,0c0.6,0.8,0.2,1.4-0.4,1.9
	c-0.9,0.8-1.9,1.3-3,1.7c-2,0.7-4.1,0.5-6.2,0.3c-0.7-0.1-1.6-0.4-1.6-1.3c0.1-1.1,1-1.1,1.9-1C379.6,140.7,380,140.7,380.2,140.7z"
	/>
<path d="M228,77.8c0.6,0.1,0.9,0.4,0.9,1c-0.1,0.6-0.4,0.9-1,0.9c-0.6,0-0.9-0.4-0.9-1C227,78.1,227.4,77.8,228,77.8z"/>
<path d="M201.2,130.5c3.5,0,6.1,2.7,6.1,6.2c0,3.4-2.7,6-6,6.1c-3.4,0.1-6.2-2.7-6.2-6.2C195,133.1,197.6,130.5,201.2,130.5z
	 M201.1,140.2c2.1,0.1,3.6-1.5,3.6-3.5c0-1.9-1.4-3.5-3.3-3.6c-1.9-0.1-3.7,1.5-3.8,3.4C197.5,138.5,199,140.1,201.1,140.2z"/>
<path d="M197.9,125.2c0,0.6-0.4,1-1,1.2c-2.5,1-4.8,2.1-7.2,3.4c-0.7,0.4-1.5,0.6-2-0.2c-0.6-1,0.2-1.5,1-1.9
	c2.3-1.2,4.7-2.4,7.2-3.2C197,124,197.8,124.4,197.9,125.2z"/>
<path d="M666,278.2c1.1-1.4,1.9-2.6,3-3.7c1.6-1.4,3.3-2.6,5.4-2.9c4.4-0.8,7.8,2.4,7.1,6.9c-0.2,1.7-0.8,3.2-1.7,4.7
	c-2.1,3.6-4.7,6.9-7.7,9.8c-2.7,2.6-4.7,2.7-7.4,0.1c-2.6-2.5-5.1-5-7.4-7.8c-1.1-1.4-2.1-2.8-2.7-4.5c-1.1-3.4,0.9-6,4.4-6.1
	C661.9,274.7,664.1,276,666,278.2z M679.1,277.6c0-2.4-1.5-3.7-3.7-3.6c-1.3,0.1-2.4,0.6-3.4,1.4c-1.8,1.4-3.3,3.1-4.2,5.2
	c-0.3,0.7-0.5,1.5-1.3,1.6c-1,0.2-1.4-0.8-1.9-1.4c-0.3-0.3-0.3-0.8-0.5-1.1c-1.1-1.9-2.9-2.7-5.1-2.6c-1.6,0.1-2.3,1.2-1.9,2.7
	c0.3,1.1,0.9,2,1.6,2.8c2.4,3.2,5.3,6,8.2,8.7c1.4,1.3,2,1.3,3.4-0.1c3.1-3,5.8-6.4,7.9-10.3C678.7,280,679,278.8,679.1,277.6z"/>
</svg>
