<?xml version="1.0" encoding="UTF-8"?>
<!DOCTYPE svg PUBLIC "-//W3C//DTD SVG 1.1//EN" "http://www.w3.org/Graphics/SVG/1.1/DTD/svg11.dtd">
<!-- Creator: CorelDRAW -->
<svg xmlns="http://www.w3.org/2000/svg" xml:space="preserve" width="338.667mm" height="338.667mm" version="1.1" style="shape-rendering:geometricPrecision; text-rendering:geometricPrecision; image-rendering:optimizeQuality; fill-rule:evenodd; clip-rule:evenodd"
viewBox="0 0 3155.96 3155.96"
 xmlns:xlink="http://www.w3.org/1999/xlink"
 xmlns:xodm="http://www.corel.com/coreldraw/odm/2003">
 <defs>
  <style type="text/css">
   <![CDATA[
    .fil2 {fill:#151611;fill-rule:nonzero}
    .fil4 {fill:#508D54;fill-rule:nonzero}
    .fil3 {fill:#D62F0B;fill-rule:nonzero}
    .fil1 {fill:#EAAB28;fill-rule:nonzero}
    .fil0 {fill:#F8E6C0;fill-rule:nonzero}
   ]]>
  </style>
 </defs>
 <g id="Layer_x0020_1">
  <metadata id="CorelCorpID_0Corel-Layer"/>
  <g id="_2619592989280">
   <polygon class="fil0" points="0,3155.96 3155.96,3155.96 3155.96,0 0,0 "/>
   <polygon class="fil1" points="0,1577.98 788.99,1577.98 788.99,788.99 0,788.99 "/>
   <path class="fil2" d="M744.33 591.74l0 0c0,84.27 -68.33,152.59 -152.59,152.59l0 0c-84.27,0 -152.59,-68.33 -152.59,-152.59l0 0c0,-84.27 68.33,-152.59 152.59,-152.59l0 -0c84.26,0 152.59,68.33 152.59,152.59z"/>
   <path class="fil1" d="M394.49 394.5l0 394.5 0 0c-217.84,0 -394.5,-176.66 -394.5,-394.5l0 0 394.5 0z"/>
   <path class="fil3" d="M788.99 394.5l0 0 -394.5 0 0 -394.5 0 0c217.84,0 394.5,176.66 394.5,394.5z"/>
   <polygon class="fil1" points="1577.98,0 1577.98,788.99 788.99,0 "/>
   <path class="fil4" d="M714.74 1577.98l-714.75 0 0 -714.75c379.11,33.77 681.06,335.64 714.75,714.75z"/>
   <path class="fil3" d="M1577.98 1183.48l0 0c0,217.84 -176.65,394.5 -394.5,394.5l0 0 0 0c0,-217.84 176.66,-394.5 394.5,-394.5l0 0z"/>
   <path class="fil4" d="M1577.98 788.99l0 0c0,217.84 -176.65,394.5 -394.5,394.5l0 -0 0 -394.5 394.5 0z"/>
   <path class="fil2" d="M1138.83 986.24l0 0c0,84.27 -68.33,152.59 -152.59,152.59l-0 0c-84.27,0 -152.59,-68.33 -152.59,-152.59l0 0c0,-84.27 68.33,-152.59 152.59,-152.59l0 -0c84.27,0 152.59,68.33 152.59,152.59z"/>
   <path class="fil3" d="M1183.48 1577.98l0 0 0 0c-217.84,0 -394.5,-176.65 -394.5,-394.5l0 0 0 0c217.92,0 394.49,176.66 394.49,394.5z"/>
   <path class="fil2" d="M1138.82 591.74c0,-84.27 -68.32,-152.59 -152.59,-152.59 -84.27,0 -152.59,68.32 -152.59,152.59 0,84.27 68.32,152.59 152.59,152.59 84.27,0 152.59,-68.32 152.59,-152.59z"/>
   <polygon class="fil1" points="2366.97,788.99 3155.96,788.99 3155.96,0 2366.97,0 "/>
   <path class="fil2" d="M2411.62 986.24l0 0c0,-84.27 68.33,-152.59 152.59,-152.59l0 0c84.27,0 152.59,68.33 152.59,152.59l0 0c0,84.27 -68.33,152.59 -152.59,152.59l0 0c-84.26,0 -152.59,-68.33 -152.59,-152.59z"/>
   <path class="fil1" d="M2761.46 1183.48l0 -394.5 0 0c217.84,0 394.5,176.65 394.5,394.5l0 0 -394.5 -0z"/>
   <path class="fil3" d="M2366.97 1183.48l0 0 394.5 0 0 394.5 0 0c-217.84,0 -394.5,-176.65 -394.5,-394.5z"/>
   <polygon class="fil1" points="1577.98,1577.98 1577.98,788.99 2366.97,1577.98 "/>
   <path class="fil4" d="M2441.21 0l714.75 0 0 714.74c-379.11,-33.77 -681.06,-335.63 -714.75,-714.74z"/>
   <path class="fil3" d="M1577.98 394.5l0 0c0,-217.84 176.65,-394.5 394.5,-394.5l0 0 0 0c0,217.84 -176.66,394.5 -394.5,394.5l0 0z"/>
   <path class="fil4" d="M1577.98 788.99l0 0c0,-217.84 176.65,-394.5 394.5,-394.5l0 0 0 394.5 -394.5 0z"/>
   <path class="fil2" d="M2017.13 591.74l0 0c0,-84.27 68.33,-152.59 152.59,-152.59l0 -0c84.27,0 152.59,68.33 152.59,152.59l0 0c0,84.27 -68.33,152.59 -152.59,152.59l0 0c-84.27,0 -152.59,-68.33 -152.59,-152.59z"/>
   <path class="fil3" d="M1972.47 0l0 0 0 0c217.84,0 394.5,176.65 394.5,394.5l0 0 -0 0c-217.92,0 -394.49,-176.65 -394.49,-394.5z"/>
   <path class="fil2" d="M2322.31 986.24c0,-84.27 -68.32,-152.59 -152.59,-152.59 -84.27,0 -152.59,68.32 -152.59,152.59 0,84.27 68.32,152.59 152.59,152.59 84.27,0 152.59,-68.32 152.59,-152.59z"/>
   <polygon class="fil1" points="0,3155.96 788.99,3155.96 788.99,2366.97 0,2366.97 "/>
   <path class="fil2" d="M744.33 2169.72l0 0c0,84.27 -68.33,152.59 -152.59,152.59l0 0c-84.27,0 -152.59,-68.33 -152.59,-152.59l0 0c0,-84.27 68.33,-152.59 152.59,-152.59l0 -0c84.26,0 152.59,68.33 152.59,152.59z"/>
   <path class="fil1" d="M394.49 1972.48l0 394.5 0 -0c-217.84,0 -394.5,-176.65 -394.5,-394.5l0 0 394.5 0z"/>
   <path class="fil3" d="M788.99 1972.48l0 0 -394.5 0 0 -394.5 0 0c217.84,0 394.5,176.65 394.5,394.5z"/>
   <polygon class="fil1" points="1577.98,1577.98 1577.98,2366.97 788.99,1577.98 "/>
   <path class="fil4" d="M714.74 3155.96l-714.75 0 0 -714.74c379.11,33.77 681.06,335.63 714.75,714.74z"/>
   <path class="fil3" d="M1577.98 2761.46l0 0c0,217.84 -176.65,394.5 -394.5,394.5l0 0 0 0c0,-217.84 176.66,-394.5 394.5,-394.5l0 0z"/>
   <path class="fil4" d="M1577.98 2366.97l0 0c0,217.84 -176.65,394.5 -394.5,394.5l0 0 0 -394.5 394.5 0z"/>
   <path class="fil2" d="M1138.83 2564.22l0 0c0,84.27 -68.33,152.59 -152.59,152.59l-0 0c-84.27,0 -152.59,-68.33 -152.59,-152.59l0 0c0,-84.27 68.33,-152.59 152.59,-152.59l0 -0c84.27,0 152.59,68.33 152.59,152.59z"/>
   <path class="fil3" d="M1183.48 3155.96l0 0 0 0c-217.84,0 -394.5,-176.65 -394.5,-394.5l0 0 0 0c217.92,0 394.49,176.65 394.49,394.5z"/>
   <path class="fil2" d="M1138.82 2169.72c0,-84.27 -68.32,-152.59 -152.59,-152.59 -84.27,0 -152.59,68.32 -152.59,152.59 0,84.27 68.32,152.59 152.59,152.59 84.27,0 152.59,-68.32 152.59,-152.59z"/>
   <polygon class="fil1" points="2366.97,2366.97 3155.96,2366.97 3155.96,1577.98 2366.97,1577.98 "/>
   <path class="fil2" d="M2411.62 2564.22l0 0c0,-84.27 68.33,-152.59 152.59,-152.59l0 0c84.27,0 152.59,68.33 152.59,152.59l0 0c0,84.27 -68.33,152.59 -152.59,152.59l0 0c-84.26,0 -152.59,-68.33 -152.59,-152.59z"/>
   <path class="fil1" d="M2761.46 2761.46l0 -394.5 0 0c217.84,0 394.5,176.65 394.5,394.5l0 0 -394.5 0z"/>
   <path class="fil3" d="M2366.97 2761.46l0 0 394.5 0 0 394.5 0 0c-217.84,0 -394.5,-176.66 -394.5,-394.5z"/>
   <polygon class="fil1" points="1577.98,3155.96 1577.98,2366.97 2366.97,3155.96 "/>
   <path class="fil4" d="M2441.21 1577.98l714.75 0 0 714.75c-379.11,-33.77 -681.06,-335.64 -714.75,-714.75z"/>
   <path class="fil3" d="M1577.98 1972.48l0 0c0,-217.84 176.65,-394.5 394.5,-394.5l0 0 0 0c0,217.84 -176.66,394.5 -394.5,394.5l0 0z"/>
   <path class="fil4" d="M1577.98 2366.97l0 0c0,-217.84 176.65,-394.5 394.5,-394.5l0 0 0 394.5 -394.5 -0z"/>
   <path class="fil2" d="M2017.13 2169.72l0 0c0,-84.27 68.33,-152.59 152.59,-152.59l0 -0c84.27,0 152.59,68.33 152.59,152.59l0 0c0,84.27 -68.33,152.59 -152.59,152.59l0 0c-84.27,0 -152.59,-68.33 -152.59,-152.59z"/>
   <path class="fil3" d="M1972.47 1577.98l0 0 0 0c217.84,0 394.5,176.65 394.5,394.5l0 0 -0 0c-217.92,0 -394.49,-176.66 -394.49,-394.5z"/>
   <path class="fil2" d="M2322.31 2564.22c0,-84.27 -68.32,-152.59 -152.59,-152.59 -84.27,0 -152.59,68.32 -152.59,152.59 0,84.27 68.32,152.59 152.59,152.59 84.27,0 152.59,-68.32 152.59,-152.59z"/>
  </g>
 </g>
</svg>
