<?xml version="1.0" encoding="UTF-8" standalone="no"?>
<!-- Created with Inkscape (http://www.inkscape.org/) -->

<svg
   version="1.1"
   id="svg1"
   width="800"
   height="800"
   viewBox="0 0 800 800"
   sodipodi:docname="toilet-paper-roll-in-hand.svg"
   inkscape:version="1.3.2 (091e20e, 2023-11-25, custom)"
   xmlns:inkscape="http://www.inkscape.org/namespaces/inkscape"
   xmlns:sodipodi="http://sodipodi.sourceforge.net/DTD/sodipodi-0.dtd"
   xmlns="http://www.w3.org/2000/svg"
   xmlns:svg="http://www.w3.org/2000/svg">
  <defs
     id="defs1">
    <clipPath
       clipPathUnits="userSpaceOnUse"
       id="clipPath3">
      <path
         d="M 0,600 H 600 V 0 H 0 Z"
         transform="translate(-127.24371,-396.47561)"
         id="path3" />
    </clipPath>
    <clipPath
       clipPathUnits="userSpaceOnUse"
       id="clipPath5">
      <path
         d="M 0,600 H 600 V 0 H 0 Z"
         transform="translate(-490.51861,-484.21731)"
         id="path5" />
    </clipPath>
    <clipPath
       clipPathUnits="userSpaceOnUse"
       id="clipPath7">
      <path
         d="M 0,600 H 600 V 0 H 0 Z"
         transform="translate(-490.51861,-484.21731)"
         id="path7" />
    </clipPath>
    <clipPath
       clipPathUnits="userSpaceOnUse"
       id="clipPath9">
      <path
         d="M 0,600 H 600 V 0 H 0 Z"
         transform="translate(-416.62111,-244.74021)"
         id="path9" />
    </clipPath>
    <clipPath
       clipPathUnits="userSpaceOnUse"
       id="clipPath11">
      <path
         d="M 0,600 H 600 V 0 H 0 Z"
         transform="translate(-416.62111,-244.74021)"
         id="path11" />
    </clipPath>
    <clipPath
       clipPathUnits="userSpaceOnUse"
       id="clipPath13">
      <path
         d="M 0,600 H 600 V 0 H 0 Z"
         transform="translate(-387.11521,-551.17481)"
         id="path13" />
    </clipPath>
    <clipPath
       clipPathUnits="userSpaceOnUse"
       id="clipPath15">
      <path
         d="M 0,600 H 600 V 0 H 0 Z"
         transform="translate(-377.61911,-525.98291)"
         id="path15" />
    </clipPath>
    <clipPath
       clipPathUnits="userSpaceOnUse"
       id="clipPath17">
      <path
         d="M 0,600 H 600 V 0 H 0 Z"
         transform="translate(-339.46681,-495.96831)"
         id="path17" />
    </clipPath>
    <clipPath
       clipPathUnits="userSpaceOnUse"
       id="clipPath19">
      <path
         d="M 0,600 H 600 V 0 H 0 Z"
         transform="translate(-187.73241,-420.73631)"
         id="path19" />
    </clipPath>
  </defs>
  <sodipodi:namedview
     id="namedview1"
     pagecolor="#ffffff"
     bordercolor="#000000"
     borderopacity="0.25"
     inkscape:showpageshadow="2"
     inkscape:pageopacity="0.0"
     inkscape:pagecheckerboard="0"
     inkscape:deskcolor="#d1d1d1"
     inkscape:zoom="0.7625"
     inkscape:cx="399.34426"
     inkscape:cy="400"
     inkscape:window-width="1440"
     inkscape:window-height="830"
     inkscape:window-x="-6"
     inkscape:window-y="-6"
     inkscape:window-maximized="1"
     inkscape:current-layer="g1">
    <inkscape:page
       x="0"
       y="0"
       inkscape:label="1"
       id="page1"
       width="800"
       height="800"
       margin="136.23734 50.401333 37.734665 55.626266"
       bleed="0" />
  </sodipodi:namedview>
  <g
     id="g1"
     inkscape:groupmode="layer"
     inkscape:label="1">
    <g
       id="group-MC0">
      <path
         id="path2"
         d="M 0,0 107.496,98.66 174.964,-108.396 67.852,-185.958 C 43.353,-203.7 16.756,-211.31 -13.419,-209.214 l -2.816,0.195 -69.289,-85.279 v 146.82 z"
         style="fill:#f28f62;fill-opacity:1;fill-rule:evenodd;stroke:none"
         transform="matrix(1.3333333,0,0,-1.3333333,169.65827,271.36587)"
         clip-path="url(#clipPath3)" />
      <path
         id="path4"
         d="m 0,0 71.681,-116.202 -80.3,-213.035 -71.682,116.201 z"
         style="fill:#c1dff5;fill-opacity:1;fill-rule:evenodd;stroke:none"
         transform="matrix(1.3333333,0,0,-1.3333333,654.0248,154.37693)"
         clip-path="url(#clipPath5)" />
      <path
         id="path6"
         d="m 0,0 12.543,-20.332 -60.2,-245.622 -32.644,52.918 z"
         style="fill:#abcdee;fill-opacity:1;fill-rule:evenodd;stroke:none"
         transform="matrix(1.3333333,0,0,-1.3333333,654.0248,154.37693)"
         clip-path="url(#clipPath7)" />
      <path
         id="path8"
         d="m 0,0 c -9.48,-25.152 -74.012,-24.111 -144.137,2.32 -70.124,26.432 -119.286,68.25 -109.806,93.399 l 80.3,213.036 253.944,-95.72 z"
         style="fill:#dceefa;fill-opacity:1;fill-rule:evenodd;stroke:none"
         transform="matrix(1.3333333,0,0,-1.3333333,555.4948,473.67973)"
         clip-path="url(#clipPath9)" />
      <path
         id="path10"
         d="m 0,0 c -9.48,-25.152 -74.012,-24.111 -144.137,2.32 -7.351,2.77 -14.468,5.713 -21.314,8.785 0.991,-0.365 1.979,-0.726 2.968,-1.08 55.579,-19.875 117.043,8.569 137.863,63.802 2.831,7.51 5.661,15.021 8.493,22.531 15.6,41.388 1.322,86.654 -35.2,111.603 -2.674,1.826 -5.304,3.721 -7.889,5.685 -0.358,2.228 -0.72,4.458 -1.079,6.687 l 25.641,36.032 114.955,-43.33 z"
         style="fill:#d0e9f9;fill-opacity:1;fill-rule:evenodd;stroke:none"
         transform="matrix(1.3333333,0,0,-1.3333333,555.4948,473.67973)"
         clip-path="url(#clipPath11)" />
      <path
         id="path12"
         d="m 0,0 c 70.124,-26.432 119.286,-68.249 109.807,-93.399 -9.481,-25.152 -74.013,-24.113 -144.138,2.319 -70.124,26.432 -119.287,68.249 -109.806,93.4 C -134.657,27.471 -70.125,26.433 0,0"
         style="fill:#c1dff5;fill-opacity:1;fill-rule:evenodd;stroke:none"
         transform="matrix(1.3333333,0,0,-1.3333333,516.1536,65.100267)"
         clip-path="url(#clipPath13)" />
      <path
         id="path14"
         d="M 0,0 C 31.333,-11.811 53.299,-30.495 49.064,-41.733 44.827,-52.97 15.994,-52.505 -15.339,-40.696 -46.672,-28.885 -68.638,-10.201 -64.402,1.036 -60.166,12.274 -31.333,11.811 0,0"
         style="fill:#5179ae;fill-opacity:1;fill-rule:evenodd;stroke:none"
         transform="matrix(1.3333333,0,0,-1.3333333,503.49213,98.689467)"
         clip-path="url(#clipPath15)" />
      <path
         id="path16"
         d="M 0,0 C -18.397,10.594 -29.353,22.82 -26.25,31.051 -22.475,41.066 0.836,41.787 28.041,33.466 16.461,28.316 6.626,18.288 1.585,4.913 0.971,3.284 0.444,1.644 0,0"
         style="fill:#3e649c;fill-opacity:1;fill-rule:evenodd;stroke:none"
         transform="matrix(1.3333333,0,0,-1.3333333,452.6224,138.70893)"
         clip-path="url(#clipPath17)" />
      <path
         id="path18"
         d="M 0,0 68.336,6.745 C 77.177,7.617 84.837,7.248 93.553,5.531 L 112.37,1.825 c 11.946,-2.353 22.549,-3.13 34.416,-2.486 4.719,0.257 8.898,-1.863 11.477,-5.823 2.579,-3.959 2.83,-8.638 0.688,-12.85 -2.605,-5.127 -6.314,-9.715 -11.083,-13.673 -9.949,-8.258 -21.741,-11.478 -34.507,-9.423 l -33.977,5.471 -57.655,-20.255 -9.536,-40.53 c -9.485,-40.309 -40.289,-69.408 -81.071,-76.586 l -37.335,-6.57 -39.8,-35.993 v 100.592 l 71.703,78.939 C -54.253,-15.281 -29.687,-2.929 0,0"
         style="fill:#f5a683;fill-opacity:1;fill-rule:evenodd;stroke:none"
         transform="matrix(1.3333333,0,0,-1.3333333,250.30987,239.01827)"
         clip-path="url(#clipPath19)" />
    </g>
  </g>
</svg>
