<?xml version="1.0" encoding="utf-8"?>
<!-- Generator: Adobe Illustrator 28.1.0, SVG Export Plug-In . SVG Version: 6.00 Build 0)  -->
<svg version="1.1" id="Layer_1" xmlns="http://www.w3.org/2000/svg" xmlns:xlink="http://www.w3.org/1999/xlink" x="0px" y="0px"
	 viewBox="0 0 841.9 595.3" style="enable-background:new 0 0 841.9 595.3;" xml:space="preserve">
<g>
	<path d="M191.1,341.7c-7.2-2.6-12.6-7.3-17.1-13.1c-12.9-16.9-10-39.7,6.6-52.9c7.4-5.9,15.8-9.3,25.1-10.7
		c20.2-3.1,39.1,1.1,56.4,11.6c22.1,13.5,39.3,31.8,51.4,54.8c4.1,7.8,6.6,16.1,8.9,24.5c0.8,3.2,1.7,6.3,2.6,9.5
		c0.8-0.2,0.6-0.9,0.7-1.3c1.6-14.9,3.4-29.7,5.8-44.5c1.7-10.3,3.3-20.5,5.8-30.6c0.4-1.6,0.4-1.6-1.2-2.1
		c-0.8-0.3-1.7-0.5-2.5-0.8c-3-0.9-3.3-1.6-1.8-4.2c2.4-4.2,4.9-8.5,7.3-12.7c2.2-4,4.4-8,6.6-12c0.3-0.6,0.9-1.2,0.7-2.1
		c-1.8-0.2-3.7-0.3-5.6-0.5c-8.3-0.6-16.6-1.1-24.9-2.1c-10.3-1.1-20.5-2.6-30.2-6.2c-2-0.7-3.9-1.6-5.7-2.6
		c-7.1-4.1-9.8-9.9-8.3-18c0.9-4.8,2.7-9.4,4.8-13.8c4.6-9.5,10.4-18.3,16.7-26.8c10.7-14.4,22.4-28,36-39.8
		c6.1-5.3,12.6-10.1,20-13.6c5.7-2.7,11.6-4,17.9-4c3.9,0,7.8-0.1,11.7-0.1c2.2,0,4.3-0.3,6.4-1c1.8-0.6,3.3-1.6,4.3-3.7
		c-2.8-0.4-5.3-0.8-7.9-1.1c-1.1-0.2-2.2-0.3-3.3-0.5c-1.8-0.4-2.6-1.2-2-2.8c0.9-2.8,0.2-5-1.3-7.5c-2.1-3.5-2.8-7.6-3.5-11.6
		c-0.6-3.2-1-6.5-1.1-9.8c0-0.2,0-0.5,0-0.7c-0.7-1.5-0.8-2.9-0.2-4.5c0.4-0.9-0.2-1.6-1.4-1.6c-0.9,0-1.7-0.2-2.6-0.4
		c-1.7-0.4-2.2-1.2-2.1-3c0-0.5,0.1-1,0.2-1.4c2.9-10.8,9.6-17.8,20.5-20.8c0.4-0.1,0.8-0.1,1.2-0.3c6.5-3.5,13.2-2.7,19.8-0.6
		c11.8,3.8,18.9,13.1,19.9,25.6c0.2,2.2,0.3,4.5,0.3,6.7c-0.1,9.8-0.3,19.7,0.3,29.5c0.2,3.6,0,3.7-3.6,3.3
		c-4.1-0.5-8.1-0.8-12.2-0.9c-2-0.1-2,0-1.9,2c0.1,1.8,0.3,3.5,0.7,5.2c0.6,2.6,2.1,4.2,4.7,4.9c3.8,1,7.7,1.5,11.5,2.1
		c2.5,0.4,5.1,0.5,7.6,1c8.9,2.1,18.2,2.8,26.9,5.8c6.9,2.4,13.3,5.6,18.9,10.2c13.3,10.9,24.9,23.5,34.6,37.7
		c3.2,4.7,5.8,9.8,7,15.4c1.5,7.1-0.2,13.1-5.5,18.1c-3.9,3.7-8.6,6.4-13.4,8.7c-0.5,0.2-1,0.5-1.5,0.7c-1.1,0.4-1.2,1.1-0.8,2
		c3.2,8.1,4.8,16.6,6,25.1c2.4,16.5,2.6,33-0.1,49.5c-0.1,0.5-0.1,1-0.2,1.4c0,0.2,0,0.5,0.1,0.7c0.9-0.1,1.3-0.9,1.9-1.4
		c10.3-9.5,21.9-16.6,35.5-20.2c9-2.4,18-2.9,27-0.6c16.5,4.2,26.6,14.8,30.5,31.4c2.5,10.7,1.7,21.3-1.2,31.8
		c-3,11.2-7.9,21.6-13.9,31.5c-1.1,1.8-2.4,3.5-3.9,5.3c0.9,0.4,1.5,0.1,2.1-0.1c12.2-3,24.5-4.8,37-4.5c12.1,0.3,23.6,2.8,34.2,9
		c6.9,4.1,12.8,9.2,17.4,15.9c2.9,4.2,4.9,8.8,5.7,13.9c1,6-0.2,11.6-3.1,16.9c-2.3,4.1-5.4,7.5-9,10.5c-6,5-12.8,8.8-19.8,12
		c-10.7,4.9-21.8,8.7-32.9,12.5c-12,4.1-24.1,8-35.8,13c-14.9,6.3-28.9,14.1-40.9,25.1c-12.7,11.5-22.6,25-30.1,40.3
		c-0.7,1.4-1.3,2.9-1.6,4.5c-0.2,1.1,0.1,1.9,1.1,2.6c3.9,2.7,8,5.4,11.6,8.5c2.3,2,4.7,2.4,7.6,2.4c23.2-0.1,46.4,0,69.6,0
		c0.8,0,1.6,0,2.4,0.1c0.6,0,1.1,0.4,1.1,1c0,0.7-0.4,1-1,1.2c-0.4,0.1-0.8,0.1-1.2,0.1c-0.6,0-1.3,0-1.9,0
		c-128.2,0-256.4,0-384.6,0c-1,0-1.9,0-2.9-0.1c-0.7-0.1-1.2-0.5-1.1-1.3c0.1-0.7,0.6-0.9,1.2-0.9c0.8,0,1.6,0,2.4,0
		c23.9,0,47.8,0,71.7,0c1.6,0,3-0.1,4.2-1.6c0.9-1.2,2.3-2,3.6-2.8c1-0.7,1.5-1.5,1.6-2.7c0.2-2.7,0.6-5.5-0.1-8.1
		c-1.6-6.6-2.1-13.4-4.4-19.8c-2.3-6.3-5.1-12.4-8.8-18.1c-3.7-5.7-8-11-12.7-15.9c-7.4-7.7-15.6-14.4-24.1-20.8
		c-10.2-7.7-20.7-14.8-31-22.3c-9.6-7-18.8-14.4-26.9-23.1c-8.7-9.4-15.9-19.8-20.3-32c-2.7-7.5-4.2-15.3-4-23.3
		c0.1-5.6,1-11,3.1-16.2c5.3-13.2,15.1-20.4,28.9-22.6C189.5,342.2,190.2,342.3,191.1,341.7z M291.6,563.6c0.4-0.1,0.6-0.1,0.7-0.2
		c5.3-3.9,10.3-8.1,15.3-12.3c0.9-0.7,1.1-1.6,1.3-2.7c1.2-8.1,2.4-16.3,3.6-24.4c1-6.7,2.2-13.4,2.9-20.2c1.5-15,2.5-30,3.3-45
		c1-17,1.8-34,3-51c0.6-7.7,1.3-15.5,1.8-23.2c0.2-3.6,1-7.2,0.3-11c-2-11.4-4.7-22.6-9.2-33.2c-11.8-27.8-31.5-48.8-57.5-63.6
		c-15.8-9-33-12.2-51.2-9.4c-9,1.4-17.3,4.7-24.4,10.5c-8.4,7-13.3,15.8-13.2,26.8c0,14.5,7.1,25.2,19.1,32.9c1.7,1.1,3.6,1.9,5.6,2
		c1.5,0.1,2,0.7,1.7,2c2.6,0.3,5.1,0.4,7.5,0.8c9.2,1.4,17.4,5.1,25.2,10c10.3,6.4,18.8,14.8,26.4,24.2c9.7,12,17.6,25.1,24.4,39
		c13.6,27.8,23.1,57,29,87.4c1,5.3,1.9,10.5,2.5,15.9c0.2,1.8,0.2,1.9-1.8,2.7c-0.5-0.6-0.5-1.3-0.6-2c-0.5-3.6-1-7.3-1.6-10.9
		c-5.3-30.6-14.6-59.9-27.8-88c-6.8-14.4-14.8-28.2-24.7-40.8c-7.2-9.2-15.3-17.4-25-23.9c-9.2-6.1-19-10.4-30.1-11.5
		c-17.9-1.9-33.4,8.9-37.6,26.4c-2.5,10.2-1.4,20.2,1.7,30c3.8,12,10.5,22.4,18.8,31.7c8.4,9.4,18.1,17.3,28.3,24.8
		c10.9,8,22.1,15.5,32.9,23.7c10.3,7.9,20.1,16.3,28.5,26.3c11.7,13.9,18.3,29.9,20.6,47.8C291.7,557.9,291.5,560.7,291.6,563.6z
		 M286.5,571.2c0.8,0.5,1.5,0.3,2.2,0.3c17,0,33.9,0,50.9,0c2.6,0,2.3,0.3,3-2.3c5.3-20.7,11-41.2,16.1-61.9
		c7.2-29.7,14.8-59.2,22.2-88.9c0.7-2.8,1-2.3-1.7-3.1c-3.7-1.1-7.2-2.7-10.2-5.2c-6.5-5.5-6.8-13.4-1-19.6c2.2-2.3,4.8-4,7.6-5.4
		c3.9-2,8.1-3.3,12.4-4.3c1.7-0.4,2.5-1.1,3.1-2.8c4.1-12.4,8.3-24.7,12.5-37c0.9-2.7,1.4-5.3,0.9-8.2c-1-6.6-1.8-13.1-2.6-19.7
		c-0.2-1.3-0.7-2.1-1.9-2.7c-2.7-1.2-5.4-2.4-8.2-3.3c-0.8-0.3-1.7-0.6-2.5-0.9c-0.6-0.2-1.2-0.6-1-1.4c0.3-0.9,1-0.9,1.8-0.6
		c2,0.6,4,1.2,5.9,1.9c2.8,1.1,5.6,2.4,8.3,3.7c0.8,0.4,1.6,1.1,0.9,1.8c-1.2,1.2-0.8,2.4-0.6,3.6c2.5,19.3,5.1,38.5,7.6,57.8
		c0.3,2.1,0.3,2.1,2.4,1.6c11.2-2.9,21.4-7.9,30.4-15.2c12.1-9.8,21.2-21.9,27.2-36.3c0.7-1.7,1-3.3,0.5-5.1c-0.8-2.8-1.3-5.6-2-8.4
		c-1.7-6.3-4.2-12.2-7-18.1c-0.6-1.2-1.3-1.7-2.8-1.6c-9.5,1.2-19.1,1.4-28.7,1.4c-8.2,0-16.5-0.1-24.7-0.3
		c-14.7-0.3-29.4-0.4-44.1-0.6c-6.8-0.1-13.6-0.6-20.3-2c-3.1-0.6-3.1-0.6-3.8,2.5c-2.9,13.6-5.2,27.3-7.1,41.1
		c-2.2,15.7-4,31.4-5.4,47.2c-1.6,16.6-2.7,33.3-3.6,50c-0.4,7.3-0.7,14.5-1.2,21.8c-0.8,13.7-1.6,27.5-2.8,41.2
		c-0.6,6.8-1,13.5-2.1,20.2c-1.7,9.9-3,19.9-4.5,29.9c-0.3,1.7-0.5,3.5-0.8,5.2c-0.3,2.2-0.3,2.2,1.9,2.4c0.2,0,0.3,0,0.5,0
		c2,0.3,4,0.6,5.9,0.9c0.9,0.1,1.9,0.3,1.7,1.5c-0.2,1.2-1.3,0.9-2.2,0.8c-0.1,0-0.2,0-0.2,0c-2.1-0.3-4.1-0.5-6.2-1
		c-2-0.5-3.5,0.1-5,1.4c-6.3,5.7-13,10.9-19.8,15.9C287.7,570.1,287,570.4,286.5,571.2z M501.2,558c0.7-1,0.6-2,0.9-2.9
		c0.4-1,0.7-2,1.2-2.9c7.1-14.5,16.5-27.4,28.1-38.6c11.9-11.4,25.9-19.7,40.9-26.4c10.5-4.7,21.4-8.4,32.3-12.1
		c12-4.1,24-8,35.6-13c7.5-3.2,14.8-6.9,21.3-11.9c3.4-2.7,6.5-5.6,9-9.3c3.8-5.6,5.4-11.7,4-18.5c-0.9-4.2-2.6-8-5-11.6
		c-4.6-6.8-10.7-12.1-17.9-16c-9.7-5.4-20.3-7.6-31.3-8c-12.2-0.4-24.2,1.3-36.1,4.2c-31.1,7.6-56.5,23.8-75.3,49.9
		c-6.1,8.5-11.4,17.5-15.9,27c-1,2.1-1.5,4.1-1.2,6.4c1,11.3,2,22.6,3,33.9c0.1,1.1,0.1,2.3,0.7,3.4c0.3-0.3,0.4-0.4,0.5-0.5
		c1-2.2,1.9-4.4,2.9-6.6c16.6-38.2,44.9-63.7,83.7-77.9c5.7-2.1,11.6-3.6,17.7-4.1c0.9-0.1,1.8-0.1,2.6,0c0.5,0,0.9,0.4,0.8,1
		c0,0.4-0.2,0.8-0.6,0.9c-0.4,0.1-0.8,0.1-1.2,0.2c-3.3,0.2-6.5,0.8-9.7,1.7c-38.1,10.9-66.9,33.5-86,68.3
		c-3.8,6.9-6.4,14.3-9.8,21.4c-0.4,0.9-0.4,1.7-0.3,2.6c0.7,5.3,1,10.7,1.3,16c0.4,7,1.3,13.9,2,20.8
		C499.6,556.7,499.9,557.7,501.2,558z M487.2,420.9c0.9-1,1-1.9,1.3-2.6c1.8-5.2,3.7-10.4,5.6-15.6c10.4-27.4,27.2-50.2,48.8-69.6
		c2.7-2.4,5.5-4.6,8.6-6.5c0.7-0.4,1.6-1.2,2.3-0.1c0.7,1.1-0.4,1.5-1.1,2c-2.4,1.5-4.6,3.2-6.7,5c-14.5,12.9-27,27.4-37.1,44.1
		c-8.4,13.9-14,29-19.1,44.4c-1.4,4.1-2,8.1-1.5,12.4c1.1,9.9,1.8,19.9,2.6,29.9c0,0.4-0.1,1,0.7,1.2c0.2-0.4,0.4-0.8,0.6-1.2
		c2.5-5.5,5.5-10.6,8.7-15.7c16.8-27,40.1-45.9,70.3-56.1c3.2-1.1,5.9-3.1,8.1-5.6c1.3-1.4,2.4-3,3.4-4.7
		c5.8-9.6,10.5-19.6,13.4-30.4c2.8-10.3,3.7-20.6,1.1-31.1c-3-12.5-9.9-21.9-22-27c-9.1-3.9-18.6-4.5-28.2-2.6
		c-16.3,3.3-29.8,11.6-41.5,23.2c-1.4,1.4-2.2,3-2.7,5c-3.6,16.4-10,31.7-19.5,45.6c-0.7,1-0.9,1.9-0.8,3.1
		c1.2,13.6,2.4,27.2,3.5,40.9C486.4,412.7,486.8,416.5,487.2,420.9z M398.3,571.5c16.8,0,33.6,0,50.4,0c0.6,0,1.3,0,1.9,0
		c1.1,0.1,1.4-0.4,1.2-1.5c-0.5-2.2-0.8-4.4-1.3-6.6c-2.7-13.9-5-27.8-8-41.7c-5.7-26.5-11.4-53-17-79.5c-1.9-9-3.8-18-5.8-27
		c-0.4-2.1-0.5-2.1-2.5-1.5c-0.2,0-0.3,0.1-0.5,0.2c-10.1,2.7-20.4,4-30.9,2.7c-2.1-0.3-2.1-0.2-2.7,2c-2.1,8.2-4.2,16.4-6.2,24.6
		c-5.4,22.4-11.5,44.5-16.5,67c-1.5,6.9-3.6,13.6-5.4,20.4c-3.4,12.8-6.8,25.6-10.2,38.5c-0.6,2.3-0.6,2.3,1.9,2.3
		c0.4,0,0.8,0,1.2,0C364.8,571.5,381.6,571.5,398.3,571.5z M480.2,370c-0.3,0.1-0.4,0.1-0.5,0.2c-0.4,0.4-0.7,0.8-1.1,1.3
		c-14.7,18.7-32.8,32.6-55.3,40.6c-1.7,0.6-1.7,0.6-1.3,2.6c5.7,26.7,11.5,53.4,17.2,80.2c2.8,13,5.8,25.9,8.2,38.9
		c2.2,11.7,4.4,23.4,6.5,35.1c0.5,2.7,0.5,2.7,2.6,2.7c18.9,0,37.9,0,56.8,0c0.5,0,1.1,0.3,1.5-0.7c-4.2-3.1-8.5-6.1-12.7-9.3
		c-1.7-1.3-3.3-1.9-5.6-1.7c-4.7,0.5-9.4,0.8-14.1,1.4c-0.9,0.1-2,0.7-2.5-0.6c-0.3-0.7,0.5-1.3,2.2-1.6c4.3-0.7,8.7-1.2,13.1-1.5
		c1.9-0.1,2-0.1,1.8-2c-0.9-7.8-1.6-15.6-2.2-23.4c-0.4-6.1-0.4-12.3-1.7-18.4c-0.4-1.6-0.7-3.3-0.9-4.9c-0.6-5.9-1-11.8-1.5-17.7
		c-0.7-8.4-1.4-16.7-2.1-25.1c-1-11.3-2.1-22.6-2.3-34c0-1.9,0.2-3.9-1.1-5.5c-0.2-0.3-0.2-0.8-0.2-1.2c-0.3-3.7-0.7-7.5-1-11.2
		c-1-12.1-2-24.2-3.1-36.3C480.8,375.3,480.8,372.7,480.2,370z M405.8,102.5c-1,0.8-1.5,1.6-1.8,2.4c-0.8,2.2-2.3,3.8-3.9,5.4
		c-1.8,1.7-3.6,3.4-5.8,4.7c-0.7,0.4-1,0.9-1.1,1.7c-0.2,1.9-0.3,3.8-0.9,5.7c-0.9,3-2.7,5.1-5.8,6.2c-5,1.8-10,1.7-15.2,1.5
		c-2.1-0.1-4.1-0.2-6.2-0.1c-1,0.1-1.6,0.4-1.6,1.5c-0.4,8.3-0.9,16.6-1.4,24.9c-0.1,1.2,0.3,1.7,1.5,1.8c3.9,0.2,7.8,0.5,11.7,0.7
		c7.1,0.4,14.2,0.8,21.3,1.2c10.2,0.6,20.4,1.2,30.6,1.8c2.1,0.1,2.1,0.1,2.1-2c0.1-5.9,0.2-11.8,0.3-17.8c0-0.7,0-1.4,0.1-2.2
		c0.1-0.6,0.3-1.2,1-1.1c0.7,0.1,0.9,0.6,0.9,1.2c0,0.6,0,1.1,0,1.7c-0.1,6-0.1,12-0.3,18c0,1.6,0.4,2.4,1.9,3.1
		c4.2,2,8.2,4.4,11.8,7.4c7.3,5.9,13.9,12.5,20.2,19.4c1.8,2,3.2,4.2,4,6.7c0.3,1,0.7,2,0.5,3.1c-0.7,3.4-1.8,6.7-4.9,8.7
		c-1.4,0.9-2.8,1.8-4.4,2.5c-4.7,2.2-9.5,3.7-14.5,4.9c-16.1,4.1-32.5,6.3-49.1,6.8c-6.2,0.2-12.3,0.1-18.4-0.6
		c-2.6-0.3-5.2-0.9-7.8-1.2c-1.1-0.2-2.2-0.4-3.1,0.1c-0.1,0.5,0.1,0.8,0.4,1c1.2,1.1,2.6,1.8,3.9,2.7c0.8,0.5,2.1,0.9,1.7,2.2
		c-0.4,1.3-1.7,0.9-2.7,0.9c-3.4,0-6.9-0.2-10.3-0.3c-1.9,0-3.7-0.1-5.6,0.5c1,0.4,2,0.6,3,0.8c2.7,0.4,5.4,0.7,8.1,1
		c0.9,0.1,2.3-0.1,2.1,1.3c-0.1,1.3-1.5,0.9-2.4,0.9c-3.3-0.3-6.5-0.4-9.8-0.3c-1.1,0-2.1,0.1-3.3,0.7c1.1,0.5,1.9,0.7,2.8,0.7
		c3.2,0.3,6.4,0.5,9.6,0.9c1,0.1,2.5-0.2,2.5,1.2c0,1.6-1.6,1.2-2.7,1.2c-3.4,0.1-6.9,0-10.3,0.6c-0.5,0.1-1.2-0.1-1.4,0.6
		c0.3,0.4,0.7,0.4,1.1,0.4c3.8,0.8,7.6,0.8,11.5,0.6c0.9-0.1,2.2-0.6,2.5,0.6c0.3,1.5-1.4,1.3-2.2,1.5c-2.4,0.3-4.8,0.4-7.2,0.7
		c-1.8,0.2-3.6,0.2-5.4,1.2c2.2,1,4.3,1.3,6.5,1.6c9.5,1.4,19,2.3,28.6,2.8c5.3,0.3,10.6,0.3,15.8-0.1c9.7-0.6,19.3-1.4,29-1.7
		c6.5-0.2,12.9-0.8,19.3-1.6c7.8-1.1,15.6-2.7,23.3-4.7c9.2-2.4,18.3-5.3,26.8-9.7c4.2-2.1,8-4.6,11.3-8c3.8-3.9,5.3-8.5,4.5-13.8
		c-0.2-1.7-0.6-3.3-1.2-4.9c-1.9-5.5-4.9-10.4-8.3-15.1c-8.2-11.3-17.7-21.5-28.1-30.8c-8.3-7.4-17.9-12.2-28.7-14.7
		c-8.3-1.9-16.7-2.8-25.1-3.8c-4.9-0.6-9.6-1.6-14.3-2.8c-3.4-0.9-5.3-3-6.1-6.4c-0.5-2.1-0.8-4.2-0.9-6.4
		c-0.2-5.3-0.1-10.6-0.1-15.8C405.8,105.2,405.8,104,405.8,102.5z M472.1,241.6c1.4,1.8,2.6,3.4,3.6,5.1c4.4,7.4,6.2,15.5,6.8,24
		c1,13.9-1,27.4-4.6,40.8c-3,11.6-8,22.3-15.1,31.9c-11.1,14.9-25.1,25.9-42.9,31.7c-7.5,2.4-15.2,3.9-22.8,5.6
		c-5.6,1.2-11.3,2.4-16.7,4.4c-4.5,1.7-8.6,3.8-11.8,7.5c-4.1,4.8-3.8,10.6,0.6,15.1c2.1,2.1,4.6,3.5,7.2,4.6c5,2,10.2,2.8,15.5,2.9
		c12.2,0.3,23.8-2.3,35.1-6.8c20-8,36.4-20.9,49.6-37.8c18.3-23.5,26.7-50.5,28-79.9c0.7-15.1-1-30-4.3-44.8c-0.9-4-1.9-8.1-3.7-12
		C488.7,237,480.7,239.5,472.1,241.6z M361.5,130.4c-0.5-0.2-1-0.1-1.4,0c-5.3,0.9-10.1,3-14.7,5.7c-6.4,3.7-12.1,8.3-17.6,13.3
		c-14.5,13.1-26.9,28-37.9,44.1c-5.1,7.4-9.9,15.1-13.3,23.5c-1.7,4.1-3.1,8.2-3.2,12.7c-0.1,4.4,1.6,7.9,5.1,10.6
		c2.1,1.6,4.4,2.8,6.9,3.8c6.5,2.6,13.3,4,20.2,5.1c8.6,1.4,17.3,2.2,26,2.8c6.6,0.5,13.2,1.2,19.9,0.8c12.9-0.6,25.9-0.9,38.8-1.3
		c3.1-0.1,6.2-0.3,9.3-0.9c1.5-0.3,3.1-0.5,4.7-1.4c-0.5-0.2-0.7-0.3-0.9-0.3c-3.3,0.2-6.5,0-9.8-0.1c-7.7-0.2-15.3-0.8-23-1.6
		c-5.1-0.5-10.2-1-15.2-2.2c-1.2-0.3-2.3-0.6-3.4-1.2c-1.5-0.9-1.6-2.1-0.2-3.2c0.4-0.3,0.8-0.5,1.4-0.9c-0.7-0.3-1.2-0.5-1.6-0.7
		c-0.8-0.4-1.6-0.8-1.7-1.8c0-1.1,0.8-1.5,1.6-1.8c0.5-0.2,1.2-0.1,1.3-0.8c-0.8-0.3-1.5-0.5-2.2-0.9c-1.6-0.9-1.6-2.2,0-3.1
		c0.6-0.4,1.4-0.3,1.9-0.9c-0.6-0.6-1.3-0.6-2-0.6c-3.5-0.3-7-0.6-10.5-1c-5.8-0.6-11.6-1.4-17.1-3.5c-3.5-1.3-6.7-2.9-9.4-5.6
		c-3.4-3.4-4.6-7.4-3.3-12.1c0.2-0.6,0.6-1.1,0.2-1.9c-1-0.1-2,0.1-3,0.3c-0.9,0.1-1.9,0.2-2.9,0.2c-0.5,0-0.9-0.3-1-0.8
		c-0.1-0.5,0.2-1,0.6-1.2c0.5-0.2,1.1-0.4,1.6-0.4c1.5-0.2,3-0.5,4.5-0.6c1.4-0.1,2.3-0.7,3.1-1.9c1-1.6,2.1-3.2,3.4-4.7
		c8.4-10,18-18.8,28.7-26.4c2.1-1.5,4.2-2.9,5.8-4.9c1.9-2.3,4.5-3.8,7-5.3c1.2-0.7,1.7-1.6,1.8-3.1c0.5-7.7,1.2-15.5,1.8-23.2
		C361.7,132.1,361.9,131.2,361.5,130.4z M468.5,286.7c-0.1-0.5-0.1-0.7-0.2-1c-5.4-12.8-9.9-26-14.5-39.1c-0.5-1.5-0.7-1.7-2.3-1.2
		c-5.1,1.5-10.4,1.4-15.7,1.7c-8.9,0.5-17.9,1-26.8,1.4c-0.5,0-1.2-0.1-1.5,0.5c-0.9,2.6-3.3,2.9-5.4,3.4c-3.9,1-7.9,1.2-11.9,1.4
		c-13,0.4-26,1.1-39.1,1c-1.3,0-2,0.4-2.6,1.6c-4.1,8.4-8.9,16.5-13.5,24.6c-0.4,0.7-1,1.4-1.1,2.3c0.1,0.1,0.3,0.2,0.4,0.3
		c0.5,0.2,1.1,0.4,1.6,0.5c8.6,2.8,17.5,3.7,26.5,3.8c12.4,0.2,24.8,0.3,37.2,0.4c16.3,0.3,32.6,0.8,48.9,0.1
		C455.1,288.3,461.7,287.3,468.5,286.7z M387.6,220.2c1.8,0.4,3.2,0.3,4.5,0.3c17-0.1,33.8-2.2,50.4-6.1c5.6-1.3,11.1-2.9,16.4-5.2
		c2.1-0.9,4.2-2,5.9-3.6c1.3-1.2,2.1-2.7,2.1-4.6c0-2.1-0.8-3.7-1.9-5.3c-2.2-3.3-5-6-8.2-8.4c-17.2-12.5-36.3-16.4-57.1-11.8
		c-7.1,1.6-13.5,4.8-18.8,10c-0.7,0.7-1.5,1.2-1.7,2.4c1.3,0.8,2.6,1.5,3.9,2.3c1.1,0.7,2.1,0.8,3.4,0.4c4.7-1.5,9.6-2.5,14.5-3.3
		c0.7-0.1,1.4-0.2,2.1-0.2c0.7,0,1.3,0.1,1.6,0.8c0.4,0.8,0,1.4-0.6,1.9c-0.4,0.4-0.8,0.7-1.3,1.1c-2.3,1.7-4.6,3.4-7,5
		c-2.2,1.5-2.2,1.5-1.6,4c0.1,0.2,0.1,0.5,0.1,0.7c0.8,3,0.3,5.9-0.6,8.7c-0.4,1.2-0.5,2.2,1.1,2.5c0.6,0.1,1,0.6,0.8,1.3
		c-0.2,0.6-0.7,0.8-1.3,0.8c-0.3,0-0.6,0-0.9-0.1c-0.5-0.1-1,0-1.2,0.5C391.2,216.6,389.6,218.3,387.6,220.2z M406.8,85.8
		c0.9-0.3,1.7-0.5,2.4-0.7c3.2-0.6,6.3,0.7,7.6,3.2c1.3,2.5,0.7,5.5-1.7,7.9c-1.6,1.6-3.5,2.6-5.7,2.8c-0.9,0.1-1.3,0.4-1.3,1.3
		c0,5.6,0,11.2,0,16.8c0,0.9,0.4,1.3,1.3,1.3c4.3,0,8.6,0.2,12.9,0.7c1,0.1,1.3-0.3,1.3-1.2c0-0.4,0-0.8,0-1.2
		c-0.6-7.7-0.5-15.5-0.3-23.2c0.1-3.6,0-7.2-0.2-10.8c-0.5-6.9-2.7-13.1-8-17.9c-5.1-4.6-11.2-7-18-7.5c-2.7-0.2-5.6-0.3-8,0.9
		c-2,1-4.2,1.3-6.2,2.1c-4.2,1.6-7.8,4.1-10.7,7.5c-2.7,3.2-4.5,6.8-5.5,10.8c-0.4,1.5-0.3,1.6,1.2,1.9c0.6,0.1,1.3,0.2,1.9,0.2
		c3,0.2,6.1,0.2,9.1,0.5c1.5,0.1,2.4-0.4,3-1.7c0.7-1.4,1.6-2.8,2.4-4.2c0.4-0.6,0.9-1.2,1.7-1.1c0.9,0.1,1.3,0.9,1.5,1.7
		c0.2,0.8,0.4,1.6,0.5,2.4c0.1,2,0.7,2,2.4,1.8c4-0.5,7.9-0.8,11.9-1.1c2.1-0.1,2.5,0.2,3.1,2.2C405.9,82.5,406.3,84,406.8,85.8z
		 M340.5,185.2c0.6,1.5,1,2.6,1.5,3.6c0.6,1.4,1,2.9,1.5,4.3c0.6,1.5-0.9,2.8-1,4.3c0,0.2-0.1,0.3-0.1,0.5c-0.3,1.6-0.3,1.7,1.3,1.7
		c2.1,0.1,4.2,0.1,6.2,0.1c0.7,0,1.6,0.1,1.6,1c0,1.2-1,1.1-1.7,1.1c-1.6,0-3.2,0-4.8,0c-3.3,0-3.4,0.2-2.9,3.4
		c0.1,0.3,0.2,0.6,0.2,0.9c0.2,0.9,0.7,1.1,1.6,0.9c1.5-0.5,3.1-0.9,4.6-1.3c1.2-0.3,2.5-0.6,3.7-0.9c0.6-0.1,1.2,0,1.4,0.6
		c0.2,0.8-0.2,1.2-0.9,1.4c-0.7,0.2-1.4,0.4-2.1,0.6c-2.2,0.7-4.4,1.1-6.6,2.1c0.4,1,1,1.6,1.6,2.2c2.3,2.3,5,3.7,8.1,4.3
		c1,0.2,2.3,0.3,2.5,1.5c0.3,1.7,1.3,1.7,2.5,1.8c1.7,0.2,3.3,0.5,5,0.8c0.5,0.1,1,0.3,1.4-0.1c1.7-2.1,4-1.6,6.2-1.3
		c4.1,0.5,8.2,1.5,12.3,1.6c1.2,0,2.6,0.6,2.6-1.5c0-0.5,0.8-0.9,1.3-1.4c1.2-1.2,2.3-2.3,2.7-4.2c-1.8-0.4-3.5-0.8-5.2-1.2
		c-0.5-0.1-1.1-0.2-1.6-0.4c-0.5-0.2-0.7-0.6-0.7-1.1c0.1-0.6,0.5-0.8,1-0.8c0.8,0,1.6,0.1,2.4,0.3c1.3,0.3,2.7,0.6,4,0.9
		c1.1,0.2,1.6-0.2,1.3-1.3c-0.3-1,0.3-2,0.4-3c-0.9,0-1.6-0.1-2.3,0c-2.5,0.3-5.1,0.7-7.6,1c-0.5,0.1-0.9,0.2-1.4,0.2
		c-0.6,0-1.1-0.2-1.2-0.9c-0.1-0.7,0.4-1,0.9-1.2c0.2-0.1,0.5-0.1,0.7-0.2c3.8-0.5,7.5-1.4,11.3-1.4c0.3-1.2-0.1-2.3-0.3-3.4
		c-0.2-1.3-1.4-2.5-0.8-3.9c0.6-1.4,2.2-1.8,3.3-2.7c1.6-1.2,3.5-2.1,5-3.9c-0.6,0.1-0.9,0.1-1.2,0.1c-3.9,0.7-7.7,1.6-11.4,2.8
		c-1.7,0.5-3.1,0.4-4.5-0.6c-0.5-0.3-1-0.6-1.4-0.9c-9.3-5.2-18.9-5.8-28.9-2.2c-1.4,0.5-2.5,0.5-3.8-0.4
		C345.9,187.6,343.5,186.4,340.5,185.2z M430.8,172.8c0.1-2.3,0.1-4.3-0.2-6.3c-0.3-2.1-0.4-2.1-2.5-2.3c-11.3-0.7-22.5-1.3-33.8-2
		c-9.5-0.6-19-1.1-28.5-1.6c-6-0.4-6-0.4-10.7,3.3c-0.9,0.7-1.7,1.4-2.5,2.2c-0.5,0.5-1,1.1-1.3,1.7c-1.3,2.1-0.8,4.1,1.2,5.4
		c1.2,0.8,2.6,1.1,4.1,1c0.6,0,1.1-0.1,1.7-0.1c0.5,0,0.9,0.4,1,0.9c0.1,0.5-0.2,0.9-0.6,1.2c-0.7,0.4-1.5,0.4-2.3,0.5
		c-0.6,0-1.1,0.3-1.1,1c-0.1,2.6-0.7,5.2-0.6,7.9c0.3,0,0.6,0.1,0.8,0.1c6.7-1.4,13.4-1.1,19.9,0.8c1.1,0.3,1.6-0.1,2.2-0.8
		c3.6-4.2,8-7.3,13-9.6c7-3.2,14.4-4.6,22.1-4.9C418.6,171.1,424.6,171.5,430.8,172.8z M474.5,315.1c0.9-0.8,0.9-1.8,1.2-2.7
		c2.4-8.4,3.9-17,4.7-25.7c0.8-9.1,0.6-18.2-1.6-27.2c-1.4-5.5-3.6-10.6-7-15.1c-1.2-1.6-2.6-2.3-4.7-1.8c-2.9,0.8-6,1.2-8.9,1.7
		c-2.8,0.5-2.9,0.5-1.9,3.1c4.8,12.4,9,25.1,14.2,37.4c0.2,0.4,0.4,0.9,0.5,1.3c0.5,2-0.2,3-2.3,3.1c-1.1,0-2.3-0.1-3.5,0.5
		C469.6,297.8,472.4,306.3,474.5,315.1z M385.4,78.4c-1.1,1.6-2,3-2.8,4.3c-0.2,0.4-0.2,0.8-0.1,1.2c0.7,2.9-0.3,5.5-1.5,8.1
		c-0.7,1.5-1.6,2.9-2.4,4.4c-0.5,1-1.7,2.2-0.8,3.2c0.9,0.9,2.3,0.1,3.4-0.4c1.5-0.6,2.8-1.5,4.3-2.2c0.6-0.3,1.2-0.6,1.7,0.1
		c0.5,0.7-0.1,1.2-0.6,1.6c-2,1.3-4.1,2.4-6.5,3c-0.5,0.1-0.9,0.2-1.4,0.2c-2.5,0.1-3.5-1.2-3-3.7c0.3-1.3,1-2.4,1.6-3.5
		c0.8-1.6,1.7-3.1,2.5-4.7c0.7-1.5,1.3-3.1,1.2-4.8c0-0.9-0.2-1.7-1.5-1.8c-2.1-0.1-4.2-0.2-6.2-0.3c-0.7,0-1.3,0.2-1.3,1
		c0,0.9,0.7,0.7,1.2,0.7c2-0.1,3.8,0.3,5.6,1.2c0.7,0.3,1.3,0.8,1.1,1.6c-0.3,1.3-0.6,2.7-1.6,3.7c-1.5,1.5-3.6,1.1-4.6-0.8
		c-0.4-0.7-0.4-1.5-0.5-2.3c0-0.3,0-0.7-0.4-0.7c-0.6,0-0.6,0.4-0.6,0.8c0.2,2.3,0.3,4.6,0.6,6.9c0.7,4.7,1.4,9.5,3.7,13.8
		c2.8,5.4,7.7,7.4,13.4,5.3c7.8-2.9,12-9.3,15.6-16.2c0.7-1.4,1.2-1.7,2.6-1.6c2.5,0.2,4.5-0.9,6-2.8c1-1.2,1.3-2.6,0.7-4
		c-0.6-1.6-2-2.3-3.6-2.4c-1-0.1-1.9,0-2.8,0.4c-2.4,1.1-3.7,0.4-4.3-2.1c-0.2-0.9-0.5-1.9-0.7-2.8c-0.2-1.3-0.9-1.7-2.2-1.6
		c-3.6,0.4-7.2,0.7-10.7,1.1C386.7,82.8,386.3,82.6,385.4,78.4z M353.9,218.6c0-0.2,0.1-0.3,0.1-0.5c-4.9-1-9-3.3-11.8-7.5
		c-0.3-0.5-0.7-0.6-1.2-0.5c-0.5,0.1-1.1,0.3-1.6,0.4c-0.7,0.1-1.3,0-1.5-0.8c-0.2-0.8,0.3-1.1,0.9-1.5c1.7-0.9,1.7-0.9,1.4-2.9
		c-0.1-0.6-0.2-1.3-0.2-1.9c-0.2-1.6-0.2-1.7-1.9-1.6c-2.7,0.1-5.4,0.3-8.1,0.5c-5,0.3-10,1.1-15,1.6c-1.4,0.1-2.1,0.8-2.5,2.1
		c-1.6,4.4-0.9,8.1,2.5,11.4c1.2,1.1,2.5,2,3.9,2.8c3.6,2,7.5,3.3,11.5,4.1c0.3,0.1,0.6,0.1,0.8-0.3c-0.1-4,1.7-6.2,5.7-7
		c1.8-0.4,3.7-0.3,5.5-0.1C346,217.7,350,218.2,353.9,218.6z M314.8,201.3c1.2,0.4,2.1,0.1,2.9,0c6.3-0.8,12.7-1.5,19.1-1.7
		c3-0.1,2.8-0.1,3.8-2.9c0.7-2,0.6-3.9-0.3-5.8c-0.8-1.9-1.6-3.8-2.5-5.7c-0.4-1-1.3-2.1-0.3-3.1c1-1,2.1-0.2,3.1,0.3
		c2.8,1.3,5.7,2.5,8.3,4.2c1.1,0.7,1.9,0.4,2.9,0c1.1-0.5,0.1-1.2,0.2-1.8c0.1-0.5,0.1-1.1,0.2-1.7c0.2-1.7,0.4-3.5,0.6-5.2
		c0.1-1,0-1.8-1.1-2.3c-1.7-0.7-2.8-2.1-3.5-3.8c-0.2-0.4-0.1-1-1-1.1C335.4,179.5,323.7,188.8,314.8,201.3z M393.3,378.9
		c0.6,0.5,1,0.4,1.4,0.3c4.5-1,9-1.9,13.6-2.9c1.7-0.4,1.8-0.4,1.6-2.2c-1.1-8.3-2.1-16.6-3.3-24.9c-0.2-1.8-0.3-3.7-1.3-5.5
		C401.2,355.4,397.2,367.2,393.3,378.9z M369.3,225.5c-2.1-1.8-3.8-3.4-6.3-3.7c-5.3-0.5-10.6-1.3-15.9-1.9
		c-2.5-0.3-5.1-0.7-7.6-0.8c-1.6,0-3.2,0.1-4.6,0.9c-2.2,1.3-2.4,3-0.7,5.1c0.4-0.3,0.3-0.9,0.4-1.3c0.3-1.1,0.9-2,2-2.6
		c0.5-0.2,1-0.2,1.3,0.2c0.4,0.5,0.2,0.9-0.2,1.2c-0.6,0.4-1.1,0.9-1.2,1.7c-0.1,0.6-0.2,1.2,0.6,1.3c0.6,0.1,1.1,0.1,1.3-0.6
		c0.1-0.5,0.3-0.9,0.6-1.3c0.4-0.6,0.9-1.1,1.7-1.3c0.5-0.1,1,0,1.2,0.5c0.3,0.5,0,0.9-0.5,1.2c-0.4,0.2-0.9,0.5-1,0.9
		c-0.2,0.5-0.2,1.1,0.5,1.1c3.6,0.1,7.2,1.5,10.8-0.1c0.6-0.3,1.4-0.3,2.1-0.4c4.3-0.5,8.6-0.2,12.9-0.1
		C367.3,225.5,368.1,225.5,369.3,225.5z M454.9,182.4c-6.8-6.5-13.4-13-22.2-17.3c0.2,2.3,0.3,4.4,0.4,6.4c0.1,1.8,0.1,1.9,1.9,2.4
		c6.6,1.9,12.8,4.5,18.6,8.1C453.9,182.2,454.2,182.5,454.9,182.4z M379.1,116c-0.2,0.9-0.4,1.4-0.5,1.9c-0.3,0.9,0.1,1.4,1,1.5
		c3.2,0.4,6.3,0.7,9.5,1.1c1,0.1,1.5-0.4,1.5-1.3c0-0.4,0.1-0.8,0.2-1.2c0.1-0.8-0.1-1.2-1-0.9C386.2,118,382.7,117.8,379.1,116z
		 M376.1,89.8c0.8-0.1,1-0.8,1.1-1.4c0.1-0.8-0.6-0.8-1.1-0.9c-0.5-0.1-0.7,0.4-0.7,0.7C375.4,88.8,375.4,89.5,376.1,89.8z"/>
	<path d="M277,128c0.4,0.6,0.8,1.3,1.2,1.9c1.6,2.3,3.1,4.7,3.9,7.4c0.4,1.3,0.8,2.6,0.5,4c-0.3,2.2-1.6,3.4-3.8,3.7
		c-1.4,0.2-2.9,0-4.3-0.4c-3.2-0.8-6.2-2.2-9-3.8c-4.9-2.7-9.5-5.8-14-9.3c-0.6-0.5-1.2-1.1-1.9-1.4c-0.5,0.3-0.2,0.7-0.1,1
		c1.7,5,2.5,10.1,0.6,15.3c-0.4,1,0.3,1.2,0.9,1.6c2.6,1.5,4.9,3.3,7.1,5.2c2.6,2.3,4.8,4.9,6.6,7.9c1,1.7,1.8,3.6,2,5.6
		c0.5,3.9-1.6,6.4-5.4,6.5c-2.5,0.1-4.9-0.7-7.2-1.6c-3.4-1.3-6.6-2.9-9.7-4.7c-0.7-0.4-1.3-0.9-2.4-1.1c0.6,1,1.1,1.7,1.5,2.4
		c2.2,3.4,4.2,6.8,5.4,10.7c0.7,2.2,1.2,4.5,1,6.8c-0.5,4-2.9,6.3-6.9,6.7c-1.7,0.1-3.5,0-5.2-0.4c-0.3,1,0.3,1.5,0.6,2.1
		c1.1,2.3,2.2,4.6,2.8,7.1c0.4,1.5,0.6,3,0.4,4.5c-0.3,1.9-1.4,3-3.4,3.1c-1.6,0.1-3-0.3-4.4-0.8c-3.2-1.2-6.1-2.8-9.1-4.3
		c-5.5-2.9-11-5.8-16.8-8.2c-3.3-1.3-6.6-2.5-10.1-2.7c-1-0.1-2.1-0.1-3.1,0.2c-2,0.4-2.8,1.7-2.5,3.7c0.2,1.2,0.7,2.3,1.3,3.4
		c1,1.8,2.2,3.5,3.5,5.1c1.9,2.4,4.1,4.5,6.3,6.6c2.9,2.9,6.2,5.2,10.1,6.7c6.5,2.5,12.5,6.1,18.2,10.1c1.2,0.9,2.5,1.8,3.4,3
		c0.6,0.7,1.1,1.5,0.5,2.4c-0.6,0.9-1.5,0.8-2.4,0.6c-1.7-0.5-3.3-1.2-4.8-2.1c-6.5-3.4-12.7-7.5-18.5-12c-4-3.2-8.8-4-13.7-4.3
		c-0.5,0-1.1,0.1-1.6,0.3c-0.9,0.3-1.2,0.9-1,1.9c0.2,1,0.7,1.9,1.3,2.8c1.3,2.1,2.9,4,4.7,5.8c4.1,4.2,8.5,8,13.6,11
		c3.8,2.2,7.5,4.6,11.1,7.2c0.6,0.4,1.1,0.9,1.6,1.4c0.3,0.3,0.5,0.8,0.2,1.3c-0.3,0.6-0.8,0.9-1.4,0.7c-0.8-0.2-1.5-0.6-2.2-1
		c-4-2.3-7.9-4.9-11.6-7.7c-2.8-2.1-5.6-3.9-8.6-5.7c-7.8-4.6-15.7-9.3-23.2-14.5c-0.6-0.4-1.2-0.8-1.7-1.3
		c-0.4-0.3-0.5-0.8-0.2-1.3c0.3-0.4,0.8-0.6,1.3-0.4c0.6,0.3,1.1,0.6,1.6,1c4.6,3.1,9.4,6.1,14.2,8.9c0.6,0.4,1.1,0.8,2.3,1
		c-1-1.2-1.8-2.2-2.5-3.2c-1.2-1.7-2.5-3.4-2.9-5.4c-0.6-2.5,0.4-4.2,2.9-4.9c1.6-0.5,3.2-0.4,4.8-0.2c0.9,0.1,1.9,0.4,2.9,0.3
		c-0.2-1-1-1.4-1.6-2c-2.7-2.7-5.2-5.4-7.3-8.6c-1.2-1.7-2.2-3.5-2.7-5.6c-1.1-4.1,0.9-7,5.1-7.5c2.7-0.3,5.3,0.1,7.8,0.8
		c4.3,1.2,8.4,3,12.5,5c4.9,2.5,9.8,5,14.8,7.5c2,1,4,2,6.2,2.5c2.5,0.6,3.2-0.1,2.9-2.7c-0.3-2.6-1.3-4.9-2.5-7.2
		c-0.5-1-1.1-2-1.5-3c-0.8-1.8-2.2-2.9-4.1-3.8c-6.6-3-12.4-7.2-17.2-12.7c-1.3-1.4-2.4-3-3.1-4.8c-0.5-1.2-0.7-2.3,0.2-3.4
		c1-1.2,2.3-0.9,3.6-0.5c1.7,0.6,3.1,1.6,4.6,2.6c5,3.7,9.1,8.2,12.9,13.2c0.5,0.6,1,1.2,1.4,1.9c2.2,4.2,6,4.3,9.9,4
		c3-0.3,4.5-2.4,4.3-5.6c-0.1-2-0.6-4-1.4-5.8c-3.1-7.4-7.7-13.8-13.3-19.5c-0.8-0.8-1.6-1.5-2.4-2.4c-0.5-0.6-0.7-1.3-0.1-1.9
		c0.7-0.7,1.3-0.3,1.9,0.1c0.4,0.3,0.7,0.6,1.1,1c6.4,6.4,14.2,10.6,22.4,14c1.5,0.6,3,1,4.6,1.1c3.1,0.2,4.3-1.2,3.7-4.2
		c-0.4-2.1-1.4-3.9-2.6-5.6c-3.1-4.4-7.1-7.8-11.6-10.6c-1.2-0.7-1.8-0.6-2.8,0.4c-3.9,4-8.7,4.8-13.9,3.3c-1.4-0.4-2.6-1.1-3.6-2.3
		c-1.7-2-1.5-4.5,0.5-6.1c1.4-1.1,3-1.6,4.7-1.7c3.7-0.4,7.3,0.2,10.8,1.6c1.8,0.7,1.9,0.6,2.5-1.2c0.9-3.2,0.6-6.3-0.2-9.5
		c-1-3.8-2.7-7.4-4.8-10.7c-0.3-0.5-0.6-0.9-0.9-1.4c-0.3-0.6-0.2-1.1,0.3-1.5c0.5-0.4,1.1-0.3,1.5,0.1c0.3,0.3,0.5,0.6,0.8,0.9
		c7.5,8,16.4,14.2,26.4,18.8c1.8,0.8,3.7,1.5,5.7,1.6c2.6,0.1,3.4-0.7,2.9-3.3c-0.3-1.5-0.9-2.9-1.6-4.2c-3.6-6.2-8-11.7-13.5-16.4
		c-2.5-2.1-5.1-4.2-7.3-6.5c-0.5-0.5-0.9-1.1-1.3-1.7c-0.3-0.5-0.2-1.1,0.2-1.5c0.5-0.5,1-0.5,1.5-0.2c0.6,0.4,1.2,0.8,1.7,1.3
		c2.1,1.9,4.1,3.8,6.1,5.7c7.1,6.8,15.3,12,24,16.5c1.3,0.7,2.6,1.2,4.1,1.3c1.1,0.1,1.5-0.3,1.3-1.3c-0.2-1.2-0.8-2.3-1.3-3.3
		c-1.8-3.2-3.9-6.2-6.2-9.1c-7.2-9.2-14.9-17.7-23.2-25.9c-0.7-0.7-1.4-1.3-2-2c-0.5-0.5-1.1-1.2-0.4-1.9c0.7-0.8,1.4-0.3,2.1,0.2
		c0.2,0.2,0.5,0.4,0.7,0.6c9.6,9.3,18.6,19.2,26.6,29.9c1.8,2.4,3.4,4.8,4.8,7.5c0.6,1.1,1.1,2.3,1.3,3.6c0.5,3-1.1,4.6-4.1,4.2
		c-1.7-0.2-3.2-0.8-4.8-1.5c-3.4-1.5-6.6-3.5-9.8-5.6c-0.6-0.4-1.3-0.8-2-1.2C277.2,127.9,277.1,128,277,128z M223.5,226.5
		c0.5,0.8,1.2,1.2,2.6,1.4C225,227.2,224.5,226.5,223.5,226.5c-0.4-0.9-1.2-0.9-1.9-1.2C222.1,226,222.6,226.6,223.5,226.5z
		 M246.1,148.3c-3.7-1.7-7.3-2.4-11.1-1.9c-1.1,0.1-2.2,0.5-3.1,1.2c-0.9,0.8-1,1.5-0.2,2.5c0.4,0.5,0.9,0.8,1.5,1.2
		C236.3,153,243.1,152.7,246.1,148.3z M230.4,186c-3.8-5.4-8.3-10.3-13.8-14.1c-0.6-0.4-1.2-0.8-1.9-1.1c-0.5-0.2-1-0.7-1.5-0.2
		C214.8,175.4,223.5,183.3,230.4,186z"/>
	<path d="M559.9,202.7c-2.5,0.5-5,1.1-7.5,1.5c-2.2,0.4-4.5,0.5-6.7,0.2c-4.2-0.5-5.9-3.5-4.2-7.4c1.1-2.7,3-4.9,5-6.9
		c4.6-4.8,9.9-8.8,15.4-12.5c0.7-0.5,1.4-1,2.2-1.5c-0.5-0.7-1.1-0.4-1.5-0.4c-4-0.2-7.8-1.1-11-3.6c-1-0.8-1.5-0.4-2.2,0.3
		c-2.3,2.5-4.8,4.7-7.6,6.5c-2.9,1.9-5.9,3.5-9.3,4.2c-0.5,0.1-0.9,0.2-1.4,0.2c-4.3,0.3-6.5-2.2-5.5-6.4c0.5-2.2,1.6-4.2,2.8-6
		c2.4-3.6,5.3-6.8,8.2-10c0.5-0.6,1.3-0.9,1.4-1.9c-1.2-0.2-2.2,0.4-3.3,0.7c-3.8,0.9-7.7,1.6-11.6,0.9c-5.9-1.1-8.6-5.1-7.4-11
		c0.2-1.1,0.5-2.1,0.9-3.4c-0.9-0.1-1.5,0.3-2.2,0.5c-2.7,0.9-5.3,1.7-8.2,1.8c-1.2,0.1-2.4,0.1-3.6-0.2c-2.5-0.6-3.8-2.3-3.6-4.9
		c0.1-1.6,0.7-2.9,1.4-4.3c1.2-2.3,2.7-4.5,4.2-6.7c3.2-4.6,6.6-9,9.7-13.7c1.6-2.5,3.2-5,4.2-7.8c0.4-1.1,1.2-2.4,0.2-3.4
		c-1-1.1-2.4-0.4-3.6,0.1c-2.1,0.7-3.9,1.8-5.8,2.9c-5.2,3.3-9.9,7.3-14.3,11.7c-1.1,1.1-2,2.5-3,3.8c-1.1,1.5-2.3,2.9-3.6,4.2
		c-0.7,0.6-1.4,1.3-2.3,0.4c-0.9-0.8-0.4-1.7,0.1-2.4c1.1-1.4,2.1-2.8,3.4-4c3.4-3.3,5.6-7.3,7.6-11.6c1-2.1,1.7-4.3,2.2-6.6
		c0.8-4.6-1-6.3-5.4-4.7c-5.7,2.1-10.7,5.4-15,9.7c-3.5,3.6-6.9,7.3-10.6,10.8c-0.6,0.6-1.3,1.1-2.1,1.6c-0.5,0.3-1.1,0.4-1.6-0.1
		c-0.6-0.5-0.6-1.1-0.3-1.7c0.4-0.6,0.8-1.2,1.3-1.7c2.9-3.3,6-6.4,9.4-9.2c3-2.5,5.8-5.3,8.5-8.1c4.2-4.4,8.5-8.7,13-12.8
		c0.7-0.6,1.5-1.2,2.3-1.7c0.4-0.3,0.9-0.1,1.3,0.3c0.4,0.5,0.2,0.9-0.1,1.3c-0.4,0.4-0.8,0.8-1.2,1.1c-3.3,2.9-6.4,6-9.5,9.3
		c0.7,0.4,1.2,0,1.6-0.2c1.5-0.6,3-1.2,4.6-1.4c4.3-0.5,6.6,1.4,6.5,5.7c0,2.3-0.6,4.4-1.4,6.5c-0.5,1.3-1,2.5-1.5,4
		c1-0.2,1.4-0.7,1.9-1.2c3.4-2.7,6.8-5.3,10.7-7.2c1.7-0.9,3.5-1.6,5.5-1.7c3-0.1,4.7,1.7,4.2,4.7c-0.3,1.9-1.1,3.7-2,5.4
		c-2,3.8-4.4,7.3-6.8,10.7c-2.6,3.7-5.3,7.4-7.9,11.1c-1.1,1.6-2.2,3.3-2.9,5.2c-1.2,3-0.3,4.2,2.8,4.3c3.5,0.1,6.8-1.1,10-2.1
		c2.3-0.8,4.1-2,5.6-4.1c3.2-4.8,7.3-8.6,12.2-11.7c1.4-0.9,2.9-1.7,4.6-2c1-0.2,1.9-0.1,2.6,0.7c0.8,0.9,0.5,2,0.1,2.9
		c-0.6,1.4-1.7,2.5-2.8,3.6c-4.2,4.1-9.2,7.2-14.5,9.7c-1.8,0.8-3,1.9-3.7,3.8c-0.8,2.4-1.6,4.7-0.8,7.2c0.7,2.2,2.4,3.3,4.5,3.8
		c2.9,0.8,5.9,0.5,8.8-0.1c5.7-1.2,11.3-2.9,16.1-6.5c0.6-0.4,1.2-0.8,1.9-1c0.7-0.3,1.5-0.3,1.9,0.5c0.3,0.7,0,1.3-0.5,1.7
		c-0.7,0.5-1.4,1-2.2,1.5c-1.9,1-3.6,2.3-5.2,3.8c-4.5,4-8.7,8.3-12.2,13.2c-1.4,2-2.8,4.1-3.4,6.6c-0.6,2.4,0.3,3.6,2.8,3.4
		c1.6-0.1,3.1-0.6,4.6-1.3c4.9-2.1,9-5.5,12.7-9.3c0.9-0.9,0.5-1.6,0.1-2.6c-1.8-4.5-1.4-8.8,1.4-12.7c1-1.4,2.3-2.5,3.9-3
		c2.1-0.7,3.8,0.2,4.5,2.3c0.4,1.1,0.3,2.2,0.1,3.3c-0.6,3.2-2.1,6-3.9,8.7c-0.4,0.7-0.9,1.3-1.4,2c-0.6,0.7-0.5,1.2,0.2,1.8
		c1.7,1.3,3.6,2.1,5.6,2.6c4.7,1,9.4,0.7,13.9-1.2c0.7-0.3,1.3-0.5,2-0.7c0.7-0.2,1.5-0.1,1.8,0.7c0.3,0.8-0.2,1.4-0.9,1.7
		c-0.4,0.2-0.9,0.4-1.3,0.6c-2.7,0.7-5,2.1-7.3,3.5c-6.6,4.1-12.9,8.7-18.4,14.2c-1.5,1.5-2.8,3.1-4,4.8c-0.5,0.8-1,1.6-1.2,2.6
		c-0.4,1.6,0,2.4,1.6,3c0.8,0.3,1.7,0.3,2.6,0.3c3.7,0.1,7.3-0.7,10.9-1.7c6.3-1.8,12.5-3.8,18.2-7.2c2.1-1.2,4.4-2.2,6.6-3.3
		c0.6-0.3,1.2-0.5,1.8-0.7c0.8-0.2,1.7-0.2,2,0.7c0.3,0.8-0.2,1.4-0.9,1.8c-2.3,1.4-4.7,2.7-7.3,3.7c-8.1,3.3-15.3,8-22.4,12.9
		c-2.3,1.6-4.5,3.4-6.5,5.3c-0.6,0.6-1.1,1.2-1.6,1.8c-2.1,2.6-1.5,3.9,1.8,4.3c4.2,0.5,8.5,0.1,12.7-0.6c10.4-1.7,20.5-4.3,30.3-8
		c1.4-0.5,2.8-1.2,4.2-1.8c0.7-0.3,1.4-0.6,1.9,0.2c0.6,0.9-0.1,1.5-0.8,1.9c-0.4,0.3-0.8,0.5-1.3,0.7c-13.6,5.4-27.5,9.3-42.2,10.2
		c-2,0.1-4,0.1-6-0.3c-4.4-1-5.6-3.9-3-7.6c1.1-1.6,2.5-2.9,4-4.2c2.7-2.3,5.5-4.4,8.4-6.3c0.5-0.3,0.9-0.6,1.3-1
		C559.9,202.9,559.9,202.8,559.9,202.7z M550.9,167c2.4-3.2,4.4-6.5,5-10.5c0.1-0.8,0.1-1.7-0.7-2.1c-0.7-0.4-1.4,0.2-2,0.6
		C549.8,157.2,548.6,163,550.9,167z M537.7,128.9c-4.3,0.8-11.9,7-13.5,10.8C529.4,136.7,534.3,133.8,537.7,128.9z"/>
	<path d="M273.8,42c0.6,0,0.9,0.2,1.2,0.5c0.5,0.6,1,1.2,1.5,1.9c10.9,14.6,20.9,29.9,31,45c4.5,6.6,8.8,13.4,13.1,20
		c0.6,0.9,1.2,1.9,1.7,2.9c0.3,0.5,0.3,1.1-0.3,1.5c-0.6,0.3-1.1,0.1-1.5-0.4c-0.7-1-1.4-1.9-2.1-2.9c-7.7-12-15.7-23.9-23.7-35.7
		c-6.8-10-13.6-20.2-20.8-29.9c-0.3-0.4-0.7-0.9-0.9-1.4C272.8,42.6,273.2,42.2,273.8,42z"/>
	<path d="M575.9,246.8c-0.6,0-1.1-0.1-1.3-0.6c-0.2-0.5,0-1,0.4-1.3c1-0.6,2-1.1,3-1.5c17.8-8.1,35.9-15.5,54.2-22.5
		c2-0.8,4-1.5,5.9-2.6c0.6-0.3,1.2-0.6,1.7,0.1c0.5,0.8,0,1.4-0.6,1.8c-1,0.6-2,1.1-3,1.5c-8.1,3.3-16.3,6.5-24.5,9.8
		c-11,4.4-21.9,9.3-32.8,14.1C577.9,246.1,576.9,246.7,575.9,246.8z"/>
	<path d="M328.9,125.4c0.7,0.1,1.8,1.3,1.7,2c0,0.6-0.4,0.9-0.9,0.9c-0.8,0-1.9-1.1-1.9-1.9C327.8,125.8,328.2,125.5,328.9,125.4z"
		/>
	<path d="M565.2,252.1c-0.6-0.1-1-0.4-0.9-1.1c0.1-0.7,0.6-1.1,1.3-1c0.6,0,1.1,0.4,1,1C566.4,251.8,565.9,252,565.2,252.1z"/>
	<path d="M315.6,469.2c0.2,5.4,0.4,10.7,0.6,16.1c0,1.1,0.1,2.2,0,3.4c0,0.7-0.1,1.3-1,1.4c-1,0.1-1.2-0.6-1.3-1.4
		c-0.1-0.6-0.1-1.3-0.2-1.9c-0.4-9-0.8-18.1-1-27.1c-0.4-12.7-2.5-25.1-5.3-37.5c-3.5-15.8-8.5-31.2-15.4-45.8
		c-9.8-20.6-23.5-38-41.8-51.7c-3.6-2.7-7.1-5.4-10.8-7.9c-2.9-1.9-5.8-3.6-9.1-4.8c-0.8-0.3-2.2-0.5-1.7-1.8
		c0.5-1.2,1.6-0.6,2.5-0.3c3.7,1.2,7,3.2,10.2,5.3c27.6,18,47.1,42.4,58.6,73.3c6.7,17.9,11.4,36.3,14,55.2c0.3,2.3,0.7,4.6,0.8,6.9
		C315,456.8,315.3,463,315.6,469.2C315.6,469.2,315.6,469.2,315.6,469.2z"/>
	<path d="M294.9,540.7c-1.4-5.9-2.6-11.5-3.9-17c-5-21.1-13.1-40.9-23.9-59.6c-1.8-3.2-3.7-6.4-5.5-9.6c-0.3-0.5-0.6-1-0.8-1.5
		c-0.3-0.6-0.3-1.1,0.3-1.5c0.6-0.4,1.1-0.1,1.5,0.3c0.3,0.3,0.5,0.6,0.7,1c10.6,17.3,19.9,35.2,25.9,54.7
		c2.9,9.6,5.3,19.4,7.5,29.2C296.9,539,296.9,539,294.9,540.7z"/>
	<path d="M365.2,207.7c-1.1,0.7-2,1.7-3.2,2.3c-0.6,0.3-1.3,0.6-1.6-0.3c-0.3-0.6,0.2-1,0.7-1.4c0.3-0.2,0.7-0.4,1-0.6
		c1.6-1.1,1.7-1.2,0.8-3.1c-0.1-0.1-0.1-0.3-0.2-0.4c-0.9-2.1-0.5-2.9,1.6-3.1c1.1-0.1,2.4-0.7,3.2,0.3c0.8,1,0,2.2-0.6,3.1
		c-0.6,0.9-0.4,1.6,0.3,2.3c0.4,0.4,0.8,0.8,1.1,1.3c0.4,0.5,0.8,1.1,0.1,1.6c-0.6,0.4-1,0-1.4-0.4
		C366.4,208.9,366,208.1,365.2,207.7z"/>
	<path d="M361,199.5c-0.1,0.6-0.6,0.9-1,0.7c-2-0.8-3.8-1.9-5.4-3.3c-0.2-0.2-0.2-0.6-0.1-0.9c0.2-0.3,0.5-0.6,0.8-0.4
		c2,0.9,3.9,2.1,5.6,3.5C361,199.1,361,199.3,361,199.5z"/>
	<path d="M371,200.1c-0.8,0.1-1.2,0-1.4-0.6c-0.1-0.6,0.3-0.9,0.7-1.1c1.5-0.5,3-1,4.5-1.5c0.5-0.2,1-0.1,1.2,0.5
		c0.2,0.5-0.1,0.9-0.5,1.2C374,199.4,372.3,199.6,371,200.1z"/>
	<path d="M391.2,86.9c-0.9,0.2-1.5,0.9-2.1,1.6c-0.6,0.6-1.2,1.4-2,0.7c-1-0.8-0.1-1.6,0.4-2.2c1.9-2.1,4.2-3.5,7-3.8
		c1.8-0.3,3.7-0.2,5.4,0.5c0.6,0.2,1.2,0.5,1.2,1.3c0,0.8-0.5,1.1-1.3,1.1c-0.6,0-0.9,0.2-1,0.8c-0.1,0.4-0.2,0.8-0.4,1.1
		c-0.7,1.3-1.6,2.4-3.2,2.5c-1.7,0.1-2.6-0.9-3.4-2.2C391.8,87.6,391.7,87.1,391.2,86.9z M396.6,86.3c-0.1-0.7-0.4-1.3-1.2-1.1
		c-0.6,0.1-1.6-0.1-1.6,0.9c0,0.8,0.4,1.6,1.3,1.8C395.7,88,396.5,87.1,396.6,86.3z"/>
	<path d="M381.3,105.2c-0.1,0-0.4,0-0.7,0c-0.5-0.1-1-0.3-1-0.8c0-0.6,0.5-0.8,1-0.8c3.1-0.2,5.7-1.2,7.6-3.8
		c0.3-0.5,0.9-0.7,1.5-0.3c0.6,0.4,0.3,1,0,1.5C387.7,103.7,384.9,105.1,381.3,105.2z"/>
	<path d="M409.6,93.1c-0.6,0-1.1,0-1.7,0c-0.5,0-0.9-0.3-1-0.8c-0.1-0.5,0.2-0.9,0.7-1.1c1.3-0.5,2.7-0.6,4-0.3
		c0.6,0.1,1.1,0.5,1,1.1c0,0.8-0.6,1-1.3,1C410.7,93.1,410.1,93.1,409.6,93.1C409.6,93.1,409.6,93.1,409.6,93.1z"/>
</g>
</svg>
