<?xml version="1.0" encoding="utf-8"?>
<!-- Generator: Adobe Illustrator 28.1.0, SVG Export Plug-In . SVG Version: 6.00 Build 0)  -->
<svg version="1.1" id="Layer_1" xmlns="http://www.w3.org/2000/svg" xmlns:xlink="http://www.w3.org/1999/xlink" x="0px" y="0px"
	 viewBox="0 0 841.9 595.3" style="enable-background:new 0 0 841.9 595.3;" xml:space="preserve">
<path d="M601.2,589c1.5-4.6,3.1-9.2,4.6-13.9c8.3-24.7,16.5-49.4,24.5-74.2c0.2-0.7,0.7-1.4,0.5-2.5c-0.9,0.1-1.6,0.7-2.3,1
	c-11.2,6-22.8,10.8-35.2,13.7c-18.8,4.4-37,2.7-54.6-5.1c-10.4-4.5-20.1-10.3-29.5-16.5c-10.6-7.1-21.2-14.3-31.8-21.5
	c-6-4-12.1-7.7-18.6-10.9c-3.2-1.6-6.4-2.9-9.8-3.9c-4.3-1.3-8.7-1.3-13,0.1c-2.7,0.9-5.4,2-8.1,3c-0.8,0.3-1.3,0.9-1.9,1.4
	c-1.8,1.6-3.7,3.1-5.5,4.7c-8.1,6.8-17.3,8.8-27.6,6.7c-3.8-0.8-7.6-2-11.3-3.3c-2.4-0.9-4.8-1.7-7.3-2.3c-5-1.1-9.7-0.3-14.1,2.2
	c-1.5,0.8-2.8,1.8-4.1,2.9c-1.1,0.9-2.2,1.8-3.4,2.6c-2.1,1.5-4.5,2.4-7,1c-2.5-1.3-3.2-3.7-3.2-6.3c0.1-5.9,2.7-10.6,7.7-13.9
	c3.6-2.4,7.7-3.4,12-3.9c5.2-0.6,10.4,0.3,15.6,0.7c7.1,0.4,13.3-1.4,18.2-6.8c1.1-1.2,2-2.5,2.8-3.9c3.3-6.5,4.7-13.4,3.8-20.7
	c0-0.3-0.1-0.6-0.1-1c-1.2-6-5.1-8.5-11-7.2c-2.3,0.5-4.4,1.5-6.4,2.7c-3.9,2.4-7.5,5.1-10.7,8.4c-1.2,1.2-2.1,2.6-3.2,3.9
	c-1.2,1.3-2.4,2.5-4.1,3.3c-3,1.5-5.4,0.6-6.5-2.5c-0.4-1.2-0.7-1.6-2.1-1.2c-1.7,0.5-3.1-0.4-4.1-2.1c-1.1-1.8-1.5-3.9-1.7-6
	c-0.3-3.3-0.6-6.5-0.9-9.8c-0.2-2.2-0.7-4.3-1.5-6.3c-0.6-1.6-1.4-3-2.6-4.2c-2-2-4.3-2.6-7-1.7c-1.8,0.6-3.4,1.5-4.7,2.8
	c-7.8,7.8-11.6,17.1-10.5,28.2c0.3,3,1.6,5.7,3.5,8c1,1.2,2,2.3,3,3.5c6.6,7.6,5.8,18.1,2.1,24.7c-0.7,1.2-1.5,2.3-2.5,3.2
	c-3.5,3-7.4,2.3-9.5-1.8c-1-1.9-1.5-4.1-1.9-6.2c-0.3-1.6-0.5-3.2-0.9-4.7c-1.3-5.4-4.8-8.3-10.3-8.7c-3.7-0.3-7.3,0.4-10.8,1.8
	c-4,1.6-7.7,3.8-11.3,6.3c-7.5,5.2-14.4,11.1-21.5,16.9c-19.7,16.2-41.1,29.6-64.9,39.1c-12.1,4.8-24.4,8.6-37.2,10.9
	c-0.2,0-0.3,0-0.5,0.1c-1.5,0.3-1.6,0.4-1.1,1.9c1.1,3.8,2.3,7.6,3.4,11.5c3.8,13.6,6.8,27.5,9.6,41.3c0.9,4.1,1.8,8.3,2.7,12.4
	c0.1,0.6,0.3,1.2,0.2,1.9c-1.3,0-2.6,0-3.8,0c-0.3-3.3-1.3-6.4-1.9-9.6c-3.8-18.9-8-37.7-13.4-56.2c-0.1-0.3-0.2-0.6-0.2-0.9
	c-0.2-1-0.7-1.4-1.9-1.2c-2.9,0.4-5.9,0.8-8.8,1c-12.3,1-24.5,0.7-36.5-2.2c-12.4-3-23.4-8.4-32.3-17.8
	c-7.9-8.4-12.7-18.4-15.4-29.4c-2.9-11.6-3.4-23.4-2.7-35.3c1.9-34.3,11.3-66.7,24.5-98.2c7.7-18.3,17-35.8,28.9-51.8
	c8.2-11,17.6-21,29-28.8c9.2-6.3,19.3-10.7,30.4-12.3c11.3-1.6,22.3-0.2,33,3.6c7.6,2.8,14.8,6.5,21.8,10.5
	c3.6,2.1,7.2,4.2,10.8,6.3c2.7,1.5,5.4,2.7,8.4,3.3c2.4,0.5,4.6,0.3,6.8-0.7c4.9-2.2,8-6.2,10.7-10.5c-0.5-0.7-1-0.5-1.4-0.5
	c-8.1,0.1-15.3-2.7-21.3-8c-6.6-5.8-8.7-13.2-6.1-21.7c0.1-0.5,0.3-0.9,0.5-1.4c0.5-1.1,0-1.6-1-2c-0.7-0.2-1.3-0.5-2-0.8
	c-16.3-7.2-25.9-19.7-29.1-37c-2.5-13.6,0.1-26.4,7.5-38.1c4.5-7.1,10.6-12.6,18.5-15.8c7.7-3.1,15.5-3,23.1,0.3
	c8.1,3.6,14.4,9.2,19.1,16.6c0.5,0.7,0.9,1.5,1.5,2.3c0.7-0.6,0.7-1.3,0.9-1.9c2.4-8,6.5-14.7,13.2-19.8c3-2.3,6.4-3.9,10.1-4.8
	c6.2-1.4,11.7-0.2,16.6,3.9c0.8,0.7,1.5,1.7,2.5,2.2c0.5-0.6,0.6-1.2,0.8-1.8c2.5-7.8,6.7-14.5,12.8-20c13-11.7,32.1-11.4,44.8,0.8
	c9.3,8.9,13.5,20,12.5,32.9c-0.2,2.7-0.9,5.3-1.8,7.9c-0.3,0.7-0.8,1.4-0.6,2.5c0.8-0.9,1.5-1.7,2.2-2.4
	c10.6-11.4,22.8-20.5,37.2-26.6c27-11.5,55.9-0.1,70.6,18.3c5.4,6.8,8.8,14.6,11.4,22.8c3.2,10.1,5.4,20.4,7.3,30.8
	c0.8,4.2,1.7,8.5,2.6,12.7c1,4.5,4.6,7.3,9.6,7.6c2.5,0.1,4.9-0.4,7.3-1.2c3.5-1.1,6.8-2.9,9.9-4.8c7.8-4.8,15-10.6,22.2-16.3
	c8.7-7,17.2-14.1,26.3-20.6c16.6-11.9,34.7-20.3,54.8-24.4c22.7-4.6,45.2-4.3,67.2,3.6c21,7.5,39,19.5,53.5,36.5
	c11.6,13.5,18.4,29.3,20.9,46.9c2,14.5,1,28.7-3.9,42.6c-4.1,11.5-10.7,21.4-20.1,29.3c-5.3,4.5-11.3,7.5-18.3,8.1
	c-4.9,0.4-9.5-0.6-14-2.6c-5.2-2.2-10-5.1-14.8-7.9c-0.7-0.4-1.2-1-2.1-1c-0.4,0.7-0.1,1.4,0,2.1c2.3,15.5,3,31,1.8,46.7
	c-2.6,34.5-13,66.4-32.7,95c-12.3,17.9-27.9,32.4-46.2,44.1c-1.2,0.8-2.2,1.6-2.7,3.1c-9,29.8-19.3,59.3-29,88.9
	c-0.3,1-0.9,1.9-0.7,3C604.1,589,602.7,589,601.2,589z M265.6,417.6c-0.9,0.1-1.4,0.7-1.9,1.1c-7.2,5.3-14.9,9.9-23.1,13.7
	c-19.3,9-39.5,14.3-60.7,15.8c-7.3,0.5-14.5,0.3-21.7-1.3c-12.2-2.7-20.5-9.7-24.3-21.7c-2.1-6.6-2.5-13.3-1.9-20.2
	c1-10.4,4.6-19.9,10.1-28.7c4.4-7.1,9.8-13.4,15.4-19.6c5.5-6,11.6-11.4,17.1-17.6c3.2-3.6,6.5-7,9.9-10.5c1.4-1.5,2.4-1.6,3.3-0.9
	c0.9,0.8,0.8,1.9-0.6,3.3c-5.5,5.9-11,11.9-16.6,17.6c-4.3,4.4-8.7,8.7-12.8,13.3c-6.2,6.9-11.9,14.2-16.1,22.6
	c-5.3,10.7-7.4,21.9-5.6,33.8c0.9,5.8,2.9,11.1,6.7,15.7c4.6,5.4,10.6,8,17.4,9.3c9,1.7,18,1.3,27,0.3c11.9-1.4,23.4-4.2,34.8-8
	c26.3-8.7,48.1-23.8,65.8-45.1c4.8-5.8,9.4-11.7,14.1-17.6c2.8-3.5,6-6.6,9.5-9.4c2.5-2,5.2-3.7,8.4-4.5c2.4-0.6,4.7-0.3,7,0.8
	c1.8,0.9,2.8,2.3,3.1,4.3c0.1,0.7,0.6,0.9,1.2,0.8c1.1-0.3,2.2-0.4,3.3-0.4c2.4-0.1,4.6,0.6,6.6,1.9c1.9,1.3,3.7,2.6,4.1,5.1
	c0.2,1.2,1.2,0.8,1.9,0.9c6.7,0.7,11.7,3.9,15.3,9.6c1.5,2.3,2.4,4.8,3.1,7.5c1.3,5,1.2,10.1,1,15.3c0,0.8-0.2,1.7,0,2.5
	c0.6,0,0.8-0.4,1-0.7c2.4-3.3,5-6.4,7.9-9.3c0.3-0.3,0.7-0.6,0.8-0.9c0.9-2.9,3-5.1,4.8-7.4c0.3-0.4,0.7-0.7,0.5-1.3
	c-0.6-1.6,0.4-2.6,1.2-3.7c5.4-6.8,11.6-12.8,19.4-17c3.3-1.7,6.7-3,10.4-3.4c7.2-0.8,13.8,1.1,19.7,5.2c2,1.4,4,3,5.8,4.6
	c0.5,0.4,0.8,0.7,1.6,0.2c1.4-1,1.8-0.7,2.9,0.8c2.2,3.1,5.2,5.2,8.8,6.4c7.3,2.5,13.9-3.1,12.7-10.8c0-0.3-0.1-0.6-0.1-1
	c0-1.1,0.2-2,1.4-2.2c1-0.2,1.7,0.4,2,1.3c0.6,2,1.2,4,0.5,6.1c-0.9,2.9-2.3,5.5-4.5,7.5c-2.9,2.7-6.4,3.8-10.4,3.2
	c-1.7-0.3-3.3-1.1-5.4-1.6c2.3,2.9,4.3,5.5,6.3,8.1c4.6,5.9,9.4,11.7,15.1,16.8c2.4,2.2,4.9,4,7.9,5.3c4.1,1.8,8.1,3.8,12.2,5.6
	c17,7.6,34.4,14.3,52.6,18.6c10.5,2.5,21.2,4.1,32.1,3.3c13.1-1,24.8-5.4,35.1-13.3c10.4-8,18.4-18,24.6-29.4
	c7.4-13.7,11.6-28.4,13-43.8c1.3-14.6,0.3-28.9-4-43c-2.8-9.2-6.7-17.8-13.7-24.7c-1.5-1.4-3-2.8-4.5-4.3c-0.6-0.5-1.2-1-1.6-1.8
	c-0.4-0.7-0.4-1.4,0.2-2c0.5-0.6,1.3-0.7,2-0.4c0.6,0.3,1.2,0.8,1.8,1.2c7.8,6.5,13.6,14.4,17.2,23.9c1.2,3.1,2.3,6.3,3.2,9.5
	c5.6,21.5,5.2,42.9-0.8,64.2c-5.2,18.5-14.4,34.6-28.3,47.9c-9.9,9.4-21.4,15.8-34.9,18.5c-11.4,2.2-22.8,1.6-34.1-0.5
	c-13-2.4-25.6-6.4-38-11c-10.3-3.9-20.5-8.1-30.4-13c-0.6-0.3-1.3-1-1.7-0.6c-1.1,1.2-1.8,0-2.6-0.3c-0.6-0.2-1.1-0.9-1.9-0.8
	c-0.1,0.6-0.2,1-0.3,1.5c-0.8,6.4-2,12.8-3.5,19.1c-1.5,6.2-3,12.4-4.7,18.6c-0.3,1.2-0.1,1.7,0.8,2.2c5.8,3.2,11.4,6.8,16.9,10.5
	c9.9,6.7,19.7,13.4,29.6,20c9.1,6.1,18.6,11.5,28.8,15.8c16,6.7,32.4,8.3,49.3,4.6c13.6-3,26.3-8.3,38.4-15.2
	c1.6-0.9,3.4-1.6,4.5-3.1c0.2-0.3,0.6-0.5,1-0.5c0.9,0,1.6-0.6,2.4-1.1c18.7-12.2,34.4-27.4,46.5-46.1
	c18.3-28.2,27.6-59.2,29.7-92.6c0.7-11.4,0.4-22.9-0.9-34.3c-0.6-5.4-1.1-10.8-3-16c-9.4-26.1-23.7-49-43.8-68.2
	c-8.6-8.3-18.4-14.9-29.8-18.9c-7.5-2.6-15.2-3.9-23.1-2.9c-9.8,1.2-18,5.7-25.1,12.5c-4.2,4.1-7.8,8.7-11.2,13.4
	c-4.1,5.5-8,11.2-12.2,16.7c-10.6,13.8-23.4,24.9-39,32.7c-15,7.4-30.8,11-47.6,9c-2.8-0.3-5.7-0.4-8.1-2c-1.5-0.9-2.5-0.6-3.6,0.2
	c-0.5,0.4-0.9,0.9-1.4,1.3c-6.6,6-14.4,8.9-23.3,8.5c-6.2-0.3-12.2-1.7-17.4-5.2c-0.2,0.1-0.3,0.2-0.4,0.3c-0.2,0.3-0.4,0.7-0.7,1
	c-2.7,4.5-6.2,8.3-10.4,11.4c-7.2,5.4-15.4,8.8-24.1,10.8c-13.8,3.1-27.8,3.2-41.7,0.8c-8.3-1.4-16.3-3.9-23.5-8.5
	c-9.9-6.3-15.9-15.3-18.1-26.8c-0.6-3-0.7-6-1-9.1c-7.3,1.6-14.5,2.6-21.6,0c-7.1-2.6-12.1-7.8-16.4-13.9c-0.8,0.9-1.4,1.7-2.1,2.4
	c-1.7,1.9-3.6,3.7-5.8,5c-3.5,2.1-7.2,3-11.2,2.2c-3.3-0.6-6.4-1.9-9.4-3.6c-4-2.2-7.9-4.6-11.8-6.8c-6.3-3.6-12.8-7-19.6-9.5
	c-20.3-7.6-39.6-5.4-57.9,5.8c-6.4,3.9-12.1,8.6-17.4,13.9c-10.9,10.8-19.6,23.2-27.2,36.4c-12.8,22.3-22.2,46.1-29.3,70.7
	c-5.4,18.7-9.1,37.8-10,57.3c-0.5,10.9-0.2,21.8,2.3,32.4c2.4,10.5,6.7,20,13.9,28.1c7.8,8.7,17.5,14,28.7,17
	c14.3,3.9,28.8,4,43.3,2.3c16.8-2,32.9-6.6,48.5-13.1c21.6-8.9,41.3-21,59.4-35.7c3.8-3.1,7.5-6.2,11.4-9.2c1.2-1,1.6-1.9,1.4-3.5
	c-0.3-2-0.5-4-0.9-5.9c-2.2-9.7-4.2-19.5-5.9-29.4C266.1,419.9,266,418.7,265.6,417.6z M785.6,250.9c0-3.2-0.1-6.4-0.5-9.6
	c-1.8-17-7.7-32.3-18.4-45.7c-14.1-17.7-32.1-29.9-53.2-37.6c-16.7-6.2-34.1-7.7-51.7-5.9c-19.5,2-37.7,7.8-54.6,17.6
	c-10.4,6-19.9,13.4-29.3,20.9c-8.6,6.9-17,14-26.1,20.4c-3.8,2.7-7.7,5.2-11.9,7.2c-3.5,1.7-7.2,3-11.2,3.4
	c-6.2,0.6-13-2.4-15.2-9.8c-1.6-5.5-2.6-11-3.6-16.6c-1.8-9.9-4.1-19.7-7.2-29.3c-2.3-7.1-5.4-13.8-10.2-19.7
	c-13.6-16.8-40.3-27.7-65.5-17.3c-15.7,6.5-28.7,16.6-39.6,29.6c-2.7,3.2-5.1,6.6-7,10.3c-0.9,1.7-0.8,1.9,0.9,2.7
	c0.6,0.3,1.3,0.6,2,0.8c3.7,1.4,7.5,1.7,11.3,1.5c15.4-1.2,29.2-6.5,41.4-16c0.6-0.4,1.1-0.9,1.7-1.3c0.6-0.4,1.3-0.5,2,0
	c0.8,0.5,1.1,1.2,0.9,2.1c-0.2,0.8-0.6,1.7-0.9,2.5c-3.5,8.1-5.2,16.6-4.8,25.5c0.8,17.7,12.2,27.7,25.4,31.9
	c0.9,0.3,1.8,0.3,2.8-0.1c2-0.9,4.1-1.3,6.3-1.5c4-0.3,7.8,0.2,11.4,2c3.9,2,5.3,5.8,3.8,9.9c-0.7,1.8-1.8,3.4-3.2,4.7
	c-2,2-4.4,3.5-6.9,4.7c-3.2,1.5-6.5,2.8-9.9,3.6c-1.2,0.3-1.9,0.8-1.6,2.1c0.1,0.6,0.1,1.3,0.1,1.9c0.2,7.8,0.8,15.7,1.3,23.5
	c0.4,5.6,0.9,11.2,1.9,16.7c0.2,1.1,0.3,2.2,1.9,2.1c0.5,0,1,0.5,1.4,0.9c1.2,1.3,2.8,1.8,4.5,2.1c2.8,0.5,5.7,1,8.6,1.1
	c9.9,0.5,19.6-1,29-4.2c18.3-6.2,33.3-17.2,45.7-31.8c5.7-6.7,10.5-13.9,15.7-20.9c3.8-5.2,7.7-10.2,12.3-14.7
	c12.5-11.9,27.2-15.8,44-12.2c10.8,2.3,20.4,7.3,29.2,13.9c10.4,7.8,19.2,17.2,27,27.5c11.1,14.7,20.2,30.5,26.3,48
	c0.6,1.7,0.9,3.4,3.1,3.8c0.4,0.1,0.8,0.5,1.2,0.8c5.3,3.5,10.8,6.5,16.6,9.2c4.8,2.2,9.9,3.2,15.2,2.3c4.4-0.8,8.3-2.7,11.9-5.4
	c7.1-5.3,12.5-12.1,16.8-19.8C783.1,276.6,785.6,264,785.6,250.9z M282,202.2c9.3-0.3,18.3-2.9,26.3-8.3c7.5-5,10.6-12.1,9.4-21.1
	c-0.2-1.3-0.3-2.6-0.2-3.8c0.2-2.4,1.7-3.7,4.1-3.8c1-0.1,2.1,0.1,3.1,0.3c5.6,1.2,11.2,2.6,16.9,3.3c7.6,0.9,15.2,0.8,22.6-1.2
	c6.2-1.7,11.5-4.8,15.1-10.3c3.3-4.9,5.1-10.4,5.1-16.2c0-9.4-3.2-17.7-9.4-24.8c-10.4-11.9-27.1-14-39.3-4.9
	c-7.3,5.4-12,12.8-14.4,21.5c-0.6,2.2-0.8,4.4-0.3,6.6c0.3,1.2-0.3,2.2-1.4,2.4c-1.1,0.2-1.8-0.4-2.3-1.3c-0.2-0.4-0.3-0.7-0.4-1.1
	c-2.2-6.4-9.3-10.8-16.1-10c-4.2,0.5-7.8,2.3-11.1,4.8c-6.8,5.4-10.6,12.7-12.2,21.1c-0.5,2.5-0.8,5-0.1,7.6c0.3,1,0.3,2.1,0,3.1
	c-0.3,1-0.9,1.7-2,1.8c-1.1,0.1-1.8-0.7-2.1-1.7c-0.4-1.2-0.4-2.4-0.3-3.6c0-1.4-0.2-2.7-0.7-4c-4.1-10.2-11.1-17.5-21.1-21.8
	c-4.3-1.8-8.7-2.5-13.4-1.7c-7.6,1.2-13.8,5-18.8,10.7c-9.1,10.3-12.9,22.6-11.6,36.2c1.7,18.4,11,31.7,28.1,39.1
	c0.9,0.4,1.8,0.7,2.6,1.2c2.1,1.1,2.6,2.5,2,4.8c-0.3,1-0.6,2-0.9,3c-1.6,5.6-0.7,10.8,3.1,15.3c1.3,1.6,2.9,3,4.7,4.1
	c3.2,2,6.7,3.5,10.3,4.4c5.7,1.5,10.7,0.1,15.1-3.9c1.1-1,2.1-2.1,3.1-3.3c4.4-5.5,4.4-11.2,1.2-17.2c-1.1-2.1-2.8-3.4-5-4.2
	c-0.8-0.3-1.7-0.4-2.6-0.7c-4.3-1.1-8.6-2.4-12.7-4.3c-3.6-1.7-7.2-3.6-10.1-6.4c-1.6-1.5-2.8-3.2-3.5-5.3c-1.1-3.4-0.3-6.6,2.5-8.9
	c1.9-1.6,4.1-2.5,6.5-3c8.4-1.7,16.2-0.4,23.6,4C277.2,203.1,279.6,202.1,282,202.2z M434.7,163.9c-1.1,0.7-1.7,1-2.3,1.4
	c-7.5,4.6-15.4,8.1-24,10.2c-6.5,1.7-13.2,2.7-19.9,1.8c-2.7-0.4-5.3-1.2-7.8-2.2c-1.5-0.6-1.7-0.5-2.1,1.2
	c-0.4,2.2-0.8,4.4-1.3,6.6c-3.3,17.1-6.3,34.3-7.6,51.7c-0.5,6.2-0.5,12.5,0.7,18.6c4.1,21,21.8,27,35,25
	c11.5-1.7,21.2-6.8,28.8-15.7c0.8-0.9,1.5-1.8,2.3-2.8c1.5-1.8,2.5-2.2,3.5-1.3c1,0.9,0.8,2-0.6,3.8c-2.1,2.6-4.4,5.1-6.9,7.4
	c-0.6,0.6-1.1,1.1-1.1,2c-0.8,7.4-2.8,14.4-5.2,21.4c-0.7,2-0.7,2.1,1.1,3.2c1.1,0.7,2.3,1.1,3.5,1.6c2.6,0.9,5.2,1.5,7.9,1.7
	c9,1,16.9-1.4,23.7-7.5c0.7-0.7,1.3-1.3,1.1-2.4c-2.3-9.9-2.5-20.1-3.3-30.2c-0.3-4.9-0.4-9.7-0.4-14.6c0-0.8,0.2-1.6-1.1-1.7
	c-1-0.1-1.6-0.7-1.6-1.8c0-1.1,0.7-1.7,1.8-2c1.5-0.4,3-0.6,4.4-1c4.4-1.1,8.6-2.6,12.4-4.9c2.3-1.4,4.3-3.1,5.5-5.6
	c1.2-2.6,0.5-4.7-2.1-5.7c-6-2.3-11.9-2.4-17.5,1.2c-0.6,0.4-1.2,0.9-1.8,1.2c-1.3,0.6-2.7-0.2-2.3-1.6c0.4-1.4-0.4-1.6-1.3-1.9
	c-3.5-1.3-6.6-3.2-9.6-5.4c-7.3-5.3-12.1-12.4-14.1-21.3c-1.4-6.6-1.5-13.2-0.3-19.8C432.6,171,433.5,167.7,434.7,163.9z M304,275.2
	c0.3-1.7,0.3-3,0.7-4.3c0.3-1,0-1.4-0.8-1.9c-2.4-1.3-4.6-2.9-6.7-4.6c-0.6-0.5-1.1-1-1.5-1.5c-0.4-0.6-0.5-1.4,0-2
	c0.6-0.7,1.4-0.9,2.1-0.5c0.8,0.5,1.6,1.1,2.3,1.7c3.2,2.6,6.7,4.6,10.7,5.7c11.2,3,22.4,2.8,33.7,0.1c7.2-1.8,12.4-6.1,15.7-12.7
	c2.2-4.4,3.6-9.1,4.3-13.9c0.8-5.1,1.2-10.3,1.6-15.5c0.6-7.3,1.2-14.7,1.7-22c0.6-9.3,0.9-18.5,1.1-27.8c0-1.9,0.2-3.8,0.3-5.8
	c-0.6,0.2-1,0.2-1.3,0.4c-6.6,2.3-13.4,2.9-20.3,2.6c-7.1-0.3-14.1-1.6-21.1-3.3c-1.3-0.3-2.7-0.6-4-0.8c-0.8-0.1-1.2,0.3-1.2,1.1
	c0.1,1.1,0.2,2.2,0.3,3.3c0.8,8.6-1.8,15.8-8.4,21.4c-1.7,1.5-3.5,2.8-5.5,3.9c-7.6,4.3-15.7,6.7-24.4,7.2c-2.8,0.2-5.6,0.4-8.4,0.5
	c-1.7,0.1-2.5-0.5-2.4-1.9c0.1-1.2-0.4-1.5-1.2-1.9c-4.5-2.2-9.3-3-14.2-2.7c-2.6,0.2-5.3,0.5-7.7,1.7c-3.5,1.7-4.2,4.4-2,7.7
	c0.7,1,1.5,1.9,2.4,2.6c1.5,1.2,3.1,2.3,4.8,3.2c5.2,2.9,10.9,4.7,16.6,6c2.9,0.7,5.2,2.2,7.1,4.3c5,5.4,5.9,13.9,2.4,20.4
	c-2.1,3.8-5.1,6.9-8.7,9.4c-0.5,0.4-1.1,0.6-1.6,1.1c-2.4,2.5-2.7,4.6-0.5,7.4c7.2,9.4,16.4,14,28.5,11.5
	C300.3,274.8,302.1,274.3,304,275.2z M387.6,387.8c0.8-0.3,1.1-0.4,1.4-0.5c5.4-2.4,10.7-2,16.1-0.2c1.5,0.5,2.7,1.4,3.7,2.6
	c0.9,1.1,0.9,2.1,0.1,2.8c-0.9,0.8-1.8,0.5-2.6-0.1c-0.7-0.5-1.2-1.3-2.1-1.6c-3.4-1.1-6.8-1.9-10.4-1.1c-3.7,0.8-6.8,2.7-9.8,4.9
	c-6.8,5.3-12.4,11.8-16.8,19.2c-1.6,2.8-2.9,5.7-3.5,8.9c-0.2,1.3-0.7,3.1,0.5,3.8c1.5,0.7,2.5-0.9,3.4-2c3.9-4.8,8.4-9,13.5-12.5
	c2.9-2,6.1-3.6,9.5-4.4c7.4-1.6,13.3,2,15,9.3c1.4,5.8,0.8,11.6-0.7,17.3c-0.7,2.8-1.7,5.5-3.2,8c-4.5,7.4-11,11.6-19.7,12.3
	c-4.6,0.4-9.1-0.4-13.6-0.7c-4.9-0.3-9.6,0.2-14.1,2.2c-4.7,2.1-7.6,5.8-8.1,11c-0.1,1.4-0.2,3.1,1.3,3.8c1.3,0.7,2.4-0.4,3.5-1.1
	c1.8-1.3,3.5-2.8,5.3-4.1c4.5-3.1,9.4-4.7,14.9-4.4c3.1,0.1,6.1,1,9.1,2.1c3.4,1.2,6.8,2.5,10.2,3.4c5,1.3,10,2,15.2,1
	c6.6-1.3,11.6-5.2,16.4-9.5c0.2-0.2,0.4-0.5,0.5-0.8c0.4-1.2,1.4-1.6,2.5-2c2.6-1,5.2-1.9,7.9-2.9c6.1-2.3,12.2-2.5,18.3-0.4
	c2.6,0.9,5.1,1.9,7.6,3c0.4,0.2,0.9,0.4,1.3,0.6c0.8,0.4,1.4,0.1,1.8-0.7c0.2-0.5,0.3-1.1,0.5-1.6c0.9-3.6,1.8-7.1,2.6-10.7
	c2.1-8.5,4-17,5.3-25.6c0.2-1.5,0-2.6-1.3-3.7c-5-4-9.4-8.7-13.5-13.6c-4.7-5.6-9-11.7-13.9-17.2c-3.8-4.3-8-8.3-12.9-11.4
	c-5.2-3.2-10.8-4.8-17-3.6c-8.5,1.6-15.1,6.5-20.9,12.7c0.6,0.1,1-0.3,1.5-0.5c6.9-3.1,13.7-2.6,20.3,1c3.4,1.8,5.9,4.6,8.3,7.5
	c0.9,1,0.8,2.1,0,2.8c-0.8,0.7-1.7,0.6-2.8-0.4c-0.3-0.3-0.5-0.6-0.8-0.9c-0.8-0.8-1.5-1.7-2.3-2.5
	C407.6,379.7,395.9,379.7,387.6,387.8z M366.2,251.6c-1,1.2-1.2,2.3-1.7,3.3c-3.9,8.7-10.2,14.5-19.7,16.7
	c-11.4,2.7-22.8,2.9-34.2-0.1c-2.5-0.7-2.7-0.5-3,2c-0.1,0.6-0.1,1.3-0.1,1.9c-0.1,3.5,0.2,6.9,0.9,10.3c1.5,8.4,5.2,15.8,11.7,21.4
	c5.4,4.7,11.7,7.7,18.6,9.6c15.3,4.2,30.8,4.6,46.3,1.7c8.4-1.6,16.3-4.6,23.4-9.5c6.5-4.4,11.5-10.1,13.9-17.6
	c1.3-4.1,2.8-8.1,3.6-12.4c0.2-0.9,0.4-1.9,0.5-2.8c0.1-0.5,0.3-1.1-0.3-1.6c-2.1,1-4.2,2-6.2,3c-7.6,3.6-15.6,5.4-24,4.2
	c-12.3-1.8-21.3-8.1-26.6-19.5C367.9,259.1,367,255.6,366.2,251.6z M276.9,455.2c1-0.2,1.5-0.9,2.2-1.4c5.1-3.8,10.2-7.4,16.1-10
	c4.2-1.8,8.5-2.9,13-2.7c7.8,0.3,13,4.7,14.6,12.4c0.2,0.9,0.3,1.7,0.5,2.6c0.4,1.7,0.6,3.5,1.1,5.1c0.4,1.3,0.7,2.8,2.3,3
	c1.7,0.2,2.5-1.1,3.3-2.3c3-4.6,4.4-13.8-0.5-20.1c-1-1.3-2-2.5-3.1-3.7c-3.4-3.9-5.1-8.4-5.3-13.6c-0.2-10.4,3.5-19.4,10.4-27.1
	c1.9-2.1,4.2-3.8,6.8-4.8c2.5-1,5-1.3,7.5-0.4c3.3,1.2,5.4,3.6,7,6.6c1.5,3,2.2,6.3,2.5,9.7c0.3,3.3,0.6,6.5,1,9.8
	c0.1,1.3,0.3,2.6,1.4,3.9c1.7-1.6,2.3-3.5,2.8-5.4c2.3-7.6,3-15.4,1.9-23.3c-0.6-4.2-1.9-8.1-4.6-11.4c-3.9-4.7-8.8-6.7-14.9-5.6
	c-5.4,1-10.1,3.6-14.2,7.1c-3.5,2.9-6.3,6.3-9,9.9c-1.7,2.3-3.7,4.4-5.5,6.7c-0.4,0.4-0.8,0.8-1.2,1.1c-0.7,0.5-1.5,0.5-2.2-0.1
	c-0.6-0.6-0.7-1.3-0.4-2c0.2-0.4,0.4-0.9,0.8-1.2c3.5-3.8,6.3-8,9.7-11.9c5.2-6,11.3-10.6,19-12.8c0.6-0.2,1.4-0.1,1.5-0.9
	c0.1-0.8-0.4-1.3-1-1.8c-2-1.7-4.2-2.6-6.8-2.3c-3.3,0.4-6.1,1.9-8.8,3.7c-4,2.6-7.6,5.8-11.1,9.1c-2.6,2.5-5.3,4.9-7.4,7.8
	c-0.8,1.1-1.7,1.3-2.5,0.7c-1-0.7-0.8-1.7-0.3-2.6c0.3-0.5,0.6-1,0.9-1.4c6.1-6.9,12.6-13.4,20.6-18.2c0.6-0.4,1.7-0.5,1.4-1.6
	c-0.2-1.1-0.3-2.2-1.6-2.7c-0.9-0.4-1.8-0.5-2.8-0.5c-2.1,0.1-3.9,1-5.6,2c-3.1,1.9-5.7,4.4-8.2,6.9c-5.5,5.7-10.5,11.8-15.3,18.2
	c-6.5,8.7-14,16.2-22.3,23.1c-2.1,1.7-2.2,1.8-1.7,4.4C271.5,430.1,274.3,442.6,276.9,455.2z M372.4,185.3c0.2,0,0.3,0.1,0.5,0.1
	c0.8-4.2,1.8-8.4,2.5-12.6c0.3-1.6,0.7-3.1,1.4-4.5c0.6-1.1,1.4-2.2,1.6-3.8c-1.4,1-2.5,1.9-3.8,2.6c-1.1,0.6-1.6,1.4-1.5,2.7
	c0.1,1.9,0.3,3.9,0,5.7C372.5,178.8,372.9,182.1,372.4,185.3z"/>
<path d="M255.4,74.9c0.2-1.2,0.4-2.3,0.7-3.5c1.6-7.9,6.2-13.5,13-17.5c0.9-0.5,1.9-0.9,2.9-1.2c5.2-1.6,9.8,0.3,12.3,5.2
	c1.5,2.9,2.1,6,2.4,9.2c0.6,7.9-0.1,15.6-2.4,23.2c-0.5,1.5-1.1,3-1.8,4.4c-4.8,10.2-14.2,14.7-25.1,12.1c-1.2-0.3-2.5-0.7-3.7-1.1
	c-8.3-3-15.7-7.5-22.3-13.3c-2.1-1.8-4-4-5.3-6.5c-2.9-5.4-1.4-10.3,4.1-13c5.3-2.7,10.9-2.8,16.6-1.2c2.2,0.6,4.2,1.5,6.3,2.4
	C253.8,74.5,254.5,75,255.4,74.9z M283,72.5c0-1.4,0.1-2.9,0-4.3c-0.2-2.9-0.6-5.7-1.9-8.4c-1.7-3.3-4.4-4.5-8-3.5
	c-1.5,0.4-2.8,1.1-4.1,2c-5.4,3.9-8.8,9-9.5,15.7c-0.2,2-0.4,4-0.6,6c-0.2,1.4-0.9,2.1-1.9,2.1c-1,0-1.6-0.6-1.8-2.1
	c-0.1-0.8-0.3-1.3-1.1-1.6c-2.9-1.2-5.7-2.5-8.8-3.2c-4.6-1.1-9.1-0.8-13.3,1.3c-3.6,1.8-4.4,4.4-2.5,7.9c0.9,1.6,2,3.1,3.3,4.4
	c7,6.4,15,11.2,24,14.1c1.1,0.3,2.2,0.6,3.3,0.8c7.3,1.2,13.7-1.7,17.7-7.9c1.2-2,2.2-4.1,2.9-6.3C282.4,83.8,283.1,78.2,283,72.5z"
	/>
<path d="M439.6,86.5c3.5-1.3,7-2.1,10.6-2.2c3.9-0.2,7.7,0.3,11.3,1.8c2.6,1.1,4.9,2.7,6.6,5c2.3,3.2,2.2,6.6-0.2,9.7
	c-1.7,2.2-4,3.7-6.4,5c-4.9,2.7-10.1,4.4-15.5,5.7c-2.6,0.6-5.2,1-7.8,0.9c-4.3-0.2-7.9-1.7-10.8-4.9c-1-1.1-2-2.3-2.8-3.6
	c-4.5-7-7.6-14.6-8.9-22.9c-0.5-3.4-0.4-6.9,0.7-10.2c0.4-1.4,1-2.7,1.8-3.9c3.2-5,8.1-5.9,12.7-2.2c5.9,4.9,9.4,11.1,8.7,19
	c-0.1,0.6-0.1,1.3-0.1,1.9C439.5,85.9,439.5,86,439.6,86.5z M419.2,77.4c0.1,1.1,0.1,2.2,0.3,3.3c1.4,7.8,4.3,15,8.6,21.7
	c3.2,5,7.8,6.9,13.6,6c6.5-1,12.7-3,18.5-6.2c1.6-0.9,3.1-1.9,4.4-3.3c1.9-2.1,1.9-4.1,0-6.2c-1.7-2-3.9-3.1-6.3-3.8
	c-5.4-1.5-10.8-1.1-16,0.8c-1.6,0.6-3.3,1-4.4,2.7c-0.6,0.9-1.8,0.7-3-0.2c-0.9-0.7-1.3-1.7-0.5-2.5c1.4-1.3,1.3-3,1.5-4.6
	c0.9-7-1.9-12.5-7-17c-3-2.7-5.6-2.2-7.7,1.3C419.8,71.8,419.2,74.5,419.2,77.4z"/>
<path d="M168.5,191.3c0,10.2-6.2,17.5-15.7,19.1c-3.8,0.6-7.5,0.5-11.2-0.3c-5.1-1-9.9-2.7-14.3-5.3c-2.2-1.3-4.3-2.8-5.9-4.9
	c-3.2-4.3-2.7-9.1,1.4-12.6c2.5-2.2,5.5-3.2,8.6-3.9c3.7-0.8,7.4-1,11.2-1.4c2.4-0.2,2.4-0.2,2.3-2.5c-0.1-2.4-0.1-4.8,0.4-7.2
	c0.6-2.9,2-5.4,4.4-7.2c2.4-1.7,5.1-1.7,7.6,0c1.1,0.7,2,1.7,2.7,2.7c4.2,6.3,7,13.2,8.4,20.7C168.5,189.7,168.4,190.8,168.5,191.3z
	 M147.8,207c1.5,0,2.9-0.1,4.3-0.4c8.7-1.6,13.6-8.1,12.4-16.9c-0.9-7-3.8-13.3-7.5-19.3c-0.4-0.6-0.9-1.1-1.4-1.6
	c-1.6-1.4-2.9-1.4-4.4,0.1c-1.6,1.6-2.2,3.6-2.4,5.8c-0.3,3,0,6.1,0.6,9.1c0.1,0.6,0.3,1.2,0.2,1.9c-0.1,0.8-0.5,1.4-1.2,1.6
	c-0.8,0.2-1.6,0.1-1.9-0.6c-0.6-1.6-1.8-1.3-3-1.2c-1.1,0.1-2.2,0.2-3.3,0.3c-3.5,0.4-7,0.8-10.3,2c-1.8,0.6-3.6,1.4-4.9,2.8
	c-1.9,2-2.1,4.2-0.7,6.5c0.9,1.4,2.1,2.4,3.4,3.3C133.6,204.5,140.5,206.5,147.8,207z"/>
<path d="M550.3,142c1.4-1.3,2.6-2.4,3.9-3.3c4.1-3.2,8.6-5.2,13.9-5.1c5.5,0,8.9,3.6,8.9,9.1c0,1.4-0.2,2.9-0.6,4.3
	c-1.5,5.6-4.2,10.5-8.4,14.6c-6.1,6.1-13.8,6.7-20.9,1.9c-0.9-0.6-1.7-1.2-2.5-1.9c-5.7-5.3-10-11.6-12.6-18.9
	c-0.7-1.9-1.1-3.8-1-5.9c0.3-2.9,2.1-4.5,5-4.3c1.6,0.1,3.1,0.7,4.6,1.4C544.4,135.6,547.8,138.1,550.3,142z M567,137.3
	c-0.3,0-1.2,0.1-2,0.3c-4.4,0.9-7.9,3.2-11,6.3c-0.9,0.9-1.6,1.7-0.8,3.3c0.7,1.4-0.5,2.8-1.9,2.2c-1.1-0.5-1.7-0.3-2.5,0.3
	c-0.7,0.5-1.6,0.3-2.2-0.4c-0.6-0.7-0.6-1.5-0.1-2.2c0.3-0.5,0.6-0.9,1-1.3c0.5-0.6,0.5-1.1,0.1-1.7c-2.7-4-6.5-6.5-11.1-7.8
	c-1.2-0.3-1.6,0.1-1.5,1.4c0.1,1.4,0.4,2.7,0.9,4c2.5,6.5,6.3,12.2,11.4,16.9c1.3,1.2,2.8,2.2,4.4,2.9c4.4,2,8.6,1.7,12.3-1.4
	c5.2-4.3,8.3-9.8,9.3-16.5C573.6,139.4,571.6,137.2,567,137.3z"/>
<path d="M368.5,348.5c0.7-0.5,1.5-1,2.3-1.6c3.9-2.8,7.9-5.1,12.7-5.8c2.2-0.3,4.3-0.4,6.4,0.3c3,1,4.4,3.5,3.9,6.6
	c-0.3,1.7-1,3.4-1.9,4.9c-3.9,6.4-9,11.6-15.3,15.6c-6.5,4.1-12.7,3.5-18.5-1.7c-4.5-4-8.3-8.7-11-14.1c-1.2-2.4-2.1-4.8-2.2-7.5
	c-0.1-5.2,3.5-8.5,8.6-7.7c5.9,0.9,10.5,4,13.7,9.1C367.6,347.2,367.7,347.9,368.5,348.5z M368.5,367.3c2,0,4.1-0.8,6-2
	c5.7-3.7,10.4-8.4,14-14.2c0.6-1,1-2,1.3-3.1c0.4-1.8-0.1-2.7-2-3.1c-0.8-0.2-1.6-0.2-2.4-0.2c-2.3,0.1-4.6,0.8-6.7,1.8
	c-3.9,1.9-7.4,4.4-10.6,7.4c-0.6,0.6-1.1,1.1-1.8,1.6c-0.7,0.5-1.4,0.4-2-0.2c-0.7-0.6-0.9-1.3-0.5-2.1c0.2-0.4,0.4-0.7,0.7-1
	c0.9-0.7,0.7-1.5,0.2-2.3c-2.5-5.1-6.8-7.7-12.2-8.7c-2.3-0.4-3.8,1.1-4,3.4c-0.1,1.6,0.3,3,0.9,4.4c2.8,6.6,7.1,11.9,12.6,16.3
	C364,366.6,366,367.3,368.5,367.3z"/>
<path d="M579,366c0,2.1-0.1,4.8-0.9,7.5c-1.8,6.5-6.6,9.7-13.2,8.5c-7-1.3-12.7-5-17.6-10c-0.6-0.6-1-1.4-1.4-2.2
	c-0.4-0.8-0.3-1.6,0.5-2.1c0.8-0.6,1.5-0.3,2.1,0.3c0.3,0.3,0.6,0.8,0.9,1.1c4.4,4.8,9.8,7.9,16.2,9.2c0.5,0.1,1.1,0.1,1.7,0.1
	c3.6,0,5.9-1.5,7-5c1.1-3.4,1.2-6.9,0.8-10.4c-0.3-2.6-0.7-5.2-1-7.8c-0.1-0.5-0.2-1-0.2-1.4c0-1,0.4-1.7,1.4-1.9
	c1-0.2,1.7,0.3,2.1,1.2c0.1,0.4,0.2,0.8,0.3,1.2C578.3,357.9,578.8,361.6,579,366z"/>
<path d="M378.8,203.1c-0.2-4.3-0.4-8-1.4-11.7c-0.1-0.3-0.2-0.6-0.2-0.9c0-0.8,0.3-1.4,1.1-1.7c0.8-0.3,1.5,0,1.8,0.7
	c0.4,0.6,0.6,1.3,0.8,2c2.2,9.8,2.3,19.5-2.1,28.8c-0.7,1.5-1.4,3.1-1.8,4.7c-0.6,2.4,0.3,3.7,2.7,4c0.6,0.1,1.3,0,1.9,0
	c0.6,0,1.1-0.1,1.7,0c1.2,0.1,1.9,0.7,1.9,1.7c0,1-0.6,1.7-1.5,1.9c-3,0.6-5.9,0.5-8.5-1.4c-1.7-1.3-2.4-3.1-2.2-5.3
	c0.1-2.1,1-4,1.8-5.9c1.5-3.5,2.8-6.9,3.4-10.7C378.6,207,378.7,204.8,378.8,203.1z"/>
<path d="M413.5,209.8c-1.3,1.2-2.3,2.2-3.5,3.2c-5.3,4.3-10.8,4.6-16.6,0.9c-1.7-1.1-3.3-2.3-4.6-3.8c-0.4-0.5-0.9-0.9-1.1-1.6
	c-0.2-0.7,0-1.3,0.5-1.7c0.6-0.4,1.2-0.5,1.8-0.1c0.5,0.3,0.8,0.7,1.3,1.1c1.5,1.4,3.2,2.6,5,3.7c3.1,1.8,8.2,1.7,11.2-1.1
	c1.2-1.1,2.3-2.2,3.4-3.4c1.7-1.9,2.7-2,4.6-0.2c0.9,0.8,1.8,1.6,2.6,2.5c0.7,0.7,0.8,1.6,0.1,2.4c-0.7,0.8-1.6,0.7-2.4,0.1
	C415.1,211.2,414.4,210.5,413.5,209.8z"/>
<path d="M403.4,197.8c-2.2-0.1-4.3-0.5-6.1-1.8c-3.1-2.2-2.9-5.8,0.3-7.9c3.6-2.3,8.9-1.5,11.5,0.4c2.8,2,2.9,5.1,0.2,7.2
	C407.7,197.1,405.6,197.7,403.4,197.8z M403.4,193.9c1.2,0,2.3-0.2,3.3-0.8c1.1-0.6,1.1-1.3,0.1-2c-1.7-1.2-5.3-1.1-7,0.2
	c-0.7,0.5-0.7,1.1,0,1.5C400.8,193.7,402.1,193.9,403.4,193.9z"/>
<path d="M383.5,243.2c-4.5,0-8.2-1.7-11.5-4.4c-0.6-0.5-1-1-1.3-1.7c-0.5-1.1-0.3-2.1,0.6-2.5c0.9-0.5,1.6-0.1,2.3,0.7
	c2.8,3.4,6.5,4.5,10.7,4.3c1.8-0.1,3.5-0.7,4.3-2.6c0.1-0.2,0.2-0.4,0.4-0.6c0.6-0.8,1.4-1.3,2.5-0.7c1,0.6,1.2,1.5,0.7,2.5
	c-1,2.2-2.3,4-4.9,4.6C385.9,243,384.7,243.1,383.5,243.2z"/>
<path d="M461.2,232.4c-1.1,0-1.8-0.2-2-1c-0.3-0.9-0.1-1.7,0.8-2c3.5-1.2,6.4-3.5,9.8-4.8c1.3-0.5,2.3-0.3,2.8,0.6
	c0.5,0.9,0.1,2.1-1.2,2.7c-2.5,1.2-5,2.5-7.4,3.8C463,232,461.9,232.2,461.2,232.4z"/>
<path d="M362.2,206.6c-0.2-4.3-0.4-8.9-0.8-13.4c0-0.4-0.1-0.8-0.1-1.2c0-1.3,0.5-2,1.5-2.1c1.2,0,1.7,0.7,1.8,1.8
	c0.3,2.9,0.7,5.7,0.9,8.6c0.4,6.9,0.9,13.7,0.1,20.6c-0.2,1.8-0.5,3.7-1.1,5.4c-1.4,3.7-4.3,4.8-7.6,2.8c-3.2-1.9-5.6-4.7-7.8-7.7
	c-0.6-0.9-0.6-1.8,0.2-2.6c0.7-0.7,1.9-0.6,2.7,0.4c1.4,1.7,2.8,3.5,4.5,5c1,0.9,2.1,2.5,3.6,1.9c1.4-0.5,1.3-2.3,1.5-3.6
	C362.5,217.2,362.2,212,362.2,206.6z"/>
<path d="M345.5,205.7c-2.9,0-5.6-0.6-8.1-1.9c-0.5-0.3-1-0.5-1.4-0.9c-0.7-0.6-0.9-1.3-0.5-2.2c0.5-0.9,1.3-1.2,2.2-0.9
	c0.3,0.1,0.6,0.2,0.9,0.4c6.3,3.3,12.2,1.7,17.9-1.7c0.5-0.3,1-0.8,1.6-1c0.7-0.4,1.4-0.2,1.9,0.4c0.5,0.6,0.4,1.4,0,2
	c-0.3,0.4-0.7,0.7-1,1C355,203.8,350.5,205.5,345.5,205.7z"/>
<path d="M356,241.2c-4.5,0.1-8.3-1.9-11.2-5.7c-0.2-0.3-0.5-0.6-0.7-1c-0.4-0.9-0.5-1.7,0.3-2.4c0.8-0.6,1.6-0.5,2.4,0.1
	c0.3,0.3,0.6,0.5,0.8,0.9c3.3,4.5,7.8,5.2,12.8,4.2c0.6-0.1,1.3-0.3,1.9-0.3c1.2-0.1,2.1,0.5,2.2,1.4c0.1,1.1-0.7,1.5-1.6,1.8
	C360.9,240.9,358.6,241.2,356,241.2z"/>
<path d="M267.8,211.4c-0.4-0.1-0.9-0.2-1.4-0.3c-3-1-6.1-1.9-9.1-2.9c-0.4-0.1-0.8-0.2-1.1-0.5c-0.6-0.4-1-1-0.8-1.8
	c0.2-0.8,0.8-1.2,1.6-1.2c0.5,0,1.1,0.2,1.6,0.3c3,0.9,5.9,1.7,8.9,2.6c0.5,0.1,0.9,0.3,1.3,0.5c0.7,0.4,1.2,1.1,0.9,2
	C269.5,211,268.9,211.4,267.8,211.4z"/>
</svg>
