<?xml version="1.0" encoding="UTF-8"?><svg id="uuid-b7e9c866-9b20-4f99-9be9-af53b567639b" xmlns="http://www.w3.org/2000/svg" viewBox="0 0 2048 2312"><path d="M2048,2v83.93c-57.28-14.21-118.26-1.07-168.45,28.37-78.16,45.84-77.51,111.9-102.76,188.98-18.2,55.59-39.14,53.51-72.51,91.34-41.76,47.33-52.07,116.2-74.38,173.4-20.29,52.02-51.51,98.58-93.4,135.39-32.81-21.85-85.17-10.38-117.98,6.9-16.65,8.77-26.33,19.72-37.08,34.9-34.01-15.1-58.48-14.59-88.54,7.33-23.04,16.8-38.16,37.09-48.05,63.85-15.84,1.38-30.54,6.05-46.03,8.92.43-5.49-8.49-34.45-11.94-39.02-5.93-7.84-14.31-5.63-22.2-7.85-1.98-.56-3.37-2.96-3.83-3.09l59.85-158.97c2.15-1.48,4.42-.9,6.78-.75,21.95,1.39,48.36,10.54,72.15,11.94,10.16.6,41.68,1.13,49.66-2.46,5.7-2.56,9.78-33.14,11.08-40.87,3.51-20.89,4.77-54.24,10.7-73.22,3.22-10.31,45.44-31.41,36.57-49.4-4.31-8.74-36.4-10.55-47.36-34.58-2.55-5.58-8.13-24.69-7.59-30.17,1.28-12.95,18.55-27.96,18.02-46.04-.44-15.17-5.72-10.83-18.04-11.09,9.61-6.43,25.74,4.93,29.5-9.46,5.98-22.89,3.87-94.22-.11-118.84-17.5-108.12-130.22-163.99-227.23-112.52-8.58,4.55-42.13,29.94-45.32,30.67-4.19.97-18.71-3.75-25.54-3.82-137.99-1.41-171.42,220.51-221.77,311.93-23.02,41.79-55.43,76.91-80.99,117.02-1.62,11.59,25.75,23.72,35.27,28.52,40.1,20.22,96.14,41.15,138.58,56.24l-21.98,73.94c-7.37-3.48-26.39,5.21-32.96,10-12.9,9.42-22.21,30.64-30.98,43.95-96.47-72.55-298.21-80.65-363.64,37.97-13.02-24.81-26.5-42.72-53.95-51.96l29.99-161.87c30.39,5.32,62.58,7.08,92.32-2.55,4.57-1.48,19.42-7,21.71-10.26,3.29-4.68,8.4-54.37,9.58-64.35,2.87-24.32,4.99-48.86,6.61-73.32,7.29-8.69,52.98-35.77,45.23-48.97-1.32-2.24-29.63-14.84-34.95-18-10.53-6.25-37.76-25.24-41.62-36.44-1.07-3.1.88-30.34,1.01-36.81.35-17.56.14-30.75-10-46.98,27.41,8.66,66.43-10.31,68.04-41.04.41-7.86-4.67-19.25-3.73-25.51,1.2-8,13.98-20.55,15.59-36.39,6.29-61.62-52.23-148.96-118.95-146.92-7.92.24-21.36,6.68-26.88-1.92,514.13-.14,1028.36.11,1542.49,0Z" style="fill:#7f310a;"/><path d="M1536.5,703.39c8.26,5.5,24.67,27.66,28.03,29.03,2.97,1.21,28.58-3.85,38.39-2.53,58.61,7.9,118.3,101.29,101.53,156.46-2.41,7.91-12.64,21.33-13.7,26.33-.9,4.23,2.89,10.83,3.38,15.73,1.07,10.72-.13,19.49-5.77,28.75,96.26-29.7,212.61-60.9,259.75-159.84,8.55.87,18.84-1.17,27.08-.14,3.58.45,2.94,3.46,4.43,3.98,14.15,5,35.13,3.19,50.41,6.15,6.41,1.24,11.76,4.4,17.98,5.99v719.38c-8.4-9.46-13.87-21.19-22.04-30.91-46.5-55.35-128.22-66.87-191.1-33.37-10.45,5.57-37.96,28.12-44.07,29.94-7.18,2.13-19.37-3.37-27.31-3.4-86.23-.39-139.15,100.85-165.05,169.64-12.27-46.27-19.39-98.28-41.6-141.23-11.45-22.15-26.38-36.63-50.31-44.61l28.85-157.98c3.48-5.12,20.44.03,26.01.2,24.41.75,48.96.72,72.06-8.03,11.42-4.32,18.29-6.27,20.75-19.21,4.92-25.85,7.24-60.75,10.16-87.75,1.4-12.96,1.54-26.59,2.33-39.63,1.16-3.39,26.73-19.83,31.66-24.29,5.84-5.27,19.27-17.94,11.98-26.03-4.44-4.92-41.14-19.83-51.83-28.08-3.79-2.93-18.07-16.62-19.86-20.1-6.58-12.76.12-37.85-.09-51.68-.06-4.14-11.03-38.74-12.58-40.56-.8-.94-4.73-.75-6.56-2.34-17.88-15.61-25.21-38.98-34.99-60.01l-21.11,49.78c-13.76,22.58-29.95,40.43-56.37,47.53-8.77,2.36-35.39,7.65-43.44,6.69-14.3-1.71-30.04-25.29-50.97-21.25-39.72,7.66-59.64,104.22-18.44,112.6,21.33,4.34,30.75-2.67,55.2,8.74,46.19,21.55,45.32,64.49,15.26,100.58,50.86,22.72,61.04,83.64,25.01,124.96-20.56,23.58-64.12,42.41-95.45,37.46-20.68-3.26-38.96-23.24-59.06-18.13-6.25,1.59-13.06,7.1-18.34,8.62-25.17,7.25-61.27,9.37-85.92,0-18.33-6.97-41.12-26.09-53.89-41.02-7.33-8.58-15.04-24.4-23.01-30.94-6.17-5.07-16.81-7.38-24.34-11.62-43.93-24.75-64.27-72.51-48.72-121.34,2.45-7.7,17.98-31.81,18.2-33.96.61-6.01-4.83-7.21-6.99-11.01-27.63-48.73-9.57-147.71,50.51-168.06-.88-34.02,7.32-65.98,27.46-93.44,5.24-7.15,28.4-28.96,28.81-34.13,15.49-2.87,30.19-7.54,46.03-8.92,9.9-26.75,25.02-47.05,48.05-63.85,30.06-21.92,54.53-22.43,88.54-7.33,10.75-15.18,20.43-26.12,37.08-34.9,32.8-17.29,85.16-28.75,117.98-6.9Z" style="fill:#2c0f00;"/><path d="M1200.83,1490.71c2.51,2.78,15.58,28.52,17.51,33.44,8.84,22.57,15.71,66.24-7.52,82.46-1.45,1.01-6.46,1.61-9.39,3.57-10.13,6.76-9.05,16.12-14.23,25.75-24.04,44.75-74.34,78.32-127.13,68.5-12.88-2.4-29.1-27.46-46.06-15.9-16.63,11.34-20.53,50.2-16.41,68.39,5.1,22.57,14.66,27.5,34.98,34.95,8.61,3.15,14.83-.9,16.21,9.71,3.64,27.87,2.11,106.2-8.08,131.45-16.06,39.77-55.4,50.14-74.67,85.19-13.24,24.08-16.39,51.93-23.95,77.96-2.42,8.33-8.78,17.89-6.98,25.99-1.17.11-2.52-.53-3.61.32-1.02.8-9.61,18.72-12.32,22.71-67.85,100.06-209.59,123.75-317.82,161.84-3.19,1.12-7.09-.43-5.92,4.96h-49.95l-139.65-202.41c1.1-4.39,64.42-42.73,74.34-49.74,60.15-42.52,101.2-86.79,130.17-155.56,25.76-61.16,35.02-137.83,81.96-187.8,14.85-15.81,35.54-27.84,48.93-44.98,22.51-28.81,28.41-79.42,39.48-114.39,3.21-10.14,21.69-53,20.51-58.42,4.92.31,5.08-3.07,7.04-5.95,83.2-122.38,301.13-103.65,392.57-2.04Z" style="fill:#7f310a;"/><path d="M1288.74,1462.73c66.52,13.89,158.35-3.83,217.79,15.99,23.93,7.98,38.85,22.46,50.31,44.61,22.22,42.96,29.33,94.97,41.6,141.23-18.37,48.79-31.22,97.86-56.9,143.92-20.04,35.94-47.09,64.91-69.42,98.43-11.94,17.92-18.91,20.41,2.6,34.25,35.05,22.55,93.67,42.41,133.71,57.11-.4,8.29.55,16.76.07,25.05-.15,2.6-2.07,5.21-2.07,5.92v33.97c0,4.42-4.1,14.45-2,20.98-33.4,1.91-44.12,39.73-62.91,61.97-14.36,16.99-32.61,29.05-48.03,43.89-31.22,30.03-55.58,58.19-78.91,94.93-5.14,8.09-11.89,17.6-13.94,27.02h-229.78c-27.52-61.33-65.28-132.79-125.84-166.89-5.45-3.07-22.99-12.12-28.01-12.95l62.14-171.64c39.9,1.34,89.21,10.03,128.09-.79,12.68-3.53,14.15-4.71,15.54-18.43,2.32-22.95.63-48.83,2.05-71.89.84-13.69,2.42-27.94,4.41-41.55,4.97-8.42,48.6-28.71,47.36-36.13-.65-3.87-35.98-28-41.9-34.16-12.65-13.17-20.18-28.99-17.41-47.58,1.95-13.09,13.36-34.25,13.2-46.47-.16-12.67-16.04-43.04-19.68-56.92,23.23-16.22,16.36-59.89,7.52-82.46-1.93-4.92-15-30.66-17.51-33.44,2.83-4.74,5.94-9.16,9.92-13.05,2.13-2.08,18.88-16.32,20.05-16.92,3.2-1.65,22.91-6.25,26.97-6.15,8.11.19,21.32,6.14,30.97,8.15Z" style="fill:#f8b7b1;"/><path d="M2048,85.93v275.76c-30.78-9.96-37.43,37.86-36.05,59.04,1.61,24.76,10.63,40.01,36.05,44.87v157.86c-18.65,27.32-49.54,39.32-66.27,68.61-18.42,32.24-17.79,71.97-33.64,105.24-47.14,98.94-163.48,130.14-259.75,159.84,5.65-9.26,6.84-18.03,5.77-28.75-.49-4.9-4.28-11.5-3.38-15.73,1.07-5,11.3-18.42,13.7-26.33,16.77-55.16-42.92-148.55-101.53-156.46-9.81-1.32-35.42,3.73-38.39,2.53-3.36-1.36-19.77-23.53-28.03-29.03,41.9-36.81,73.11-83.37,93.4-135.39,22.31-57.2,32.62-126.07,74.38-173.4,33.38-37.82,54.31-35.74,72.51-91.34,25.24-77.09,24.59-143.14,102.76-188.98,50.18-29.43,111.17-42.58,168.45-28.37Z" style="fill:#b63629;"/><path d="M717.3,1438.76c5.73,1.01,25.8,11.45,32.01,14.95,10.29,5.8,49.78,35.14,51.91,45,1.17,5.42-17.3,48.28-20.51,58.42-11.07,34.97-16.97,85.58-39.48,114.39-13.39,17.14-34.08,29.18-48.93,44.98-46.95,49.97-56.2,126.63-81.96,187.8-28.97,68.77-70.02,113.04-130.17,155.56-9.92,7.01-73.24,45.35-74.34,49.74l139.65,202.41h-219.79c-8.36-50.69-17.77-105.99-40.24-152.58-12.34-25.59-27.37-43.09-55.66-51.24l32.97-157.91,2.13-1.72c28.91,5.11,57.81,6.19,86.3-1.71,22.8-6.32,26.54-6.01,30.19-29.75,3.28-21.34,5.93-46.08,8.23-67.7,1.73-16.29,1.64-32.73,2.91-49.04,2.17-6.9,23.46-19.78,30.13-25.82,5.1-4.63,19.67-17.11,16.04-24.01-2.34-4.44-43.82-24.04-52.89-31.16-12.96-10.18-24.75-20.7-24.25-37.88.81-27.77,6.47-34.38-5.63-62.12-1.12-2.56-4.33-6.87-.25-8.74,25.26,9.37,59.02-9.71,63.94-35.97,76.24-22.96,155.36-52.61,201.06-121.64,3.95-5.97,11.97-18.3,14.73-24.24,7.65.94,17.76-1.38,24.95.03,4.24.83,5.38,4.62,10.11,5.88,13.77,3.66,33.44,1.73,46.86,4.09Z" style="fill:#b63629;"/><path d="M2048,1532.67v175.85l-127.88,5.99v53.95c-15.46-.83-28.19-22.83-44.91-22.13-29.08,1.22-32.65,55.58-17.05,73.1,13.73,15.42,43.61,6.07,47.14,10.88-8.16,48.85-18.6,99.05-30.5,147.61-2.19,8.95-9.65,44.29-15.47,48.48l-129.72-.46c-6.65-4.15-6.86-45.49-9.29-56.65-.59-2.71.24-5.04-3-6.95-3.12.03-22.48,35.73-26.52,41.38-6.35,8.89-10.28,17.91-22.9,16.13-6.26-.88-27.93-8.9-35.5-11.59-6.78-2.42-15.79-6.98-23.98-9.99-40.04-14.7-98.65-34.56-133.71-57.11-21.51-13.84-14.54-16.33-2.6-34.25,22.33-33.52,49.38-62.49,69.42-98.43,25.68-46.06,38.54-95.13,56.9-143.92,25.89-68.79,78.82-170.03,165.05-169.64,7.94.04,20.13,5.54,27.31,3.4,6.11-1.81,33.62-24.37,44.07-29.94,62.88-33.5,144.59-21.98,191.1,33.37,8.17,9.72,13.64,21.46,22.04,30.91Z" style="fill:#fffefe;"/><path d="M1604.43,2084.2c1.96-.11,9.32-.37,9.99,0,.15.08-.26,2.84.56,3.33,69.18,19.6,139.5,36.67,209.23,54.62l2,2c2.88.68,10.54-.85,11.99,0,.18.11-.81,2.97,1.46,3.92,15.53,6.52,23.05-3.03,32.05,19.51,17.06,42.73,20.39,99.1,28.43,144.42h-499.51c2.05-9.41,8.81-18.93,13.94-27.02,23.33-36.73,47.7-64.9,78.91-94.93,15.42-14.84,33.67-26.9,48.03-43.89,18.8-22.24,29.51-60.06,62.91-61.97Z" style="fill:#013d1b;"/><path d="M2048,1708.52v25.98c-3.08,8.53-15.58,26.89-15.67,34.93s7.74,32.49,15.67,37v97.92l-17.31,90.09c-43.53,9.34-87.64-2.15-130.42-10.08l-62.06,159.79c-1.45-.85-9.11.68-11.99,0-.14-.03-.77-1.68-2-2-69.74-17.95-140.05-35.02-209.23-54.62-.82-.49-.41-3.25-.56-3.33l17.98-75.93c7.57,2.7,29.24,10.71,35.5,11.59,12.62,1.78,16.55-7.24,22.9-16.13,4.03-5.65,23.4-41.35,26.52-41.38,3.25,1.9,2.42,4.24,3,6.95,2.43,11.16,2.64,52.5,9.29,56.65l129.72.46c5.82-4.18,13.27-39.53,15.47-48.48,11.91-48.55,22.34-98.76,30.5-147.61-3.53-4.81-33.41,4.54-47.14-10.88-15.6-17.52-12.04-71.89,17.05-73.1,16.72-.7,29.45,21.3,44.91,22.13v-53.95l127.88-5.99Z" style="fill:#b6372a;"/><path d="M5.99,2092.19l4,2c4.61,1.01,9.3,1.43,13.99,2,1.95.23,4.04-.23,5.99,0,1.71,3.24,6.79,1.88,9.99,2,54.51,4.82,141.35-3.97,189.81,9.99,28.29,8.15,43.32,25.65,55.66,51.24,22.47,46.59,31.88,101.89,40.24,152.58H2c-.05-73.24.07-146.57,0-219.81,1.28.16,2.78-.24,4,0Z" style="fill:#f8b7b1;"/><path d="M935.09,2122.16c4.94-.48,22.9-1,26.58-.05,2.1.55,1.86,4.8,4.64,5.73,12.96,4.34,37.23,2.07,50.7,4.31,5.02.83,22.57,9.88,28.01,12.95,60.56,34.1,98.32,105.56,125.84,166.89h-575.44c-1.16-5.39,2.74-3.84,5.92-4.96,108.22-38.09,249.97-61.78,317.82-161.84,2.71-3.99,11.3-21.91,12.32-22.71,1.09-.85,2.44-.21,3.61-.32Z" style="fill:#2c0f00;"/><path d="M2048,1904.35v407.65h-147.86c-8.04-45.32-11.37-101.69-28.43-144.42-9-22.55-16.52-12.99-32.05-19.51-2.27-.95-1.28-3.82-1.46-3.92l62.06-159.79c42.78,7.93,86.9,19.42,130.42,10.08l17.31-90.09Z" style="fill:#7f310a;"/><path d="M2048,761.34l-17.98,45.96c-15.28-2.96-36.26-1.15-50.41-6.15-1.49-.53-.85-3.54-4.43-3.98-8.24-1.03-18.53,1.01-27.08.14,15.85-33.27,15.22-73,33.64-105.24,16.73-29.29,47.62-41.29,66.27-68.61v137.88Z" style="fill:#571f04;"/><path d="M0,1101.05V0h2048v2c-514.13.11-1028.36-.14-1542.49,0-55.91.02-111.92-.02-167.84,0-111.86.04-223.82-.02-335.68-.01v1093.06c.01,2,.01,4,.01,5.99H0Z" style="fill:#d3baad;"/><path d="M2048,361.69v103.91c-25.42-4.87-34.44-20.12-36.05-44.87-1.38-21.18,5.27-68.99,36.05-59.04Z" style="fill:#571f04;"/><path d="M2,2008.26c.01,27.94-.03,55.98,0,83.93H0v-695.4h2c.03,203.79-.1,407.68,0,611.47Z" style="fill:#d3baad;"/><path d="M2048,1806.44c-7.93-4.51-15.76-29.17-15.67-37s12.59-26.4,15.67-34.93v71.94Z" style="fill:#7f310a;"/><rect y="1101.05" width="2" height="295.74" style="fill:#f8b7b1;"/><path d="M2048,813.3c-6.23-1.59-11.57-4.75-17.98-5.99l17.98-45.96v51.96Z" style="fill:#7f310a;"/><path d="M2,2312H0v-219.81h2c.07,73.24-.05,146.57,0,219.81Z" style="fill:#fffefe;"/><path d="M869.15,767.34c34.23,25.74,65.18,69.5,59.72,114.68-1.07,8.84-8.55,26.16-15.76,31.19-1.45,1.01-6.46,1.61-9.39,3.57-9.42,6.28-13.9,25.99-20.96,37.01-24.67,38.46-73.77,65.92-120.4,57.25-16.76-3.12-34.75-36.49-53.43-7.29-14.57,22.77-17.36,72.19,8.96,87.73,6.35,3.75,31.83,9.03,33.11,12.85-2.69,41.8,7.62,96.17-7.98,135.35-15.44,38.78-54.56,49.53-74,83.85-18.61,32.86-18.28,72.23-33.63,105.25-2.76,5.94-10.77,18.27-14.73,24.24-45.7,69.03-124.82,98.67-201.06,121.64,2.37-12.67-3.15-22.03-2.02-30.82.61-4.78,11.16-19.13,13.45-26.68,16.35-54.01-42.88-148.45-100.51-156.14-11.96-1.59-31.24,3.86-39.39,1.41-5.22-1.57-13.41-15.03-18.33-19.62-10.35-9.67-21.14-15.27-35.02-17.93l38.41-48.52c56.97-69.96,55.65-183.05,114.42-249.26,35.07-39.51,54.81-36.27,73.49-94.36,13.32-41.44,20.16-88.88,41.43-127.42,65.43-118.62,267.18-110.51,363.64-37.97Z" style="fill:#fffefe;"/><path d="M505.51,2c5.53,8.6,18.96,2.16,26.88,1.92,66.72-2.03,125.24,85.3,118.95,146.92-1.62,15.84-14.39,28.4-15.59,36.39-.94,6.25,4.14,17.65,3.73,25.51-1.61,30.73-40.63,49.69-68.04,41.04-3.3-5.29-13.85-11.54-18.85-18.12-10.77-14.16-15-32.74-24.1-47.82-10.95,32.89-28.98,75.71-62.2,91.66-10.62,5.1-46.62,13.3-57.7,12.41-7.61-.61-26.83-17.2-37.51-20.59-47.85-15.21-81.28,104.93-28.25,112.16,10.85,1.48,21.88-1.18,32.82,1.15,14.4,3.05,37.13,15.9,45.6,28.33,20.85,30.64,5.13,52.59-11.64,79.48,35.94,17.21,52.26,50.12,43.39,89.49-11.23,49.79-78.5,84.11-125.84,69.01-8.86-2.83-33.23-17.18-38.4-17.3-6.08-.13-18.49,7.78-25.02,9.78-51.05,15.66-95.5,9.78-133.93-28.91-10.5-10.57-21.4-33.18-29.77-40.16-7.9-6.58-26.96-12.3-37.92-20.03-36.28-25.57-50.57-71.78-36.18-113.76,2.34-6.83,18.04-33.95,18.05-35.96.02-3.71-7.95-9.03-10.43-13.55-20.56-37.52-6.63-116.89,26.36-146.3,5.21-4.64,25.53-15.92,27.01-18.95,2.64-5.41.32-17.63,1.24-24.73,6.39-49.05,45.27-113.1,101.34-109.48,8.54-23.74,21.74-43.52,41.31-59.59,20.6-16.92,38.25-25.05,65.68-21.81,18.18,2.15,32.37,18.95,41.18-8.21,55.91-.02,111.92.02,167.84,0Z" style="fill:#571f04;"/><path d="M233.77,737.36c66.27,13.51,159.16-3.74,217.79,15.99,27.45,9.24,40.93,27.15,53.95,51.96-21.26,38.55-28.1,85.98-41.43,127.42-18.68,58.09-38.42,54.85-73.49,94.36-58.77,66.21-57.45,179.29-114.42,249.26l-38.41,48.52c-32.82-6.29-84.75,6.24-110.59,28.28-4.89,4.17-15.51,20.51-18.69,21.42-4.22,1.21-32.03-9.02-42.1-9.17-26.06-.39-44.79,18.43-64.38,31.41v-295.74c0-2,0-4,0-5.99,5,.91,6.8-9.51,8.03-12.96,28.09-78.67,54.68-162.12,90.15-237.54,16.34-34.74,43.92-94.16,80.28-109.55,24.93-10.55,29.78-2.44,53.3,2.35Z" style="fill:#b6372a;"/><path d="M1352.68,339.71c-37.68-.77-76.09,7-113.9,5.98-1.62,8.3,6.76,51.81-1.04,53.95-4.62,1.27-24.26-18.74-32.84-21.03-36.22-9.68-45.48,48.1-27.75,69.71,2.65,3.23,15.35,11.28,18.69,11.28h28.97c.16,4.86.15,9.64-.51,14.49-5.97,43.63-20.78,102.47-32.04,145.79-2.29,8.83-7.6,35-15.44,38.52-35.23-.03-74.02,3.57-108.94,1.11-3.95-.28-16.13-1.74-18.9-3.08-6.03-2.94-5.11-32.04-6.02-39.94-.95-8.31-2.99-16.69-4-24.99-12.94,9.5-31.23,61.14-48.43,59.57-4.23-.39-29.21-9.39-35.47-11.61-42.44-15.09-98.48-36.02-138.58-56.24-9.52-4.8-36.89-16.93-35.27-28.52,25.56-40.11,57.97-75.24,80.99-117.02,50.35-91.42,83.78-313.34,221.77-311.93,6.83.07,21.35,4.78,25.54,3.82,3.19-.74,36.75-26.12,45.32-30.67,97.02-51.47,209.74,4.41,227.23,112.52,3.98,24.62,6.09,95.95.11,118.84-3.76,14.39-19.89,3.03-29.5,9.46Z" style="fill:#2c0f00;"/><path d="M933.09,713.38c.74.35.87,5.59,3.5,5.97,74.19,20.43,150.09,36.04,224.27,55.98.46.12,1.85,2.53,3.83,3.09,7.88,2.22,16.27.02,22.2,7.85,3.45,4.56,12.37,33.52,11.94,39.02-.41,5.17-23.57,26.98-28.81,34.13-20.14,27.46-28.34,59.42-27.46,93.44-60.08,20.34-78.14,119.32-50.51,168.06,2.15,3.8,7.6,4.99,6.99,11.01-.22,2.16-15.74,26.26-18.2,33.96-15.55,48.82,4.79,96.59,48.72,121.34,7.53,4.24,18.18,6.55,24.34,11.62,7.96,6.54,15.67,22.37,23.01,30.94,12.77,14.93,35.55,34.06,53.89,41.02v89.92c-1.17.6-17.92,14.84-20.05,16.92-3.99,3.89-7.09,8.32-9.92,13.05-91.44-101.61-309.37-120.34-392.57,2.04-1.96,2.89-2.12,6.26-7.04,5.95-2.13-9.86-41.63-39.19-51.91-45-6.2-3.5-26.28-13.94-32.01-14.95l64.08-171.7c33.58,3.35,71.06,6.41,104.83,3.92,7.09-.52,32.75-4.23,35.85-10.1,1.34-2.53,2.69-11.58,3-14.99,1.98-22.15.52-47.43,2.05-69.88.94-13.7,2.66-27.75,4.04-41.44,5.46-7.38,49.35-28.94,47.8-36.3-.64-3.03-31.71-24.28-36.93-29.14-11.65-10.85-25.45-29.28-24.03-46.12,1.29-15.27,14.99-37.75,14.38-52.55-.58-14.05-16.24-41.96-19.27-57.25,7.21-5.03,14.69-22.36,15.76-31.19,5.46-45.18-25.49-88.94-59.72-114.68,8.77-13.31,18.08-34.53,30.98-43.95,6.56-4.79,25.59-13.48,32.96-10Z" style="fill:#013d1b;"/><path d="M571.44,253.78c10.14,16.23,10.35,29.43,10,46.98-.13,6.47-2.08,33.71-1.01,36.81,3.86,11.2,31.09,30.2,41.62,36.44,5.32,3.16,33.64,15.76,34.95,18,7.75,13.2-37.93,40.28-45.23,48.97-1.63,24.46-3.75,48.99-6.61,73.32-1.18,9.99-6.29,59.68-9.58,64.35-2.29,3.26-17.13,8.78-21.71,10.26-29.74,9.64-61.93,7.87-92.32,2.55l-29.99,161.87c-58.63-19.73-151.51-2.48-217.79-15.99l29.97-93.92c6.53-2,18.94-9.92,25.02-9.78,5.17.11,29.54,14.47,38.4,17.3,47.34,15.09,114.61-19.22,125.84-69.01,8.88-39.37-7.44-72.28-43.39-89.49,16.77-26.89,32.49-48.84,11.64-79.48-8.46-12.44-31.2-25.28-45.6-28.33-10.94-2.32-21.97.33-32.82-1.15-53.04-7.23-19.6-127.38,28.25-112.16,10.68,3.4,29.9,19.98,37.51,20.59,11.08.89,47.08-7.31,57.7-12.41,33.21-15.96,51.25-58.77,62.2-91.66,9.1,15.07,13.33,33.65,24.1,47.82,5,6.58,15.55,12.83,18.85,18.12Z" style="fill:#fe7e71;"/><path d="M1352.68,339.71c12.32.25,17.6-4.08,18.04,11.09.53,18.09-16.74,33.09-18.02,46.04-.54,5.48,5.04,24.59,7.59,30.17,10.97,24.03,43.05,25.84,47.36,34.58,8.87,17.99-33.35,39.09-36.57,49.4-5.93,18.98-7.19,52.33-10.7,73.22-1.3,7.73-5.38,38.31-11.08,40.87-7.97,3.59-39.5,3.06-49.66,2.46-23.79-1.39-50.2-10.55-72.15-11.94-2.36-.15-4.63-.72-6.78.75l-59.85,158.97c-74.18-19.94-150.09-35.55-224.27-55.98-2.63-.38-2.76-5.62-3.5-5.97l21.98-73.94c6.26,2.23,31.24,11.23,35.47,11.61,17.19,1.57,35.48-50.07,48.43-59.57,1.01,8.3,3.05,16.68,4,24.99.91,7.91-.02,37,6.02,39.94,2.76,1.35,14.95,2.81,18.9,3.08,34.92,2.46,73.71-1.14,108.94-1.11,7.83-3.52,13.14-29.69,15.44-38.52,11.26-43.32,26.07-102.17,32.04-145.79.66-4.85.67-9.63.51-14.49h-28.97c-3.34,0-16.03-8.05-18.69-11.28-17.73-21.61-8.47-79.39,27.75-69.71,8.58,2.29,28.22,22.3,32.84,21.03,7.8-2.14-.58-45.65,1.04-53.95,37.81,1.01,76.21-6.76,113.9-5.98Z" style="fill:#b53629;"/><path d="M1316.71,1370.81c5.28-1.52,12.09-7.03,18.34-8.62,20.1-5.11,38.39,14.87,59.06,18.13,31.33,4.94,74.89-13.89,95.45-37.46,36.03-41.32,25.85-102.24-25.01-124.96,30.06-36.1,30.93-79.04-15.26-100.58-24.45-11.4-33.87-4.39-55.2-8.74-41.2-8.39-21.28-104.95,18.44-112.6,20.92-4.03,36.66,19.54,50.97,21.25,8.06.96,34.67-4.33,43.44-6.69,26.42-7.1,42.61-24.96,56.37-47.53l21.11-49.78c9.78,21.03,17.12,44.4,34.99,60.01,1.83,1.6,5.76,1.41,6.56,2.34,1.55,1.83,12.52,36.43,12.58,40.56.21,13.83-6.49,38.92.09,51.68,1.79,3.48,16.07,17.18,19.86,20.1,10.69,8.24,47.39,23.15,51.83,28.08,7.29,8.09-6.14,20.76-11.98,26.03-4.94,4.46-30.5,20.89-31.66,24.29-.79,13.04-.93,26.67-2.33,39.63-2.92,27-5.24,61.9-10.16,87.75-2.46,12.94-9.34,14.88-20.75,19.21-23.1,8.75-47.64,8.79-72.06,8.03-5.57-.17-22.53-5.32-26.01-.2l-28.85,157.98c-59.43-19.81-151.27-2.1-217.79-15.99l27.97-91.92Z" style="fill:#571f04;"/><path d="M1316.71,1370.81l-27.97,91.92c-9.65-2.02-22.86-7.96-30.97-8.15-4.06-.1-23.77,4.5-26.97,6.15v-89.92c24.65,9.37,60.74,7.25,85.92,0Z" style="fill:#7f310a;"/><path d="M1210.82,1606.61c3.64,13.87,19.51,44.24,19.68,56.92.16,12.22-11.25,33.38-13.2,46.47-2.77,18.58,4.76,34.41,17.41,47.58,5.92,6.16,41.25,30.28,41.9,34.16,1.24,7.42-42.39,27.71-47.36,36.13-1.99,13.61-3.57,27.85-4.41,41.55-1.41,23.06.27,48.94-2.05,71.89-1.39,13.72-2.85,14.9-15.54,18.43-38.88,10.83-88.19,2.13-128.09.79l-62.14,171.64c-13.47-2.24-37.74.03-50.7-4.31-2.78-.93-2.54-5.18-4.64-5.73-3.68-.96-21.64-.43-26.58.05-1.79-8.09,4.56-17.65,6.98-25.99,7.56-26.02,10.71-53.87,23.95-77.96,19.27-35.04,58.61-45.41,74.67-85.19,10.19-25.24,11.72-103.58,8.08-131.45-1.39-10.61-7.61-6.56-16.21-9.71-20.32-7.45-29.87-12.38-34.98-34.95-4.11-18.19-.22-57.05,16.41-68.39,16.96-11.57,33.18,13.5,46.06,15.9,52.8,9.82,103.09-23.75,127.13-68.5,5.18-9.64,4.1-19,14.23-25.75,2.94-1.96,7.95-2.56,9.39-3.57Z" style="fill:#fe7f72;"/><path d="M1632.41,2008.26l-17.98,75.93c-.67-.37-8.03-.11-9.99,0-2.11-6.53,2-16.56,2-20.98v-33.97c0-.71,1.92-3.32,2.07-5.92.48-8.3-.47-16.76-.07-25.05,8.19,3.01,17.19,7.58,23.98,9.99Z" style="fill:#7f310a;"/><path d="M237.77,1324.85c13.88,2.66,24.67,8.26,35.02,17.93,4.92,4.6,13.11,18.06,18.33,19.62,8.15,2.44,27.43-3.01,39.39-1.41,57.64,7.69,116.86,102.12,100.51,156.14-2.29,7.56-12.84,21.91-13.45,26.68-1.13,8.79,4.39,18.15,2.02,30.82-4.92,26.26-38.68,45.34-63.94,35.97-1.79-.66-13.6-9.25-15.65-11.33-13.26-13.43-17.54-34.36-26.79-49.15-1.56-2.49-1.88-4.22-5.51-3.46-5.55,33.96-32.38,80.85-65.99,92.87-9.78,3.5-41.24,9.98-50.9,9.14-13.57-1.18-29.74-23.06-47.93-22.22-36.49,1.69-61.91,85.81-32.01,108.05,13.83,10.28,28.96,3.82,43.85,6.1,17.86,2.74,41.71,17.13,50.69,33.24,16.7,29.99,1.92,49.71-13.47,75.35,59.91,28.76,59.19,104.38,6.52,140.72-19.73,13.61-51.32,25.03-75.35,22.11-16.44-2-43.41-21.36-52.13-21.55-6.15-.13-18.45,7.83-25.02,9.78-13.87,4.13-29.49,7.99-43.96,7.99-.1-203.79.03-407.68,0-611.47,19.59-12.98,38.33-31.81,64.38-31.41,10.07.15,37.88,10.38,42.1,9.17,3.19-.91,13.8-17.25,18.69-21.42,25.84-22.04,77.77-34.57,110.59-28.28Z" style="fill:#2c0f00;"/><path d="M355.65,1610.61c-4.08,1.86-.86,6.18.25,8.74,12.1,27.74,6.44,34.35,5.63,62.12-.5,17.18,11.3,27.7,24.25,37.88,9.06,7.13,50.55,26.72,52.89,31.16,3.63,6.9-10.93,19.38-16.04,24.01-6.66,6.04-27.96,18.92-30.13,25.82-1.27,16.31-1.18,32.76-2.91,49.04-2.3,21.62-4.95,46.36-8.23,67.7-3.65,23.75-7.39,23.43-30.19,29.75-28.49,7.9-57.39,6.82-86.3,1.71l-2.13,1.72-32.97,157.91c-48.46-13.96-135.31-5.18-189.81-9.99-1.12-.1-6.34-1.57-9.99-2-1.95-.23-4.05.23-5.99,0-6.13-4.54-9.34,1.78-7.53-8.52,4.8-27.38,23.85-59.31,29.51-87.4,6.56-1.95,18.87-9.92,25.02-9.78,8.71.19,35.69,19.55,52.13,21.55,24.03,2.92,55.62-8.49,75.35-22.11,52.67-36.34,53.39-111.97-6.52-140.72,15.4-25.64,30.18-45.37,13.47-75.35-8.97-16.11-32.83-30.5-50.69-33.24-14.89-2.28-30.02,4.18-43.85-6.1-29.9-22.24-4.48-106.36,32.01-108.05,18.19-.84,34.36,21.04,47.93,22.22,9.67.84,41.12-5.64,50.9-9.14,33.6-12.02,60.44-58.91,65.99-92.87,3.63-.76,3.95.97,5.51,3.46,9.25,14.79,13.53,35.72,26.79,49.15,2.05,2.08,13.86,10.66,15.65,11.33Z" style="fill:#571f04;"/><path d="M913.11,913.21c3.03,15.28,18.69,43.19,19.27,57.25.61,14.81-13.08,37.28-14.38,52.55-1.42,16.83,12.37,35.27,24.03,46.12,5.22,4.86,36.29,26.11,36.93,29.14,1.55,7.37-42.34,28.92-47.8,36.3-1.38,13.68-3.1,27.74-4.04,41.44-1.53,22.46-.07,47.73-2.05,69.88-.3,3.4-1.66,12.46-3,14.99-3.11,5.87-28.76,9.58-35.85,10.1-33.78,2.48-71.25-.58-104.83-3.92l-64.08,171.7c-13.42-2.36-33.09-.43-46.86-4.09-4.73-1.26-5.87-5.05-10.11-5.88-7.18-1.41-17.3.91-24.95-.03,15.35-33.02,15.02-72.38,33.63-105.25,19.44-34.33,58.56-45.07,74-83.85,15.6-39.18,5.29-93.55,7.98-135.35-1.28-3.82-26.76-9.1-33.11-12.85-26.32-15.54-23.53-64.95-8.96-87.73,18.68-29.2,36.67,4.17,53.43,7.29,46.63,8.68,95.74-18.78,120.4-57.25,7.06-11.02,11.55-30.73,20.96-37.01,2.94-1.96,7.95-2.56,9.39-3.57Z" style="fill:#fe7f72;"/><path d="M1826.22,2144.15l-2-2c1.23.32,1.86,1.97,2,2Z" style="fill:#7f310a;"/><path d="M45.96,2000.27c-5.66,28.09-24.71,60.02-29.51,87.4-1.8,10.3,1.4,3.98,7.53,8.52-4.69-.56-9.37-.99-13.99-2-.22-.05-.82-1.38-4-2-1.21-.24-2.72.16-4,0-.03-27.94.01-55.98,0-83.93,14.47,0,30.09-3.86,43.96-7.99Z" style="fill:#7f310a;"/><path d="M39.96,2098.18c-3.2-.12-8.28,1.24-9.99-2,3.65.43,8.87,1.9,9.99,2Z" style="fill:#7f310a;"/><path d="M9.99,2094.19l-4-2c3.18.62,3.78,1.95,4,2Z" style="fill:#d3baad;"/><path d="M337.67,2c-8.8,27.16-23,10.36-41.18,8.21-27.43-3.24-45.08,4.89-65.68,21.81-19.56,16.07-32.77,35.84-41.31,59.59-56.06-3.62-94.95,60.43-101.34,109.48-.93,7.11,1.39,19.32-1.24,24.73-1.47,3.02-21.8,14.31-27.01,18.95-32.99,29.42-46.92,108.78-26.36,146.3,2.47,4.52,10.45,9.84,10.43,13.55-.01,2.01-15.71,29.13-18.05,35.96-14.39,41.98-.1,88.19,36.18,113.76,10.96,7.72,30.02,13.45,37.92,20.03,8.38,6.98,19.27,29.59,29.77,40.16,38.43,38.69,82.88,44.57,133.93,28.91l-29.97,93.92c-23.53-4.8-28.38-12.9-53.3-2.35-36.36,15.38-63.94,74.81-80.28,109.55-35.48,75.43-62.06,158.88-90.15,237.54-1.23,3.44-3.04,13.87-8.03,12.96V1.99c111.85-.01,223.81.05,335.67.01Z" style="fill:#7f310a;"/></svg>