<?xml version="1.0" encoding="UTF-8"?>
<svg id="Layer_1" data-name="Layer 1" xmlns="http://www.w3.org/2000/svg" xmlns:xlink="http://www.w3.org/1999/xlink" viewBox="0 0 1080 1350">
  <defs>
    <style>
      .cls-1 {
        fill: url(#linear-gradient-2);
      }

      .cls-2 {
        fill: url(#linear-gradient-17);
      }

      .cls-3 {
        fill: url(#linear-gradient-15);
      }

      .cls-4 {
        fill: url(#linear-gradient-14);
      }

      .cls-5 {
        fill: url(#linear-gradient-6);
      }

      .cls-6 {
        clip-path: url(#clippath-1);
      }

      .cls-7 {
        fill: url(#linear-gradient-11);
      }

      .cls-7, .cls-8, .cls-9, .cls-10, .cls-11 {
        opacity: .9;
      }

      .cls-12 {
        fill: url(#linear-gradient-16);
      }

      .cls-8 {
        fill: url(#linear-gradient-9);
      }

      .cls-13 {
        fill: url(#linear-gradient-5);
      }

      .cls-14 {
        clip-path: url(#clippath);
      }

      .cls-15 {
        fill: none;
      }

      .cls-9 {
        fill: url(#linear-gradient-10);
      }

      .cls-10 {
        fill: url(#linear-gradient-8);
      }

      .cls-16 {
        fill: url(#linear-gradient-3);
      }

      .cls-17 {
        fill: url(#linear-gradient);
      }

      .cls-18 {
        fill: url(#linear-gradient-4);
      }

      .cls-19 {
        fill: url(#linear-gradient-12);
      }

      .cls-20 {
        fill: url(#linear-gradient-13);
      }

      .cls-11 {
        fill: url(#linear-gradient-7);
      }
    </style>
    <clipPath id="clippath">
      <rect class="cls-15" y="-1694" width="1080" height="1350"/>
    </clipPath>
    <linearGradient id="linear-gradient" x1="3503.97" y1="-6979.83" x2="3503.97" y2="-5895.77" gradientTransform="translate(-3169.94 5844.69)" gradientUnits="userSpaceOnUse">
      <stop offset="0" stop-color="#fff"/>
      <stop offset=".47" stop-color="#f98cca"/>
      <stop offset=".75" stop-color="#dd3508"/>
      <stop offset="1" stop-color="#2a1f1a"/>
    </linearGradient>
    <linearGradient id="linear-gradient-2" x1="3408.57" y1="-7050.86" x2="3408.57" y2="-5966.79" gradientTransform="translate(-2979.15 5986.74)" xlink:href="#linear-gradient"/>
    <linearGradient id="linear-gradient-3" x1="3313.18" y1="-7172.72" x2="3313.18" y2="-6088.65" gradientTransform="translate(-2788.36 6230.46)" xlink:href="#linear-gradient"/>
    <linearGradient id="linear-gradient-4" x1="2757.3" y1="-6979.83" x2="2757.3" y2="-5895.77" gradientTransform="translate(-2011.33 -6925) scale(1 -1)" xlink:href="#linear-gradient"/>
    <linearGradient id="linear-gradient-5" x1="2661.9" y1="-7050.86" x2="2661.9" y2="-5966.79" gradientTransform="translate(-2011.33 -6925) scale(1 -1)" xlink:href="#linear-gradient"/>
    <linearGradient id="linear-gradient-6" x1="2566.51" y1="-7172.72" x2="2566.51" y2="-6088.65" gradientTransform="translate(-2011.33 -6925) scale(1 -1)" xlink:href="#linear-gradient"/>
    <clipPath id="clippath-1">
      <rect class="cls-15" x="1369" width="1080" height="1350"/>
    </clipPath>
    <linearGradient id="linear-gradient-7" x1="-3304.09" y1="-4105.47" x2="-3304.09" y2="-2595.31" gradientTransform="translate(5213.09 3951.62)" gradientUnits="userSpaceOnUse">
      <stop offset="0" stop-color="#22192a"/>
      <stop offset=".24" stop-color="#451f33"/>
      <stop offset=".37" stop-color="#e83757"/>
      <stop offset=".52" stop-color="#ffff0c"/>
      <stop offset=".66" stop-color="#06f7ac"/>
      <stop offset=".77" stop-color="#3b1093"/>
      <stop offset=".79" stop-color="#431a97"/>
      <stop offset=".83" stop-color="#5a36a4"/>
      <stop offset=".87" stop-color="#7f63b8"/>
      <stop offset=".93" stop-color="#b3a2d5"/>
      <stop offset=".99" stop-color="#f4f2f9"/>
      <stop offset="1" stop-color="#fff"/>
    </linearGradient>
    <linearGradient id="linear-gradient-8" x1="-3447.81" y1="-3208.31" x2="-3447.81" y2="-1698.15" gradientTransform="translate(5356.81 3054.46)" xlink:href="#linear-gradient-7"/>
    <linearGradient id="linear-gradient-9" x1="-3446.47" y1="-2299.71" x2="-3446.47" y2="-789.55" gradientTransform="translate(5355.47 2145.86)" xlink:href="#linear-gradient-7"/>
    <linearGradient id="linear-gradient-10" x1="-3300.1" y1="-1402.98" x2="-3300.1" y2="107.19" gradientTransform="translate(5209.1 1249.12)" xlink:href="#linear-gradient-7"/>
    <linearGradient id="linear-gradient-11" x1="-3012.45" y1="-541.11" x2="-3012.45" y2="969.05" gradientTransform="translate(4921.45 387.26)" xlink:href="#linear-gradient-7"/>
    <linearGradient id="linear-gradient-12" x1="540" y1="1352.91" x2="540" y2="1032.02" gradientUnits="userSpaceOnUse">
      <stop offset="0" stop-color="#000"/>
      <stop offset=".14" stop-color="#000204"/>
      <stop offset=".3" stop-color="#000912"/>
      <stop offset=".47" stop-color="#001429"/>
      <stop offset=".65" stop-color="#002349"/>
      <stop offset=".83" stop-color="#003772"/>
      <stop offset="1" stop-color="#004d9f"/>
    </linearGradient>
    <linearGradient id="linear-gradient-13" x1="540" y1="1351.59" x2="540" y2="1176.9" gradientUnits="userSpaceOnUse">
      <stop offset="0" stop-color="#000"/>
      <stop offset=".15" stop-color="#000204"/>
      <stop offset=".31" stop-color="#000811"/>
      <stop offset=".47" stop-color="#001327"/>
      <stop offset=".64" stop-color="#002145"/>
      <stop offset=".82" stop-color="#00346c"/>
      <stop offset=".99" stop-color="#004b9c"/>
      <stop offset="1" stop-color="#004d9f"/>
    </linearGradient>
    <linearGradient id="linear-gradient-14" x1="540" y1="807.62" x2="540" y2="356.37" gradientUnits="userSpaceOnUse">
      <stop offset="0" stop-color="#fff"/>
      <stop offset=".27" stop-color="#f98cca"/>
      <stop offset=".48" stop-color="#dd3508"/>
      <stop offset=".49" stop-color="#d63307"/>
      <stop offset=".59" stop-color="#962405"/>
      <stop offset=".7" stop-color="#601703"/>
      <stop offset=".79" stop-color="#360d01"/>
      <stop offset=".88" stop-color="#180500"/>
      <stop offset=".95" stop-color="#060100"/>
      <stop offset="1" stop-color="#000"/>
    </linearGradient>
    <linearGradient id="linear-gradient-15" x1="540" y1="576.28" x2="540" y2="160.62" xlink:href="#linear-gradient-14"/>
    <linearGradient id="linear-gradient-16" x1="540" y1="364.64" x2="540" y2="16.66" xlink:href="#linear-gradient-14"/>
    <linearGradient id="linear-gradient-17" x1="540" y1="528.25" x2="540" y2="390.84" gradientTransform="translate(1080 527) rotate(-180)" xlink:href="#linear-gradient"/>
  </defs>
  <g class="cls-14">
    <g>
      <g>
        <rect class="cls-17" x="286.18" y="-1158.43" width="95.69" height="1236.55" transform="translate(668.06 -1080.31) rotate(180)"/>
        <rect class="cls-1" x="381.58" y="-1087.4" width="95.69" height="1236.55" transform="translate(858.85 -938.26) rotate(180)"/>
        <rect class="cls-16" x="476.97" y="-965.54" width="95.69" height="1236.55" transform="translate(1049.64 -694.54) rotate(180)"/>
      </g>
      <g>
        <rect class="cls-18" x="698.12" y="-1158.43" width="95.69" height="1236.55"/>
        <rect class="cls-13" x="602.73" y="-1087.4" width="95.69" height="1236.55"/>
        <rect class="cls-5" x="507.33" y="-965.54" width="95.69" height="1236.55"/>
      </g>
    </g>
  </g>
  <g class="cls-6">
    <g>
      <rect class="cls-11" x="1842.35" y="-186.29" width="133.31" height="1722.58" transform="translate(1804.44 2697.12) rotate(-106.51)"/>
      <rect class="cls-10" x="1842.35" y="-186.29" width="133.31" height="1722.58" transform="translate(1482.98 2654.5) rotate(-97.33)"/>
      <rect class="cls-8" x="1842.35" y="-186.29" width="133.31" height="1722.58" transform="translate(1172.44 2561.1) rotate(-88.14)"/>
      <rect class="cls-9" x="1842.35" y="-186.29" width="133.31" height="1722.58" transform="translate(880.79 2419.33) rotate(-78.96)"/>
      <rect class="cls-7" x="1842.35" y="-186.29" width="133.31" height="1722.58" transform="translate(615.52 2232.82) rotate(-69.77)"/>
    </g>
  </g>
  <g>
    <rect width="1080" height="1350"/>
    <g>
      <path class="cls-19" d="m886.24,1350c-4.43-187.42-157.75-338-346.24-338s-341.81,150.58-346.24,338h692.48Z"/>
      <path class="cls-20" d="m728.49,1350c-2.41-102.03-85.88-184-188.49-184s-186.07,81.97-188.49,184h376.97Z"/>
    </g>
    <path class="cls-4" d="m50.11,334.76c6.27,265.19,223.2,478.24,489.89,478.24s483.62-213.05,489.89-478.24H50.11Z"/>
    <path class="cls-3" d="m88.73,140.71c5.78,244.28,205.6,440.53,451.27,440.53s445.49-196.25,451.27-440.53H88.73Z"/>
    <g>
      <path class="cls-12" d="m162.22,0c4.84,204.5,172.12,368.79,377.78,368.79S912.95,204.5,917.78,0H162.22Z"/>
      <path class="cls-2" d="m391.74,0c1.9,80.26,67.55,144.73,148.26,144.73S686.36,80.26,688.26,0h-296.53Z"/>
    </g>
  </g>
</svg>