<?xml version="1.0" encoding="UTF-8"?>
<svg id="Layer_2" data-name="Layer 2" xmlns="http://www.w3.org/2000/svg" viewBox="0 0 1500 2000">
  <defs>
    <style>
      .cls-1 {
        fill: #f56c9f;
      }

      .cls-2 {
        fill: #020202;
      }

      .cls-3 {
        fill: #e7e7dc;
      }

      .cls-4 {
        fill: #fffff9;
      }

      .cls-5 {
        fill: #ccff3b;
      }

      .cls-6 {
        fill: #965bf8;
      }

      .cls-7 {
        fill: #6222c0;
      }
    </style>
  </defs>
  <rect class="cls-7" width="1500" height="2000" transform="translate(1500 2000) rotate(180)"/>
  <g>
    <g>
      <g>
        <polygon class="cls-1" points="267.48 1228.14 267.48 1311.3 374.69 1372.18 451.61 1326.14 267.48 1228.14"/>
        <path class="cls-2" d="m374.69,1375.18c-.51,0-1.02-.13-1.48-.39l-107.2-60.88c-.94-.53-1.52-1.53-1.52-2.61v-83.15c0-1.05.55-2.03,1.46-2.57.9-.54,2.02-.57,2.95-.08l184.13,98c.96.51,1.56,1.49,1.59,2.57.03,1.08-.53,2.09-1.46,2.65l-76.92,46.03c-.47.28-1.01.43-1.54.43Zm-104.2-65.63l104.17,59.15,70.86-42.41-175.03-93.16v76.41Z"/>
      </g>
      <g>
        <polygon class="cls-7" points="374.69 1285.2 374.69 1372.18 451.61 1326.14 374.69 1285.2"/>
        <path class="cls-2" d="m374.69,1375.18c-.51,0-1.02-.13-1.48-.39-.94-.53-1.52-1.53-1.52-2.61v-86.97c0-1.05.55-2.03,1.46-2.57.9-.54,2.02-.57,2.95-.08l76.92,40.94c.96.51,1.56,1.49,1.59,2.57.03,1.08-.53,2.09-1.46,2.65l-76.92,46.03c-.47.28-1.01.43-1.54.43Zm3-84.98v76.69l67.83-40.59-67.83-36.1Z"/>
      </g>
      <g>
        <polygon class="cls-1" points="440.55 1318.4 440.55 1401.56 547.75 1462.44 624.67 1416.41 440.55 1318.4"/>
        <path class="cls-2" d="m547.75,1465.44c-.51,0-1.02-.13-1.48-.39l-107.2-60.88c-.94-.53-1.52-1.53-1.52-2.61v-83.15c0-1.05.55-2.03,1.46-2.57.9-.54,2.02-.57,2.95-.08l184.13,98c.96.51,1.56,1.49,1.59,2.57.03,1.08-.53,2.09-1.46,2.65l-76.92,46.03c-.47.28-1.01.43-1.54.43Zm-104.2-65.63l104.16,59.15,70.87-42.41-175.03-93.16v76.41Z"/>
      </g>
      <g>
        <polygon class="cls-7" points="547.75 1375.46 547.75 1462.44 624.67 1416.41 547.75 1375.46"/>
        <path class="cls-2" d="m547.75,1465.44c-.51,0-1.02-.13-1.48-.39-.94-.53-1.52-1.53-1.52-2.61v-86.97c0-1.05.55-2.03,1.46-2.57.9-.54,2.02-.57,2.95-.08l76.92,40.94c.96.51,1.56,1.49,1.59,2.57.03,1.08-.53,2.09-1.46,2.65l-76.92,46.03c-.47.28-1.01.43-1.54.43Zm3-84.98v76.69l67.83-40.59-67.83-36.1Z"/>
      </g>
      <g>
        <polygon class="cls-4" points="205.12 741.59 205.12 1214.78 609.01 1428.6 1195.05 1121.72 1195.05 646.56 794.19 403.03 205.12 741.59"/>
        <path class="cls-2" d="m609.01,1431.6c-.48,0-.96-.12-1.4-.35l-403.89-213.83c-.98-.52-1.6-1.54-1.6-2.65v-473.19c0-1.07.57-2.07,1.5-2.6l589.07-338.56c.95-.55,2.12-.53,3.05.04l400.86,243.52c.9.54,1.44,1.52,1.44,2.56v475.17c0,1.12-.62,2.14-1.61,2.66l-586.04,306.88c-.44.23-.91.34-1.39.34Zm-400.89-218.63l400.9,212.24,583.03-305.3v-471.66l-397.9-241.73L208.12,743.33v469.64Z"/>
      </g>
      <g>
        <polygon class="cls-6" points="603.07 975.21 609.01 1428.6 205.12 1214.78 205.12 741.59 603.07 975.21"/>
        <path class="cls-2" d="m609.01,1431.6c-.48,0-.96-.12-1.4-.35l-403.89-213.83c-.98-.52-1.6-1.54-1.6-2.65v-473.19c0-1.08.58-2.07,1.51-2.6.93-.54,2.08-.53,3.01.02l397.95,233.62c.91.53,1.47,1.5,1.48,2.55l5.94,453.39c.01,1.06-.53,2.05-1.44,2.6-.48.29-1.02.44-1.56.44Zm-400.89-218.63l397.83,210.61-5.85-446.64-391.97-230.11v466.14Z"/>
      </g>
      <g>
        <polygon class="cls-1" points="1195.05 646.56 603.07 975.21 609.01 1428.6 1195.05 1121.72 1195.05 646.56"/>
        <path class="cls-2" d="m609.01,1431.6c-.53,0-1.06-.14-1.54-.42-.9-.53-1.45-1.5-1.46-2.54l-5.94-453.39c-.01-1.1.58-2.13,1.54-2.66l591.98-328.66c.93-.51,2.06-.5,2.98.04.92.54,1.48,1.52,1.48,2.58v475.17c0,1.12-.62,2.14-1.61,2.66l-586.04,306.88c-.44.23-.91.34-1.39.34Zm-2.92-454.63l5.85,446.71,580.1-303.77v-468.25l-585.96,325.31Z"/>
      </g>
      <g>
        <path class="cls-7" d="m877.78,735.16l-268.76,160.37-235.07-137.23-39.63-23.13,268.76-160.37,125.84,73.47h.02l148.85,86.89Z"/>
        <path class="cls-2" d="m609.02,898.53c-.52,0-1.04-.14-1.51-.41l-274.71-160.37c-.92-.54-1.48-1.51-1.49-2.58s.55-2.05,1.46-2.59l268.76-160.37c.94-.56,2.11-.56,3.05-.01l125.66,73.37c.07.03.13.07.2.11l148.85,86.89c.92.54,1.48,1.51,1.49,2.58s-.55,2.05-1.46,2.59l-268.76,160.37c-.47.28-1,.42-1.54.42Zm-268.8-163.39l268.79,156.91,262.87-156.85-144.28-84.22c-.07-.03-.13-.07-.2-.11l-124.31-72.58-262.87,156.85Z"/>
      </g>
      <g>
        <path class="cls-1" d="m877.78,735.16l-268.76,160.37-235.07-137.23c7.41-16.91,29.58-34.39,41.88-40.2,24.58-11.6,54.67-10.71,78.52,2.32,12.36,6.75,23.98,18.89,22.34,32.88,14.02-8.99,32.74-10.12,47.74-2.87-6.87-9.92-4.21-24.25,3.54-33.5,7.75-9.26,19.44-14.28,31.07-17.44,21.23-5.77,44.87-6.17,64.26,4.21-.91-20.33,13.97-38.93,32.38-47.61,10.4-4.88,21.71-7.15,33.22-7.82h.02l148.85,86.89Z"/>
        <path class="cls-2" d="m609.02,898.53c-.52,0-1.04-.14-1.51-.41l-235.07-137.23c-1.32-.77-1.85-2.4-1.24-3.79,7.65-17.47,30.09-35.45,43.35-41.71,25.42-12,56.56-11.08,81.24,2.4,11.24,6.14,22.65,17.03,23.94,30.35,11.92-5.92,26.17-7.06,38.9-3.19-2.54-8.82-1.06-20.26,7.05-29.94,6.96-8.32,17.62-14.34,32.58-18.41,22.92-6.23,44.76-5.38,62.14,2.35,1.24-15.96,11.75-35.06,34.01-45.56,9.99-4.69,21.22-7.34,34.33-8.1.58-.03,1.19.11,1.7.4l148.85,86.89c.92.54,1.48,1.51,1.49,2.58s-.55,2.05-1.46,2.59l-268.76,160.37c-.47.28-1,.42-1.54.42Zm-231.17-141.43l231.16,134.95,262.87-156.85-143.67-83.87c-11.95.78-22.18,3.23-31.24,7.49-18.83,8.88-31.44,27.29-30.66,44.76.05,1.08-.49,2.1-1.4,2.67-.91.57-2.06.61-3.01.11-16.64-8.91-38.68-10.32-62.06-3.96-13.74,3.74-23.41,9.12-29.56,16.47-6.39,7.62-9.74,20.68-3.38,29.86.78,1.12.7,2.62-.19,3.66-.89,1.04-2.36,1.34-3.59.75-14.06-6.8-31.66-5.74-44.82,2.69-.98.63-2.23.63-3.21.02-.98-.61-1.52-1.74-1.39-2.89,1.5-12.84-9.76-23.86-20.8-29.9-23.03-12.58-52.08-13.44-75.81-2.24-11.49,5.42-31.33,21.09-39.26,36.29Z"/>
      </g>
      <path class="cls-2" d="m609.01,804.98c-.53,0-1.06-.14-1.54-.43-1.42-.85-1.88-2.7-1.03-4.12,2.35-3.92,5.76-6.44,10.14-7.5,7.8-1.88,16.9,1.5,22.25,4.05,1.2-29.96,22.32-40.96,31.1-44.25-10.27-19.82-9.64-47.87-9.61-49.12.04-1.66,1.44-3,3.08-2.92,1.66.04,2.96,1.42,2.92,3.08,0,.31-.67,30.82,10.59,49.12.51.83.59,1.85.21,2.75-.38.89-1.17,1.55-2.12,1.76-1.28.29-31.42,7.47-30.18,44.49.04,1.11-.54,2.14-1.5,2.7-.96.55-2.15.53-3.08-.05-.13-.08-13.06-8-22.25-5.76-2.79.68-4.88,2.23-6.4,4.75-.56.94-1.56,1.46-2.58,1.46Z"/>
      <path class="cls-2" d="m776.8,763.4c-1.12,0-2.18-.63-2.69-1.68-5.01-10.22-13.35-16.24-24.78-17.88-8.8-1.27-16.23.63-16.31.65-1.6.42-3.24-.54-3.66-2.14-.42-1.6.53-3.24,2.13-3.66.3-.08,26.12-6.62,42.03,11.37.17-5.36.83-12.19,2.7-19.25,5.45-20.62,18.53-32.92,37.82-35.6,1.64-.24,3.15.92,3.38,2.56.23,1.64-.92,3.16-2.56,3.38-16.89,2.34-27.93,12.78-32.8,31.04-3.76,14.09-2.29,27.73-2.28,27.87.16,1.45-.74,2.81-2.14,3.21-.28.08-.56.12-.84.12Z"/>
      <path class="cls-2" d="m558.53,804.98c-1.1,0-2.16-.61-2.69-1.66-9.33-18.67-38.56-16.03-38.86-16-.85.08-1.68-.2-2.31-.76-.63-.57-.99-1.38-.99-2.22v-31.04c0-1.66,1.34-3,3-3s3,1.34,3,3v27.88c3.28-.07,8.67.07,14.6,1.24,12.93,2.56,22.24,8.86,26.92,18.22.74,1.48.14,3.28-1.34,4.03-.43.21-.89.32-1.34.32Z"/>
      <g>
        <polygon class="cls-7" points="668.41 1066.29 668.41 1131.62 843.62 1037.58 843.62 974.22 668.41 1066.29"/>
        <path class="cls-2" d="m668.41,1134.62c-.53,0-1.07-.14-1.54-.43-.91-.54-1.46-1.52-1.46-2.57v-65.33c0-1.11.62-2.14,1.6-2.66l175.22-92.06c.93-.49,2.05-.46,2.95.09.9.54,1.45,1.52,1.45,2.57v63.36c0,1.11-.61,2.12-1.58,2.64l-175.22,94.04c-.44.24-.93.36-1.42.36Zm3-66.52v58.51l169.22-90.82v-56.6l-169.22,88.91Z"/>
      </g>
      <g>
        <polygon class="cls-5" points="267.48 843.55 267.48 974.22 548.13 1131.62 548.13 1002.44 267.48 843.55"/>
        <path class="cls-2" d="m548.13,1134.62c-.51,0-1.01-.13-1.47-.38l-280.65-157.4c-.95-.53-1.53-1.53-1.53-2.62v-130.67c0-1.07.57-2.05,1.49-2.59.92-.54,2.06-.54,2.99-.02l280.65,158.88c.94.53,1.52,1.53,1.52,2.61v129.19c0,1.07-.56,2.05-1.48,2.59-.47.27-.99.41-1.52.41Zm-277.65-162.16l274.65,154.03v-122.31l-274.65-155.49v123.77Z"/>
      </g>
      <path class="cls-2" d="m373.95,977.22c-.16,0-.31-.01-.47-.04-1.64-.26-2.75-1.79-2.5-3.43,2.29-14.52-1.05-28.5-9.14-38.36-5.09-6.2-11.46-9.9-17.49-10.14-9.4-.35-20.12,7.92-26.68,20.65-.76,1.47-2.56,2.05-4.04,1.29-1.47-.76-2.05-2.57-1.29-4.04,7.73-15,20.4-24.42,32.26-23.9,7.73.31,15.71,4.81,21.88,12.33,9.18,11.19,12.98,26.9,10.43,43.1-.23,1.48-1.51,2.53-2.96,2.53Z"/>
      <path class="cls-2" d="m488.46,1042.57c-.16,0-.31-.01-.47-.04-1.64-.26-2.75-1.79-2.5-3.43,2.29-14.52-1.05-28.5-9.14-38.36-5.09-6.2-11.46-9.9-17.49-10.14-9.4-.38-20.12,7.92-26.68,20.65-.76,1.47-2.56,2.05-4.04,1.29-1.47-.76-2.05-2.57-1.29-4.04,7.73-15,20.4-24.39,32.26-23.9,7.73.31,15.71,4.81,21.89,12.33,9.18,11.19,12.98,26.9,10.43,43.1-.23,1.48-1.51,2.53-2.96,2.53Z"/>
    </g>
    <g>
      <polygon class="cls-3" points="950.29 1291.72 1066.91 1042.3 1196.92 974.22 1465.55 1132.97 1076.51 1363 950.29 1291.72"/>
      <path class="cls-2" d="m1076.51,1366c-.51,0-1.02-.13-1.48-.39l-126.22-71.28c-1.36-.77-1.91-2.46-1.24-3.88l116.62-249.42c.28-.59.74-1.08,1.33-1.39l130.01-68.08c.92-.48,2.02-.46,2.92.07l268.63,158.75c.91.54,1.47,1.52,1.47,2.58s-.56,2.04-1.47,2.58l-389.04,230.03c-.47.28-1,.42-1.53.42Zm-122.32-75.52l122.29,69.06,383.18-226.56-262.82-155.32-127.63,66.83-115.02,245.99Z"/>
    </g>
    <g>
      <polygon class="cls-7" points="1300.74 1035.58 1176.98 1103.64 1076.51 1363 1465.55 1132.97 1300.74 1035.58"/>
      <path class="cls-2" d="m1076.51,1366c-.7,0-1.39-.24-1.94-.71-.97-.83-1.32-2.18-.86-3.37l100.48-259.36c.25-.66.73-1.21,1.35-1.54l123.76-68.06c.93-.51,2.06-.49,2.97.05l164.8,97.39c.91.54,1.47,1.52,1.47,2.58s-.56,2.04-1.47,2.58l-389.04,230.03c-.47.28-1,.42-1.53.42Zm102.88-260.26l-96.96,250.27,377.22-223.04-158.96-93.94-121.3,66.71Z"/>
    </g>
    <g>
      <path class="cls-1" d="m1210.15,1125.32l90.55-47.66c1.81-.95,3.96-.97,5.78-.07l99.93,49.72c4.51,2.24,4.74,8.59.4,11.15l-254.2,150.1c-5.26,3.11-11.44-2.28-9.08-7.92l63.73-152.16c.57-1.36,1.59-2.48,2.9-3.17Z"/>
      <path class="cls-2" d="m1149.35,1292.47c-2.19,0-4.35-.79-6.12-2.33-3.09-2.69-4.06-6.88-2.48-10.66l63.73-152.16c.84-2,2.35-3.65,4.27-4.66l90.55-47.66c2.65-1.4,5.84-1.43,8.52-.1l99.93,49.72c3.07,1.53,5.06,4.61,5.18,8.03s-1.64,6.64-4.59,8.38l-254.21,150.1c-1.51.89-3.15,1.33-4.78,1.33Zm154.3-212.54c-.54,0-1.07.13-1.56.38l-90.55,47.66h0c-.69.36-1.23.95-1.53,1.67l-63.73,152.16c-.87,2.07.46,3.44.89,3.82.43.37,1.97,1.5,3.9.36l254.21-150.1c1.07-.63,1.69-1.76,1.64-3-.04-1.25-.74-2.32-1.86-2.88l-99.93-49.72c-.47-.23-.98-.35-1.49-.35Zm-93.51,45.39h0,0Z"/>
    </g>
    <path class="cls-2" d="m1248.86,1067.11c-.5,0-1-.12-1.46-.38l-108.1-60.48c-1.45-.81-1.96-2.64-1.15-4.08.81-1.45,2.64-1.96,4.08-1.15l108.1,60.48c1.45.81,1.96,2.64,1.15,4.08-.55.98-1.57,1.54-2.62,1.54Z"/>
    <path class="cls-2" d="m1176.98,1106.64c-.49,0-1-.12-1.46-.38l-110.07-61.33c-1.45-.81-1.97-2.63-1.16-4.08.81-1.45,2.63-1.97,4.08-1.16l110.07,61.33c1.45.81,1.97,2.63,1.16,4.08-.55.99-1.57,1.54-2.62,1.54Z"/>
    <path class="cls-2" d="m1153.59,1167.02c-.51,0-1.02-.13-1.49-.4l-113.23-64.94c-1.44-.82-1.93-2.66-1.11-4.09.83-1.44,2.66-1.93,4.09-1.11l113.23,64.94c1.44.82,1.93,2.66,1.11,4.09-.55.97-1.57,1.51-2.61,1.51Z"/>
    <path class="cls-2" d="m1128.51,1231.76c-.53,0-1.06-.14-1.54-.43l-116.13-69.82c-1.42-.85-1.88-2.7-1.03-4.12s2.7-1.88,4.12-1.03l116.13,69.82c1.42.85,1.88,2.7,1.03,4.12-.56.94-1.56,1.45-2.57,1.45Z"/>
    <path class="cls-2" d="m1101.93,1300.35c-.5,0-1-.12-1.47-.38l-122.21-68.59c-1.44-.81-1.96-2.64-1.15-4.08s2.64-1.96,4.08-1.15l122.21,68.59c1.44.81,1.96,2.64,1.15,4.08-.55.98-1.57,1.53-2.62,1.53Z"/>
    <g>
      <polygon class="cls-4" points="724.83 1556.3 841.45 1306.88 971.47 1238.8 1240.09 1397.55 851.05 1627.58 724.83 1556.3"/>
      <path class="cls-2" d="m851.05,1630.58c-.51,0-1.02-.13-1.48-.39l-126.22-71.28c-1.36-.77-1.91-2.46-1.24-3.88l116.62-249.42c.28-.59.74-1.08,1.33-1.39l130.01-68.08c.92-.48,2.02-.46,2.92.07l268.63,158.75c.91.54,1.47,1.52,1.47,2.58s-.56,2.04-1.47,2.58l-389.04,230.03c-.47.28-1,.42-1.53.42Zm-122.32-75.52l122.29,69.06,383.18-226.56-262.82-155.32-127.63,66.83-115.02,245.99Z"/>
    </g>
    <g>
      <polygon class="cls-1" points="1075.29 1300.16 951.53 1368.22 851.05 1627.58 1240.09 1397.55 1075.29 1300.16"/>
      <path class="cls-2" d="m851.05,1630.58c-.7,0-1.39-.24-1.94-.71-.97-.83-1.32-2.18-.86-3.37l100.48-259.36c.25-.66.73-1.21,1.35-1.54l123.76-68.06c.93-.51,2.06-.49,2.97.05l164.8,97.39c.91.54,1.47,1.52,1.47,2.58s-.56,2.04-1.47,2.58l-389.04,230.03c-.47.28-1,.42-1.53.42Zm102.88-260.26l-96.96,250.27,377.22-223.04-158.96-93.94-121.3,66.71Z"/>
    </g>
    <g>
      <path class="cls-7" d="m979.42,1388.1l89.66-51.67c3.51-2.02,7.83-2.07,11.38-.11l90.47,49.89c7.83,4.32,8.03,15.5.35,20.09l-236.14,141.12c-9.53,5.69-20.83-3.97-16.69-14.27l56.01-139.35c.97-2.41,2.72-4.42,4.97-5.72Z"/>
      <path class="cls-2" d="m929.16,1552.12c-3.37,0-6.69-1.2-9.44-3.54-4.84-4.13-6.43-10.62-4.06-16.53l56.01-139.35c1.21-3.02,3.43-5.57,6.25-7.2l89.66-51.67c4.39-2.53,9.89-2.58,14.33-.13l90.47,49.89c4.63,2.55,7.45,7.23,7.54,12.52.09,5.29-2.56,10.06-7.1,12.77l-236.14,141.12c-2.36,1.41-4.95,2.11-7.52,2.11Zm145.71-214.23c-1.49,0-2.97.38-4.29,1.14l-89.66,51.67h0c-1.66.96-2.97,2.46-3.68,4.24l-56.01,139.35c-1.7,4.22.12,7.79,2.39,9.73,2.27,1.94,6.08,3.17,9.98.84l236.14-141.12c2.67-1.6,4.23-4.41,4.18-7.52-.05-3.11-1.71-5.87-4.44-7.37l-90.47-49.89c-1.28-.71-2.71-1.06-4.14-1.06Zm-95.45,50.21h0,0Z"/>
    </g>
    <path class="cls-2" d="m1023.4,1331.69c-.5,0-1-.12-1.46-.38l-108.09-60.48c-1.45-.81-1.96-2.64-1.15-4.08.81-1.45,2.64-1.96,4.08-1.15l108.09,60.48c1.45.81,1.96,2.64,1.15,4.08-.55.98-1.57,1.54-2.62,1.54Z"/>
    <path class="cls-2" d="m951.52,1371.22c-.49,0-1-.12-1.46-.38l-110.07-61.33c-1.45-.81-1.97-2.63-1.16-4.08.81-1.45,2.63-1.97,4.08-1.16l110.07,61.33c1.45.81,1.97,2.63,1.16,4.08-.55.99-1.57,1.54-2.62,1.54Z"/>
    <path class="cls-2" d="m928.13,1431.6c-.51,0-1.02-.13-1.49-.4l-113.23-64.94c-1.44-.82-1.93-2.66-1.11-4.09.83-1.44,2.66-1.93,4.09-1.11l113.23,64.94c1.44.82,1.93,2.66,1.11,4.09-.55.97-1.57,1.51-2.61,1.51Z"/>
    <path class="cls-2" d="m903.05,1496.34c-.53,0-1.06-.14-1.54-.43l-116.13-69.82c-1.42-.85-1.88-2.7-1.03-4.12.85-1.42,2.69-1.88,4.12-1.03l116.13,69.82c1.42.85,1.88,2.7,1.03,4.12-.56.94-1.56,1.45-2.57,1.45Z"/>
    <path class="cls-2" d="m876.48,1564.93c-.5,0-1-.12-1.47-.38l-122.21-68.59c-1.44-.81-1.96-2.64-1.15-4.08.81-1.44,2.64-1.96,4.08-1.15l122.21,68.59c1.44.81,1.96,2.64,1.15,4.08-.55.98-1.57,1.53-2.62,1.53Z"/>
  </g>
  <g>
    <path class="cls-2" d="m337.16,1681.94c-34.43,0-62.44-28.01-62.44-62.44v-145.67c0-34.43,28.01-62.44,62.44-62.44s62.44,28.01,62.44,62.44v145.67c0,34.43-28.01,62.44-62.44,62.44Zm0-264.56c-31.12,0-56.44,25.32-56.44,56.44v145.67c0,31.12,25.32,56.44,56.44,56.44s56.44-25.32,56.44-56.44v-145.67c0-31.12-25.32-56.44-56.44-56.44Z"/>
    <path class="cls-2" d="m337.16,1682.27c-1.84,0-3.33-1.49-3.33-3.33v-326.51c0-1.84,1.49-3.33,3.33-3.33s3.33,1.49,3.33,3.33v326.51c0,1.84-1.49,3.33-3.33,3.33Z"/>
  </g>
  <g>
    <path class="cls-2" d="m506.83,1769.01c-34.43,0-62.44-28.01-62.44-62.44v-145.67c0-34.43,28.01-62.44,62.44-62.44s62.44,28.01,62.44,62.44v145.67c0,34.43-28.01,62.44-62.44,62.44Zm0-264.56c-31.12,0-56.44,25.32-56.44,56.44v145.67c0,31.12,25.32,56.44,56.44,56.44s56.44-25.32,56.44-56.44v-145.67c0-31.12-25.32-56.44-56.44-56.44Z"/>
    <path class="cls-2" d="m506.83,1769.34c-1.84,0-3.33-1.49-3.33-3.33v-326.51c0-1.84,1.49-3.33,3.33-3.33s3.33,1.49,3.33,3.33v326.51c0,1.84-1.49,3.33-3.33,3.33Z"/>
  </g>
</svg>