<?xml version="1.0" encoding="UTF-8"?>
<svg xmlns="http://www.w3.org/2000/svg" version="1.1" xmlns:xlink="http://www.w3.org/1999/xlink" viewBox="0 0 3000 3700">
  <!-- Generator: Adobe Illustrator 30.0.0, SVG Export Plug-In . SVG Version: 2.1.1 Build 123)  -->
  <defs>
    <linearGradient id="linear-gradient" x1="53.2901669" y1="1558.4844744" x2="1971.9440085" y2="1558.4844744" gradientUnits="userSpaceOnUse">
      <stop offset="0" stop-color="#000"/>
      <stop offset=".0178403" stop-color="#06010e"/>
      <stop offset=".0837035" stop-color="#1d0740"/>
      <stop offset=".1545672" stop-color="#320c6d"/>
      <stop offset=".2288765" stop-color="#451194"/>
      <stop offset=".3074" stop-color="#5415b5"/>
      <stop offset=".3914654" stop-color="#6018cf"/>
      <stop offset=".4830742" stop-color="#6a1ae4"/>
      <stop offset=".5861367" stop-color="#701cf2"/>
      <stop offset=".7099748" stop-color="#741dfb"/>
      <stop offset=".9107442" stop-color="#761efe"/>
    </linearGradient>
    <linearGradient id="linear-gradient1" x1="389.7510099" y1="1566.1694029" x2="2103.9864393" y2="1566.1694029" gradientUnits="userSpaceOnUse">
      <stop offset="0" stop-color="#a66cff"/>
      <stop offset=".0125271" stop-color="#ae6dff"/>
      <stop offset=".0596297" stop-color="#cb70ff"/>
      <stop offset=".1101096" stop-color="#e173ff"/>
      <stop offset=".1648765" stop-color="#f175ff"/>
      <stop offset=".227095" stop-color="#fb76ff"/>
      <stop offset=".3128315" stop-color="#fe77ff"/>
      <stop offset=".4336226" stop-color="#fd7afe"/>
      <stop offset=".5470418" stop-color="#fd86fd"/>
      <stop offset=".6576016" stop-color="#fc99fc"/>
      <stop offset=".7663021" stop-color="#fbb3fa"/>
      <stop offset=".8727133" stop-color="#fad5f8"/>
      <stop offset=".9464194" stop-color="#f9f2f6"/>
    </linearGradient>
    <linearGradient id="linear-gradient2" x1="1133.7342779" y1="2229.0114516" x2="668.0667918" y2="994.1197255" gradientUnits="userSpaceOnUse">
      <stop offset=".1107329" stop-color="#fe77ff"/>
      <stop offset=".2598575" stop-color="#fd85fd"/>
      <stop offset=".5420982" stop-color="#fbaafb"/>
      <stop offset=".9248884" stop-color="#f9e5f6"/>
      <stop offset="1" stop-color="#f9f2f6"/>
    </linearGradient>
    <linearGradient id="linear-gradient3" x1="1784.1890711" y1="1313.3229755" x2="1762.7253818" y2="3607.2892514" gradientUnits="userSpaceOnUse">
      <stop offset=".2984465" stop-color="#4cee99"/>
      <stop offset=".368145" stop-color="#68ef77"/>
      <stop offset=".4859124" stop-color="#94f144"/>
      <stop offset=".5887229" stop-color="#b4f31f"/>
      <stop offset=".6714866" stop-color="#c7f408"/>
      <stop offset=".7238156" stop-color="#cff500"/>
      <stop offset=".8433203" stop-color="#e3f377"/>
      <stop offset=".940071" stop-color="#f2f2d2"/>
      <stop offset=".9834711" stop-color="#f9f2f6"/>
    </linearGradient>
    <linearGradient id="linear-gradient4" x1="2433.8031113" y1="2625.3890933" x2="2424.2830207" y2="3642.8640799" gradientUnits="userSpaceOnUse">
      <stop offset="0" stop-color="#a66cff"/>
      <stop offset=".0703412" stop-color="#aa7ae3"/>
      <stop offset=".2549207" stop-color="#b59f9f"/>
      <stop offset=".4300075" stop-color="#bebe66"/>
      <stop offset=".5904238" stop-color="#c5d53a"/>
      <stop offset=".7332596" stop-color="#cae61a"/>
      <stop offset=".8531913" stop-color="#cdf106"/>
      <stop offset=".9357436" stop-color="#cff500"/>
    </linearGradient>
    <linearGradient id="linear-gradient5" x1="1736.585866" y1="1713.35626" x2="2597.486684" y2="2597.3148657" gradientUnits="userSpaceOnUse">
      <stop offset="0" stop-color="#a66cff"/>
      <stop offset=".0670066" stop-color="#a978e6"/>
      <stop offset=".4193889" stop-color="#bdba6c"/>
      <stop offset=".6609567" stop-color="#cae41e"/>
      <stop offset=".7713417" stop-color="#cff500"/>
      <stop offset=".8178139" stop-color="#d9f43c"/>
      <stop offset=".9246249" stop-color="#f3f2d3"/>
      <stop offset=".9481293" stop-color="#f9f2f6"/>
    </linearGradient>
    <linearGradient id="linear-gradient6" x1="1879.5462569" y1="1968.761584" x2="2777.6459639" y2="1557.2403402" gradientUnits="userSpaceOnUse">
      <stop offset="0" stop-color="#000"/>
      <stop offset=".0775442" stop-color="#040108"/>
      <stop offset=".2036493" stop-color="#0f0321"/>
      <stop offset=".3626564" stop-color="#210848"/>
      <stop offset=".5483264" stop-color="#3b0f7f"/>
      <stop offset=".7538114" stop-color="#5b17c4"/>
      <stop offset=".9107442" stop-color="#761efe"/>
    </linearGradient>
    <linearGradient id="linear-gradient7" x1="725.711446" y1="1480.560971" x2="1954.2414184" y2="1480.560971" gradientTransform="translate(-160.6655176 179.7003942) rotate(-7.43989)" xlink:href="#linear-gradient"/>
    <linearGradient id="linear-gradient8" x1="1484.7867698" y1="2719.755607" x2="1949.0383686" y2="2719.755607" gradientUnits="userSpaceOnUse">
      <stop offset="0" stop-color="#761efe"/>
      <stop offset=".012868" stop-color="#731df7"/>
      <stop offset=".1537076" stop-color="#5515b7"/>
      <stop offset=".2925" stop-color="#3b0f7f"/>
      <stop offset=".4258264" stop-color="#250951"/>
      <stop offset=".5526042" stop-color="#15052e"/>
      <stop offset=".671223" stop-color="#090214"/>
      <stop offset=".7785161" stop-color="#020005"/>
      <stop offset=".8645643" stop-color="#000"/>
    </linearGradient>
    <linearGradient id="linear-gradient9" x1="1609.1382352" y1="2708.1976354" x2="1955.6356569" y2="2708.1976354" gradientUnits="userSpaceOnUse">
      <stop offset=".1725394" stop-color="#000"/>
      <stop offset=".1887482" stop-color="#06010e"/>
      <stop offset=".2485885" stop-color="#1d0740"/>
      <stop offset=".312972" stop-color="#320c6d"/>
      <stop offset=".3804861" stop-color="#451194"/>
      <stop offset=".451829" stop-color="#5415b5"/>
      <stop offset=".528207" stop-color="#6018cf"/>
      <stop offset=".6114386" stop-color="#6a1ae4"/>
      <stop offset=".7050764" stop-color="#701cf2"/>
      <stop offset=".8175901" stop-color="#741dfb"/>
      <stop offset="1" stop-color="#761efe"/>
    </linearGradient>
    <linearGradient id="linear-gradient10" x1="1689.902634" y1="2687.2555245" x2="1615.8389341" y2="2771.039841" gradientUnits="userSpaceOnUse">
      <stop offset=".0703422" stop-color="#a66cff"/>
      <stop offset=".0845033" stop-color="#a66efa"/>
      <stop offset=".512291" stop-color="#bcb575"/>
      <stop offset=".8038312" stop-color="#c9e321"/>
      <stop offset=".9357436" stop-color="#cff500"/>
    </linearGradient>
    <linearGradient id="linear-gradient11" x1="1712.7455944" y1="2402.013592" x2="1711.1052821" y2="2577.3245975" xlink:href="#linear-gradient10"/>
    <linearGradient id="linear-gradient12" x1="1660.0881545" y1="2769.1342331" x2="1658.3619329" y2="2953.626939" xlink:href="#linear-gradient10"/>
  </defs>
  <g id="Background">
    <rect width="3000" height="3700"/>
  </g>
  <g id="Graphic">
    <g>
      <path d="M705.973764,2193.3274241c-.0405383,9.333664-.0810765,18.667328-.1216148,28.000992-.1093406,25.1749391-.2186812,50.3498782-.3280218,75.5248174l-.4882417,112.4143956c-.1971992,45.403804-.3943985,90.8076081-.5915977,136.2114121-.2174591,50.0685016-.4349182,100.1370031-.6523773,150.2055047-.2180199,50.1976236-.4360398,100.3952472-.6540597,150.5928707-.2046738,47.1247731-.4093476,94.2495461-.6140214,141.3743192-.1718026,39.5563978-.3436052,79.1127955-.5154078,118.6691933-.1243914,28.6402797-.2487827,57.2805594-.3731741,85.9208391-.0580066,13.35564-1.0676753,27.1045377-.1756419,40.4403798.0390027.5830872-.0051365,1.1826409-.0076786,1.7679361,1.6666667-1.6666667,3.3333333-3.3333333,5-5h-264.5274403c-6.4345228,0-6.4451805,10,0,10h264.5274403c2.7115757,0,4.988234-2.2909538,5-5,.0405383-9.333664.0810765-18.667328.1216148-28.000992l.3280218-75.5248174c.1627472-37.4714652.3254945-74.9429304.4882417-112.4143956.1971992-45.403804.3943985-90.8076081.5915977-136.2114121.2174591-50.0685016.4349182-100.1370031.6523773-150.2055047.2180199-50.1976236.4360398-100.3952472.6540597-150.5928707.2046738-47.1247731.4093476-94.2495461.6140214-141.3743192.1718026-39.5563978.3436052-79.1127955.5154078-118.6691933.1243914-28.6402797.2487827-57.2805594.3731741-85.9208391.0585057-13.4705371.3821476-26.9705347.1756419-40.4403798-.0090279-.588869.0051204-1.1789335.0076786-1.7679361.0279513-6.4356055-9.9720129-6.4438504-10,0h0Z" fill="#f9f2f6"/>
      <path d="M2281.7481653,2086.1304348V610.4354293c0-6.5319321.7960512-13.6383113,0-20.1326862-.0998439-.8145503,0-1.6990106,0-2.5234933-1.6666667,1.6666667-3.3333333,3.3333333-5,5h377.4069642c2.7029064,0,5-2.2908198,5-5v-205.7886812c0-6.4345228-10-6.4451805-10,0v205.7886812c1.6666667-1.6666667,3.3333333-3.3333333,5-5h-377.4069642c-2.7029064,0-5,2.2908198-5,5v1437.5569363c0,19.4076482-.4100557,38.866166,0,58.2707554.0177582.8403484,0,1.6828404,0,2.5234933,0,6.4345228,10,6.4451805,10,0h0Z" fill="#f9f2f6"/>
      <path d="M1378.4951063,2889.578203v427.7359697c0,19.75547-.7494294,39.6763293,0,59.4218512.0109529.2885806,0,.5795142,0,.8684259,0,6.4345228,10,6.4451805,10,0v-427.7359697c0-19.75547.7494294-39.6763293,0-59.4218512-.0109529-.2885806,0-.5795142,0-.8684259,0-6.4345228-10-6.4451805-10,0h0Z" fill="#f9f2f6"/>
      <path d="M575.3186664,386.9905687h257.7446854l-5-5v332.3002228c0,15.3329034-.7092936,30.8567989,0,46.1781674.0104044.2247448,0,.4521924,0,.6773101,0,6.4345228,10,6.4451805,10,0v-332.3002228c0-15.3329034.7092936-30.8567989,0-46.1781674-.0104044-.2247448,0-.4521924,0-.6773101,0-2.7029064-2.2908198-5-5-5h-257.7446854c-6.4345228,0-6.4451805,10,0,10h0Z" fill="#f9f2f6"/>
      <path d="M1776.4802806,790.8226411c-.1240297-18.9259665-.2480594-37.851933-.3720891-56.7778995-.2977158-45.4291153-.5954316-90.8582306-.8931474-136.2873458l-1.073169-163.7572542c-.3110363-47.4617151-.6220725-94.9234303-.9331088-142.3851454-.1502739-22.9306219.4996413-46.0294215-.4518249-68.9449711-.0133668-.3219319-.0042355-.6463068-.0063479-.9686383-.0421544-6.4324297-10.0422481-6.4467271-10,0,.1240297,18.9259665.2480594,37.851933.3720891,56.7778995.2977158,45.4291153.5954316,90.8582306.8931474,136.2873458l1.073169,163.7572542c.3110363,47.4617151.6220725,94.9234303.9331088,142.3851454.1502739,22.9306219-.4996413,46.0294215.4518249,68.9449711.0133668.3219319.0042355.6463068.0063479.9686383.0421544,6.4324297,10.0422481,6.4467271,10,0h0Z" fill="#f9f2f6"/>
      <path d="M287.5427653,1926.8854181h294.5586559c6.4345228,0,6.4451805-10,0-10h-294.5586559c-6.4345228,0-6.4451805,10,0,10h0Z" fill="#f9f2f6"/>
      <g>
        <path d="M1199.1822395,2665.9472452c-15.1766522-8.0106387-30.1393771-16.1443135-44.4730667-24.174904-256.1946811-143.2881253-459.7205486-328.6578751-604.855876-550.9217871-116.3715145-178.2126037-195.1688437-379.718908-234.2028341-598.9202221-66.1057817-371.2283181,4.7191496-664.3121736,7.7662295-676.6069024l17.3275647-69.9099206,71.6695566-7.1604713c364.8808817-36.4563316,585.839615-137.3901581,706.9485683-215.6443556,22.9838937-14.8419057,44.3927054-30.1814975,63.6555925-45.6097638l63.8578814-51.1441653,63.8584356,51.1430568c19.3160919,15.4703867,40.7188072,30.8088701,63.6129179,45.5898121,121.1410978,78.2752577,342.0998311,179.2090842,706.981267,215.6654158l71.6701108,7.1604713,17.3281189,69.9110291c3.0470798,12.2947288,73.8681317,305.3785842,7.7590247,676.6069024-39.0356531,219.2013142-117.8351991,420.70651-234.2072679,598.9202221-145.13699,222.2628036-348.6628575,407.6325534-604.925153,550.9583654-14.4777858,8.1048555-29.4294263,16.232988-44.4043439,24.1372173l-47.6830861,25.1669507-47.6836403-25.1669507Z" fill="url(#linear-gradient)"/>
        <path d="M1372.2533465,2503.3822475c-9.3434331,5.8618796-18.8011756,11.6818922-28.3732276,17.4501421-17.8556171,10.7671629-36.1162016,21.3785301-54.7927914,31.8236981-13.843622,7.7535042-27.9159898,15.4027216-42.2169765,22.9481598-14.31139-7.5454382-28.3941611-15.1946556-42.2273798-22.9481598C144.9468608,1959.9762171,422.56872,839.895985,422.56872,839.895985c17.2630095-1.7252987,34.2142372-3.58565,50.8848928-5.5915206,80.2350792-9.6032619,153.6731236-22.2725162,220.7505009-37.0827571,227.6204223-50.2405225,382.0211427-125.1127635,480.6000329-188.8124299,28.5811668-18.4581839,52.4543323-35.9706823,72.0766075-51.6747191,19.6118719,15.7040368,43.4953139,33.2268751,72.0558009,51.6747191,133.66618,86.3671275,369.9545821,193.2918757,752.2354267,231.4867077,0,0,262.7804084,1060.2469144-698.9186354,1663.4862625Z" fill="url(#linear-gradient1)"/>
        <path d="M1515.5541252,2642.8478873c-.966492-.5300609-69.6133088-38.7040862-171.6740063-122.0154977-264.3603146-215.803541-752.9319404-734.4840964-870.426506-1686.5279252,80.2350792-9.6032619,153.6731236-22.2725162,220.7505009-37.0827571,30.5974407,334.4724109,157.2068205,1142.6854001,678.0492327,1706.1605403,44.7944578,48.4529943,92.4886455,95.0973367,143.3007787,139.4656398Z" fill="url(#linear-gradient2)"/>
        <polygon points="2393.7130117 2569.1085278 2076.4932704 3564.6788169 1149.2475495 2774.0822323 1185.1143256 2673.6533306 1215.1296255 2589.6037922 1295.1152793 2365.6521828 1375.7454302 2139.8921752 1490.859987 1817.5485544 1740.4411436 2025.3076794 1915.2332223 2170.8118011 2088.6324004 2315.151895 2153.7040339 2369.3209958 2393.7130117 2569.1085278" fill="url(#linear-gradient3)"/>
        <polygon points="2393.7094373 2569.1076342 2784.1304348 2432.4602851 2430.3114058 3453.8463023 2076.4923768 3564.6811778 2393.7094373 2569.1076342" fill="url(#linear-gradient4)"/>
        <polygon points="2784.1304348 2432.4602851 1871.5213531 1676.0196024 1490.8608806 1817.547214 2393.7094373 2569.1076342 2784.1304348 2432.4602851" fill="url(#linear-gradient5)"/>
        <path d="M2281.5695603,3503.2796476c10.1776957-33.3460703,20.3553915-66.6921407,30.5330872-100.038211,24.252604-79.4609174,48.5052081-158.9218349,72.7578121-238.3827523,29.3052708-96.0154093,58.6105416-192.0308186,87.9158124-288.0462279,25.3353183-83.0083085,50.6706367-166.0166171,76.005955-249.0249256,8.3956261-27.5073206,16.7912523-55.0146412,25.1868784-82.5219618,3.9130067-12.8205245,8.9394613-25.7820873,11.8651557-38.8748422.1271954-.5692114.3454179-1.1317227.5160269-1.6907038.4862468-1.5931329.0114792-3.7527285-1.2858613-4.864732-28.9848477-24.844097-57.9696953-49.688194-86.954543-74.5322909-69.1344016-59.2579198-138.2688032-118.5158396-207.4032048-177.7737593-84.0167964-72.0142283-168.0335928-144.0284567-252.0503892-216.042685-72.2206188-61.9032426-144.4412375-123.8064852-216.6618563-185.7097278-35.0895248-30.0766652-69.4540273-61.3794909-105.4451147-90.3813153-.5192747-.4184345-1.0148467-.8698666-1.5213256-1.3039903-4.8620709-4.1674796-11.96717,2.8744186-7.0710678,7.0710678,28.9848477,24.844097,57.9696953,49.688194,86.954543,74.5322909,69.1344016,59.2579198,138.2688032,118.5158396,207.4032048,177.7737593,84.0167964,72.0142283,168.0335928,144.0284567,252.0503892,216.042685,72.2206188,61.9032426,144.4412375,123.8064852,216.6618563,185.7097278,23.8142346,20.4121533,47.6284692,40.8243066,71.4427038,61.2364599,7.4278329,6.366699,14.8556658,12.7333981,22.2834988,19.1000971,3.6991999,3.1707353,7.5210839,7.5369363,11.7189121,10.0447583.5469912.3267776,1.0332009.8855987,1.5213256,1.3039903-.4286204-1.6215773-.8572408-3.2431546-1.2858613-4.864732-10.1776957,33.3460703-20.3553915,66.6921407-30.5330872,100.038211-24.252604,79.4609174-48.5052081,158.9218349-72.7578121,238.3827523-29.3052708,96.0154093-58.6105416,192.0308186-87.9158124,288.0462279-25.3353183,83.0083085-50.6706367,166.0166171-76.005955,249.0249256-8.3956261,27.5073206-16.7912523,55.0146412-25.1868784,82.5219618-3.9245035,12.8581922-8.782666,25.7808067-11.8651557,38.8748422-.1340253.5693231-.3450352,1.1304688-.5160269,1.6907038-1.882826,6.1688667,7.7664401,8.8060457,9.6427903,2.6583961h0Z" fill="#f9f2f6"/>
        <path d="M1791.2318853,1832.1673063l223.561381-497.2673718c27.8117167-61.8615757,73.001905-114.5209747,130.5774331-150.3735156,79.8553015-49.7262562,201.8999903-79.7262876,365.4650371,8.3471991,0,0,365.8246202,159.2689217,229.372336,624.673596l-216.6204756,487.3960653c-31.2615662,70.3385233-118.895866,95.7528411-182.2303197,52.0088089-.9432341-.6514758-1.8844279-1.315005-2.8233393-1.9907977-47.2812099-34.0312143-63.6376423-96.9493098-39.8501548-150.1262954l215.5790387-481.9274581c19.9098832-44.5085916,27.7883796-93.5601678,22.1303283-141.9895456-.1411168-1.2078712-.2890764-2.4224612-.4441134-3.6434721-22.9625784-180.844324-253.7221821-243.6330466-366.0460577-100.0527677-31.25785,39.9559826-62.9033648,93.4524593-93.4106024,164.6360136l-111.9532809,265.3707399c-25.1498666,59.6144987-101.5803255,77.6074448-149.9964079,34.6855715-.7530882-.6676285-1.5038688-1.3504784-2.2521562-2.048832-29.4449047-27.4800227-37.5736471-70.963638-21.0586466-107.6979382Z" fill="url(#linear-gradient6)"/>
        <path d="M1882.4862407,964.1391804l-.000344-.0002645c-40.6785525-27.6695498-96.085903-17.1237806-123.755757,23.5548116l-497.3053501,731.1116143-378.9887226-400.4482171c-33.8172319-35.7322021-90.1979002-37.2842539-125.929894-3.4672039l-.0000363.0003142c-35.7319938,33.81705-37.2842638,90.1978241-3.4671477,125.9297319l455.056464,480.8229644c33.8171161,35.7319078,90.1977844,37.2839596,125.9298179,3.4672138l.0001521-.0000199c6.9963687-6.6214546,12.6626895-14.1158458,17.0293022-22.1430069,1.9580723-2.3272756,3.8178196-4.7741638,5.5654494-7.3431961l549.4205934-807.7287929c27.6698541-40.6785923,17.1240651-96.0860948-23.5545272-123.7559489Z" fill="url(#linear-gradient7)"/>
        <path d="M1496.286964,2804.575797c-15.7340014-12.5510976-15.2448511-36.6219379.9860591-48.5234675l39.2130514-28.7534886,86.2915767-63.2865793c-4.6728584-18.4204402-7.0377063-37.5757087-7.0377063-57.0750473,0-89.8875665,51.1152245-168.3426663,124.3016866-190.7884228,13.7333724-4.2232328,27.9914772-6.3698652,42.341943-6.3698652,46.1916719,0,90.6142752,22.7015255,121.8789861,62.2827876,28.8734742,36.5556777,44.775808,84.4555209,44.775808,134.8755004s-15.9023338,98.3188077-44.7778379,134.8724555c-22.6974656,28.7334102-52.3331719,48.5707293-84.5438221,57.2841283v200.0282378c0,25.598954-29.5940208,39.8480987-49.6058257,23.8845743l-273.8239189-218.4308132Z" fill="url(#linear-gradient8)"/>
        <path d="M1897.0725073,2606.9373577c0,80.1830627-51.342194,145.1818732-114.6885289,145.1818732-4.9575536,0-9.8422841-.3950717-14.6333848-1.1641548v203.6953671l-217.175508-173.2433823,16.6396995-12.2015498,117.4943753-86.1695282c-3.7829955-7.7636538-7.004974-16.0056056-9.5824553-24.652525-4.8015041-15.984799-7.4205986-33.3309081-7.4205986-51.4461002,0-68.3661814,37.3217159-125.6949677,87.5727051-141.1078389,8.6885326-2.671111,17.7721369-4.0846913,27.1051667-4.0846913,63.3463348,0,114.6885289,65.0092137,114.6885289,145.1925302Z" fill="url(#linear-gradient9)"/>
        <path d="M1745.7897324,2664.2762937l-78.0836258,104.9292175h-100.4913215l117.4943753-86.1695282c-3.7829955-7.7636538-7.004974-16.0056056-9.5824553-24.652525l70.6630273,5.8928357Z" fill="url(#linear-gradient10)"/>
        <path d="M1745.7897324,2664.2762937l-61.080572,18.7596893c-10.7775662-22.1270603-17.0030538-48.1931655-17.0030538-76.0986252,0-68.3661814,37.3217159-125.6949677,87.5727051-141.1078389-24.7149448,40.5540977-43.0587558,105.5006378-9.4890793,198.4467749Z" fill="url(#linear-gradient11)"/>
        <polygon points="1767.7505936 2857.2458573 1767.7505936 2954.6504433 1550.5750856 2781.4070609 1567.2147851 2769.2055111 1667.7061066 2769.2055111 1767.7505936 2857.2458573" fill="url(#linear-gradient12)"/>
      </g>
      <circle cx="261.0347385" cy="1921.8854181" r="42.2956081" fill="#f9f2f6"/>
      <circle cx="434.8220933" cy="3234.4500841" r="42.2956081" fill="#f9f2f6"/>
      <circle cx="1383.4951063" cy="3377.6044498" r="42.2956081" fill="#f9f2f6"/>
      <circle cx="575.3186664" cy="381.9905687" r="42.2956081" fill="#f9f2f6"/>
      <circle cx="1771.4802806" cy="221.7013868" r="42.2956081" fill="#f9f2f6"/>
      <circle cx="2654.1551295" cy="381.9905687" r="42.2956081" fill="#f9f2f6"/>
    </g>
  </g>
</svg>