<?xml version="1.0" encoding="UTF-8"?>
<svg id="Layer_1" data-name="Layer 1" xmlns="http://www.w3.org/2000/svg" xmlns:xlink="http://www.w3.org/1999/xlink" viewBox="0 0 1080 1350">
  <defs>
    <style>
      .cls-1 {
        fill: #fe510a;
      }

      .cls-2 {
        fill: #fd5b17;
      }

      .cls-3 {
        fill: #f7d7be;
      }

      .cls-4 {
        fill: #fe5008;
      }

      .cls-5 {
        fill: url(#linear-gradient-2);
      }

      .cls-6 {
        fill: #fc7134;
      }

      .cls-7 {
        fill: #f9b692;
      }

      .cls-8 {
        fill: #f9b894;
      }

      .cls-9 {
        fill: #f9ac84;
      }

      .cls-10 {
        fill: #fb8651;
      }

      .cls-11 {
        fill: #fd6221;
      }

      .cls-12 {
        fill: #f7d4ba;
      }

      .cls-13 {
        fill: #f8caad;
      }

      .cls-14 {
        fill: #f9a57b;
      }

      .cls-15 {
        fill: #fd6322;
      }

      .cls-16 {
        fill: #fe4e06;
      }

      .cls-17 {
        fill: #fd6524;
      }

      .cls-18 {
        fill: #fb8049;
      }

      .cls-19 {
        fill: #faa378;
      }

      .cls-20 {
        fill: #fc7236;
      }

      .cls-21 {
        fill: #fa9464;
      }

      .cls-22 {
        fill: #f6ead7;
      }

      .cls-23 {
        fill: #f6e9d6;
      }

      .cls-24 {
        fill: #fa9f73;
      }

      .cls-25 {
        fill: #f6e4d0;
      }

      .cls-26 {
        fill: #f7dbc3;
      }

      .cls-27 {
        fill: #fd5a16;
      }

      .cls-28 {
        fill: #f9b38e;
      }

      .cls-29 {
        fill: #f7dec7;
      }

      .cls-30 {
        fill: #fe4b02;
      }

      .cls-31 {
        fill: #f8cdb0;
      }

      .cls-32 {
        fill: #f8c7a9;
      }

      .cls-33 {
        fill: #faa479;
      }

      .cls-34 {
        fill: #fc7b42;
      }

      .cls-35 {
        fill: #f9b995;
      }

      .cls-36 {
        fill: #f7d0b5;
      }

      .cls-37 {
        fill: #fd5610;
      }

      .cls-38 {
        fill: #f7dac2;
      }

      .cls-39 {
        fill: #fa996b;
      }

      .cls-40 {
        fill: #fa9e71;
      }

      .cls-41 {
        fill: #fd5f1c;
      }

      .cls-42 {
        fill: #f6ebd9;
      }

      .cls-43 {
        fill: #f7ddc6;
      }

      .cls-44 {
        fill: #fa905f;
      }

      .cls-45 {
        fill: #fb7c44;
      }

      .cls-46 {
        fill: #fc7337;
      }

      .cls-47 {
        fill: #f9ad86;
      }

      .cls-48 {
        fill: #fb905e;
      }

      .cls-49 {
        fill: #fa9b6d;
      }

      .cls-50 {
        fill: #fa9667;
      }

      .cls-51 {
        fill: #fc6f32;
      }

      .cls-52 {
        fill: #f7d3b8;
      }

      .cls-53 {
        fill: url(#linear-gradient-6);
      }

      .cls-54 {
        fill: #fa9c6e;
      }

      .cls-55 {
        fill: #f9aa82;
      }

      .cls-56 {
        fill: #f7d5bb;
      }

      .cls-57 {
        fill: #fb8e5b;
      }

      .cls-58 {
        fill: #f6e7d4;
      }

      .cls-59 {
        fill: #fd550f;
      }

      .cls-60 {
        fill: #f9ab83;
      }

      .cls-61 {
        fill: #fa9768;
      }

      .cls-62 {
        fill: #f8c4a5;
      }

      .cls-63 {
        fill: #f8c5a6;
      }

      .cls-64 {
        fill: #fc6e31;
      }

      .cls-65 {
        fill: #f7d2b7;
      }

      .cls-66 {
        fill: #fb8b57;
      }

      .cls-67 {
        fill: #fc7135;
      }

      .cls-68 {
        fill: #f8c1a0;
      }

      .cls-69 {
        fill: #fe4f07;
      }

      .cls-70 {
        fill: #fb7f48;
      }

      .cls-71 {
        fill: #f6e2cd;
      }

      .cls-72 {
        fill: #fa9869;
      }

      .cls-73 {
        fill: #f7d3b9;
      }

      .cls-74 {
        fill: #fb8854;
      }

      .cls-75 {
        fill: #fb7d45;
      }

      .cls-76 {
        fill: #f7dfc9;
      }

      .cls-77 {
        fill: #fa9c6f;
      }

      .cls-78 {
        fill: #f6ead8;
      }

      .cls-79 {
        fill: #f9b48f;
      }

      .cls-80 {
        fill: #f7d1b6;
      }

      .cls-81 {
        fill: #fb8752;
      }

      .cls-82 {
        fill: url(#linear-gradient-11);
      }

      .cls-83 {
        fill: #f6e5d1;
      }

      .cls-84 {
        fill: #fb8550;
      }

      .cls-85 {
        fill: #fc6b2d;
      }

      .cls-86 {
        fill: #f8c4a4;
      }

      .cls-87 {
        fill: #f8bf9e;
      }

      .cls-88 {
        fill: #fd5d19;
      }

      .cls-89 {
        fill: #fb814a;
      }

      .cls-90 {
        fill: #fe4a00;
      }

      .cls-91 {
        fill: #f9af88;
      }

      .cls-92 {
        fill: #f7dec8;
      }

      .cls-93 {
        fill: #fe4c03;
      }

      .cls-94 {
        fill: #fc753a;
      }

      .cls-95 {
        fill: #f7dbc4;
      }

      .cls-96 {
        fill: #fb824b;
      }

      .cls-97 {
        fill: #f8bc99;
      }

      .cls-98 {
        fill: #fe4e05;
      }

      .cls-99 {
        fill: #fb834d;
      }

      .cls-100 {
        fill: #fc6829;
      }

      .cls-101 {
        fill: url(#linear-gradient-10);
      }

      .cls-102 {
        fill: #f8be9c;
      }

      .cls-103 {
        fill: #fd611f;
      }

      .cls-104 {
        fill: #fe4d04;
      }

      .cls-105 {
        fill: #fc6a2b;
      }

      .cls-106 {
        fill: #fe540d;
      }

      .cls-107 {
        fill: #f7cfb3;
      }

      .cls-108 {
        fill: #fd6727;
      }

      .cls-109 {
        fill: #f9a77e;
      }

      .cls-110 {
        fill: #f6e7d3;
      }

      .cls-111 {
        fill: #fd601e;
      }

      .cls-112 {
        fill: #faa074;
      }

      .cls-113 {
        fill: #f9b08a;
      }

      .cls-114 {
        fill: #fb844e;
      }

      .cls-115 {
        fill: #f6e3ce;
      }

      .cls-116 {
        fill: #fd5a15;
      }

      .cls-117 {
        fill: #fd5914;
      }

      .cls-118 {
        fill: #fd5712;
      }

      .cls-119 {
        fill: #f8c8aa;
      }

      .cls-120 {
        fill: #f8b996;
      }

      .cls-121 {
        fill: #f8c1a1;
      }

      .cls-122 {
        fill: #f9b089;
      }

      .cls-123 {
        fill: #f6e1cc;
      }

      .cls-124 {
        fill: #fb824c;
      }

      .cls-125 {
        fill: #fb854f;
      }

      .cls-126 {
        fill: #f6e4cf;
      }

      .cls-127 {
        fill: #fe530c;
      }

      .cls-128 {
        fill: #fc773d;
      }

      .cls-129 {
        fill: #fc7438;
      }

      .cls-130 {
        fill: #fa9363;
      }

      .cls-131 {
        fill: #fa9f72;
      }

      .cls-132 {
        fill: #f6e6d2;
      }

      .cls-133 {
        fill: #fd73ed;
      }

      .cls-134 {
        fill: #fa996a;
      }

      .cls-135 {
        fill: #fc7a41;
      }

      .cls-136 {
        fill: #fa9160;
      }

      .cls-137 {
        fill: #f7ceb2;
      }

      .cls-138 {
        fill: #f7d6bd;
      }

      .cls-139 {
        fill: #fb8c59;
      }

      .cls-140 {
        fill: #fd6626;
      }

      .cls-141 {
        fill: #fc6c2e;
      }

      .cls-142 {
        fill: #f9b38d;
      }

      .cls-143 {
        fill: #fd540e;
      }

      .cls-144 {
        fill: #fc763b;
      }

      .cls-145 {
        fill: #f8c7a8;
      }

      .cls-146 {
        fill: #faa277;
      }

      .cls-147 {
        fill: #f9ad85;
      }

      .cls-148 {
        fill: url(#linear-gradient-5);
      }

      .cls-149 {
        fill: #fa9261;
      }

      .cls-150 {
        fill: #fb8853;
      }

      .cls-151 {
        fill: #fc793f;
      }

      .cls-152 {
        fill: #f8bd9b;
      }

      .cls-153 {
        fill: #fc692a;
      }

      .cls-154 {
        fill: #f9b590;
      }

      .cls-155 {
        fill: #fa9d70;
      }

      .cls-156 {
        fill: #f8c3a3;
      }

      .cls-157 {
        fill: #fb8d5a;
      }

      .cls-158 {
        fill: #f8cbae;
      }

      .cls-159 {
        clip-path: url(#clippath);
      }

      .cls-160 {
        fill: #faa276;
      }

      .cls-161 {
        fill: #fb7e46;
      }

      .cls-162 {
        fill: #fc7033;
      }

      .cls-163 {
        fill: none;
      }

      .cls-164 {
        fill: #fe5109;
      }

      .cls-165 {
        fill: #fd5711;
      }

      .cls-166 {
        fill: #f9a77d;
      }

      .cls-167 {
        fill: #f9a980;
      }

      .cls-168 {
        fill: #fb8a56;
      }

      .cls-169 {
        fill: #fd6423;
      }

      .cls-170 {
        fill: url(#linear-gradient-7);
      }

      .cls-171 {
        fill: #f8c6a7;
      }

      .cls-172 {
        fill: #fd6828;
      }

      .cls-173 {
        fill: #fc783e;
      }

      .cls-174 {
        fill: #fd5c18;
      }

      .cls-175 {
        fill: #f8bb98;
      }

      .cls-176 {
        fill: #f9aa81;
      }

      .cls-177 {
        fill: #fd601d;
      }

      .cls-178 {
        fill: #fe4b01;
      }

      .cls-179 {
        fill: #fd6220;
      }

      .cls-180 {
        fill: #fc7c43;
      }

      .cls-181 {
        fill: #f9a87f;
      }

      .cls-182 {
        fill: url(#linear-gradient-9);
      }

      .cls-183 {
        fill: #f8be9d;
      }

      .cls-184 {
        fill: #f8ccaf;
      }

      .cls-185 {
        fill: #f9b28c;
      }

      .cls-186 {
        fill: #fc6e30;
      }

      .cls-187 {
        fill: #f8c2a2;
      }

      .cls-188 {
        fill: #fa9362;
      }

      .cls-189 {
        fill: #f8ba97;
      }

      .cls-190 {
        fill: #f7d5bc;
      }

      .cls-191 {
        fill: url(#linear-gradient-3);
      }

      .cls-192 {
        fill: #fd5d1a;
      }

      .cls-193 {
        fill: #f9ae87;
      }

      .cls-194 {
        fill: #fe520b;
      }

      .cls-195 {
        fill: #f7d9c1;
      }

      .cls-196 {
        fill: #fa9a6c;
      }

      .cls-197 {
        fill: url(#linear-gradient);
      }

      .cls-198 {
        fill: #f9b691;
      }

      .cls-199 {
        fill: #f6e8d5;
      }

      .cls-200 {
        fill: #f7d0b4;
      }

      .cls-201 {
        fill: #fc6d2f;
      }

      .cls-202 {
        fill: #f9a67c;
      }

      .cls-203 {
        fill: #f7dcc5;
      }

      .cls-204 {
        fill: #faa57a;
      }

      .cls-205 {
        fill: #fb8f5d;
      }

      .cls-206 {
        fill: #f8bc9a;
      }

      .cls-207 {
        fill: #f7d8c0;
      }

      .cls-208 {
        fill: #fa9565;
      }

      .cls-209 {
        fill: #fb8b58;
      }

      .cls-210 {
        fill: #f8caac;
      }

      .cls-211 {
        fill: #f7cdb1;
      }

      .cls-212 {
        fill: #fd5813;
      }

      .cls-213 {
        fill: #f9b18b;
      }

      .cls-214 {
        fill: #fb8955;
      }

      .cls-215 {
        fill: #fc7439;
      }

      .cls-216 {
        fill: #f9b793;
      }

      .cls-217 {
        fill: #fc7940;
      }

      .cls-218 {
        fill: url(#linear-gradient-4);
      }

      .cls-219 {
        fill: #f8c09f;
      }

      .cls-220 {
        fill: #f7e0ca;
      }

      .cls-221 {
        fill: #faa175;
      }

      .cls-222 {
        fill: url(#linear-gradient-8);
      }

      .cls-223 {
        fill: #fc773c;
      }

      .cls-224 {
        fill: #fc6b2c;
      }

      .cls-225 {
        fill: #f7e1cb;
      }

      .cls-226 {
        fill: #f8c9ab;
      }

      .cls-227 {
        fill: #fa9666;
      }

      .cls-228 {
        fill: #f7d8bf;
      }

      .cls-229 {
        fill: #fb8e5c;
      }

      .cls-230 {
        fill: #fd5e1b;
      }

      .cls-231 {
        fill: #fd6525;
      }

      .cls-232 {
        fill: #fb7f47;
      }
    </style>
    <clipPath id="clippath">
      <rect class="cls-163" width="1080" height="1350"/>
    </clipPath>
    <linearGradient id="linear-gradient" x1="-243.42" y1="1398.8" x2="1102" y2="1398.8" gradientUnits="userSpaceOnUse">
      <stop offset="0" stop-color="#fff"/>
      <stop offset=".47" stop-color="#f98cca"/>
      <stop offset=".75" stop-color="#dd3508"/>
      <stop offset="1" stop-color="#2a1f1a"/>
    </linearGradient>
    <linearGradient id="linear-gradient-2" x1="-194.75" y1="1314.15" x2="981.67" y2="1314.15" gradientUnits="userSpaceOnUse">
      <stop offset="0" stop-color="#fdfcf9"/>
      <stop offset=".47" stop-color="#f89ccd"/>
      <stop offset=".75" stop-color="#e1532b"/>
      <stop offset="1" stop-color="#4c413a"/>
    </linearGradient>
    <linearGradient id="linear-gradient-3" x1="-146.09" y1="1229.5" x2="861.33" y2="1229.5" gradientUnits="userSpaceOnUse">
      <stop offset="0" stop-color="#fcf8f2"/>
      <stop offset=".47" stop-color="#f8accf"/>
      <stop offset=".75" stop-color="#e5724e"/>
      <stop offset="1" stop-color="#6e635a"/>
    </linearGradient>
    <linearGradient id="linear-gradient-4" x1="-97.42" y1="1144.86" x2="741" y2="1144.86" gradientUnits="userSpaceOnUse">
      <stop offset="0" stop-color="#fbf5ec"/>
      <stop offset=".47" stop-color="#f8bcd2"/>
      <stop offset=".75" stop-color="#ea9071"/>
      <stop offset="1" stop-color="#90857a"/>
    </linearGradient>
    <linearGradient id="linear-gradient-5" x1="-48.75" y1="1060.21" x2="620.67" y2="1060.21" gradientUnits="userSpaceOnUse">
      <stop offset="0" stop-color="#f9f2e6"/>
      <stop offset=".47" stop-color="#f7cbd4"/>
      <stop offset=".75" stop-color="#eeae93"/>
      <stop offset="1" stop-color="#b2a799"/>
    </linearGradient>
    <linearGradient id="linear-gradient-6" x1="-.09" y1="975.56" x2="500.33" y2="975.56" gradientUnits="userSpaceOnUse">
      <stop offset="0" stop-color="#f8eedf"/>
      <stop offset=".47" stop-color="#f7dbd6"/>
      <stop offset=".75" stop-color="#f2cdb6"/>
      <stop offset="1" stop-color="#d4c9b9"/>
    </linearGradient>
    <linearGradient id="linear-gradient-7" x1="351.29" y1="607.57" x2="1170.29" y2="607.57" gradientUnits="userSpaceOnUse">
      <stop offset="0" stop-color="#85391f"/>
      <stop offset=".47" stop-color="#df6e7a"/>
      <stop offset=".75" stop-color="#d7974a"/>
      <stop offset="1" stop-color="#7f4c50"/>
    </linearGradient>
    <linearGradient id="linear-gradient-8" x1="519.79" y1="531.13" x2="1338.79" y2="531.13" gradientUnits="userSpaceOnUse">
      <stop offset="0" stop-color="#0b273d"/>
      <stop offset=".47" stop-color="#c091f3"/>
      <stop offset=".75" stop-color="#b0e394"/>
      <stop offset="1" stop-color="#004d9f"/>
    </linearGradient>
    <linearGradient id="linear-gradient-9" x1="417.66" y1="441.16" x2="1236.66" y2="441.16" gradientUnits="userSpaceOnUse">
      <stop offset="0" stop-color="#483a69"/>
      <stop offset=".47" stop-color="#cf8af2"/>
      <stop offset=".75" stop-color="#c3c7aa"/>
      <stop offset="1" stop-color="#3f56b3"/>
    </linearGradient>
    <linearGradient id="linear-gradient-10" x1="315.54" y1="351.18" x2="1134.54" y2="351.18" gradientUnits="userSpaceOnUse">
      <stop offset="0" stop-color="#844d95"/>
      <stop offset=".47" stop-color="#df82f0"/>
      <stop offset=".75" stop-color="#d7abc1"/>
      <stop offset="1" stop-color="#7f60c6"/>
    </linearGradient>
    <linearGradient id="linear-gradient-11" x1="213.41" y1="261.21" x2="1032.41" y2="261.21" gradientUnits="userSpaceOnUse">
      <stop offset="0" stop-color="#c160c1"/>
      <stop offset=".47" stop-color="#ee7bef"/>
      <stop offset=".75" stop-color="#ea8fd7"/>
      <stop offset="1" stop-color="#be6ada"/>
    </linearGradient>
    <clipPath id="clippath-1">
      <rect class="cls-163" x="-1386" y="1694" width="1080" height="1350"/>
    </clipPath>
  </defs>
  <g class="cls-159">
    <g>
      <rect width="1080" height="1350"/>
      <g>
        <rect class="cls-197" x="-243.42" y="1322.91" width="1345.42" height="151.79"/>
        <rect class="cls-5" x="-194.75" y="1247.79" width="1176.42" height="132.72"/>
        <rect class="cls-191" x="-146.09" y="1172.68" width="1007.42" height="113.65"/>
        <rect class="cls-218" x="-97.42" y="1097.56" width="838.42" height="94.59"/>
        <rect class="cls-148" x="-48.75" y="1022.45" width="669.42" height="75.52"/>
        <rect class="cls-53" x="-.09" y="947.33" width="500.42" height="56.46"/>
        <rect class="cls-42" x="48.58" y="872.22" width="331.42" height="37.39"/>
        <rect class="cls-78" x="49.2" y="871.13" width="333.67" height="37.64"/>
        <rect class="cls-22" x="49.82" y="870.05" width="335.91" height="37.9"/>
        <rect class="cls-23" x="50.43" y="868.97" width="338.16" height="38.15"/>
        <rect class="cls-199" x="51.05" y="867.89" width="340.41" height="38.4"/>
        <rect class="cls-58" x="51.67" y="866.81" width="342.66" height="38.66"/>
        <rect class="cls-110" x="52.29" y="865.73" width="344.9" height="38.91"/>
        <rect class="cls-132" x="52.91" y="864.65" width="347.15" height="39.16"/>
        <rect class="cls-83" x="53.53" y="863.57" width="349.4" height="39.42"/>
        <rect class="cls-25" x="54.15" y="862.49" width="351.64" height="39.67"/>
        <rect class="cls-126" x="54.76" y="861.41" width="353.89" height="39.93"/>
        <rect class="cls-115" x="55.38" y="860.33" width="356.14" height="40.18"/>
        <rect class="cls-71" x="56" y="859.25" width="358.38" height="40.43"/>
        <rect class="cls-123" x="56.62" y="858.17" width="360.63" height="40.69"/>
        <rect class="cls-225" x="57.24" y="857.09" width="362.88" height="40.94"/>
        <rect class="cls-220" x="57.86" y="856.01" width="365.12" height="41.19"/>
        <rect class="cls-76" x="58.47" y="854.93" width="367.37" height="41.45"/>
        <rect class="cls-92" x="59.09" y="853.85" width="369.62" height="41.7"/>
        <rect class="cls-29" x="59.71" y="852.77" width="371.87" height="41.95"/>
        <rect class="cls-43" x="60.33" y="851.69" width="374.11" height="42.21"/>
        <rect class="cls-203" x="60.95" y="850.61" width="376.36" height="42.46"/>
        <rect class="cls-95" x="61.57" y="849.53" width="378.61" height="42.71"/>
        <rect class="cls-26" x="62.19" y="848.45" width="380.85" height="42.97"/>
        <rect class="cls-38" x="62.8" y="847.37" width="383.1" height="43.22"/>
        <rect class="cls-195" x="63.42" y="846.29" width="385.35" height="43.47"/>
        <rect class="cls-207" x="64.04" y="845.21" width="387.59" height="43.73"/>
        <rect class="cls-228" x="64.66" y="844.13" width="389.84" height="43.98"/>
        <rect class="cls-3" x="65.28" y="843.05" width="392.09" height="44.23"/>
        <rect class="cls-138" x="65.9" y="841.97" width="394.33" height="44.49"/>
        <rect class="cls-190" x="66.52" y="840.89" width="396.58" height="44.74"/>
        <rect class="cls-56" x="67.13" y="839.81" width="398.83" height="44.99"/>
        <rect class="cls-12" x="67.75" y="838.73" width="401.07" height="45.25"/>
        <rect class="cls-73" x="68.37" y="837.65" width="403.32" height="45.5"/>
        <rect class="cls-52" x="68.99" y="836.57" width="405.57" height="45.76"/>
        <rect class="cls-65" x="69.61" y="835.49" width="407.82" height="46.01"/>
        <rect class="cls-80" x="70.23" y="834.41" width="410.06" height="46.26"/>
        <rect class="cls-36" x="70.84" y="833.33" width="412.31" height="46.52"/>
        <rect class="cls-200" x="71.46" y="832.25" width="414.56" height="46.77"/>
        <rect class="cls-107" x="72.08" y="831.17" width="416.8" height="47.02"/>
        <rect class="cls-137" x="72.7" y="830.09" width="419.05" height="47.28"/>
        <rect class="cls-211" x="73.32" y="829.01" width="421.3" height="47.53"/>
        <rect class="cls-31" x="73.94" y="827.93" width="423.54" height="47.78"/>
        <rect class="cls-184" x="74.56" y="826.85" width="425.79" height="48.04"/>
        <rect class="cls-158" x="75.17" y="825.77" width="428.04" height="48.29"/>
        <rect class="cls-13" x="75.79" y="824.69" width="430.28" height="48.54"/>
        <rect class="cls-210" x="76.41" y="823.61" width="432.53" height="48.8"/>
        <rect class="cls-226" x="77.03" y="822.53" width="434.78" height="49.05"/>
        <rect class="cls-119" x="77.65" y="821.45" width="437.03" height="49.3"/>
        <rect class="cls-32" x="78.27" y="820.37" width="439.27" height="49.56"/>
        <rect class="cls-145" x="78.88" y="819.29" width="441.52" height="49.81"/>
        <rect class="cls-171" x="79.5" y="818.21" width="443.77" height="50.06"/>
        <rect class="cls-63" x="80.12" y="817.13" width="446.01" height="50.32"/>
        <rect class="cls-62" x="80.74" y="816.05" width="448.26" height="50.57"/>
        <rect class="cls-86" x="81.36" y="814.97" width="450.51" height="50.83"/>
        <rect class="cls-156" x="81.98" y="813.89" width="452.75" height="51.08"/>
        <rect class="cls-187" x="82.6" y="812.81" width="455" height="51.33"/>
        <rect class="cls-121" x="83.21" y="811.73" width="457.25" height="51.59"/>
        <rect class="cls-68" x="83.83" y="810.65" width="459.49" height="51.84"/>
        <rect class="cls-219" x="84.45" y="809.57" width="461.74" height="52.09"/>
        <rect class="cls-87" x="85.07" y="808.49" width="463.99" height="52.35"/>
        <rect class="cls-183" x="85.69" y="807.41" width="466.24" height="52.6"/>
        <rect class="cls-102" x="86.31" y="806.33" width="468.48" height="52.85"/>
        <rect class="cls-152" x="86.93" y="805.25" width="470.73" height="53.11"/>
        <rect class="cls-206" x="87.54" y="804.16" width="472.98" height="53.36"/>
        <rect class="cls-97" x="88.16" y="803.08" width="475.22" height="53.61"/>
        <rect class="cls-175" x="88.78" y="802" width="477.47" height="53.87"/>
        <rect class="cls-189" x="89.4" y="800.92" width="479.72" height="54.12"/>
        <rect class="cls-120" x="90.02" y="799.84" width="481.96" height="54.37"/>
        <rect class="cls-35" x="90.64" y="798.76" width="484.21" height="54.63"/>
        <rect class="cls-8" x="91.25" y="797.68" width="486.46" height="54.88"/>
        <rect class="cls-216" x="91.87" y="796.6" width="488.7" height="55.13"/>
        <rect class="cls-7" x="92.49" y="795.52" width="490.95" height="55.39"/>
        <rect class="cls-198" x="93.11" y="794.44" width="493.2" height="55.64"/>
        <rect class="cls-154" x="93.73" y="793.36" width="495.45" height="55.9"/>
        <rect class="cls-79" x="94.35" y="792.28" width="497.69" height="56.15"/>
        <rect class="cls-28" x="94.97" y="791.2" width="499.94" height="56.4"/>
        <rect class="cls-142" x="95.58" y="790.12" width="502.19" height="56.66"/>
        <rect class="cls-185" x="96.2" y="789.04" width="504.43" height="56.91"/>
        <rect class="cls-213" x="96.82" y="787.96" width="506.68" height="57.16"/>
        <rect class="cls-113" x="97.44" y="786.88" width="508.93" height="57.42"/>
        <rect class="cls-122" x="98.06" y="785.8" width="511.17" height="57.67"/>
        <rect class="cls-91" x="98.68" y="784.72" width="513.42" height="57.92"/>
        <rect class="cls-193" x="99.29" y="783.64" width="515.67" height="58.18"/>
        <rect class="cls-47" x="99.91" y="782.56" width="517.91" height="58.43"/>
        <rect class="cls-147" x="100.53" y="781.48" width="520.16" height="58.68"/>
        <rect class="cls-9" x="101.15" y="780.4" width="522.41" height="58.94"/>
        <rect class="cls-60" x="101.77" y="779.32" width="524.65" height="59.19"/>
        <rect class="cls-55" x="102.39" y="778.24" width="526.9" height="59.44"/>
        <rect class="cls-176" x="103.01" y="777.16" width="529.15" height="59.7"/>
        <rect class="cls-167" x="103.62" y="776.08" width="531.4" height="59.95"/>
        <rect class="cls-181" x="104.24" y="775" width="533.64" height="60.2"/>
        <rect class="cls-109" x="104.86" y="773.92" width="535.89" height="60.46"/>
        <rect class="cls-166" x="105.48" y="772.84" width="538.14" height="60.71"/>
        <rect class="cls-202" x="106.1" y="771.76" width="540.38" height="60.96"/>
        <rect class="cls-14" x="106.72" y="770.68" width="542.63" height="61.22"/>
        <rect class="cls-204" x="107.33" y="769.6" width="544.88" height="61.47"/>
        <rect class="cls-33" x="107.95" y="768.52" width="547.12" height="61.73"/>
        <rect class="cls-19" x="108.57" y="767.44" width="549.37" height="61.98"/>
        <rect class="cls-146" x="109.19" y="766.36" width="551.62" height="62.23"/>
        <rect class="cls-160" x="109.81" y="765.28" width="553.86" height="62.49"/>
        <rect class="cls-221" x="110.43" y="764.2" width="556.11" height="62.74"/>
        <rect class="cls-112" x="111.05" y="763.12" width="558.36" height="62.99"/>
        <rect class="cls-24" x="111.66" y="762.04" width="560.61" height="63.25"/>
        <rect class="cls-131" x="112.28" y="760.96" width="562.85" height="63.5"/>
        <rect class="cls-40" x="112.9" y="759.88" width="565.1" height="63.75"/>
        <rect class="cls-155" x="113.52" y="758.8" width="567.35" height="64.01"/>
        <rect class="cls-77" x="114.14" y="757.72" width="569.59" height="64.26"/>
        <rect class="cls-54" x="114.76" y="756.64" width="571.84" height="64.51"/>
        <rect class="cls-49" x="115.38" y="755.56" width="574.09" height="64.77"/>
        <rect class="cls-196" x="115.99" y="754.48" width="576.33" height="65.02"/>
        <rect class="cls-39" x="116.61" y="753.4" width="578.58" height="65.27"/>
        <rect class="cls-134" x="117.23" y="752.32" width="580.83" height="65.53"/>
        <rect class="cls-72" x="117.85" y="751.24" width="583.07" height="65.78"/>
        <rect class="cls-61" x="118.47" y="750.16" width="585.32" height="66.03"/>
        <rect class="cls-50" x="119.09" y="749.08" width="587.57" height="66.29"/>
        <rect class="cls-227" x="119.7" y="748" width="589.82" height="66.54"/>
        <rect class="cls-208" x="120.32" y="746.92" width="592.06" height="66.8"/>
        <rect class="cls-21" x="120.94" y="745.84" width="594.31" height="67.05"/>
        <rect class="cls-130" x="121.56" y="744.76" width="596.56" height="67.3"/>
        <rect class="cls-188" x="122.18" y="743.68" width="598.8" height="67.56"/>
        <rect class="cls-149" x="122.8" y="742.6" width="601.05" height="67.81"/>
        <rect class="cls-136" x="123.42" y="741.52" width="603.3" height="68.06"/>
        <rect class="cls-44" x="124.03" y="740.44" width="605.54" height="68.32"/>
        <rect class="cls-48" x="124.65" y="739.36" width="607.79" height="68.57"/>
        <rect class="cls-205" x="125.27" y="738.28" width="610.04" height="68.82"/>
        <rect class="cls-229" x="125.89" y="737.19" width="612.28" height="69.08"/>
        <rect class="cls-57" x="126.51" y="736.11" width="614.53" height="69.33"/>
        <rect class="cls-157" x="127.13" y="735.03" width="616.78" height="69.58"/>
        <rect class="cls-139" x="127.74" y="733.95" width="619.03" height="69.84"/>
        <rect class="cls-209" x="128.36" y="732.87" width="621.27" height="70.09"/>
        <rect class="cls-66" x="128.98" y="731.79" width="623.52" height="70.34"/>
        <rect class="cls-168" x="129.6" y="730.71" width="625.77" height="70.6"/>
        <rect class="cls-214" x="130.22" y="729.63" width="628.01" height="70.85"/>
        <rect class="cls-74" x="130.84" y="728.55" width="630.26" height="71.1"/>
        <rect class="cls-150" x="131.46" y="727.47" width="632.51" height="71.36"/>
        <rect class="cls-81" x="132.07" y="726.39" width="634.75" height="71.61"/>
        <rect class="cls-10" x="132.69" y="725.31" width="637" height="71.86"/>
        <rect class="cls-84" x="133.31" y="724.23" width="639.25" height="72.12"/>
        <rect class="cls-125" x="133.93" y="723.15" width="641.49" height="72.37"/>
        <rect class="cls-114" x="134.55" y="722.07" width="643.74" height="72.63"/>
        <rect class="cls-99" x="135.17" y="720.99" width="645.99" height="72.88"/>
        <rect class="cls-124" x="135.79" y="719.91" width="648.23" height="73.13"/>
        <rect class="cls-96" x="136.4" y="718.83" width="650.48" height="73.39"/>
        <rect class="cls-89" x="137.02" y="717.75" width="652.73" height="73.64"/>
        <rect class="cls-18" x="137.64" y="716.67" width="654.98" height="73.89"/>
        <rect class="cls-70" x="138.26" y="715.59" width="657.22" height="74.15"/>
        <rect class="cls-232" x="138.88" y="714.51" width="659.47" height="74.4"/>
        <rect class="cls-161" x="139.5" y="713.43" width="661.72" height="74.65"/>
        <rect class="cls-75" x="140.11" y="712.35" width="663.96" height="74.91"/>
        <rect class="cls-45" x="140.73" y="711.27" width="666.21" height="75.16"/>
        <rect class="cls-180" x="141.35" y="710.19" width="668.46" height="75.41"/>
        <rect class="cls-34" x="141.97" y="709.11" width="670.7" height="75.67"/>
        <rect class="cls-135" x="142.59" y="708.03" width="672.95" height="75.92"/>
        <rect class="cls-217" x="143.21" y="706.95" width="675.2" height="76.17"/>
        <rect class="cls-151" x="143.83" y="705.87" width="677.44" height="76.43"/>
        <rect class="cls-173" x="144.44" y="704.79" width="679.69" height="76.68"/>
        <rect class="cls-128" x="145.06" y="703.71" width="681.94" height="76.93"/>
        <rect class="cls-223" x="145.68" y="702.63" width="684.19" height="77.19"/>
        <rect class="cls-144" x="146.3" y="701.55" width="686.43" height="77.44"/>
        <rect class="cls-94" x="146.92" y="700.47" width="688.68" height="77.7"/>
        <rect class="cls-215" x="147.54" y="699.39" width="690.93" height="77.95"/>
        <rect class="cls-129" x="148.15" y="698.31" width="693.17" height="78.2"/>
        <rect class="cls-46" x="148.77" y="697.23" width="695.42" height="78.46"/>
        <rect class="cls-20" x="149.39" y="696.15" width="697.67" height="78.71"/>
        <rect class="cls-67" x="150.01" y="695.07" width="699.91" height="78.96"/>
        <rect class="cls-6" x="150.63" y="693.99" width="702.16" height="79.22"/>
        <rect class="cls-162" x="151.25" y="692.91" width="704.41" height="79.47"/>
        <rect class="cls-51" x="151.87" y="691.83" width="706.65" height="79.72"/>
        <rect class="cls-64" x="152.48" y="690.75" width="708.9" height="79.98"/>
        <rect class="cls-186" x="153.1" y="689.67" width="711.15" height="80.23"/>
        <rect class="cls-201" x="153.72" y="688.59" width="713.4" height="80.48"/>
        <rect class="cls-141" x="154.34" y="687.51" width="715.64" height="80.74"/>
        <rect class="cls-85" x="154.96" y="686.43" width="717.89" height="80.99"/>
        <rect class="cls-224" x="155.58" y="685.35" width="720.14" height="81.24"/>
        <rect class="cls-105" x="156.19" y="684.27" width="722.38" height="81.5"/>
        <rect class="cls-153" x="156.81" y="683.19" width="724.63" height="81.75"/>
        <rect class="cls-100" x="157.43" y="682.11" width="726.88" height="82"/>
        <rect class="cls-172" x="158.05" y="681.03" width="729.12" height="82.26"/>
        <rect class="cls-108" x="158.67" y="679.95" width="731.37" height="82.51"/>
        <rect class="cls-140" x="159.29" y="678.87" width="733.62" height="82.77"/>
        <rect class="cls-231" x="159.91" y="677.79" width="735.86" height="83.02"/>
        <rect class="cls-17" x="160.52" y="676.71" width="738.11" height="83.27"/>
        <rect class="cls-169" x="161.14" y="675.63" width="740.36" height="83.53"/>
        <rect class="cls-15" x="161.76" y="674.55" width="742.61" height="83.78"/>
        <rect class="cls-11" x="162.38" y="673.47" width="744.85" height="84.03"/>
        <rect class="cls-179" x="163" y="672.39" width="747.1" height="84.29"/>
        <rect class="cls-103" x="163.62" y="671.31" width="749.35" height="84.54"/>
        <rect class="cls-111" x="164.24" y="670.23" width="751.59" height="84.79"/>
        <rect class="cls-177" x="164.85" y="669.14" width="753.84" height="85.05"/>
        <rect class="cls-41" x="165.47" y="668.06" width="756.09" height="85.3"/>
        <rect class="cls-230" x="166.09" y="666.98" width="758.33" height="85.55"/>
        <rect class="cls-192" x="166.71" y="665.9" width="760.58" height="85.81"/>
        <rect class="cls-88" x="167.33" y="664.82" width="762.83" height="86.06"/>
        <rect class="cls-174" x="167.95" y="663.74" width="765.07" height="86.31"/>
        <rect class="cls-2" x="168.56" y="662.66" width="767.32" height="86.57"/>
        <rect class="cls-27" x="169.18" y="661.58" width="769.57" height="86.82"/>
        <rect class="cls-116" x="169.8" y="660.5" width="771.81" height="87.07"/>
        <rect class="cls-117" x="170.42" y="659.42" width="774.06" height="87.33"/>
        <rect class="cls-212" x="171.04" y="658.34" width="776.31" height="87.58"/>
        <rect class="cls-118" x="171.66" y="657.26" width="778.56" height="87.83"/>
        <rect class="cls-165" x="172.28" y="656.18" width="780.8" height="88.09"/>
        <rect class="cls-37" x="172.89" y="655.1" width="783.05" height="88.34"/>
        <rect class="cls-59" x="173.51" y="654.02" width="785.3" height="88.6"/>
        <rect class="cls-143" x="174.13" y="652.94" width="787.54" height="88.85"/>
        <rect class="cls-106" x="174.75" y="651.86" width="789.79" height="89.1"/>
        <rect class="cls-127" x="175.37" y="650.78" width="792.04" height="89.36"/>
        <rect class="cls-194" x="175.99" y="649.7" width="794.28" height="89.61"/>
        <rect class="cls-1" x="176.6" y="648.62" width="796.53" height="89.86"/>
        <rect class="cls-164" x="177.22" y="647.54" width="798.78" height="90.12"/>
        <rect class="cls-4" x="177.84" y="646.46" width="801.02" height="90.37"/>
        <rect class="cls-69" x="178.46" y="645.38" width="803.27" height="90.62"/>
        <rect class="cls-16" x="179.08" y="644.3" width="805.52" height="90.88"/>
        <rect class="cls-98" x="179.7" y="643.22" width="807.77" height="91.13"/>
        <rect class="cls-104" x="180.32" y="642.14" width="810.01" height="91.38"/>
        <rect class="cls-93" x="180.93" y="641.06" width="812.26" height="91.64"/>
        <rect class="cls-30" x="181.55" y="639.98" width="814.51" height="91.89"/>
        <rect class="cls-178" x="182.17" y="638.9" width="816.75" height="92.14"/>
        <rect class="cls-90" x="182.79" y="637.82" width="819" height="92.4"/>
        <rect class="cls-170" x="351.29" y="561.37" width="819" height="92.4"/>
        <rect class="cls-222" x="519.79" y="484.93" width="819" height="92.4"/>
        <rect class="cls-182" x="417.66" y="394.96" width="819" height="92.4"/>
        <rect class="cls-101" x="315.54" y="304.98" width="819" height="92.4"/>
        <rect class="cls-82" x="213.41" y="215.01" width="819" height="92.4"/>
        <rect class="cls-133" x="111.29" y="125.04" width="819" height="92.4"/>
      </g>
      <rect class="cls-163" width="1080" height="1350"/>
      <rect class="cls-163" width="1080" height="1350"/>
      <circle class="cls-90" cx="253" cy="527" r="55"/>
      <circle class="cls-90" cx="876.5" cy="957.5" r="83.5"/>
      <circle class="cls-90" cx="563" cy="968" r="35"/>
    </g>
  </g>
</svg>