<?xml version="1.0" encoding="UTF-8"?>
<svg id="Art" xmlns="http://www.w3.org/2000/svg" version="1.1" xmlns:xlink="http://www.w3.org/1999/xlink" viewBox="0 0 3000 3700">
  <!-- Generator: Adobe Illustrator 30.0.0, SVG Export Plug-In . SVG Version: 2.1.1 Build 123)  -->
  <defs>
    <linearGradient id="linear-gradient" x1="1498.2947052" y1="3234.2257656" x2="1502.8608626" y2="599.7653379" gradientUnits="userSpaceOnUse">
      <stop offset="0" stop-color="#761efe"/>
      <stop offset=".3670121" stop-color="#771ffd"/>
      <stop offset=".4992214" stop-color="#7b26fd"/>
      <stop offset=".5935057" stop-color="#8232fd"/>
      <stop offset=".6697026" stop-color="#8d43fc"/>
      <stop offset=".7349756" stop-color="#9a59fb"/>
      <stop offset=".7927493" stop-color="#ab74fa"/>
      <stop offset=".8450388" stop-color="#bf94f9"/>
      <stop offset=".8930621" stop-color="#d6baf8"/>
      <stop offset=".9358717" stop-color="#f0e3f6"/>
      <stop offset=".94903" stop-color="#f9f2f6"/>
    </linearGradient>
    <clipPath id="clippath">
      <rect width="3000" height="3700" fill="none"/>
    </clipPath>
    <linearGradient id="linear-gradient1" x1="1103.7826087" y1="2679.3478261" x2="3576.5798279" y2="2679.3478261" gradientUnits="userSpaceOnUse">
      <stop offset=".0835526" stop-color="#761efe"/>
      <stop offset=".0945513" stop-color="#731df7"/>
      <stop offset=".2149315" stop-color="#5515b7"/>
      <stop offset=".3335619" stop-color="#3b0f7f"/>
      <stop offset=".4475203" stop-color="#250951"/>
      <stop offset=".5558815" stop-color="#15052e"/>
      <stop offset=".6572688" stop-color="#090214"/>
      <stop offset=".7489758" stop-color="#020005"/>
      <stop offset=".822524" stop-color="#000"/>
    </linearGradient>
    <linearGradient id="linear-gradient2" x1="2089.0510094" y1="1528.152001" x2="2567.2608696" y2="1528.152001" gradientUnits="userSpaceOnUse">
      <stop offset=".0777208" stop-color="#4cee99"/>
      <stop offset=".2047822" stop-color="#50ee9b"/>
      <stop offset=".3460112" stop-color="#5deea2"/>
      <stop offset=".4940152" stop-color="#74eeae"/>
      <stop offset=".6467502" stop-color="#93efbf"/>
      <stop offset=".8031322" stop-color="#bbf0d4"/>
      <stop offset=".9603808" stop-color="#ebf1ee"/>
      <stop offset="1" stop-color="#f9f2f6"/>
    </linearGradient>
    <linearGradient id="linear-gradient3" x1="1457.0592161" y1="1191.6549683" x2="2551.4991575" y2="1191.6549683" gradientUnits="userSpaceOnUse">
      <stop offset=".1005362" stop-color="#f9f2f6"/>
      <stop offset=".1747042" stop-color="#f7f2ee"/>
      <stop offset=".2864273" stop-color="#f4f2d9"/>
      <stop offset=".4218788" stop-color="#eef2b7"/>
      <stop offset=".5758903" stop-color="#e6f388"/>
      <stop offset=".7455729" stop-color="#dcf44c"/>
      <stop offset=".9258809" stop-color="#cff404"/>
      <stop offset=".9357436" stop-color="#cff500"/>
    </linearGradient>
    <linearGradient id="linear-gradient4" x1="303.75" y1="2514.0071298" x2="2283.4939594" y2="2514.0071298" gradientUnits="userSpaceOnUse">
      <stop offset="0" stop-color="#f9f2f6"/>
      <stop offset=".0161444" stop-color="#eee0f7"/>
      <stop offset=".0599241" stop-color="#d4b7f9"/>
      <stop offset=".1026604" stop-color="#c096fc"/>
      <stop offset=".1434951" stop-color="#b17efd"/>
      <stop offset=".1816294" stop-color="#a970fe"/>
      <stop offset=".2143613" stop-color="#a66cff"/>
      <stop offset=".287182" stop-color="#a270fb"/>
      <stop offset=".3687901" stop-color="#997ef0"/>
      <stop offset=".4546418" stop-color="#8994df"/>
      <stop offset=".5434678" stop-color="#74b3c6"/>
      <stop offset=".6336954" stop-color="#58dba7"/>
      <stop offset=".6697576" stop-color="#4cee99"/>
      <stop offset=".7059069" stop-color="#50e79e"/>
      <stop offset=".7583419" stop-color="#5ed3ad"/>
      <stop offset=".8207091" stop-color="#74b4c6"/>
      <stop offset=".8901499" stop-color="#9288e8"/>
      <stop offset=".9164296" stop-color="#9f76f7"/>
    </linearGradient>
    <linearGradient id="linear-gradient5" x1="2029.9499512" y1="1225.184967" x2="2090.9699707" y2="1225.184967" gradientUnits="userSpaceOnUse">
      <stop offset="0" stop-color="#f9f2f6"/>
      <stop offset=".2328559" stop-color="#f8f2f3"/>
      <stop offset=".3708252" stop-color="#f7f2eb"/>
      <stop offset=".4840316" stop-color="#f4f2dc"/>
      <stop offset=".583876" stop-color="#f1f2c8"/>
      <stop offset=".6749247" stop-color="#ecf2ae"/>
      <stop offset=".7595437" stop-color="#e7f38e"/>
      <stop offset=".8392764" stop-color="#e0f368"/>
      <stop offset=".9150508" stop-color="#d9f43b"/>
      <stop offset=".9852427" stop-color="#d0f40b"/>
      <stop offset="1" stop-color="#cff500"/>
    </linearGradient>
    <linearGradient id="linear-gradient6" x1="302.7893952" y1="2070.5483398" x2="2214.1016257" y2="2070.5483398" gradientUnits="userSpaceOnUse">
      <stop offset=".0751254" stop-color="#4cee99"/>
      <stop offset=".2857449" stop-color="#4eee9a"/>
      <stop offset=".428328" stop-color="#57ee9f"/>
      <stop offset=".5507637" stop-color="#66eea7"/>
      <stop offset=".6619153" stop-color="#7cefb3"/>
      <stop offset=".7653598" stop-color="#98efc2"/>
      <stop offset=".8630997" stop-color="#baf0d4"/>
      <stop offset=".9546278" stop-color="#e2f1e9"/>
      <stop offset="1" stop-color="#f9f2f6"/>
    </linearGradient>
    <linearGradient id="linear-gradient7" x1="402.801552" y1="2070.5485806" x2="2114.0944876" y2="2070.5485806" gradientUnits="userSpaceOnUse">
      <stop offset="0" stop-color="#f9f2f6"/>
      <stop offset=".069527" stop-color="#f9ddf7"/>
      <stop offset=".2121981" stop-color="#fca7fb"/>
      <stop offset=".3291324" stop-color="#fe77ff"/>
      <stop offset="1" stop-color="#a66cff"/>
    </linearGradient>
    <linearGradient id="linear-gradient8" x1="1730.1352059" y1="1040.5714229" x2="2029.9486677" y2="1040.5714229" gradientUnits="userSpaceOnUse">
      <stop offset="0" stop-color="#a66cff"/>
      <stop offset=".0368563" stop-color="#9b65ee"/>
      <stop offset=".2076127" stop-color="#6c46a7"/>
      <stop offset=".3686041" stop-color="#462d6b"/>
      <stop offset=".5150036" stop-color="#27193d"/>
      <stop offset=".6441235" stop-color="#120b1b"/>
      <stop offset=".7510352" stop-color="#040307"/>
      <stop offset=".822524" stop-color="#000"/>
    </linearGradient>
    <linearGradient id="linear-gradient9" x1="2292.1799316" y1="1203.3150024" x2="2414.2199707" y2="1203.3150024" gradientUnits="userSpaceOnUse">
      <stop offset="0" stop-color="#f9f2f6"/>
      <stop offset=".088802" stop-color="#f7f2ee"/>
      <stop offset=".2225688" stop-color="#f4f2d9"/>
      <stop offset=".3847459" stop-color="#eef2b7"/>
      <stop offset=".569145" stop-color="#e6f388"/>
      <stop offset=".7723071" stop-color="#dcf44c"/>
      <stop offset=".9881913" stop-color="#cff404"/>
      <stop offset="1" stop-color="#cff500"/>
    </linearGradient>
    <linearGradient id="linear-gradient10" x1="2002.0834498" y1="1184.5034287" x2="2301.8969116" y2="1184.5034287" gradientUnits="userSpaceOnUse">
      <stop offset="0" stop-color="#a66cff"/>
      <stop offset=".0293506" stop-color="#9e67f3"/>
      <stop offset=".2569708" stop-color="#66429e"/>
      <stop offset=".4579604" stop-color="#3a265a"/>
      <stop offset=".6248165" stop-color="#1a1129"/>
      <stop offset=".7512708" stop-color="#07040b"/>
      <stop offset=".822524" stop-color="#000"/>
    </linearGradient>
  </defs>
  <g id="Background">
    <rect width="3000" height="3700"/>
  </g>
  <g id="Graphics">
    <rect y="800.7000122" width="3000" height="2899.2999878" fill="url(#linear-gradient)"/>
    <g clip-path="url(#clippath)">
      <g>
        <polygon points="1103.7826087 3378.9672353 1855.0869565 3984.7391304 3311.1628024 3826.6521739 3088.4782609 1670.3499756 2592.3043478 1373.9565217 1357.3478261 2712.2173913 1103.7826087 3378.9672353" fill="url(#linear-gradient1)"/>
        <polygon points="2557.7597023 1109.477915 2592.3043478 1373.9565217 2114.0944876 1946.826087 2123.5439375 1670.3540236 2557.7597023 1109.477915" fill="url(#linear-gradient2)"/>
        <polygon points="2557.7600098 1109.4799805 2414.2199707 1294.8900146 2292.1799316 1452.5200195 2123.5400391 1670.3499756 2090.9699707 1649.6699219 2029.9499512 1610.9299316 1463.3200684 1251.1599731 1879.9799805 712.9599609 2029.9499512 800.7000122 2090.9699707 836.3900146 2292.1799316 954.1099854 2414.2199707 1025.5100098 2557.7600098 1109.4799805" fill="url(#linear-gradient3)"/>
        <path d="M2248.1799316,2084.8800049l-389.9599609,470.1600342-64.4099121,77.6499023-164.1101074,197.8601074-97.5100098,117.5598145-322.9099121,389.3200684c-48.6800537,58.6799316-113.8701172,42.1799316-146.7399902,28.2299805-7.25-1.7099609-14.3500977-5.1398926-20.8200684-10.5500488l-643.3799438-538.6398926c-47.210022-39.5300293-75.8400269-96.9299316-79.0200195-158.4299316l-15.5700073-301.1401367,770.0600586,627.6601562,458.3798828-538.6401367,97.5100098-114.5799561,164.1101074-192.8499756,64.4099121-75.6899414,352.1000977-413.75,69.329834,303.8399658c10.6101074,46.5-1.0200195,95.289917-31.4699707,131.9899902Z" fill="url(#linear-gradient4)"/>
        <polygon points="2090.9699707 836.3900146 2090.9699707 1649.6699219 2029.9499512 1610.9299316 2029.9499512 800.7000122 2090.9699707 836.3900146" fill="url(#linear-gradient5)"/>
        <path d="M1104.3227539,3009.4345703c-45.8798828,0-91.0668945-15.5888672-127.2373047-43.8955078l-595.0263672-465.6728516c-22.7006836-17.7666016-41.09375-39.5869141-54.6669922-64.8564453-13.0532227-24.2998047-21.0087891-50.5810547-23.6459961-78.1123047s.184082-54.8447266,8.3862305-81.1806641c8.5297852-27.3867188,22.4453125-52.3017578,41.3608398-74.0537109l868.6757812-998.9770508c39.2485352-45.1367188,96.078125-71.0239258,155.9165039-71.0239258,35.0107422,0,69.7084961,9.0053711,100.34375,26.0424805l629.4829102,350.0698242c53.4589844,29.7294922,90.7832031,81.2236328,102.4042969,141.2788086,11.6201172,60.0546875-3.8007812,121.7548828-42.3105469,169.2802734l-903.1328125,1114.5805664c-39.4047852,48.6298828-97.9228516,76.5205078-160.550293,76.5205078Z" fill="url(#linear-gradient6)"/>
        <path d="M428.9533197,2267.2811534l868.6760706-998.9774812c33.0455543-38.0023874,88.1844177-47.680952,132.196907-23.2046186l629.4835128,350.0699127c57.8588629,32.1766125,72.6800348,108.7706765,31.0007494,160.2082073l-903.1328717,1114.5806472c-36.6062265,45.1767319-102.6709442,52.6661747-148.4611802,16.8303378l-595.0267117-465.6730787c-48.0476698-37.6025242-54.7715974-107.793537-14.7364761-153.8339265Z" fill="url(#linear-gradient7)"/>
        <path d="M1130.3642578,2771.1484375c-20.5600586,0-40.421875-6.8134766-56.8417969-19.6630859l-494.0966797-386.6835938c-20.168457-15.7851562-32.6210938-38.5185547-35.0629883-64.0126953s5.4677734-50.1767578,22.2729492-69.5029297l3.0185547,2.625-3.0185547-2.625,721.3291016-829.5283203c13.871582-15.9516602,32.9775391-26.75,53.7988281-30.4047852,20.8208008-3.6533203,42.4619141-.0087891,60.9375,10.2651367l522.7089844,290.6904297c23.9345703,13.3110352,40.6464844,36.3662109,45.8486328,63.2548828,5.203125,26.8886719-1.7011719,54.5136719-18.9433594,75.7919922l-749.940918,925.5234375c-15.3662109,18.9628906-37.1845703,30.9208984-61.4365234,33.6699219-3.5351562.4013672-7.065918.5996094-10.5737305.5996094ZM1357.956543,1378.0541992c-23.9067383,0-47.5200195,10.0532227-63.9545898,28.9536133l-721.3291016,829.5283203c-15.3515625,17.6533203-22.5771484,40.2021484-20.3466797,63.4902344,2.230957,23.2890625,13.605957,44.0556641,32.0302734,58.4746094l494.0966797,386.6835938c36.0693359,28.2285156,88.871582,22.2441406,117.7055664-13.3427734l749.9418945-925.5224609c15.75-19.4379883,22.0566406-44.6733398,17.3037109-69.2358398-4.7519531-24.5625-20.0185547-45.6240234-41.8828125-57.7836914l-522.7084961-290.6899414c-12.7983398-7.1171875-26.8789062-10.5556641-40.8564453-10.5556641Z" fill="#f9f2f6"/>
        <polygon points="1937.0916978 1149.8917826 1730.1352059 1033.298465 1822.9921758 931.2510632 2029.9486677 1047.8443808 1937.0916978 1149.8917826" fill="url(#linear-gradient8)"/>
        <polygon points="2414.2199707 1025.5100098 2414.2199707 1294.8900146 2292.1799316 1452.5200195 2292.1799316 954.1099854 2414.2199707 1025.5100098" fill="url(#linear-gradient9)"/>
        <polygon points="2209.0399417 1293.8237884 2002.0834498 1177.2304708 2094.9404197 1075.183069 2301.8969116 1191.7763866 2209.0399417 1293.8237884" fill="url(#linear-gradient10)"/>
      </g>
      <polygon points="1474.807639 1598.2719261 1739.5488683 1753.2814721 1298.339915 1999.4099985 1431.3100827 2077.2658178 881.2337404 2429.9889434 1193.3613275 2082.0757097 1049.0901646 2004.1544643 1474.807639 1598.2719261" fill="#f9f2f6"/>
    </g>
  </g>
</svg>