<?xml version="1.0" encoding="UTF-8" standalone="no"?>
<!-- Created with Inkscape (http://www.inkscape.org/) -->

<svg
   version="1.1"
   id="svg1"
   width="880"
   height="880"
   viewBox="0 0 880 880"
   sodipodi:docname="schoolboy-classroom.svg"
   inkscape:version="1.3.2 (091e20e, 2023-11-25, custom)"
   xmlns:inkscape="http://www.inkscape.org/namespaces/inkscape"
   xmlns:sodipodi="http://sodipodi.sourceforge.net/DTD/sodipodi-0.dtd"
   xmlns="http://www.w3.org/2000/svg"
   xmlns:svg="http://www.w3.org/2000/svg">
  <defs
     id="defs1">
    <clipPath
       clipPathUnits="userSpaceOnUse"
       id="clipPath3">
      <path
         d="M 0,660 H 660 V 0 H 0 Z"
         transform="translate(-320.66891,-548.26462)"
         id="path3" />
    </clipPath>
    <clipPath
       clipPathUnits="userSpaceOnUse"
       id="clipPath5">
      <path
         d="M 0,660 H 660 V 0 H 0 Z"
         transform="translate(-326.93361,-94.767602)"
         id="path5" />
    </clipPath>
    <clipPath
       clipPathUnits="userSpaceOnUse"
       id="clipPath7">
      <path
         d="M 0,660 H 660 V 0 H 0 Z"
         transform="translate(-368.42771,-549.33151)"
         id="path7" />
    </clipPath>
    <clipPath
       clipPathUnits="userSpaceOnUse"
       id="clipPath9">
      <path
         d="M 0,660 H 660 V 0 H 0 Z"
         id="path9" />
    </clipPath>
    <clipPath
       clipPathUnits="userSpaceOnUse"
       id="clipPath11">
      <path
         d="M 0,660 H 660 V 0 H 0 Z"
         transform="translate(-223.0972,-465.32761)"
         id="path11" />
    </clipPath>
    <clipPath
       clipPathUnits="userSpaceOnUse"
       id="clipPath13">
      <path
         d="M 0,660 H 660 V 0 H 0 Z"
         transform="translate(-265.3135,-172.25001)"
         id="path13" />
    </clipPath>
    <clipPath
       clipPathUnits="userSpaceOnUse"
       id="clipPath15">
      <path
         d="M 0,660 H 660 V 0 H 0 Z"
         transform="translate(-357.58891,-290.14161)"
         id="path15" />
    </clipPath>
    <clipPath
       clipPathUnits="userSpaceOnUse"
       id="clipPath17">
      <path
         d="M 0,660 H 660 V 0 H 0 Z"
         id="path17" />
    </clipPath>
    <clipPath
       clipPathUnits="userSpaceOnUse"
       id="clipPath19">
      <path
         d="M 0,660 H 660 V 0 H 0 Z"
         transform="translate(-532.68551,-449.92431)"
         id="path19" />
    </clipPath>
    <clipPath
       clipPathUnits="userSpaceOnUse"
       id="clipPath21">
      <path
         d="M 0,660 H 660 V 0 H 0 Z"
         transform="translate(-551.96002,-102.85251)"
         id="path21" />
    </clipPath>
    <clipPath
       clipPathUnits="userSpaceOnUse"
       id="clipPath23">
      <path
         d="M 0,660 H 660 V 0 H 0 Z"
         transform="translate(-542.55271,-251.92681)"
         id="path23" />
    </clipPath>
    <clipPath
       clipPathUnits="userSpaceOnUse"
       id="clipPath25">
      <path
         d="M 0,660 H 660 V 0 H 0 Z"
         transform="translate(-516.31741,-149.4424)"
         id="path25" />
    </clipPath>
    <clipPath
       clipPathUnits="userSpaceOnUse"
       id="clipPath27">
      <path
         d="M 0,660 H 660 V 0 H 0 Z"
         transform="translate(-393.95611,-267.5674)"
         id="path27" />
    </clipPath>
    <clipPath
       clipPathUnits="userSpaceOnUse"
       id="clipPath29">
      <path
         d="M 0,660 H 660 V 0 H 0 Z"
         transform="translate(-505.35941,-267.5674)"
         id="path29" />
    </clipPath>
    <clipPath
       clipPathUnits="userSpaceOnUse"
       id="clipPath31">
      <path
         d="M 0,660 H 660 V 0 H 0 Z"
         transform="translate(-209.95611,-144.9951)"
         id="path31" />
    </clipPath>
    <clipPath
       clipPathUnits="userSpaceOnUse"
       id="clipPath33">
      <path
         d="M 0,660 H 660 V 0 H 0 Z"
         id="path33" />
    </clipPath>
    <clipPath
       clipPathUnits="userSpaceOnUse"
       id="clipPath35">
      <path
         d="M 0,660 H 660 V 0 H 0 Z"
         id="path35" />
    </clipPath>
    <clipPath
       clipPathUnits="userSpaceOnUse"
       id="clipPath37">
      <path
         d="M 0,660 H 660 V 0 H 0 Z"
         transform="translate(-254.55321,-125.45901)"
         id="path37" />
    </clipPath>
    <clipPath
       clipPathUnits="userSpaceOnUse"
       id="clipPath39">
      <path
         d="M 0,660 H 660 V 0 H 0 Z"
         transform="translate(-375.77831,-290.14161)"
         id="path39" />
    </clipPath>
    <clipPath
       clipPathUnits="userSpaceOnUse"
       id="clipPath41">
      <path
         d="M 0,660 H 660 V 0 H 0 Z"
         transform="translate(-330.65141,-339.14651)"
         id="path41" />
    </clipPath>
    <clipPath
       clipPathUnits="userSpaceOnUse"
       id="clipPath43">
      <path
         d="M 0,660 H 660 V 0 H 0 Z"
         transform="translate(-321.10791,-309.32131)"
         id="path43" />
    </clipPath>
    <clipPath
       clipPathUnits="userSpaceOnUse"
       id="clipPath45">
      <path
         d="M 0,660 H 660 V 0 H 0 Z"
         transform="translate(-480.55761,-339.14651)"
         id="path45" />
    </clipPath>
    <clipPath
       clipPathUnits="userSpaceOnUse"
       id="clipPath47">
      <path
         d="M 0,660 H 660 V 0 H 0 Z"
         transform="translate(-386.27831,-497.27831)"
         id="path47" />
    </clipPath>
    <clipPath
       clipPathUnits="userSpaceOnUse"
       id="clipPath49">
      <path
         d="M 0,660 H 660 V 0 H 0 Z"
         transform="translate(-342.54201,-466.33111)"
         id="path49" />
    </clipPath>
    <clipPath
       clipPathUnits="userSpaceOnUse"
       id="clipPath51">
      <path
         d="M 0,660 H 660 V 0 H 0 Z"
         transform="translate(-318.53661,-620.83112)"
         id="path51" />
    </clipPath>
    <clipPath
       clipPathUnits="userSpaceOnUse"
       id="clipPath53">
      <path
         d="M 0,660 H 660 V 0 H 0 Z"
         transform="translate(-315.31881,-640.13132)"
         id="path53" />
    </clipPath>
    <clipPath
       clipPathUnits="userSpaceOnUse"
       id="clipPath55">
      <path
         d="M 0,660 H 660 V 0 H 0 Z"
         transform="translate(-394.31541,-629.32422)"
         id="path55" />
    </clipPath>
    <clipPath
       clipPathUnits="userSpaceOnUse"
       id="clipPath57">
      <path
         d="M 0,660 H 660 V 0 H 0 Z"
         transform="translate(-295.8916,-620.70362)"
         id="path57" />
    </clipPath>
    <clipPath
       clipPathUnits="userSpaceOnUse"
       id="clipPath59">
      <path
         d="M 0,660 H 660 V 0 H 0 Z"
         transform="translate(-377.07321,-541.57811)"
         id="path59" />
    </clipPath>
    <clipPath
       clipPathUnits="userSpaceOnUse"
       id="clipPath61">
      <path
         d="M 0,660 H 660 V 0 H 0 Z"
         transform="translate(-320.86431,-587.29491)"
         id="path61" />
    </clipPath>
    <clipPath
       clipPathUnits="userSpaceOnUse"
       id="clipPath63">
      <path
         d="M 0,660 H 660 V 0 H 0 Z"
         transform="translate(-325.71481,-581.75101)"
         id="path63" />
    </clipPath>
    <clipPath
       clipPathUnits="userSpaceOnUse"
       id="clipPath65">
      <path
         d="M 0,660 H 660 V 0 H 0 Z"
         transform="translate(-326.54691,-574.87552)"
         id="path65" />
    </clipPath>
  </defs>
  <sodipodi:namedview
     id="namedview1"
     pagecolor="#ffffff"
     bordercolor="#000000"
     borderopacity="0.25"
     inkscape:showpageshadow="2"
     inkscape:pageopacity="0.0"
     inkscape:pagecheckerboard="0"
     inkscape:deskcolor="#d1d1d1"
     inkscape:zoom="0.67272727"
     inkscape:cx="439.25676"
     inkscape:cy="440"
     inkscape:window-width="1440"
     inkscape:window-height="830"
     inkscape:window-x="-6"
     inkscape:window-y="-6"
     inkscape:window-maximized="1"
     inkscape:current-layer="g1">
    <inkscape:page
       x="0"
       y="0"
       inkscape:label="1"
       id="page1"
       width="880"
       height="880"
       margin="126.3568 71.459999 12.768 63.285198"
       bleed="0" />
  </sodipodi:namedview>
  <g
     id="g1"
     inkscape:groupmode="layer"
     inkscape:label="1">
    <g
       id="group-MC0">
      <path
         id="path2"
         d="m 0,0 c 3.848,0 6.986,3.138 6.986,6.985 0,3.848 -3.138,6.986 -6.986,6.986 -3.847,0 -6.986,-3.138 -6.986,-6.986 C -6.986,3.138 -3.847,0 0,0"
         style="fill:#f28f62;fill-opacity:1;fill-rule:evenodd;stroke:none"
         transform="matrix(1.3333333,0,0,-1.3333333,427.55853,148.98053)"
         clip-path="url(#clipPath3)" />
      <path
         id="path4"
         d="m 0,0 c 153.927,0 279.472,3.188 279.472,7.096 0,3.908 -125.545,7.096 -279.472,7.096 -153.926,0 -279.47,-3.188 -279.47,-7.096 C -279.47,3.188 -153.926,0 0,0"
         style="fill:#b2a29e;fill-opacity:1;fill-rule:evenodd;stroke:none"
         transform="matrix(1.3333333,0,0,-1.3333333,435.91147,753.6432)"
         clip-path="url(#clipPath5)" />
      <path
         id="path6"
         d="m 0,0 h 33.062 l 9.449,-45.699 c 1.88,-9.091 -4.021,-16.53 -13.113,-16.53 -9.091,0 -18.069,7.439 -19.949,16.53 z"
         style="fill:#f28f62;fill-opacity:1;fill-rule:evenodd;stroke:none"
         transform="matrix(1.3333333,0,0,-1.3333333,491.23693,147.558)"
         clip-path="url(#clipPath7)" />
      <path
         id="path8"
         d="m 152.578,403.696 h 129.064 v 3.531 H 152.578 Z"
         style="fill:#463d3b;fill-opacity:1;fill-rule:evenodd;stroke:none"
         transform="matrix(1.3333333,0,0,-1.3333333,0,880)"
         clip-path="url(#clipPath9)" />
      <path
         id="path10"
         d="m 0,0 h 0.001 c 1.708,0 3.104,-1.397 3.104,-3.105 v -32.378 c 0,-1.706 -1.396,-3.104 -3.104,-3.104 H 0 c -1.707,0 -3.104,1.398 -3.104,3.104 V -3.105 C -3.104,-1.397 -1.707,0 0,0"
         style="fill:#463d3b;fill-opacity:1;fill-rule:evenodd;stroke:none"
         transform="matrix(1.3333333,0,0,-1.3333333,297.46293,259.5632)"
         clip-path="url(#clipPath11)" />
      <path
         id="path12"
         d="m 0,0 19.918,10.571 c 12.581,6.677 29.442,2.434 37.469,-9.43 8.027,-11.865 4.302,-27.035 -8.279,-33.711 L 29.191,-43.142 C 16.61,-49.82 -0.25,-45.576 -8.278,-33.711 -16.307,-21.847 -12.581,-6.679 0,0"
         style="fill:#cc2d23;fill-opacity:1;fill-rule:evenodd;stroke:none"
         transform="matrix(1.3333333,0,0,-1.3333333,353.75133,650.33333)"
         clip-path="url(#clipPath13)" />
      <path
         id="path14"
         d="m 0,0 h 143.249 l 24.307,157.787 h 5.373 c 21.468,0 36.28,-17.511 32.973,-38.977 L 184.348,-21.115 h -44.352 l 0.725,4.706 -140.721,0 z"
         style="fill:#cd1f65;fill-opacity:1;fill-rule:evenodd;stroke:none"
         transform="matrix(1.3333333,0,0,-1.3333333,476.7852,493.14453)"
         clip-path="url(#clipPath15)" />
      <path
         id="path16"
         d="m 380.32,134.142 h 137.49 v 22.176 H 380.32 Z"
         style="fill:#948681;fill-opacity:1;fill-rule:evenodd;stroke:none"
         transform="matrix(1.3333333,0,0,-1.3333333,0,880)"
         clip-path="url(#clipPath17)" />
      <path
         id="path18"
         d="M 0,0 H 5.373 C 26.842,0 41.652,-17.51 38.347,-38.978 L 13.85,-197.997 h -44.352 z"
         style="fill:#b2a29e;fill-opacity:1;fill-rule:evenodd;stroke:none"
         transform="matrix(1.3333333,0,0,-1.3333333,710.24733,280.10093)"
         clip-path="url(#clipPath19)" />
      <path
         id="path20"
         d="M 0,0 -24.495,159.02 H -68.849 L -44.352,0 Z m -211.66,0 24.497,159.02 h 44.351 L -167.309,0 Z"
         style="fill:#b2a29e;fill-opacity:1;fill-rule:evenodd;stroke:none"
         transform="matrix(1.3333333,0,0,-1.3333333,735.94667,742.86333)"
         clip-path="url(#clipPath21)" />
      <path
         id="path22"
         d="m 0,0 h -192.846 c -8.344,0 -15.174,6.828 -15.174,15.174 0,8.347 6.83,15.174 15.174,15.174 H 0 c 8.347,0 15.174,-6.827 15.174,-15.174 C 15.174,6.828 8.347,0 0,0"
         style="fill:#d7c9c4;fill-opacity:1;fill-rule:evenodd;stroke:none"
         transform="matrix(1.3333333,0,0,-1.3333333,723.4036,544.0976)"
         clip-path="url(#clipPath23)" />
      <path
         id="path24"
         d="m 0,0 c 2.326,0 4.213,-1.888 4.213,-4.215 0,-2.326 -1.887,-4.213 -4.213,-4.213 -2.327,0 -4.214,1.887 -4.214,4.213 C -4.214,-1.888 -2.327,0 0,0 m -140.373,0 c 2.327,0 4.213,-1.888 4.213,-4.215 0,-2.326 -1.886,-4.213 -4.213,-4.213 -2.327,0 -4.213,1.887 -4.213,4.213 0,2.327 1.886,4.215 4.213,4.215"
         style="fill:#766864;fill-opacity:1;fill-rule:evenodd;stroke:none"
         transform="matrix(1.3333333,0,0,-1.3333333,688.4232,680.74347)"
         clip-path="url(#clipPath25)" />
      <path
         id="path26"
         d="M 0,0 C 2.327,0 4.215,-1.887 4.215,-4.213 4.215,-6.54 2.327,-8.428 0,-8.428 c -2.325,0 -4.213,1.888 -4.213,4.215 C -4.213,-1.887 -2.325,0 0,0"
         style="fill:#766864;fill-opacity:1;fill-rule:evenodd;stroke:none"
         transform="matrix(1.3333333,0,0,-1.3333333,525.2748,523.24347)"
         clip-path="url(#clipPath27)" />
      <path
         id="path28"
         d="M 0,0 C 2.327,0 4.214,-1.887 4.214,-4.213 4.214,-6.54 2.327,-8.428 0,-8.428 c -2.327,0 -4.213,1.888 -4.213,4.215 C -4.213,-1.887 -2.327,0 0,0"
         style="fill:#766864;fill-opacity:1;fill-rule:evenodd;stroke:none"
         transform="matrix(1.3333333,0,0,-1.3333333,673.81253,523.24347)"
         clip-path="url(#clipPath29)" />
      <path
         id="path30"
         d="M 0,0 63.681,-8.949 C 73.902,-10.386 81.389,-18.997 81.389,-29.32 V -42.143 H -93.69 v 21.661 33.649 228.971 H 85.175 V 202.861 H 0 Z"
         style="fill:#b2a29e;fill-opacity:1;fill-rule:evenodd;stroke:none"
         transform="matrix(1.3333333,0,0,-1.3333333,279.94147,686.6732)"
         clip-path="url(#clipPath31)" />
      <path
         id="path32"
         d="m 81.722,370.572 h 256.467 v 33.124 H 81.722 Z"
         style="fill:#d7c9c4;fill-opacity:1;fill-rule:evenodd;stroke:none"
         transform="matrix(1.3333333,0,0,-1.3333333,0,880)"
         clip-path="url(#clipPath33)" />
      <path
         id="path34"
         d="m 116.266,360.632 h 178.865 v 9.94 H 116.266 Z"
         style="fill:#948681;fill-opacity:1;fill-rule:evenodd;stroke:none"
         transform="matrix(1.3333333,0,0,-1.3333333,0,880)"
         clip-path="url(#clipPath35)" />
      <path
         id="path36"
         d="m 0,0 c 3.269,0 5.917,-2.648 5.917,-5.914 0,-3.267 -2.648,-5.916 -5.917,-5.916 -3.266,0 -5.914,2.649 -5.914,5.916 C -5.914,-2.648 -3.266,0 0,0 m -107.412,0 c 3.266,0 5.915,-2.648 5.915,-5.914 0,-3.267 -2.649,-5.916 -5.915,-5.916 -3.267,0 -5.914,2.649 -5.914,5.916 0,3.266 2.647,5.914 5.914,5.914"
         style="fill:#766864;fill-opacity:1;fill-rule:evenodd;stroke:none"
         transform="matrix(1.3333333,0,0,-1.3333333,339.40427,712.72133)"
         clip-path="url(#clipPath37)" />
      <path
         id="path38"
         d="m 0,0 h -73.851 c -10.547,0 -19.178,8.632 -19.178,19.18 0,10.549 8.631,19.18 19.178,19.18 H 0 c 10.549,0 19.18,-8.631 19.18,-19.18 C 19.18,8.632 10.549,0 0,0"
         style="fill:#f28f62;fill-opacity:1;fill-rule:evenodd;stroke:none"
         transform="matrix(1.3333333,0,0,-1.3333333,501.03773,493.14453)"
         clip-path="url(#clipPath39)" />
      <path
         id="path40"
         d="m 0,0 h 149.906 v -24.503 c 0,-13.476 -11.026,-24.502 -24.503,-24.502 L 0,-49.005 Z"
         style="fill:#fbca07;fill-opacity:1;fill-rule:evenodd;stroke:none"
         transform="matrix(1.3333333,0,0,-1.3333333,440.86853,427.80467)"
         clip-path="url(#clipPath41)" />
      <path
         id="path42"
         d="m 0,0 v -131.062 c 0,-10.549 -8.63,-19.18 -19.18,-19.18 -10.548,0 -19.178,8.631 -19.178,19.18 V 0 c 0,10.548 8.63,19.179 19.178,19.179 C -8.63,19.179 0,10.548 0,0"
         style="fill:#f28f62;fill-opacity:1;fill-rule:evenodd;stroke:none"
         transform="matrix(1.3333333,0,0,-1.3333333,428.14387,467.5716)"
         clip-path="url(#clipPath43)" />
      <path
         id="path44"
         d="m 0,0 h -92.252 l -26.366,127.512 c -5.245,25.369 11.219,46.125 36.588,46.125 h 0.001 c 25.369,0 50.417,-20.756 55.662,-46.125 z"
         style="fill:#cc2d23;fill-opacity:1;fill-rule:evenodd;stroke:none"
         transform="matrix(1.3333333,0,0,-1.3333333,640.74347,427.80467)"
         clip-path="url(#clipPath45)" />
      <path
         id="path46"
         d="m 0,0 c 6.107,5.284 15.343,4.617 20.627,-1.49 5.284,-6.107 4.617,-15.342 -1.49,-20.626 l -78.06,-67.857 c -2.766,-2.395 -6.175,-3.567 -9.568,-3.566 v -0.043 h -103.338 c -8.101,0 -14.668,6.566 -14.668,14.665 0,8.101 6.567,14.668 14.668,14.668 h 97.923 z"
         style="fill:#f28f62;fill-opacity:1;fill-rule:evenodd;stroke:none"
         transform="matrix(1.3333333,0,0,-1.3333333,515.03773,216.96227)"
         clip-path="url(#clipPath47)" />
      <path
         id="path48"
         d="M 0,0 40.233,34.977 C 48.532,42.191 61.212,41.26 68.399,32.951 75.59,24.643 74.66,12.004 66.376,4.802 l -40.192,-34.94 z"
         style="fill:#7e2b1a;fill-opacity:1;fill-rule:evenodd;stroke:none"
         transform="matrix(1.3333333,0,0,-1.3333333,456.72267,258.2252)"
         clip-path="url(#clipPath49)" />
      <path
         id="path50"
         d="m 0,0 h 90.062 v -60.925 c 0,-24.766 -20.265,-45.031 -45.031,-45.031 C 20.263,-105.956 0,-85.691 0,-60.925 Z"
         style="fill:#f28f62;fill-opacity:1;fill-rule:evenodd;stroke:none"
         transform="matrix(1.3333333,0,0,-1.3333333,424.71547,52.2252)"
         clip-path="url(#clipPath51)" />
      <path
         id="path52"
         d="m 0,0 h 76.424 c 10.685,0 19.427,-8.742 19.427,-19.428 v -10e-4 c 0,-10.684 -8.742,-19.426 -19.427,-19.426 H 0 c -10.685,0 -19.427,8.742 -19.427,19.426 v 10e-4 C -19.427,-8.742 -10.685,0 0,0"
         style="fill:#2f2825;fill-opacity:1;fill-rule:evenodd;stroke:none"
         transform="matrix(1.3333333,0,0,-1.3333333,420.42507,26.4916)"
         clip-path="url(#clipPath53)" />
      <path
         id="path54"
         d="m 0,0 v 0 c 13.375,0 24.315,-10.942 24.315,-24.316 v -47.091 c 0,-13.373 -10.94,-24.315 -24.315,-24.315 -13.374,0 -24.316,10.942 -24.316,24.315 v 47.091 C -24.316,-10.942 -13.374,0 0,0"
         style="fill:#2f2825;fill-opacity:1;fill-rule:evenodd;stroke:none"
         transform="matrix(1.3333333,0,0,-1.3333333,525.75387,40.901067)"
         clip-path="url(#clipPath55)" />
      <path
         id="path56"
         d="m 0,0 v 10.294 c 0,10.684 8.742,19.427 19.427,19.427 10.685,0 19.428,-8.743 19.428,-19.427 L 38.855,0 c 0,-10.685 -8.743,-19.427 -19.428,-19.427 C 8.742,-19.427 0,-10.685 0,0"
         style="fill:#2f2825;fill-opacity:1;fill-rule:evenodd;stroke:none"
         transform="matrix(1.3333333,0,0,-1.3333333,394.52213,52.3952)"
         clip-path="url(#clipPath57)" />
      <path
         id="path58"
         d="m 0,0 c 8.999,0 16.339,8.958 16.339,19.941 0,10.984 -7.34,19.943 -16.339,19.943 -9,0 -16.341,-8.959 -16.341,-19.943 C -16.341,8.958 -9,0 0,0"
         style="fill:#f28f62;fill-opacity:1;fill-rule:evenodd;stroke:none"
         transform="matrix(1.3333333,0,0,-1.3333333,502.76427,157.89587)"
         clip-path="url(#clipPath59)" />
      <path
         id="path60"
         d="m 0,0 h 12.444 c 2.501,0 4.548,-2.046 4.548,-4.546 0,-2.501 -2.047,-4.547 -4.548,-4.547 H 0 c -2.501,0 -4.545,2.046 -4.545,4.547 C -4.545,-2.046 -2.501,0 0,0"
         style="fill:#2f2825;fill-opacity:1;fill-rule:evenodd;stroke:none"
         transform="matrix(1.3333333,0,0,-1.3333333,427.81907,96.940133)"
         clip-path="url(#clipPath61)" />
      <path
         id="path62"
         d="m 0,0 v 0 c 2.531,0 4.602,-2.071 4.602,-4.602 v -6.653 c 0,-2.531 -2.071,-4.602 -4.602,-4.602 -2.532,0 -4.603,2.071 -4.603,4.602 v 6.653 C -4.603,-2.071 -2.532,0 0,0"
         style="fill:#2f2825;fill-opacity:1;fill-rule:evenodd;stroke:none"
         transform="matrix(1.3333333,0,0,-1.3333333,434.2864,104.332)"
         clip-path="url(#clipPath63)" />
      <path
         id="path64"
         d="M 0,0 V 0 C 1.25,0 2.272,-1.022 2.272,-2.272 V -2.53 C 2.272,-3.78 1.25,-4.802 0,-4.802 c -1.25,0 -2.272,1.022 -2.272,2.272 v 0.258 C -2.272,-1.022 -1.25,0 0,0"
         style="fill:#d7c9c4;fill-opacity:1;fill-rule:evenodd;stroke:none"
         transform="matrix(1.3333333,0,0,-1.3333333,435.39587,113.49933)"
         clip-path="url(#clipPath65)" />
    </g>
  </g>
</svg>
