<?xml version="1.0" encoding="utf-8"?>
<!-- Generator: Adobe Illustrator 27.8.1, SVG Export Plug-In . SVG Version: 6.00 Build 0)  -->
<svg version="1.1" xmlns="http://www.w3.org/2000/svg" xmlns:xlink="http://www.w3.org/1999/xlink" x="0px" y="0px"
	 viewBox="0 0 2000 2500" style="enable-background:new 0 0 2000 2500;" xml:space="preserve">
<g id="Layer_1">
</g>
<g id="Layer_3">
</g>
<g id="Layer_2">
	<g>
		<defs>
			<rect id="SVGID_00000145744712171335606030000016935202523047844017_" x="0" y="0" width="2000" height="2500"/>
		</defs>
		<clipPath id="SVGID_00000047059148107344844940000017686948295713088669_">
			<use xlink:href="#SVGID_00000145744712171335606030000016935202523047844017_"  style="overflow:visible;"/>
		</clipPath>
		<g style="clip-path:url(#SVGID_00000047059148107344844940000017686948295713088669_);">
			<rect x="-4.766" y="-40.894" style="fill:#9FB5FF;" width="2009.532" height="2581.787"/>
			
				<linearGradient id="SVGID_00000048461851558305448760000015202604873203864480_" gradientUnits="userSpaceOnUse" x1="1397.3521" y1="2444.8113" x2="1167.5648" y2="2049.5774">
				<stop  offset="0" style="stop-color:#9FB5FF;stop-opacity:0"/>
				<stop  offset="1" style="stop-color:#1C4AE5"/>
			</linearGradient>
			<polygon style="fill:url(#SVGID_00000048461851558305448760000015202604873203864480_);" points="476.923,2205.787 
				1067.362,2540.894 2015.106,2540.894 2015.106,2163.235 1408.014,1815.702 			"/>
			<g>
				
					<linearGradient id="SVGID_00000063627610422956098520000010979273621136701825_" gradientUnits="userSpaceOnUse" x1="1479.0181" y1="1610.4076" x2="367.8691" y2="1434.7479">
					<stop  offset="0" style="stop-color:#000928"/>
					<stop  offset="0.501" style="stop-color:#1C4AE5"/>
					<stop  offset="0.8034" style="stop-color:#9FB5FF"/>
					<stop  offset="1" style="stop-color:#FDF6E8"/>
				</linearGradient>
				<path style="fill:url(#SVGID_00000063627610422956098520000010979273621136701825_);" d="M855.892,939.465V2353.63
					c0,15.231-7.96,27.707-19.288,34.748c-12.094,7.539-28.032,8.878-42.154,0.727l-396.522-228.924
					c-58.264-33.657-94.179-95.844-94.179-163.14V582.877c0-12.589,5.454-23.262,13.722-30.567l-0.003-0.009l0.036-0.021
					c4.19-3.695,9.089-6.541,14.391-8.303c10.447-3.502,22.425-2.851,33.294,3.425l396.522,228.924
					C819.977,809.983,855.892,872.17,855.892,939.465z"/>
				
					<linearGradient id="SVGID_00000029031082112666159680000012325559534531280812_" gradientUnits="userSpaceOnUse" x1="1509.8988" y1="2164.053" x2="860.3668" y2="697.4998">
					<stop  offset="0" style="stop-color:#000928"/>
					<stop  offset="0.501" style="stop-color:#1C4AE5"/>
					<stop  offset="0.8034" style="stop-color:#9FB5FF"/>
					<stop  offset="1" style="stop-color:#FDF6E8"/>
				</linearGradient>
				<path style="fill:url(#SVGID_00000029031082112666159680000012325559534531280812_);" d="M1546.05,540.992v1414.165
					c0,17.489-10.486,31.323-24.493,37.504l-684.953,395.718c11.327-7.042,19.288-19.517,19.288-34.748V939.465
					c0-33.638-8.975-66.014-25.239-94.179l137.979-79.675c16.303,28.242,25.295,60.694,25.295,94.409v554.645
					c0,59.234,64.122,96.255,115.42,66.639l204.165-117.871c58.478-33.761,94.502-96.156,94.502-163.68V605.475
					c0-28.951-7.73-56.772-21.698-80.996l134.496-77.667C1537.076,474.978,1546.05,507.335,1546.05,540.992z"/>
				
					<linearGradient id="SVGID_00000085247900099335190790000000867180391866826636_" gradientUnits="userSpaceOnUse" x1="1123.881" y1="383.6205" x2="1221.9233" y2="1177.1501">
					<stop  offset="0.2396" style="stop-color:#E7FFCB"/>
					<stop  offset="0.705" style="stop-color:#01D46B"/>
					<stop  offset="1" style="stop-color:#2175D7"/>
				</linearGradient>
				<path style="fill:url(#SVGID_00000085247900099335190790000000867180391866826636_);" d="M1408.015,605.479v594.27
					c0,31.17-7.68,61.25-21.7,87.91c-16.34,31.12-41.32,57.59-72.8,75.77l-204.06,117.81l-0.11,0.06
					c-51.3,29.62-115.42-7.4-115.42-66.63v-554.65c0-33.71-8.99-66.17-25.29-94.41l417.68-241.13
					C1400.285,548.699,1408.015,576.529,1408.015,605.479z"/>
				
					<linearGradient id="SVGID_00000021082271360417711000000010681738069733781164_" gradientUnits="userSpaceOnUse" x1="986.8727" y1="1193.5771" x2="551.8088" y2="497.0666">
					<stop  offset="0" style="stop-color:#000928"/>
					<stop  offset="0.501" style="stop-color:#1C4AE5"/>
					<stop  offset="0.8034" style="stop-color:#9FB5FF"/>
					<stop  offset="1" style="stop-color:#FDF6E8"/>
				</linearGradient>
				<path style="fill:url(#SVGID_00000021082271360417711000000010681738069733781164_);" d="M968.631,765.61l-137.979,79.675
					c-16.264-28.166-39.799-52.122-68.941-68.96L365.19,547.402c-10.869-6.276-22.846-6.927-33.294-3.425l151.697-87.597
					l415.924,240.117C928.736,713.373,952.329,737.387,968.631,765.61z"/>
				
					<linearGradient id="SVGID_00000134954546080086855880000009720590414372544942_" gradientUnits="userSpaceOnUse" x1="483.5935" y1="491.4338" x2="1386.3159" y2="491.4338">
					<stop  offset="0.2396" style="stop-color:#E7FFCB"/>
					<stop  offset="0.705" style="stop-color:#01D46B"/>
					<stop  offset="1" style="stop-color:#2175D7"/>
				</linearGradient>
				<path style="fill:url(#SVGID_00000134954546080086855880000009720590414372544942_);" d="M1386.316,524.479L968.631,765.61
					c-16.302-28.223-39.895-52.237-69.114-69.114L483.594,456.38l414.049-239.122l429.357,247.905
					C1352.065,479.628,1372.309,500.255,1386.316,524.479z"/>
				
					<linearGradient id="SVGID_00000156576431367005427000000007083531672522859180_" gradientUnits="userSpaceOnUse" x1="1533.9805" y1="851.8354" x2="1098.9166" y2="155.3248">
					<stop  offset="0" style="stop-color:#000928"/>
					<stop  offset="0.501" style="stop-color:#1C4AE5"/>
					<stop  offset="0.8034" style="stop-color:#9FB5FF"/>
					<stop  offset="1" style="stop-color:#FDF6E8"/>
				</linearGradient>
				<path style="fill:url(#SVGID_00000156576431367005427000000007083531672522859180_);" d="M1520.812,446.812l-134.496,77.667
					c-14.007-24.224-34.251-44.851-59.317-59.317L897.643,217.257l110.214-63.641c12.437-10.849,31.189-14.083,47.511-4.669
					l396.502,228.924C1481.011,394.69,1504.566,418.647,1520.812,446.812z"/>
				<g>
					
						<linearGradient id="SVGID_00000054975752105821320510000007054600307140938932_" gradientUnits="userSpaceOnUse" x1="148.4621" y1="768.5897" x2="638.6749" y2="1540.6748">
						<stop  offset="0" style="stop-color:#FFFFFF"/>
						<stop  offset="0.3709" style="stop-color:#FEF7E7"/>
						<stop  offset="0.6782" style="stop-color:#D3CDF6"/>
						<stop  offset="1" style="stop-color:#6E86EC"/>
					</linearGradient>
					<path style="fill:url(#SVGID_00000054975752105821320510000007054600307140938932_);" d="M711.077,1033.518v911.638
						c0,9.835-5.127,17.872-12.437,22.406c-7.787,4.86-18.063,5.721-27.17,0.478l-255.617-147.583
						c-37.561-21.699-60.713-61.785-60.713-105.162V803.638c0-8.113,3.502-15.002,8.84-19.708l0.02-0.019
						c0.899-0.803,1.875-1.531,2.87-2.2l0.019-0.02l2.296-1.358c1.301-0.708,2.679-1.301,4.094-1.76
						c6.735-2.258,14.447-1.837,21.469,2.2l255.616,147.584C687.924,950.054,711.077,990.141,711.077,1033.518z"/>
					
						<linearGradient id="SVGID_00000062889882226838947750000002862224502763052439_" gradientUnits="userSpaceOnUse" x1="828.6011" y1="1592.0564" x2="369.0266" y2="983.3755">
						<stop  offset="0" style="stop-color:#000928"/>
						<stop  offset="0.501" style="stop-color:#1C4AE5"/>
						<stop  offset="0.8034" style="stop-color:#9FB5FF"/>
						<stop  offset="1" style="stop-color:#FDF6E8"/>
					</linearGradient>
					<path style="fill:url(#SVGID_00000062889882226838947750000002862224502763052439_);" d="M765.304,1001.277v911.639
						c0,9.816-5.128,17.871-12.437,22.406l-54.227,32.241c7.31-4.535,12.437-12.571,12.437-22.406v-911.638
						c0-43.377-23.153-83.464-60.713-105.162L394.748,780.772c-7.022-4.037-14.734-4.458-21.469-2.2
						c-1.415,0.459-2.794,1.052-4.094,1.76l51.739-30.749c0.88-0.593,1.799-1.148,2.736-1.627l0.038-0.019
						c1.225-0.632,2.488-1.167,3.808-1.607c6.735-2.258,14.446-1.856,21.468,2.201l255.617,147.583
						C742.151,917.813,765.304,957.899,765.304,1001.277z"/>
				</g>
				
					<linearGradient id="SVGID_00000152249684430102811710000014614535789460569771_" gradientUnits="userSpaceOnUse" x1="522.3791" y1="746.277" x2="532.5918" y2="1487.7239">
					<stop  offset="0.2396" style="stop-color:#E7FFCB"/>
					<stop  offset="0.705" style="stop-color:#01D46B"/>
					<stop  offset="1" style="stop-color:#2175D7"/>
				</linearGradient>
				<path style="fill:url(#SVGID_00000152249684430102811710000014614535789460569771_);" d="M418.704,894.536l217.763,125.725
					c11.591,6.692,18.731,19.059,18.731,32.443v434.319c0,8.604-9.314,13.982-16.766,9.68l-217.763-125.725
					c-11.591-6.692-18.731-19.059-18.731-32.443V904.215C401.939,895.611,411.253,890.233,418.704,894.536z"/>
				<g>
					
						<linearGradient id="SVGID_00000162352771777122555720000008579775518114521267_" gradientUnits="userSpaceOnUse" x1="437.5327" y1="1473.4321" x2="458.9796" y2="1562.2832">
						<stop  offset="0.2396" style="stop-color:#E7FFCB"/>
						<stop  offset="0.705" style="stop-color:#01D46B"/>
						<stop  offset="1" style="stop-color:#2175D7"/>
					</linearGradient>
					<path style="fill:url(#SVGID_00000162352771777122555720000008579775518114521267_);" d="M494.523,1630.068
						c-2.961,2.014-10.286,5.49-13.769,7.127l-13.712,5.891l-3.82-8.225c-23.315-5.857-44.602-29.931-50.196-58.733
						c-2.931-15.155-1.011-28.995,4.541-39.565l-3.542-7.62l17.037-8.523c5.322-3.068,12.774-4.372,19.609-4.372
						c27.251,0,54.525,26.892,60.943,60.08C516.216,1599.802,508.944,1620.274,494.523,1630.068z"/>
					
						<linearGradient id="SVGID_00000024720106422618352370000009968333956956033153_" gradientUnits="userSpaceOnUse" x1="410.4402" y1="1507.765" x2="464.5678" y2="1647.6799">
						<stop  offset="0.2396" style="stop-color:#E7FFCB"/>
						<stop  offset="0.705" style="stop-color:#01D46B"/>
						<stop  offset="1" style="stop-color:#2175D7"/>
					</linearGradient>
					<path style="fill:url(#SVGID_00000024720106422618352370000009968333956956033153_);" d="M452.326,1646.04
						c-27.219,0-54.496-26.908-60.942-60.095c-6.416-33.186,10.43-60.079,37.649-60.079c27.248,0,54.525,26.892,60.942,60.079
						C496.421,1619.132,479.545,1646.04,452.326,1646.04z"/>
				</g>
				<g>
					
						<linearGradient id="SVGID_00000005954981156364794060000004617665204305685645_" gradientUnits="userSpaceOnUse" x1="629.0077" y1="1706.5187" x2="570.7949" y2="1604.6464">
						<stop  offset="0" style="stop-color:#000928"/>
						<stop  offset="0.501" style="stop-color:#1C4AE5"/>
						<stop  offset="0.8034" style="stop-color:#9FB5FF"/>
						<stop  offset="1" style="stop-color:#FDF6E8"/>
					</linearGradient>
					<path style="fill:url(#SVGID_00000005954981156364794060000004617665204305685645_);" d="M633.275,1711.585
						c-2.961,2.014-10.286,5.49-13.769,7.127l-13.712,5.891l-3.82-8.225c-23.315-5.857-44.602-29.931-50.196-58.733
						c-2.93-15.155-1.011-28.995,4.541-39.565l-3.542-7.62l17.037-8.523c5.321-3.068,12.774-4.372,19.609-4.372
						c27.251,0,54.525,26.892,60.943,60.08C654.968,1681.319,647.697,1701.791,633.275,1711.585z"/>
					
						<linearGradient id="SVGID_00000105386226618887008650000016145237544402802111_" gradientUnits="userSpaceOnUse" x1="554.9921" y1="1618.568" x2="612.4388" y2="1733.4617">
						<stop  offset="0" style="stop-color:#FFFFFF"/>
						<stop  offset="0.3709" style="stop-color:#FEF7E7"/>
						<stop  offset="0.6782" style="stop-color:#D3CDF6"/>
						<stop  offset="1" style="stop-color:#6E86EC"/>
					</linearGradient>
					<path style="fill:url(#SVGID_00000105386226618887008650000016145237544402802111_);" d="M591.078,1727.557
						c-27.219,0-54.496-26.908-60.942-60.094c-6.416-33.186,10.43-60.079,37.649-60.079c27.248,0,54.525,26.892,60.942,60.079
						C635.173,1700.649,618.297,1727.557,591.078,1727.557z"/>
				</g>
				
					<linearGradient id="SVGID_00000083792761145573251730000014373486627169750401_" gradientUnits="userSpaceOnUse" x1="1405.9891" y1="1267.5953" x2="1458.0742" y2="1293.1272">
					<stop  offset="0" style="stop-color:#FFFFFF"/>
					<stop  offset="0.3709" style="stop-color:#FEF7E7"/>
					<stop  offset="0.6782" style="stop-color:#D3CDF6"/>
					<stop  offset="1" style="stop-color:#6E86EC"/>
				</linearGradient>
				<path style="fill:url(#SVGID_00000083792761145573251730000014373486627169750401_);" d="M1420.617,1220.484
					c0,0,1.097,74.258-10.628,97.219c-6.572,12.87-12.837,20.215-17.074,24.184c-2.644,2.477-2.599,6.671,0.094,9.094l0.749,0.674
					c2.081,1.873,5.161,2.113,7.507,0.585l70.28-45.774c0,0,19.053-85.494,0.489-96.73S1420.617,1220.484,1420.617,1220.484z"/>
				
					<linearGradient id="SVGID_00000094586229499671183720000013932281585958763439_" gradientUnits="userSpaceOnUse" x1="2043.6786" y1="1747.9684" x2="1467.6786" y2="1568.7344">
					<stop  offset="0" style="stop-color:#FFFFFF"/>
					<stop  offset="0.3709" style="stop-color:#FEF7E7"/>
					<stop  offset="0.6782" style="stop-color:#D3CDF6"/>
					<stop  offset="1" style="stop-color:#6E86EC"/>
				</linearGradient>
				<path style="fill:url(#SVGID_00000094586229499671183720000013932281585958763439_);" d="M1884.594,1597.918
					c0.364,25.506-12.361,48.754-34.078,62.168l-246.584,152.195c-13.509,8.342-28.51,12.533-43.531,12.533
					c-13.834,0-27.688-3.54-40.45-10.677c-26.635-14.848-42.536-41.943-42.536-72.424v-314.569h45.922v314.569
					c0,13.605,7.099,25.698,18.981,32.318c11.882,6.64,25.908,6.333,37.485-0.823l246.584-152.214
					c11.289-6.965,12.342-17.987,12.284-22.406c-0.057-4.42-1.454-15.403-12.934-22.043l-279.687-161.456v-53.04l302.648,174.735
					C1870.798,1549.546,1884.212,1572.392,1884.594,1597.918z"/>
				<g>
					
						<linearGradient id="SVGID_00000101097606151758299290000001583910978928068487_" gradientUnits="userSpaceOnUse" x1="1212.882" y1="1938.3201" x2="1108.7118" y2="1870.9158">
						<stop  offset="0" style="stop-color:#000928"/>
						<stop  offset="0.501" style="stop-color:#1C4AE5"/>
						<stop  offset="0.8034" style="stop-color:#9FB5FF"/>
						<stop  offset="1" style="stop-color:#FDF6E8"/>
					</linearGradient>
					<path style="fill:url(#SVGID_00000101097606151758299290000001583910978928068487_);" d="M1131.962,1680.406v389.825
						c0,10.849-2.85,21.316-8.036,30.443l-36.987-21.718c5.415-9.261,8.381-19.899,8.381-30.978v-389.825
						c0-2.583-0.307-5.071-0.88-7.424C1112.79,1646.29,1131.962,1660.028,1131.962,1680.406z"/>
					
						<linearGradient id="SVGID_00000073708231879938885620000013706829262969756546_" gradientUnits="userSpaceOnUse" x1="892.3832" y1="1900.9144" x2="1105.3195" y2="1893.2549">
						<stop  offset="0" style="stop-color:#FFFFFF"/>
						<stop  offset="0.3709" style="stop-color:#FEF7E7"/>
						<stop  offset="0.6782" style="stop-color:#D3CDF6"/>
						<stop  offset="1" style="stop-color:#6E86EC"/>
					</linearGradient>
					<path style="fill:url(#SVGID_00000073708231879938885620000013706829262969756546_);" d="M1095.32,1658.153v389.825
						c0,11.079-2.965,21.718-8.381,30.978c-5.3,9.127-12.954,16.915-22.426,22.368l-61.536,35.532
						c-2.659,1.531-5.414,2.622-8.17,3.292c-0.574-2.354-0.88-4.841-0.88-7.424v-385.615c0-24.607,13.127-47.358,34.442-59.661
						l57.881-33.428c2.66-1.531,5.415-2.622,8.19-3.291C1095.014,1653.082,1095.32,1655.57,1095.32,1658.153z"/>
					
						<linearGradient id="SVGID_00000128445254635517893420000006092206290015727236_" gradientUnits="userSpaceOnUse" x1="994.8066" y1="2121.0955" x2="1123.9263" y2="2121.0955">
						<stop  offset="0" style="stop-color:#000928"/>
						<stop  offset="0.501" style="stop-color:#1C4AE5"/>
						<stop  offset="0.8034" style="stop-color:#9FB5FF"/>
						<stop  offset="1" style="stop-color:#FDF6E8"/>
					</linearGradient>
					<path style="fill:url(#SVGID_00000128445254635517893420000006092206290015727236_);" d="M1123.926,2100.674
						c-5.339,9.356-13.127,17.336-22.771,22.904l-61.536,35.533c-18.082,10.428-40.144-0.019-44.814-18.962
						c2.756-0.67,5.511-1.76,8.17-3.292l61.536-35.532c9.472-5.453,17.126-13.241,22.426-22.368L1123.926,2100.674z"/>
				</g>
				<g>
					
						<linearGradient id="SVGID_00000093875823481747047780000017029894117972243888_" gradientUnits="userSpaceOnUse" x1="1476.1489" y1="1864.6622" x2="1299.4681" y2="1714.5345">
						<stop  offset="0" style="stop-color:#000928"/>
						<stop  offset="0.501" style="stop-color:#1C4AE5"/>
						<stop  offset="0.8034" style="stop-color:#9FB5FF"/>
						<stop  offset="1" style="stop-color:#FDF6E8"/>
					</linearGradient>
					<path style="fill:url(#SVGID_00000093875823481747047780000017029894117972243888_);" d="M1356.251,1551.432v389.825
						c0,10.849-2.851,21.316-8.036,30.443l-36.987-21.718c5.415-9.261,8.381-19.9,8.381-30.979v-389.825
						c0-2.583-0.306-5.071-0.88-7.424C1337.078,1517.316,1356.251,1531.054,1356.251,1551.432z"/>
					
						<linearGradient id="SVGID_00000125597173893545361410000008335255880485233546_" gradientUnits="userSpaceOnUse" x1="1101.4781" y1="1772.2781" x2="1322.0739" y2="1764.6184">
						<stop  offset="0" style="stop-color:#FFFFFF"/>
						<stop  offset="0.3709" style="stop-color:#FEF7E7"/>
						<stop  offset="0.6782" style="stop-color:#D3CDF6"/>
						<stop  offset="1" style="stop-color:#6E86EC"/>
					</linearGradient>
					<path style="fill:url(#SVGID_00000125597173893545361410000008335255880485233546_);" d="M1319.609,1529.179v389.825
						c0,11.079-2.965,21.718-8.381,30.979c-5.3,9.127-12.954,16.915-22.426,22.368l-61.536,35.532
						c-2.659,1.531-5.414,2.622-8.17,3.291c-0.574-2.354-0.88-4.841-0.88-7.424v-385.615c0-24.607,13.127-47.358,34.442-59.661
						l57.882-33.428c2.66-1.531,5.415-2.622,8.19-3.291C1319.303,1524.108,1319.609,1526.596,1319.609,1529.179z"/>
					
						<linearGradient id="SVGID_00000117668772104058745430000011891888064149633927_" gradientUnits="userSpaceOnUse" x1="1219.0956" y1="1992.1217" x2="1348.2153" y2="1992.1217">
						<stop  offset="0" style="stop-color:#000928"/>
						<stop  offset="0.501" style="stop-color:#1C4AE5"/>
						<stop  offset="0.8034" style="stop-color:#9FB5FF"/>
						<stop  offset="1" style="stop-color:#FDF6E8"/>
					</linearGradient>
					<path style="fill:url(#SVGID_00000117668772104058745430000011891888064149633927_);" d="M1348.215,1971.7
						c-5.339,9.357-13.127,17.336-22.771,22.904l-61.536,35.533c-18.082,10.428-40.144-0.019-44.813-18.962
						c2.756-0.67,5.511-1.76,8.17-3.291l61.536-35.532c9.472-5.453,17.126-13.241,22.426-22.368L1348.215,1971.7z"/>
				</g>
				<g>
					
						<linearGradient id="SVGID_00000022528112808719427140000014324750278170270598_" gradientUnits="userSpaceOnUse" x1="1161.8009" y1="663.6922" x2="646.0563" y2="335.8624">
						<stop  offset="0" style="stop-color:#000928"/>
						<stop  offset="0.501" style="stop-color:#1C4AE5"/>
						<stop  offset="0.8034" style="stop-color:#9FB5FF"/>
						<stop  offset="1" style="stop-color:#FDF6E8"/>
					</linearGradient>
					<path style="fill:url(#SVGID_00000022528112808719427140000014324750278170270598_);" d="M1010.701,472.07l-5.159,178.015
						c-0.157,5.42-3.327,9.683-7.583,11.804c-3.931,1.943-8.822,1.989-13.101-0.647l-340.964-210.25
						c-10.999-6.785-17.541-18.918-17.167-31.812l5.159-178.015c0.116-4.005,1.871-7.401,4.503-9.702
						c1.509-1.372,3.33-2.389,5.269-2.947c3.477-1.048,7.421-0.693,10.939,1.466l340.938,210.249
						C1004.533,447.016,1011.075,459.149,1010.701,472.07z"/>
					
						<linearGradient id="SVGID_00000068638980789775951430000013130987052806555831_" gradientUnits="userSpaceOnUse" x1="991.0265" y1="413.7937" x2="659.1116" y2="475.0703">
						<stop  offset="0" style="stop-color:#000928"/>
						<stop  offset="0.501" style="stop-color:#1C4AE5"/>
						<stop  offset="0.8034" style="stop-color:#9FB5FF"/>
						<stop  offset="1" style="stop-color:#FDF6E8"/>
					</linearGradient>
					<path style="fill:url(#SVGID_00000068638980789775951430000013130987052806555831_);" d="M660.716,423.712
						c-1.245-0.767-1.995-2.149-1.953-3.604l3.87-133.533c0.161-5.567,6.289-8.871,11.029-5.948l303.05,186.883
						c1.245,0.769,1.995,2.161,1.953,3.631l-3.869,133.494c-0.161,5.567-6.288,8.871-11.029,5.948L660.716,423.712z"/>
					
						<linearGradient id="SVGID_00000126325520185208993050000011712929788670062252_" gradientUnits="userSpaceOnUse" x1="644.7543" y1="390.8078" x2="1206.6512" y2="390.8078">
						<stop  offset="0" style="stop-color:#FFFFFF"/>
						<stop  offset="0.3709" style="stop-color:#FEF7E7"/>
						<stop  offset="0.6782" style="stop-color:#D3CDF6"/>
						<stop  offset="1" style="stop-color:#6E86EC"/>
					</linearGradient>
					<path style="fill:url(#SVGID_00000126325520185208993050000011712929788670062252_);" d="M1206.636,362.241l-5.159,178.015
						c-0.174,6.007-4.048,10.597-8.989,12.378L999.3,663.504l-1.341-1.615c4.256-2.121,7.426-6.384,7.583-11.804l5.159-178.015
						c0.187-6.461-1.341-12.731-4.308-18.214c-2.966-5.51-7.372-10.233-12.858-13.626L652.597,229.982
						c-2.257-1.401-4.697-2.033-7.075-2.022c-0.774-0.022-1.065-1.019-0.387-1.374l186.147-103.994
						c0.056-0.025,0.109-0.077,0.138-0.13c4.191-4.474,11.207-5.927,17.087-2.31l340.963,210.25
						c6.562,4.064,11.547,10.007,14.419,16.931C1205.839,351.958,1206.787,357.035,1206.636,362.241z"/>
					
						<linearGradient id="SVGID_00000079464845348676303370000003996004282066256817_" gradientUnits="userSpaceOnUse" x1="1137.1346" y1="604.6545" x2="1067.6879" y2="412.6546">
						<stop  offset="0" style="stop-color:#000928"/>
						<stop  offset="0.501" style="stop-color:#1C4AE5"/>
						<stop  offset="0.8034" style="stop-color:#9FB5FF"/>
						<stop  offset="1" style="stop-color:#FDF6E8"/>
					</linearGradient>
					<path style="fill:url(#SVGID_00000079464845348676303370000003996004282066256817_);" d="M1206.636,362.241l-5.159,178.015
						c-0.174,6.007-4.048,10.597-8.989,12.378L999.3,663.504l-1.341-1.615c4.256-2.121,7.426-6.384,7.583-11.804l5.159-178.015
						c0.187-6.461-1.341-12.731-4.308-18.214l197.496-106.524C1205.839,351.958,1206.787,357.035,1206.636,362.241z"/>
					<g>
						
							<linearGradient id="SVGID_00000091700515011282126130000009449133154804136631_" gradientUnits="userSpaceOnUse" x1="683.0436" y1="408.6638" x2="791.688" y2="408.6638">
							<stop  offset="0.2396" style="stop-color:#E7FFCB"/>
							<stop  offset="0.705" style="stop-color:#01D46B"/>
							<stop  offset="1" style="stop-color:#2175D7"/>
						</linearGradient>
						<path style="fill:url(#SVGID_00000091700515011282126130000009449133154804136631_);" d="M770.458,464.343
							c-3.261,2.082-11.283,5.608-15.096,7.267l-14.996,5.934l-3.869-9.004c-25.001-7.056-47.242-33.727-52.383-65.013
							c-2.691-16.462-0.184-31.352,6.143-42.595l-3.587-8.342l18.67-8.673c5.844-3.147,13.935-4.323,21.319-4.109
							c29.436,0.853,58.056,30.755,63.949,66.805C794.837,432.328,786.342,454.214,770.458,464.343z"/>
						
							<linearGradient id="SVGID_00000023253448766318029850000014865579011325991809_" gradientUnits="userSpaceOnUse" x1="740.1031" y1="363.1175" x2="655.3371" y2="529.5856">
							<stop  offset="0.2396" style="stop-color:#E7FFCB"/>
							<stop  offset="0.705" style="stop-color:#01D46B"/>
							<stop  offset="1" style="stop-color:#2175D7"/>
						</linearGradient>
						<path style="fill:url(#SVGID_00000023253448766318029850000014865579011325991809_);" d="M724.377,480.274
							c-29.401-0.852-58.023-30.772-63.947-66.821c-5.892-36.048,13.147-64.57,42.549-63.717
							c29.433,0.853,58.056,30.756,63.948,66.804C772.85,452.588,753.778,481.126,724.377,480.274z"/>
					</g>
					<g>
						
							<linearGradient id="SVGID_00000057146620020283336020000011094066652528657324_" gradientUnits="userSpaceOnUse" x1="828.332" y1="497.3524" x2="936.9764" y2="497.3524">
							<stop  offset="0.2396" style="stop-color:#E7FFCB"/>
							<stop  offset="0.705" style="stop-color:#01D46B"/>
							<stop  offset="1" style="stop-color:#2175D7"/>
						</linearGradient>
						<path style="fill:url(#SVGID_00000057146620020283336020000011094066652528657324_);" d="M915.746,553.031
							c-3.261,2.082-11.283,5.608-15.096,7.267l-14.996,5.934l-3.869-9.004c-25.001-7.056-47.242-33.727-52.383-65.013
							c-2.691-16.462-0.184-31.352,6.143-42.595l-3.587-8.342l18.67-8.673c5.844-3.147,13.935-4.323,21.319-4.109
							c29.436,0.853,58.056,30.755,63.949,66.805C940.126,521.016,931.63,542.903,915.746,553.031z"/>
						
							<linearGradient id="SVGID_00000114031783413789707660000000927331511166586784_" gradientUnits="userSpaceOnUse" x1="891.3385" y1="440.1269" x2="806.5725" y2="606.595">
							<stop  offset="0.2396" style="stop-color:#E7FFCB"/>
							<stop  offset="0.705" style="stop-color:#01D46B"/>
							<stop  offset="1" style="stop-color:#2175D7"/>
						</linearGradient>
						<path style="fill:url(#SVGID_00000114031783413789707660000000927331511166586784_);" d="M869.665,568.962
							c-29.401-0.852-58.023-30.772-63.947-66.821c-5.892-36.048,13.147-64.57,42.549-63.717
							c29.433,0.853,58.056,30.756,63.948,66.804C918.138,541.277,899.067,569.815,869.665,568.962z"/>
					</g>
				</g>
				
					<linearGradient id="SVGID_00000183219899981055630840000007605023326227917718_" gradientUnits="userSpaceOnUse" x1="520.5529" y1="1107.447" x2="520.5529" y2="1412.2981">
					<stop  offset="0.2396" style="stop-color:#E7FFCB"/>
					<stop  offset="0.705" style="stop-color:#01D46B"/>
					<stop  offset="1" style="stop-color:#2175D7"/>
				</linearGradient>
				<path style="fill:url(#SVGID_00000183219899981055630840000007605023326227917718_);" d="M549.562,1052.57l26.553,18.097
					c2.865,1.952,3.558,6.792,1.405,9.802l-60.936,85.156c-2.154,3.009-1.46,7.849,1.405,9.802l47.512,32.382
					c2.806,1.913,3.549,6.605,1.517,9.64c-16.172,24.147-76.374,113.932-75.843,111.553c0.529-2.37,22.272-77.813,28.246-98.532
					c0.859-2.979-0.187-6.335-2.428-7.814l-51.942-34.279c-2.813-1.856-3.606-6.518-1.633-9.592l80.039-124.714
					C544.927,1051.778,547.48,1051.151,549.562,1052.57z"/>
				
					<linearGradient id="SVGID_00000102536935321384848790000005948248738638373538_" gradientUnits="userSpaceOnUse" x1="1232.708" y1="1168.9088" x2="1255.6868" y2="1409.4194">
					<stop  offset="0" style="stop-color:#000928"/>
					<stop  offset="1" style="stop-color:#1C4AE5;stop-opacity:0"/>
				</linearGradient>
				<path style="fill:url(#SVGID_00000102536935321384848790000005948248738638373538_);" d="M1386.315,1174.288v113.37
					c-16.34,31.12-41.32,57.59-72.8,75.77l-204.06,117.81v-285.62l88.63-52.94L1386.315,1174.288z"/>
				<g>
					
						<linearGradient id="SVGID_00000026137212517504036660000007669836986802999171_" gradientUnits="userSpaceOnUse" x1="1117.6024" y1="1262.9282" x2="1210.5386" y2="1023.9495">
						<stop  offset="0" style="stop-color:#000928"/>
						<stop  offset="0.501" style="stop-color:#1C4AE5"/>
						<stop  offset="0.8034" style="stop-color:#9FB5FF"/>
						<stop  offset="1" style="stop-color:#FDF6E8"/>
					</linearGradient>
					<path style="fill:url(#SVGID_00000026137212517504036660000007669836986802999171_);" d="M1132.752,1215.54
						c6.867,3.342,23.395,8.43,31.249,10.816l30.749,8.226l5.539-18.533c47.413-19.518,84.954-76.865,87.921-139.373
						c1.534-32.886-6.766-61.51-21.728-82.115l5.137-17.17l-38.577-12.76c-12.174-4.842-28.304-5.307-42.731-3.209
						c-57.518,8.364-106.831,73.496-110.19,145.515C1077.675,1158.315,1099.307,1199.294,1132.752,1215.54z"/>
					
						<linearGradient id="SVGID_00000000192750170006241410000000672903702942897569_" gradientUnits="userSpaceOnUse" x1="1269.374" y1="1245.9268" x2="1201.9697" y2="987.5437">
						<stop  offset="0" style="stop-color:#000928"/>
						<stop  offset="0.501" style="stop-color:#1C4AE5"/>
						<stop  offset="0.8034" style="stop-color:#9FB5FF"/>
						<stop  offset="1" style="stop-color:#FDF6E8"/>
					</linearGradient>
					<path style="fill:url(#SVGID_00000000192750170006241410000000672903702942897569_);" d="M1226.718,1236.299
						c57.45-8.354,106.764-73.522,110.183-145.546c3.357-72.015-40.456-123.605-97.905-115.251
						c-57.512,8.364-106.831,73.497-110.188,145.512C1125.389,1193.039,1169.268,1244.654,1226.718,1236.299z"/>
				</g>
				
					<linearGradient id="SVGID_00000005948489913664580710000016322984717623528605_" gradientUnits="userSpaceOnUse" x1="1369.0225" y1="1092.3347" x2="1323.0649" y2="1223.0581">
					<stop  offset="0.2396" style="stop-color:#E7FFCB"/>
					<stop  offset="0.705" style="stop-color:#01D46B"/>
					<stop  offset="1" style="stop-color:#2175D7"/>
				</linearGradient>
				<path style="fill:url(#SVGID_00000005948489913664580710000016322984717623528605_);" d="M1410.329,1164.084
					c-2.297,48.544-35.532,92.457-74.241,98.083c-16.991,2.469-32.223-2.851-43.761-13.7
					c-14.752-13.853-23.498-36.757-22.215-63.985c2.257-48.525,35.494-92.419,74.241-98.064c12.762-1.856,24.511,0.67,34.461,6.64
					C1399.078,1105.188,1411.859,1131.536,1410.329,1164.084z"/>
				
					<linearGradient id="SVGID_00000160895278059482831090000016881634563651373475_" gradientUnits="userSpaceOnUse" x1="1324.8872" y1="1045.3868" x2="1223.7808" y2="1172.0251">
					<stop  offset="0.2396" style="stop-color:#E7FFCB"/>
					<stop  offset="0.705" style="stop-color:#01D46B"/>
					<stop  offset="1" style="stop-color:#2175D7"/>
				</linearGradient>
				<path style="fill:url(#SVGID_00000160895278059482831090000016881634563651373475_);" d="M1378.815,1093.057
					c-9.95-5.97-21.699-8.495-34.461-6.64c-38.747,5.645-71.984,49.539-74.241,98.064c-1.283,27.228,7.462,50.132,22.215,63.985
					l-92.477-60.809c-20.78-11.901-33.964-38.556-32.394-71.563c2.257-48.544,35.494-92.419,74.241-98.064
					c16.934-2.468,32.127,2.813,43.646,13.605L1378.815,1093.057z"/>
				
					<linearGradient id="SVGID_00000022525492661369193370000002907577573875327675_" gradientUnits="userSpaceOnUse" x1="1368.2886" y1="1333.2225" x2="1501.0546" y2="1227.0098">
					<stop  offset="0" style="stop-color:#000928"/>
					<stop  offset="0.501" style="stop-color:#1C4AE5"/>
					<stop  offset="0.8034" style="stop-color:#9FB5FF"/>
					<stop  offset="1" style="stop-color:#FDF6E8"/>
				</linearGradient>
				<path style="fill:url(#SVGID_00000022525492661369193370000002907577573875327675_);" d="M1317.075,1198.646
					c-14.011-7.597-20.476-24.143-15.461-39.271c5.869-17.704,16.602-38.777,35.467-46.206c21.242-8.365,50.597,9.771,50.597,9.771
					l102.788,57.334c16.85,9.399,28.15,26.33,30.364,45.497l21.927,189.789c1.989,17.218-6.71,33.912-21.963,42.144h0
					c-26.518,14.313-59.08-2.854-62.253-32.821l-13.085-123.583c-2.324-21.945-15.302-41.34-34.701-51.859L1317.075,1198.646z"/>
			</g>
		</g>
	</g>
</g>
</svg>
