<?xml version="1.0" encoding="UTF-8"?>
<svg id="Layer_1" xmlns="http://www.w3.org/2000/svg" version="1.1" viewBox="0 0 512 609.8">
  <!-- Generator: Adobe Illustrator 30.3.0, SVG Export Plug-In . SVG Version: 2.1.3 Build 182)  -->
  <defs>
    <style>
      .st0 {
        fill: #fff;
      }

      .st1 {
        fill: #7c5cff;
      }

      .st2 {
        fill: #ebebff;
      }

      .st3 {
        fill: #f6f6ff;
      }
    </style>
  </defs>
  <rect class="st3" width="512" height="609.8"/>
  <g>
    <path class="st2" d="M175.8,503.8c-6.9,0-13.6-3.2-18-8.5-4.3-5.3-6-12-4.5-18.9l19.1-93.8c.1-.6,0-1.1-.4-1.5s-.8-.7-1.4-.7l-95.7-2.2c-10.6-.2-19.4-7.4-21.7-17.8-2.4-10.4,2.4-20.6,11.9-25.4l85.3-43.5c.5-.3.8-.7,1-1.2.1-.6,0-1.1-.3-1.5l-58-76.2c-5.4-7.1-6.3-16-2.4-23.9,3.9-7.8,11.9-12.9,20.4-12.9s6.5.7,9.6,2.1l87.2,39.5c.3.1.5.2.8.2.7,0,1.5-.4,1.8-1.4l23.5-92.8c2.6-10.3,11.5-17.2,22.1-17.2s19.5,6.9,22.1,17.2l23.5,92.8c.2,1,1.1,1.4,1.8,1.4s.5,0,.8-.2l87.2-39.5c3.1-1.4,6.3-2.1,9.6-2.1,8.5,0,16.5,5.1,20.4,12.9,3.9,7.9,3,16.8-2.4,23.9l-58,76.2c-.3.5-.5,1-.3,1.5.1.6.4,1,1,1.2l85.3,43.5c9.5,4.8,14.3,15.1,11.9,25.4s-11.1,17.5-21.7,17.8l-95.7,2.2c-.6,0-1,.2-1.4.7-.4.4-.5,1-.4,1.5l19.1,93.8c1.4,6.9-.2,13.6-4.5,18.9-4.4,5.3-11.1,8.5-18,8.5s-12.9-2.9-17.4-8.2l-61.4-73.5c-.7-.9-2.1-.9-2.8,0l-61.4,73.5c-4.4,5.3-10.6,8.2-17.4,8.2h0ZM111.1,176.7c-8.1,0-15.8,4.8-19.5,12.3-3.7,7.5-2.9,16,2.3,22.8l58,76.2c.7.9.6,1.8.5,2.4-.1.6-.5,1.4-1.5,1.9l-85.3,43.5c-9.1,4.6-13.6,14.4-11.4,24.3,2.3,9.9,10.6,16.7,20.8,17l95.7,2.2c1.1,0,1.8.6,2.2,1.1.4.5.8,1.3.6,2.3l-19.1,93.8c-1.3,6.6.2,13,4.3,18.1,4.2,5.1,10.6,8.2,17.2,8.2h0c6.5,0,12.3-2.8,16.6-7.9l61.4-73.5c.7-.8,1.6-1,2.2-1s1.5.2,2.2,1l61.4,73.5c4.2,5.1,10.1,7.9,16.6,7.9s13-3.1,17.2-8.2c4.1-5.1,5.7-11.5,4.3-18.1l-19.1-93.8c-.2-1.1.2-1.9.6-2.3.4-.5,1.1-1,2.2-1.1l95.7-2.2c10.2-.2,18.5-7.1,20.8-17s-2.3-19.7-11.4-24.3l-85.3-43.5c-1-.5-1.3-1.3-1.5-1.9-.1-.6-.2-1.5.5-2.4l58-76.2c5.1-6.8,6-15.3,2.3-22.8-3.7-7.5-11.4-12.3-19.5-12.3s-6.2.7-9.1,2l-87.2,39.5c-.4.2-.8.3-1.2.3-1.1,0-2.4-.7-2.8-2.1l-23.5-92.8c-2.5-9.9-11-16.5-21.2-16.5s-18.7,6.6-21.2,16.5l-23.5,92.8c-.4,1.5-1.7,2.1-2.8,2.1s-.8,0-1.2-.3l-87.2-39.5c-3-1.3-6-2-9.1-2Z"/>
    <path class="st1" d="M268,125.8l23.5,92.8c1.9,7.5,10.1,11.4,17.1,8.2l87.2-39.5c11.7-5.3,22.7,8.5,14.9,18.7l-58,76.2c-4.7,6.1-2.6,15,4.2,18.5l85.3,43.5c11.4,5.8,7.5,23-5.3,23.3l-95.7,2.2c-7.7.2-13.3,7.3-11.8,14.8l19.1,93.8c2.6,12.6-13.3,20.2-21.6,10.4l-61.4-73.5c-4.9-5.9-14-5.9-18.9,0l-61.4,73.5c-8.2,9.8-24.1,2.2-21.6-10.4l19.1-93.8c1.5-7.5-4.1-14.6-11.8-14.8l-95.7-2.2c-12.8-.3-16.7-17.5-5.3-23.3l85.3-43.5c6.8-3.5,8.9-12.3,4.2-18.5l-58-76.2c-7.8-10.2,3.2-24,14.9-18.7l87.2,39.5c7,3.2,15.2-.8,17.1-8.2l23.5-92.8c3.1-12.4,20.8-12.4,23.9,0Z"/>
    <rect class="st0" x="184.1" y="266.5" width="56.3" height="26.3" rx="13.2" ry="13.2"/>
    <rect class="st0" x="271.6" y="266.5" width="56.3" height="26.3" rx="13.2" ry="13.2"/>
    <path class="st0" d="M297.3,351.4c-1.3,1.3-2.5,2.4-3.9,3.6-11.3,9.6-25.5,14.8-40.4,14.8s-29.1-5.2-40.4-14.8c-1.3-1.1-2.6-2.3-3.9-3.6-5.9-5.9-5.9-15.4,0-21.3,5.9-5.9,15.4-5.9,21.3,0,6.1,6.1,14.3,9.5,23,9.5s16.8-3.4,23-9.5c5.9-5.9,15.4-5.9,21.3,0,5.9,5.9,5.9,15.4,0,21.3Z"/>
    <circle cx="196.4" cy="279.4" r="10.5"/>
    <circle cx="285.9" cy="279.4" r="10.5"/>
    <path d="M293.4,355c-11.3,9.6-25.5,14.8-40.4,14.8s-29.1-5.2-40.4-14.8c8.7-4.4,23.6-7.2,40.4-7.2s31.7,2.9,40.4,7.2Z"/>
    <circle cx="330.6" cy="308.1" r="3.1"/>
    <circle cx="317.4" cy="328.8" r="3.1"/>
    <circle cx="333.7" cy="334.1" r="3.1"/>
  </g>
</svg>