<svg xmlns="http://www.w3.org/2000/svg" width="1em" height="1em" viewBox="0 0 32 32"><defs><linearGradient id="SVGoBgezdAQ" x1="49.009" x2="225.83" y1="213.75" y2="129.72" gradientUnits="userSpaceOnUse"><stop offset="0" stop-color="#E40035"/><stop offset=".24" stop-color="#F60A48"/><stop offset=".352" stop-color="#F20755"/><stop offset=".494" stop-color="#DC087D"/><stop offset=".745" stop-color="#9717E7"/><stop offset="1" stop-color="#6C00F5"/></linearGradient><linearGradient id="SVG1AvS50yx" x1="41.025" x2="156.74" y1="28.344" y2="160.34" gradientUnits="userSpaceOnUse"><stop offset="0" stop-color="#FF31D9"/><stop offset="1" stop-color="#FF5BE1" stop-opacity="0"/></linearGradient><clipPath id="SVGtiT3XdAl"><path fill="#fff" d="M0 0h223v236H0z"/></clipPath></defs><path fill="#a50027" d="M27.417 5.5H18.19l-2.083 4.2H4.5v16.8h25v-21Zm0 4.2h-8.135l1.091-2.1h7.044Z"/><g clip-path="url(#SVGtiT3XdAl)" transform="matrix(.08105 0 0 .08508 12.5 11)"><path fill="url(#SVGoBgezdAQ)" d="m222.08 39.192l-8.019 125.92L137.39-.008zm-53.105 162.82l-57.933 33.056l-57.934-33.056l11.783-28.556h92.301zm-57.933-139.34l30.357 73.803H80.684zm-103.1 102.44L.005 39.192L84.695 0z"/><path fill="url(#SVG1AvS50yx)" d="m222.08 39.192l-8.019 125.92L137.39-.008zm-53.105 162.82l-57.933 33.056l-57.934-33.056l11.783-28.556h92.301zm-57.933-139.34l30.357 73.803H80.684zm-103.1 102.44L.005 39.192L84.695 0z"/></g></svg>