<?xml version="1.0" encoding="UTF-8"?>
<svg id="Art" xmlns="http://www.w3.org/2000/svg" version="1.1" xmlns:xlink="http://www.w3.org/1999/xlink" viewBox="0 0 3000 2494.8979592">
  <!-- Generator: Adobe Illustrator 30.0.0, SVG Export Plug-In . SVG Version: 2.1.1 Build 123)  -->
  <defs>
    <clipPath id="clippath">
      <rect width="3000" height="2494.8979592" fill="none"/>
    </clipPath>
    <linearGradient id="linear-gradient" x1="2680.6505806" y1="344.4328888" x2="3164.780008" y2="1295.794293" gradientUnits="userSpaceOnUse">
      <stop offset="0" stop-color="#f9f2f6"/>
      <stop offset=".0161444" stop-color="#eee0f7"/>
      <stop offset=".0599241" stop-color="#d4b7f9"/>
      <stop offset=".1026604" stop-color="#c096fc"/>
      <stop offset=".1434951" stop-color="#b17efd"/>
      <stop offset=".1816294" stop-color="#a970fe"/>
      <stop offset=".2143613" stop-color="#a66cff"/>
      <stop offset=".287182" stop-color="#a270fb"/>
      <stop offset=".3687901" stop-color="#997ef0"/>
      <stop offset=".4546418" stop-color="#8994df"/>
      <stop offset=".5434678" stop-color="#74b3c6"/>
      <stop offset=".6336954" stop-color="#58dba7"/>
      <stop offset=".6697576" stop-color="#4cee99"/>
      <stop offset=".7059069" stop-color="#50e79e"/>
      <stop offset=".7583419" stop-color="#5ed3ad"/>
      <stop offset=".8207091" stop-color="#74b4c6"/>
      <stop offset=".8901499" stop-color="#9288e8"/>
      <stop offset=".9164296" stop-color="#9f76f7"/>
    </linearGradient>
    <linearGradient id="linear-gradient1" x1="2291.3785233" y1="1069.9999502" x2="2796.6409566" y2="1069.9999502" gradientTransform="translate(665.7111529 -955.626021) rotate(24.2731234)" gradientUnits="userSpaceOnUse">
      <stop offset="0" stop-color="#4cee99"/>
      <stop offset=".4000542" stop-color="#a4f0c8"/>
      <stop offset=".80004" stop-color="#f9f2f6"/>
    </linearGradient>
    <linearGradient id="linear-gradient2" x1="2437.7859558" y1="1069.9999502" x2="2671.6853302" y2="1069.9999502" gradientTransform="translate(665.7111529 -955.626021) rotate(24.2731234)" gradientUnits="userSpaceOnUse">
      <stop offset=".1228114" stop-color="#000"/>
      <stop offset=".1918207" stop-color="#100423"/>
      <stop offset=".3153386" stop-color="#2a0a5c"/>
      <stop offset=".4392141" stop-color="#41108d"/>
      <stop offset=".5605908" stop-color="#5415b6"/>
      <stop offset=".6789999" stop-color="#6319d5"/>
      <stop offset=".7935189" stop-color="#6d1beb"/>
      <stop offset=".9024734" stop-color="#731df9"/>
      <stop offset="1" stop-color="#761efe"/>
    </linearGradient>
    <linearGradient id="linear-gradient3" x1="1862.9095561" y1="1270.0493121" x2="2639.5604152" y2="1270.0493121" gradientUnits="userSpaceOnUse">
      <stop offset=".4252417" stop-color="#000"/>
      <stop offset=".4701067" stop-color="#070211"/>
      <stop offset=".5591914" stop-color="#1c073d"/>
      <stop offset=".6841017" stop-color="#3e0f85"/>
      <stop offset=".8386226" stop-color="#6b1be7"/>
      <stop offset=".8726477" stop-color="#761efe"/>
    </linearGradient>
    <linearGradient id="linear-gradient4" x1="1479.9035119" y1="1218.35204" x2="1935.0606681" y2="2112.7801137" gradientUnits="userSpaceOnUse">
      <stop offset=".2667087" stop-color="#a66cff"/>
      <stop offset=".47163" stop-color="#df73ff"/>
      <stop offset=".5765497" stop-color="#fe77ff"/>
      <stop offset=".6380764" stop-color="#f873fe"/>
      <stop offset=".7141136" stop-color="#e969fe"/>
      <stop offset=".7978069" stop-color="#d059fe"/>
      <stop offset=".8870001" stop-color="#ad42fe"/>
      <stop offset=".9796653" stop-color="#8025fe"/>
      <stop offset="1" stop-color="#761efe"/>
    </linearGradient>
    <linearGradient id="linear-gradient5" x1="206.0910378" y1="879.9471311" x2="579.0563366" y2="879.9471311" gradientUnits="userSpaceOnUse">
      <stop offset=".1228114" stop-color="#f9f2f6"/>
      <stop offset=".1958893" stop-color="#f2e6f6"/>
      <stop offset=".324574" stop-color="#dfc9f7"/>
      <stop offset=".4937107" stop-color="#c299f9"/>
      <stop offset=".6944068" stop-color="#9957fb"/>
      <stop offset=".8562999" stop-color="#761efe"/>
      <stop offset=".909891" stop-color="#751dfc"/>
      <stop offset=".9291982" stop-color="#711cf5"/>
      <stop offset=".9429587" stop-color="#6c1be9"/>
      <stop offset=".9540919" stop-color="#6419d8"/>
      <stop offset=".9636221" stop-color="#5a16c2"/>
      <stop offset=".9720656" stop-color="#4d13a7"/>
      <stop offset=".9797054" stop-color="#3e0f86"/>
      <stop offset=".9867231" stop-color="#2d0b61"/>
      <stop offset=".9932529" stop-color="#190636"/>
      <stop offset=".9990574" stop-color="#030008"/>
      <stop offset="1" stop-color="#000"/>
    </linearGradient>
    <linearGradient id="linear-gradient6" x1="572.4797009" y1="938.5369789" x2="679.4296206" y2="938.5369789" gradientUnits="userSpaceOnUse">
      <stop offset="0" stop-color="#a66cff"/>
      <stop offset=".0325415" stop-color="#997df1"/>
      <stop offset=".130472" stop-color="#78adcb"/>
      <stop offset=".2167996" stop-color="#60d0af"/>
      <stop offset=".2873618" stop-color="#51e69f"/>
      <stop offset=".3333519" stop-color="#4cee99"/>
      <stop offset=".4335027" stop-color="#62eea5"/>
      <stop offset=".6431117" stop-color="#9cefc4"/>
      <stop offset=".9429826" stop-color="#f9f2f6"/>
    </linearGradient>
    <linearGradient id="linear-gradient7" x1="626.6505201" y1="975.4437781" x2="987.9565217" y2="975.4437781" gradientUnits="userSpaceOnUse">
      <stop offset="0" stop-color="#761efe"/>
      <stop offset=".5581248" stop-color="#fe77ff"/>
      <stop offset=".641264" stop-color="#f876ff"/>
      <stop offset=".7439919" stop-color="#e974ff"/>
      <stop offset=".8570155" stop-color="#d071ff"/>
      <stop offset=".9767011" stop-color="#ad6cff"/>
      <stop offset="1" stop-color="#a66cff"/>
    </linearGradient>
    <linearGradient id="linear-gradient8" x1="1278.5205966" y1="1453.9970261" x2="2191.9189394" y2="1453.9970261" gradientTransform="translate(399.4649831 -373.8033322) rotate(13.8799651)" gradientUnits="userSpaceOnUse">
      <stop offset="0" stop-color="#a66cff"/>
      <stop offset=".0360261" stop-color="#997df1"/>
      <stop offset=".1444434" stop-color="#78adcb"/>
      <stop offset=".2400151" stop-color="#60d0af"/>
      <stop offset=".3181334" stop-color="#51e69f"/>
      <stop offset=".3690483" stop-color="#4cee99"/>
      <stop offset=".4612977" stop-color="#62dea5"/>
      <stop offset=".6543736" stop-color="#9cb8c7"/>
      <stop offset=".9302444" stop-color="#f87afc"/>
      <stop offset=".9448245" stop-color="#fe77ff"/>
    </linearGradient>
    <linearGradient id="linear-gradient9" x1="798.0670136" y1="850.2263868" x2="2263.1104919" y2="850.2263868" gradientUnits="userSpaceOnUse">
      <stop offset="0" stop-color="#1777f2"/>
      <stop offset=".107343" stop-color="#3758f6"/>
      <stop offset=".2427174" stop-color="#5938fa"/>
      <stop offset=".3544844" stop-color="#6e25fd"/>
      <stop offset=".4279984" stop-color="#761efe"/>
      <stop offset=".4767405" stop-color="#711cf4"/>
      <stop offset=".5586481" stop-color="#6519da"/>
      <stop offset=".6636406" stop-color="#5114af"/>
      <stop offset=".7876659" stop-color="#360d74"/>
      <stop offset=".9261042" stop-color="#13052a"/>
      <stop offset="1" stop-color="#000"/>
    </linearGradient>
    <linearGradient id="linear-gradient10" x1="164.6100723" y1="1677.694263" x2="1174.9883964" y2="1677.694263" gradientUnits="userSpaceOnUse">
      <stop offset="0" stop-color="#761efe"/>
      <stop offset=".1561766" stop-color="#741dfa"/>
      <stop offset=".286005" stop-color="#6f1cf0"/>
      <stop offset=".4064751" stop-color="#671adf"/>
      <stop offset=".5212175" stop-color="#5c17c6"/>
      <stop offset=".632039" stop-color="#4d13a7"/>
      <stop offset=".7398386" stop-color="#3b0f80"/>
      <stop offset=".8452251" stop-color="#260952"/>
      <stop offset=".9461144" stop-color="#0e031e"/>
      <stop offset="1" stop-color="#000"/>
    </linearGradient>
    <linearGradient id="linear-gradient11" x1="257.2857232" y1="1909.2535408" x2="1289.4144704" y2="1909.2535408" gradientUnits="userSpaceOnUse">
      <stop offset="0" stop-color="#000"/>
      <stop offset=".078671" stop-color="#100423"/>
      <stop offset=".2194822" stop-color="#2a0a5c"/>
      <stop offset=".3607009" stop-color="#41108d"/>
      <stop offset=".499071" stop-color="#5415b6"/>
      <stop offset=".6340581" stop-color="#6319d5"/>
      <stop offset=".7646104" stop-color="#6d1beb"/>
      <stop offset=".8888191" stop-color="#731df9"/>
      <stop offset="1" stop-color="#761efe"/>
    </linearGradient>
    <linearGradient id="linear-gradient12" x1="693.3848262" y1="1969.1967354" x2="1290.3915256" y2="2068.4897847" xlink:href="#linear-gradient11"/>
    <linearGradient id="linear-gradient13" x1="1305.2699658" y1="2067.5304138" x2="1781.0947857" y2="1925.4647782" gradientTransform="matrix(1,0,0,1,0,0)" xlink:href="#linear-gradient2"/>
    <clipPath id="clippath-1">
      <circle cx="1530.5887527" cy="850.2263868" r="732.5217391" fill="none"/>
    </clipPath>
    <linearGradient id="linear-gradient14" x1="2210.6604781" y1="-1802.7736455" x2="2363.3350428" y2="-1802.7736455" gradientTransform="translate(229.7087936 3904.6608362)" gradientUnits="userSpaceOnUse">
      <stop offset="0" stop-color="#000"/>
      <stop offset=".007109" stop-color="#040500"/>
      <stop offset=".0737512" stop-color="#2e3700"/>
      <stop offset=".1454813" stop-color="#546400"/>
      <stop offset=".2206593" stop-color="#758b00"/>
      <stop offset=".3001603" stop-color="#91ac00"/>
      <stop offset=".3852068" stop-color="#a8c600"/>
      <stop offset=".4779756" stop-color="#b9db00"/>
      <stop offset=".5822629" stop-color="#c5e900"/>
      <stop offset=".7075777" stop-color="#ccf200"/>
      <stop offset=".9107442" stop-color="#cff500"/>
    </linearGradient>
    <linearGradient id="linear-gradient15" x1="2363.3350428" y1="-1940.8574785" x2="2516.0096075" y2="-1940.8574785" gradientTransform="translate(215.118062 4195.4192339)" xlink:href="#linear-gradient14"/>
    <linearGradient id="linear-gradient16" y1="-2078.9413116" y2="-2078.9413116" gradientTransform="translate(505.8764597 4180.8285023)" xlink:href="#linear-gradient14"/>
    <linearGradient id="linear-gradient17" x1="2516.0096075" x2="2756.6104966" gradientTransform="translate(-119.603498 4253.9731278)" xlink:href="#linear-gradient14"/>
    <linearGradient id="linear-gradient18" x1="1798.1611111" y1="-2217.0251446" x2="2210.6604781" y2="-2217.0251446" gradientTransform="translate(926.5472585 4036.3253694)" xlink:href="#linear-gradient14"/>
    <linearGradient id="linear-gradient19" x1="2362.7652778" y1="-2217.0251446" x2="2597.3266446" y2="-2217.0251446" gradientTransform="translate(450.9120919 4511.960536)" xlink:href="#linear-gradient14"/>
    <linearGradient id="linear-gradient20" x1="2363.3350428" y1="-1664.1092481" x2="2516.0096075" y2="-1664.1092481" gradientTransform="translate(-61.6301684 3918.6710035)" xlink:href="#linear-gradient14"/>
    <linearGradient id="linear-gradient21" x1="1946.1764751" y1="-1940.8574785" x2="2202.3946593" y2="-1940.8574785" gradientTransform="translate(580.5048199 3830.032476)" xlink:href="#linear-gradient14"/>
  </defs>
  <g id="Background">
    <rect width="3000" height="2494.8979592"/>
  </g>
  <g id="Graphics">
    <g clip-path="url(#clippath)">
      <g>
        <polygon points="3072.826087 102.0524738 2387.2608696 734.4002999 2713.3587922 1421.7511277 3072.826087 1304.1394303 3072.826087 102.0524738" fill="url(#linear-gradient)"/>
        <ellipse cx="2554.735643" cy="1069.9999502" rx="145.9001258" ry="385.8629217" transform="translate(-214.0145331 1144.8101199) rotate(-24.2731234)" fill="url(#linear-gradient1)"/>
        <ellipse cx="2554.735643" cy="1069.9999502" rx="82.4261258" ry="217.9928602" transform="translate(-214.0145331 1144.8101199) rotate(-24.2731234)" fill="url(#linear-gradient2)"/>
        <circle cx="2208.8225995" cy="1270.0493121" r="345.9130434" fill="url(#linear-gradient3)"/>
        <path d="M2117.4873188,1143.4021114c91.0269475,48.0695199,171.1029495,119.9339051,212.308845,227.2583892,47.8118044,124.5301719,29.4835596,264.6958498-46.4886327,374.3405412-75.0737766,108.3480785-223.3986559,264.4947899-509.6118789,413.7470841l-860.8695652-532.173913,541.4586721-422.6576132c190.1065136-148.3953798,449.9444812-173.1318367,663.2025598-60.5144882Z" fill="url(#linear-gradient4)"/>
        <path d="M609.5780757,767.0954961s-46.3787047,142.5969607-18.2047917,314.081545c0,0-385.1226335-130.4388652-352.838547-340.9476846,6.3524595-41.4212974,46.6189461-69.1155734,87.4422793-59.6533812.768962.178233,1.5447228.3650808,2.3273315.560733,0,0,192.3155523,57.7848747,281.2737279,85.9587877Z" fill="url(#linear-gradient5)"/>
        <ellipse cx="600.4756798" cy="924.1362687" rx="157.3043478" ry="78.9539407" transform="translate(-356.8585767 1470.13078) rotate(-86.6827341)"/>
        <path d="M679.4296206,812.6611694s-76.5165771-37.5652174-101.5600553,81.3913043c0,0-40.6956522,179.1241113,101.5600553,175.9474764v-257.3387808Z" fill="url(#linear-gradient6)"/>
        <path d="M900.3043478,793.8785607l-220.8747273-15.6521739s-89.0383162,135.9873531-35.8209249,294.9501983l344.3478261,99.4845843-87.6521739-378.7826087Z" fill="url(#linear-gradient7)"/>
        <ellipse cx="1735.219768" cy="1453.9970261" rx="465.3175891" ry="278.3311876" transform="translate(-298.1296193 458.7155261) rotate(-13.8799651)" fill="url(#linear-gradient8)"/>
        <circle cx="1530.5887527" cy="850.2263868" r="732.5217391" fill="url(#linear-gradient9)"/>
        <path d="M1174.9883964,1707.4698633s-656.5890665,459.6726404-932.0712668.0068182c-33.0209299-55.0988889-133.5550956-210.9243342-38.3518142-253.8590345,39.9130505-17.9999558,104.0869379-17.9998968,201.1303367,54.0000442,0,0,250.4347826,134.6086957,569.7391304,50.0869565l199.5536138,149.7652156Z" fill="url(#linear-gradient10)"/>
        <path d="M1357.5014269,1855.1399156s-599.3777772,637.9842861-1021.1831154-36.6823079c-16.0787851-25.7175957-14.3743871-58.9005915,4.6590744-82.515193,26.8110701-33.2641929,76.8854948-65.4394517,161.7617445-24.8464627,0,0,297.3913043,214.0694172,651.1304348-20.7131915l203.6318617,164.7571551Z" fill="url(#linear-gradient11)"/>
        <path d="M1319.7826087,1826.922039s-194.0869565,194.0869565-316.173913,109.5652174c0,0-211.5443871-119.6510736-306.7590043-17.1455369-18.0132112,19.3925464-22.4204036,47.7911462-11.5174204,71.9090149,53.5773172,118.515334,274.6721919,492.2573812,814.667729,126.8017394,0,0-27.6086957-206.281162-180.2173913-291.1304348Z" fill="url(#linear-gradient12)"/>
        <path d="M771.2312012,2126.8732321c-32.0573023-38.5537139-85.3613366-109.0973381-95.553624-157.3415511.0004624-.0002458-.6137954-3.8046891-.6137954-3.8046891l-.1511231-.9521484c-.1549333-1.659238-.2683245-3.904874-.3871914-5.5685977,2.2269079-23.6777828,16.1782023-45.2760082,34.7770776-59.5960192,18.016306-13.9102966,40.0830233-21.3878169,62.2364527-25.1383446,55.9415007-8.7786411,113.8443185,1.6093945,165.4530592,24.0673087,40.2884318,16.9923478,78.9546083,39.5072618,122.5904369,46.5494388,8.0027841,1.0509023,16.1215283,1.9323287,24.2016704,1.8348938.0000156.0000017,3.4736484.0075701,3.4736484.0075701l1.7375488.0048828c4.562858-.2346212,11.0647211-.5606406,15.6125105-1.1822403,6.7615595-.6899459,14.0251371-2.081882,20.6609664-3.5738585,22.8833062-5.2626518,45.0672276-14.5590944,66.2020059-24.7368254-.000019.0000042,3.1979791-1.5346638,3.1979791-1.5346638l3.0665283-1.6618652c10.3502341-5.7179842,20.893464-11.8086201,30.9791234-17.9912184,20.4216402-12.3686219,40.4703142-25.5923057,59.2995245-40.2865075,11.2812466-8.7837604,22.1666256-18.4014322,31.7684035-29.0468076-23.8309658,30.4019013-55.7628078,53.3967664-87.3663536,75.1261225-9.8905004,6.6838487-20.3025722,13.2183869-30.5424414,19.4195875-1.6091437,1.0015698-4.7459977,2.7618626-6.4238034,3.6076237-3.2772447,1.7463627-9.6390041,5.0665656-12.9598298,6.6770116-8.3890918,4.1988802-17.9238226,8.4957771-26.674667,11.8672801-21.0558367,8.3621874-43.6640483,14.0359307-66.3673079,15.2532923-1.0485372.0257634-4.4640389.0798696-5.5899102.1043387-4.9730799.220449-9.9384119-.1626076-14.9116785-.3371682-3.51446-.2763617-7.5875629-.7696991-11.1362174-1.1154225-2.2614413-.335442-8.6385014-1.4236438-11.0373989-1.8177032-45.3190715-9.26857-85.6972309-33.064547-128.3536499-49.7002443-42.6034377-16.4618171-88.8669298-24.2642971-134.4669383-20.0640658-23.7901242,2.4748483-48.1459544,8.7112495-67.6067371,23.0070506-16.2752141,11.7260166-28.6726526,29.6803018-31.895001,49.6193206.000093.0000196-.0946946.7422071-.0946946.7422071-.0075684.1330566-.0159302-.1066895-.0057983.1274414l.020813.3913574c1.1588007,43.5571634,60.4784915,129.6032648,86.8604126,167.0432129h0Z"/>
        <path d="M336.3182983,1818.4577047c-39.8112899-70.1339553,25.5881304-127.591093,95.0298904-126.2903714,2.160897.0303886,5.5281926.2557946,7.7443061.3724324-.0001182-.0000297,3.8076516.4323433,3.8076516.4323433l7.6202087.8756104,7.5430298,1.3353271c4.173809.6442612,10.7652861,2.3644802,14.9350491,3.3398672,12.1383863,3.3750313,24.3318181,7.6090931,35.8815125,12.5690094,34.3110382,14.6289032,66.3162072,34.0817912,101.0295018,47.1955436,103.457981,39.0082937,218.2744313,46.8053475,326.2883651,23.5756231,77.5069927-16.5840685,151.08626-48.4080483,217.67163-91.4804436-95.2000653,72.3369454-214.4139372,115.2426704-334.5681269,117.7813359-80.4250502,1.4462015-161.5983568-13.0801222-235.178539-46.2963198-36.1535743-16.7772589-69.3611398-38.1735156-107.086789-50.8315566-.0000388.0000902-6.9291464-2.2325759-6.9291464-2.2325759-2.1179218-.5431372-8.4238436-2.2779263-10.5244807-2.8176687-2.4593527-.5344125-8.1756592-1.6673965-10.6542695-2.196079.0001002.0000758-7.1718968-1.0188451-7.1718968-1.0188451-43.7009644-6.5377153-97.8131018,13.4148313-111.9034456,58.538386-5.7911596,18.9714575-2.027357,39.4962512,6.4655489,57.1483816h0Z"/>
        <path d="M1803.2698034,2143.039387s29.9041097-147.0738698-148.5306729-253.5086524c0,0-91.7790163,62.6086957-124.1503777-34.4347826,0,0-26.1104919-90.7826087-110.632231-68.8695652,0,0-86.1922564,18.5720994-85.9318609,144.7450606.4371603,211.8232212,228.0612242,345.4283884,414.5953614,245.0576565,17.5376549-9.436703,35.7516056-20.3780606,54.6497811-32.9897169Z" fill="url(#linear-gradient13)"/>
        <g clip-path="url(#clippath-1)">
          <g>
            <path d="M1525.5887527,86.4002999v1483.6605896c0,20.0364691-.3581651,40.1105053,0,60.1447095.0156589.8758886,0,1.7533689,0,2.6294835,0,6.4345228,10,6.4451805,10,0V149.1744928c0-20.0364691.3581651-40.1105053,0-60.1447095-.0156589-.8758886,0-1.7533689,0-2.6294835,0-6.4345228-10-6.4451805-10,0h0Z" fill="#f9f2f6"/>
            <path d="M983.6391683,248.5760695c4.6158253,6.0728945,9.5248229,11.9306663,14.4774489,17.7290151,12.7813021,14.9638692,26.1949073,29.3901392,40.0327262,43.3801069,20.4164117,20.6408931,41.8117874,40.3186575,64.0777906,58.949042,27.3771185,22.906951,56.0708562,44.2812942,86.0379192,63.6845751,33.4799932,21.6778573,68.5828139,40.9044889,105.1319872,56.8991782,39.3661325,17.2274502,80.3239767,30.8097626,122.4196551,39.5516442,45.0491538,9.3552208,91.2424753,13.260167,137.2136341,11.0726241,50.8830632-2.4212764,101.3215325-12.1792393,149.6355214-28.2568878,56.4488055-18.7847055,109.9328028-45.8747842,159.6862016-78.3761216,60.9093506-39.788947,116.4747992-87.4688532,167.4520906-139.2656448,14.2346904-14.4635243,28.1093931-29.2751001,41.6879125-44.3555935,4.2961807-4.7713983-2.7538331-11.865849-7.0710678-7.0710678-50.9368995,56.5712324-106.3571599,109.5066887-167.7277432,154.6962562-49.7122497,36.6050792-103.407332,68.3450777-160.7306381,91.4902663-48.0398778,19.3968581-98.6108344,32.8953693-150.1531412,38.5589852-45.8995886,5.0435779-92.4908337,4.1078528-138.1399464-2.8725262-42.4870604-6.4968576-84.1400005-17.9842238-124.2044387-33.499525-37.5007529-14.5224918-73.5770784-32.6534735-108.0203245-53.3827712-30.9546405-18.6297179-60.6442737-39.379641-88.9099526-61.8763077-23.7667958-18.9160036-46.5863528-39.0257511-68.3726386-60.1919184-15.7278417-15.280169-30.9372645-31.1077389-45.4519159-47.5467229-6.9768442-7.9018247-13.7846841-15.9490214-20.3225787-24.217997-1.1125284-1.4070998.7112217.9396467-.1137947-.145801-3.843974-5.0573943-12.532256-.0806899-8.6347069,5.0471915h0Z" fill="#f9f2f6"/>
            <path d="M718.3340313,609.5880077c6.7400659,6.3890812,13.8413882,12.421613,20.9407132,18.4027064,19.5243869,16.4490543,39.7446375,32.0825809,60.3740975,47.1175705,31.081524,22.6525749,63.1988293,43.8855609,96.1328911,63.7457562,41.465591,25.004955,84.2539629,47.8262843,128.1457814,68.2766352,51.1126389,23.8147208,103.7223461,44.4690309,157.4956853,61.4564205,59.9518934,18.9392398,121.3591254,33.3134398,183.5564874,42.5487933,67.523432,10.0261932,135.8921162,14.1069308,204.1241489,11.7366513,75.3418644-2.6172645,150.4067126-13.0057023,223.6997346-30.6196776,81.878898-19.677356,161.450953-48.3969374,237.6290411-84.2158498,88.8301731-41.7679187,172.9300437-93.2232674,252.0039057-151.297314,20.8016897-15.2773403,41.2509589-31.0285033,61.4033643-47.1516919,5.0244213-4.0198522-2.0917801-11.0548104-7.0710678-7.0710678-78.8529976,63.0873452-162.859133,119.9097684-252.1248463,167.2474666-76.7384701,40.6944884-157.2893595,74.2408372-240.7151199,98.5503254-74.0154216,21.5674032-150.1474976,35.8342587-227.0195261,41.8556557-68.9705771,5.4024752-138.420188,4.258799-207.189046-3.2602274-63.0568681-6.8944907-125.5001382-19.241632-186.5773267-36.3321091-55.1868701-15.4422618-109.3094494-34.7463076-161.878503-57.5564851-45.9583325-19.9417271-90.784374-42.4896469-134.247344-67.4031326-35.109698-20.125292-69.3450932-41.7906152-102.5030691-64.9930866-23.1438757-16.1950511-45.7874246-33.1241985-67.6656816-50.9961502-10.2824394-8.3995384-20.040777-17.3685396-30.1716422-25.9272247-.4407125-.3723195-.8526325-.7878724-1.2716101-1.185032-4.66955-4.4263861-11.7532602,2.6326977-7.0710678,7.0710678h0Z" fill="#f9f2f6"/>
            <path d="M718.3340313,1039.5880077c6.7400659,6.3890812,13.8413882,12.421613,20.9407132,18.4027064,19.5243869,16.4490543,39.7446375,32.0825809,60.3740975,47.1175705,31.081524,22.6525749,63.1988293,43.8855609,96.1328911,63.7457562,41.465591,25.004955,84.2539629,47.8262843,128.1457814,68.2766352,51.1126389,23.8147208,103.7223461,44.4690309,157.4956853,61.4564205,59.9518934,18.9392398,121.3591254,33.3134398,183.5564874,42.5487933,67.523432,10.0261932,135.8921162,14.1069308,204.1241489,11.7366513,75.3418644-2.6172645,150.4067126-13.0057023,223.6997346-30.6196776,81.878898-19.677356,161.450953-48.3969374,237.6290411-84.2158498,88.8301731-41.7679187,172.9300437-93.2232674,252.0039057-151.297314,20.8016897-15.2773403,41.2509589-31.0285033,61.4033643-47.1516919,5.0244213-4.0198522-2.0917801-11.0548104-7.0710678-7.0710678-78.8529976,63.0873452-162.859133,119.9097684-252.1248463,167.2474666-76.7384701,40.6944884-157.2893595,74.2408372-240.7151199,98.5503254-74.0154216,21.5674032-150.1474976,35.8342587-227.0195261,41.8556557-68.9705771,5.4024752-138.420188,4.258799-207.189046-3.2602274-63.0568681-6.8944907-125.5001382-19.241632-186.5773267-36.3321091-55.1868701-15.4422618-109.3094494-34.7463076-161.878503-57.5564851-45.9583325-19.9417271-90.784374-42.4896469-134.247344-67.4031326-35.109698-20.125292-69.3450932-41.7906152-102.5030691-64.9930866-23.1438757-16.1950511-45.7874246-33.1241985-67.6656816-50.9961502-10.2824394-8.3995384-20.040777-17.3685396-30.1716422-25.9272247-.4407125-.3723195-.8526325-.7878724-1.2716101-1.185032-4.66955-4.4263861-11.7532602,2.6326977-7.0710678,7.0710678h0Z" fill="#f9f2f6"/>
            <path d="M1301.606839,122.0220011c20.7223156,8.7579076,40.6736811,19.7849416,59.9835547,31.2580207,41.771346,24.8186998,81.3299881,54.2993406,114.3560252,90.101304,20.460669,22.1804427,38.1349624,46.9448216,50.8231842,74.3925781,1.5607352,3.3762557,7.0059654,3.1531568,8.6347069,0,9.1963819-17.8037064,20.99344-34.5379458,33.0374059-50.4840871,28.2471642-37.3990825,62.0041223-71.1720312,100.2736873-98.2957522,27.042173-19.1662579,56.4006372-35.0239422,87.5268384-46.4680218,5.990047-2.2023431,3.4010823-11.8706611-2.6583961-9.6427903-53.5249481,19.6793615-101.6093467,51.6479415-142.5061547,91.2062555-27.8485348,26.9370921-52.7242218,57.307243-73.4103646,90.0855239-3.8198886,6.0528143-7.6101108,12.1870378-10.8977231,18.5516805h8.6347069c-22.6099015-48.9107996-60.6755218-89.3562827-102.5038124-122.5618657-32.3832537-25.7075966-67.6079833-47.9337221-104.5347806-66.5194558-7.1415437-3.5944311-14.3436546-7.1441327-21.7116864-10.2580966-5.8584121-2.4759507-10.9613313,6.1352038-5.0471915,8.6347069h0Z" fill="#f9f2f6"/>
            <path d="M1531.0869565,310.2503081c-7.7153802.0928782-15.4425593.6510842-23.1312381,1.2483102-20.9034,1.623693-41.7355417,4.2576114-62.4306179,7.6018961-29.8886232,4.8299444-59.5216268,11.2716775-88.7201467,19.277558-36.2322193,9.9344357-71.7659617,22.3377227-106.2542668,37.2432656-38.4575737,16.621026-75.5376958,36.4993693-110.3524744,59.8262605-38.170291,25.5751798-73.6461987,55.2508585-105.0936771,88.7695417-34.8177156,37.1108921-64.6817054,78.8338798-88.6955013,123.6929332-27.4144886,51.211729-47.2819256,106.2997623-60.4026594,162.8387419-15.8465357,68.2848211-22.1293642,138.6169566-21.7010335,208.6364952.5331059,87.1472235,11.3062225,174.0913924,28.1917067,259.5072103,4.6967239,23.7585439,9.8952646,47.4150172,15.5076438,70.9736561,1.4907434,6.2575753,11.1356876,3.6082202,9.6427903-2.6583961-21.1732663-88.8773409-36.4530359-179.3826987-41.5485144-270.6839362-4.0622077-72.7869996-1.7231502-146.246724,10.5373932-218.1969356,10.0476789-58.9641588,26.6995998-117.0164659,51.6079564-171.4701062,21.3977978-46.7789988,48.723909-90.8905602,81.6790616-130.4163067,29.6302663-35.5379448,63.588068-67.477859,100.7507088-95.035537,34.215964-25.3725919,71.0203669-47.1785122,109.4358772-65.5540582,34.2292194-16.3730897,69.7078053-29.957855,106.0740454-41.081136,30.5484995-9.3438185,61.6397344-16.9216206,93.0502678-22.7400138,23.7166203-4.3931958,44.0165815-7.3209802,67.4888376-9.5576041,10.9711914-1.0454227,21.9373126-1.6654595,32.9398035-2.1913729.4736253-.022639.9498364-.0247576,1.4240373-.030466,6.4302535-.0774078,6.4475958-10.0776165,0-10h0Z" fill="#f9f2f6"/>
            <path d="M1528.2848116,320.2503081c7.5609501.0910191,15.1332175.6330738,22.6685279,1.212539,8.8356564.6794618,17.6565389,1.5499616,26.4589032,2.5726738,2.6250582.3049952,5.2484995.623881,7.870249.9561135,1.3433594.1702328,2.686133.3448941,4.0287077.5211936,1.7068337.224132.8789609.1121019,3.3614476.4549208,6.0471124.8350757,12.0846405,1.7394787,18.1114361,2.7103416,29.671521,4.7798168,59.0916765,11.1489584,88.0859668,19.0587826,35.3099442,9.6327743,70.2692709,21.6183434,103.7510051,36.0220796,38.2342001,16.448232,75.1163675,36.1081879,109.7785506,59.1704298,37.7185699,25.0957875,72.6698782,54.2924346,103.7627222,87.2597849,34.3141481,36.3828584,63.640616,77.2597666,87.3656401,121.2786227,27.2751009,50.6055857,46.9097893,105.0362125,59.9691001,160.9704904,15.7709187,67.5483537,21.9581574,137.0513106,21.5731021,206.3353879-.4806152,86.4784267-11.082167,172.6992687-27.8382402,257.4604566-4.6967231,23.7585395-9.8952655,47.4150209-15.5076438,70.9736561-1.4904212,6.2562228,8.1496604,8.9259893,9.6427903,2.6583961,21.3756864-89.7270237,36.7615665-181.1688093,41.905724-273.3423323,4.094789-73.3708344,1.5428856-147.2962187-10.7201492-219.8275365-10.0858978-59.6543574-27.0313531-118.1605079-52.0645178-173.2937921-21.6656193-47.7165697-49.5256043-92.4984008-82.9807694-132.8449533-29.987265-36.1643041-64.4373441-68.421579-102.06251-96.5221947-34.3505179-25.6549221-71.3409935-47.6982448-109.9727963-66.2615849-35.034167-16.8346055-71.4008076-30.8983955-108.5491538-42.3166582-30.7527333-9.4524473-62.0588899-17.1126266-93.689599-22.9890187-23.2269999-4.3151407-46.6483632-7.7003835-70.1669625-9.9560104-11.0281721-1.0576923-22.260091-2.2577529-33.3574934-2.2313218-.4744134.0011299-.9495162-.0247537-1.4240373-.030466-6.4369274-.0774881-6.4408975,9.9224641,0,10h0Z" fill="#f9f2f6"/>
            <path d="M1158.1869186,1539.528878c-.7598156-1.6273873-1.4765621-3.275646-2.191674-4.9229673-.3978066-.9163814-.7899204-1.8351766-1.182212-2.7539254-.6316406-1.4793053-.0090623-.0155598-.2188463-.5160091-.2620893-.6252261-.5249478-1.250144-.7841919-1.8765581-1.1461915-2.7695537-2.2765095-5.5454184-3.3839225-8.3307296-7.1613232-18.0118108-13.5702049-36.3241139-19.4542552-54.7904311-8.9183171-27.9889641-16.5870805-56.3763632-23.1095027-85.0172431-8.2645052-36.2906131-14.7067004-73.0122888-19.1751499-109.9639869-5.2429015-43.356003-7.8643967-87.0353385-7.6878092-130.7089236.1974247-48.8270467,3.8637661-97.6734262,11.3430938-145.9307758,8.2266313-53.079025,20.9489905-105.4566157,38.1268132-156.3513745,18.9383945-56.1110119,43.3358555-110.3020352,72.5414421-161.8146546,32.7340089-57.7360272,71.4110617-112.0034545,114.711577-162.2806189,49.5063862-57.4829352,104.8711698-109.7877999,164.0585688-157.1924586,16.0633692-12.8655515,32.4262824-25.3477762,49.0275577-37.5105599l-3.8527938.5040417c1.3058512.4656702,2.5946471.9822115,3.8811587,1.4981203.7050744.2827445,1.4067392.5736734,2.1100159.8608093.3941047.1609063.785828.3276723,1.1787658.4913906.3784377.1576767-1.0963927-.4729044.33487.1435943,2.130529.917699,4.2550859,1.8478912,6.3682191,2.8051211,13.7606243,6.2334362,27.1547291,13.2790179,40.2481328,20.8065918,20.2007475,11.6136814,39.6919118,24.4557193,58.4787784,38.2347094,24.5918472,18.0365798,47.9325045,37.773538,70.0175372,58.799165,27.1335783,25.8319969,52.3529285,53.6596362,75.5793513,83.0499777,27.2598283,34.4941479,51.6853473,71.2341047,73.4073854,109.4476737,25.5083134,44.8744123,47.2576729,91.8472994,65.4579392,140.1400389,21.2670958,56.4302903,37.7995691,114.5967219,50.2873944,173.5791375,14.6654824,69.2679119,23.7376082,139.6409297,28.3789902,210.2726738,5.4592913,83.0785446,4.8389237,166.5036482-.3450897,249.5789538-1.3854064,22.2015362-3.110981,44.3802171-5.121671,66.533683-.5815029,6.4069072,9.4220763,6.3674722,10,0,7.5290607-82.9540047,10.8869747-166.3298237,8.5616773-249.6117711-1.9853095-71.1050738-8.1171648-142.1303158-19.385887-212.3800736-9.6842086-60.3718233-23.2385018-120.1634886-41.4168533-178.5570569-15.6692403-50.333654-34.7898057-99.634201-57.6754525-147.1342886-19.7640353-41.0210565-42.3826737-80.6831126-67.969185-118.3562942-21.9797917-32.3627037-46.1276998-63.2913536-72.389146-92.2929816-22.1988493-24.51513-45.9274914-47.6561807-71.1121965-69.0963235-20.5319533-17.4791807-42.0213545-33.8722518-64.426096-48.8807192-16.4392901-11.0123363-33.3834925-21.2946047-50.8584272-30.5820134-10.4094463-5.5323115-21.0086629-10.7296815-31.8603481-15.3404466-2.6143121-1.1107933-5.3478893-2.5289285-8.098242-3.2916834-.3262315-.0904737-.6376797-.296494-.9709537-.3599674-3.64956-.695073-6.3091997,2.2973584-9.02512,4.3024464-4.8372527,3.5712082-9.6529639,7.1715487-14.446174,10.8016562-8.3920782,6.3556876-16.7193783,12.7980228-24.9747607,19.3303052-63.4762104,50.2271744-122.6844134,106.0222858-175.1342799,167.7293023-45.3637481,53.370232-85.6979455,111.0689609-119.2617828,172.5758871-29.8691671,54.7363116-54.3929337,112.4254901-72.8950382,171.9775128-16.7612417,53.9487737-28.4863461,109.3754361-35.424833,165.4312818-6.2639266,50.6060918-8.5175295,101.6917873-7.0127254,152.657284,1.326885,44.9396415,5.5900739,89.7775438,12.5063717,134.1983485,5.7220408,36.7505369,13.3079125,73.2163204,22.7650906,109.1878365,6.9232661,26.3334764,14.8359046,52.4193767,23.9255466,78.0880218,5.0870833,14.3656413,10.5222444,28.6229176,16.5777932,42.6107201.7614612,1.7589106,1.5249026,3.5188572,2.3358424,5.2557432,2.7202186,5.8262151,11.3433562.7542444,8.6347069-5.0471915h0Z" fill="#f9f2f6"/>
          </g>
        </g>
        <path d="M1379.5540263,1808.8400356l-361.1132189-264.7076931s-23.5527581-27.9638531-59.8880871,17.8477043l389.3607056,291.783698s9.588001-22.6058782,31.6406004-44.9237092Z"/>
        <g>
          <rect x="2440.3692717" y="2032.8452742" width="152.6745647" height="138.083833" transform="translate(4618.5937448 -414.8193634) rotate(90)" fill="url(#linear-gradient14)"/>
          <rect x="2578.4531047" y="2185.5198389" width="152.6745647" height="138.083833" transform="translate(4909.3521425 -400.2286317) rotate(90)" fill="url(#linear-gradient15)"/>
          <rect x="2716.5369378" y="2032.8452742" width="152.6745647" height="138.083833" transform="translate(4894.7614108 -690.9870294) rotate(90)" fill="url(#linear-gradient16)"/>
          <rect x="2396.4061095" y="2382.1575658" width="240.6008891" height="138.083833" transform="translate(4967.9060364 -65.5070718) rotate(90)" fill="url(#linear-gradient17)"/>
          <rect x="2724.7083696" y="1750.2583084" width="412.499367" height="138.083833" transform="translate(4750.258278 -1111.6578283) rotate(90)" fill="url(#linear-gradient18)"/>
          <rect x="2813.6773697" y="2225.8934749" width="234.5613668" height="138.083833" transform="translate(5225.8934446 -636.0226617) rotate(90)" fill="url(#linear-gradient19)"/>
          <rect x="2301.7048743" y="2185.5198389" width="152.6745647" height="138.083833" transform="translate(4632.6039121 -123.4804013) rotate(90)" fill="url(#linear-gradient20)"/>
          <rect x="2526.681295" y="1820.133081" width="256.2181842" height="138.083833" transform="translate(4543.9653846 -765.6153896) rotate(90)" fill="url(#linear-gradient21)"/>
        </g>
      </g>
    </g>
  </g>
</svg>