<?xml version="1.0" encoding="UTF-8"?>
<svg xmlns="http://www.w3.org/2000/svg" xmlns:xlink="http://www.w3.org/1999/xlink" version="1.1" viewBox="0 0 1920 1080">
  <!-- Generator: Adobe Illustrator 29.6.1, SVG Export Plug-In . SVG Version: 2.1.1 Build 9)  -->
  <defs>
    <clipPath id="clippath">
      <path d="M1117.228,394.231c-12.179-59.723-7.138-122.855,14.362-179.889,2.325-6.167,6.251-17.6,12.82-17.058,6.152.507,9.243,11.793,11.434,17.564,8.939,23.547,18.08,44.901,26.924,85.078,8.021-61.926,37.985-120.784,83.339-163.705,4.579-4.333,10.463-10.904,16.296-8.514,7.114,2.915,11.247,12.243,13.769,28.113,7.757,48.814,4.318,96.78-11.42,143.634,53.427-60.216,120.015-102.686,195.076-131.776,28.665-11.109,68.321-21.704,72.178,1.772,2.232,13.584-20.31,54.629-28.373,65.787-47.431,65.641-113.561,115.028-179.464,162.095-51.46,36.752-105.052,73.492-166.548,88.228" fill="none"/>
    </clipPath>
    <clipPath id="clippath-1">
      <path d="M637.805,554.152c-36.66,7.599-76.014,1.382-108.547-17.146-80.757-45.993-106.379-153.587-180.966-209.028,29.9-22.055,70.359-25.749,106.629-17.687,36.27,8.062,69.775,25.803,100.903,46.089,50.272,32.761,72.696,47.504,85.37,74.947" fill="none"/>
    </clipPath>
    <clipPath id="clippath-2">
      <path d="M640.527,645.786c-99.409-4.052-197.488-36.715-279.478-93.072-17.657-12.137-34.802-25.565-47.632-42.726-9.42-12.6-16.511-28.873-11.719-43.856,4.636-14.496,19.059-23.586,33.388-28.716,29.381-10.519,62.048-9.423,92.171-1.269,30.123,8.154,58.013,23.03,84.402,39.69,58.188,36.735,110.482,82.782,154.285,135.854" fill="none"/>
    </clipPath>
    <clipPath id="clippath-3">
      <rect x="650.952" y="368.447" width="350.77" height="333.457" fill="none"/>
    </clipPath>
    <clipPath id="clippath-4">
      <path d="M1108.708,504.937c-4.307-5.218-10.175-8.35-16.269-9.968l2.369-1.396-12.402.013c-.649-.013-1.292-.014-1.927.002h-.06s0,.002,0,.002c-4.966.129-8.214,1.379-11.384,2.839-15.105,6.958-19.103,21.724-16.965,35.677,2.139,13.952,11.648,25.224,25.605,27.329,2.228.336,4.49.446,6.743.345l13.225.038-5.238-1.303c8.815-2.426,16.607-8.159,20.423-16.487,5.458-11.914,3.816-27.474-4.121-37.09Z" fill="none"/>
    </clipPath>
    <clipPath id="clippath-5">
      <path d="M346.517,772.892c-36.168,29.622-79.86,63.604-113.132,102.188-15.794,18.315-30.799,38.124-37.897,61.243-2.755,8.974-4.034,19.473,1.41,27.121,6.191,8.698,18.552,10.205,29.144,8.864,17.154-2.171,33.206-9.621,48.162-18.296,63.503-36.835,101.963-81.198,153.377-127.505" fill="none"/>
    </clipPath>
    <clipPath id="clippath-6">
      <circle cx="515.774" cy="688.096" r="142.31" fill="none"/>
    </clipPath>
    <clipPath id="clippath-7">
      <path d="M532.045,560.434c-45.403,9.411-94.142,1.712-134.434-21.235-100.016-56.962-131.749-190.215-224.124-258.879,37.031-27.315,87.139-31.889,132.058-21.905,44.919,9.985,86.416,31.957,124.967,57.081,62.261,40.575,90.033,58.833,105.73,92.821" fill="none"/>
    </clipPath>
    <clipPath id="clippath-8">
      <path d="M535.416,673.922c-123.116-5.019-244.587-45.471-346.13-115.268-21.869-15.032-43.102-31.662-58.991-52.916-11.666-15.604-20.449-35.758-14.514-54.316,5.742-17.954,23.605-29.212,41.351-35.565,36.388-13.027,76.846-11.671,114.153-1.572,37.307,10.099,71.849,28.523,104.531,49.155,72.065,45.495,136.831,102.525,191.08,168.254" fill="none"/>
    </clipPath>
    <clipPath id="clippath-9">
      <rect x="548.328" y="330.441" width="434.425" height="412.982" fill="none"/>
    </clipPath>
    <clipPath id="clippath-10">
      <path d="M1115.253,499.482c-5.334-6.463-12.602-10.342-20.149-12.345l2.934-1.729-15.359.016c-.803-.016-1.6-.017-2.386.002h-.074s0,.003,0,.003c-6.15.16-10.173,1.707-14.099,3.516-18.707,8.617-23.659,26.905-21.01,44.185,2.649,17.28,14.426,31.239,31.712,33.846,2.759.416,5.561.552,8.351.427l16.379.047-6.487-1.614c10.917-3.004,20.568-10.104,25.294-20.419,6.76-14.755,4.726-34.026-5.104-45.936Z" fill="none"/>
    </clipPath>
  </defs>
  <g id="Capa_2">
    <rect width="1920" height="1080"/>
  </g>
  <g id="Capa_6">
    <path d="M241.831,263.159c-10.398,10.088-20.286,20.698-29.615,31.782s-18.072,22.58-26.251,34.498c-8.16,11.89-15.737,24.178-22.702,36.805s-13.378,25.715-19.108,39.023-10.806,26.832-15.209,40.606c-4.389,13.732-8.104,27.681-11.111,41.781-3.129,14.67-5.554,29.523-7.035,44.452-1.615,16.279-1.987,32.767.103,49.021,1.932,15.021,5.884,29.955,12.975,43.402,6.256,11.864,15.089,22.678,26.62,29.739,10.558,6.465,23.06,9.028,35.304,7.095,5.878-.928,11.642-2.954,16.688-6.13,4.659-2.932,9.296-7.057,11.817-12.033,2.247-4.436,2.957-9.694,2.049-14.576-.796-4.28-3.269-8.591-7.692-9.857-6.184-1.771-11.442,2.698-14.779,7.406-4.032,5.69-7.031,12.321-9.723,18.727-5.601,13.329-9.095,27.49-10.54,41.87s-.777,28.975,1.97,43.168c2.719,14.046,7.539,27.7,14.384,40.269,6.293,11.556,14.282,22.192,23.508,31.567,9.281,9.43,19.848,17.618,31.281,24.276,11.424,6.652,23.758,11.801,36.555,15.132,6.191,1.611,12.485,2.776,18.837,3.526,1.595.188,1.581-2.313,0-2.5-12.732-1.505-25.236-4.873-37.063-9.808-11.904-4.968-23.175-11.574-33.353-19.496-10.115-7.873-19.25-17.072-26.931-27.34-7.961-10.642-14.381-22.41-18.913-34.906-4.804-13.247-7.582-27.206-8.318-41.274s.522-28.12,3.786-41.769c1.627-6.803,3.746-13.488,6.354-19.978,2.573-6.402,5.568-12.813,9.278-18.643,2.812-4.418,7.869-10.01,13.732-7.568,3.94,1.641,5.323,6.485,5.489,10.37.214,5.001-1.284,9.821-4.44,13.712-3.613,4.456-8.298,7.883-13.522,10.22-10.651,4.764-23.264,4.922-34.255,1.24-12.224-4.095-22.393-13.164-29.752-23.548-8.176-11.537-13.333-24.924-16.436-38.656-3.493-15.455-4.312-31.397-3.632-47.193.654-15.178,2.644-30.292,5.316-45.238,2.465-13.791,5.608-27.46,9.399-40.946s8.274-26.921,13.363-40.048,10.782-25.937,17.081-38.486c6.286-12.524,13.162-24.751,20.6-36.627s15.513-23.508,24.092-34.67,17.66-21.84,27.26-32.081c4.652-4.963,9.424-9.812,14.306-14.548,1.157-1.122-.612-2.889-1.768-1.768h0Z" fill="#fff"/>
    <path d="M278.471,222.171c12.597,2.778,25.485,4.432,38.394,4.498,12.699.064,25.517-1.41,37.674-5.175,11.907-3.687,23.094-9.638,32.399-17.978,8.521-7.637,14.976-17.341,19.203-27.945s6.193-22.162,5.843-33.579-3.011-22.718-8.098-32.932c-2.616-5.254-5.868-10.473-9.944-14.724-3.928-4.097-9.55-7.125-15.309-5.304-9.742,3.08-13.106,16.069-11.628,25.063,1.959,11.925,10.279,22.344,19.572,29.585,10.723,8.355,23.373,13.26,36.436,16.631,14.991,3.868,30.369,6.031,45.226,10.45,12.866,3.826,25.405,8.719,37.466,14.609,11.86,5.791,23.254,12.523,34.104,20.035,10.918,7.559,21.273,15.912,31.072,24.873,9.935,9.085,19.297,18.79,28.128,28.949,5.29,6.086,10.339,12.363,15.122,18.856,5.393,7.319,10.491,14.855,15.341,22.544,5.819,9.225,11.282,18.675,16.427,28.292,5.977,11.173,11.526,22.574,16.681,34.148,5.913,13.275,11.299,26.782,16.209,40.459,2.565,7.145,4.996,14.337,7.306,21.568.488,1.527,2.902.874,2.411-.665-8.648-27.066-19.036-53.6-31.464-79.16-9.428-19.39-20.025-38.249-32.08-56.134-10.202-15.136-21.573-29.329-34.082-42.625-17.831-18.952-37.774-36.012-59.826-49.879-22.39-14.079-47.081-24.996-72.845-31.141-26.565-6.336-56.56-8.824-76.602-29.614-7.551-7.832-14.093-19.177-12.072-30.428.836-4.652,2.914-9.69,6.88-12.532,4.598-3.295,10.167-1.879,14.193,1.676,4.355,3.844,7.65,9.117,10.344,14.217,2.648,5.014,4.666,10.342,6.08,15.831,2.78,10.792,3.231,22.204,1.425,33.198-1.824,11.101-5.886,21.832-12.188,31.172-6.578,9.75-15.643,17.554-25.939,23.174-22.064,12.043-48.452,13.7-72.974,10.721-6.121-.744-12.199-1.818-18.219-3.145-1.568-.346-2.238,2.064-.665,2.411h0Z" fill="#fff"/>
    <path d="M841.494,374.949c.945-16.565,3.216-33.038,6.804-49.238,3.561-16.076,8.398-31.87,14.463-47.178,4.794-12.1,10.591-24.757,20.892-33.2,4.524-3.708,10.049-6.259,15.955-6.453,6.591-.216,12.822,2.483,17.741,6.772,11.691,10.192,14.283,26.037,15.364,40.72.143,1.946.266,3.893.388,5.841.085,1.357,2.085,1.757,2.455.332,4.646-17.86,9.689-35.628,15.626-53.107s12.794-34.79,21.189-51.3c7.047-13.859,15.039-28.801,28.139-37.873,3.121-2.162,6.495-3.969,10.055-5.296,1.641-.611,3.39-1.293,5.134-1.532,1.7-.233,3.486-.106,5.181.106,6.854.858,13.007,4.639,16.771,10.478,4.32,6.703,6.054,15.136,7.156,22.915,1.274,8.994,1.513,18.123,1.55,27.195.009,2.263.001,4.526-.014,6.789-.011,1.642,2.334,1.565,2.5,0,1.735-16.336,5.898-32.4,12.198-47.568s14.823-29.519,25.203-42.275c8.912-10.951,22.892-26.462,38.758-20.409,6.153,2.347,10.564,7.716,13.601,13.365,3.458,6.431,5.308,13.519,6.608,20.663,3.334,18.323,3.093,37.327-.678,55.563-.462,2.232-.979,4.451-1.541,6.66-.397,1.56,2.013,2.225,2.411.665,4.755-18.67,5.849-38.183,3.222-57.268-1.102-8.004-2.696-15.996-5.896-23.45-2.692-6.271-6.612-12.323-12.357-16.191-6.233-4.197-14.05-4.805-21.037-2.207-7.8,2.901-14.237,8.71-19.716,14.817-11.391,12.696-20.84,27.144-28.013,42.614-7.179,15.482-12.136,31.99-14.509,48.895-.286,2.038-.538,4.08-.755,6.126h2.5c.062-9.414.017-18.853-.869-28.233-.796-8.431-2.198-16.971-5.536-24.805-2.882-6.765-7.847-12.444-14.769-15.243-3.307-1.337-7.191-1.927-10.748-1.793-3.641.137-7.271,1.67-10.54,3.178-14.657,6.76-24.012,20.531-31.584,34.21-9.202,16.624-16.642,34.191-23.062,52.058-6.474,18.016-11.898,36.394-16.826,54.887-.595,2.232-1.182,4.466-1.763,6.701l2.455.332c-.965-15.454-2.2-32.189-12.702-44.498-4.343-5.09-10.161-9.199-16.751-10.701-6.174-1.407-12.606-.409-18.202,2.49-11.547,5.983-18.971,18.384-24.076,29.88-6.87,15.472-12.161,31.756-16.227,48.176-4.134,16.693-6.883,33.734-8.213,50.879-.168,2.168-.312,4.338-.436,6.509-.092,1.607,2.409,1.602,2.5,0h0Z" fill="#fff"/>
    <g>
      <g>
        <path d="M1117.228,394.231c-12.179-59.723-7.138-122.855,14.362-179.889,2.325-6.167,6.251-17.6,12.82-17.058,6.152.507,9.243,11.793,11.434,17.564,8.939,23.547,18.08,44.901,26.924,85.078,8.021-61.926,37.985-120.784,83.339-163.705,4.579-4.333,10.463-10.904,16.296-8.514,7.114,2.915,11.247,12.243,13.769,28.113,7.757,48.814,4.318,96.78-11.42,143.634,53.427-60.216,120.015-102.686,195.076-131.776,28.665-11.109,68.321-21.704,72.178,1.772,2.232,13.584-20.31,54.629-28.373,65.787-47.431,65.641-113.561,115.028-179.464,162.095-51.46,36.752-105.052,73.492-166.548,88.228" fill="#ff3131"/>
        <g clip-path="url(#clippath)">
          <path d="M1146.208,168.389c-1.196,16.417-2.002,32.862-2.406,49.318-.404,16.455-.41,32.921-.018,49.376.389,16.374,1.171,32.739,2.346,49.076,1.18,16.418,2.756,32.808,4.727,49.15,1.959,16.247,4.306,32.447,7.042,48.581.341,2.009.688,4.016,1.04,6.022.167.949,1.612.547,1.446-.399-2.848-16.227-5.311-32.521-7.37-48.867-2.047-16.251-3.703-32.55-4.967-48.88-1.264-16.33-2.136-32.691-2.615-49.063s-.565-32.755-.258-49.131,1.009-32.745,2.105-49.087c.136-2.033.279-4.065.427-6.097.07-.963-1.43-.959-1.5,0h0Z" fill="#002135"/>
          <path d="M1289.552,107.357c-5.575,21.174-11.606,42.228-18.096,63.14-6.467,20.838-13.387,41.535-20.751,62.073-7.365,20.538-15.174,40.916-23.422,61.115-8.311,20.355-17.069,40.527-26.264,60.499-9.124,19.819-18.679,39.439-28.656,58.843-1.243,2.417-2.492,4.83-3.748,7.24-.445.855.849,1.614,1.295.757,10.115-19.419,19.812-39.057,29.073-58.898s18.015-39.718,26.376-59.857c8.425-20.294,16.407-40.772,23.939-61.415,7.505-20.569,14.563-41.302,21.166-62.178,6.603-20.876,12.752-41.897,18.438-63.041.706-2.624,1.404-5.251,2.096-7.879.246-.934-1.2-1.333-1.446-.399h0Z" fill="#002135"/>
          <path d="M1172.364,434.121c15.063-7.988,30.009-16.196,44.829-24.625s29.516-17.076,44.082-25.939,29-17.939,43.298-27.226c14.36-9.327,28.582-18.867,42.661-28.613s27.894-19.616,41.621-29.728,27.173-20.326,40.535-30.782c13.427-10.507,26.7-21.212,39.813-32.109s26.065-21.987,38.852-33.265,25.407-22.744,37.855-34.394,24.725-23.484,36.823-35.497c2.972-2.952,5.934-5.914,8.885-8.887.681-.686-.379-1.747-1.061-1.061-12.012,12.1-24.2,24.024-36.564,35.764-12.364,11.74-24.901,23.298-37.605,34.668-12.65,11.321-25.466,22.457-38.442,33.403s-26.226,21.795-39.576,32.4-26.988,21.116-40.712,31.371c-13.599,10.162-27.346,20.125-41.237,29.885s-28.044,19.4-42.276,28.788c-14.232,9.389-28.602,18.568-43.104,27.533s-29.136,17.718-43.896,26.252c-14.696,8.497-29.518,16.779-44.458,24.839-3.687,1.989-7.381,3.964-11.081,5.927-.853.452-.096,1.748.757,1.295h0Z" fill="#002135"/>
        </g>
      </g>
      <g>
        <path d="M637.805,554.152c-36.66,7.599-76.014,1.382-108.547-17.146-80.757-45.993-106.379-153.587-180.966-209.028,29.9-22.055,70.359-25.749,106.629-17.687,36.27,8.062,67.101,18.649,100.903,46.089,29.687,24.1,62.768,65.694,82.673,98.343" fill="#ff76ff"/>
        <g clip-path="url(#clippath-1)">
          <path d="M342.561,328.812c27.552,1.801,54.722,8.899,79.665,20.734,11.682,5.543,23.106,12.051,33.514,19.747,6.256,4.626,11.887,10.092,17.304,15.658,13.681,14.058,26.174,29.234,39.224,43.867,13.594,15.243,27.669,30.369,43.851,42.922,13.187,10.23,28.743,19.518,45.841,20.331,1.875.089,3.753.065,5.626-.064.958-.066.965-1.566,0-1.5-17.015,1.172-32.963-7.099-46.362-16.798-16.416-11.883-30.57-26.752-44.111-41.736-13.357-14.779-26.042-30.173-39.725-44.657-5.564-5.89-11.311-11.67-17.614-16.777-9.043-7.326-19.309-13.364-29.612-18.721-24.155-12.559-50.612-20.63-77.672-23.636-3.302-.367-6.613-.654-9.928-.871-.964-.063-.96,1.437,0,1.5h0Z" fill="#002135"/>
        </g>
      </g>
      <g>
        <path d="M640.527,645.786c-99.409-4.052-197.488-36.715-279.478-93.072-17.657-12.137-34.802-25.565-47.632-42.726-9.42-12.6-16.511-28.873-11.719-43.856,4.636-14.496,19.059-23.586,33.388-28.716,29.381-10.519,62.048-9.423,92.171-1.269,30.123,8.154,58.013,23.03,84.402,39.69,58.188,36.735,110.482,82.782,154.285,135.854" fill="#ff3131"/>
        <g clip-path="url(#clippath-2)">
          <path d="M264.321,454.004c16.664,4.519,33.215,9.447,49.645,14.752s32.829,11.014,49.06,17.039c16.159,5.998,32.196,12.324,48.116,18.931,16.017,6.649,31.914,13.586,47.701,20.765s31.353,14.546,46.877,22.137c15.618,7.637,31.138,15.475,46.575,23.472,15.388,7.972,30.694,16.104,45.935,24.355,15.251,8.257,30.436,16.635,45.574,25.095,15.136,8.459,30.225,17.002,45.287,25.591s30.194,17.282,45.271,25.958c3.648,2.099,7.297,4.2,10.945,6.3.838.482,1.594-.813.757-1.295-15.068-8.675-30.138-17.348-45.23-25.983-15.047-8.609-30.117-17.179-45.228-25.675-15.184-8.537-30.411-16.999-45.7-25.349-15.281-8.346-30.624-16.579-46.046-24.661-15.336-8.037-30.751-15.925-46.26-23.624-15.553-7.721-31.201-15.251-46.958-22.55s-31.569-14.342-47.525-21.121c-15.786-6.708-31.685-13.149-47.705-19.277-16.168-6.184-32.459-12.05-48.872-17.55s-32.988-10.65-49.661-15.384c-4.046-1.149-8.1-2.273-12.159-3.374-.933-.253-1.331,1.194-.399,1.446h0Z" fill="#002135"/>
          <path d="M442.362,517.477c-1.679-18.132-3.363-36.263-5.05-54.394-1.664-17.896-3.33-35.792-4.993-53.689-.953-10.26-1.905-20.521-2.855-30.782-.088-.953-1.589-.962-1.5,0,1.679,18.132,3.363,36.263,5.05,54.394,1.664,17.896,3.33,35.792,4.993,53.689.953,10.26,1.905,20.521,2.855,30.782.088.953,1.589.962,1.5,0h0Z" fill="#002135"/>
          <path d="M474.07,531.116c-4.391-32.085-7.439-64.352-9.13-96.692-.473-9.048-.838-18.1-1.101-27.156-.028-.963-1.528-.967-1.5,0,.941,32.438,3.231,64.834,6.883,97.079,1.027,9.069,2.164,18.125,3.402,27.168.13.952,1.576.547,1.446-.399h0Z" fill="#002135"/>
          <path d="M529.631,558.048c-25.843,6.185-51.461,13.37-76.58,22.056-24.752,8.559-49.022,18.575-72.391,30.416-13.307,6.743-26.311,14.081-38.936,22.029-.815.513-.063,1.812.757,1.295,22.304-14.042,45.789-26.14,70.008-36.517,24.269-10.398,49.258-19.069,74.593-26.476,14.215-4.156,28.545-7.91,42.947-11.357.938-.225.541-1.671-.399-1.446h0Z" fill="#002135"/>
          <path d="M385.919,493.285c-15.78,4.198-31.346,9.153-46.866,14.213-15.703,5.119-31.364,10.378-47.174,15.16-8.444,2.554-16.932,4.967-25.493,7.101-.936.233-.54,1.68.399,1.446,15.42-3.844,30.605-8.573,45.722-13.457,15.833-5.115,31.601-10.437,47.492-15.37,8.725-2.709,17.489-5.298,26.319-7.647.932-.248.537-1.695-.399-1.446h0Z" fill="#002135"/>
          <path d="M349.459,479.558c-24.293,5.118-48.659,10.078-72.522,16.99-6.636,1.922-13.226,4.002-19.741,6.301-.904.319-.515,1.769.399,1.446,23.642-8.343,48.177-13.926,72.661-19.157,6.531-1.395,13.068-2.758,19.602-4.135.944-.199.545-1.645-.399-1.446h0Z" fill="#002135"/>
          <path d="M588.176,588.597c-4.586-24.076-7.487-48.472-9.516-72.887-.568-6.841-1.059-13.687-1.475-20.539-.058-.959-1.559-.966-1.5,0,1.501,24.676,3.897,49.325,7.622,73.769,1.022,6.705,2.154,13.393,3.423,20.056.18.947,1.626.546,1.446-.399h0Z" fill="#002135"/>
        </g>
      </g>
      <g>
        <path d="M481.551,915.371c.027,5.898,1.315,11.843,4.586,16.824,2.861,4.356,6.965,7.726,11.568,10.113,10.017,5.194,21.442,6.146,32.508,6.827,16.871,1.038,33.763,1.707,50.66,2.147,17.577.458,35.16.664,52.743.728,17.992.065,35.983-.02,53.974-.163,18.119-.144,36.236-.349,54.355-.526,17.961-.176,35.922-.326,53.884-.36,12.772-.024,25.545-.015,38.318-.011,13.314.005,26.629.014,39.943.021,14.128.007,28.256.012,42.384.009,14.74-.003,29.48-.016,44.22-.042,15.15-.027,30.3-.07,45.45-.133,15.358-.064,30.716-.15,46.074-.264,15.365-.114,30.729-.256,46.093-.434,15.169-.176,30.338-.387,45.506-.645,14.772-.25,29.544-.544,44.314-.894,14.174-.336,28.346-.725,42.517-1.184,13.374-.433,26.746-.929,40.114-1.513,12.372-.541,24.743-1.149,37.105-1.882,11.45-.679,24.646-3.751,32.401-12.903,3.788-4.47,5.66-9.994,5.697-15.831.012-1.931-2.988-1.933-3,0-.037,5.822-2.144,11.209-6.309,15.314-4.099,4.039-9.503,6.54-14.971,8.129-5.81,1.688-11.712,2.175-17.721,2.517s-11.997.657-17.998.952c-12.873.633-25.751,1.171-38.631,1.643-13.743.504-27.488.931-41.235,1.303-14.35.389-28.702.717-43.054.999-14.889.293-29.778.536-44.668.742-15.168.209-30.337.379-45.506.518-15.183.139-30.367.247-45.551.332s-30.276.145-45.414.187c-14.763.042-29.527.066-44.291.08-14.325.013-28.649.015-42.974.011-13.623-.004-27.245-.012-40.868-.02-12.67-.007-25.34-.013-38.01-.012-15.195.002-30.389.026-45.584.131-17.833.123-35.666.317-53.499.498-17.936.182-35.873.351-53.81.421-17.685.069-35.371.044-53.055-.172-17.161-.21-34.321-.598-51.47-1.28-8.225-.327-16.447-.723-24.665-1.203-6.092-.356-12.215-.619-18.243-1.626-9.782-1.633-20.626-5.092-26.484-13.698-3.152-4.63-4.379-10.105-4.404-15.65-.009-1.93-3.009-1.934-3,0h0Z" fill="#a4ef00"/>
        <path d="M1207.577,715.356c2.181-72.928,8.833-154.718,6.284-227.634-1.298-37.136.181-74.497-8.354-110.662-3.395-14.386-8.166-29.121-18.527-39.663-14.17-14.418-35.565-19.531-55.746-20.715-167.503-9.825-310.909-9.332-459.246,0-20.705,1.303-47.342,9.097-59.562,25.862-8.234,11.295-12.519,40.594-13.353,68.283-3.067,101.91-1.443,220.148-.41,321.21,0,0-95.585,113.451-118.846,177.814-1.557,4.307-.172,22.505,28.744,22.505,127.434,0,704.307-5.994,819.281-8.656,18.856-.436,24.924-8.446,14.89-23.926-34.406-53.08-135.156-184.417-135.156-184.417Z" fill="#a4ef00"/>
        <path d="M1234.518,879.985h-649.395c-3.943,0-7.441-2.057-9.358-5.502-1.917-3.446-1.82-7.503.259-10.854l71.298-114.883c1.967-3.169,5.368-5.062,9.099-5.062h500.21c3.556,0,6.869,1.757,8.863,4.7l77.887,114.882c2.264,3.34,2.487,7.461.598,11.025s-5.427,5.692-9.461,5.692ZM656.42,745.686c-3.034,0-5.8,1.539-7.399,4.116l-71.298,114.883c-1.691,2.725-1.77,6.024-.21,8.826,1.559,2.802,4.403,4.475,7.61,4.475h649.395c3.281,0,6.157-1.73,7.693-4.63,1.537-2.898,1.355-6.25-.486-8.965l-77.887-114.883c-1.621-2.394-4.315-3.822-7.207-3.822h-500.21Z" fill="#002135"/>
        <path d="M1179.025,772.667h-544.751c-.552,0-1-.447-1-1s.448-1,1-1h544.751c.553,0,1,.447,1,1s-.447,1-1,1Z" fill="#002135"/>
        <path d="M1212.401,820.803h-608c-.552,0-1-.447-1-1s.448-1,1-1h608c.553,0,1,.447,1,1s-.447,1-1,1Z" fill="#002135"/>
        <path d="M666.109,879.985c-.106,0-.215-.017-.321-.053-.523-.178-.803-.745-.626-1.269l45.541-134.3c.178-.522.745-.803,1.269-.626.523.178.803.745.626,1.269l-45.541,134.3c-.142.416-.53.679-.947.679Z" fill="#002135"/>
        <path d="M753.178,879.985c-.073,0-.146-.008-.22-.024-.539-.121-.878-.655-.757-1.194l30.13-134.3c.121-.538.659-.876,1.194-.757.539.121.878.655.757,1.194l-30.13,134.3c-.104.466-.517.781-.975.781Z" fill="#002135"/>
        <path d="M840.246,879.985c-.037,0-.074-.002-.111-.006-.549-.061-.945-.555-.885-1.104l14.796-134.3c.061-.549.555-.942,1.104-.885.549.061.945.555.885,1.104l-14.796,134.3c-.057.512-.49.891-.993.891Z" fill="#002135"/>
        <path d="M940.892,879.985c-.531,0-.973-.418-.998-.953l-6.26-134.3c-.025-.552.401-1.021.953-1.046.539-.035,1.02.401,1.045.952l6.26,134.3c.025.552-.401,1.021-.953,1.046-.016,0-.032,0-.047,0Z" fill="#002135"/>
        <path d="M1045.015,879.985c-.459,0-.873-.318-.976-.785l-29.592-134.3c-.119-.539.222-1.072.762-1.191.534-.117,1.072.222,1.191.762l29.592,134.3c.119.539-.222,1.072-.762,1.191-.072.016-.145.023-.216.023Z" fill="#002135"/>
        <path d="M1141.851,879.985c-.401,0-.78-.243-.933-.641l-51.785-134.3c-.199-.515.058-1.094.573-1.292.514-.198,1.094.057,1.292.573l51.785,134.3c.199.515-.058,1.094-.573,1.292-.118.046-.239.067-.359.067Z" fill="#002135"/>
      </g>
      <g>
        <rect x="1001.722" y="368.447" width="159.694" height="113.055" fill="#ff3131"/>
        <g>
          <path d="M1035.099,423.522l7.755-2.585.808,2.585-7.755,2.531,4.9,6.569-1.992,1.562-5.062-6.731-4.793,6.731-2.154-1.562,4.9-6.569-7.862-2.693.754-2.423,7.916,2.585v-8.185h2.585v8.185Z" fill="#fff"/>
          <path d="M1059.008,423.522l7.755-2.585.808,2.585-7.755,2.531,4.9,6.569-1.992,1.562-5.062-6.731-4.793,6.731-2.154-1.562,4.9-6.569-7.862-2.693.754-2.423,7.916,2.585v-8.185h2.585v8.185Z" fill="#fff"/>
          <path d="M1082.916,423.522l7.755-2.585.808,2.585-7.755,2.531,4.9,6.569-1.992,1.562-5.062-6.731-4.793,6.731-2.154-1.562,4.9-6.569-7.862-2.693.754-2.423,7.916,2.585v-8.185h2.585v8.185Z" fill="#fff"/>
          <path d="M1106.825,423.522l7.755-2.585.808,2.585-7.755,2.531,4.9,6.569-1.992,1.562-5.062-6.731-4.793,6.731-2.154-1.562,4.9-6.569-7.862-2.693.754-2.423,7.916,2.585v-8.185h2.585v8.185Z" fill="#fff"/>
          <path d="M1130.733,423.522l7.755-2.585.808,2.585-7.755,2.531,4.9,6.569-1.992,1.562-5.062-6.731-4.793,6.731-2.154-1.562,4.9-6.569-7.862-2.693.754-2.423,7.916,2.585v-8.185h2.585v8.185Z" fill="#fff"/>
        </g>
      </g>
      <rect x="1001.722" y="476.082" width="159.694" height="113.055"/>
      <rect x="1001.722" y="588.849" width="159.694" height="113.055" fill="#0068ff"/>
      <rect x="650.952" y="368.447" width="350.77" height="333.457" fill="#ff76ff"/>
      <g clip-path="url(#clippath-3)">
        <g>
          <path d="M1032.981,486.718c-9.109.062-18.219.125-27.328.187l-43.233.296c-3.309.023-6.619.045-9.928.068-.513.004-1.049.279-1.295.743-4.404,8.273-8.808,16.546-13.212,24.82-.624,1.172-1.248,2.345-1.872,3.517l1.295-.743c-5.246.036-10.492.072-15.739.108l-24.959.171c-1.927.013-3.853.026-5.78.04s-1.934,3.013,0,3c5.246-.036,10.492-.072,15.739-.108,8.32-.057,16.639-.114,24.959-.171,1.927-.013,3.853-.026,5.78-.04.513-.004,1.049-.279,1.295-.743,4.404-8.273,8.808-16.546,13.212-24.82.624-1.172,1.248-2.345,1.872-3.517l-1.295.743c9.109-.062,18.219-.125,27.328-.187l43.233-.296c3.309-.023,6.619-.045,9.928-.068,1.93-.013,1.934-3.013,0-3h0Z" fill="#ff3131"/>
          <path d="M891.099,543.53c4.73-.032,9.461-.065,14.191-.097,11.354-.078,22.709-.156,34.063-.234,13.643-.094,27.286-.187,40.929-.281,11.862-.081,23.725-.163,35.587-.244,5.731-.039,11.504.119,17.232-.118.08-.003.162-.001.242-.002,1.93-.013,1.934-3.013,0-3-4.73.032-9.461.065-14.191.097-11.354.078-22.709.156-34.063.234-13.643.094-27.286.187-40.929.281-11.862.081-23.725.163-35.587.244-5.731.039-11.504-.119-17.232.118-.08.003-.162.001-.242.002-1.93.013-1.934,3.013,0,3h0Z" fill="#ff3131"/>
          <path d="M629.189,545.551c4.73-.032,9.461-.065,14.191-.097l34.063-.234c13.643-.094,27.286-.187,40.929-.281,11.862-.081,23.725-.163,35.587-.244,5.731-.039,11.504.119,17.232-.118.08-.003.162-.001.242-.002,1.93-.013,1.934-3.013,0-3-4.73.032-9.461.065-14.191.097l-34.063.234c-13.643.094-27.286.187-40.929.281-11.862.081-23.725.163-35.587.244-5.731.039-11.504-.119-17.232.118-.08.003-.162.001-.242.002-1.93.013-1.934,3.013,0,3h0Z" fill="#ff3131"/>
          <path d="M891.235,563.336c9.906-.068,19.813-.136,29.719-.204,1.409-.01,2.818-.019,4.227-.029l-1.061-.439c5.227,6.483,10.323,13.161,15.914,19.336.283.312.585.685.96.892.407.225.723.156,1.167.154.069,0,.948-.253.023-.008-.639.169-.413.025-.233.039.603.046,1.247-.04,1.851-.051,2.923-.055,5.847-.079,8.77-.106,10.157-.094,20.315-.152,30.472-.21,10.88-.061,21.761-.115,32.642-.165,5.881-.027,11.796.136,17.674-.077.086-.003.172,0,.257-.001,1.93-.008,1.934-3.008,0-3-7.526.03-15.052.064-22.579.099-14.311.067-28.623.139-42.934.234-5.825.039-11.65.079-17.474.138-2.858.029-5.759-.067-8.612.135-.073.005-.147.006-.22.016-.173.023-.284.03-.426.059-1.468.307,1.983.134,1.103.133.383,0,.297.314.175.122-.406-.64-1.111-1.221-1.605-1.799-2.054-2.402-4.055-4.85-6.057-7.295-2.158-2.635-4.307-5.279-6.45-7.926-.835-1.031-1.93-3.136-3.396-3.28-1.595-.157-3.296.023-4.896.034l-9.798.067c-6.038.041-12.076.083-18.114.124l-1.099.008c-1.93.013-1.934,3.013,0,3h0Z" fill="#ff3131"/>
          <path d="M1033.752,599.275c-4.807.033-9.615.066-14.422.099-10.767.074-21.534.148-32.301.221-11.211.077-22.422.154-33.632.231-6.26.043-12.52.086-18.78.129-.674.005-1.176.071-1.739.565-1.326,1.163-2.588,2.409-3.878,3.61-3.754,3.495-7.508,6.989-11.262,10.484l-.816.759,1.061-.439c-7.701.053-15.401.106-23.102.158-1.09.007-2.181.015-3.271.022-1.93.013-1.934,3.013,0,3,7.111-.049,14.221-.097,21.332-.146l4.338-.03c.804-.006,1.403-.125,2.027-.689,2.722-2.457,5.371-5,8.055-7.498,2.59-2.411,5.18-4.822,7.77-7.232l-1.061.439c3.308-.023,6.616-.045,9.924-.068l23.828-.163,28.818-.198c8.27-.057,16.539-.113,24.809-.17,4.031-.028,8.103.11,12.131-.083.057-.003.115,0,.173-.001,1.93-.013,1.934-3.013,0-3h0Z" fill="#ff3131"/>
          <path d="M854.039,627.894c.016,2.399.033,4.799.049,7.198.018,2.59-.216,5.32.054,7.898.092.881.518,1.176,1.11,1.687l2.654,2.289,7.9,6.811c1.775,1.53,3.55,3.061,5.325,4.591l-.439-1.061c.049,7.16.098,14.321.147,21.481.078,11.416.157,22.832.235,34.248.018,2.625.036,5.249.054,7.874.013,1.93,3.013,1.934,3,0-.025-3.663-.05-7.325-.075-10.988-.054-7.853-.108-15.705-.162-23.558l-.15-21.939-.042-6.074c-.002-.337.028-.692-.007-1.028-.095-.923-.686-1.29-1.324-1.84l-15.247-13.146-.418-.36.439,1.061c-.035-5.048-.069-10.096-.104-15.144-.013-1.93-3.013-1.934-3,0h0Z" fill="#ff3131"/>
          <path d="M825.201,628.091c.045,6.505.089,13.011.134,19.516l.019,2.819.439-1.061c-4.362,3.737-8.724,7.473-13.085,11.21l-2.937,2.516c-.626.537-1.174.875-1.27,1.785-.108,1.035.015,2.147.022,3.185.093,13.53.186,27.06.278,40.59.029,4.228.058,8.456.087,12.684.013,1.93,3.013,1.934,3,0-.043-6.34-.087-12.679-.13-19.019-.07-10.157-.139-20.313-.209-30.47-.016-2.328-.032-4.656-.048-6.984l-.439,1.061c4.984-4.27,9.969-8.54,14.953-12.81.609-.522,1.36-1.019,1.893-1.622.624-.705.441-1.778.435-2.653-.026-3.812-.052-7.623-.078-11.435l-.064-9.314c-.013-1.93-3.013-1.934-3,0h0Z" fill="#ff3131"/>
          <path d="M815.687,492.525c-.048-7.012-.096-14.024-.144-21.036-.007-.998-.014-1.996-.021-2.995l-.439,1.061c4.716-4.04,9.433-8.081,14.149-12.121,1.076-.922,3.091-2.031,3.142-3.597.049-1.486-.02-2.985-.031-4.471-.101-14.775-.203-29.549-.304-44.324-.031-4.457-.061-8.914-.092-13.37-.013-1.93-3.013-1.934-3,0,.048,7.041.097,14.083.145,21.124.077,11.177.153,22.354.23,33.531.018,2.577.035,5.153.053,7.73l.439-1.061c-5.142,4.405-10.283,8.81-15.425,13.214-.748.641-1.763,1.224-1.868,2.286-.075.762.011,1.576.016,2.34l.084,12.265c.022,3.141.043,6.282.065,9.423.013,1.93,3.013,1.934,3,0h0Z" fill="#ff3131"/>
          <path d="M771.261,516.451c-8.706.06-17.412.119-26.118.179-1.257.009-2.515.017-3.772.026l1.061.439c-6.378-6.291-12.756-12.582-19.133-18.873l-3.497-3.45c-.496-.489-1.011-.782-1.721-.799-2.124-.051-4.259.029-6.383.044-9.757.067-19.514.134-29.272.201l-34.314.235c-6.31.043-12.65-.09-18.957.13-.098.003-.196.001-.294.002-1.93.013-1.934,3.013,0,3,2.966-.02,5.932-.041,8.898-.061,7.123-.049,14.247-.098,21.37-.147,8.619-.059,17.238-.118,25.857-.177,7.453-.051,14.906-.102,22.359-.153l7.372-.051c1.108-.008,2.408.173,3.503-.024.048-.009.105,0,.154-.001l-1.061-.439c6.534,6.445,13.068,12.89,19.602,19.335,1.071,1.056,2.114,2.153,3.218,3.175.806.746,1.674.611,2.69.604l15.233-.104c4.402-.03,8.803-.06,13.205-.091,1.93-.013,1.934-3.013,0-3h0Z" fill="#ff3131"/>
          <path d="M784.516,628.37c.021,3.081.042,6.161.063,9.242l.152,22.202.184,26.877c.053,7.784.107,15.568.16,23.352.026,3.753-.11,7.547.077,11.296.003.053,0,.107.001.161.013,1.93,3.013,1.934,3,0-.021-3.081-.042-6.161-.063-9.242-.051-7.401-.101-14.801-.152-22.202l-.184-26.877c-.053-7.784-.107-15.568-.16-23.352-.026-3.753.11-7.547-.077-11.296-.003-.053,0-.107-.001-.161-.013-1.93-3.013-1.934-3,0h0Z" fill="#ff3131"/>
          <path d="M771.656,574.079c-8.265.057-16.53.113-24.795.17-1.194.008-2.387.016-3.581.025l1.061.439c-2.909-2.869-5.818-5.739-8.727-8.608l-5.3-5.228c-.732-.722-1.505-1.805-2.593-1.897-1.539-.13-3.155.022-4.697.032l-10.87.075c-10.788.074-21.576.148-32.364.222-10.979.075-21.958.151-32.937.226-5.753.039-11.543-.111-17.293.119-.084.003-.17.001-.254.002-1.93.013-1.934,3.013,0,3,3.271-.022,6.542-.045,9.813-.067,7.813-.054,15.626-.107,23.439-.161,9.494-.065,18.987-.13,28.481-.195l24.625-.169,8.083-.055c1.233-.008,2.632.167,3.853-.026.056-.009.119,0,.175-.001l-1.061-.439c5.046,4.978,10.092,9.955,15.139,14.933.603.595,1.211.802,2.044.797l4.148-.028,13.956-.096c3.218-.022,6.437-.044,9.655-.066,1.93-.013,1.934-3.013,0-3h0Z" fill="#ff3131"/>
          <path d="M771.102,603.918c.159-.093.636-.147.382-.14-.247.006-.497.037-.744.05-.843.044-1.687.065-2.531.085-2.721.066-5.443.093-8.165.117-7.542.068-15.084.083-22.626.089-6.279.006-12.557.001-18.836-.011-1.075-.002-2.222-.119-3.293-.007-.839.087-1.227.608-1.756,1.168l-2.624,2.77c-4.534,4.787-9.068,9.575-13.603,14.362l1.061-.439c-7.75.053-15.5.106-23.25.159-12.3.084-24.6.169-36.9.253-2.827.019-5.653.039-8.48.058-1.93.013-1.934,3.013,0,3,4.021-.028,8.043-.055,12.064-.083,8.581-.059,17.162-.118,25.743-.176,7.889-.054,15.779-.108,23.668-.162l6.277-.043c.287-.002.591.025.877-.006,1.014-.109,1.641-1.052,2.298-1.746,5.094-5.378,10.188-10.757,15.282-16.135l.397-.419-1.061.439c6.365.018,12.731.022,19.096.02,10.154-.004,20.309.002,30.462-.146,1.701-.025,3.404-.05,5.104-.113.809-.03,1.948.071,2.671-.353,1.665-.974.157-3.568-1.514-2.59h0Z" fill="#ff3131"/>
          <path d="M792.847,492.682c-.059-8.628-.118-17.256-.177-25.884l-.036-5.182c-.006-.927-.118-1.595-.8-2.287-3.111-3.153-6.31-6.224-9.463-9.334-3.036-2.995-6.072-5.989-9.108-8.984l.439,1.061c-.039-5.628-.077-11.255-.116-16.883l-.185-26.921c-.014-2.065-.028-4.13-.042-6.195-.013-1.93-3.013-1.934-3,0,.075,10.88.149,21.759.224,32.639l.11,16.048c.007,1.094-.023,1.883.803,2.722,1.741,1.769,3.536,3.488,5.303,5.231,4.423,4.362,8.845,8.725,13.268,13.087l-.439-1.061c.064,9.342.128,18.683.192,28.025l.027,3.917c.013,1.93,3.013,1.934,3,0h0Z" fill="#ff3131"/>
          <path d="M849.06,391.534c.023,3.334.046,6.668.069,10.002l.165,24.025.199,29.08.173,25.165c.028,4.085-.111,8.212.084,12.294.003.057,0,.114.001.171.013,1.93,3.013,1.934,3,0-.023-3.334-.046-6.668-.069-10.002l-.165-24.025-.199-29.08-.173-25.165c-.028-4.085.111-8.212-.084-12.294-.003-.057,0-.114-.001-.171-.013-1.93-3.013-1.934-3,0h0Z" fill="#ff3131"/>
          <path d="M871.982,392.136c-.094-.183-.159-.677-.157-.455.002.204.029.412.04.617.039.732.058,1.465.077,2.198.066,2.509.1,5.018.132,7.527.103,8.044.152,16.089.196,24.133.053,9.624.09,19.249.119,28.873.025,8.283.045,16.567.06,24.85.007,4.008-.158,8.058.018,12.064.003.057,0,.115,0,.173.002,1.93,3.002,1.934,3,0-.003-3.339-.009-6.678-.014-10.017-.013-7.979-.031-15.958-.054-23.936-.028-9.701-.063-19.402-.113-29.102-.043-8.371-.092-16.742-.189-25.113-.047-4.09.149-8.305-.284-12.38-.04-.379-.068-.61-.241-.946-.885-1.717-3.475-.201-2.59,1.514h0Z" fill="#ff3131"/>
          <g>
            <g>
              <polygon points="870.639 522.053 782.036 537.596 822.954 560.305 846.169 608.216 870.639 522.053" fill="#0068ff"/>
              <path d="M870.24,520.607c-2.941.516-5.883,1.032-8.824,1.548-7.062,1.239-14.125,2.478-21.187,3.717-8.501,1.491-17.001,2.982-25.502,4.474-7.387,1.296-14.775,2.592-22.162,3.888l-7.281,1.277c-1.152.202-2.362.321-3.496.613-.049.013-.102.018-.152.027-1.294.227-1.424,2.15-.358,2.742,5.125,2.844,10.249,5.688,15.374,8.533,7.498,4.161,14.995,8.322,22.493,12.484l2.595,1.44c.093.052.331.247.443.246-.418.006-.58-.888-.412-.3.196.687.673,1.388.983,2.029l1.864,3.848c3.906,8.06,7.811,16.121,11.717,24.181,2.793,5.764,5.389,11.682,8.4,17.336.05.093.093.191.139.287.581,1.2,2.409.813,2.742-.358.811-2.855,1.622-5.71,2.432-8.565l5.842-20.57c2.356-8.296,4.712-16.593,7.068-24.889l6.112-21.522c.986-3.474,2.161-6.948,2.973-10.468.012-.05.028-.099.042-.148.528-1.86-2.365-2.655-2.893-.798-.811,2.855-1.622,5.71-2.432,8.565-1.947,6.857-3.895,13.714-5.842,20.57-2.356,8.296-4.712,16.593-7.068,24.889-2.037,7.174-4.075,14.348-6.112,21.522l-2.015,7.096c-.307,1.08-.813,2.255-.958,3.372-.006.049-.029.101-.042.148l2.742-.358c-2.381-4.913-4.761-9.826-7.142-14.74-4.024-8.304-8.048-16.609-12.072-24.913-1.189-2.454-2.378-4.907-3.567-7.361-.273-.564-.444-1.056-.977-1.438-.419-.3-.931-.517-1.38-.766-6.976-3.872-13.953-7.744-20.929-11.616l-11.671-6.477c-2.179-1.209-4.345-2.647-6.618-3.673-.108-.049-.212-.117-.316-.175l-.358,2.742c2.941-.516,5.883-1.032,8.824-1.548,7.062-1.239,14.125-2.478,21.187-3.717,8.501-1.491,17.001-2.982,25.502-4.474,7.387-1.296,14.775-2.592,22.162-3.888l7.281-1.277c1.152-.202,2.362-.321,3.496-.613.049-.013.102-.018.152-.027,1.898-.333,1.094-3.225-.798-2.893Z" fill="#0068ff"/>
            </g>
            <path d="M869.578,520.992c-5.359,4.299-10.718,8.598-16.077,12.897-8.577,6.88-17.154,13.761-25.731,20.641-1.959,1.571-3.918,3.143-5.876,4.714-1.506,1.208.629,3.319,2.121,2.121,5.359-4.299,10.718-8.598,16.077-12.897,8.577-6.88,17.154-13.761,25.731-20.641,1.959-1.571,3.918-3.143,5.876-4.714,1.506-1.208-.629-3.319-2.121-2.121h0Z" fill="#14162b"/>
          </g>
        </g>
        <g>
          <g>
            <circle cx="665.255" cy="380.159" r="4.567" fill="#ff3131"/>
            <circle cx="682.477" cy="380.159" r="4.567" fill="#0068ff"/>
            <circle cx="699.699" cy="380.159" r="4.567" fill="#a4ef00"/>
          </g>
          <rect x="651.844" y="389.073" width="349.878" height="2" fill="#ff3131"/>
        </g>
      </g>
      <g>
        <path d="M1074.299,638.251c0-7.021,0-14.042,0-21.063,0-11.09,0-22.181,0-33.271,0-2.558,0-5.115,0-7.673l-.743,1.295c6.49-3.003,12.98-6.006,19.47-9.009.944-.437,1.888-.874,2.832-1.31.466-.216.743-.806.743-1.295v-24.422c0-1.93-3-1.934-3,0v24.422l.743-1.295c-6.49,3.003-12.98,6.006-19.47,9.009l-2.832,1.31c-.466.216-.743.806-.743,1.295,0,7.021,0,14.042,0,21.063,0,11.09,0,22.181,0,33.271,0,2.558,0,5.115,0,7.673,0,1.93,3,1.934,3,0h0Z" fill="#a4ef00"/>
        <path d="M1117.997,536.128v43.32l1.5-1.5h-16.289c-.811,0-1.5.687-1.5,1.5v29.997c0,1.93,3,1.934,3,0v-29.997l-1.5,1.5h16.289c.811,0,1.5-.687,1.5-1.5v-43.32c0-1.93-3-1.934-3,0h0Z" fill="#a4ef00"/>
        <path d="M1066.535,552.689c-7.234,6.682-14.468,13.365-21.701,20.047-.792.732-2.056,1.529-2.175,2.681-.051.488,0,1.009,0,1.498v81.261c0,6.817-.196,13.667,0,20.482.003.105,0,.21,0,.314,0,.811.687,1.5,1.5,1.5h72.556c.811,0,1.5-.687,1.5-1.5v-24.279c0-1.93-3-1.934-3,0v24.279l1.5-1.5h-72.556l1.5,1.5v-99.311c0-1.306.197-2.788,0-4.083-.009-.056,0-.12,0-.178l-.439,1.061c6.855-6.332,13.709-12.664,20.564-18.996l2.874-2.655c1.421-1.313-.704-3.43-2.121-2.121h0Z" fill="#a4ef00"/>
        <g>
          <path d="M1080.82,607.09c-.425.053-.849.112-1.272.178-3.372.529-6.675,1.486-9.819,2.814-2.904,1.226-5.617,2.85-8.037,4.874-2.399,2.006-4.479,4.389-6.166,7.022-1.739,2.714-3.055,5.695-3.95,8.789-.947,3.275-1.516,6.736-1.372,10.151.15,3.534.966,7.034,2.248,10.325,1.281,3.29,3.024,6.401,5.219,9.169,2.115,2.668,4.722,4.928,7.519,6.857,2.886,1.989,6.076,3.563,9.469,4.471,1.784.478,3.618.77,5.462.876,1.484.085,2.974.035,4.457-.042,2.689-.139,5.376-.45,8.007-1.031.952-.21,1.896-.461,2.829-.747-4.501-9.944-7.245-18.757-12.62-30.061-.071-11.496-.844-22.543-1.975-33.645Z"/>
          <path d="M1116.674,664.292c1.196-1.288,2.271-2.685,3.234-4.155,2.132-3.277,3.774-6.879,4.809-10.651,1.024-3.733,1.459-7.646,1.161-11.509-.26-3.377-1.11-6.623-2.513-9.704-1.158-2.544-2.649-4.933-4.378-7.13-9.334,6.796-18.807,13.631-28.014,21.128,5.376,11.304,8.119,20.117,12.62,30.061,1.88-.576,3.712-1.307,5.455-2.219,2.848-1.49,5.438-3.465,7.625-5.821Z" fill="#ff76ff"/>
          <path d="M1115.508,612.748c-.707-.811-1.455-1.589-2.231-2.336-1.812-1.743-3.802-3.304-5.944-4.617-3.299-2.021-6.954-3.379-10.776-3.986-3.255-.517-6.566-.52-9.832-.114,1.131,11.102,1.904,22.149,1.975,33.645,9.207-7.497,18.68-14.331,28.014-21.128-.391-.497-.791-.987-1.206-1.463Z" fill="#ff3131"/>
        </g>
        <path d="M1108.708,504.937c-4.307-5.218-10.175-8.35-16.269-9.968l2.369-1.396-12.402.013c-.649-.013-1.292-.014-1.927.002h-.06s0,.002,0,.002c-4.966.129-8.214,1.379-11.384,2.839-15.105,6.958-19.103,21.724-16.965,35.677,2.139,13.952,11.648,25.224,25.605,27.329,2.228.336,4.49.446,6.743.345l13.225.038-5.238-1.303c8.815-2.426,16.607-8.159,20.423-16.487,5.458-11.914,3.816-27.474-4.121-37.09Z" fill="#ff3131"/>
        <g clip-path="url(#clippath-4)">
          <path d="M1059.563,499.123c5.56-1.537,11.469-1.231,17.183-1.296,6.071-.069,12.142-.138,18.213-.207,1.929-.022,1.934-3.022,0-3-6.237.071-12.475.142-18.712.213-5.827.066-11.813-.17-17.482,1.398-1.858.514-1.069,3.409.798,2.893h0Z"/>
          <path d="M1054.051,504.082c11.187-.271,22.362-.914,33.507-1.931,1.907-.174,1.925-3.176,0-3-11.144,1.016-22.319,1.66-33.507,1.931-1.927.047-1.934,3.047,0,3h0Z"/>
          <path d="M1047.759,511.561c11.514-.669,23.057-.692,34.574-.068,1.929.105,1.923-2.896,0-3-11.517-.624-23.059-.602-34.574.068-1.919.112-1.932,3.112,0,3h0Z"/>
          <path d="M1042.377,519.938c11.397-.973,22.844-1.221,34.273-.742,1.93.081,1.927-2.919,0-3-11.429-.479-22.876-.231-34.273.742-1.909.163-1.927,3.165,0,3h0Z"/>
          <path d="M1043.824,527.98c10.62-.344,21.204-1.351,31.703-2.985,1.902-.296,1.094-3.187-.798-2.893-10.233,1.593-20.555,2.543-30.906,2.878-1.926.062-1.934,3.063,0,3h0Z"/>
          <path d="M1048.723,546.651c5.545-1.188,11.253-1.198,16.871-1.85,5.587-.648,11.12-1.663,16.572-3.046,1.87-.474,1.078-3.369-.798-2.893-5.502,1.396-11.092,2.437-16.737,3.046-5.572.601-11.209.671-16.706,1.849-1.887.404-1.088,3.297.798,2.893h0Z"/>
          <path d="M1054.959,553.108c9.111-.869,18.256-1.314,27.409-1.334,1.93-.004,1.934-3.004,0-3-9.153.02-18.297.466-27.409,1.334-1.905.182-1.924,3.183,0,3h0Z"/>
          <path d="M1063.666,559.508c8.32-.672,16.64-1.343,24.959-2.015,1.911-.154,1.928-3.156,0-3-8.32.672-16.64,1.343-24.959,2.015-1.911.154-1.928,3.156,0,3h0Z"/>
          <path d="M1046.572,537.298c9.28-.531,18.544-1.288,27.787-2.27,1.9-.202,1.921-3.204,0-3-9.243.982-18.508,1.738-27.787,2.27-1.919.11-1.932,3.111,0,3h0Z"/>
        </g>
        <path d="M1122.663,504.937c7.937,9.616,9.579,25.176,4.121,37.09-5.879,12.833-21.196,19.513-35.154,17.408-13.957-2.105-25.816-14.04-27.955-27.992s2.971-28.337,18.076-35.295c9.334-4.299,30.068-4.348,40.912,8.789Z" fill="#ff76ff"/>
      </g>
    </g>
    <g>
      <path d="M1753.208,704.789c11.749-9.168,22.392-19.711,31.752-31.304,9.357-11.59,17.462-24.172,24.188-37.461,6.765-13.366,12.17-27.431,16.093-41.889,3.907-14.401,7.987-31.646.265-45.53-5.428-9.76-19.488-16.403-29.932-10.597-1.242.69-2.378,1.569-3.399,2.554l1.963,1.515c12.257-25.376,22.324-52.068,27.091-79.931,4.456-26.042,4.109-53.012-3.031-78.556-3.438-12.301-8.449-24.202-15.127-35.101-6.383-10.417-14.295-20.021-24.142-27.338-9.656-7.174-21.208-11.697-33.345-11.47-13.779.258-26.888,5.925-38.56,12.864-21.777,12.946-40.704,30.67-55.249,51.395-1.821,2.595-3.569,5.24-5.251,7.927-.856,1.368,1.306,2.624,2.159,1.262,13.235-21.147,30.927-39.466,51.639-53.38,10.904-7.325,22.792-13.912,35.792-16.517,6.407-1.284,13.06-1.468,19.481-.171,5.64,1.14,11.009,3.31,15.971,6.207,10.137,5.918,18.522,14.615,25.216,24.179,7.211,10.302,12.802,21.69,16.794,33.605,8.143,24.301,9.775,50.39,6.548,75.722-3.488,27.384-12.463,53.86-23.856,78.906-1.393,3.062-2.825,6.106-4.288,9.135-.601,1.243.897,2.543,1.963,1.515,8.528-8.228,22.98-2.475,28.679,6.326,4.054,6.261,4.981,14.086,4.601,21.381-.393,7.554-2.147,14.992-4.082,22.279-3.688,13.889-8.734,27.415-15.083,40.307-6.306,12.807-13.871,25.026-22.644,36.292-8.783,11.28-18.759,21.641-29.784,30.746-1.38,1.14-2.778,2.258-4.189,3.36-1.267.989.513,2.747,1.768,1.768h0Z" fill="#fff"/>
      <path d="M1511.54,393.094c-14.681-6.048-30.879-7.693-46.558-5.51-15.533,2.162-30.639,8.172-43.229,17.555-6.463,4.817-12.292,10.476-17.125,16.936-5.265,7.039-9.488,15.879-7.839,24.878,1.322,7.211,6.629,14.307,14.229,15.44,4.547.678,9.015-.72,12.969-2.91,3.858-2.137,7.964-4.993,10.715-8.486,2.538-3.223,3.309-7.237,1.718-11.075-1.514-3.652-4.632-6.533-8.281-7.992-4.602-1.84-9.761-1.489-14.531-.596-4.264.798-8.477,1.994-12.612,3.296-15.67,4.932-30.481,12.549-43.705,22.284s-24.897,21.54-34.41,34.938c-9.839,13.858-17.232,29.399-21.675,45.809-4.721,17.438-6.215,35.756-4.539,53.738s6.493,35.764,14.393,52.084c1.905,3.935,3.995,7.777,6.251,11.522.829,1.376,2.992.121,2.159-1.262-8.908-14.783-15.036-31.127-18.277-48.071s-3.591-34.628-.902-51.734c2.595-16.512,7.998-32.52,16.118-47.137,7.609-13.695,17.44-26.104,28.915-36.762,11.476-10.658,24.598-19.535,38.789-26.169,7.152-3.343,14.582-6.092,22.189-8.204,7.911-2.196,18.669-5.188,25.292,1.481,2.7,2.718,4.185,6.765,2.386,10.386-1.862,3.747-5.966,6.513-9.402,8.691-3.737,2.369-8.085,4.267-12.606,3.789-3.629-.384-6.794-2.454-9.035-5.271-5.18-6.511-4.798-15.23-1.529-22.502,3.359-7.473,9.014-13.945,14.997-19.454,11.065-10.188,24.837-17.277,39.406-20.891,14.563-3.612,30.037-3.762,44.572.075,3.572.943,7.074,2.128,10.49,3.535,1.486.612,2.134-1.805.665-2.411h0Z" fill="#fff"/>
      <path d="M1426.349,736.106c-5.423,29.113-8.652,59.167-3.655,88.584,4.021,23.672,13.917,46.661,30.252,64.471,7.813,8.518,17.121,15.736,27.536,20.789,12.526,6.077,26.339,9.019,40.189,9.772,12.187.663,25.104.203,36.749-3.795,10.392-3.569,19.917-10.653,23.211-21.543,2.928-9.681.875-21.178-6.373-28.477-6.904-6.952-17.801-8.436-26.73-4.812-4.254,1.726-8.032,4.553-10.559,8.423-3.422,5.242-3.973,11.808-3.012,17.859,1.793,11.293,8.616,21.574,17.187,28.922s19.07,12.246,30.067,14.486c12.049,2.455,24.56,1.489,36.354-1.812,24.596-6.884,45.85-23.197,62.85-41.833,16.342-17.914,29.116-38.778,39.617-60.558,10.741-22.278,19.231-45.564,27.144-68.971,1.895-5.605,3.757-11.221,5.61-16.84.505-1.531-1.908-2.188-2.411-.665-7.46,22.625-15.065,45.245-24.366,67.194-9.153,21.6-19.972,42.647-33.886,61.596-14.094,19.195-31.662,36.608-52.598,48.226-11.055,6.135-23.209,10.64-35.823,12.062-11.302,1.274-22.657-.02-33.259-4.197-9.873-3.89-19.017-10.276-25.437-18.792-3.261-4.326-5.862-9.191-7.448-14.378-1.857-6.073-2.429-13.067.394-18.952,3.971-8.278,13.896-12.17,22.679-10.992,9.959,1.337,16.765,9.447,18.408,19.069,1.775,10.397-2.613,20.608-11.047,26.821-8.945,6.591-20.492,8.762-31.359,9.411-13.402.8-27.039-.17-40.001-3.794-11.681-3.265-22.578-8.834-31.958-16.535-17.489-14.358-29.433-34.747-35.786-56.294-7.913-26.836-7.282-55.486-3.531-82.959.951-6.969,2.113-13.907,3.401-20.821.293-1.573-2.116-2.247-2.411-.665h0Z" fill="#fff"/>
      <path d="M1790.559,836.355c22.08-16.03,34.222-33.738,40.92-50.304,10.324-25.531,12.2-58.335,13.955-80.124.65-8.06-1.293-23.775-8.542-27.357-4.941-2.441-11.006,1.068-14.797,7.707-6.054,10.6-15.343,27.892-26.162,33.545-3.002,1.569-6.326,2.772-9.705,2.535-6.92-.486-11.941-6.644-15.577-12.551-26.317-42.749-27.997-76.659-48.608-123.591-2.922-6.654-7.852-8.711-11.995-6.969-2.66,1.118-4.265,3.664-5.309,6.242-2.747,6.783-2.549,11.476-2.198,18.785,1.832,38.148,17.3,59.651,22.546,97.48.465,3.356.68,7.278-1.795,9.592-3.985,3.727-10.366-.169-13.941-4.291-24.665-28.433-31.208-72.934-52.15-98.121-1.682-2.023-6.455-4.583-10.797-1.023-1.147.94-2.79,4.521-3.067,7.594-2.425,26.826,7.845,44.217,18.322,69.032,5.516,13.064,15.279,30.816,19.506,44.351.964,3.087,1.666,7.021-.837,9.07-2.953,2.418-7.289-.121-10.078-2.725-23.601-22.04-37.142-52.751-58.353-77.1-3.544-4.068-9.582-8.184-13.75-4.759-1.841,1.512-2.48,4.02-2.867,6.371-2.892,17.575,6.496,37.352,15.046,52.977s16.157,27.637,26.738,41.965c3.857,5.222,7.674,10.716,9.121,17.045.385,1.683.575,3.531-.218,5.065-2,3.869-7.841,2.648-11.629.5-22.081-12.518-35.213-36.661-56.071-51.123-2.915-2.021-7.096-3.774-9.721-1.388-1.705,1.55-1.838,4.171-1.572,6.46.793,6.83,3.98,13.128,7.344,19.125,24.52,43.707,59.106,85.549,105.612,104.221,47.19,18.946,92.665-5.19,110.63-18.233Z" fill="#ff3131"/>
      <path d="M1554.222,354.516c-26.193,7.644-43.596,20.218-55.489,33.554-18.33,20.553-31.16,50.802-40.163,70.721-3.33,7.368-6.802,22.818-1.186,28.635,3.828,3.965,10.721,2.707,16.53-2.264,9.275-7.937,23.851-21.082,35.943-22.755,3.355-.464,6.891-.476,9.991.887,6.35,2.792,9,10.282,10.431,17.07,10.356,49.121.5,81.61,4.074,132.743.507,7.25,4.453,10.849,8.942,10.607,2.882-.155,5.251-2.01,7.103-4.085,4.873-5.459,6.271-9.944,8.406-16.943,11.143-36.53,3.833-61.99,11.654-99.373.694-3.316,1.815-7.081,4.925-8.425,5.009-2.164,9.701,3.656,11.677,8.742,13.63,35.086,4.779,79.186,15.999,109.961.901,2.472,4.531,6.492,9.819,4.605,1.396-.498,4.151-3.315,5.449-6.114,11.331-24.436,7.529-44.272,6.035-71.166-.786-14.158-3.99-34.163-3.404-48.331.134-3.231.8-7.172,3.847-8.256,3.596-1.28,6.821,2.572,8.569,5.965,14.784,28.709,17.173,62.188,28.929,92.264,1.964,5.025,6.26,10.936,11.339,9.118,2.243-.803,3.691-2.948,4.848-5.03,8.65-15.57,6.483-37.354,3.704-54.947-2.779-17.593-5.888-31.467-11.017-48.524-1.869-6.217-3.61-12.677-2.837-19.122.206-1.714.65-3.518,1.913-4.695,3.187-2.968,8.274.152,11.117,3.452,16.564,19.232,20.784,46.389,35.542,67.04,2.062,2.886,5.407,5.946,8.683,4.586,2.128-.884,3.137-3.307,3.659-5.551,1.557-6.697.681-13.702-.463-20.481-8.341-49.416-26.787-100.472-64.271-133.736-38.034-33.753-88.985-26.369-110.297-20.15Z" fill="#a4ef00"/>
      <path d="M1409.777,792.821c27.161,2.599,47.983-2.637,63.97-10.621,24.638-12.304,47.757-35.651,63.496-50.821,5.822-5.611,14.768-18.677,11.705-26.16-2.088-5.101-8.957-6.485-16.193-4.018-11.554,3.939-29.962,10.751-41.814,7.828-3.289-.811-6.577-2.109-8.953-4.524-4.865-4.945-4.553-12.884-3.368-19.719,8.57-49.463,29.756-75.993,45.372-124.815,2.214-6.922-.119-11.727-4.378-13.164-2.734-.923-5.622-.077-8.111,1.165-6.548,3.266-9.507,6.915-14.082,12.626-23.878,29.807-26.516,56.164-47.624,87.993-1.873,2.824-4.308,5.906-7.695,6.002-5.454.155-7.658-6.988-7.609-12.444.332-37.639,24.884-75.327,25.858-108.068.078-2.63-1.805-7.708-7.416-7.913-1.482-.054-5.083,1.542-7.326,3.662-19.574,18.503-23.388,38.337-31.96,63.872-4.513,13.443-8.945,33.212-14.735,46.156-1.321,2.952-3.399,6.366-6.631,6.245-3.814-.143-5.384-4.915-5.75-8.714-3.102-32.143,7.076-64.126,7.294-96.417.036-5.395-1.765-12.477-7.157-12.669-2.381-.085-4.52,1.372-6.366,2.878-13.801,11.26-19.854,32.298-23.788,49.669-3.934,17.372-6.183,31.411-7.735,49.154-.566,6.467-1.341,13.112-4.446,18.813-.826,1.516-1.907,3.028-3.516,3.653-4.06,1.576-7.63-3.205-9.048-7.323-8.265-23.999-2.128-50.788-8.19-75.435-.847-3.444-2.821-7.526-6.367-7.475-2.304.033-4.138,1.91-5.455,3.802-3.926,5.644-5.706,12.475-7.154,19.197-10.551,48.992-12.322,103.249,10.179,148.028,22.832,45.437,72.895,57.446,94.994,59.561Z" fill="#ff76ff"/>
      <g>
        <path d="M1372.401,745.68c-2.691,2.288-3.239,6.412-1.658,9.485,1.666,3.237,5.564,4.897,9.078,4.414,3.352-.461,6.648-2.932,7.478-6.324.859-3.514-1.05-7.019-4.017-8.876-1.508-.944-3.369-1.456-5.15-1.311-2.195.178-4.107,1.152-5.731,2.612-1.439,1.293.688,3.409,2.121,2.121.975-.876,2.153-1.541,3.468-1.721.893-.122,2.043.048,2.87.403,2.034.872,3.712,2.831,3.656,5.117s-1.933,4.124-4.015,4.773c-2.329.725-5.027.103-6.605-1.838-1.64-2.017-1.335-5.066.625-6.734.618-.525.54-1.581,0-2.121-.612-.612-1.502-.526-2.121,0h0Z" fill="#fff"/>
        <path d="M1371.747,729.529c7.202-1.302,15.424.7,21.288,5.02,5.375,3.96,7.376,9.833,9.065,16.027.507,1.86,3.402,1.071,2.893-.798-1.43-5.244-3.052-10.52-6.799-14.617-4.213-4.606-10.132-7.317-16.209-8.379-3.65-.638-7.377-.809-11.036-.147-1.897.343-1.093,3.235.798,2.893h0Z" fill="#fff"/>
        <path d="M1367.441,705.388c11.347-1.513,23.304-1.02,33.947,3.543,9.033,3.873,17.4,10.596,21.909,19.447,2.503,4.911,3.815,10.334,4.685,15.748.305,1.901,3.197,1.094,2.893-.798-1.593-9.917-5.077-19.293-12.355-26.453-8.407-8.27-19.415-13.183-31.043-14.688-6.654-.861-13.395-.684-20.036.201-.809.108-1.491.612-1.5,1.5-.008.728.697,1.607,1.5,1.5h0Z" fill="#fff"/>
        <path d="M1365.073,677.429c17.456-2.066,36.257-2.376,52.507,5.299,13.835,6.535,24.483,18.066,31.028,31.783,3.721,7.799,6.1,16.192,7.533,24.698.32,1.9,3.212,1.094,2.893-.798-2.592-15.386-8.487-30.414-18.848-42.255-5.1-5.829-11.248-10.758-18.046-14.47-7.987-4.36-16.838-6.741-25.838-7.804-10.375-1.225-20.881-.678-31.228.547-1.894.224-1.917,3.227,0,3h0Z" fill="#fff"/>
      </g>
      <g>
        <path d="M1766.901,811.914c1.736,1.476,2.19,4.052,1.101,6.013-1.156,2.083-3.729,3.159-6.026,2.81s-4.415-1.946-4.958-4.167c-.563-2.3.925-4.443,2.711-5.533,1.066-.651,2.145-.936,3.384-.868,1.323.073,2.726.791,3.789,1.745,1.433,1.287,3.561-.828,2.121-2.121-2.747-2.468-6.369-3.357-9.817-1.856-3.017,1.314-5.432,4.511-5.295,7.882.144,3.548,2.909,6.531,6.213,7.56,3.405,1.06,7.458-.007,9.705-2.834,2.489-3.131,2.334-8.082-.806-10.752-.617-.524-1.516-.605-2.121,0-.538.538-.62,1.594,0,2.121h0Z" fill="#fff"/>
        <path d="M1770.473,790.75c-11.632-2.103-25.676,2.94-30.937,14.044-1.377,2.907-2.263,6.005-3.106,9.099-.509,1.865,2.385,2.661,2.893.798,1.689-6.194,3.69-12.067,9.065-16.027,5.864-4.32,14.087-6.322,21.288-5.02,1.888.341,2.697-2.549.798-2.893h0Z" fill="#fff"/>
        <path d="M1773.982,766.5c-11.906-1.588-24.336-.869-35.461,3.952-9.404,4.075-18.174,11.173-22.915,20.384-2.671,5.189-4.137,10.869-5.058,16.604-.303,1.889,2.587,2.702,2.893.798,1.514-9.421,4.658-18.317,11.584-25.129,8.066-7.934,18.743-12.648,29.928-13.933,6.326-.727,12.726-.516,19.029.325.81.108,1.492-.767,1.5-1.5.009-.899-.7-1.393-1.5-1.5h0Z" fill="#fff"/>
        <path d="M1776.35,738.542c-18.051-2.137-37.248-2.214-54.021,5.708-14.182,6.698-25.286,18.645-32.026,32.696-3.88,8.088-6.425,16.743-7.913,25.577-.318,1.888,2.572,2.7,2.893.798,2.503-14.857,8.057-29.481,18.077-40.931,4.947-5.654,10.844-10.4,17.439-14,7.811-4.265,16.571-6.576,25.389-7.514,10.032-1.068,20.169-.517,30.164.666,1.913.226,1.897-2.775,0-3h0Z" fill="#fff"/>
      </g>
      <g>
        <path d="M1607.802,385.374c1.92-3.128,1.16-7.6-1.686-9.932-3.037-2.488-7.553-2.636-10.787-.407-2.932,2.021-4.85,5.924-3.648,9.454,1.038,3.047,3.978,5.148,7.113,5.576,3.775.515,7.138-1.443,9.007-4.691.965-1.676-1.627-3.189-2.59-1.514-.621,1.079-1.416,1.983-2.397,2.559-.519.305-.69.376-1.227.53-.269.077-.543.139-.819.182-.28.043.35-.022-.127.011-.176.012-.35.022-.526.024-.633.007-.861-.027-1.31-.127-.541-.121-1.029-.29-1.329-.434-.985-.472-1.615-.89-2.285-1.77-.774-1.017-1.065-2.373-.748-3.607.156-.606.297-.975.534-1.426.291-.554.61-1.014,1.025-1.442,1.795-1.853,4.721-2.489,7.06-1.356,2.577,1.248,3.599,4.498,2.15,6.858-1.013,1.65,1.581,3.159,2.59,1.514h0Z" fill="#fff"/>
        <path d="M1613.542,400.405c-6.457,3.478-14.844,4.17-21.786,1.89-2.956-.971-5.614-2.557-7.821-4.753-2.273-2.263-4.049-4.955-5.803-7.624-1.056-1.607-3.655-.106-2.59,1.514,2.975,4.528,6.141,9.091,10.961,11.817,5.471,3.095,11.869,3.825,18.02,2.986,3.653-.499,7.274-1.485,10.533-3.24,1.7-.916.187-3.507-1.514-2.59h0Z" fill="#fff"/>
        <path d="M1624.758,422.197c-10.918,5.242-23.339,8.506-35.495,6.747-9.196-1.331-18.362-5.114-24.884-11.87-3.667-3.799-6.451-8.322-8.853-12.999-.882-1.718-3.472-.202-2.59,1.514,4.372,8.512,10.222,16.163,18.787,20.765,10.569,5.679,22.887,7.174,34.623,5.093,6.927-1.228,13.597-3.621,19.926-6.66,1.74-.835.22-3.423-1.514-2.59h0Z" fill="#fff"/>
        <path d="M1635.676,448.044c-16.546,7.647-35.221,13.902-53.656,10.762-14.471-2.465-27.391-10.015-37.364-20.682-5.755-6.155-10.475-13.191-14.376-20.646-.895-1.711-3.485-.196-2.59,1.514,7.053,13.479,16.978,25.718,30.027,33.778,6.426,3.969,13.539,6.849,20.926,8.431,9.203,1.97,18.654,1.699,27.867-.058,10.659-2.033,20.861-5.97,30.681-10.509,1.751-.809.228-3.396-1.514-2.59h0Z" fill="#fff"/>
      </g>
    </g>
    <g>
      <circle cx="218.692" cy="236.529" r="130.957" fill="#a4ef00"/>
      <circle cx="218.692" cy="236.529" r="64.086"/>
      <circle cx="261.5" cy="197.859" r="29.472" fill="#fff"/>
      <circle cx="173.051" cy="280.432" r="17.788" fill="#fff"/>
    </g>
    <g>
      <circle cx="1738.077" cy="249.571" r="93.665" fill="#0068ff"/>
      <circle cx="1738.077" cy="249.571" r="45.836"/>
      <circle cx="1768.696" cy="221.914" r="21.079" fill="#fff"/>
      <circle cx="1705.433" cy="280.973" r="12.723" fill="#fff"/>
    </g>
    <g>
      <path d="M346.517,772.892c-36.168,29.622-79.86,63.604-113.132,102.188-15.794,18.315-30.799,38.124-37.897,61.243-2.755,8.974-4.034,19.473,1.41,27.121,6.191,8.698,18.552,10.205,29.144,8.864,17.154-2.171,33.206-9.621,48.162-18.296,63.503-36.835,101.963-81.198,153.377-127.505" fill="#0068ff"/>
      <g clip-path="url(#clippath-5)">
        <path d="M302.382,774.997c.114,11.976,7.832,22.366,15.201,31.807,27.195,34.841,56.256,71.134,97.15,87.904,11.812,4.844,27.733,6.83,35.282-3.466,5.856-7.987,3.348-19.17-.042-28.475-12.284-33.722-32.93-64.076-58.031-89.727-11.712-11.968-25.727-23.549-42.434-24.681-18.85-1.277-35.643,10.943-50.551,22.55"/>
      </g>
      <g clip-path="url(#clippath-6)">
        <g>
          <g>
            <path d="M532.045,560.434c-45.403,9.411-94.142,1.712-134.434-21.235-100.016-56.962-131.749-190.215-224.124-258.879,37.031-27.315,87.139-31.889,132.058-21.905,44.919,9.985,83.103,23.097,124.967,57.081,36.768,29.847,77.737,81.361,102.389,121.796" fill="#ff76ff"/>
            <g clip-path="url(#clippath-7)">
              <path d="M166.39,281.174c17.034,1.11,33.944,3.849,50.464,8.15,16.448,4.282,32.499,10.093,47.867,17.353,14.625,6.909,28.93,15.038,41.947,24.669,7.695,5.694,14.629,12.407,21.298,19.251,8.071,8.283,15.761,16.93,23.392,25.616,8.425,9.589,16.764,19.252,25.259,28.78,8.617,9.664,17.386,19.201,26.551,28.35,8.773,8.758,17.911,17.189,27.707,24.797,8.765,6.807,18.082,13.025,28.177,17.689,8.998,4.157,18.653,7.066,28.597,7.539,2.324.111,4.651.082,6.971-.079.958-.066.965-1.567,0-1.5-9.834.683-19.599-1.23-28.775-4.713-10.179-3.864-19.617-9.544-28.426-15.894-9.93-7.158-19.146-15.277-27.955-23.763-9.287-8.947-18.13-18.346-26.778-27.908-8.604-9.513-17.01-19.203-25.451-28.861-7.835-8.965-15.69-17.921-23.863-26.58-6.863-7.271-13.95-14.406-21.713-20.726-4.68-3.81-9.683-7.201-14.746-10.478-7.1-4.595-14.418-8.853-21.919-12.76-14.931-7.778-30.583-14.179-46.683-19.1s-32.8-8.383-49.609-10.251c-4.096-.455-8.201-.812-12.313-1.08-.964-.063-.96,1.437,0,1.5h0Z" fill="#002135"/>
            </g>
          </g>
          <g>
            <path d="M535.416,673.922c-123.116-5.019-244.587-45.471-346.13-115.268-21.869-15.032-43.102-31.662-58.991-52.916-11.666-15.604-20.449-35.758-14.514-54.316,5.742-17.954,23.605-29.212,41.351-35.565,36.388-13.027,76.846-11.671,114.153-1.572,37.307,10.099,71.849,28.523,104.531,49.155,72.065,45.495,136.831,102.525,191.08,168.254" fill="#ff3131"/>
            <g clip-path="url(#clippath-8)">
              <path d="M69.537,436.229c20.714,5.616,41.288,11.745,61.71,18.342,20.316,6.563,40.483,13.587,60.498,21.016,20.087,7.456,40.022,15.319,59.81,23.536,19.819,8.229,39.49,16.815,59.024,25.699,19.485,8.861,38.834,18.019,58.063,27.423,19.26,9.419,38.398,19.083,57.435,28.945s38.155,20.017,57.1,30.274,37.699,20.605,56.449,31.085c18.814,10.515,37.571,21.135,56.293,31.813,18.634,10.627,37.234,21.312,55.827,32.011,4.51,2.595,9.019,5.191,13.528,7.787.838.482,1.594-.813.757-1.295-18.648-10.736-37.298-21.47-55.976-32.156-18.705-10.701-37.437-21.355-56.221-31.915-18.725-10.527-37.503-20.962-56.356-31.259s-37.899-20.519-56.985-30.522-38.225-19.797-57.504-29.366c-19.249-9.554-38.615-18.873-58.115-27.905s-39.07-17.748-58.817-26.139c-19.572-8.316-39.285-16.302-59.148-23.897-20.01-7.651-40.172-14.909-60.485-21.716s-40.827-13.179-61.46-19.037c-5.002-1.42-10.012-2.809-15.03-4.17-.933-.253-1.331,1.194-.399,1.446h0Z" fill="#002135"/>
              <path d="M289.813,515.012c-2.078-22.444-4.163-44.887-6.25-67.329-2.062-22.171-4.126-44.342-6.185-66.513-1.181-12.713-2.36-25.426-3.537-38.14-.088-.953-1.589-.962-1.5,0,2.078,22.444,4.163,44.887,6.25,67.329,2.062,22.171,4.126,44.342,6.185,66.513,1.181,12.713,2.36,25.426,3.537,38.14.088.953,1.589.962,1.5,0h0Z" fill="#002135"/>
              <path d="M329.09,531.952c-2.729-19.932-5.04-39.921-6.929-59.95-1.872-19.85-3.331-39.739-4.375-59.649-.591-11.272-1.047-22.55-1.374-33.833-.028-.963-1.528-.967-1.5,0,.582,20.094,1.58,40.176,3.002,60.229s3.265,40.075,5.528,60.05c1.269,11.2,2.672,22.385,4.201,33.553.13.952,1.576.547,1.446-.399h0Z" fill="#002135"/>
              <path d="M398.12,565.432c-16.015,3.832-31.957,7.972-47.788,12.503-15.762,4.512-31.414,9.408-46.91,14.763-15.375,5.313-30.596,11.078-45.603,17.357-14.992,6.274-29.773,13.054-44.269,20.403-14.635,7.419-28.979,15.414-42.953,24.014-1.724,1.061-3.441,2.131-5.154,3.21-.815.513-.063,1.812.757,1.295,13.836-8.713,28.041-16.833,42.55-24.372,14.433-7.5,29.161-14.429,44.112-20.835,15.026-6.439,30.28-12.343,45.694-17.787,15.382-5.432,30.925-10.403,46.581-14.984s31.563-8.807,47.478-12.695c1.967-.481,3.935-.956,5.905-1.427.938-.225.541-1.671-.399-1.446h0Z" fill="#002135"/>
              <path d="M220.135,485.223c-19.65,5.226-39.032,11.402-58.358,17.705-19.314,6.298-38.578,12.763-58.024,18.647-10.486,3.173-21.027,6.172-31.659,8.821-.936.233-.54,1.68.399,1.446,19.204-4.785,38.113-10.683,56.938-16.767,19.475-6.294,38.871-12.838,58.418-18.907,10.835-3.364,21.718-6.582,32.683-9.498.932-.248.537-1.695-.399-1.446h0Z" fill="#002135"/>
              <path d="M174.98,468.222c-14.68,3.093-29.37,6.137-44.004,9.443-15.315,3.46-30.578,7.19-45.663,11.555-8.269,2.393-16.482,4.982-24.6,7.848-.904.319-.515,1.769.399,1.446,14.516-5.125,29.33-9.37,44.242-13.177,15.115-3.858,30.343-7.256,45.596-10.516,8.138-1.739,16.285-3.438,24.428-5.153.944-.199.545-1.645-.399-1.446h0Z" fill="#002135"/>
              <path d="M470.407,603.141c-5.676-29.788-9.266-59.972-11.78-90.18-.709-8.517-1.32-17.043-1.838-25.574-.058-.959-1.559-.966-1.5,0,1.865,30.686,4.849,61.341,9.498,91.736,1.248,8.163,2.629,16.305,4.175,24.417.18.947,1.626.546,1.446-.399h0Z" fill="#002135"/>
            </g>
          </g>
          <g>
            <path d="M338.885,1007.799c.027,7.331,1.657,14.72,5.777,20.876,3.554,5.312,8.619,9.397,14.279,12.294,12.489,6.392,26.698,7.486,40.456,8.327,20.897,1.276,41.82,2.099,62.749,2.639,21.768.561,43.542.812,65.317.888,22.357.078,44.714-.031,67.07-.211s44.862-.434,67.293-.652c22.232-.217,44.464-.401,66.697-.439,15.722-.027,31.444-.017,47.165-.012,16.472.006,32.944.017,49.415.026,17.474.009,34.948.015,52.422.011,18.227-.004,36.455-.02,54.682-.053,18.732-.034,37.465-.087,56.197-.165,18.989-.08,37.977-.186,56.965-.327,18.996-.141,37.992-.317,56.987-.537,18.821-.218,37.641-.481,56.461-.8,18.264-.31,36.526-.673,54.787-1.106,17.525-.416,35.048-.896,52.569-1.464,16.538-.536,33.074-1.148,49.604-1.87,15.303-.668,30.602-1.428,45.894-2.325,14.136-.829,30.391-4.529,40.021-15.783,4.682-5.472,7.005-12.285,7.042-19.46.01-1.931-2.99-1.933-3,0-.037,7.209-2.629,13.928-7.747,19.049-5.033,5.036-11.685,8.19-18.438,10.202-7.181,2.14-14.49,2.801-21.934,3.226-7.488.427-14.977.823-22.468,1.192-15.933.785-31.873,1.453-47.814,2.038-16.95.623-33.903,1.152-50.858,1.612-17.844.485-35.69.894-53.537,1.246-18.436.363-36.872.666-55.31.921-18.716.259-37.433.469-56.149.642-18.888.174-37.776.309-56.664.415-18.749.105-37.499.18-56.248.233-18.367.052-36.734.083-55.102.099-17.68.016-35.36.018-53.039.014-16.876-.004-33.753-.015-50.629-.024-15.765-.009-31.53-.017-47.295-.014-18.748.003-37.495.032-56.242.161-22.214.153-44.427.395-66.64.62-22.243.225-44.486.435-66.73.521-21.93.085-43.861.052-65.79-.217-21.278-.262-42.555-.746-63.818-1.596-10.214-.408-20.425-.902-30.63-1.502-7.515-.442-15.06-.782-22.493-2.041-12.173-2.062-25.584-6.443-32.831-17.175-3.892-5.765-5.418-12.587-5.443-19.475-.007-1.93-3.007-1.934-3,0h0Z" fill="#a4ef00"/>
            <path d="M1237.702,760.084c2.701-90.321,10.94-191.616,7.783-281.922-1.608-45.992.225-92.264-10.346-137.054-4.205-17.817-10.114-36.066-22.945-49.122-17.55-17.856-44.046-24.189-69.04-25.655-207.451-12.168-385.056-11.558-568.77,0-25.643,1.613-58.632,11.267-73.767,32.029-10.197,13.989-15.505,50.275-16.537,84.568-3.798,126.214-1.787,272.651-.508,397.815,0,0-118.381,140.508-147.19,220.22-1.928,5.334-.213,27.873,35.6,27.873,157.826,0,872.275-7.424,1014.67-10.72,23.352-.541,30.868-10.461,18.441-29.632-42.611-65.739-167.389-228.399-167.389-228.399Z" fill="#a4ef00"/>
            <path d="M1271.066,963.736H466.799c-4.795,0-9.05-2.502-11.381-6.692-2.332-4.19-2.213-9.125.315-13.199l88.301-142.281c2.392-3.854,6.529-6.156,11.066-6.156h619.504c4.323,0,8.354,2.137,10.78,5.715l96.462,142.281c2.753,4.062,3.024,9.074.727,13.41-2.299,4.335-6.601,6.923-11.507,6.923ZM555.1,797.407c-3.84,0-7.342,1.948-9.367,5.211l-88.301,142.281c-2.141,3.449-2.24,7.625-.267,11.172,1.973,3.548,5.575,5.665,9.634,5.665h804.268c4.153,0,7.794-2.19,9.739-5.86,1.946-3.669,1.716-7.912-.615-11.35l-96.462-142.281c-2.054-3.029-5.465-4.838-9.124-4.838h-619.504Z" fill="#002135"/>
            <path d="M1202.34,830.824h-674.667c-.552,0-1-.447-1-1s.448-1,1-1h674.667c.553,0,1,.447,1,1s-.447,1-1,1Z" fill="#002135"/>
            <path d="M1243.677,890.438H490.675c-.552,0-1-.447-1-1s.448-1,1-1h753.002c.553,0,1,.447,1,1s-.447,1-1,1Z" fill="#002135"/>
            <path d="M567.1,963.736c-.106,0-.215-.017-.321-.053-.523-.178-.803-.745-.626-1.269l56.402-166.329c.178-.521.745-.803,1.269-.626.523.178.803.745.626,1.269l-56.402,166.329c-.142.416-.53.679-.947.679Z" fill="#002135"/>
            <path d="M674.933,963.736c-.073,0-.146-.008-.22-.024-.539-.121-.878-.655-.757-1.194l37.315-166.329c.121-.539.658-.876,1.194-.757.539.121.878.655.757,1.194l-37.315,166.329c-.104.466-.517.781-.975.781Z" fill="#002135"/>
            <path d="M782.766,963.736c-.037,0-.074-.002-.111-.006-.549-.061-.945-.555-.885-1.104l18.324-166.329c.061-.549.559-.939,1.104-.885.549.061.945.555.885,1.104l-18.324,166.329c-.057.512-.49.891-.993.891Z" fill="#002135"/>
            <path d="M907.415,963.736c-.531,0-.973-.418-.998-.953l-7.753-166.329c-.025-.552.401-1.021.953-1.046.536-.04,1.02.4,1.045.952l7.753,166.329c.025.552-.401,1.021-.953,1.046-.016,0-.031,0-.047,0Z" fill="#002135"/>
            <path d="M1036.37,963.736c-.459,0-.873-.318-.976-.785l-36.649-166.329c-.119-.539.222-1.072.762-1.191.535-.119,1.073.223,1.191.762l36.649,166.329c.119.539-.222,1.072-.762,1.191-.072.016-.145.023-.216.023Z" fill="#002135"/>
            <path d="M1156.299,963.736c-.401,0-.78-.243-.933-.641l-64.135-166.329c-.199-.515.058-1.094.573-1.292.514-.2,1.094.057,1.292.573l64.135,166.329c.199.515-.058,1.094-.573,1.292-.118.046-.239.067-.359.067Z" fill="#002135"/>
          </g>
          <g>
            <rect x="982.752" y="330.441" width="197.779" height="140.017" fill="#ff3131"/>
            <g>
              <path d="M1024.089,398.65l9.604-3.201,1,3.201-9.604,3.135,6.069,8.136-2.467,1.935-6.269-8.337-5.936,8.337-2.668-1.935,6.069-8.136-9.737-3.335.934-3.001,9.804,3.201v-10.137h3.201v10.137Z" fill="#fff"/>
              <path d="M1053.7,398.65l9.604-3.201,1,3.201-9.604,3.135,6.069,8.136-2.467,1.935-6.269-8.337-5.936,8.337-2.668-1.935,6.069-8.136-9.737-3.335.934-3.001,9.804,3.201v-10.137h3.201v10.137Z" fill="#fff"/>
              <path d="M1083.31,398.65l9.604-3.201,1,3.201-9.604,3.135,6.069,8.136-2.467,1.935-6.269-8.337-5.936,8.337-2.668-1.935,6.069-8.136-9.737-3.335.934-3.001,9.804,3.201v-10.137h3.201v10.137Z" fill="#fff"/>
              <path d="M1112.921,398.65l9.604-3.201,1,3.201-9.604,3.135,6.069,8.136-2.467,1.935-6.269-8.337-5.936,8.337-2.668-1.935,6.069-8.136-9.737-3.335.934-3.001,9.804,3.201v-10.137h3.201v10.137Z" fill="#fff"/>
              <path d="M1142.531,398.65l9.604-3.201,1,3.201-9.604,3.135,6.069,8.136-2.467,1.935-6.269-8.337-5.936,8.337-2.668-1.935,6.069-8.136-9.737-3.335.934-3.001,9.804,3.201v-10.137h3.201v10.137Z" fill="#fff"/>
            </g>
          </g>
          <rect x="982.752" y="463.746" width="197.779" height="140.017"/>
          <rect x="982.752" y="603.406" width="197.779" height="140.017" fill="#0068ff"/>
          <rect x="548.328" y="330.441" width="434.425" height="412.982" fill="#ff76ff"/>
          <g clip-path="url(#clippath-9)">
            <g>
              <path d="M1021.466,477.276c-3.308.023-6.616.045-9.924.068l-23.829.163-28.819.198c-8.27.057-16.54.113-24.81.17-4.031.028-8.103-.11-12.131.083-.057.003-.115,0-.173.001-.513.004-1.049.279-1.295.743-5.444,10.228-10.889,20.455-16.333,30.683-.783,1.471-1.566,2.941-2.349,4.412l1.295-.743c-6.483.044-12.967.089-19.45.133-10.333.071-20.666.142-30.999.213-2.37.016-4.741.033-7.111.049-1.93.013-1.934,3.013,0,3,6.483-.044,12.967-.089,19.45-.133,10.333-.071,20.666-.142,30.999-.213,2.37-.016,4.741-.033,7.111-.049.513-.004,1.049-.279,1.295-.743,5.444-10.228,10.889-20.455,16.333-30.683.783-1.471,1.566-2.941,2.349-4.412l-1.295.743c3.308-.023,6.616-.045,9.924-.068l23.829-.163,28.819-.198c8.27-.057,16.54-.113,24.81-.17,4.031-.028,8.103.11,12.131-.083.057-.003.115,0,.173-.001,1.93-.013,1.934-3.013,0-3h0Z" fill="#ff3131"/>
              <path d="M845.747,546.921c1.576-.011,3.152-.022,4.728-.032l12.786-.088c6.332-.043,12.664-.087,18.996-.13,7.688-.053,15.377-.105,23.065-.158,8.462-.058,16.925-.116,25.387-.174s17.003-.117,25.505-.175c7.966-.055,15.933-.109,23.899-.164l20.104-.138,14.533-.1c2.285-.016,4.579.031,6.863-.047.101-.003.202-.001.302-.002,1.93-.013,1.934-3.013,0-3-1.576.011-3.152.022-4.728.032l-12.786.088c-6.332.043-12.664.087-18.996.13-7.688.053-15.377.105-23.065.158-8.462.058-16.925.116-25.387.174s-17.003.117-25.505.175c-7.966.055-15.933.109-23.899.164l-20.104.138-14.533.1c-2.285.016-4.579-.031-6.863.047-.101.003-.202.001-.302.002-1.93.013-1.934,3.013,0,3h0Z" fill="#ff3131"/>
              <path d="M521.375,549.423c1.576-.011,3.152-.022,4.728-.032,4.262-.029,8.524-.058,12.786-.088,6.332-.043,12.664-.087,18.996-.13l23.065-.158c8.462-.058,16.925-.116,25.387-.174l25.505-.175c7.966-.055,15.933-.109,23.899-.164l20.104-.138,14.533-.1c2.285-.016,4.579.031,6.863-.047.101-.003.202-.001.302-.002,1.93-.013,1.934-3.013,0-3-1.576.011-3.152.022-4.728.032l-12.786.088c-6.332.043-12.664.087-18.996.13l-23.065.158c-8.462.058-16.925.116-25.387.174l-25.505.175c-7.966.055-15.933.109-23.899.164-6.701.046-13.403.092-20.104.138-4.844.033-9.688.066-14.533.1-2.285.016-4.579-.031-6.863.047-.101.003-.202.001-.302.002-1.93.013-1.934,3.013,0,3h0Z" fill="#ff3131"/>
              <path d="M845.915,571.45c12.258-.084,24.516-.168,36.774-.252,1.756-.012,3.512-.024,5.267-.036l-1.061-.439c2.799,3.472,5.609,6.935,8.427,10.391,3.714,4.554,7.353,9.217,11.299,13.575.4.442.849,1.019,1.451,1.179.294.078,1.755-.197.852-.004-.677.144-.368.032-.179.035.769.014,1.549-.049,2.319-.063,3.669-.068,7.338-.099,11.007-.133,12.518-.115,25.037-.187,37.555-.258,13.551-.076,27.103-.143,40.654-.205,7.21-.033,14.448.123,21.656-.094.105-.003.211,0,.317-.001,1.93-.008,1.934-3.008,0-3-2.641.011-5.283.022-7.924.033-6.687.029-13.375.059-20.062.09-8.756.041-17.512.084-26.269.131-8.976.048-17.953.099-26.929.159-7.199.048-14.397.098-21.595.17-3.539.036-7.125-.071-10.658.167-.094.006-.187.008-.281.02-.254.033-.394.037-.61.136-.741.34,1.423.054,1.269.052.17.001.292.342.165.114-.423-.76-1.357-1.486-1.925-2.15-2.564-2.994-5.059-6.048-7.556-9.097-2.652-3.239-5.293-6.487-7.927-9.74-.797-.984-1.593-1.969-2.389-2.954-.488-.605-.78-1.036-1.664-1.113-1.994-.175-4.095.028-6.094.042l-12.256.084c-7.432.051-14.865.102-22.297.153l-1.334.009c-1.93.013-1.934,3.013,0,3h0Z" fill="#ff3131"/>
              <path d="M1022.421,616.676c-5.953.041-11.905.082-17.858.122-13.333.091-26.665.183-39.998.274-13.892.095-27.784.19-41.675.286-7.751.053-15.502.106-23.253.159-.744.005-1.289.06-1.905.605-1.664,1.472-3.258,3.033-4.884,4.547-4.629,4.309-9.258,8.618-13.887,12.927l-.979.912,1.061-.439c-9.545.065-19.091.131-28.636.196-1.342.009-2.684.018-4.026.028-1.93.013-1.934,3.013,0,3,8.864-.061,17.727-.122,26.591-.182l5.21-.036c.931-.006,1.596-.141,2.305-.802,3.314-3.085,6.629-6.17,9.943-9.256,3.199-2.978,6.398-5.956,9.598-8.934l-1.061.439c4.111-.028,8.221-.056,12.332-.085l29.476-.202c11.878-.081,23.756-.163,35.634-.244,10.269-.07,20.537-.141,30.806-.211,4.985-.034,10.012.12,14.993-.103.071-.003.143,0,.215-.001,1.93-.013,1.934-3.013,0-3h0Z" fill="#ff3131"/>
              <path d="M800.206,651.762c.02,2.96.041,5.92.061,8.88l.043,6.315c.008,1.148-.085,2.348.024,3.492.092.96.634,1.297,1.29,1.862l3.279,2.828,9.815,8.462c2.184,1.883,4.368,3.766,6.552,5.649l-.439-1.061c.061,8.908.122,17.816.183,26.724.097,14.099.193,28.198.29,42.298.022,3.25.045,6.5.067,9.75.013,1.93,3.013,1.934,3,0-.031-4.532-.062-9.064-.093-13.596l-.199-29.034c-.062-9.078-.124-18.156-.187-27.234l-.052-7.573c-.003-.428.033-.877-.009-1.303-.099-1.004-.847-1.444-1.549-2.049-6.288-5.422-12.577-10.844-18.865-16.266l-.521-.449.439,1.061c-.043-6.252-.086-12.504-.129-18.756-.013-1.93-3.013-1.934-3,0h0Z" fill="#ff3131"/>
              <path d="M764.491,652.007c.055,8.079.111,16.158.166,24.237.008,1.141.016,2.283.023,3.424l.439-1.061c-5.428,4.65-10.856,9.3-16.284,13.95l-3.617,3.099c-.659.565-1.321.963-1.41,1.912-.125,1.319.019,2.719.028,4.041l.154,22.492c.063,9.216.126,18.432.19,27.648.035,5.159-.117,10.358.106,15.513.003.076.001.152.002.228.013,1.93,3.013,1.934,3,0-.054-7.888-.108-15.776-.162-23.664-.086-12.56-.172-25.119-.258-37.679-.02-2.866-.039-5.732-.059-8.597l-.439,1.061c6.172-5.287,12.344-10.575,18.516-15.862.755-.647,1.687-1.263,2.347-2.011.684-.775.441-2.135.435-3.095-.032-4.723-.065-9.446-.097-14.169-.026-3.822-.052-7.644-.079-11.467-.013-1.93-3.013-1.934-3,0h0Z" fill="#ff3131"/>
              <path d="M751.992,484.11c-.06-8.684-.119-17.369-.179-26.053-.008-1.236-.017-2.472-.025-3.709l-.439,1.061c5.858-5.019,11.717-10.038,17.575-15.056,1.008-.864,2.053-1.699,3.031-2.597.481-.441.688-.946.703-1.592.043-1.881-.026-3.772-.039-5.653-.058-8.408-.115-16.816-.173-25.224-.068-9.847-.135-19.694-.203-29.541-.037-5.424.111-10.885-.112-16.305-.003-.079-.001-.158-.002-.237-.013-1.93-3.013-1.934-3,0,.06,8.699.119,17.399.179,26.098.095,13.868.19,27.737.285,41.605.022,3.186.044,6.373.066,9.559l.439-1.061c-6.37,5.457-12.739,10.914-19.109,16.37-.81.694-2.088,1.42-2.203,2.574-.096.966.014,1.997.02,2.966.035,5.085.07,10.169.105,15.254.026,3.846.053,7.693.079,11.539.013,1.93,3.013,1.934,3,0h0Z" fill="#ff3131"/>
              <path d="M697.329,514.1c-10.814.074-21.628.148-32.442.222-1.525.01-3.051.021-4.576.031l1.061.439c-7.887-7.779-15.774-15.559-23.66-23.338l-4.318-4.259c-.575-.567-1.126-.918-1.951-.933-2.628-.046-5.266.036-7.894.054-12.076.083-24.151.166-36.227.248-14.192.097-28.383.195-42.575.292-7.8.053-15.627-.079-23.424.161-.118.004-.237.002-.355.002-1.93.013-1.934,3.013,0,3,3.674-.025,7.349-.05,11.023-.076l26.473-.181c10.676-.073,21.352-.146,32.028-.22,9.23-.063,18.46-.127,27.69-.19l9.127-.063c1.393-.01,2.949.175,4.332-.03.06-.009.127,0,.189-.001l-1.061-.439c8.087,7.977,16.174,15.954,24.262,23.931,1.325,1.307,2.624,2.65,3.98,3.926.902.849,1.916.672,3.073.664,6.324-.043,12.649-.087,18.973-.13,5.424-.037,10.849-.074,16.273-.112,1.93-.013,1.934-3.013,0-3h0Z" fill="#ff3131"/>
              <path d="M714.103,652.352c.026,3.835.053,7.669.079,11.504.063,9.165.126,18.331.189,27.496.076,11.126.153,22.252.229,33.377l.197,28.749c.032,4.657-.11,9.354.096,14.007.003.068,0,.137.001.205.013,1.93,3.013,1.934,3,0-.026-3.835-.053-7.669-.079-11.504-.063-9.165-.126-18.331-.189-27.496-.076-11.126-.153-22.252-.229-33.377l-.197-28.749c-.032-4.657.11-9.354-.096-14.007-.003-.068,0-.137-.001-.205-.013-1.93-3.013-1.934-3,0h0Z" fill="#ff3131"/>
              <path d="M697.818,585.471c-10.258.07-20.516.141-30.775.211-1.456.01-2.912.02-4.368.03l1.061.439c-3.614-3.565-7.229-7.13-10.843-10.695l-6.628-6.538c-.791-.78-1.685-2.042-2.86-2.147-1.931-.172-3.969.027-5.905.04l-13.459.092c-13.39.092-26.78.184-40.171.275-13.568.093-27.136.186-40.704.279-7.103.049-14.236-.087-21.336.146-.103.003-.206.001-.31.002-1.93.013-1.934,3.013,0,3,4.048-.028,8.096-.056,12.144-.083,9.719-.067,19.439-.133,29.158-.2,11.754-.081,23.508-.161,35.262-.242,10.123-.069,20.247-.139,30.37-.208l10.048-.069c1.538-.011,3.237.181,4.764-.033.066-.009.139,0,.206-.001l-1.061-.439c6.247,6.161,12.493,12.323,18.74,18.484.689.68,1.338.898,2.288.891l5.155-.035c5.769-.04,11.539-.079,17.308-.119,3.972-.027,7.944-.054,11.917-.082,1.93-.013,1.934-3.013,0-3h0Z" fill="#ff3131"/>
              <path d="M697.313,622.378c.043-.026.485-.208.229-.113-.242.09.468-.03.101-.015-.302.012-.604.046-.906.062-.999.053-2,.079-3.001.103-3.352.083-6.705.117-10.058.148-9.371.086-18.743.104-28.114.113-7.798.007-15.595.002-23.393-.013-1.359-.003-2.797-.141-4.152-.009-.917.089-1.367.742-1.952,1.361l-3.171,3.349c-5.511,5.819-11.022,11.637-16.532,17.456l-.374.395,1.061-.439c-9.575.066-19.149.131-28.724.197-15.259.105-30.517.209-45.776.314-3.499.024-6.998.048-10.497.072-1.93.013-1.934,3.013,0,3,4.97-.034,9.939-.068,14.909-.102,10.611-.073,21.222-.145,31.833-.218l29.335-.201,7.806-.054c.365-.003.75.031,1.114-.008,1.108-.118,1.898-1.323,2.613-2.078,6.297-6.648,12.593-13.296,18.89-19.944l.509-.537-1.061.439c7.891.022,15.782.028,23.673.025,12.55-.005,25.102.002,37.651-.18,2.104-.031,4.208-.062,6.311-.139.932-.034,2.358.115,3.192-.391,1.649-1,.143-3.595-1.514-2.59h0Z" fill="#ff3131"/>
              <path d="M723.705,484.304c-.073-10.673-.146-21.347-.22-32.02l-.044-6.414c-.007-1.069-.079-1.823-.881-2.615l-11.818-11.657c-3.729-3.678-7.458-7.356-11.187-11.035l.439,1.061c-.048-6.963-.095-13.927-.143-20.89-.076-11.111-.152-22.222-.229-33.333-.018-2.567-.035-5.133-.053-7.7-.013-1.93-3.013-1.934-3,0,.031,4.486.062,8.973.092,13.459l.183,26.738.137,20.053c.004.52-.032,1.058.011,1.576.063.754.413,1.129.902,1.612l6.582,6.493c3.226,3.182,6.452,6.364,9.678,9.546,2.121,2.092,4.178,4.291,6.382,6.295.116.105.224.221.335.33l-.439-1.061c.079,11.573.159,23.146.238,34.72.011,1.613.022,3.227.033,4.84.013,1.93,3.013,1.934,3,0h0Z" fill="#ff3131"/>
              <path d="M794.039,359.034c.028,4.151.057,8.301.085,12.452.068,9.923.136,19.845.204,29.768.083,12.039.165,24.078.248,36.117.071,10.366.142,20.733.213,31.099.034,5.025-.115,10.091.104,15.112.003.071,0,.142.001.213.013,1.93,3.013,1.934,3,0-.028-4.151-.057-8.301-.085-12.452-.068-9.923-.136-19.845-.204-29.768-.083-12.039-.165-24.078-.248-36.117-.071-10.366-.142-20.733-.213-31.099-.034-5.025.115-10.091-.104-15.112-.003-.071,0-.142-.001-.213-.013-1.93-3.013-1.934-3,0h0Z" fill="#ff3131"/>
              <path d="M822.379,359.598c-.105-.198-.152-.615-.147-.397.006.251.037.505.05.757.048.9.071,1.801.095,2.701.082,3.105.124,6.212.164,9.318.128,9.97.188,19.941.244,29.911.066,11.935.111,23.869.148,35.804.031,10.267.055,20.535.074,30.802.009,4.951-.179,9.946.022,14.893.003.071,0,.143,0,.215.002,1.93,3.002,1.934,3,0-.004-4.132-.011-8.265-.018-12.397-.017-9.886-.039-19.771-.067-29.657-.035-12.01-.078-24.02-.14-36.031-.054-10.372-.114-20.745-.234-31.116-.04-3.44-.083-6.88-.159-10.32-.037-1.657-.015-3.343-.191-4.993-.043-.401-.064-.65-.252-1.004-.905-1.706-3.495-.192-2.59,1.514h0Z" fill="#ff3131"/>
              <g>
                <g>
                  <polygon points="820.407 520.68 710.673 539.929 761.35 568.055 790.101 627.392 820.407 520.68" fill="#0068ff"/>
                  <path d="M820.008,519.233c-3.658.642-7.317,1.283-10.975,1.925-8.7,1.526-17.399,3.052-26.099,4.578-10.6,1.859-21.201,3.719-31.801,5.578-9.098,1.596-18.195,3.192-27.293,4.788l-9.077,1.592c-1.422.249-2.902.407-4.304.755-.06.015-.124.022-.185.033-1.294.227-1.424,2.15-.358,2.742,6.354,3.527,12.708,7.053,19.062,10.58,9.287,5.154,18.574,10.308,27.86,15.462l3.197,1.774c.117.065.401.301.541.3-.405.003-.617-.903-.386-.247.304.861.822,1.697,1.22,2.518l2.271,4.688c4.84,9.988,9.68,19.977,14.52,29.965,3.471,7.163,6.738,14.475,10.431,21.527.061.117.115.238.173.357.581,1.2,2.409.813,2.742-.358,1.004-3.537,2.009-7.074,3.013-10.61,2.412-8.494,4.824-16.988,7.237-25.482,2.918-10.277,5.837-20.553,8.755-30.83,2.523-8.885,5.046-17.769,7.57-26.654,1.222-4.303,2.648-8.601,3.679-12.955.014-.061.034-.121.052-.182.528-1.86-2.365-2.655-2.893-.798-1.004,3.537-2.009,7.074-3.013,10.61-2.412,8.494-4.824,16.988-7.237,25.482-2.918,10.277-5.837,20.553-8.755,30.83-2.523,8.885-5.046,17.769-7.57,26.654l-2.495,8.785c-.383,1.348-.979,2.78-1.184,4.17-.009.061-.035.123-.052.182l2.742-.358c-2.948-6.083-5.895-12.166-8.843-18.25-4.972-10.261-9.944-20.523-14.917-30.784l-4.459-9.203c-.3-.62-.501-1.227-1.079-1.642-.532-.383-1.187-.659-1.759-.976-8.621-4.785-17.242-9.569-25.862-14.354l-14.464-8.028c-2.71-1.504-5.389-3.216-8.191-4.546-.134-.064-.263-.146-.393-.218l-.358,2.742c3.658-.642,7.317-1.283,10.975-1.925,8.7-1.526,17.399-3.052,26.099-4.578,10.6-1.859,21.201-3.719,31.801-5.578,9.098-1.596,18.195-3.192,27.293-4.788l9.077-1.592c1.422-.249,2.902-.407,4.304-.755.06-.015.124-.022.185-.033,1.898-.333,1.094-3.225-.798-2.893Z" fill="#0068ff"/>
                </g>
                <path d="M819.346,519.619c-6.681,5.359-13.362,10.719-20.043,16.078-10.57,8.479-21.14,16.958-31.71,25.437-2.435,1.953-4.869,3.906-7.304,5.859-1.506,1.208.629,3.319,2.121,2.121,6.681-5.359,13.362-10.719,20.043-16.078,10.57-8.479,21.14-16.958,31.71-25.437,2.435-1.953,4.869-3.906,7.304-5.859,1.506-1.208-.629-3.319-2.121-2.121h0Z" fill="#14162b"/>
              </g>
            </g>
            <g>
              <g>
                <circle cx="566.042" cy="344.946" r="5.656" fill="#ff3131"/>
                <circle cx="587.371" cy="344.946" r="5.656" fill="#0068ff"/>
                <circle cx="608.7" cy="344.946" r="5.656" fill="#a4ef00"/>
              </g>
              <rect x="549.432" y="356.224" width="433.32" height="2" fill="#ff3131"/>
            </g>
          </g>
          <g>
            <path d="M1072.28,664.589c0-8.66,0-17.32,0-25.981,0-13.79,0-27.581,0-41.371,0-3.148,0-6.296,0-9.443l-.743,1.295c8.054-3.727,16.107-7.453,24.161-11.18l3.46-1.601c.466-.216.743-.806.743-1.295v-30.246c0-1.93-3-1.934-3,0v30.246l.743-1.295c-8.054,3.727-16.107,7.453-24.161,11.18l-3.46,1.601c-.466.216-.743.806-.743,1.295,0,8.66,0,17.32,0,25.981,0,13.79,0,27.581,0,41.371,0,3.148,0,6.296,0,9.443,0,1.93,3,1.934,3,0h0Z" fill="#a4ef00"/>
            <path d="M1127.114,538.111v53.651l1.5-1.5h-20.173c-.811,0-1.5.687-1.5,1.5v37.151c0,1.93,3,1.934,3,0v-37.151l-1.5,1.5h20.173c.811,0,1.5-.687,1.5-1.5v-53.651c0-1.93-3-1.934-3,0h0Z" fill="#a4ef00"/>
            <path d="M1063.275,558.875c-8.948,8.265-17.895,16.531-26.843,24.796-.87.803-2.494,1.825-2.623,3.102-.061.602,0,1.242,0,1.847v100.768c0,8.413-.207,16.857,0,25.268.003.122,0,.244,0,.366,0,.811.687,1.5,1.5,1.5h78.777c3.629,0,7.303.169,10.929,0,.051-.002.103,0,.154,0,.811,0,1.5-.687,1.5-1.5v-30.07c0-1.93-3-1.934-3,0v30.07l1.5-1.5h-86.161c-1.131,0-2.424-.176-3.545,0-.049.008-.104,0-.154,0l1.5,1.5v-123.004c0-1.639.198-3.419,0-5.049-.009-.071,0-.147,0-.219l-.439,1.061c8.492-7.844,16.984-15.689,25.476-23.533l3.551-3.281c1.421-1.313-.704-3.43-2.121-2.121h0Z" fill="#a4ef00"/>
            <g>
              <path d="M1080.714,625.997c-.526.065-1.052.138-1.576.221-4.176.655-8.267,1.84-12.16,3.485-3.596,1.519-6.957,3.53-9.953,6.036-2.972,2.485-5.547,5.436-7.636,8.697-2.154,3.361-3.784,7.053-4.891,10.885-1.172,4.056-1.878,8.342-1.699,12.572.186,4.377,1.196,8.712,2.784,12.787,1.587,4.074,3.746,7.927,6.464,11.356,2.619,3.305,5.848,6.104,9.313,8.492,3.575,2.464,7.525,4.412,11.727,5.537,2.209.591,4.481.953,6.764,1.085,1.837.105,3.683.043,5.52-.052,3.33-.172,6.658-.557,9.917-1.276,1.179-.26,2.348-.571,3.504-.925-5.574-12.315-8.972-23.23-15.63-37.23-.088-14.237-1.045-27.919-2.446-41.669Z"/>
              <path d="M1125.118,696.841c1.481-1.595,2.813-3.326,4.005-5.146,2.64-4.058,4.674-8.52,5.956-13.191,1.269-4.623,1.807-9.469,1.438-14.254-.322-4.182-1.375-8.203-3.112-12.018-1.434-3.151-3.28-6.109-5.422-8.83-11.56,8.417-23.293,16.882-34.695,26.167,6.658,14,10.056,24.915,15.63,37.23,2.328-.714,4.597-1.619,6.756-2.749,3.527-1.846,6.734-4.291,9.443-7.209Z" fill="#ff76ff"/>
              <path d="M1123.675,633.004c-.876-1.005-1.802-1.968-2.764-2.893-2.244-2.159-4.709-4.092-7.362-5.718-4.085-2.504-8.613-4.185-13.346-4.937-4.032-.64-8.132-.644-12.176-.141,1.401,13.75,2.358,27.432,2.446,41.669,11.402-9.285,23.136-17.749,34.695-26.167-.485-.615-.979-1.223-1.493-1.812Z" fill="#ff3131"/>
            </g>
            <path d="M1115.253,499.482c-5.334-6.463-12.602-10.342-20.149-12.345l2.934-1.729-15.359.016c-.803-.016-1.6-.017-2.386.002h-.074s0,.003,0,.003c-6.15.16-10.173,1.707-14.099,3.516-18.707,8.617-23.659,26.905-21.01,44.185,2.649,17.28,14.426,31.239,31.712,33.846,2.759.416,5.561.552,8.351.427l16.379.047-6.487-1.614c10.917-3.004,20.568-10.104,25.294-20.419,6.76-14.755,4.726-34.026-5.104-45.936Z" fill="#ff3131"/>
            <g clip-path="url(#clippath-10)">
              <path d="M1054.292,491.936c6.946-1.933,14.35-1.538,21.49-1.619,7.481-.085,14.962-.17,22.443-.255,1.929-.022,1.934-3.022,0-3-7.647.087-15.295.174-22.942.261-7.253.082-14.733-.243-21.789,1.721-1.857.517-1.068,3.412.798,2.893h0Z"/>
              <path d="M1047.561,498.065c13.855-.334,27.696-1.131,41.498-2.391,1.907-.174,1.925-3.176,0-3-13.802,1.26-27.642,2.057-41.498,2.391-1.927.046-1.934,3.047,0,3h0Z"/>
              <path d="M1039.768,507.328c14.26-.831,28.556-.859,42.819-.084,1.929.105,1.923-2.895,0-3-14.263-.775-28.559-.747-42.819.084-1.919.112-1.932,3.113,0,3h0Z"/>
              <path d="M1033.103,517.702c14.114-1.208,28.293-1.515,42.447-.919,1.93.081,1.927-2.919,0-3-14.153-.596-28.332-.289-42.447.919-1.909.163-1.927,3.165,0,3h0Z"/>
              <path d="M1034.894,527.662c13.12-.422,26.199-1.663,39.169-3.684,1.902-.296,1.094-3.188-.798-2.893-12.704,1.98-25.521,3.164-38.371,3.577-1.926.062-1.934,3.062,0,3h0Z"/>
              <path d="M1040.867,550.799c6.864-1.48,13.935-1.491,20.89-2.293s13.777-2.055,20.528-3.771c1.87-.475,1.078-3.369-.798-2.893-6.8,1.728-13.712,3.012-20.689,3.771-6.911.752-13.912.822-20.729,2.292-1.886.407-1.088,3.299.798,2.893h0Z"/>
              <path d="M1048.686,558.783c11.283-1.078,22.61-1.629,33.945-1.653,1.93-.004,1.934-3.004,0-3-11.335.023-22.662.575-33.945,1.653-1.905.182-1.924,3.184,0,3h0Z"/>
              <path d="M1059.47,566.71c10.304-.832,20.608-1.663,30.912-2.495,1.911-.154,1.928-3.156,0-3-10.304.832-20.608,1.663-30.912,2.495-1.911.154-1.928,3.156,0,3h0Z"/>
              <path d="M1038.299,539.203c11.493-.657,22.967-1.594,34.414-2.811,1.9-.202,1.921-3.204,0-3-11.447,1.217-22.922,2.154-34.414,2.811-1.919.11-1.932,3.11,0,3h0Z"/>
            </g>
            <path d="M1132.536,499.482c9.83,11.909,11.864,31.18,5.104,45.936-7.281,15.893-26.251,24.166-43.537,21.559-17.286-2.607-31.973-17.389-34.622-34.668s3.679-35.095,22.387-43.712c11.56-5.325,37.239-5.384,50.668,10.886Z" fill="#ff76ff"/>
          </g>
        </g>
      </g>
      <path d="M515.774,482.672c-113.453,0-205.424,91.972-205.424,205.424s91.972,205.424,205.424,205.424,205.424-91.972,205.424-205.424-91.972-205.424-205.424-205.424ZM515.774,830.406c-78.595,0-142.31-63.714-142.31-142.31s63.714-142.31,142.31-142.31,142.31,63.714,142.31,142.31-63.714,142.31-142.31,142.31Z" fill="#0068ff"/>
    </g>
  </g>
</svg>