<?xml version="1.0" encoding="UTF-8"?>
<svg id="Art" xmlns="http://www.w3.org/2000/svg" version="1.1" xmlns:xlink="http://www.w3.org/1999/xlink" viewBox="0 0 3700 3000">
  <!-- Generator: Adobe Illustrator 30.0.0, SVG Export Plug-In . SVG Version: 2.1.1 Build 123)  -->
  <defs>
    <linearGradient id="linear-gradient" x1="206.4108444" y1="1395.1330339" x2="444.6391393" y2="668.4797421" gradientUnits="userSpaceOnUse">
      <stop offset="0" stop-color="#a66cff"/>
      <stop offset=".3955957" stop-color="#4cee99"/>
    </linearGradient>
    <linearGradient id="linear-gradient1" x1="612.8317449" y1="665.3043886" x2="1417.9055508" y2="665.3043886" gradientUnits="userSpaceOnUse">
      <stop offset="0" stop-color="#a66cff"/>
      <stop offset=".099574" stop-color="#af6dff"/>
      <stop offset=".2671795" stop-color="#c970ff"/>
      <stop offset=".4811149" stop-color="#f475ff"/>
      <stop offset=".5254646" stop-color="#fe77ff"/>
      <stop offset=".5883626" stop-color="#fd7cfe"/>
      <stop offset=".6707411" stop-color="#fd8dfd"/>
      <stop offset=".7639363" stop-color="#fba8fb"/>
      <stop offset=".8643159" stop-color="#facdf8"/>
      <stop offset=".9464194" stop-color="#f9f2f6"/>
    </linearGradient>
    <linearGradient id="linear-gradient2" x1="543.6131376" y1="858.7427568" x2="1377.1024296" y2="858.7427568" gradientUnits="userSpaceOnUse">
      <stop offset="0" stop-color="#1777f2"/>
      <stop offset=".1754197" stop-color="#1675ee"/>
      <stop offset=".3097334" stop-color="#1570e5"/>
      <stop offset=".4304453" stop-color="#1468d4"/>
      <stop offset=".543156" stop-color="#125dbd"/>
      <stop offset=".6503716" stop-color="#0f4e9f"/>
      <stop offset=".7534164" stop-color="#0b3c7b"/>
      <stop offset=".8531111" stop-color="#07274f"/>
      <stop offset=".9477795" stop-color="#020e1e"/>
      <stop offset="1" stop-color="#000"/>
    </linearGradient>
    <linearGradient id="linear-gradient3" x1="466.0703804" y1="1160.5922074" x2="1336.6373704" y2="1160.5922074" xlink:href="#linear-gradient1"/>
    <linearGradient id="linear-gradient4" x1="1672.9130435" y1="1548.2595893" x2="3352.4344269" y2="1548.2595893" gradientUnits="userSpaceOnUse">
      <stop offset="0" stop-color="#1777f2"/>
      <stop offset=".0287909" stop-color="#3177f3"/>
      <stop offset=".0877057" stop-color="#6077f6"/>
      <stop offset=".1501397" stop-color="#8a77f8"/>
      <stop offset=".2150056" stop-color="#ae77fa"/>
      <stop offset=".2830169" stop-color="#cb77fc"/>
      <stop offset=".3552016" stop-color="#e177fd"/>
      <stop offset=".4335132" stop-color="#f177fe"/>
      <stop offset=".5224139" stop-color="#fb77fe"/>
      <stop offset=".6449042" stop-color="#fe77ff"/>
      <stop offset=".7058815" stop-color="#fd7bfe"/>
      <stop offset=".7706855" stop-color="#fd88fd"/>
      <stop offset=".8372852" stop-color="#fc9dfc"/>
      <stop offset=".9051244" stop-color="#fbbbfa"/>
      <stop offset=".9732484" stop-color="#f9e0f7"/>
      <stop offset="1" stop-color="#f9f2f6"/>
    </linearGradient>
    <linearGradient id="linear-gradient5" x1="3231.8695652" y1="1549.912123" x2="3494.826087" y2="1549.912123" gradientUnits="userSpaceOnUse">
      <stop offset=".202381" stop-color="#a66cff"/>
      <stop offset=".4178902" stop-color="#c096fc"/>
      <stop offset=".7771784" stop-color="#e8d8f7"/>
      <stop offset=".9464194" stop-color="#f9f2f6"/>
    </linearGradient>
    <linearGradient id="linear-gradient6" x1="1785.3862639" y1="1535.9214078" x2="3169.5598256" y2="1535.9214078" gradientUnits="userSpaceOnUse">
      <stop offset="0" stop-color="#a66cff"/>
      <stop offset=".0125271" stop-color="#ae6dff"/>
      <stop offset=".0596297" stop-color="#cb70ff"/>
      <stop offset=".1101096" stop-color="#e173ff"/>
      <stop offset=".1648765" stop-color="#f175ff"/>
      <stop offset=".227095" stop-color="#fb76ff"/>
      <stop offset=".3128315" stop-color="#fe77ff"/>
      <stop offset=".839211" stop-color="#cff500"/>
    </linearGradient>
    <linearGradient id="linear-gradient7" x1="1749.4764609" y1="1569.3967604" x2="2323.2227846" y2="1569.3967604" gradientUnits="userSpaceOnUse">
      <stop offset=".1011689" stop-color="#f9f2f6"/>
      <stop offset=".7886413" stop-color="#4cee99"/>
    </linearGradient>
    <linearGradient id="linear-gradient8" x1="2413.3532121" y1="1099.9330471" x2="3041.865696" y2="1099.9330471" gradientUnits="userSpaceOnUse">
      <stop offset="0" stop-color="#761efe"/>
      <stop offset=".4939127" stop-color="#9049fe"/>
      <stop offset=".9299504" stop-color="#a66cff"/>
    </linearGradient>
    <linearGradient id="linear-gradient9" x1="2444.3182411" y1="1872.803284" x2="3096.1977287" y2="1872.803284" xlink:href="#linear-gradient8"/>
    <linearGradient id="linear-gradient10" x1="1845.0346321" y1="1562.25" x2="2259.8977636" y2="1562.25" xlink:href="#linear-gradient2"/>
    <linearGradient id="linear-gradient11" x1="2088.517748" y1="1562.25" x2="2357.0103331" y2="1562.25" gradientUnits="userSpaceOnUse">
      <stop offset=".0793891" stop-color="#f9f2f6"/>
      <stop offset=".2312648" stop-color="#f6f0f5"/>
      <stop offset=".3348379" stop-color="#edebf5"/>
      <stop offset=".4240218" stop-color="#dde3f5"/>
      <stop offset=".5050446" stop-color="#c8d7f5"/>
      <stop offset=".5805733" stop-color="#acc8f4"/>
      <stop offset=".6520758" stop-color="#89b5f4"/>
      <stop offset=".7203513" stop-color="#619ff3"/>
      <stop offset=".7844521" stop-color="#3386f2"/>
      <stop offset=".8189185" stop-color="#1777f2"/>
    </linearGradient>
    <linearGradient id="linear-gradient12" x1="2211.7281891" y1="1955.9413756" x2="2386.363569" y2="1955.9413756" gradientUnits="userSpaceOnUse">
      <stop offset="0" stop-color="#fe77ff"/>
      <stop offset=".5397969" stop-color="#c870ff"/>
      <stop offset=".9299504" stop-color="#a66cff"/>
    </linearGradient>
    <linearGradient id="linear-gradient13" x1="2295.7083666" y1="1955.9413756" x2="2442.2200625" y2="1955.9413756" gradientUnits="userSpaceOnUse">
      <stop offset=".3963796" stop-color="#f9f2f6"/>
      <stop offset=".5168558" stop-color="#f6f0f5"/>
      <stop offset=".5908778" stop-color="#edebf5"/>
      <stop offset=".6523502" stop-color="#dfe4f5"/>
      <stop offset=".7069758" stop-color="#cad8f5"/>
      <stop offset=".7570546" stop-color="#b0caf4"/>
      <stop offset=".8038157" stop-color="#8fb8f4"/>
      <stop offset=".848005" stop-color="#68a3f3"/>
      <stop offset=".8890345" stop-color="#3d8bf2"/>
      <stop offset=".9198576" stop-color="#1777f2"/>
    </linearGradient>
    <linearGradient id="linear-gradient14" x1="2451.8376083" y1="1150.0784437" x2="2555.9131491" y2="1150.0784437" gradientTransform="translate(12.9875403 -66.9254867) rotate(1.125143) scale(.9745245 1.0249697) skewX(5.3871185)" xlink:href="#linear-gradient7"/>
    <linearGradient id="linear-gradient15" x1="2583.345075" y1="1191.5483332" x2="2687.4206122" y2="1191.5483332" gradientTransform="translate(12.9875403 -66.9254867) rotate(1.125143) scale(.9745245 1.0249697) skewX(5.3871185)" xlink:href="#linear-gradient7"/>
    <linearGradient id="linear-gradient16" x1="2714.8525418" y1="1236.2324843" x2="2818.9280751" y2="1236.2324843" gradientTransform="translate(12.9875403 -66.9254867) rotate(1.125143) scale(.9745245 1.0249697) skewX(5.3871185)" xlink:href="#linear-gradient7"/>
    <linearGradient id="linear-gradient17" x1="2846.3600085" y1="1281.1163745" x2="2950.4355379" y2="1281.1163745" gradientTransform="translate(12.9875403 -66.9254867) rotate(1.125143) scale(.9745245 1.0249697) skewX(5.3871185)" xlink:href="#linear-gradient7"/>
    <clipPath id="clippath">
      <path d="M2471.9260127,1460.6521739h544.1540296c14.5166424,0,26.5532674,11.2428371,27.5421006,25.725762l52.5092405,769.075489c1.2624806,18.4908951-15.6932128,32.9483578-33.7521347,28.7791373l-548.6451605-126.664408c-11.7788302-2.7193506-20.4183156-12.7859138-21.3193894-24.8409449l-48.0181096-642.411081c-1.1968834-16.0125239,11.4722304-29.6639545,27.5294236-29.6639545Z" fill="none"/>
    </clipPath>
    <clipPath id="clippath-1">
      <path d="M2068.8000488,1871.0799561c-6.2600098,1.1400146-12.6500244,1.7200928-19.130127,1.7200928-100.0898438,0-185.9699707-139.0400391-191.7999268-310.5500488-5.8399658-171.5100098,70.5799561-310.5500488,170.6700439-310.5500488l3.6298828.0700684c98.5400391,3.3000488,182.4101562,141.0500488,188.1800537,310.4799805,5.4500732,160.3999023-61.0299072,292.3999023-151.5499268,308.8299561ZM2100.3949204,1562.25c-1.9510606-57.2918424-30.3113006-103.8712821-63.6320978-104.9871763l-1.2274258-.0236932c-33.8449381,0-59.6859337,47.0156597-57.7111799,105.0108696,1.9713691,57.9952099,31.0112834,105.0108696,64.8561389,105.0108696,2.1912127,0,4.3519626-.1961504,6.4687521-.5816403,30.6088696-5.5557365,53.0887262-50.1908439,51.2458126-104.4292292Z" fill="none"/>
    </clipPath>
    <linearGradient id="linear-gradient18" x1="364.3913043" y1="2278.8695652" x2="1547.6956522" y2="2278.8695652" xlink:href="#linear-gradient"/>
    <linearGradient id="linear-gradient19" x1="329.4813026" y1="2281.5058766" x2="887.9565217" y2="2281.5058766" gradientUnits="userSpaceOnUse">
      <stop offset=".0512988" stop-color="#a66cff"/>
      <stop offset=".0661132" stop-color="#ae6dff"/>
      <stop offset=".1218164" stop-color="#cb70ff"/>
      <stop offset=".1815134" stop-color="#e173ff"/>
      <stop offset=".2462802" stop-color="#f175ff"/>
      <stop offset=".3198592" stop-color="#fb76ff"/>
      <stop offset=".4212503" stop-color="#fe77ff"/>
      <stop offset=".9464194" stop-color="#f9f2f6"/>
    </linearGradient>
    <linearGradient id="linear-gradient20" x1="569.9375805" y1="1998.6395371" x2="1259.8359698" y2="1998.6395371" xlink:href="#linear-gradient7"/>
    <linearGradient id="linear-gradient21" x1="594.9375805" y1="1990.6395371" x2="1284.8359698" y2="1990.6395371" gradientUnits="userSpaceOnUse">
      <stop offset="0" stop-color="#a66cff"/>
      <stop offset=".0125271" stop-color="#ae6dff"/>
      <stop offset=".0596297" stop-color="#cb70ff"/>
      <stop offset=".1101096" stop-color="#e173ff"/>
      <stop offset=".1648765" stop-color="#f175ff"/>
      <stop offset=".227095" stop-color="#fb76ff"/>
      <stop offset=".3128315" stop-color="#fe77ff"/>
      <stop offset=".9464194" stop-color="#f9f2f6"/>
    </linearGradient>
    <clipPath id="clippath-2">
      <polygon points="594.9375805 1825.5214372 1214.3043478 1841 1284.8359698 1990.8278599 737.0336222 2155.7576369 594.9375805 1825.5214372" fill="none"/>
    </clipPath>
    <linearGradient id="linear-gradient22" x1="727.8078405" y1="2227.4782609" x2="1320.4347826" y2="2227.4782609" xlink:href="#linear-gradient7"/>
    <linearGradient id="linear-gradient23" x1="750.8078405" y1="2215.4782609" x2="1343.4347826" y2="2215.4782609" xlink:href="#linear-gradient21"/>
    <linearGradient id="linear-gradient24" x1="841.2648656" y1="2415.3342869" x2="1389.1846399" y2="2415.3342869" xlink:href="#linear-gradient7"/>
    <linearGradient id="linear-gradient25" x1="862.2648656" y1="2404.3342869" x2="1410.1846399" y2="2404.3342869" xlink:href="#linear-gradient21"/>
    <linearGradient id="linear-gradient26" x1="2586.1175435" y1="2206.2125724" x2="2666.6837742" y2="2206.2125724" gradientTransform="translate(2465.5347778 -940.1322947) rotate(150.9610889) scale(.9738956 -.9811773) skewX(3.3609855)" xlink:href="#linear-gradient7"/>
    <linearGradient id="linear-gradient27" x1="2687.9191851" y1="2238.3149536" x2="2768.485413" y2="2238.3149536" gradientTransform="translate(2465.5347778 -940.1322947) rotate(150.9610889) scale(.9738956 -.9811773) skewX(3.3609855)" xlink:href="#linear-gradient7"/>
    <linearGradient id="linear-gradient28" x1="2789.7208267" y1="2272.9055365" x2="2870.2870516" y2="2272.9055365" gradientTransform="translate(2465.5347778 -940.1322947) rotate(150.9610889) scale(.9738956 -.9811773) skewX(3.3609855)" xlink:href="#linear-gradient7"/>
    <linearGradient id="linear-gradient29" x1="2891.5224683" y1="2307.6507401" x2="2972.0886901" y2="2307.6507401" gradientTransform="translate(2465.5347778 -940.1322947) rotate(150.9610889) scale(.9738956 -.9811773) skewX(3.3609855)" xlink:href="#linear-gradient7"/>
  </defs>
  <g id="Background">
    <rect width="3700" height="3000"/>
  </g>
  <g id="Graphics">
    <g>
      <path d="M575.6956522,310.2173913s-89.2173913,2.3478261-140.8695652,112.6956522l-239.4782609,833.4782609s-42.2608696,166.6956522,84.5217391,190.173913L575.6956522,310.2173913Z" fill="url(#linear-gradient)"/>
      <path d="M575.6956522,310.2173913l972,349.826087-166.6956522,640.9565217-1101.1304348,145.5652174s152.6086957-737.2173913,295.826087-1136.3478261Z" fill="#cff500"/>
      <path d="M667.3541362,417.8011048l773.4852319,282.3149077c17.9800015,6.5625331,28.0096284,25.7327096,23.1486945,44.2453706l-120.1483368,457.5798548c-3.8238677,14.5630381-16.0750878,25.3674333-31.0019177,27.3407029l-875.2938639,115.7104885c-25.4247446,3.3610536-46.5040779-19.4768837-41.1078764-44.5486872,31.857277-148.0151167,128.4626769-582.1924748,223.1153077-859.7928208,6.7075039-19.6719877,28.2785314-29.9759785,47.8027606-22.8498166Z"/>
      <path d="M671.2737127,511.5591357l736.6339917,226.6566128c7.2647242,2.2352997,11.4683931,9.8078829,9.5233945,17.1556555l-14.2332679,53.7701231c-1.9179297,7.2455123-9.1501689,11.7411009-16.4962443,10.254131l-762.5146288-154.3458643c-8.2579871-1.6715563-13.2377318-10.1410302-10.6832584-18.1699228l40.113905-126.0808716c2.3548221-7.4013744,10.2326194-11.524014,17.6561083-9.2398636Z" fill="url(#linear-gradient1)"/>
      <path d="M631.8512606,713.694766l724.2536344,136.0988931c14.7090945,2.7640752,23.9688919,17.4451789,20.1266405,31.9101254l-27.4651314,103.3981418c-3.1113152,11.7131867-13.9709405,19.670158-26.0772183,19.1070753l-754.5147203-35.0937079c-16.5584549-.7701607-28.0839573-16.7604814-23.5787878-32.7128801l57.7262173-204.403327c3.6218705-12.8247167,16.432266-20.765476,29.5293656-18.3043206Z" fill="url(#linear-gradient2)"/>
      <path d="M550.994767,1028.6521739h765.3895174c13.5125153,0,23.2305353,12.9878738,19.4177586,25.9513148l-35.5959093,121.0260916c-2.2653075,7.7020454-8.8687172,13.3371732-16.8311603,14.3631463l-794.4601493,102.3674142c-14.4550222,1.8625519-26.0811843-11.7024379-22.02862-25.7022054l64.6665412-223.3935058c2.5055287-8.6554627,10.4312112-14.6122556,19.4420218-14.6122556Z" fill="url(#linear-gradient3)"/>
    </g>
    <g>
      <polygon points="1735.5217391 2168.1304348 1672.9130435 1028.6521739 3231.8695652 465.173913 3352.4344269 2631.3452656 1735.5217391 2168.1304348" fill="url(#linear-gradient4)"/>
      <path d="M3231.8695652,465.173913s144,68.8695652,169.0434783,181.5652174l93.9130435,1815.6521739s-33.432161,200.168792-142.39166,168.9539612l-120.5648617-2166.1713525Z" fill="url(#linear-gradient5)"/>
      <path d="M3157.1799316,2370.4799805c-12.5700684,15.2299805-33.1599121,23.4599609-54.5397949,18.4399414l-1206.9101562-283.619873-6.6699219-1.5700684c-20.7800293-4.8798828-36.5600586-21.3598633-40.8500977-41.8300781-.5-2.4099121-.8499756-4.869873-1.0200195-7.3798828l-61.6699219-879.1201172c-.8699951-12.4399414,2.5400391-24.4199219,9.1799316-34.25l.0100098-.0198975c6.1201172-9.0799561,14.9799805-16.3299561,25.75-20.4300537l2.1700439-.8299561,1141.1800537-434.8099976c13.3498535-5.0900269,27.1599121-4.5700073,39.1699219.1400146,18.4699707,7.2399902,32.6999512,24.3799438,34.5,46.2799683l131.8901367,1599.9499512c1.2299805,14.9602051-3.6000977,28.6401367-12.1901855,39.0500488Z" fill="url(#linear-gradient6)" opacity=".51"/>
      <path d="M1895.7299805,2105.3000488l-6.6699219-1.5700684c-23.2299805-5.4599609-40.2000732-25.3999023-41.8701172-49.2099609l-61.6699219-879.1201172c-1.6799316-23.9399414,12.5100098-46.1599121,34.9399414-54.6999512l2.1700439-.8299561,73.0999756,985.4300537Z"/>
      <path d="M3157.1799316,2370.4799805c-12.5700684,15.2299805-33.1599121,23.4599609-54.5397949,18.4399414l-1206.9101562-283.619873-6.6699219-1.5700684c-20.7800293-4.8798828-36.5600586-21.3598633-40.8500977-41.8300781l1308.9699707,308.5800781Z"/>
      <path d="M1928.2719335,1125.8088091l416.5960118-134.1314204c26.4897818-8.5289152,53.8685079,10.1530722,55.7245689,38.0238908l71.4879673,1073.4712559c1.907967,28.6502444-24.1119323,51.1633493-52.0104188,45.0007896l-428.2550263-94.5982197c-18.4968103-4.0858022-32.0992089-19.9049586-33.4441442-38.8944748l-59.8289528-844.7416159c-1.4039696-19.8230375,10.883547-38.062215,29.7299941-44.1302056Z"/>
      <path d="M1898.2719335,1125.8088091l416.5960118-134.1314204c26.4897818-8.5289152,53.8685079,10.1530722,55.7245689,38.0238908l71.4879673,1073.4712559c1.907967,28.6502444-24.1119323,51.1633493-52.0104188,45.0007896l-428.2550263-94.5982197c-18.4968103-4.0858022-32.0992089-19.9049586-33.4441442-38.8944748l-59.8289528-844.7416159c-1.4039696-19.8230375,10.883547-38.062215,29.7299941-44.1302056Z" fill="url(#linear-gradient7)"/>
      <path d="M2465.4290118,1401.8067826l-22.0395649-402.2702686c-.5434475-9.9191048,5.0698406-18.9630874,13.8889834-22.3775662l529.5637701-205.0294771c13.4391369-5.2031868,28.1127259,4.5884844,29.4775031,19.6703081l55.4462426,612.7230806c1.2089882,13.3602372-8.724943,24.7453189-21.4840162,24.6224053l-562.9704478-5.423335c-11.5911736-.1116627-21.2160148-9.7508766-21.8824703-21.9151472Z"/>
      <path d="M2435.4290118,1401.8067826l-22.0395649-402.2702686c-.5434475-9.9191048,5.0698406-18.9630874,13.8889834-22.3775662l529.5637701-205.0294771c13.4391369-5.2031868,28.1127259,4.5884844,29.4775031,19.6703081l55.4462426,612.7230806c1.2089882,13.3602372-8.724943,24.7453189-21.4840162,24.6224053l-562.9704478-5.423335c-11.5911736-.1116627-21.2160148-9.7508766-21.8824703-21.9151472Z" fill="url(#linear-gradient8)"/>
      <path d="M2501.9260127,1460.6521739h544.1540296c14.5166424,0,26.5532674,11.2428371,27.5421006,25.725762l52.5092405,769.075489c1.2624806,18.4908951-15.6932128,32.9483578-33.7521347,28.7791373l-548.6451605-126.664408c-11.7788302-2.7193506-20.4183156-12.7859138-21.3193894-24.8409449l-48.0181096-642.411081c-1.1968834-16.0125239,11.4722304-29.6639545,27.5294236-29.6639545Z"/>
      <path d="M2471.9260127,1460.6521739h544.1540296c14.5166424,0,26.5532674,11.2428371,27.5421006,25.725762l52.5092405,769.075489c1.2624806,18.4908951-15.6932128,32.9483578-33.7521347,28.7791373l-548.6451605-126.664408c-11.7788302-2.7193506-20.4183156-12.7859138-21.3193894-24.8409449l-48.0181096-642.411081c-1.1968834-16.0125239,11.4722304-29.6639545,27.5294236-29.6639545Z" fill="url(#linear-gradient9)"/>
      <path d="M2057.9565217,1457.2391304s-56.7146072,11.3997445-50.0869565,105.0108696c0,0,3.1304348,114.4021739,56.3478261,112.8369565v22.6956522h-98.6086957l-12.5217391-240.5434783,86.0223993-38.8478261,18.847166,38.8478261Z"/>
      <path d="M2068.8000488,1871.0799561c-6.2600098,1.1400146-12.6500244,1.7200928-19.130127,1.7200928-100.0898438,0-185.9699707-139.0400391-191.7999268-310.5500488-5.8399658-171.5100098,70.5799561-310.5500488,170.6700439-310.5500488l3.6298828.0700684c98.5400391,3.3000488,182.4101562,141.0500488,188.1800537,310.4799805,5.4500732,160.3999023-61.0299072,292.3999023-151.5499268,308.8299561ZM2100.3949204,1562.25c-1.9510606-57.2918424-30.3113006-103.8712821-63.6320978-104.9871763l-1.2274258-.0236932c-33.8449381,0-59.6859337,47.0156597-57.7111799,105.0108696,1.9713691,57.9952099,31.0112834,105.0108696,64.8561389,105.0108696,2.1912127,0,4.3519626-.1961504,6.4687521-.5816403,30.6088696-5.5557365,53.0887262-50.1908439,51.2458126-104.4292292Z" fill="url(#linear-gradient10)"/>
      <path d="M2155.3200684,1869.6699219l-.0100098.0200195-.1000977.0100098c-8.3099365,2.0300293-16.8299561,3.1000977-25.5400391,3.1000977-6.0998535,0-12.1499023-.5200195-18.1298828-1.5300293l-42.630127,1.5300293-.1098633-1.7200928c90.5200195-16.4300537,157-148.4300537,151.5499268-308.8299561-5.7698975-169.4299316-89.6400146-307.1799316-188.1800537-310.4799805l60.4400635,1.1398926c5.2301025-.789917,10.5499268-1.2099609,15.9300537-1.2099609,6.7800293,0,13.4799805.6500244,20.1099854,1.8900146l.0899658.0100098.0200195.0200195c91.1899414,17.1700439,166.1499023,148.789917,171.5899658,308.6300049,5.3199463,156.5300293-57.8599854,285.9899902-145.0299072,307.4199219Z" fill="url(#linear-gradient11)"/>
      <path d="M3002.9899902,685.2099609l-1208.2900391,455.9399414.0100098-.0198975c6.1201172-9.0799561,14.9799805-16.3299561,25.75-20.4300537l2.1700439-.8299561,1141.1800537-434.8099976c13.3498535-5.0900269,27.1599121-4.5700073,39.1699219.1400146l.0100098.0099487Z"/>
      <path d="M2313.7022728,1908.1718526s-26.8645328,5.3998225-23.7251522,49.7414704c0,0,1.482822,54.1899364,26.6907962,53.4485254v10.7504596h-46.7088934l-5.9312881-113.9404554,40.7470259-18.4014093,8.9275115,18.4014093Z"/>
      <path d="M2313.3255822,2104.4727723c-3.0107442.5482887-6.0840141.8272766-9.2006116.8272766-48.1380902,0-89.4420342-66.8711399-92.2459445-149.3586732-2.8087246-82.4875333,33.9453451-149.3586732,82.0835528-149.3586732l1.7457878.0336993c47.3927135,1.5871545,87.7299457,67.8378517,90.5049709,149.3249739,2.6212062,77.1441405-29.3522606,140.629382-72.8877553,148.5313966ZM2328.5210978,1955.9413756c-.9383602-27.5544428-14.5781836-49.9567684-30.603781-50.4934564l-.590329-.0113952c-16.2776823,0-28.7058781,22.6121251-27.7561227,50.5048517.9481276,27.8927266,14.9148395,50.5048517,31.1924821,50.5048517,1.0538611,0,2.0930712-.0943383,3.1111385-.2797392,14.7212991-2.6720248,25.5329591-24.1392261,24.646612-50.2251124Z" fill="url(#linear-gradient12)"/>
      <path d="M2354.9372818,2103.794618l-.0048142.0096284-.0481418.0048142c-3.996654.9763402-8.0943472,1.4909882-12.2834511,1.4909882-2.9337172,0-5.8434809-.2501028-8.7195454-.7358658l-20.5029084.7358658-.0528386-.8272766c43.5354947-7.9020146,75.5089615-71.3872561,72.8877553-148.5313966-2.7750253-81.4871222-43.1122574-147.7378194-90.5049709-149.3249739l29.068576.54823c2.5154115-.3799096,5.0739746-.5819293,7.6615402-.5819293,3.260847,0,6.4831804.3126285,9.6718733.9090003l.043269.0048142.0096284.0096284c43.8576929,8.257912,79.9095961,71.560332,82.5259881,148.4352304,2.5586218,75.2829297-27.8276905,137.5465425-69.7519598,147.8532424Z" fill="url(#linear-gradient13)"/>
      <path d="M2545.6401604,1376.7135298l-.0001014-.000002c-26.1425934-.51344-47.5714792-20.8938263-49.3946659-46.9778214l-23.0074469-329.1632959c-2.0692216-29.603972,21.7078131-54.604252,51.3782912-54.0215243l.0001014.000002c26.1425934.51344,47.5714792,20.8938263,49.3946659,46.9778214l23.0074469,329.1632959c2.0692216,29.603972-21.7078131,54.604252-51.3782912,54.0215243Z" fill="url(#linear-gradient14)"/>
      <path d="M2673.7726997,1379.2300505l-.0001014-.000002c-26.1425934-.51344-47.5714792-20.8938263-49.3946659-46.9778214l-17.0561548-244.0192576c-2.0692216-29.603972,21.7078131-54.604252,51.3782912-54.0215243l.0001014.000002c26.1425934.51344,47.5714792,20.8938263,49.3946659,46.9778214l17.0561548,244.0192576c2.0692216,29.603972-21.7078131,54.604252-51.3782912,54.0215243Z" fill="url(#linear-gradient15)"/>
      <path d="M2801.905239,1381.7465712l-.0001014-.000002c-26.1425934-.51344-47.5714792-20.8938263-49.3946659-46.9778214l-10.6435879-152.2758476c-2.0692216-29.603972,21.7078131-54.604252,51.3782912-54.0215243l.0001014.000002c26.1425934.51344,47.5714792,20.8938263,49.3946659,46.9778214l10.6435879,152.2758476c2.0692216,29.603972-21.7078131,54.604252-51.3782912,54.0215243Z" fill="url(#linear-gradient16)"/>
      <path d="M2930.0377782,1384.2630919l-.0001014-.000002c-26.1425934-.51344-47.5714792-20.8938263-49.3946659-46.9778214l-4.2023568-60.1223427c-2.0692216-29.603972,21.7078131-54.604252,51.3782912-54.0215243l.0001014.000002c26.1425934.51344,47.5714792,20.8938263,49.3946659,46.9778214l4.2023568,60.1223427c2.0692216,29.603972-21.7078131,54.604252-51.3782912,54.0215243Z" fill="url(#linear-gradient17)"/>
      <g clip-path="url(#clippath)">
        <path d="M2422.8532172,1615.6989323c49.9113499,64.2238802,59.1327868,147.3064555,76.7824751,224.0996882,8.7897304,38.2438374,19.5316935,78.0140684,39.3466946,112.2281986,7.5218156,12.987755,24.0881414,33.61978,41.5217534,25.7915958,7.8556657-3.5274158,11.2983622-11.8300465,12.6366018-19.8601331,1.7261619-10.3578086,1.8257993-21.0844218,2.1083964-31.5598259,2.4884894-92.2441796-17.4130965-185.5810952-2.2092492-277.3741949,3.1420705-18.970224,7.2524173-38.4959252,19.0791721-54.1769029,10.4595405-13.8682016,26.4019876-20.3069762,42.2849548-10.9532754,18.0785815,10.6467285,27.9767524,33.1287837,35.3107259,51.8090291,8.3277748,21.2115408,13.730307,43.4581365,17.4050687,65.9161332,5.6149975,34.3155837,8.9330422,69.6575237,8.4171087,104.4573859-.4049946,27.3170011-1.2370079,55.1942854,4.0695142,82.1391748,4.083634,20.7354395,14.8384525,45.1301371,40.0450501,42.9131438,21.6663952-1.9056223,27.4842311-26.3847021,32.9591045-43.5187711,2.5863212-8.0941061,5.2505147-18.0016735,11.8511312-23.8647874,7.799233-6.927806,19.5166472-2.8973648,25.1133756,5.2040289,8.1344604,11.7748193,9.7461431,27.2640289,11.0861723,41.1563557,1.3858882,14.3677549,2.3400937,28.7740917,3.6788383,43.1464218,1.4875461,15.9698141,3.2849025,31.9625019,6.2959324,47.7257081,2.5355797,13.2741509,5.8286295,26.9390661,12.3213177,38.9046111,6.852477,12.6286093,20.6231072,24.3652976,35.8921194,20.3016278,18.7533789-4.9909935,25.5468259-26.2348832,27.9174926-43.1271852,6.9213784-49.3186222,8.72335-99.1224771,9.4830513-148.8640843.6274616-41.0831878.0233803-82.2923252,1.5609075-123.351936,1.2023625-32.1090487,5.544687-67.346844,27.2968611-92.6652562,10.9174048-12.7072978,25.3642218-22.644184,41.6649097-26.8718751,16.0581266-4.1647813,33.2305733-3.2281896,48.9852324,1.7849372,16.692211,5.3114554,31.2530712,15.3666844,42.4004809,28.8389926,4.1060858,4.9624491,11.1460357-2.1462266,7.0710678-7.0710678-22.3477175-27.0085469-58.4778622-40.3932914-93.0509442-34.8697502-33.2208588,5.3075043-59.5307072,30.2737237-71.9814473,60.742717-12.5639285,30.7459838-12.7083553,65.1974393-12.8442685,97.8918231-.1907393,45.8829809-.555323,91.8392-2.0721718,137.6985863-.8308431,25.1191515-2.2181454,50.2303684-4.7255453,75.2419734-1.2380588,12.3497797-2.4011354,24.868938-4.6576456,37.0816174-1.6173191,8.7532509-5.400074,17.8081195-12.2567455,23.7608504-13.2317238,11.4873363-27.2662083-1.6694872-33.2946828-13.9958283-6.0768114-12.4251751-8.8533279-26.5994462-11.1568615-40.1365202-5.0114448-29.4505356-5.8340612-59.3177327-9.2359763-88.9462566-1.7020956-14.8241731-4.545495-31.0747147-14.3405685-42.9023419-7.6599702-9.2494734-21.2939127-13.1503227-32.3632453-7.8046701-8.4308611,4.0714699-13.0231349,12.8289782-16.3562437,21.1302961-3.7853894,9.4277513-6.1019902,19.3670659-9.7988945,28.8264128-2.8061794,7.1802302-6.955811,15.7401717-14.9838803,18.0326613-8.4280878,2.4067186-17.5553449-1.2501502-22.6988288-8.0750353-6.9012892-9.1573157-9.3930618-21.5098578-11.1560662-32.5767521-2.1904983-13.7503978-2.7283633-27.7741525-2.9132552-41.6772121-.1705609-12.8254274.1428502-25.6462571.2780184-38.4701161.1488346-14.1204329-.9922264-28.1025014-2.1214145-42.1779285-3.6427847-45.4076235-9.5808417-91.1538501-27.7507141-133.3239535-7.8507708-18.2207013-18.1650714-37.9816114-35.6583912-48.6714952-14.705795-8.9864726-32.0807975-8.2250724-45.5896706,2.4777937-13.4236311,10.6353301-21.549042,27.4992209-26.005168,43.7016402-5.7313886,20.8392584-8.2037533,42.8878822-9.6460925,64.3992498-3.113927,46.4418003.3988789,93.0209874,3.294618,139.3782414,1.4731679,23.583622,2.8456884,47.1845463,3.2289651,70.8154116.186541,11.5011581.1387998,23.008073-.2617847,34.5044198-.3434617,9.8569822.1888908,21.0033802-3.0429709,30.4630695-3.1701085,9.2789372-11.0767481,9.4930881-18.3876402,4.4162293-8.0317397-5.5774327-13.7796234-14.297816-18.2473911-22.8241216-9.325168-17.7961874-16.660876-36.5514444-22.7351403-55.6846852-24.0306576-75.6938355-28.1597647-157.3913689-62.628028-229.775106-8.271607-17.3704669-18.3410205-33.6909969-30.1451173-48.880025-3.9442605-5.0753128-10.9751346,2.0474746-7.0710678,7.0710678h0Z" fill="#f9f2f6"/>
      </g>
      <g clip-path="url(#clippath-1)">
        <g>
          <path d="M1773.0869565,1615.585022c2.2167366-.2449314,4.4334732-.4898628,6.6502098-.7347942l18.0988982-1.9997812c8.9235965-.9859849,17.847193-1.9719699,26.7707895-2.9579548,10.8884582-1.2030862,21.7769163-2.4061724,32.6653745-3.6092585,11.9276664-1.3179103,23.8553328-2.6358205,35.7829992-3.9537308,12.0411602-1.3304504,24.0823204-2.6609008,36.1234806-3.9913512,11.2289463-1.2407074,22.4578925-2.4814147,33.6868388-3.7221221,9.4910722-1.0486864,18.9821445-2.0973728,28.4732167-3.1460592,6.84731-.7565721,13.6946201-1.5131443,20.5419301-2.2697164,3.2182458-.35559,6.4379912-.6997868,9.654961-1.0667948.1402301-.0159981.2805803-.0310018.4208668-.0465024,1.6129463-.1782175,3-1.2300524,3-3,0-12.0927429.218537-24.2054203,0-36.2958266-.0347951-1.925013-.9503303-2.7217303-2.1676562-3.8918021-1.6385663-1.5749606-3.2771326-3.1499212-4.9156989-4.7248817-6.3628702-6.1158768-12.7257404-12.2317537-19.0886106-18.3476305-9.5039906-9.1350655-19.0079811-18.2701309-28.5119717-27.4051964-11.4679675-11.022805-22.9359351-22.0456099-34.4039026-33.0684149-12.288438-11.8114265-24.576876-23.622853-36.8653141-35.4342794-11.8310668-11.3718094-23.6621335-22.7436188-35.4932003-34.1154282l-30.9668978-29.7648274c-7.5279117-7.2356939-15.0558234-14.4713878-22.5837351-21.7070816-3.6348405-3.4937436-7.2696811-6.9874872-10.9045216-10.4812308-.1537773-.147808-.3075547-.295616-.461332-.4434241-2.7845128-2.6764238-7.0330438,1.5605552-4.2426407,4.2426407,2.0083411,1.9303815,4.0166821,3.8607629,6.0250232,5.7911444,5.465912,5.2537367,10.931824,10.5074734,16.397736,15.7612101,8.0848162,7.7709805,16.1696324,15.541961,24.2544486,23.3129415,9.8650536,9.4821128,19.7301073,18.9642256,29.5951609,28.4463384,10.8066243,10.3871337,21.6132486,20.7742673,32.4198729,31.161401,10.9095282,10.486043,21.8190564,20.9720861,32.7285846,31.4581291,10.1737653,9.778841,20.3475306,19.5576819,30.521296,29.3365229,8.5993357,8.2655274,17.1986714,16.5310548,25.7980071,24.7965822,6.1862393,5.9461024,12.3724786,11.8922048,18.5587179,17.8383072,2.9305149,2.8167584,5.7972894,5.725144,8.8034284,8.4616977.1304074.1187127.2547166.2448291.3818858.3670618-.2928932-.7071068-.5857864-1.4142136-.8786797-2.1213203v36.8273672l3-3c-2.2167366.2449314-4.4334732.4898628-6.6502098.7347942l-18.0988982,1.9997812c-8.9235965.9859849-17.847193,1.9719699-26.7707895,2.9579548-10.8884582,1.2030862-21.7769163,2.4061724-32.6653745,3.6092585-11.9276664,1.3179103-23.8553328,2.6358205-35.7829992,3.9537308-12.0411602,1.3304504-24.0823204,2.6609008-36.1234806,3.9913512-11.2289463,1.2407074-22.4578925,2.4814147-33.6868388,3.7221221-9.4910722,1.0486864-18.9821445,2.0973728-28.4732167,3.1460592-6.84731.7565721-13.6946201,1.5131443-20.5419301,2.2697164-3.2182458.35559-6.4379912.6997868-9.654961,1.0667948-.1402301.0159981-.2805803.0310018-.4208668.0465024-1.6102551.1779201-3,1.2514592-3,3,0,1.4837561,1.3791999,3.1790852,3,3h0Z" fill="#f9f2f6"/>
          <path d="M2062.096071,1636.5126247c1.2193765,1.541897,2.438753,3.0837939,3.6581294,4.6256909,3.3014123,4.1746234,6.6028247,8.3492469,9.904237,12.5238703,4.8786346,6.1690151,9.7572693,12.3380301,14.6359039,18.5070452,5.9756875,7.5562342,11.9513749,15.1124684,17.9270624,22.6687026,6.5199702,8.2444777,13.0399404,16.4889553,19.5599106,24.733433,6.5808592,8.3214716,13.1617185,16.6429432,19.7425777,24.9644149,6.1593059,7.7884191,12.3186119,15.5768382,18.4779178,23.3652572,5.1835592,6.554591,10.3671184,13.109182,15.5506775,19.6637729,3.7281149,4.7141872,7.4562299,9.4283745,11.1843448,14.1425617,1.7634705,2.2299018,3.4591591,4.5419581,5.3034649,6.7062114.0798766.0937334.1532642.193802.2296867.290438,1.0058565,1.2719017,3.1906813,1.0519594,4.2426407,0,1.2561628-1.2561628,1.0084346-2.9674789,0-4.2426407-1.2193765-1.541897-2.438753-3.0837939-3.6581294-4.6256909-3.3014123-4.1746234-6.6028247-8.3492469-9.904237-12.5238703-4.8786346-6.1690151-9.7572693-12.3380301-14.6359039-18.5070452-5.9756875-7.5562342-11.9513749-15.1124684-17.9270624-22.6687026-6.5199702-8.2444777-13.0399404-16.4889553-19.5599106-24.733433-6.5808592-8.3214716-13.1617185-16.6429432-19.7425777-24.9644149-6.1593059-7.7884191-12.3186119-15.5768382-18.4779178-23.3652572-5.1835592-6.554591-10.3671184-13.109182-15.5506775-19.6637729-3.7281149-4.7141872-7.4562299-9.4283745-11.1843448-14.1425617-1.7634705-2.2299018-3.4591591-4.5419581-5.3034649-6.7062114-.0798766-.0937334-.1532642-.193802-.2296867-.290438-1.0058565-1.2719017-3.1906813-1.0519594-4.2426407,0-1.2561628,1.2561628-1.0084346,2.9674789,0,4.2426407h0Z" fill="#f9f2f6"/>
        </g>
      </g>
    </g>
    <g>
      <polygon points="887.9565217 2859.9565217 364.3913043 1697.7826087 1261.2608696 1726.7826087 1547.6956522 2334.0434783 887.9565217 2859.9565217" fill="url(#linear-gradient18)"/>
      <path d="M879.9208849,2692.3917583l-372.8152314-858.97647c-13.8443772-31.897823,9.8844595-66.1961474,44.4733337-64.2830006l672.7915068,37.212802c18.245015,1.0091509,34.6267218,12.3195789,42.1078461,29.0725362l190.3437542,426.248871c8.6540784,19.3796281,3.5148826,41.6834234-12.5997748,54.6822508l-490.3200297,395.514797c-24.1988719,19.5199285-61.2958573,9.7560618-73.981405-19.4717864Z"/>
      <path d="M364.3913043,1697.7826087s-68.0869565,89.2173913-14.0869565,225.3913043l389.7391304,871.0434783s58.6956522,93.9130435,147.9130435,65.7391304L364.3913043,1697.7826087Z" fill="url(#linear-gradient19)"/>
      <polygon points="569.9375805 1833.5214372 1189.3043478 1849 1259.8359698 1998.8278599 712.0336222 2163.7576369 569.9375805 1833.5214372" fill="url(#linear-gradient20)"/>
      <polygon points="594.9375805 1825.5214372 1214.3043478 1841 1284.8359698 1990.8278599 737.0336222 2155.7576369 594.9375805 1825.5214372" fill="url(#linear-gradient21)"/>
      <g clip-path="url(#clippath-2)">
        <path d="M605.2113645,1919.5236681c11.532131-15.0834007,27.597711-31.4955894,47.4353665-33.9378705,19.6124797-2.414559,34.5120588,11.4115083,44.9833887,26.3117587,5.9747444,8.5018033,11.1098103,17.5800175,16.4361809,26.4916023,6.3525137,10.6284315,12.7050274,21.256863,19.057541,31.8852945,6.3525137,10.6284315,12.7050273,21.256863,19.057541,31.8852945,6.0557336,10.1318869,11.8635733,20.470469,18.2622605,30.3902853,4.9900225,7.7359785,11.2938976,15.4151215,20.3396303,18.3913488,7.4669184,2.4567658,16.8754209,1.5582506,22.4749351-4.4344147,7.0526016-7.5477764,5.4428672-19.1719204,5.1826806-28.6055103-.3375151-12.2372919-.6750301-24.4745837-1.0125451-36.7118756s-.67503-24.4745835-1.0125449-36.7118753c-.2719957-9.8617573-1.3373767-21.2153921,4.3380761-29.8893463,9.2375341-14.1179833,29.1670009-8.9720099,40.7219928-1.0519952,15.8752463,10.8812007,21.552458,31.3771183,29.5041154,47.8972481,3.9814088,8.2716579,8.6529656,16.8571337,15.4199071,23.2076961,5.5432458,5.2021624,12.4167033,9.0238287,19.6992624,11.1710505,13.472614,3.9723248,30.167602,1.6116668,36.8331347-12.2877765,3.320074-6.9232546,3.9819611-19.7374548,13.5721313-20.9913156,8.6082304-1.1254777,16.9486077,7.3557224,21.9683673,13.2612675,2.9277475,3.444377,5.3707579,7.2281831,8.5144208,10.5000778,3.1232914,3.2506922,6.6704752,6.2363666,10.5687894,8.5188085,6.7931859,3.9773737,15.3764245,5.669025,21.9351621.3078768,7.6217904-6.2300935,7.6073966-17.5508421,6.2831693-26.4444034-1.5019755-10.0873252-5.7019268-19.5209476-9.9197847-28.7202511-4.0341271-8.7985798-8.7282823-17.7643403-10.5496452-27.3532607-1.3986233-7.3633255-.9478886-15.2067987,1.2019575-22.3791481,1.9128736-6.3817583,5.4767043-12.8067041,11.4182333-16.2170876,7.0928587-4.0712362,15.4647879-2.2749629,21.9080821,2.1861,7.9971339,5.5368754,13.4991709,14.0973337,18.9527692,21.9536366,6.9882034,10.0670126,13.9764067,20.1340252,20.9646101,30.2010379,6.1121719,8.8050258,11.7156057,18.5245539,19.2716341,26.1944455,5.7591094,5.8458945,13.2623335,11.5105642,21.655093,12.4809707,7.9011632.913566,14.6721922-3.9132066,17.255532-11.3030577,2.7166625-7.7712315.3543825-16.1578742,2.2041264-24.0336822.8956896-3.813652,3.2134492-7.2574781,7.1909353-8.2855156,4.0338899-1.0426158,8.3835349.5666244,11.8771083,2.5213811,8.1910029,4.5831059,12.9106391,12.583588,19.2586665,19.1780686,5.6869879,5.9077772,12.8471157,10.9116194,21.4181189,10.181732,1.6526736-.140738,2.9504671-1.2615717,3-3,.9543387-33.4938971,1.9086774-66.9877941,2.8630161-100.4816912.1100487-3.8623177-5.8900396-3.8592183-6,0-.9543387,33.4938971-1.9086774,66.9877941-2.8630161,100.4816912l3-3c-9.3057694.7924584-15.9885811-6.7296441-21.4647089-13.2436701-5.9492249-7.07679-11.604067-13.8333922-20.4781674-17.3101447-7.6236441-2.9868406-16.4206405-1.7883613-21.1386785,5.4654856-4.5428123,6.9844424-2.9736165,15.9021544-3.4992267,23.7572431-.531115,7.9373552-5.2532832,14.9969346-14.0375402,12.7429566-8.3735935-2.1486046-15.711962-9.1349205-20.7626916-15.8762816-14.2632266-19.0375587-26.566729-39.5313024-40.815644-58.5829857-5.4065938-7.2289513-11.7034761-14.488891-20.1430793-18.1952899-7.0547754-3.0982275-15.212282-3.1880286-22.0788248.4730822-12.9980839,6.9303326-17.4650801,24.1058396-16.8686814,37.76616.8520512,19.5159583,13.4661028,35.9657874,19.1098169,54.1712961,1.5169544,4.8933958,2.5747393,9.9281762,2.7029272,15.0626268.1215281,4.8676969-.2939893,10.6016962-3.9172508,14.2631541-6.517935,6.5866471-16.4232203.2985563-21.8993364-4.5060418-6.9750411-6.1197149-11.4470681-14.3868663-18.5250004-20.4307285-6.1342029-5.2380096-14.5879321-10.2743476-22.9357397-7.661635-9.2015262,2.879911-11.3699366,12.1858641-14.1567024,20.2266452-2.501116,7.2165828-7.5437762,12.1278477-15.090425,13.7145784-15.0442327,3.1631453-30.9319002-5.8798226-39.3148402-17.9208753-11.6192401-16.6895961-16.0323087-37.3348944-28.2737864-53.6499145-9.1924626-12.2513977-25.6075603-21.354913-41.2360792-19.6429248-7.36457.806734-14.01298,4.2256648-18.473445,10.2199929-5.8931331,7.9196617-6.4972648,18.1875722-6.3394148,27.7028598.4055832,24.4487841,1.335852,48.9001163,2.0100104,73.3430935.1655652,6.0029012.4994776,12.0284272.442908,18.0341046-.0447982,4.75597-.5547396,10.1750363-4.2407855,13.6226772-6.518702,6.0970873-17.0937384,3.2918325-23.2293968-1.7964628-8.1221814-6.7357169-13.0200652-17.06138-18.3370044-25.9571851-6.4583889-10.805572-12.9167778-21.6111441-19.3751666-32.4167161-12.5305923-20.9650147-24.860888-42.0660954-37.6171846-62.8944665-9.208692-15.0358729-20.312901-30.910899-37.3592746-37.5816466-18.6868477-7.3127134-37.8685829.7018778-52.4349864,12.8032172-7.5776843,6.2953171-14.1035651,13.7021103-20.0738245,21.5108852-2.3443403,3.0662697,2.8644163,6.0580504,5.1808241,3.0283149h0Z" fill="#f9f2f6"/>
      </g>
      <polygon points="727.8078405 2211.427311 1278.173913 2036.1304348 1320.4347826 2137.0869565 825.0434783 2418.826087 727.8078405 2211.427311" fill="url(#linear-gradient22)"/>
      <polygon points="750.8078405 2199.427311 1301.173913 2024.1304348 1343.4347826 2125.0869565 848.0434783 2406.826087 750.8078405 2199.427311" fill="url(#linear-gradient23)"/>
      <polygon points="841.2648656 2451.411075 1336.5217391 2176 1389.1846399 2295.9543941 918.8867752 2654.6685738 841.2648656 2451.411075" fill="url(#linear-gradient24)"/>
      <polygon points="862.2648656 2440.411075 1357.5217391 2165 1410.1846399 2284.9543941 939.8867752 2643.6685738 862.2648656 2440.411075" fill="url(#linear-gradient25)"/>
      <path d="M1241.8909389,2397.2564447l.0000686-.0000381c17.6852842-9.81882,24.8122411-30.6898915,16.4279962-48.1088757l-105.8037949-219.8164125c-9.51568-19.7696372-35.0038058-27.2003022-55.0756796-16.0564543l-.0000686.0000381c-17.6852842,9.81882-24.8122411,30.6898915-16.4279962,48.1088757l105.8037949,219.8164125c9.51568,19.7696372,35.0038058,27.2003022,55.0756796,16.0564543Z" fill="url(#linear-gradient26)"/>
      <path d="M1155.2101596,2445.3813696l.0000686-.0000381c17.6852842-9.81882,24.8122411-30.6898915,16.4279962-48.1088757l-78.4357303-162.9569228c-9.51568-19.7696372-35.0038058-27.2003022-55.0756796-16.0564543l-.0000686.0000381c-17.6852842,9.81882-24.8122411,30.6898915-16.4279962,48.1088757l78.4357303,162.9569228c9.51568,19.7696372,35.0038058,27.2003022,55.0756796,16.0564543Z" fill="url(#linear-gradient27)"/>
      <path d="M1068.5293803,2493.5062945l.0000686-.0000381c17.6852842-9.81882,24.8122411-30.6898915,16.4279962-48.1088757l-48.9464128-101.6903493c-9.51568-19.7696372-35.0038058-27.2003022-55.0756796-16.0564543l-.0000686.0000381c-17.6852842,9.81882-24.8122411,30.6898915-16.4279962,48.1088757l48.9464128,101.6903493c9.51568,19.7696372,35.0038058,27.2003022,55.0756796,16.0564543Z" fill="url(#linear-gradient28)"/>
      <path d="M981.848601,2541.6312194l.0000686-.0000381c17.6852842-9.81882,24.8122411-30.6898915,16.4279962-48.1088757l-19.3252774-40.1499129c-9.51568-19.7696372-35.0038058-27.2003022-55.0756796-16.0564543l-.0000686.0000381c-17.6852842,9.81882-24.8122411,30.6898915-16.4279962,48.1088757l19.3252774,40.1499129c9.51568,19.7696372,35.0038058,27.2003022,55.0756796,16.0564543Z" fill="url(#linear-gradient29)"/>
    </g>
  </g>
</svg>