<?xml version="1.0" encoding="utf-8"?>
<!-- Generator: Adobe Illustrator 28.1.0, SVG Export Plug-In . SVG Version: 6.00 Build 0)  -->
<svg version="1.1" id="Layer_5" xmlns="http://www.w3.org/2000/svg" xmlns:xlink="http://www.w3.org/1999/xlink" x="0px" y="0px"
	 viewBox="0 0 2500 2500" style="enable-background:new 0 0 2500 2500;" xml:space="preserve">
<g>
	<rect y="0" style="fill:#355360;" width="2500" height="2500"/>
	<path style="fill:#FACACA;" d="M0,1250c0,0,2162.23,73.47,2500-1250v2500H0V1250z"/>
	<path style="fill:#1E160D;" d="M1887.25,502.06c0,0,91.76,49.41,120.78,203.92c26.76,142.48,126.54,91.55,153.92,185.45
		c7.14,24.51-11.11,49.04-36.63,49.81c-0.4,0.01-0.8,0.02-1.21,0.03c0,0,40.78,149.8,23.53,268.23
		c-17.25,118.43-27.35,188.65-225.88,183.53c-131.52-3.4-115.82,535.18,265.09,701.16l-803.91,20.39l-138.82-993.71l312.94-592.15
		L1887.25,502.06z"/>
	<circle style="fill:#FF9700;" cx="1689.71" cy="552.32" r="159.68"/>
	<circle style="fill:#FF9700;" cx="1828.65" cy="502.06" r="206.49"/>
	<circle style="fill:#FF9700;" cx="1571.96" cy="355.78" r="233.83"/>
	<circle style="fill:#FF9700;" cx="1388.18" cy="413.94" r="268.49"/>
	<circle style="fill:#FF9700;" cx="1112.36" cy="429.9" r="117.64"/>
	<circle style="fill:#FF9700;" cx="983.74" cy="553.82" r="123.92"/>
	<circle style="fill:#FF9700;" cx="1300.22" cy="257.51" r="180.54"/>
	<circle style="fill:#FF9700;" cx="1689.71" cy="189.91" r="144.31"/>
	<circle style="fill:#FF9700;" cx="1500.43" cy="151.55" r="105.96"/>
	<g>
		<defs>
			<path id="XMLID_00000077292903862009536900000007444266427054306739_" d="M1469.44,1763.45c0,0,193.5-91.22,334.67,148.78
				s103.17-99.51,103.17-99.51s505.44,322.97,574.46,687.31h-859.59l-152.72-707.01V1763.45z"/>
		</defs>
		<use xlink:href="#XMLID_00000077292903862009536900000007444266427054306739_"  style="overflow:visible;fill:#1E3348;"/>
		<clipPath id="XMLID_00000151505514155718460560000014830471055091086724_">
			<use xlink:href="#XMLID_00000077292903862009536900000007444266427054306739_"  style="overflow:visible;"/>
		</clipPath>
		<path style="clip-path:url(#XMLID_00000151505514155718460560000014830471055091086724_);fill:#83C0F2;" d="M1799.93,2164.25
			h209.81c57.07,0,75.6-77.28,24.45-102.58c-9.12-4.51-20.15-7.49-33.47-8.26c0,0-117.12-111.89-202.87-37.65
			c-85.75,74.25-71.11,87.84-71.11,87.84L1799.93,2164.25z"/>
		<path style="clip-path:url(#XMLID_00000151505514155718460560000014830471055091086724_);fill:#83C0F2;" d="M2142.76,2457.05
			h-321.48c-23.66,0-39.6-24.13-30.41-45.93c22.55-53.47,70.08-133,150.23-120.34c75.31,11.89,105.97,49.24,118.33,75.14
			c6.35,13.3,20.71,20.94,35.24,18.48c18.72-3.17,44.24-3.06,66.79,12.4C2188.23,2415.13,2175.2,2457.05,2142.76,2457.05z"/>
		<path style="clip-path:url(#XMLID_00000151505514155718460560000014830471055091086724_);fill:#83C0F2;" d="M2426.95,2335.75
			h-169.72c-14.09,0-25.78-10.89-26.78-24.95c-1.73-24.17,4.05-57.38,48.43-58.71c36.03-1.08,57.68,5.04,70.21,11.23
			c10.73,5.3,23.69,2.72,31.7-6.18l0,0c11.19-12.44,30.92-11.72,41.17,1.51l26.21,33.8
			C2461.85,2310.09,2449.28,2335.75,2426.95,2335.75z"/>
		<path style="clip-path:url(#XMLID_00000151505514155718460560000014830471055091086724_);fill:#83C0F2;" d="M1709.91,1896.54
			h-192.33c0,0-34.81-125.93,81.57-108.76c116.38,17.18,104.57,62.74,104.57,62.74s2.94-0.39,7.53-0.16
			C1741.14,1851.86,1739.83,1896.54,1709.91,1896.54z"/>
		<path style="clip-path:url(#XMLID_00000151505514155718460560000014830471055091086724_);fill:#83C0F2;" d="M2045.67,1942.55
			h-75.05c-26,0-42.47-28.69-28.56-50.66c5.88-9.3,16.11-15.22,33.54-12.08c21.48,3.87,36.61-0.38,46.98-6.73
			c14.52-8.89,33.48-5.06,43.89,8.42l5.61,7.27C2089.04,1910.7,2073.4,1942.55,2045.67,1942.55z"/>
		<path style="clip-path:url(#XMLID_00000151505514155718460560000014830471055091086724_);fill:#83C0F2;" d="M2202.94,2114.58h20.3
			c40.74,0,57.45-52.3,24.26-75.93l-19.95-14.2c-24.45-17.41-58.9-4.2-65.15,25.16c-1.62,7.62-2.17,16.58-1.12,27.12
			C2163.41,2098.18,2181.38,2114.58,2202.94,2114.58z"/>
	</g>
	<path style="fill:#BC4E35;" d="M1527,576.83c0,0,99.34,36.6,144.31,212.28c0,0,7.32,69.02,69.02,95.16
		c61.7,26.14,107.19,96.21,79.48,118.17c-27.71,21.96-53.33,27.19-53.33,27.19s76.34,67.45,77.38,70.06
		c1.05,2.61,17.78,85.23-12.55,144.31c-30.33,59.08,41.83,142.22-154.77,141.17c-196.6-1.05-221.09,213.33-195.77,344.57
		c25.32,131.24-270.1-163.13-270.1-163.13l4.71-798.42l162.61-215.42L1527,576.83z"/>
	<path style="fill:#191738;" d="M945.46,552.78c0,0,170.83-241.3,519.06-131.5c192.04,60.55,277.7,119.2,315.9,159.62
		c21.17,22.4,11.01,59.26-18.66,67.61l-232.94,65.51c-11.78,3.31-24.43,0.61-33.83-7.22l-54.73-45.61
		c-9.95-8.3-25.1-1.56-25.6,11.39l-1.81,46.37c-1.03,26.5-15.9,50.51-39.16,63.24l-163.03,89.27L945.46,552.78z"/>
	<g>
		<defs>
			<path id="XMLID_00000153680031250890529990000008198383777452485513_" d="M1350.79,1484l76.88,27.84
				c32.42,11.74,55.18,41.1,58.46,75.43l16.85,176.19c0,0,105.06-3.38,186.62,162.89c81.57,166.27,306.66,259.6,294.9,374.89
				c-11.76,115.29-48.63,198.79-48.63,198.79H953.93v-943.87L1350.79,1484z"/>
		</defs>
		<use xlink:href="#XMLID_00000153680031250890529990000008198383777452485513_"  style="overflow:visible;fill:#197246;"/>
		<clipPath id="XMLID_00000121972042706318228720000017958024434115840694_">
			<use xlink:href="#XMLID_00000153680031250890529990000008198383777452485513_"  style="overflow:visible;"/>
		</clipPath>
		<g style="clip-path:url(#XMLID_00000121972042706318228720000017958024434115840694_);">
			<circle style="fill:#F2A809;" cx="1679.34" cy="1999.84" r="149.31"/>
			<circle cx="1671.89" cy="2004.18" r="81.19"/>
		</g>
		<g style="clip-path:url(#XMLID_00000121972042706318228720000017958024434115840694_);">
			<circle style="fill:#F2A809;" cx="1205.17" cy="1744.62" r="192.71"/>
			<circle cx="1195.55" cy="1750.22" r="104.78"/>
		</g>
		<g style="clip-path:url(#XMLID_00000121972042706318228720000017958024434115840694_);">
			<circle style="fill:#F2A809;" cx="1545.48" cy="1524.4" r="149.31"/>
			<circle cx="1538.03" cy="1528.74" r="81.19"/>
		</g>
		<g style="clip-path:url(#XMLID_00000121972042706318228720000017958024434115840694_);">
			<circle style="fill:#F2A809;" cx="1762.58" cy="2310.05" r="86.81"/>
			<circle cx="1758.25" cy="2312.58" r="47.2"/>
		</g>
		<g style="clip-path:url(#XMLID_00000121972042706318228720000017958024434115840694_);">
			<circle style="fill:#F2A809;" cx="1361.36" cy="2275.47" r="165.37"/>
			<circle cx="1353.11" cy="2280.28" r="89.92"/>
		</g>
		<g style="clip-path:url(#XMLID_00000121972042706318228720000017958024434115840694_);">
			<circle style="fill:#F2A809;" cx="970.37" cy="2077.71" r="149.31"/>
			<circle cx="962.92" cy="2082.06" r="81.19"/>
		</g>
		<g style="clip-path:url(#XMLID_00000121972042706318228720000017958024434115840694_);">
			<circle style="fill:#F2A809;" cx="2034.13" cy="2344.38" r="149.31"/>
			<circle cx="2026.68" cy="2348.72" r="81.19"/>
		</g>
	</g>
	<path style="fill:#FE8E9C;" d="M1065.83,576.83c0,0,186.14,69.02,246.79,368.1c0,0,40.41,74.7,115.4,83.79
		c26.85,3.26,45.05,29.09,38.75,55.39c-7.49,31.28-25.23,66.71-66.31,82.51c0,0,141.17,289.67,49.15,377.51
		c-92.02,87.84-391.1-19.87-383.78,296.99c7.32,316.86,316.86,418.29,316.86,418.29l-972.53-108.76c0,0,238.43-229.02,343-330.45
		c104.57-101.44,27.19-460.12,27.19-460.12s-144.63-23.09-108.39-167.88c36.24-144.79,181.59-74.73,181.59-74.73L1065.83,576.83z"/>
	<path style="fill:#FFFCF9;" d="M1065.83,576.83c0,0,214.38,406.79-212.28,540.64c0,0-137.31-48.19-181.59,74.73
		s108.39,167.88,108.39,167.88s248.53,281.14-13.59,490.45s-420.38,334.83-417.25,649.5L0,2500l152.38-1278.67
		c0-220.72,100.08-430.18,273.53-566.68C572.91,538.97,783.09,467.03,1065.83,576.83z"/>
	<g>
		<defs>
			<path id="XMLID_00000005979982250442956350000010880955769754986429_" d="M766.75,1850.53c0,0,132.22,210.75,358.91,202.11
				c0,0,282.12,162.85,331.27,287.3c49.15,124.44,46.01,160.09,46.01,160.09H349.5C349.5,2500.03,215.65,2101.51,766.75,1850.53z"/>
		</defs>
		<use xlink:href="#XMLID_00000005979982250442956350000010880955769754986429_"  style="overflow:visible;fill:#D43C0D;"/>
		<clipPath id="XMLID_00000081634518374569039900000005316800348142374590_">
			<use xlink:href="#XMLID_00000005979982250442956350000010880955769754986429_"  style="overflow:visible;"/>
		</clipPath>
		<polygon style="clip-path:url(#XMLID_00000081634518374569039900000005316800348142374590_);fill:#A32402;" points="
			662.18,2119.28 558.87,2098.25 482.97,2171.43 471.05,2066.68 378,2017.11 473.94,1973.4 492.33,1869.59 563.55,1947.33 
			667.96,1932.74 616.03,2024.49 		"/>
		<polygon style="clip-path:url(#XMLID_00000081634518374569039900000005316800348142374590_);fill:#A32402;" points="
			824.18,2219.67 850.98,2211.09 859.11,2184.15 875.55,2206.99 903.69,2206.39 887.05,2229.08 896.31,2255.66 869.59,2246.85 
			847.17,2263.87 847.29,2235.73 		"/>
		<polygon style="clip-path:url(#XMLID_00000081634518374569039900000005316800348142374590_);fill:#A32402;" points="
			1176.68,1992.01 1244.79,2079.04 1355.1,2072.26 1293.38,2163.94 1333.92,2266.75 1227.66,2236.39 1142.4,2306.71 
			1138.44,2196.26 1045.22,2136.91 1149.03,2099.02 		"/>
		<polygon style="clip-path:url(#XMLID_00000081634518374569039900000005316800348142374590_);fill:#A32402;" points="
			602.57,2379.67 534.56,2378.39 494.95,2433.68 475.16,2368.6 410.33,2348.02 466.1,2309.08 465.65,2241.07 519.91,2282.08 
			584.46,2260.63 562.22,2324.91 		"/>
		<polygon style="clip-path:url(#XMLID_00000081634518374569039900000005316800348142374590_);fill:#A32402;" points="975.9,2407.9 
			1009.45,2405.28 1026.31,2376.16 1039.17,2407.26 1072.09,2414.3 1046.48,2436.14 1049.96,2469.62 1021.27,2452.01 
			990.51,2465.67 998.39,2432.94 		"/>
		<polygon style="clip-path:url(#XMLID_00000081634518374569039900000005316800348142374590_);fill:#A32402;" points="
			953.93,2031.44 880.3,2014.05 824.23,2064.85 818.02,1989.45 752.38,1951.82 822.17,1922.61 837.67,1848.56 887.02,1905.91 
			962.24,1897.77 922.95,1962.42 		"/>
		<polygon style="clip-path:url(#XMLID_00000081634518374569039900000005316800348142374590_);fill:#A32402;" points="
			1336.67,2385.94 1400.94,2365.84 1420.81,2301.51 1459.79,2356.42 1527.11,2355.44 1486.94,2409.47 1508.67,2473.2 
			1444.87,2451.69 1390.97,2492.06 1391.72,2424.73 		"/>
	</g>
	<path style="fill:#990045;" d="M1450.73,1293.5c0,0,44.99-52.64,7.25-71.46c-40.57-20.23-113.73,75.97-181.08,135.93
		c-6.4,5.69-2.5,16.28,6.06,16.5c52.63,1.32,172.51,2.2,190.98-16.48C1497.72,1333.94,1450.73,1293.5,1450.73,1293.5z"/>
	<path d="M1275.29,972.35c-4.36,42.71-38.95,75.91-79.29,87.08c-3.98,1.38-10.27,2.62-14.42,3.61c-2.46,0.42-8.57,1.43-10.94,1.82
		c-10.83,1.3-22.04,2.56-32.98,2.74c-16.98,0.73-33.87-2.29-49.98-7.51c0,0,10.42-1.45,10.42-1.45
		c-19.59,7.89-39.68,14.65-60.79,17.37c-1.47,0.21-2.52-1.69-1.51-2.81c3.55-4.26,7.33-8.1,11.18-11.8
		c11.41-10.89,23.82-20.52,36.78-29.39c2.09-1.41,4.5-1.97,6.83-1.77l3.58,0.32c6.62,0.55,13.13,1.48,19.68,2.24
		c15.04,1.96,29.89,5.4,45.05,6.43c3.1,0.11,6.55,0.18,9.67,0.22c2.07-0.1,7.48-0.36,9.61-0.46c3.62-0.42,9.1-0.88,12.64-1.58
		c1.72-0.31,4.56-0.69,6.26-1.14c34.18-6.55,64.36-30.59,75.07-64.38c0.2-0.89,1.14-1.45,2.03-1.17
		C1274.9,970.93,1275.35,971.62,1275.29,972.35L1275.29,972.35z"/>
	<path d="M1622.16,825.71c-10.96,11.99-25.36,20.3-40.45,26.15c-46.99,18.36-102.56,4.52-135.47-33.73c0,0,3.04,0.76,3.04,0.76
		c-16.59,2.23-33.2,4.33-49.86,6.04c8.04-2.38,16.1-4.64,24.18-6.84c8.07-2.21,16.16-4.37,24.25-6.47c0.75-0.2,1.52-0.08,2.15,0.26
		C1508.27,845.16,1558.91,847.25,1622.16,825.71L1622.16,825.71z"/>
	<path style="fill:#FFFFFF;" d="M1962.54,757.74c-31.75,41.33-88.72,64.88-140.23,50.98c-4.29-1.1-8.72-2.62-12.85-4.22
		c-1.16-0.49-6.71-2.88-7.74-3.33c-2.14-1.1-5.28-2.78-7.41-3.91c-4.8-2.74-9.51-5.75-13.87-9.13c0,0-5.22-4.02-5.22-4.02l5.76,1.7
		c-2.72-0.08-5.44-0.25-8.17-0.37c-19.2-1.01-38.36-2.53-57.32-6.03c15.94-4.44,32.17-7.33,48.48-9.84
		c5.39-0.83,10.8-1.55,16.2-2.25c2.14-0.33,4.04,0.69,5.76,1.7c6.62,3.68,13.57,7.46,20.61,10.21c1.49,0.61,3.75,1.61,5.26,2.09
		c3.06,1.09,7.6,2.64,10.72,3.39C1870.63,798.14,1919.47,780.24,1962.54,757.74L1962.54,757.74z"/>
	<path style="fill:#C40049;" d="M1736.49,1202.58c-18.58-1.82-25.98-24.96-11.92-37.24c39.33-34.36,100.94-83.89,124.82-79.76
		c36.29,6.27-0.38,55.56-0.38,55.56s47.65,18.16,27.26,49.53C1862.94,1211.19,1787.27,1207.56,1736.49,1202.58z"/>
	<path style="fill:#940000;" d="M2053.34,1129.82c-20.05-9.48-25.55-35.52-10.98-52.24c31.5-36.15,84.62-86.53,122.57-67.3
		c57.25,29.02-15.69,81.57-15.69,81.57s40.2,8.35,25.1,54.04C2164.24,1176.42,2096.91,1150.43,2053.34,1129.82z"/>
	<path d="M1276.9,1362.09c-1.67,0-3.24-1.03-3.85-2.68c-0.79-2.13,0.3-4.49,2.42-5.28l173.83-64.47c2.12-0.79,4.49,0.3,5.28,2.42
		c0.79,2.13-0.3,4.49-2.42,5.28l-173.83,64.47C1277.85,1362,1277.37,1362.09,1276.9,1362.09z"/>
	<path d="M1370.1,1173.92c-8.88,0-14.71-1.04-15.37-1.17c-2.23-0.42-3.7-2.57-3.28-4.8c0.42-2.23,2.57-3.7,4.8-3.28
		c0.61,0.11,43.69,7.62,77.91-21.89c1.72-1.48,4.31-1.29,5.8,0.43c1.48,1.72,1.29,4.31-0.43,5.8
		C1415.03,1170.13,1387.03,1173.92,1370.1,1173.92z"/>
	<path d="M866.09,1312.43c-1.72,0-3.32-1.08-3.89-2.8c-23.45-69.61-113-111.67-113.9-112.09c-2.06-0.95-2.96-3.39-2.01-5.45
		s3.39-2.96,5.45-2.01c0.95,0.44,23.64,11,49.67,30.65c24.17,18.24,55.68,48.01,68.57,86.28c0.72,2.15-0.43,4.48-2.58,5.21
		C866.97,1312.36,866.53,1312.43,866.09,1312.43z"/>
	<path d="M824.18,1249.68h-74.16c-2.27,0-4.11-1.84-4.11-4.11s1.84-4.11,4.11-4.11h74.16c2.27,0,4.11,1.84,4.11,4.11
		S826.45,1249.68,824.18,1249.68z"/>
	<path d="M1706.86,1042.63c-1.93,0-3.65-1.36-4.03-3.33c-0.43-2.23,1.02-4.39,3.25-4.82l78.05-15.16c2.22-0.44,4.39,1.02,4.82,3.25
		c0.43,2.23-1.02,4.39-3.25,4.82l-78.05,15.16C1707.38,1042.61,1707.12,1042.63,1706.86,1042.63z"/>
	<path style="fill:#FFFFFF;" d="M2083.95,948.69c-34.3,0-66.46-6.07-68.85-6.53c-2.23-0.43-3.69-2.58-3.26-4.81
		c0.43-2.23,2.59-3.69,4.81-3.26c1.02,0.2,102.43,19.32,134.77-9.77c1.69-1.52,4.29-1.38,5.8,0.31c1.52,1.69,1.38,4.29-0.31,5.8
		C2141.07,944.69,2111.81,948.69,2083.95,948.69z"/>
	<path d="M2048.29,1103.28c-2.13,0-3.94-1.65-4.1-3.81c-0.16-2.26,1.54-4.23,3.8-4.4l100.94-7.32c2.26-0.17,4.23,1.54,4.4,3.8
		c0.16,2.26-1.54,4.23-3.8,4.4l-100.94,7.32C2048.49,1103.28,2048.39,1103.28,2048.29,1103.28z"/>
	<path d="M1722.55,1190.6c-1.69,0-3.27-1.05-3.87-2.72c-0.77-2.14,0.34-4.49,2.48-5.26l126.47-45.35c2.14-0.76,4.49,0.34,5.26,2.48
		c0.77,2.14-0.34,4.49-2.48,5.26l-126.47,45.35C1723.48,1190.52,1723.01,1190.6,1722.55,1190.6z"/>
	<circle style="fill:#D43C0D;" cx="1081.36" cy="1304.07" r="97.62"/>
	<circle style="fill:#DB337F;" cx="1573.55" cy="1093.92" r="70.57"/>
	<circle style="fill:#940000;" cx="1895.63" cy="1006.04" r="56.61"/>
</g>
</svg>
