<?xml version="1.0" encoding="utf-8"?>
<!-- Generator: Adobe Illustrator 29.8.1, SVG Export Plug-In . SVG Version: 9.03 Build 0)  -->
<svg version="1.0" id="Layer_1" xmlns="http://www.w3.org/2000/svg" xmlns:xlink="http://www.w3.org/1999/xlink" x="0px" y="0px"
	 viewBox="0 0 2000 1500" style="enable-background:new 0 0 2000 1500;" xml:space="preserve">
<g>
	<g>
		<g>
			<rect style="fill:#FE728C;" width="2000" height="1500"/>
		</g>
	</g>
	<g>
		<g>
			<path style="fill:#EF5072;" d="M1408.886,1209.34c-0.691,0-1.363-0.358-1.734-1c-0.552-0.957-0.225-2.18,0.732-2.732
				l336.636-194.357c21.007-12.128,33.548-33.85,33.548-58.105s-12.541-45.978-33.548-58.105l-74.82-43.197
				c-18.825-10.869-30.52-31.123-30.52-52.86V654.485c0-12.141,6.506-23.499,16.979-29.641l10.883-6.382
				c0.95-0.56,2.178-0.24,2.737,0.713c0.559,0.953,0.239,2.178-0.714,2.737l-10.883,6.382c-9.254,5.428-15.003,15.463-15.003,26.191
				v144.496c0,20.312,10.928,39.24,28.52,49.396l74.82,43.197c22.259,12.852,35.548,35.868,35.548,61.57
				s-13.289,48.719-35.548,61.57l-336.636,194.357C1409.569,1209.254,1409.225,1209.34,1408.886,1209.34z"/>
		</g>
	</g>
	<g>
		<g>
			<path d="M1797.263,735.05c-0.346,0-0.69-0.089-1-0.268l-103.991-60.039c-0.619-0.357-1-1.018-1-1.732v-220.13
				c0-0.714,0.381-1.375,1-1.732c0.619-0.357,1.381-0.357,2,0l103.991,60.04c0.619,0.357,1,1.018,1,1.732v220.13
				c0,0.714-0.381,1.375-1,1.732C1797.953,734.961,1797.608,735.05,1797.263,735.05z M1695.271,671.856l99.991,57.73V514.075
				l-99.991-57.73V671.856z"/>
		</g>
	</g>
	<g>
		<g>
			<path style="fill:#233344;" d="M1744.368,538.65c-9.171-5.295-17.48-5.786-23.48-2.299l-56.384,32.767
				c6-3.487,14.309-2.996,23.48,2.299c18.235,10.528,32.961,36.041,32.901,56.987c-0.029,10.406-3.703,17.729-9.629,21.173
				l56.384-32.767c5.926-3.444,9.599-10.767,9.629-21.173C1777.329,574.692,1762.603,549.178,1744.368,538.65z"/>
		</g>
		<g>
			<path d="M1711.259,651.578c-0.689,0-1.36-0.357-1.731-0.996c-0.555-0.955-0.23-2.179,0.725-2.734
				c5.541-3.221,8.607-10.128,8.634-19.45c0.058-20.275-14.253-45.06-31.901-55.249c-8.224-4.749-15.847-5.565-21.464-2.308
				l-0.012,0.006c0,0,0,0,0,0c-0.957,0.555-2.181,0.229-2.734-0.725c-0.555-0.955-0.23-2.179,0.725-2.734v0
				c0.004-0.002,0.009-0.004,0.013-0.007l56.371-32.759c6.912-4.018,15.964-3.203,25.485,2.296
				c18.755,10.828,33.963,37.172,33.901,58.725c-0.03,10.801-3.804,18.933-10.624,22.896l-56.377,32.763
				c-0.002,0.001-0.004,0.002-0.007,0.004l0,0C1711.945,651.49,1711.6,651.578,1711.259,651.578z M1675.572,564.999
				c4.229,0.435,8.765,2.002,13.412,4.686c18.755,10.828,33.963,37.172,33.901,58.725c-0.015,5.208-0.899,9.795-2.576,13.593
				l46.326-26.921c5.541-3.221,8.607-10.128,8.634-19.45c0.058-20.273-14.255-45.059-31.901-55.249l0,0
				c-8.229-4.75-15.857-5.568-21.476-2.301L1675.572,564.999z"/>
		</g>
	</g>
	<g>
		<g>
			<path style="fill:#BFD8F6;" d="M1687.984,571.417c18.235,10.528,32.961,36.042,32.901,56.987
				c-0.059,20.946-14.882,29.4-33.116,18.872c-18.228-10.524-32.954-36.038-32.895-56.983
				C1654.934,569.347,1669.756,560.893,1687.984,571.417z"/>
		</g>
		<g>
			<path d="M1702.585,653.82c-4.894,0-10.276-1.614-15.815-4.812c-18.751-10.825-33.956-37.167-33.895-58.721
				c0.03-10.84,3.826-18.986,10.689-22.935c6.903-3.974,15.931-3.145,25.42,2.333c18.755,10.828,33.963,37.172,33.901,58.725
				c-0.031,10.84-3.827,18.985-10.689,22.935C1709.321,652.999,1706.077,653.82,1702.585,653.82z M1673.188,568.879
				c-2.804,0-5.376,0.643-7.628,1.939c-5.574,3.208-8.658,10.126-8.685,19.479c-0.058,20.276,14.25,45.059,31.895,55.246
				c8.204,4.736,15.816,5.567,21.432,2.333c5.574-3.207,8.658-10.125,8.685-19.479c0.058-20.275-14.253-45.06-31.901-55.249
				C1682.073,570.313,1677.373,568.879,1673.188,568.879z"/>
		</g>
	</g>
	<g>
		<g>
			<path style="fill:#233344;" d="M1675.197,599.028c8.375,4.835,15.138,16.553,15.11,26.172c-0.027,9.62-6.835,13.502-15.209,8.667
				c-8.372-4.833-15.135-16.551-15.108-26.171C1660.018,598.077,1666.826,594.195,1675.197,599.028z"/>
		</g>
		<g>
			<path d="M1681.905,637.957c-2.438,0-5.093-0.79-7.807-2.357c-9.062-5.231-16.137-17.491-16.107-27.909
				c0.015-5.38,1.95-9.453,5.45-11.467c3.518-2.025,8.049-1.645,12.756,1.072l0,0c9.063,5.233,16.14,17.493,16.11,27.91
				c-0.016,5.38-1.951,9.453-5.451,11.467C1685.366,637.531,1683.694,637.957,1681.905,637.957z M1668.406,598.943
				c-1.101,0-2.102,0.248-2.969,0.747c-2.212,1.272-3.436,4.118-3.446,8.012c-0.025,8.967,6.303,19.928,14.107,24.434
				c3.421,1.974,6.531,2.354,8.763,1.071c2.211-1.273,3.436-4.118,3.446-8.012c0.025-8.966-6.305-19.927-14.11-24.435l0,0
				C1672.108,599.554,1670.135,598.943,1668.406,598.943z"/>
		</g>
	</g>
	<g>
		<g>
			<path d="M1415.965,1145.324c-0.691,0-1.363-0.358-1.734-1c-0.552-0.957-0.225-2.18,0.732-2.732l277.657-160.306
				c21.007-12.128,33.548-33.85,33.548-58.105s-12.541-45.978-33.548-58.105l-68.351-39.462
				c-22.815-13.173-36.988-37.722-36.988-64.066v-53.349c0-26.947,14.497-52.056,37.834-65.53l47.338-27.331
				c0.955-0.554,2.179-0.224,2.732,0.732c0.552,0.957,0.225,2.18-0.732,2.732l-47.338,27.331
				c-22.104,12.762-35.834,36.544-35.834,62.066v53.349c0,24.92,13.406,48.142,34.988,60.602l68.351,39.462
				c22.259,12.852,35.548,35.868,35.548,61.57s-13.289,48.719-35.548,61.57l-277.657,160.306
				C1416.648,1145.238,1416.304,1145.324,1415.965,1145.324z"/>
		</g>
	</g>
	<g>
		<g>
			<polygon style="fill:#EF5072;" points="1415.963,1223.376 549.373,1123.311 1069.327,1500 2000,1500 			"/>
		</g>
		<g>
			<path style="fill:#EF5072;" d="M2000,1502h-930.673c-0.421,0-0.832-0.133-1.174-0.38l-519.954-376.688
				c-0.736-0.534-1.02-1.497-0.69-2.345c0.33-0.848,1.19-1.378,2.094-1.262l866.59,100.064c0.217,0.025,0.429,0.086,0.627,0.18
				l584.037,276.623c0.845,0.4,1.3,1.334,1.095,2.246C2001.746,1501.352,2000.936,1502,2000,1502z M1069.976,1498h921.13
				l-575.7-272.674l-858.671-99.151L1069.976,1498z"/>
		</g>
	</g>
	<g>
		<g>
			<g>
				<polygon style="fill:#02CE53;" points="1069.327,703.037 1069.327,1263.402 549.373,963.207 549.373,402.842 				"/>
			</g>
			<g>
				<path d="M1069.327,1265.402c-0.346,0-0.69-0.089-1-0.268L548.373,964.939c-0.619-0.357-1-1.018-1-1.732V402.842
					c0-0.714,0.381-1.375,1-1.732c0.619-0.357,1.381-0.357,2,0l519.954,300.196c0.619,0.357,1,1.018,1,1.732v560.365
					c0,0.715-0.381,1.375-1,1.732C1070.018,1265.313,1069.673,1265.402,1069.327,1265.402z M551.373,962.053l515.954,297.886
					V704.192L551.373,406.306V962.053z"/>
			</g>
		</g>
		<g>
			<g>
				<path d="M1014.634,1210.752c-7.31,0-14.561-1.956-20.97-5.656L603.037,979.567c-25.29-14.601-41-41.812-41-71.015V497.522
					c0-23.175,18.854-42.03,42.03-42.03c7.31,0,14.561,1.956,20.97,5.657l400.627,231.301c19.121,11.041,31,31.615,31,53.694
					v422.578C1056.664,1191.897,1037.81,1210.752,1014.634,1210.752z M604.067,459.492c-20.97,0-38.03,17.06-38.03,38.03v411.031
					c0,27.778,14.944,53.662,39,67.55l390.627,225.528c5.802,3.351,12.361,5.121,18.97,5.121c20.97,0,38.03-17.06,38.03-38.029
					V746.145c0-20.655-11.112-39.901-29-50.23L623.037,464.613C617.234,461.263,610.675,459.492,604.067,459.492z"/>
			</g>
		</g>
		<g>
			<g>
				<path style="fill:#233344;" d="M584.037,908.553V497.522c0-15.396,16.667-25.019,30-17.32l400.627,231.302
					c12.376,7.145,20,20.35,20,34.641v422.578c0,15.396-16.667,25.019-30,17.321L614.037,960.514
					C595.473,949.797,584.037,929.989,584.037,908.553z"/>
			</g>
			<g>
				<path d="M1014.664,1190.758c-3.778,0-7.556-0.994-11-2.982L613.037,962.247c-19.121-11.04-31-31.614-31-53.694V497.522
					c0-7.954,4.112-15.076,11-19.053c6.887-3.976,15.111-3.977,22,0l400.627,231.302c12.953,7.479,21,21.416,21,36.373v422.578
					c0,7.953-4.112,15.076-11,19.053C1022.22,1189.764,1018.441,1190.758,1014.664,1190.758z M604.037,479.493
					c-3.092,0-6.183,0.813-9,2.44c-5.636,3.253-9,9.081-9,15.588v411.031c0,20.655,11.112,39.902,29,50.229l390.627,225.528
					c5.635,3.254,12.363,3.253,18,0.001c5.636-3.254,9-9.082,9-15.589V746.145c0-13.532-7.28-26.143-19-32.909L613.037,481.934
					C610.219,480.307,607.128,479.493,604.037,479.493z"/>
			</g>
		</g>
		<g>
			<g>
				<path style="fill:#509EFF;" d="M1034.663,746.145c0-14.29-7.624-27.495-19.999-34.641L663.159,508.562l-25.802-14.897
					c-12.179,19.966-18.622,42.901-18.622,66.289V854.91c0,18.712,3.321,37.276,9.808,54.827v0
					c5.815,15.734,16.952,28.939,31.479,37.327l374.642,216.3V746.145z"/>
			</g>
			<g>
				<path d="M1034.663,1165.363c-0.346,0-0.69-0.089-1-0.268l-374.642-216.3c-14.899-8.602-26.39-22.227-32.354-38.365
					c-6.59-17.83-9.932-36.51-9.932-55.521V559.954c0-23.763,6.54-47.045,18.914-67.33c0.565-0.926,1.769-1.232,2.707-0.69
					l377.308,217.838c12.953,7.479,20.999,21.416,20.999,36.373v417.219c0,0.715-0.381,1.375-1,1.732
					C1035.354,1165.274,1035.009,1165.363,1034.663,1165.363z M638.061,496.381c-11.341,19.259-17.325,41.196-17.325,63.573V854.91
					c0,18.536,3.258,36.749,9.684,54.134c5.642,15.265,16.51,28.151,30.603,36.287l371.642,214.568V746.145
					c0-13.533-7.28-26.143-18.999-32.909L638.061,496.381z"/>
			</g>
		</g>
		<g>
			<g>
				<polygon style="fill:#009B37;" points="1069.327,703.038 1311.972,562.946 1311.972,1123.311 1069.327,1263.403 				"/>
			</g>
			<g>
				<path d="M1069.327,1265.402c-0.346,0-0.69-0.089-1-0.268c-0.619-0.357-1-1.018-1-1.732V703.038c0-0.714,0.381-1.375,1-1.732
					l242.646-140.091c0.619-0.357,1.381-0.357,2,0c0.619,0.357,1,1.018,1,1.732v560.365c0,0.715-0.381,1.375-1,1.732
					l-242.646,140.091C1070.018,1265.313,1069.673,1265.402,1069.327,1265.402z M1071.327,704.192v555.746l238.646-137.781V566.411
					L1071.327,704.192z"/>
			</g>
		</g>
		<g>
			<g>
				<g>
					<polygon points="1069.331,1263.4 1069.331,1283.42 558.261,988.35 558.261,968.34 					"/>
				</g>
				<g>
					<path d="M1069.331,1285.42c-0.346,0-0.69-0.089-1-0.268l-511.07-295.07c-0.619-0.357-1-1.018-1-1.732v-20.01
						c0-0.715,0.381-1.375,1-1.732s1.381-0.357,2,0l511.07,295.061c0.619,0.357,1,1.018,1,1.732v20.02c0,0.715-0.381,1.375-1,1.732
						C1070.021,1285.331,1069.677,1285.42,1069.331,1285.42z M560.261,987.195l507.07,292.761v-15.401l-507.07-292.751V987.195z"/>
				</g>
			</g>
			<g>
				<g>
					<polygon points="1407.081,1068.4 1407.081,1088.42 1069.331,1283.42 1069.331,1263.4 					"/>
				</g>
				<g>
					<path d="M1069.331,1285.42c-0.346,0-0.69-0.089-1-0.268c-0.619-0.357-1-1.018-1-1.732v-20.02c0-0.715,0.381-1.375,1-1.732
						l337.75-195c0.619-0.357,1.381-0.357,2,0s1,1.018,1,1.732v20.02c0,0.715-0.381,1.375-1,1.732l-337.75,195
						C1070.021,1285.331,1069.677,1285.42,1069.331,1285.42z M1071.331,1264.555v15.401l333.75-192.69v-15.401L1071.331,1264.555z"
						/>
				</g>
			</g>
		</g>
		<g>
			<g>
				<polygon style="fill:#02CE53;" points="1069.327,1283.416 1069.327,1423.507 549.373,1123.311 549.373,983.22 558.261,980.116 
					558.261,988.35 				"/>
			</g>
			<g>
				<path d="M1069.327,1425.507c-0.346,0-0.69-0.089-1-0.268l-519.954-300.195c-0.619-0.357-1-1.018-1-1.732V983.22
					c0-0.851,0.538-1.607,1.341-1.889l8.888-3.104c0.61-0.212,1.288-0.117,1.817,0.258c0.528,0.375,0.842,0.983,0.842,1.631v7.079
					l510.066,294.487c0.619,0.357,1,1.018,1,1.732v140.092c0,0.715-0.381,1.375-1,1.732
					C1070.018,1425.418,1069.673,1425.507,1069.327,1425.507z M551.373,1122.157l515.954,297.886v-135.474L557.261,990.082
					c-0.619-0.357-1-1.018-1-1.732v-5.417l-4.888,1.707V1122.157z"/>
			</g>
		</g>
		<g>
			<g>
				<polygon style="fill:#009B37;" points="1069.327,1283.416 1311.972,1143.324 1311.972,1283.416 1069.327,1423.507 				"/>
			</g>
			<g>
				<path d="M1069.327,1425.507c-0.346,0-0.69-0.089-1-0.268c-0.619-0.357-1-1.018-1-1.732v-140.091c0-0.715,0.381-1.375,1-1.732
					l242.646-140.092c0.619-0.357,1.381-0.357,2,0s1,1.018,1,1.732v140.091c0,0.715-0.381,1.375-1,1.732l-242.646,140.092
					C1070.018,1425.418,1069.673,1425.507,1069.327,1425.507z M1071.327,1284.57v135.473l238.646-137.782v-135.473L1071.327,1284.57
					z"/>
			</g>
		</g>
		<g>
			<g>
				<polygon style="fill:#02CE53;" points="1069.327,703.037 1311.972,562.946 792.018,262.751 549.373,402.842 1069.327,703.038 
									"/>
			</g>
			<g>
				<path d="M1069.327,705.038c-0.346,0-0.69-0.089-1-0.268L548.373,404.574c-0.619-0.357-1-1.018-1-1.732s0.381-1.375,1-1.732
					l242.646-140.091c0.619-0.357,1.381-0.357,2,0l519.954,300.195c0.619,0.357,1,1.018,1,1.732s-0.381,1.375-1,1.732
					L1070.327,704.77C1070.018,704.948,1069.673,705.038,1069.327,705.038z M553.373,402.842l515.954,297.886l238.646-137.782
					L792.019,265.061L553.373,402.842z"/>
			</g>
		</g>
		<g>
			<g>
				<path style="fill:#233344;" d="M1383.963,644.536l-71.991-41.564v520.339l103.991-60.039v-363.31
					C1415.963,677.097,1403.765,655.969,1383.963,644.536z"/>
			</g>
			<g>
				<path d="M1311.973,1125.312c-0.346,0-0.69-0.089-1-0.268c-0.619-0.357-1-1.018-1-1.732V602.972c0-0.714,0.381-1.375,1-1.732
					c0.619-0.357,1.381-0.357,2,0l71.99,41.564c20.355,11.752,33,33.654,33,57.158v363.311c0,0.715-0.381,1.375-1,1.732
					l-103.99,60.039C1312.663,1125.223,1312.318,1125.312,1311.973,1125.312z M1313.973,606.437v513.411l99.99-57.729V699.962
					c0-22.08-11.879-42.654-31-53.694L1313.973,606.437z M1415.963,1063.272h0.01H1415.963z"/>
			</g>
		</g>
		<g>
			<g>
				<polygon style="fill:#233344;" points="1311.972,1143.324 1311.972,1283.416 1415.963,1223.376 1415.963,1083.285 
					1407.081,1078.351 1407.081,1088.42 				"/>
			</g>
			<g>
				<path d="M1311.973,1285.416c-0.346,0-0.69-0.089-1-0.268c-0.619-0.357-1-1.018-1-1.732v-140.092c0-0.715,0.381-1.375,1-1.732
					l94.108-54.326v-8.914c0-0.709,0.375-1.364,0.985-1.724c0.612-0.36,1.367-0.369,1.985-0.024l8.882,4.934
					c0.636,0.353,1.029,1.021,1.029,1.748v140.092c0,0.715-0.381,1.375-1,1.732l-103.99,60.039
					C1312.663,1285.327,1312.318,1285.416,1311.973,1285.416z M1313.973,1144.479v135.474l99.99-57.729v-137.761l-4.882-2.712v6.67
					c0,0.715-0.381,1.375-1,1.732L1313.973,1144.479z"/>
			</g>
		</g>
		<g>
			<g>
				<path style="fill:#233344;" d="M1115.991,756.148l143.318-82.745c8-4.619,18,1.155,18,10.392v85.437
					c0,8.574-4.574,16.497-12,20.785l-143.318,82.745c-8,4.619-18-1.155-18-10.392v-85.437
					C1103.991,768.359,1108.565,760.436,1115.991,756.148z"/>
			</g>
			<g>
				<path d="M1115.991,876.393c-2.404,0-4.809-0.633-7-1.898c-4.383-2.53-7-7.063-7-12.124v-85.438c0-9.259,4.982-17.887,13-22.517
					l143.317-82.744c4.383-2.53,9.617-2.531,14,0c4.383,2.531,7,7.063,7,12.124v85.438c0,9.259-4.981,17.887-13,22.517
					l-143.317,82.745C1120.8,875.76,1118.396,876.393,1115.991,876.393z M1265.309,673.78c-1.718,0-3.435,0.452-5,1.355
					l-143.317,82.745l0,0c-6.785,3.917-11,11.217-11,19.052v85.438c0,3.615,1.869,6.853,5,8.66c3.132,1.807,6.87,1.809,10,0
					l143.317-82.745c6.785-3.917,11-11.217,11-19.052v-85.438c0-3.615-1.869-6.853-5-8.66
					C1268.743,674.232,1267.025,673.78,1265.309,673.78z M1115.991,756.148h0.01H1115.991z"/>
			</g>
		</g>
		<g>
			<g>
				<polygon points="1135.991,781.552 1245.308,718.437 1245.308,764.614 1135.991,827.729 				"/>
			</g>
			<g>
				<path d="M1135.991,829.729c-0.346,0-0.69-0.089-1-0.268c-0.619-0.357-1-1.018-1-1.732v-46.177c0-0.715,0.381-1.375,1-1.732
					l109.317-63.114c0.619-0.357,1.381-0.357,2,0c0.619,0.357,1,1.018,1,1.732v46.177c0,0.715-0.381,1.375-1,1.732l-109.317,63.114
					C1136.682,829.64,1136.337,829.729,1135.991,829.729z M1137.991,782.706v41.559l105.317-60.805v-41.559L1137.991,782.706z"/>
			</g>
		</g>
		<g>
			<g>
				<path d="M1363.968,953.2c-2.762,0-5-2.238-5-5V796.283c0-2.762,2.238-5,5-5s5,2.238,5,5V948.2
					C1368.968,950.962,1366.729,953.2,1363.968,953.2z"/>
			</g>
		</g>
		<g>
			<g>
				<path d="M1389.776,923.188c-2.762,0-5-2.238-5-5v-112.87c0-2.762,2.238-5,5-5s5,2.238,5,5v112.87
					C1394.776,920.949,1392.538,923.188,1389.776,923.188z"/>
			</g>
		</g>
		<g>
			<g>
				<path d="M1338.159,943.188c-2.762,0-5-2.238-5-5v-112.87c0-2.762,2.238-5,5-5s5,2.238,5,5v112.87
					C1343.159,940.949,1340.921,943.188,1338.159,943.188z"/>
			</g>
		</g>
		<g>
			<g>
				<path d="M1321.973,1250.616c-1.104,0-2-0.896-2-2v-80.124c0-1.104,0.896-2,2-2s2,0.896,2,2v80.124
					C1323.973,1249.721,1323.077,1250.616,1321.973,1250.616z"/>
			</g>
			<g>
				<path d="M1329.607,1246.208c-1.104,0-2-0.896-2-2v-80.118c0-1.104,0.896-2,2-2s2,0.896,2,2v80.118
					C1331.607,1245.312,1330.712,1246.208,1329.607,1246.208z"/>
			</g>
			<g>
				<path d="M1337.243,1241.799c-1.104,0-2-0.896-2-2v-80.11c0-1.104,0.896-2,2-2s2,0.896,2,2v80.11
					C1339.243,1240.903,1338.348,1241.799,1337.243,1241.799z"/>
			</g>
			<g>
				<path d="M1344.879,1237.391c-1.104,0-2-0.896-2-2v-80.104c0-1.104,0.896-2,2-2s2,0.896,2,2v80.104
					C1346.879,1236.495,1345.983,1237.391,1344.879,1237.391z"/>
			</g>
			<g>
				<path d="M1352.515,1232.982c-1.104,0-2-0.896-2-2v-80.098c0-1.104,0.896-2,2-2s2,0.896,2,2v80.098
					C1354.515,1232.087,1353.619,1232.982,1352.515,1232.982z"/>
			</g>
			<g>
				<path d="M1360.15,1228.574c-1.104,0-2-0.896-2-2v-80.092c0-1.104,0.896-2,2-2s2,0.896,2,2v80.092
					C1362.15,1227.679,1361.255,1228.574,1360.15,1228.574z"/>
			</g>
			<g>
				<path d="M1367.785,1224.166c-1.104,0-2-0.896-2-2v-80.085c0-1.104,0.896-2,2-2s2,0.896,2,2v80.085
					C1369.785,1223.271,1368.89,1224.166,1367.785,1224.166z"/>
			</g>
			<g>
				<path d="M1375.421,1219.757c-1.104,0-2-0.896-2-2v-80.078c0-1.104,0.896-2,2-2s2,0.896,2,2v80.078
					C1377.421,1218.861,1376.525,1219.757,1375.421,1219.757z"/>
			</g>
			<g>
				<path d="M1383.057,1215.349c-1.104,0-2-0.896-2-2v-80.071c0-1.104,0.896-2,2-2s2,0.896,2,2v80.071
					C1385.057,1214.453,1384.161,1215.349,1383.057,1215.349z"/>
			</g>
			<g>
				<path d="M1390.692,1210.94c-1.104,0-2-0.896-2-2v-80.065c0-1.104,0.896-2,2-2s2,0.896,2,2v80.065
					C1392.692,1210.045,1391.797,1210.94,1390.692,1210.94z"/>
			</g>
			<g>
				<path d="M1398.327,1206.532c-1.104,0-2-0.896-2-2v-80.059c0-1.104,0.896-2,2-2s2,0.896,2,2v80.059
					C1400.327,1205.637,1399.432,1206.532,1398.327,1206.532z"/>
			</g>
			<g>
				<path d="M1405.963,1202.124c-1.104,0-2-0.896-2-2v-80.053c0-1.104,0.896-2,2-2s2,0.896,2,2v80.053
					C1407.963,1201.229,1407.067,1202.124,1405.963,1202.124z"/>
			</g>
		</g>
		<g>
			<g>
				<polygon style="fill:#009B37;" points="574.037,1109.071 574.037,1045.961 628.74,1077.512 628.686,1140.622 				"/>
			</g>
			<g>
				<path d="M628.687,1142.622c-0.346,0-0.69-0.089-1-0.268l-54.649-31.551c-0.619-0.357-1-1.018-1-1.732v-63.11
					c0-0.715,0.381-1.374,1-1.731c0.618-0.356,1.381-0.359,1.999-0.001l54.703,31.551c0.62,0.357,1.002,1.019,1.001,1.734
					l-0.054,63.11c-0.001,0.714-0.382,1.374-1.001,1.73C629.377,1142.533,629.031,1142.622,628.687,1142.622z M576.037,1107.917
					l50.652,29.243l0.05-58.494l-50.702-29.243V1107.917z"/>
			</g>
		</g>
		<g>
			<g>
				<polygon style="fill:#FF613C;" points="584.037,1063.272 618.735,1083.285 618.701,1123.311 584.037,1103.298 				"/>
			</g>
			<g>
				<path d="M618.701,1125.311c-0.346,0-0.69-0.089-1-0.268l-34.664-20.013c-0.619-0.357-1-1.018-1-1.732v-40.025
					c0-0.715,0.381-1.374,1-1.731c0.618-0.356,1.381-0.359,1.999-0.001l34.698,20.013c0.62,0.357,1.002,1.019,1.001,1.734
					l-0.034,40.025c-0.001,0.714-0.382,1.374-1.001,1.73C619.392,1125.222,619.046,1125.311,618.701,1125.311z M586.037,1102.144
					l30.667,17.705l0.03-35.409l-30.697-17.705V1102.144z"/>
			</g>
		</g>
		<g>
			<g>
				<polygon style="fill:#009B37;" points="643.364,1149.098 643.364,1085.985 698.067,1117.538 698.014,1180.648 				"/>
			</g>
			<g>
				<path d="M698.014,1182.648c-0.346,0-0.69-0.089-1-0.268l-54.649-31.551c-0.619-0.357-1-1.018-1-1.732v-63.112
					c0-0.715,0.381-1.375,1-1.731c0.618-0.356,1.381-0.359,1.999-0.001l54.703,31.553c0.62,0.357,1.002,1.019,1.001,1.734
					l-0.054,63.11c-0.001,0.714-0.382,1.374-1.001,1.73C698.704,1182.56,698.358,1182.648,698.014,1182.648z M645.364,1147.943
					l50.652,29.243l0.05-58.494l-50.702-29.244V1147.943z"/>
			</g>
		</g>
		<g>
			<g>
				<polygon style="fill:#BFD8F6;" points="653.364,1103.298 688.062,1123.311 688.028,1163.337 653.364,1143.324 				"/>
			</g>
			<g>
				<path d="M688.028,1165.337c-0.346,0-0.69-0.089-1-0.268l-34.664-20.013c-0.619-0.357-1-1.018-1-1.732v-40.026
					c0-0.715,0.381-1.375,1-1.731c0.618-0.356,1.381-0.359,1.999-0.001l34.698,20.014c0.62,0.357,1.002,1.019,1.001,1.734
					l-0.034,40.025c-0.001,0.714-0.382,1.374-1.001,1.73C688.719,1165.248,688.373,1165.337,688.028,1165.337z M655.364,1142.17
					l30.667,17.705l0.03-35.409l-30.697-17.705V1142.17z"/>
			</g>
		</g>
		<g>
			<g>
				<polygon style="fill:#009B37;" points="712.691,1189.124 712.691,1126.012 767.394,1157.564 767.341,1220.675 				"/>
			</g>
			<g>
				<path d="M767.341,1222.675c-0.346,0-0.69-0.089-1-0.268l-54.649-31.551c-0.619-0.357-1-1.018-1-1.732v-63.112
					c0-0.715,0.381-1.375,1-1.731c0.618-0.356,1.381-0.359,1.999-0.001l54.703,31.553c0.62,0.357,1.002,1.019,1.001,1.734
					l-0.054,63.11c-0.001,0.714-0.382,1.374-1.001,1.73C768.031,1222.586,767.686,1222.675,767.341,1222.675z M714.691,1187.97
					l50.652,29.243l0.05-58.494l-50.702-29.244V1187.97z"/>
			</g>
		</g>
		<g>
			<g>
				<polygon style="fill:#BFD8F6;" points="722.691,1143.324 757.39,1163.337 757.355,1203.363 722.691,1183.351 				"/>
			</g>
			<g>
				<path d="M757.355,1205.363c-0.346,0-0.69-0.089-1-0.268l-34.664-20.013c-0.619-0.357-1-1.018-1-1.732v-40.026
					c0-0.715,0.381-1.375,1-1.731c0.618-0.356,1.381-0.359,1.999-0.001l34.698,20.014c0.62,0.357,1.002,1.019,1.001,1.734
					l-0.034,40.025c-0.001,0.714-0.382,1.374-1.001,1.73C758.046,1205.274,757.7,1205.363,757.355,1205.363z M724.691,1182.196
					l30.667,17.705l0.03-35.409l-30.697-17.705V1182.196z"/>
			</g>
		</g>
		<g>
			<g>
				<polygon style="fill:#009B37;" points="816.682,1249.163 816.682,1186.043 1044.671,1317.672 1044.671,1380.788 				"/>
			</g>
			<g>
				<path d="M1044.671,1382.788c-0.346,0-0.69-0.089-1-0.268l-227.988-131.625c-0.619-0.357-1-1.018-1-1.732v-63.12
					c0-0.715,0.381-1.375,1-1.732s1.381-0.357,2,0l227.988,131.629c0.619,0.357,1,1.018,1,1.732v63.116c0,0.715-0.381,1.375-1,1.732
					C1045.361,1382.699,1045.017,1382.788,1044.671,1382.788z M818.683,1248.009l223.988,129.315v-58.498l-223.988-129.319V1248.009
					z"/>
			</g>
		</g>
		<g>
			<g>
				<polygon style="fill:#BFD8F6;" points="826.682,1203.363 1034.671,1323.446 1034.671,1363.468 826.682,1243.39 				"/>
			</g>
			<g>
				<path d="M1034.671,1365.468c-0.346,0-0.69-0.089-1-0.268l-207.989-120.078c-0.619-0.357-1-1.018-1-1.732v-40.026
					c0-0.715,0.381-1.375,1-1.732s1.381-0.357,2,0l207.989,120.082c0.619,0.357,1,1.018,1,1.732v40.022c0,0.715-0.381,1.375-1,1.732
					C1035.361,1365.379,1035.017,1365.468,1034.671,1365.468z M828.682,1242.235l203.989,117.769V1324.6l-203.989-117.772V1242.235z
					"/>
			</g>
		</g>
		<g>
			<g>
				<polygon style="fill:#FF613C;" points="980.874,1320.862 1024.671,1346.147 1024.671,1329.219 980.874,1303.932 				"/>
			</g>
			<g>
				<path d="M1024.671,1348.147c-0.346,0-0.69-0.089-1-0.268l-43.797-25.285c-0.619-0.357-1-1.018-1-1.732v-16.93
					c0-0.715,0.381-1.375,1-1.732s1.381-0.357,2,0l43.797,25.286c0.619,0.357,1,1.018,1,1.732v16.929c0,0.715-0.381,1.375-1,1.732
					C1025.361,1348.059,1025.017,1348.147,1024.671,1348.147z M982.874,1319.708l39.797,22.976v-12.311l-39.797-22.977V1319.708z"/>
			</g>
		</g>
		<g>
			<g>
				<path style="fill:#FDC41F;" d="M1052.466,496.771c-38.251,0-70.682,24.918-81.946,59.408
					c-4.559,13.96-2.963,29.205,3.886,42.195l0.014,0.027c4.861,9.22,12.23,16.877,21.257,22.088l1.172,0.677
					c34.463,19.897,76.878,20.083,111.514,0.49l0,0c9.23-5.221,16.763-12.987,21.701-22.372l0.491-0.932
					c6.83-12.982,8.415-28.208,3.864-42.153C1123.161,521.699,1090.725,496.771,1052.466,496.771z"/>
			</g>
			<g>
				<path d="M1053.041,638.153c-19.794,0-39.582-5.088-57.191-15.255l-1.173-0.676c-9.365-5.407-16.98-13.322-22.025-22.888
					c-7.198-13.651-8.663-29.598-4.032-43.776c11.874-36.358,45.569-60.787,83.847-60.787c38.288,0,71.986,24.437,83.854,60.807
					c4.622,14.166,3.166,30.095-3.996,43.705l-0.489,0.932c-5.127,9.745-12.903,17.761-22.487,23.182
					C1091.954,633.237,1072.494,638.153,1053.041,638.153z M1052.466,498.771c-36.542,0-68.709,23.32-80.044,58.029
					c-4.297,13.155-2.929,27.968,3.754,40.642c4.706,8.925,11.79,16.287,20.501,21.316l1.173,0.676
					c33.696,19.456,75.665,19.638,109.529,0.482c8.914-5.042,16.146-12.499,20.916-21.562l0.489-0.932
					c6.662-12.66,8.022-27.458,3.733-40.602C1121.188,522.099,1089.018,498.771,1052.466,498.771z"/>
			</g>
		</g>
		<g>
			<g>
				<g>
					<rect x="1030.628" y="71.013" style="fill:#BFD8F6;" width="8.071" height="131.699"/>
				</g>
				<g>
					<path d="M1038.699,204.711h-8.071c-1.104,0-2-0.896-2-2V71.013c0-1.104,0.896-2,2-2h8.071c1.104,0,2,0.896,2,2v131.698
						C1040.699,203.816,1039.804,204.711,1038.699,204.711z M1032.628,200.711h4.071V73.013h-4.071V200.711z"/>
				</g>
			</g>
			<g>
				<g>
					<rect x="1028.788" y="202.712" style="fill:#BFD8F6;" width="11.751" height="131.699"/>
				</g>
				<g>
					<path d="M1040.539,336.41h-11.751c-1.104,0-2-0.896-2-2V202.711c0-1.104,0.896-2,2-2h11.751c1.104,0,2,0.896,2,2V334.41
						C1042.539,335.515,1041.644,336.41,1040.539,336.41z M1030.788,332.41h7.751V204.711h-7.751V332.41z"/>
				</g>
			</g>
			<g>
				<g>
					<path style="fill:#BFD8F6;" d="M1034.663,541.784L1034.663,541.784c-4.408,0-7.982-3.573-7.982-7.982V334.41h15.963v199.393
						C1042.645,538.211,1039.072,541.784,1034.663,541.784z"/>
				</g>
				<g>
					<path d="M1034.663,543.784c-5.504,0-9.981-4.478-9.981-9.981V334.41c0-1.104,0.896-2,2-2h15.963c1.104,0,2,0.896,2,2v199.393
						C1044.645,539.307,1040.167,543.784,1034.663,543.784z M1028.682,336.41v197.393c0,3.298,2.684,5.981,5.981,5.981
						s5.981-2.683,5.981-5.981V336.41H1028.682z"/>
				</g>
			</g>
			<g>
				<g>
					<circle style="fill:#BFD8F6;" cx="1034.663" cy="71.013" r="12.943"/>
				</g>
				<g>
					<path d="M1034.663,85.956c-8.239,0-14.942-6.703-14.942-14.943s6.703-14.943,14.942-14.943c8.24,0,14.943,6.704,14.943,14.943
						S1042.903,85.956,1034.663,85.956z M1034.663,60.07c-6.033,0-10.942,4.909-10.942,10.943c0,6.034,4.909,10.943,10.942,10.943
						c6.034,0,10.943-4.909,10.943-10.943C1045.606,64.979,1040.697,60.07,1034.663,60.07z"/>
				</g>
			</g>
		</g>
		<g>
			<g>
				<g>
					
						<rect x="1267.753" y="140.691" transform="matrix(0.866 0.5 -0.5 0.866 273.6573 -608.223)" style="fill:#BFD8F6;" width="8.071" height="131.699"/>
				</g>
				<g>
					<path d="M1242.358,267.585c-0.348,0-0.693-0.091-1-0.268l-6.989-4.036c-0.957-0.552-1.284-1.775-0.732-2.732l65.849-114.054
						c0.553-0.956,1.772-1.286,2.732-0.732l6.989,4.035c0.459,0.265,0.795,0.702,0.932,1.214c0.138,0.512,0.065,1.058-0.199,1.518
						l-65.849,114.055c-0.266,0.459-0.702,0.794-1.215,0.932C1242.706,267.562,1242.531,267.585,1242.358,267.585z
						 M1238.102,260.817l3.524,2.036l63.849-110.591l-3.524-2.035L1238.102,260.817z"/>
				</g>
			</g>
			<g>
				<g>
					
						<rect x="1200.063" y="254.745" transform="matrix(0.866 0.5 -0.5 0.866 321.8623 -560.0179)" style="fill:#BFD8F6;" width="11.751" height="131.699"/>
				</g>
				<g>
					<path d="M1178.101,382.56c-0.339,0-0.683-0.086-0.998-0.269l-10.177-5.875c-0.459-0.265-0.795-0.702-0.932-1.214
						c-0.138-0.512-0.065-1.058,0.199-1.518l65.85-114.054c0.553-0.957,1.772-1.287,2.732-0.732l10.177,5.875
						c0.459,0.265,0.795,0.702,0.932,1.214c0.138,0.512,0.065,1.058-0.199,1.518l-65.85,114.054
						C1179.464,382.201,1178.792,382.56,1178.101,382.56z M1170.658,373.952l6.712,3.875l63.85-110.59l-6.712-3.875
						L1170.658,373.952z"/>
				</g>
			</g>
			<g>
				<g>
					<path style="fill:#BFD8F6;" d="M1069.327,557.213L1069.327,557.213c-3.818-2.204-5.125-7.086-2.922-10.903l99.696-172.679
						l13.824,7.982l-99.696,172.679C1078.026,558.109,1073.145,559.417,1069.327,557.213z"/>
				</g>
				<g>
					<path d="M1073.302,560.286c-1.729,0-3.437-0.454-4.975-1.342c-2.309-1.333-3.961-3.485-4.65-6.061
						c-0.69-2.575-0.337-5.265,0.996-7.574l99.696-172.679c0.552-0.956,1.773-1.286,2.732-0.732l13.825,7.981
						c0.459,0.265,0.795,0.702,0.932,1.214c0.138,0.512,0.065,1.058-0.199,1.518l-99.696,172.679
						c-1.333,2.309-3.486,3.961-6.062,4.651C1075.042,560.172,1074.169,560.286,1073.302,560.286z M1166.834,376.363
						l-98.696,170.947c-0.799,1.384-1.012,2.996-0.598,4.539c0.414,1.543,1.403,2.833,2.787,3.632l0,0
						c1.385,0.799,2.996,1.013,4.539,0.598c1.543-0.414,2.833-1.403,3.632-2.787l98.696-170.947L1166.834,376.363z"/>
				</g>
			</g>
			<g>
				<g>
					<circle style="fill:#BFD8F6;" cx="1304.713" cy="149.513" r="12.943"/>
				</g>
				<g>
					<path d="M1304.688,164.453c-2.533,0-5.099-0.644-7.446-2c-3.457-1.996-5.93-5.218-6.962-9.073
						c-1.033-3.855-0.503-7.882,1.492-11.339c4.12-7.135,13.275-9.59,20.413-5.469c7.136,4.12,9.589,13.277,5.47,20.413
						C1314.89,161.772,1309.855,164.453,1304.688,164.453z M1304.731,138.572c-3.785,0-7.471,1.962-9.495,5.469
						c-1.462,2.532-1.851,5.48-1.094,8.304c0.757,2.823,2.567,5.183,5.099,6.645c5.225,3.016,11.932,1.221,14.948-4.005
						c3.018-5.226,1.221-11.932-4.005-14.949C1308.466,139.043,1306.587,138.572,1304.731,138.572z"/>
				</g>
			</g>
		</g>
	</g>
</g>
</svg>
