<?xml version="1.0" encoding="UTF-8"?>
<svg id="katman_1" data-name="katman 1" xmlns="http://www.w3.org/2000/svg" viewBox="0 0 1586 1983">
  <defs>
    <style>
      .cls-1 {
        fill: #fbe849;
      }

      .cls-2 {
        fill: #5e1d61;
      }

      .cls-3 {
        fill: #610e10;
      }

      .cls-4 {
        fill: #7e7425;
      }

      .cls-5 {
        fill: #6c6c6c;
      }

      .cls-6 {
        fill: #2e575d;
      }

      .cls-7 {
        fill: #9a50e6;
      }

      .cls-8 {
        fill: #6cbd45;
      }

      .cls-9 {
        fill: #b752df;
      }

      .cls-10 {
        fill: #8135cf;
      }

      .cls-11 {
        fill: #b26afc;
      }

      .cls-12 {
        fill: #e62225;
      }

      .cls-13 {
        fill: #281222;
      }

      .cls-14 {
        fill: #f3918d;
      }

      .cls-15 {
        fill: #7847ff;
      }

      .cls-16 {
        fill: #fff;
      }

      .cls-17 {
        fill: #4f2343;
      }

      .cls-18 {
        fill: #ffd4d2;
      }

      .cls-19 {
        fill: #ffd143;
      }

      .cls-20 {
        fill: #58511a;
      }

      .cls-21 {
        fill: #d5c53e;
      }

      .cls-22 {
        fill: #66630d;
      }

      .cls-23 {
        fill: #afa133;
      }

      .cls-24 {
        fill: #59357e;
      }

      .cls-25 {
        fill: #bb539e;
      }

      .cls-26 {
        fill: #672aa5;
      }

      .cls-27 {
        fill: #4a1c7a;
      }

      .cls-28 {
        fill: #bc3ac2;
      }

      .cls-29 {
        fill: #6dcddb;
      }

      .cls-30 {
        fill: #3c2480;
      }

      .cls-31 {
        fill: #2e501d;
      }
    </style>
  </defs>
  <g>
    <polygon class="cls-4" points="1221.77 1355.81 1216.97 1355.75 1219.32 1168.23 1220.04 1166.54 1221.72 1165.82 1222.2 1165.81 1585.96 1159.71 1586.04 1164.51 1224.09 1170.58 1221.77 1355.81"/>
    <polygon class="cls-20" points="956.06 1558.68 955.98 1558.68 915.73 1558.42 679.98 1556.17 677.68 1556.16 466.97 1553.92 443.14 1553.78 443.16 1548.98 467.01 1549.12 677.72 1551.36 680.01 1551.37 915.77 1553.62 955.94 1553.88 957.72 1553.77 959.25 1553.51 960.39 1553.13 961.87 1552.38 966.12 1549.45 982.87 1536.89 1204.87 1374.12 1207.59 1372 1214.3 1365.93 1215.73 1364.31 1216.59 1362.88 1217.08 1361.44 1217.15 1361.01 1217.24 1358.74 1216.98 1356 1221.76 1355.56 1222.04 1358.6 1221.91 1361.66 1221.68 1362.8 1220.97 1364.92 1219.47 1367.31 1217.64 1369.38 1210.6 1375.74 1207.76 1377.95 985.73 1540.75 968.92 1553.35 964.18 1556.59 962.08 1557.62 960.23 1558.22 958.13 1558.56 956.06 1558.68"/>
    <polygon class="cls-4" points="443.12 1553.78 405.47 1553.3 401.36 1553.06 398.18 1552.45 395.73 1551.37 393.82 1549.71 392.8 1548.13 392.24 1546.83 391.8 1543.91 391.47 1537.66 391.51 1454.79 387.72 1454.7 383.03 1454.51 378.29 1454.02 373.5 1453.22 368.55 1452.11 363.65 1450.55 359.27 1448.48 355.54 1445.92 352.4 1442.86 350.52 1440.32 348.95 1437.52 347.69 1434.45 346.74 1431.12 345.16 1422.81 344.69 1418.9 344.46 1415.31 337.35 1185.48 .04 1191.14 -.04 1186.34 339.6 1180.64 341.31 1181.3 342.07 1182.98 342.09 1183.47 349.26 1415.09 349.48 1418.53 349.91 1422.16 351.44 1430.11 352.27 1432.98 353.33 1435.54 354.62 1437.82 356.12 1439.82 358.71 1442.32 361.8 1444.4 365.53 1446.14 369.89 1447.5 374.48 1448.52 379 1449.27 383.44 1449.72 387.88 1449.9 393.89 1450.04 395.63 1450.83 396.31 1452.57 396.31 1453.02 396.27 1537.6 396.59 1543.53 396.9 1545.49 397.12 1546.03 397.44 1546.49 398.33 1547.27 399.62 1547.83 402.1 1548.31 405.63 1548.5 443.18 1548.98 443.12 1553.78"/>
    <polygon class="cls-4" points="1587.29 1984.58 1586.14 1983.4 1583.51 1981.69 1583.74 1981.33 1584.32 1980.76 1587.68 1984.2 1587.29 1984.58"/>
    <polygon class="cls-21" points="647.14 1933.14 645.18 1932.97 637.28 1931.69 622.75 1929.01 616.51 1927.53 610.34 1925.62 604.27 1923.26 598.27 1920.46 594.97 1918.66 591.87 1916.72 588.89 1914.58 586.08 1912.25 581.53 1907.76 577.43 1902.65 573.66 1896.82 570.65 1891.07 569.54 1890.31 567.39 1884.07 564.6 1877.28 564.06 1875.12 561.96 1870.33 556.77 1855.97 550.07 1838.49 539.5 1810.51 536.31 1802.93 531.51 1789.05 524.87 1771.9 523.26 1766.98 522.95 1766.3 521.94 1764.39 521.36 1762.25 508.39 1729.26 508.15 1727.94 502.99 1714.93 500.09 1706.77 498.58 1702.79 492.87 1688.73 491.79 1685.57 487.96 1675.81 483.15 1661.84 482.13 1660.03 477.48 1647.65 475.79 1642.42 475.02 1640.95 473.88 1638.16 466.01 1617.75 461.33 1605.23 459.24 1599.42 456.88 1593.93 454.82 1588.82 452.62 1582.16 452.18 1581.25 450.97 1579.28 450.38 1577.36 450.01 1575.33 449.13 1573.38 440.91 1552.25 445.39 1550.51 453.66 1571.73 454.63 1573.91 455.07 1576.35 455.37 1577.26 456.45 1579.05 457.13 1580.5 459.35 1587.24 461.31 1592.08 463.73 1597.73 465.84 1603.58 470.5 1616.05 478.34 1636.39 479.42 1639.02 480.3 1640.77 482.02 1646.11 486.55 1658.14 487.62 1660.09 492.48 1674.19 496.32 1683.98 497.39 1687.13 499.03 1691.22 503.04 1701.03 504.59 1705.12 507.48 1713.25 512.82 1726.82 513.03 1727.96 526 1760.99 526.42 1762.61 527.28 1764.23 527.78 1765.36 529.41 1770.36 536.02 1787.4 540.82 1801.29 543.96 1808.74 554.56 1836.78 561.27 1854.29 566.45 1868.63 568.65 1873.72 569.22 1875.98 571.9 1882.43 573.51 1887.11 574.33 1887.75 577.86 1894.5 581.39 1899.93 585.18 1904.64 589.37 1908.75 591.88 1910.83 594.61 1912.78 597.45 1914.56 600.49 1916.2 606.22 1918.87 612 1921.11 617.85 1922.92 623.79 1924.32 638.1 1926.96 645.85 1928.21 647.2 1928.33 648.56 1928.25 1435.1 1826.17 1436.04 1825.95 1436.95 1825.58 1439.4 1823.98 1442.1 1821.55 1444.18 1819.02 1445.65 1816.43 1446.55 1813.75 1446.89 1811.2 1446.76 1808.48 1446.15 1805.58 1445 1802.45 1442.73 1797.58 1218.36 1357.88 1218.02 1357.41 1219.07 1356.66 1219.37 1356.06 1219.37 1353.38 1220.08 1353.38 1221.57 1354.13 1222.55 1355.53 1447.05 1795.48 1449.47 1800.7 1450.81 1804.41 1451.55 1808.06 1451.71 1811.4 1451.17 1815.07 1449.94 1818.61 1448.01 1821.91 1445.45 1824.99 1442.18 1827.9 1438.97 1829.94 1437.29 1830.59 1435.83 1830.91 649 1933.03 647.14 1933.14"/>
  </g>
  <g>
    <path d="M1586,0v1162.11l-363.76,6.1-.37.16-.16.37-2.34,187.04.27,2.89-.1,2.59-.13.77-.63,1.87-1.11,1.83-1.65,1.88-2.49,2.29-1.99,1.8-2.41,2.15-2.84,2.21-221.98,162.75-16.83,12.62-4.38,3.02-1.78.9-1.49.5-1.84.31-1.99.12-40.25-.26-235.75-2.25h-2.31s-210.69-2.25-210.69-2.25l-23.85-.14-37.65-.48-3.69-.2-2.91-.56-1.87-.82-1.4-1.22-.62-.91-.44-1.03-.37-2.38-.16-2.87-.17-3.25.04-84.64-.16-.41-.4-.18-5.57-.13-4.51-.18-4.59-.47-4.66-.77-4.75-1.06-4.61-1.44-4.05-1.89-3.41-2.3-2.88-2.77-1.71-2.28-1.44-2.54-1.17-2.82-.9-3.11-1.56-8.14-.45-3.78-.23-3.59-7.17-231.62-.16-.35-.36-.14L0,1188.74V0h1586Z"/>
    <path class="cls-1" d="M1586,1162.11v820.37l-.39.38-.09.14H0v-794.26l339.17-5.69.36.14.16.35,7.17,231.62.23,3.59.45,3.78,1.56,8.14.9,3.11,1.17,2.82,1.44,2.54,1.71,2.28,2.88,2.77,3.41,2.3,4.05,1.89,4.61,1.44,4.75,1.06,4.66.77,4.59.47,4.51.18,5.57.13.4.18.16.41-.04,84.64.17,3.25.16,2.87.37,2.38.44,1.03.62.91,1.4,1.22,1.87.82,2.91.56,3.69.2,37.65.48,8.22,21.13.1.2.85,1.91.42,2.31.43,1.34,1.12,1.83.56,1.15,2.25,6.82,1.98,4.91,2.39,5.56,2.11,5.85,4.67,12.5,7.85,20.36,1.14,2.79.77,1.45.4,1.27,1.35,4.15,4.62,12.27.62,1.05.35.64,4.88,14.16,1.86,4.69,1.96,5.03,1.09,3.21,1.66,4.15,4.02,9.83,1.53,4.03,2.87,8.08,5.24,13.22.19,1,.06.34,12.95,32.92.1.43.42,1.54.92,1.73.4.87,1.65,5.06,2.06,5.32,4.57,11.79,4.8,13.88,1.61,3.79,1.55,3.72,10.57,27.97,6.72,17.52,2.65,7.31,2.54,7.06,2.11,4.81.26.98.34,1.41.83,2.02,1.87,4.47,1.92,5.57.19.13h.18l.52.41,3.35,6.39,3.65,5.63,3.96,4.91,4.36,4.29,2.66,2.19,2.85,2.04,2.97,1.86,3.17,1.72,5.87,2.73,5.93,2.3,6.01,1.86,6.08,1.43,14.36,2.65,7.9,1.28,1.61.13,1.61-.09,786.74-102.11,1.24-.28,1.31-.53,2.8-1.83,2.97-2.68,2.32-2.82,1.69-2.97,1.05-3.12h0l.4-3-.15-3.13-.69-3.26-1.24-3.38-2.31-4.96-224.5-439.95-.44-.61-.46-.23h-.14l2.34-187.04.16-.37.37-.16,363.76-6.1Z"/>
    <path class="cls-23" d="M443.15,1551.38l23.85.14,210.69,2.24h2.31s235.75,2.26,235.75,2.26l40.25.26,1.99-.12,1.84-.31,1.49-.5,1.78-.9,4.38-3.02,16.83-12.62,221.98-162.75,2.84-2.21,2.41-2.15,1.99-1.8,2.49-2.29,1.65-1.88,1.11-1.83.63-1.87.13-.77.1-2.59-.27-2.89h.14l.46.23.44.61,224.5,439.95,2.31,4.96,1.24,3.38.69,3.26.15,3.13-.4,3h0l-1.05,3.12-1.69,2.97-2.32,2.82-2.97,2.68-2.8,1.83-1.31.53-1.24.28-786.74,102.11-1.61.09-1.61-.13-7.9-1.28-14.36-2.65-6.08-1.43-6.01-1.86-5.93-2.3-5.87-2.73-3.17-1.72-2.97-1.86-2.85-2.04-2.66-2.19-4.36-4.29-3.96-4.91-3.65-5.63-3.35-6.39-.52-.41h-.18l-.19-.13-1.92-5.57-1.87-4.47-.83-2.02-.34-1.41-.26-.98-2.11-4.81-2.54-7.06-2.65-7.31-6.72-17.52-10.57-27.97-1.55-3.72-1.61-3.79-4.8-13.88-4.57-11.79-2.06-5.32-1.65-5.06-.4-.87-.92-1.73-.42-1.54-.1-.43-12.95-32.92-.06-.34-.19-1-5.24-13.22-2.87-8.08-1.53-4.03-4.02-9.83-1.66-4.15-1.09-3.21-1.96-5.03-1.86-4.69-4.88-14.16-.35-.64-.62-1.05-4.62-12.27-1.35-4.15-.4-1.27-.77-1.45-1.14-2.79-7.85-20.36-4.67-12.5-2.11-5.85-2.39-5.56-1.98-4.91-2.25-6.82-.56-1.15-1.12-1.83-.43-1.34-.42-2.31-.85-1.91-.1-.2-8.22-21.13Z"/>
    <path d="M1586,1982.48v.52h-.48l.09-.14.39-.38Z"/>
  </g>
  <g>
    <polygon class="cls-9" points="540.22 1452.91 535.42 1452.67 536.46 1432.3 537.3 1430.56 539.02 1430.05 539.76 1430.08 549.04 1431.5 559.2 1432.76 562.17 1433.05 564.04 1433 564.99 1432.75 565.14 1432.63 565.2 1432.48 565.22 1431.99 565.1 1431.59 564.62 1430.96 568.46 1428.06 569.46 1429.39 570.04 1431.37 569.98 1433.52 569.08 1435.63 567.17 1437.15 564.71 1437.78 562 1437.85 557.71 1437.41 548.38 1436.25 541.12 1435.14 540.22 1452.91"/>
    <polygon class="cls-2" points="906.92 1443.95 903.61 1443.9 900.84 1443.74 566.46 1431.91 566.62 1427.11 901.07 1438.94 903.84 1439.1 906.8 1439.15 909.66 1438.97 912.51 1438.55 915.28 1437.91 917.95 1437.04 920.51 1435.95 922.94 1434.66 925.25 1433.17 927.51 1431.42 929.6 1429.47 931.53 1427.32 933.26 1424.99 934.79 1422.53 936.11 1419.91 937.23 1417.14 938.12 1414.22 939.38 1408.2 939.67 1405.62 939.76 1403.22 935.76 976.27 935.36 954.61 935.16 951.96 934.58 946.04 933.73 942.2 932.39 938.63 930.08 934.21 927.15 930.01 923.72 926.24 919.69 922.78 915.13 919.72 910.21 917.16 904.89 915.09 899.38 913.59 895.1 912.96 888.4 912.42 877.19 911.89 398.55 912.13 394.11 912.32 389.99 912.81 386.32 913.57 383.01 914.61 380.05 915.91 377.54 917.45 375.31 919.28 373.48 921.33 372.51 922.75 371.66 924.31 370.34 927.9 369.25 933.03 368.95 937.31 380.23 1358.69 380.83 1378.92 381.35 1390.58 381.92 1395.43 382.95 1400.12 384.38 1404.42 386.21 1408.28 388.33 1411.6 390.72 1414.36 393.42 1416.6 396.33 1418.26 399.95 1419.5 406.85 1421.07 411.2 1421.66 530.34 1425.78 530.18 1430.58 410.8 1426.44 405.89 1425.77 398.24 1424.01 394.14 1422.54 390.52 1420.43 387.23 1417.65 384.38 1414.33 381.93 1410.46 379.87 1406.07 378.29 1401.27 377.17 1396.11 376.56 1390.88 376.03 1379.1 375.43 1358.82 364.15 937.21 364.52 932.2 365.78 926.4 367.36 922.17 368.48 920.14 369.8 918.25 372.11 915.7 374.89 913.44 377.97 911.58 381.44 910.07 385.24 908.89 389.33 908.06 393.81 907.53 398.5 907.33 877.31 907.09 877.36 907.09 888.7 907.63 895.72 908.2 900.5 908.92 906.51 910.57 912.31 912.84 917.7 915.66 922.71 919.05 927.18 922.9 931 927.14 934.27 931.85 936.83 936.8 938.38 940.99 939.35 945.43 939.94 951.55 940.16 954.46 940.56 976.21 944.56 1403.28 944.45 1406.07 944.1 1409.07 942.74 1415.53 941.72 1418.83 940.44 1421.98 938.92 1424.97 937.18 1427.77 935.18 1430.44 932.96 1432.91 930.54 1435.15 927.94 1437.15 925.29 1438.85 922.48 1440.33 919.53 1441.57 916.46 1442.56 913.31 1443.28 910.06 1443.76 906.92 1443.95"/>
    <polygon class="cls-9" points="529.34 1453.92 525.66 1450.84 526.88 1449.38 528.56 1448.46 530.6 1433.01 529.32 1432 528.1 1429.92 527.89 1428.54 532.63 1427.82 532.7 1428.28 533 1428.8 534.33 1429.87 535.23 1430.84 535.51 1432.5 533.2 1450.05 532.58 1451.5 531.28 1452.45 529.98 1453.16 529.34 1453.92"/>
    <polygon class="cls-9" points="522.54 1453.3 518.12 1451.44 525.82 1433.19 525.92 1432.7 525.88 1432.45 525.75 1432.24 525.5 1432.06 525.19 1431.98 524.92 1432.02 524.69 1432.15 524.41 1432.52 521.94 1437.57 519.7 1442.67 517.73 1447.78 516 1452.89 511.46 1451.35 513.23 1446.09 515.28 1440.79 517.58 1435.55 520.31 1429.96 521.49 1428.45 523.34 1427.4 525.44 1427.1 527.79 1427.79 529.33 1428.9 530.44 1430.71 530.82 1432.78 530.33 1434.84 522.54 1453.3"/>
    <polygon class="cls-9" points="497.5 1452.41 490.94 1432.25 490.61 1431.67 490.32 1431.51 489.8 1431.43 489.71 1431.46 489.64 1431.66 489.66 1432.59 489.92 1433.65 492.7 1442.17 495.12 1450.92 490.5 1452.2 488.09 1443.5 485.28 1434.89 484.86 1433.21 484.84 1431.36 484.97 1430.41 485.53 1428.96 486.65 1427.66 488.17 1426.82 489.82 1426.57 491.9 1426.91 493.65 1427.87 494.76 1429.12 495.45 1430.62 502.06 1450.93 497.5 1452.41"/>
    <polygon class="cls-9" points="486.88 1452.06 486.61 1451.1 485.24 1447.21 483.46 1443.46 481.24 1439.84 478.59 1436.33 476.4 1433.95 474.27 1432.13 472.06 1430.73 469.83 1429.79 465.76 1428.61 465.24 1428.55 465.02 1428.61 464.8 1428.8 464.68 1429.03 464.64 1429.35 464.67 1429.47 465.22 1430.37 465.6 1432.22 464.09 1433.97 462.87 1434.21 462.68 1434.41 462.33 1435.02 461.93 1436.1 457.63 1451.25 453.01 1449.93 457.4 1434.53 458.07 1432.81 458.8 1431.53 459.94 1430.32 459.78 1429.69 460 1427.57 461.04 1425.68 462.68 1424.33 464.78 1423.65 466.91 1423.95 471.57 1425.31 474.46 1426.57 477.26 1428.37 479.84 1430.6 482.34 1433.34 485.28 1437.24 487.74 1441.29 489.72 1445.49 491.21 1449.74 491.5 1450.78 486.88 1452.06"/>
    <polygon class="cls-9" points="422.03 1450.43 417.58 1432.71 417.36 1432.25 417.15 1432.06 416.86 1431.95 416.47 1431.97 416.14 1432.11 415.97 1432.28 415.89 1432.5 415.9 1432.93 419.99 1449.14 415.33 1450.32 411.13 1433.63 411.07 1431.66 411.85 1429.64 413.36 1428.09 415.68 1427.19 417.62 1427.13 419.67 1427.86 421.28 1429.33 422.18 1431.3 426.69 1449.26 422.03 1450.43"/>
    <polygon class="cls-9" points="480.41 1452.32 478.97 1449.03 477.51 1446.17 475.99 1443.69 474.43 1441.55 472.73 1439.65 471 1438.08 469.17 1436.76 468.06 1436.15 467.99 1436.83 467.63 1438.38 465.83 1444.83 464.54 1451.31 459.84 1450.37 461.18 1443.62 462.99 1437.14 463.26 1435.96 463.31 1435.01 462.92 1432.8 463.31 1430.92 465.3 1430.01 466.27 1430.17 466.56 1430.27 469.35 1431.39 471.87 1432.79 474.14 1434.45 476.22 1436.36 478.24 1438.63 480.04 1441.11 481.74 1443.9 483.34 1447.04 484.81 1450.4 480.41 1452.32"/>
    <rect class="cls-24" x="546" y="1410.69" width="4.8" height="36.3" transform="translate(-899.58 1924.53) rotate(-87.9)"/>
    <polygon class="cls-7" points="433.85 1494.91 431.29 1494.55 429.95 1493.95 428.81 1492.99 427.57 1490.61 427.39 1489.09 427.6 1487.68 428.33 1486.21 429.49 1485.03 430.72 1484.34 422.74 1453.72 427.38 1452.5 435.78 1484.72 435.95 1485.25 435.52 1487.41 433.92 1488.4 432.76 1488.7 432.43 1488.89 432.23 1489.17 432.63 1489.89 434.17 1490.11 440.47 1490.04 446.43 1489.61 451.95 1488.83 456.85 1487.72 457.19 1487.5 457.23 1487.39 457.23 1487.24 457.07 1487.02 456.94 1486.96 456.58 1486.94 440.94 1488.86 438.74 1488.34 437.46 1486.46 429.43 1453.81 434.09 1452.67 441.78 1483.92 456.42 1482.12 458.08 1482.22 459.81 1482.98 461.15 1484.3 461.89 1485.88 462.01 1486.64 462.07 1488.15 461.39 1490.02 460.06 1491.49 458.45 1492.28 452.72 1493.57 446.86 1494.39 440.6 1494.84 433.85 1494.91"/>
    <polygon class="cls-7" points="480.83 1494.23 478.39 1493.98 476.13 1493.4 473.94 1492.51 471.74 1491.27 469.74 1489.78 467.84 1488 466.25 1486.08 464.13 1482.93 462.34 1479.67 460.89 1476.31 459.77 1472.81 458.85 1468.14 458.51 1463.49 458.75 1458.42 459.52 1453.61 464.26 1454.37 463.51 1459.04 463.31 1463.43 463.62 1467.64 464.45 1471.73 465.42 1474.72 466.69 1477.65 468.28 1480.51 470.16 1483.29 471.42 1484.79 472.9 1486.17 474.46 1487.31 476.14 1488.25 477.74 1488.88 479.36 1489.28 480.85 1489.41 482.36 1489.29 483.44 1489.05 484.79 1488.57 486.05 1487.94 487.29 1487.12 488.39 1486.19 490.62 1483.59 492.39 1480.46 493.98 1476.25 495.04 1471.9 495.51 1467.92 495.54 1463.84 495.1 1459.66 494.2 1455.26 498.9 1454.3 499.87 1459.04 500.34 1463.6 500.29 1468.35 499.74 1472.9 498.52 1477.81 496.66 1482.66 494.41 1486.54 491.63 1489.73 490.05 1491.04 488.32 1492.17 486.54 1493.04 484.63 1493.7 482.91 1494.06 480.83 1494.23"/>
    <polygon class="cls-7" points="510.56 1490.31 508 1489.34 506.34 1487.55 505.54 1485.46 502.14 1471.13 498.36 1456.94 498.29 1455.58 498.9 1454.05 500.09 1452.92 501.46 1452.47 502.13 1452.44 503.17 1452.49 502.99 1455.86 503.11 1455.86 503.12 1456.19 506.79 1469.95 510.18 1484.18 510.48 1484.95 510.76 1485.26 511.26 1485.45 511.9 1485.4 512.54 1485.08 513.09 1484.41 513.17 1484.22 518.12 1469.7 523.88 1454.67 528.36 1456.39 522.63 1471.33 517.27 1486.89 515.6 1488.9 513.22 1490.12 510.56 1490.31"/>
    <polygon class="cls-7" points="564.8 1495.68 534.09 1489.64 532.72 1489.16 531.28 1487.94 530.36 1485.68 530.58 1483.08 531.81 1477.06 532.82 1470.93 533.65 1464.59 534.2 1458.87 532.57 1457.55 535.57 1453.81 538.03 1455.79 538.85 1456.83 539.09 1458.19 538.42 1465.13 537.57 1471.63 536.53 1477.93 535.31 1483.89 535.23 1484.92 535.25 1484.96 535.52 1485.06 565.24 1490.88 565.78 1490.87 566.05 1490.76 566.26 1490.55 566.41 1490.18 566.4 1489.8 566.29 1489.53 566.08 1489.33 565.59 1489.15 539.98 1484.73 538.48 1483.78 538.03 1482.08 541.05 1459.16 541.05 1458.59 542.32 1456.66 544.35 1456.29 555.55 1458.88 564.76 1460.71 566.37 1460.79 566.67 1460.69 567.03 1460.33 566.9 1460.09 566.27 1459.44 565.1 1458.56 567.98 1454.72 569.6 1455.98 570.78 1457.21 571.7 1458.84 571.97 1460.91 571.19 1462.96 569.57 1464.59 568.29 1465.27 566.81 1465.62 563.99 1465.45 554.54 1463.57 545.58 1461.5 543.09 1480.4 566.87 1484.5 568.72 1485.2 570.31 1486.75 571.2 1488.78 571.21 1490.77 570.99 1491.64 570.34 1493.25 568.79 1494.82 566.76 1495.67 564.8 1495.68"/>
    <polygon class="cls-7" points="511.55 1476.34 509.91 1474.7 504.64 1455.61 509.26 1454.33 512.6 1466.42 516.7 1454.61 521.24 1456.19 514.85 1474.57 514.06 1475.71 511.55 1476.34"/>
    <polygon class="cls-7" points="482.42 1487.55 479.61 1487.54 476.89 1486.64 474.34 1484.93 471.99 1482.48 469.46 1478.85 467.53 1474.97 466.15 1470.55 465.42 1465.81 465.27 1460.68 465.63 1454.04 470.43 1454.3 470.07 1460.74 470.21 1465.52 470.86 1469.62 472.05 1473.33 473.66 1476.53 475.8 1479.55 477.42 1481.23 479.01 1482.28 480.39 1482.74 481.68 1482.75 482.45 1482.5 483.34 1481.94 484.21 1481.08 485.13 1479.79 486.42 1477.35 487.44 1474.8 488.29 1471.71 488.74 1468.49 488.84 1465.11 488.54 1461.45 487.77 1454.93 492.53 1454.37 493.31 1460.97 493.64 1464.97 493.52 1469.03 492.96 1472.83 491.95 1476.46 490.72 1479.48 489.14 1482.44 487.74 1484.34 486.34 1485.74 484.49 1486.88 482.42 1487.55"/>
  </g>
  <g>
    <path class="cls-10" d="M640.38,723.49l-1.04,7.21-.21.41-16.04,16.5h-.01s-.47.75-.47.75l-.15.86.19.85.5.72.07.07.72.51.86.19.87-.15.73-.48h0l.04-.04,11.5-11.86.23-.07.18.16v.1s-1.04,13.93-1.04,13.93v.05l.13.87.46.76.72.51.86.2h.09s.89-.12.89-.12l.78-.47.55-.72.24-.87,1.44-18.71.36-1.32.83-1.09,14.9-13.34.48-.64.2-.77-.12-.79-.41-.68h0s-.02-.03-.02-.03l-.68-.51-.83-.22-.84.11-.74.43-11.56,10.03-.26.06-.18-.18h0v-.12s.67-4.69.67-4.69l.34-.86.68-.62,29.08-16.22,1.28-.44,6.36-.31,533.49-8.41,1.57.19,1.23.61h0l.4.36.02.02.07.27-.14.24-218.57,150.85h-.01l-.41.09-.35-.24-1.62-2.34-1.73-2.09-1.9-1.9-2-1.67-2.35-1.58-2.48-1.33-2.63-1.11-2.94-.94-3.09-.73-3.41-.56-8.07-.64-.35-.18-.08-.38h0l.03-.09.61-1.26,1.99-4.19,1.3-3.25.79-2.75.31-2.36-.09-.78-.32-.71-.51-.58-.67-.41-2.44-.76-2.99-.51-3.67-.29-4.88-.09-1.87-.02-44.08-.47-43.67-.06-6.87.32-2.5.38-1.88.53-2.79,1.23-2.51,1.45-2.22,1.65-1.95,1.86-10.01,12.08-.56.45-.69.16-400.75,5.65-.15-.04-.14-.25.15-.25,205.14-114.55.13-.05.36.11.12.36Z"/>
    <path class="cls-26" d="M1223.06,698.08l.84,2.01.25,2.66-.76,67.35-.33,33.64-6.82,550.74.1,2.46.03,3.41-.22,1.31-.37,1.07-.72,1.24-1.07,1.21-6.86,6.21-227.22,166.59-6.34,4.89-7.05,5.44-5.33,3.65-.33.03-.23-.24-.02-.1-1.97-97.38.1-.41.3-.31,46.92-28.24,3.34-2.22,2.19-2.07,1.14-1.57.95-1.66,1.49-3.78.96-4.48.45-5.27.16-13-7.65-507.42-.38-10.24-.35-3.84-.45-2.98-1.06-4.59-1.34-4.49h0l-1.32-3.64-1.51-3.57-.05-.61.35-.49,219.43-151.45h0l.4-.09.35.23Z"/>
    <path class="cls-19" d="M968.79,816.87l.55.44.14.69-.68,2.95-1.22,3.54-1.78,4.18-2.03,4.05-.31.81-.09.86.2,3.52.17,5.19-.49,3.43-.03.1v.04s-.37.82-.37.82l-.55.72-1.74,1.27-2.66,1-3.15.56-11.57.9-12.43.63-60.75,2.27-6.77.1-6.1-.17-5.59-.44-5.09-.74-2.33-.75-1.74-1.3h0l-.94-1.37-.58-1.71-.59-5.14-.65-10.27.07-.57.27-.51,5.18-6.51,4.24-5.05,2.25-2.19,2.31-1.5,2.19-.88,2.58-.55,3.03-.26,4.78-.09h.55l41.59.03,51.86.53,3.8.3,3.65.81h0l.82.26Z"/>
    <path class="cls-10" d="M358.22,872.01l-.21-.14v-.25h0l.09-.09,51.18-28,2.09-.82,2.79-.56,3.48-.32,4.5-.11h1.1s412.93-5.87,412.93-5.87l.31.12.14.3.44,8,.26,3.19.56,2.58.89,2.09,1.22,1.66,1.82,1.45,2.21.99,4.37,1.04,5.29.55,9.94.27,11.87-.21,62.26-2.36,14.74-.97,4.84-.62,3.61-1.05,1.45-.69,1.29-.85,1.04-.96.86-1.14.8-1.8.38-2.17.11-4.85-.25-5.2.11-.33.32-.14h.03l6.93.5,5.49.88,4.83,1.39,4.31,1.97,1.8,1.13,1.68,1.31,3.16,3.26,2.83,4.08,2.42,4.79,2.05,5.61,1.54,6.13,1.02,6.53.41,6.42,7.88,520-.28,8.99-.49,3.37-1.03,3.14-1.74,3.15-2.38,2.88-.32.25-53.55,32.4-.09.03-.14-.27,2.37-4,2.11-4.22,1.86-4.44,1.59-4.65.81-3.57.23-3.53-8.48-509.22-.5-10.82-.48-3.83-.62-2.78-2.2-5.88-2.86-5.49h0l-2.01-3.06-2.23-2.93-2.4-2.69-2.53-2.4-2.74-2.18-2.85-1.89-2.51-1.38-2.58-1.19-2.75-1.03-2.84-.84-5.91-1.12-6.4-.41-7.81-.12-135.49.74-395.93,2.63-12.05-.38Z"/>
    <path class="cls-28" d="M537.82,1452.79l1.01-19.88.17-.35.37-.11h.03l9.28,1.42,9.32,1.16.91.11,3.18.31,2.28-.06,1.71-.44,1.03-.82.48-1.13.04-1.32-.35-1.19-.74-.98,334.44,11.83,2.77.16,3.11.05,3.05-.19,3.05-.45,2.96-.69,2.87-.93,2.75-1.17,2.62-1.39,2.48-1.6,2.43-1.88,2.25-2.1,2.07-2.31,1.86-2.5,1.63-2.63,1.42-2.81,1.19-2.96.96-3.12,1.3-6.24.32-2.78.09-2.55-4-427-.4-21.75-.21-2.72-.59-6.12-.92-4.15-1.46-3.86-2.44-4.69-3.11-4.45-3.63-3.99-4.25-3.65-4.79-3.22-5.16-2.68-5.56-2.16-5.77-1.57-4.5-.67-6.78-.54-11.34-.54-478.75.24-4.58.2-4.31.51-3.89.8-3.56,1.12-3.22,1.42-2.8,1.71-2.5,2.06-2.05,2.3-1.13,1.65-.99,1.82-1.44,3.91-1.16,5.47-.32,4.56,11.28,421.49.6,20.24.53,11.78.59,5.06,1.08,4.93,1.52,4.55,1.95,4.13,2.3,3.6,2.64,3.04,3.01,2.5,3.28,1.87,3.7,1.29.3.08,7.09,1.61,4.58.62,119.26,4.13.14.92h0l.76,1.3,1.41,1.11.41.44.1.59-2.22,16.87-.24.56-.49.37-1.7.93-.93,1.11h-7.17s7.79-18.47,7.79-18.47l.25-1.17-.21-1.16-.62-1.01-.96-.69-.11-.05-1.16-.29-1.18.17-1.04.59-.73.94-2.58,5.28-2.3,5.24-2.01,5.2-1.74,5.16-13.95-.45-6.61-20.31-.43-.9-.61-.69-1.02-.56-1.3-.21-.86.13-.76.42-.57.66-.31.81-.07.49.02,1.39.35,1.41,2.78,8.5,2.42,8.75-3.62-.14-.29-1.04h0l-1.44-4.09-1.89-3.97-2.34-3.83-2.8-3.7-2.36-2.57-2.37-2.03-2.52-1.59-2.55-1.08-1.29-.37-3.1-.9-1.23-.15-1.16.37-.93.77-.58,1.06-.13,1.22.22.88.52.86.06.29-.19.22-.11.02-.53.08h0l-.76.38-.68.72-.59,1.03-.5,1.36-4.33,15.23-30.96-.74-4.51-17.96-.53-1.1-.91-.83-1.17-.42-1.25.04-.13.03-1.11.49-.84.86-.43,1.12.03,1.18v.04s4.15,16.43,4.15,16.43l-27.14-.72-8-.39-6.46-.76-5.79-1.23-5.38-1.76-3.27-1.61-2.86-2.15-2.54-2.84-2.03-3.46-1.58-4.16-1.13-4.9-.77-5.13-.56-5.21-.33-5.3-.11-5.38-.14-11.45-14.83-482.03.12-5.5.72-5.2,1.32-4.91,1.91-4.61h0l2.42-4.21,2.99-3.92,3.54-3.65,4.11-3.37.91-.47,1.01-.15,7.16.25,9.78.27,537.27-3.6,3.43.14,3.75.48,4.07.8,4.39,1.13,1.29.4h0l3.59,1.49,3.43,1.99,3.25,2.49,3.09,2.98,2.81,3.29,2.44,3.44,2.08,3.59,1.7,3.73h0l1.32,3.83.97,3.96.6,4.11.25,4.25,8.64,515.22-.4,2.28-1.23,4.19-1.56,4.44-1.69,3.98-1.81,3.5-1.97,3.1-2.16,2.75-2.29,2.32-2.57,2.01-2.66,1.58-2.38,1.03-2.56.79-4.09.53-6.14.06-375.35-8.9-12.42-.37Z"/>
    <path d="M566.54,1429.51l-36.28-1.33-119.26-4.13-4.59-.62-7.08-1.61-.3-.08-3.7-1.29-3.28-1.87-3.01-2.5-2.64-3.04-2.3-3.6-1.95-4.13-1.52-4.55-1.08-4.93-.59-5.06-.53-11.78-.6-20.24-11.28-421.49.32-4.56,1.16-5.47,1.44-3.91.99-1.82,1.13-1.65,2.05-2.3,2.5-2.06,2.8-1.71,3.22-1.42,3.56-1.12,3.89-.8,4.31-.51,4.58-.2,478.75-.24,11.34.54,6.78.54,4.5.67,5.77,1.57,5.56,2.16,5.16,2.68,4.79,3.22,4.25,3.65,3.63,3.99,3.11,4.45,2.44,4.69,1.46,3.86.92,4.15.59,6.12.21,2.72.4,21.75,4,427-.09,2.55-.32,2.78-1.3,6.24-.96,3.12-1.19,2.96-1.42,2.81-1.63,2.63-1.86,2.5-2.07,2.31-2.25,2.1-2.43,1.88-2.48,1.6-2.62,1.39-2.75,1.17-2.87.93-2.96.69-3.05.45-3.05.19-3.11-.05-2.77-.16-334.44-11.83Z"/>
    <path class="cls-11" d="M489.19,1451.42l-6.58-.06-1.47-3.36-1.54-3-1.61-2.64-1.69-2.32-1.87-2.08-1.91-1.74-2.06-1.49-2.26-1.24-2.51-.98h-.06s-.22.09-.22.09l-.05.24.36,2.02h0l-.07,1.43-.33,1.44-1.83,6.54-1.3,6.57-6.87-.25,4.33-15.23.5-1.36.59-1.03.68-.72.76-.38h0l.53-.08.11-.02.19-.22-.06-.29-.52-.86-.22-.88.13-1.22.58-1.06.93-.77,1.16-.37,1.23.15,3.1.9,1.29.37,2.55,1.08,2.52,1.59,2.37,2.03,2.36,2.57,2.8,3.7,2.34,3.83,1.89,3.97,1.44,4.09h0l.29,1.04Z"/>
    <path class="cls-11" d="M566.54,1429.51l.74.98.35,1.19-.04,1.32-.48,1.13-1.03.82-1.71.44-2.28.06-3.18-.31-.91-.11-9.32-1.16-9.28-1.42h-.03l-.37.11-.17.35-1.01,19.88-10.32-.41.93-1.11,1.7-.93.49-.37.24-.56,2.22-16.87-.1-.59-.41-.44-1.41-1.11-.76-1.3-.14-.92,36.28,1.33Z"/>
    <path class="cls-11" d="M499.78,1451.67l-6.97-.11-2.42-8.75-2.78-8.5-.35-1.41-.02-1.39h0l.07-.49.31-.81.57-.66.76-.42.86-.13,1.3.21,1.02.56.61.69.43.9,6.61,20.31Z"/>
    <path class="cls-11" d="M424.36,1449.85l-6.7-.12-4.14-16.43v-.04s-.04-1.18-.04-1.18l.43-1.12.84-.86,1.11-.49.13-.03,1.25-.04,1.17.42.91.83.53,1.1,4.51,17.96Z"/>
    <path class="cls-11" d="M520.33,1452.37l-6.6-.25,1.74-5.16,2.01-5.2,2.3-5.24,2.58-5.28.73-.94,1.04-.59,1.18-.17,1.16.29.11.05.96.69.62,1.01.21,1.16-.25,1.17-7.79,18.46Z"/>
    <path class="cls-28" d="M482.61,1451.36l-20.42-.52,1.3-6.57,1.83-6.54.33-1.44.07-1.43h0l-.36-2.02.07-.26.26-.07,2.51.98,2.26,1.24,2.06,1.49,1.91,1.74,1.87,2.08,1.69,2.32,1.61,2.64,1.54,3,1.47,3.36Z"/>
    <path class="cls-10" d="M425.06,1453.11l8.41,32.28v.03s-.09.49-.09.49l-.42.26-1.11.29-.89.5-.65.66-.39.79-.11.72.09.76.82,1.57.52.44.72.32,2.05.29,6.56-.07,6.12-.44,5.69-.81,5.27-1.19.94-.46.7-.78.36-.99-.04-1.04-.02-.1-.43-.92-.72-.71-.93-.41-1.01-.06-15.42,1.9-.88-.21-.51-.75-7.93-32.23,30.13.75-.77,4.81-.21,4.66.33,4.51.88,4.37h0l1.05,3.23,1.37,3.14,1.69,3.06,2.01,2.97,1.44,1.71,1.69,1.57,1.79,1.31,1.95,1.09,1.9.75,1.95.48,1.88.17,1.88-.15,1.39-.31,1.62-.58,1.52-.76,1.48-.98,1.35-1.14,2.51-2.92,1.98-3.5,1.71-4.52,1.13-4.63h0l.5-4.26.03-4.35-.46-4.43-.93-4.51,6.49.11-.92-.05h-.22s-.55.19-.55.19l-.42.4-.22.55.03.58,3.73,14.01,3.41,14.33.53,1.35.97,1.05,1.53.58,1.65-.12,1.51-.77,1.11-1.34.24-.6,4.97-14.58,5.73-14.94,7.95.15,2.24,1.8.28.36.08.45-.64,6.61-.84,6.42-1.03,6.22-1.23,6.02-.13,1.74.48,1.19.65.55.96.34,30.13,5.9h1.25s1.15-.49,1.15-.49l.88-.89.47-1.16.03-.15v-.05s0-1.25,0-1.25l-.5-1.15-.9-.87-1.17-.45-25.37-4.37-.3-.19-.09-.34,2.98-22.6v-.03l.3-.45.54-.1,10.72,2.48,9.45,1.88,2.13.11.84-.2.69-.37,1.01-1.01.38-1.01-.13-1.01-.54-.96-.97-1.01-1.33-1,352.75,8.57,1.4.03,6.36.1,4.23-.14,3.73-.45,3.44-.8,2.44-.85,2.49-1.11.09-.03.35.08.16.32.58,90.09h0l-.18.42-.42.17-532.21-5.32-10.23-.29-1.86-.33-1.34-.84h0l-.86-1.46-.28-2.04.13-84.01.34-5.69.18-.36.37-.14,26.86.55Z"/>
    <path class="cls-11" d="M431.76,1453.24l7.93,32.23.51.75.88.21,15.42-1.9,1.01.06.93.41.72.71.43.92.02.1.04,1.04-.36.99-.7.78-.94.46-5.27,1.19-5.69.81-6.12.44-6.56.07-2.05-.29-.72-.32-.52-.44-.82-1.57-.09-.76.11-.72.39-.79.65-.66.89-.5,1.11-.29.42-.26.1-.49v-.03s-8.42-32.28-8.42-32.28l6.7.13Z"/>
    <path class="cls-11" d="M468.03,1454.17l-.36,6.54.15,5.03.7,4.44,1.3,4.06,1.78,3.53,2.35,3.32,1.93,1.99,2.07,1.38,2.05.68h2.05s1.42-.45,1.42-.45l1.37-.85,1.21-1.2,1.13-1.59,1.42-2.69,1.12-2.79h0l.92-3.37.5-3.51.1-3.65-.31-3.79-.78-6.6,6.4.13.93,4.51.46,4.43-.03,4.35-.5,4.26h0l-1.13,4.63-1.71,4.52-1.98,3.5-2.51,2.92-1.35,1.14-1.48.98-1.52.76-1.62.58-1.39.31-1.88.15-1.88-.17-1.95-.48-1.9-.75-1.95-1.09-1.79-1.31-1.69-1.57-1.44-1.71-2.01-2.97-1.69-3.06-1.37-3.14-1.05-3.23h0l-.88-4.37-.33-4.51.21-4.66.77-4.81,6.14.18Z"/>
    <path class="cls-10" d="M490.15,1454.65l.78,6.6.31,3.79-.1,3.65-.5,3.51-.92,3.37h0l-1.12,2.79-1.42,2.69-1.13,1.59-1.21,1.2-1.37.85-1.42.46h-2.05s-2.05-.69-2.05-.69l-2.07-1.38-1.93-1.99-2.35-3.32-1.78-3.53-1.3-4.06-.7-4.44-.15-5.03.36-6.54,22.12.48Z"/>
    <path class="cls-11" d="M503.04,1454.89l3.91.08,5.1,18.48.23.23.32-.08h0l.09-.13,6.28-18.07,7.15.13-5.73,14.94-4.97,14.58-.24.6-1.11,1.34-1.51.77-1.65.12-1.53-.58-.97-1.05-.53-1.35-3.41-14.33-3.73-14.01-.03-.58.22-.55.42-.4.55-.18h.22s.92.04.92.04Z"/>
    <path class="cls-10" d="M518.97,1455.4l-6.28,18.07-.09.13-.32.08-.23-.23-5.1-18.48,12.02.43Z"/>
    <path class="cls-11" d="M566.54,1456.64l1.33,1,.97,1.01.54.96.13,1.01-.38,1.01-1.01,1.01-.69.37-.84.2-2.13-.11-9.45-1.88-10.72-2.48-.54.1-.3.45v.03l-2.98,22.6.09.34.3.19,25.37,4.37,1.17.45.9.87.5,1.15v1.25s0,.05,0,.05l-.03.15-.47,1.16-.88.89-1.15.48h-1.25s-30.13-5.89-30.13-5.89l-.96-.34-.65-.55-.48-1.19.13-1.74,1.23-6.02,1.03-6.22.84-6.42.64-6.61-.08-.45-.28-.36-2.24-1.8,32.47.96Z"/>
    <path class="cls-26" d="M956.94,1553.3l-8.73-.33-.25-.11-.1-.25-.6-91.74.18-.32,7.36-4.45.04-.02.35.03.17.3,1.96,96.51-.02.12-.36.26Z"/>
  </g>
  <path class="cls-30" d="M1068.2,1236.16l-1.64-.4-1.3-1.04-.7-1.3-.58-2.9-.18-2.45-.57-23.42-1.12-31.06.9-1.6,75.65-39.67,1.71-1.14,1-1.17.35-.74.26-.96.13-1.3-.04-1.7-1.69-29.54.15-1.21.69-1.27,6.09-8.01,5.86-7.27,5.76-6.71,5.88-6.4,2.96-3.06,6.39-6.25,7.18-6.58,7.93-6.89,8.8-7.28,4.16-3.1,5.03-3.22,2.36-1.01,1.34-.08,2.07,1.29.19,2.27-2.57,5.94-3.06,6.33-21,42.22.05.17-.11.03-.02.16h-.09s-.01.02-.01.02l-.07-.04-.22-.02-3.97,1.14,1.89,3.94-.41.21-3.93,6.96-4.63,6.95-5.44,7.17-10.34,12.49-2.32,3.02-1.73,2.79-1.2,2.57-.68,2.34-.31,3.23.28,9.33-.52,2.74-1.47,3.78-1.92,3.99-22.1,41.36-1.95,1.18-2.32-1.28-.36-1.41-.19-22.94-.17-2.31-.35-1.8-.4.16-1.52,1.11-1.9,1.84-10.26,11.4-11,12.79-3.07,3.97-2.09,3.41-1.28,3.05-.56,3-.3,3.67-.46,2.71-.77,2.36-1.07,1.99-1.22,1.54-1.46,1.36-7.23,5.44-7.67,4.83-1.49.28ZM1068.75,1230.01l.15.74,5.79-3.7,6.9-5.19,1.02-.97.72-.94.64-1.25.5-1.61.34-2.12.33-3.92.68-3.48,1.71-4,2.4-3.9,3.27-4.22,11.08-12.88,10.47-11.62,2.33-2.22,2.14-1.57,2.38-.95,2.54.26,1.65,1.47.78,1.83.51,2.76.2,2.69.12,14.21,17.75-33.22,1.81-3.77,1.28-3.3.27-1.56-.28-9.17.45-4.18.92-3.08,1.48-3.12,2.01-3.21,2.48-3.23,2.53-3.02,7.76-9.41,5.33-7.03,4.45-6.7,4.22-7.42,1.01-.98,1.04-.5-.23-.79.16-1.44.26-.63,21.18-42.58,3.06-6.35-1.44.94-3.92,2.93-8.61,7.13-7.84,6.81-7.07,6.49-6.29,6.16-2.88,2.97-5.79,6.29-5.66,6.59-5.77,7.16-5.89,7.75,1.67,29.14.05,2.08-.26,2.17-.52,1.76-.72,1.51-1.84,2.16-2.58,1.7-74.02,38.82,1.05,29.17.57,23.39.15,2.11Z"/>
  <g>
    <path d="M963.34,760.53l2.5-2.09,2.29-2.91.16-.53-.14-.53-.11-.18-.25-.74.1-.77.44-.65.67-.39.42-.08,7.42-.41h.12l.56.33.13.65-.24.57-.98.82-1.88.58-2.09.66-1.25.95-2.21,2.6-2.48,2.55-2.78,2.5-3.05,2.44-.34.62.23.66.06.06,1.39,1.23.4.54.14.66-.14.66-.4.54-.15.12-1.56.77-1.41.07h0l-1.28-.67-1.13-1.42-.33-.84-.07-.91.21-.87.46-.78,2.36-2.25.23-.38-.03-.44-.67-2-.41-2.03h0l-.12-2.47.26-2.53.65-2.57,1.03-2.63,1.83-3.57,2.1-3.39h0l2-2.75,2.19-2.61,2.39-2.47,2.58-2.35,5.08-4.01,5.44-3.69,5.61-3.26,5.86-2.85,5.89-2.34,5.85-1.81,5.93-1.31,5.79-.77,2.39-.07,2.58.19,2.62.46,2.39.65,2.11.83,1.93,1.04,1.56,1.15,1.3,1.35,1.16,1.77.78,1.82.49,2.39-.03,2.64-.55,2.73-1.07,2.92-1.57,3.08-2.06,3.24-2.57,3.47-3.6,4.39-.78.92-1.18,1.82-.13.27-1.41,2.54-.68.77-.82.61-1.32.48-.59-.14-.27-.53v-.11l.05-.4h0l.65-2.13,1.29-2.04,7.9-9.99,1.54-2.21,1.23-2.26.89-2.26.56-2.24.22-2.19-.15-2.09-.48-1.88-.83-1.74-1.72-2.12-2.43-1.72-3.05-1.22-3.52-.67-4.65-.19-4.95.42-5.25,1.05-5.43,1.64-5.67,2.27-5.7,2.81-5.69,3.34-5.41,3.71-1.82,1.42h0l-3.29,2.95-3.03,3.26-2.77,3.58-2.51,3.9-1.25,2.42-.93,2.43-.6,2.44-.27,2.46h0l.05,2.47.38,2.48.23.31.39.02.07-.04Z"/>
    <path d="M841.01,732.84l.91,1.84.5,2.09.07,2.32-.35,2.53-.77,2.71-1.18,2.87-1.58,3-1.97,3.1-2.33,3.17-2.68,3.21-3,3.22-3.29,3.2-3.55,3.15-3.77,3.07-3.96,2.96-4.11,2.82-4.22,2.65-4.29,2.46-4.31,2.24-4.3,2-4.24,1.74-4.15,1.47-4.01,1.18-3.84.88-3.63.57-3.38.26-3.1-.06-2.79-.37-2.46-.68-2.1-.99-1.72-1.29-1.32-1.57h0l-.91-1.84-.5-2.09-.07-2.32.35-2.53.77-2.71,1.18-2.87,1.58-3,1.97-3.1,2.33-3.17,2.68-3.21,3-3.22,3.29-3.2,3.55-3.15,3.77-3.07,3.96-2.96,4.11-2.82,4.22-2.65,4.29-2.46,4.31-2.24,4.3-2,4.24-1.74,4.15-1.47,4.01-1.18,3.84-.88,3.63-.57,3.38-.26,3.1.06,2.79.37,2.46.68,2.1.99,1.72,1.29,1.32,1.57Z"/>
    <path d="M1007.78,734.24l-.21.43h0l-.53.62-.77.48-4.73,2.36-4.2,2.45-3.69,2.53-3.16,2.62-1.67.87-3.55,1.28-2.69.67-2.88.29-4.86.32-3.96.55-.46-.03-.37-.26-.2-.41.03-.45.25-.38,1.67-1.06,2.26-.75,2.96-.48,4.17-.3,2.51-.15,1.85-.31,1.83-.64,1.9-.98,1.84-1.26,6.34-4.55,2.63-1.59,2.52-1.29,4.11-1.66.28-.05.68.37.1.76Z"/>
    <path d="M1003.33,744.84l-.21-.45-.47-.13h-.07s-3.41,1.32-3.41,1.32h-.76s-.43-.6-.43-.6v-.21s.17-.58.17-.58l.4-.55,1.47-1.11,2.35-1.03,2.41-.62.94.04.84.35.62.6.31.77-.02,1.66-.52,1.7-1,1.78-1.52,1.91-2.05,2-2.41,1.93-2.72,1.79-2.53,1.32-2.1.66-2.05.28-1.49-.19-.89-.62-.28-.69-.05-1.01.18-1.02,1.06-2.26,2.06-2.59,2.89-2.71.81-.38.89.07h.04s.37.4.37.4l-.05.53-.05.07-4.22,5.4-.19.39v.52l.25.46.44.28.52.04,1.8-.5,1.96-.89,1.89-1.16,1.75-1.39,1.3-1.35,1-1.45.58-1.37.19-1.41Z"/>
    <path d="M1013.46,753.17l-.02-.13-.25-.22-.33.08-1.78,1.77-1.54,1.94h0l-1.63,2.79-.56.76-.79.51-1.33.56-.3.06-.61-.36-.04-.7,1.26-2.32,1.53-2.3,1.59-1.99,1.63-1.65,1.62-1.26,1.52-.84,1.5-.46,1.52-.08.76.37.34.77v.26s-.11,1.4-.11,1.4l-.38,1.34-.65,1.37-.86,1.27-1.19,1.3-1.34,1.15-1.54,1.03-1.58.82h-.8l-.48-.58h0l-.02-.18.46-1.02,1.5-1.38,2.13-2.04.52-.88.24-.97v-.19Z"/>
    <ellipse cx="1019.99" cy="755.5" rx="1.95" ry="1.02" transform="translate(-248.87 721.67) rotate(-35)"/>
    <path d="M977.55,762.79l-1.4,1.28-1.4.94-1.42.58-1.31.18-.8-.13-.59-.34h0l-.38-.6-.18-.91.13-.92.42-.82.68-.64,2.68-2.08,2-2.75.61-.69.81-.45.92-.16.91.15.61.37.36.57.15.8-.13,1.31-.54,1.44-.89,1.43-1.24,1.44Z"/>
    <path d="M992,762.86l-.6-.23-.18-.62.05-.17,1.1-1.28,2.11-1.3,3.3-1.38,3.33-.96.43.03.38.21.24.37.05.43h0l-.08.27-.43.96-.83.98-1.23.39-2.67.42-2.79,1.15-1.15.51-1.03.22Z"/>
    <path d="M1018.05,758.26l.03.02.37.5-.14.61-.07.08-2.38,2.11-2.44,1.75-2.51,1.4-2.56,1.05-1.34.7-1.07,1.08-2.84,3.69-2.56,2.77-2.56,2.16-2.74,1.68-2.08.92-.13.04-.61-.17-.28-.58v-.41l.15-.58.42-.43,3.55-2.21,1.77-1.41,2.09-2.5,2.57-3.05,2.12-2.1,2.05-1.53,2.1-1.04,3.62-1.76,3.88-2.67.77-.3.82.18Z"/>
    <ellipse cx="995.73" cy="764.92" rx="5.08" ry="1.3" transform="translate(-250.18 609.04) rotate(-30.4)"/>
    <path d="M554.08,811.43l-.49-.47-.05-.68.85-1.84,1.5-1.81,30.67-28.81,4.45-3.81,3.87-2.56,1.85-.91,1.9-.72,1.84-.46,1.9-.23,88.38-5.1,3.28.08,3.02.63.51.26.39.42.22.54.03.57-.4,1.44-1.04,1.54-28.07,29.15-4.08,3.81-4.01,2.84-1.96,1.05-2.03.86-2,.62-2.09.41-2.02.19-92.39,3.56-2.29-.11-1.74-.46Z"/>
    <path d="M982.5,781.95l-.49-.09-1.19-.18-.88.05-1.38.62-1.2.75-.92.35h-.16s-.47-.27-.47-.27l-.07-.54.48-1.05.58-.79.18-.48-.21-.46h-.01s-2.77-2.45-2.77-2.45l-.51-.24-.56.07-1.83.78-.33.04-.49-.39.1-.62.71-1.17.09-1.03h0l-.58-.96-.37-.53-.14-.63.13-.63.37-.53.08-.07,1.66-1.02.72-.16.65.07h0l.6.33.52.58.5.36.61-.03,2.57-1.1.52.04.28.44-.02.19-.13.39-.47.8-.72.71-.08.06-.31.74.34.73,1.93,1.71.93.34.9-.39.31-.27.99-.62,1.18-.37.62.2.15.63-.14.27-1.07,1.2-.19.37v.43l.2.37.35.23h0l.33.05,1.56-.4,1.81-1.08.15-.1.57-.16.58.08.5.31.32.49.04.12.15.69-.08.71-.31.64-.49.52-4.29,3.79-1.1.54-.15.02-.61-.26-.18-.64.21-1.29-.12-.52-.45-.29Z"/>
    <ellipse cx="960.52" cy="773.63" rx="2.33" ry="1.15" transform="translate(-272.02 729.53) rotate(-36.8)"/>
    <path d="M959.82,776.75l1.16-.49.35-.07.42.11.32.29.13.41-.07.43-1.14,2.88-.54,2.32.04,1.84.58,1.43.85.85,1.27.65,2.35.97,1.84,1.13,1.79,1.62,1.73,2.21.42.49.77.51.89.27,1.12.08,1.18-.13,2.97-.95,2.58-1.53,2.18-2.03,1.64-1.92,1.45-2.11.56-.66.73-.45,1.5-.65.38-.07.41.13.3.32.1.41-.11.42-1.79,2.77-2.15,2.65-2.41,2.37-2.5,1.95-2.61,1.53-2.56,1.05-2.57.6-2.62.14-1.22-.17-1.01-.36-1.4-1.02-1.43-1.78-1.13-1.46-1.02-.97-2.57-1.32-2.81-1.4-.81-.63-.57-.72-.54-1.89.07-2.42.71-3.07,1.21-3.06.65-.89.93-.61Z"/>
    <path d="M1184.34,1086.3l-.21-.73.07-.64.06-.15,21.18-42.58,3.06-6.33,2.29-5.29-.04-.47-.4-.25h-.16s-1.98.86-1.98.86l-4.67,3.03-4.03,3.01-8.66,7.17-7.88,6.85-7.12,6.53-6.35,6.21-2.92,3.01-5.83,6.34-5.71,6.65-5.82,7.22-6.09,8.01-.27.53-.07.58,1.68,29.41.04,1.85-.17,1.64-.37,1.36-.58,1.22-1.42,1.66-2.09,1.39-75.13,39.4-.22.39,1.1,30.41.57,23.42.17,2.33.47,2.25h0l.3.56.5.4.62.15.63-.12h0l.17-.09,7.01-4.47,7.08-5.33,1.26-1.19.97-1.26.84-1.63.61-1.97.38-2.38.28-3.45.02-.3.63-3.24,1.45-3.45,2.25-3.68,3.19-4.12,11.08-12.88,10.32-11.46,2.08-2.01,1.9-1.39,1.55-.62,1.18.12.67.6.47,1.1.43,2.24.19,2.53.19,22.73.03.12.2.11.2-.12,21.79-40.78,1.87-3.9,1.4-3.61.35-2.04-.13-3.87-.15-5.38.35-3.6.79-2.73,1.34-2.87,1.87-3.01,2.42-3.15,2.53-3.02,7.77-9.42,5.44-7.17,4.54-6.83,3.87-6.86.18-.29h0l.52-.5.73-.35.1.02.36.69-.15.94-2.09,4.05-3.62,6.08-4.18,6.08-5.03,6.51-7.44,8.97-2.91,3.47-1.6,2.07-1.3,2.04-1,2-.7,1.96-.5,3.34.16,4.45.18,3.96-.29,3.02-1.01,3.41-1.86,4.1-9.93,18.8-15.18,28.09-.49.67-.59.34-.18.04-.65-.18-.31-.6h0v-.06l-.03-26.68-.16-2.13-.41-2.01-.04-.11-.51-.45-.67.09-1.98,1.46-1.85,1.75-9.84,10.88-12.7,14.83-1.48,1.94-1.24,2.01-.99,2.09-.74,2.15h0l-.71,3.85-.44,3.63-.68,2.92-.97,2.45-1.29,2.06-1.16,1.31-1.41,1.21-9.83,7.2-3.03,1.87-2.96,1.26-.78.1-.76-.21-.62-.48-.4-.68-.71-2.85-.29-3.3-.75-28.64-.84-24.94v-.08s-.22-.24-.22-.24h-.32s-13.19,6.94-13.19,6.94l-.23.1-.63.06-.59-.22-.45-.44-.22-.59-.38-3.59-.19-3.75-3.14-148.97.19-3.07.7-2.89.63-1.58.22-.98-.37-21.25-2.71-131.25.11-1.84.46-1.33,1.02-1.14,1.9-1.23,85.74-48.64.72-.05.47.54.03.21.08,11.44.14.29.31.07.07-.02,72.65-32.63.15-.04.46.15.16.47-25.17,173.69-.14.62h0l-.53,1.12-.89,1.02-.34.22-37.08,15.49-.54.46-.17.69,1.7,26.05.08.62.7,1.79.63,1.71-.22,1.48-1.11,3.57-.8,3.53-.52,3.54-.26,3.67v3.68s.28,3.79.28,3.79l.55,3.99.8,3.99,1.08,4.18.35,1.71.2,2.09-.21,2.3-.37.82-.53.58h0l-1.02.44h-1.33s-.43.14-.43.14l-.2.4h0v.05l1.96,34.21.15.23h.28l.09-.08,6.05-8.07,6.51-7.98,6.87-7.78,7.3-7.65,7.7-7.49,8.11-7.33,8.4-7.08,8.76-6.88,3.9-2.65,3.83-2,.73-.18.72.07.61.33.4.52.2,1.03-.22,1.33-1.42,4.05-2.11,4.61-23.67,46.84-.45.63-.5.26h0l-.46-.07Z"/>
    <path d="M928.16,841.14l.98-1.99.67-.98.81-.52,1.08-.03h.06s.62.32.62.32l.45.55.21.68-.07.73-.84,2.54-.96,2.18-.92,1.51-.89.86-.63.22-.67-.06-.58-.32-.4-.54h0l-.07-.19-.14-.87.05-1.08v-.08l-.17-.28-.32-.03-1.23.25-.88-.23-.44-.42-.29-.6-.23-1.84.27-2.56.76-3.38.17-.69.23-.59.37-.42h0l.37-.2,1.09-.54,1.29-.95,3.08-3.02.44-.47.07-.12-.05-.33-.3-.14-7.25.41-.37-.06-.34-.26-.17-.38.04-.42.24-.35,1.22-1.07.74-.45.85-.19,8.9-.51.63-.14.54-.34,7.26-6.33.98-.54,1.12-.06.33.05.31.11.33.31.15.42-.06.45-.26.37-5.25,4.58-.1.26.17.22.13.02,6.81-.39.46.09.36.3.16.44-.06.46-.25.34-1.15,1.01-.8.49-.92.21-8.34.48-1.03.42-1.94,1.87-2.62,2.46-2.25,1.54-.45.39-.24.54-1.4,6.56.09.31.31.08h0l.13-.07Z"/>
    <path d="M863.64,840.79l-2.22-.09h-.01l-.57.23-.23.56.03,8.75-.14.75-.41.65-.63.44-.74.18h-.09s-.03.01-.03.01l-.74-.13-.64-.4-.43-.62-.16-.74v-11.98s.12-.46.12-.46h0l.49-.59.87-.43.32-.26.04-.41h0s-.29-1.53-.29-1.53l.03-1.78-.08-.42-.31-.31-.97-.37h-.89s-1,.51-1,.51l-.45.89-.42,4.18-.64,4.14h0l-.96,4.46-1.22,4.4-.35.66-.57.48-.71.24-.74-.04-.08-.02h-.02l-.65-.32-.49-.55-.23-.69.05-.73,1.82-8.17.59-3.99.37-3.93.4-.89,3.2-3.62,4.74-5.97,1.43-1.35,1.9-.8,2.45-.21,12.97.33h13.42l.18.02.65.47.04.8-.29.53-.67.68-.88.47-2.89.65-.24.04-.35.25v.43s.14.25.14.25l.09.06,3.29.3.41.23.1.45h0l-.02.07-.31.64-.78.82-1.22.62-1.55.35-1.95.13-.69.17-.54.45-1.3,1.4-1.51.99-1.19.45-1.02.67-1.41,1.3-1.63.92-1.53.34-1.13-.31-.63-.7-.37-1.18-.37-.23-.04.02-1.56.82-.15.4,1.06,1.91.42.29.5.1,8.58-.07h.05l.7.15.59.42.38.61.11.71-.5,12.22-.18.75-.46.62-.66.4-.76.11h-.23s-.04-.01-.04-.01l-.73-.18-.61-.45-.39-.65-.1-.75.54-8.91h0s-.19-.53-.19-.53l-.51-.24-2.67-.1h-.11s-.33.25-.33.25l-.02.42.47,1.64-.04.6-.22.46h0l-.75.43-1.24.05-.85-.27-2.2-1.27-.56-.13-.53.21-1.81,1.36-.76.29h-.79l-.7-.29-.49-.53h0l-.02-.03-.19-.51.08-1.06.66-1.18.07-.37-.25-.28-.13-.02Z"/>
    <path d="M947.49,828.15l6.99-.36.26.04.58.57-.12.81-.39.47-.87.65-1.23.49-3.63.42-1.46.08-6.99.37-.26-.05-.58-.57.12-.8.39-.47.87-.66,1.23-.49,3.63-.41,1.46-.09Z"/>
    <path d="M887.23,832.81l1.13-1.16,1.13-.82,2.02-.81,3.26-.6.7-.11,6.59-.82h5.03l2.23.3,1.94.49,1.75.7,1.61.95.3.34.12.44-.09.45-.28.36-.24.14-.23.02-.58.26-.22.59h0v1.41l-.2,1.32-.72,2.02-1.14,1.81-1.57,1.68-2.05,1.58-2.45,1.4-2.8,1.19-3.09.95-3.11.61-.74-.05-.66-.35-.46-.59-.17-.72h0v-.19l.04-.53.15-.61.33-.54.48-.41.59-.23,4.82-1.35,3.71-1.64,1.45-.92,1.28-1.05.97-1.09.75-1.22.05-.12.18-.98-.26-.99-.66-.84-.93-.55-2.61-.6-3.08-.07-6.95.58-7,.95h-.15s-.24-.25-.24-.25l.07-.33Z"/>
    <path d="M957.01,842.43l.11.25.11.83-.24.8-.55.62-.77.35-3.74.4-1.83-.11-1.76-.32-1.62-.53-1.51-.73-1.29-.89-1.15-1.09-.88-1.12-.73-1.28-.93-2.83v-.73s.26-.66.26-.66l.49-.5.64-.25h.08s1,.13,1,.13l.8.73,1.03,1.74,1.19,1.93,1.17,1.15,1.53.72,1.93.32,4.9.11.68.08.55.26h0l.53.62Z"/>
    <path d="M868.2,849.49l-1.42,1.48-.59.42-.7.17-.71-.1-.63-.36-.04-.02-.08-.07-.47-.62-.19-.75.12-.77.42-.66,3.64-3.74.47-.33.56-.12.57.1.49.31,3.43,3.25.41.58.15.68-.12.7-.37.59-.35.37-.54.38-.64.15-.64-.11-.56-.35h0l-1.27-1.2-.47-.18-.47.2Z"/>
    <path class="cls-27" d="M900.66,1438.08l-485.65-17.19-5.12-.36-4.78-.72-4.43-1.06-4.08-1.41-2.27-1.17-2.19-1.67-1.96-2.04-1.82-2.51-1.67-2.96-1.46-3.34-1.28-3.76-1.01-3.99-.7-5.31-.39-8.05-11.92-447.53v-.37h0l.23-2.98.72-2.99,1.21-2.99,1.7-3,1.44-1.86,1.74-1.65,2.03-1.47,2.41-1.34,2.64-1.12,2.9-.89,2.95-.6,2.84-.29,9.91-.3,14.17-.04,18.21-.1,17.06.09,23.84-.09h20.31s7.27.03,7.27.03l65.5-.17,23.83.09,23.34-.07h14.32s16.78.03,16.78.03l15.1-.06,13.13.16h4.88l170.87-.21,12.36-.04,17.6.07,5.84.25,5.4.43,2.06.22,3.32.51,3.33.74,3.32.98,3.28,1.21,3.17,1.41,3.07,1.63,2.88,1.78,2.73,1.97,2.48,2.07,2.31,2.25,2.05,2.33,1.84,2.48,1.55,2.52,1.34,2.64,1.05,2.68.82,2.79.9,5.51.4,7.02.67,47.07.74,72.66,2.87,310.75.25,15.75-.04,2.41-.28,2.71-1.22,5.89-1.84,5.49-1.06,2.32-1.15,2.02-2.09,2.9-2.29,2.6-2.48,2.3-2.69,2h0l-2.17,1.31-2.28,1.13-2.39.96-2.51.79-2.36.46-3.07.28h-8.3Z"/>
    <path class="cls-15" d="M1184.34,1086.3l-.4,1.23-.94,1.18-.73.35-.52.5-.18.29-3.87,6.86-4.54,6.83-5.44,7.17-7.77,9.42-2.53,3.02-2.42,3.15-1.87,3.01-1.34,2.87-.79,2.73-.35,3.6.15,5.38.13,3.87-.35,2.04-1.4,3.61-1.87,3.9-21.79,40.78-.2.12-.2-.11-.03-.12-.19-22.73-.19-2.53-.43-2.24-.47-1.1-.67-.6-1.2-.12-1.58.65-1.88,1.38-2.05,1.99-10.32,11.46-11.08,12.88-3.19,4.12-2.25,3.68-1.45,3.45-.63,3.24-.02.3-.28,3.45-.38,2.38-.61,1.97-.84,1.63-.97,1.26-1.26,1.19-7.08,5.33-7.01,4.47-.17.09-.63.12-.62-.15-.5-.4-.3-.56h0l-.47-2.25-.17-2.33-.57-23.42-1.1-30.41.22-.39,75.13-39.4,2.09-1.39,1.42-1.66.58-1.22.37-1.36.17-1.64-.04-1.85-1.68-29.41.07-.58.27-.53,6.09-8.01,5.82-7.22,5.71-6.65,5.83-6.34,2.92-3.01,6.35-6.21,7.12-6.53,7.88-6.85,8.66-7.17,4.03-3.01,4.67-3.03,1.98-.85h.16s.4.24.4.24l.04.47-2.29,5.29-3.06,6.33-21.18,42.58-.06.15-.07.64.21.73Z"/>
    <path d="M1214.15,1038.84h.04l.42.15.19.43.44,15.61.83,16.41.04,2.53-.19,2.33-.44,2.25-.66,2.06-1.68,3.36-2.43,3.19-3.22,3.18-5.08,4.2-2.84,2.29-3.96,2.96-3.79,2.27-1.47.48-1.49.09-1.32-.32-.86-.68-.35-.68-.72-2.61-.16-2.05.19-1.36.47-1.48,1.33-3.52,2.47-6.21,5.32-11.1,5.64-11.05,5.96-11,6.28-10.96.74-.69.3-.08Z"/>
    <path d="M1177.19,1193.95l-.45-.49-.64.13-.19.27-11.47,31.97-11.68,34.7-5.56,17.59-5.37,18.18-.36.67-.6.47-.74.18-.75-.14-.2-.1-32.48-18.76-.47-.15-.49.04-.43.24-.3.4-.04.08-1.16,4.01-.22,1.38-7.02,53.36-.45,1.51-.89,1.29-21.84,23.06-.74.51-.89.15-.86-.24-.7-.57h0l-.17-.26-.49-1.56v-2.11l1.38-11.36,1.88-11.61,6.36-36.32.43-1.29,73.16-142.09,6.21-11.98,4.75-8.77,4.53-7.87,4.39-7.08,2.72-3.79,2.65-2.86,1.39-.96,1.37-.35,1.41.19,1.36.7,1.38,1.2,1.43,1.73,1.44,2.24,1.39,2.67,1.41,3.22,1.15,3.18,7.94,25.39,6.62,21.83,1.55,5.73.6,3.6.03,2.67-.17,2.68-.98,5.57-1.81,5.82-2.59,5.84-13.76,26.46-.82,1.39-.69.76-.51.09-.39-.34-.04-.11-9.52-41.99Z"/>
    <path d="M1082.61,1285.21l-.27.07-.44-.05-.38-.25-.23-.39-.03-.45,11.17-66.73.34-1.09.63-.95,22.58-25.56.45-.3.36-.12h.02l.85.31.37.82.15,4.34.2,8.78-.31,6.27-.88,5.51-1.53,5.01-3.04,7.04-3.81,7.58-11.53,21.91-14.21,27.63-.46.62Z"/>
    <path d="M1208.6,1253.95l.13-.23.47-.41.6-.17.61.09.52.35.46.6.45,1.06.13,1.26-1.47,94.63-.18,3.98-.44,2.69-.37,1.16-1.33,2.6-1.95,2.43-2.58,2.32-4,2.9-2.94,2.09-222.91,166.76-3.38,2.5-.46.18-.49-.02-1.19-.48-.75-.74-.34-1.25-1.03-81.39.25-.97.71-.7,3.86-2.17,21.96-12.5,15.89-9.53,4.9-3.07,10.23-6.22,3.59-1.91,3.26-1.47,1.18-.3,1.14.04.99.37.75.69.38,1.01-.07,1.32-.62,2.27-.68,1.66-1.89,3.53-4,7.61-2.37,5.3-1.17,3.9-.12,1.41.2,1.1.39.62.62.47.77.26.84.03,2.22-.35,2.16-.55h0l3.52-1.42,8.19-4.27,8.26-4.63,8.4-5.03,8.48-5.4,8.6-5.8,8.74-6.19,8.99-6.67,9.21-7.13,18.53-14.94,15.46-13.21,13.64-12.56,6.24-6.12,5.93-6.1,3.78-4.17,3.57-4.34h0l3-3.98,2.84-4.11,2.68-4.24,2.52-4.37,2.35-4.49,2.19-4.63,3.9-9.62,7.07-20.1,7.81-23.25,1.51-4.17,1.66-3.82Z"/>
  </g>
  <rect class="cls-13" x="491.48" y="892.1" width="4.8" height="88.17" transform="translate(-443.15 1428.47) rotate(-89.9)"/>
  <g>
    <path class="cls-19" d="M837.82,734.77l.84,1.69.46,1.92.07,2.14-.32,2.33-.71,2.5-1.09,2.65-1.46,2.77-1.81,2.86-2.15,2.93-2.47,2.97-2.76,2.98-3.03,2.96-6.74,5.75-7.43,5.34-7.84,4.73-7.94,3.93-3.91,1.62-3.83,1.37-3.7,1.1-3.54.82-3.35.54-3.12.25-2.86-.04-2.58-.34-2.27-.62-1.94-.91-1.59-1.18-1.22-1.44h0l-.84-1.69-.46-1.92-.07-2.14.32-2.33.71-2.5,1.09-2.65,1.46-2.77,1.81-2.86,2.15-2.93,2.47-2.97,2.76-2.98,3.03-2.96,6.74-5.75,7.43-5.34,7.84-4.73,7.94-3.93,3.91-1.62,3.83-1.37,3.7-1.1,3.54-.82,3.35-.54,3.12-.25,2.86.04,2.58.34,2.27.62,1.94.91,1.59,1.18,1.22,1.44Z"/>
    <path class="cls-19" d="M557.7,809.22l-.29-.1-.34-.31-.17-.43.05-.46.25-.39,30.63-28.7.81-.77,3.22-2.89,2.59-1.88,2.36-1.15,2.26-.48,90.44-5.25,2.48.02,2.27.36.67.47.17.8-.08.36-.79,1.31-29.33,30.41-2.91,2.55-3.15,1.89-1.39.53-1.68.4-4.28.44-90.34,3.49-3.45-.22Z"/>
    <path class="cls-18" d="M1120.21,882.19l9.9,2.1.19.07.32.5-.21.55-5.01,4.75-4.58,4.84-4.15,4.94-3.71,5.02-.56,1.22-.33,1.71v.04l.16.42.42.17,5.1-.06h.13s5.67,1,5.67,1l.46-.05.36-.28,2.94-2.92.28-.44v-.27s.24-.41.24-.41l.56-.28h0l.92-.72.78-.97,1.26-1.47,19.62-17.12.3-.06.21.21h0v.13s-1.61,12.25-1.61,12.25l.05.45.24.38.4.23.45.03.28-.1,11.46-6.02.92-.81.44-1.14,1.88-14.21.17-.44.35-.31,13.51-7.1.06-.03.3.05.15.26,1.32,13.47.25.41.48.04.13-.07,8.34-6.41.26-.04.18.19v.11s-1.21,8.39-1.21,8.39l-.2.48-.41.31-82.64,35.27-.3-.02-.16-.25v-.09l14.61-89.64.2-.46.41-.32,81.19-36.46.1-.03.31.11.1.31-7.67,52.85-.05.09-.27-.1-.76-7.74-.33-.53-.61-.06-.16.08-14.07,9.71-.38.43-.14.56.05,7.14-.17.59-.47.4-9.89,4.44-.1.03-.33-.1-.13-.32.77-10.02v-.15s-.32-.43-.32-.43l-.54-.02-12.15,5.46-.43.34-.21.5-1.38,9.55-.2.45-.41.28-3.46,1-3.45.66-3.41.31-3.22-.06-3.04-.43-2.74-.77-2.62-1.16-2.29-1.46-.29-.23-.61-.2-.61.23-12.03,10.49-.03.03-.49.67-.2.81.14.82.44.71,2.31,1.97,2.8,1.51.02.02-.09.07h-.09s-.03.03-.03.03l.06.14Z"/>
    <path class="cls-14" d="M1107.94,899.3l-1.81,11.14-.23.47-.46.27-6.08,1.7-6.54,2.24-7.24,2.85-8.94,3.87-.13.04-.49-.13-.21-.47.35-9.21.11-.41.29-.32,11.19-7.73.78-.92.2-1.18-3.53-36.02-.39-.62-.72-.06-.2.11-12.69,9.75-.34.72,1.43,25-.08.42-.26.35-2.55,1.97-3.26,2.56-2.15,2.06-1.54,2.04-1.01,2.14-.51,2.4v2.55l1.08,12.9.77,12.62.48,12.35.17,12.06.21.41.44.08.14-.07,13.18-9.1.23-.45-.32-15.71.14-.5.38-.35,6.61-3.31,10.27-5.01,7.33-2.95.21-.07.42.05.21.36v.12l-4,24.56-.53.87-3.83,3.06-3.4,3.15-3.09,3.36-2.64,3.41-2.23,3.5-1.87,3.68-1.44,3.72-1.05,3.89-.57,3.51-.47,3.37v.02s-.26.33-.26.33l-.42.05-29.14-9.14-.73.13-.59.45-.09.05-.3-.04-.14-.27-2.42-119.8.11-.44.32-.32,85.06-48.2.09-.04.35.07.17.32.18,9.05-.16.58-.46.39-8.21,3.69-1.18.93-.59,1.38-7.7,47.21-.32.85-.61.67-2.4,1.54-2.54,1.16h0l-3.74.99-4.02.27-.88.3-.46.81-2.28,14.04v.7s.28.64.28.64l.49.5.64.29,2.6.47,2.48.12,2.38-.2,2.28-.54h0l1.68-.65.14-.04.44.15.13.44Z"/>
    <path class="cls-19" d="M857.93,829.18l4.36-4.93.79-.36,5.6-.03.11.03.1.19-.11.18-10.42,5.47-.21.04-.29-.23.07-.36Z"/>
    <path class="cls-19" d="M883.97,824.88l-1.98.97-9.24.41-1.03.37-1.37.95-.17.18-.11.78.55.55.29.1.24.24-.06.34-.09.08-1.49,1.11-1.02,1.02-.55.92-.08.82h0v.04s.02.24.02.24l-.22.39-.85.88-.4.86-.33.54-.6.19-3.47-.13h-.01l-.23-.29.54-3.33.49-.69,1.01-.57.37-.33,2.19-2.57,1.2-.99,1.2-.74,1.62-1.15.84-1.38h0v-.02l.32-.45.53-.16,11.79.44.1.03v.35Z"/>
    <path class="cls-19" d="M879.02,829.83l-1.15.96-1.15.7-1.15.42-1.14.16-.89-.29-.46-.63-.06-.78.36-.69.68-.39,4.7-.11.15.03.22.28-.11.34Z"/>
    <path class="cls-18" d="M1189.78,888.39l-1.16,7.13-.1.21-.14.09-82.8,33.82h-.31s-.22-.43-.22-.43l.9-5.5.23-.29,83.06-35.45.39.05.15.37Z"/>
    <path class="cls-18" d="M1178.57,964.11l-79.83,33.35h-.25s-4.08-1.27-4.08-1.27h0l-.25-.4,10.25-62.89.09-.19.13-.09,83.06-33.92.36.05.13.33-9.39,64.75-.05.14-.17.14Z"/>
    <path class="cls-17" d="M537.96,936.26l-88.17-.15-2.63-.08-.05-.03v-.05s.01-.29.01-.29l.19-.18,34.89-.04,5.79.27,6.4.3,1.5-.29,1.64-.32,18.4.04,21.01.73,1.02.09Z"/>
    <path d="M449.79,936.11l88.17.15,318.04.44,8.56.54,4.84.5,3.66.61,5.89,1.66,5.56,2.31,5.25,2.98,4.8,3.57,4.3,4.11,3.74,4.6,3.09,4.96,2.46,5.35,1.23,3.64.92,3.78.61,3.79.29,3.9,12.45,361.96.04,5.87-.29,5.19-.97,8.12-1.29,7.07-1.65,6.37-2.07,5.76-2.48,5.12-2.92,4.55-3.32,3.91-3.75,3.32-1.71,1.22-2.67,1.63-2.72,1.33-2.78,1.03-2.82.73-4.42.35-7.57-.09-278.17-9.95-162.77-6.07-5.42-.43-5.61-.89-2.58-.61-2.5-.82h0l-2.37-1-2.3-1.2-3.17-2.19-2.65-2.66-1.18-1.61-1.01-1.7-1.61-3.88-1.09-4.63-.63-5.55-.24-35.49-.16-18.6-.41-16.9-.48-26.32-.49-27.68-.48-31.08-.26-21.67-.43-16.01-.26-10.35-.1-13.52-.28-20.46-.63-25.3-.21-30.36-.47-17.15-.4-11.29-.05-7.92-.05-22.09-.75-24.56.09-8.49.3-8.51.23-4.36.53-4.25.82-4.15,1.13-4.04.9-2.37,1.11-2.17,1.32-1.95,1.52-1.74h0l2.63-2.18,3.09-1.73,5.02-2.04,4.72-1.43,4.43-.82,4.12-.21,16.78.05Z"/>
    <path class="cls-14" d="M1088.86,994.59l-.21-.16-.04-.27.05-.2,1.66-6.17,1.67-5.16,1.42-3.37.54-.84.41-.23h.04s.25.4.25.4l.1,1-.32,3.65-.93,5.34-1.41,6.23-.05.2-.11.18-.31.08-2.76-.68Z"/>
    <path class="cls-14" d="M1103.28,998.28l35.32-14.76.06-.02.29.06.14.26,1.5,26.31-.13.3-.32.06-36.82-11.55-.24-.27.2-.39Z"/>
    <path class="cls-14" d="M1112.73,1097l18.24-11.57,1.25-1.05.69-1.23h0l.15-.92-.09-5.1-.55-6.27-.3-.47-.56-.07-.12.06-21.09,12.76-.23-.03-.03-.23,5.2-8.36.81-1.54.22-1.16-.18-.86-.46-.75-6.67-7.63-.31-.65.08-.72,5.86-14.7h.01s.33-.33.33-.33h.46s20.46,9.17,20.46,9.17h.01l.58.13.58-.1.5-.32.34-.49.07-.16.14-.56-.09-.58-.31-.49-.47-.34h-.01s-39.75-17.79-39.75-17.79l-.21-.24.07-.32.07-.06,2.89-2.19,1.01-1.16.13-1.09-.39-1.89-3.51-13.86-2.77-13.68v-.08l.15-.27.3-.04,46.51,14.59.29.24.02.37h0s-1.57,5.4-1.57,5.4l-.97,5.45h0l-.34,4.23v4.28s.38,4.31.38,4.31l.72,4.36,2.38,10-.03.45-.27.35-1.51.89-1.28.35-.59.23-.37.52-.22,1.58.05,2.63,3.88,69.02-.27,1.16-.86.84-91.91,48.25-.55.02-.36-.42-.02-.14-3.35-156.73.36-2.64.63-.92,1.06-.33,5.57.21.81-.23.52-.68.12-.34.06-.19v-.5l-.21-.45-.39-.33-.48-.13-5.71-.26-.45-.2-.18-.46-.42-29.53.15-.33.34-.11.07.02,33.55,10.52.37.25.17.4,3.81,32.55-.12.33-.34.11-.1-.03-27.73-12.4-.99-.02-.71.68-.25.55-.03.96.66.69,37.84,16.92.41.35.16.51,1,70.95.03.17.37.38.53-.07,12-8.07.19-.1,2.39-1.22,2.56-1.93.12-.08Z"/>
    <path class="cls-14" d="M1105.5,1041.75l.1.04.05.16v.11s-1.3,8.74-1.3,8.74l-.52,2.66-.32.92h0l-.3-.04h0l-.08-.97.18-2.71.98-8.78.02-.11.2-.15.99.13Z"/>
    <path class="cls-15" d="M1212.1,1044.86l.21-.12.21.11.04.12.5,13.94.63,10.84.15,3.51-.15,2.93-.45,2.54-.81,2.36-.93,1.77-1.22,1.72-1.53,1.7-1.87,1.7-11.1,9.06-2.3,1.52-3.06,1.21-.68.06-.65-.2-.54-.42-.35-.59-.37-1.33-.13-1.19.25-1.91.9-2.66.47-1.28,2.23-5.63,5.02-10.45,5.1-10.1,5.17-9.78,5.26-9.43Z"/>
    <path class="cls-14" d="M1104.66,1081.83l2.39,2.74.02.03.12.46-.25.41-1.99,1.37-.11.05-.39-.05-.19-.34-.26-4.4.16-.33.36-.04.14.1Z"/>
    <path class="cls-15" d="M1187.97,1231.13l-5.14-24.42-2.1-9.03-1.56-5.74-.65-1.55-.46-.42-.6-.2-.62.07-.54.32-.13.14-1.66,2.45-1.34,2.95-8.9,24.65-8.46,24.62-8.01,24.6-7.56,24.57-.02.05-.25.23-.34-.04-14.74-8.9-14.41-8.96-1.22-.66-1.1-.38-1.07-.12-.96.15-.95.46-.81.72-.76,1.06-.63,1.26-1.05,3.56-.79,5.03-.03.22-6.7,50.65-.06.25-.27.44-21.14,22.32-.23.16-.64-.06-.31-.58.37-6.76,1.05-7.75,5.15-29.82,3-16.27.81-2.3,36.26-70.13,40.42-78.67,4.83-9.15,4.52-7.97,4.36-7.07,4.28-6.27,1.5-1.56.83-.45.81-.17,1.33.23,1.28.81,1.32,1.37,1.36,1.98,1.41,2.6,1.38,3.1,2.77,7.83.09.29,9.24,29.8,4.96,16.72.74,3.59.23,2.81-.04,2.77-.32,2.81-.6,2.96-.86,2.99-1.15,3.14-3.31,7.08-11.32,21.67-.08.09-.25.03-.16-.2Z"/>
    <path class="cls-15" d="M1084.67,1277.79h-.21v-.07s9.69-59.53,9.69-59.53l.23-.75.44-.65,20.52-23.23.09-.07h.26s.14.24.14.24v.11s.4,9.16.4,9.16l-.22,6.54-.88,5.8-.7,2.69-.91,2.68-.02.04-3.28,7.37-5.31,10.31-10.85,20.65-9.39,18.71Z"/>
  </g>
  <g>
    <path d="M806.97,746.82l4.27-2.43.35-.08.39.2,2.63,3.03.34.19.39-.06.1-.08,6.89-6,.41-.14,2.92.11.33.12.21.29v.35l-.21.3-8.77,6.74-.2.28v.36h-.01l.12.21,2.59,2.97.14.34-.23.51-4.38,3.37-.08.05-.4.06-.35-.22-2.21-2.88-.41-.23-.44.14-6.5,5.69-.41.14-2.23-.08-.5-.31-.06-.39.19-.34,7.76-6.77.2-.36-.12-.44-2.9-3.77-.11-.48.29-.39Z"/>
    <path d="M771.63,764.2l-1.39.77-.33.07-.49-.35.08-.6,1.26-1.1,4.95-3.13,4.47-3.55.68-.31.73.11.07.02.37.41-.1.54h0l-.1.11-5.05,4.21-.74,1.04-2.21,6.78-.61,2.83-.31,2.55.02,2.25.32,1.86.63,1.57.99,1.3.84.67,1.01.52,2.34.57,3.04-.03,3.55-.63,4.71-1.46,4.83-2.11,4.95-2.78,4.94-3.37,4.96-4.01,4.8-4.49,4.61-4.94,4.18-5.16,5.18-6.87.16-.5-.19-.5-.11-.14-.75-1.49.03-.87.51-.72,1.53-1.17.71-.15.56.47.06.19.26.81.44.63h0l.99.57,1.41.15.67.34.08.75-.2.27-1.23.89-1.33.5-.27.05-.62.24-.48.46-4.45,6.11-4.72,5.68-5.03,5.31-5.23,4.79-5.44,4.3-5.57,3.74-5.8,3.27-5.88,2.68-2.87,1-3.05.77-2.82.44-2.62.12-2.28-.2-1.92-.5-1.6-.81-1.33-1.16-.44-.57-.72-1.41-.41-1.61-.15-1.85.13-2.17.41-2.43.68-2.66,2.26-6.42-.05-.38-.34-.16-.17.05Z"/>
    <path d="M793.3,757.14l1.9,2.47.09.32-.21.34-5.07,3.07-.34.05-.27-.2-1-1.65-.52-.19-.14.07-6.08,4.68-.27.09-2.91.06-.43-.3.15-.5,8.45-6.5.17-.28-.06-.31-2.21-3.66-.05-.34.2-.27,4.65-2.82.23-.06.38.21,1.5,2.47.3.21.36-.09,7.76-5.97.12-.06.15-.03,3.13-.06.44.3-.16.5-10.17,7.82-.18.29.09.34Z"/>
    <path d="M654.34,787.52l6.39-5.58.09-.13-.03-.33-.31-.15-8.98.52-.56-.11-.44-.37-.2-.54.08-.56h0l.3-.42,2.04-1.77,1.45-.9,1.67-.37,5.27-.31.79-.37.66-.73,2.51-2.67,2.05-1.72,1.92-1.08,1.89-.49.68.28.14.72-.16.28-3.89,4.41-.05.24.17.17h.12l6.33-1.43h.36s.38.17.38.17l.24.35.06.41-.15.4-.93,1.13h0l-1.04.94-1.19.79-2.82,1.16-.99.41-.89.61-7.72,6.73-.4.61-.03.73.2.9v.47s-.23.42-.23.42l-2.96,3.35-.26.44-.08.66.25.63.51.43.65.15,6.04-.12.67.33.13.73-.12.24-1.67,1.85-1.94,1.34h0l-1.97.77-2.2.35-.31.02-3.27.08-2.05-.34-.94-.56-.67-.86-.29-1.04.14-1.05.56-1.34.74-1.21.83-1.01.09-.31-.21-.24-.13-.02-4.12.08-.52.17-12.8,8.84-.83.34-.9-.02-.46-.11-.24-.1-.41-.65.29-.72,5.35-4.29,8.28-6.14,1.91-1.22,1.83-.83,1.76-.45,1.67-.05,1.53-.18,1.34-.76Z"/>
    <path d="M591.06,796.72l-5.66.32-.93.43-7.61,7.37-1.36,1.02-1.47.7h0l-1.86.39-.61-.25-.15-.64.09-.21,1.26-1.59,9.9-9.58,1.95-1.17,3.7-1.56.3-.25.07-.38v-.98s.3-.63.3-.63l14.57-14.15.76-.64,1.13-.67,1.24-.47,1.44-.28,1.54-.1,20.14-.04.6.28.17.64-.03.13v.03h0l-.57,1-.9.87-3.7,3.03-3.66,3.5-.28.57.1.63.07.15.04.63-.27.57-2.19,2.14-1.17.75-1.27.55-1.91.42h-2.13s-.83-.1-.83-.1l-2.87-.19-2.11.33-1.14.47-1.16.73-.14.31.2.28h0l.16.03,3.43-.2h.15s.58.38.58.38l.08.68-.96,1.36-.3.29-5.44,5.12-4.03,3.32-3.9,2.55-3.92,1.85-1.01.23-.75-.18h0l-.5-.66-.29-.34-.44-.08-.51.13-.94.21-.59-.13-.21-.26-.11-.58.19-.74.03-.19-.19-.29-.34-.02-5.2,2.22-.53.07-.49-.21-.31-.43-.04-.53.28-.52,1.63-1.41,1.89-1.31,2.16-1.2,2.44-1.09,4.55-1.94.1-.1v-.27s-.25-.12-.25-.12Z"/>
    <path d="M671.74,782.67l8.06-1.28.68.27.17.72-.12.25-.99,1.24-1.07.95-2.35,1.22-3.44.85-8.06,1.28-.68-.27-.17-.71.12-.26.99-1.24,1.08-.95,2.34-1.22,3.44-.85Z"/>
    <path d="M637.01,787.05l-2.13-.1-2.37.16-6.28,1.22-4.25.87-.79-.08h-.02s-.3-.5-.3-.5l.15-.58,1.41-1.54,2.06-1.41,2.43-.95,5.47-1.41,4.5-.81,4.02-.32,3.59.2.88.27.74.53.54.74.28.87-.1,1.27-.66,1.59-.9,1.41-1.11,1.2h0l-2.25,1.48-2.78.88-.64-.18-.23-.63.06-.21.62-1.72.11-1.25-.31-.37-.46.12-.12.27-.22.8-.55.78-2.19,2.06-2.71,1.99-3.07,1.82-3.5,1.69-3.96,1.58-4.24,1.37-4.48,1.16-4.42.86h-.29s-.52-.47-.52-.47l.09-.69,1.45-1.63,1.33-.97,1.67-.84,5.18-1.56,2.81-.73,3.09-.98,2.95-1.19,2.8-1.4,2.66-1.62,1.64-1.16,3.37-1.49.13-.16-.08-.2-.1-.04Z"/>
    <path d="M1120.37,958.33l-.05-.05h0l-6.76,3.03-.37.48-3.38,20.75-.41.93-.82.61-8.94,3.65-.19.05-.65-.22-.22-.65,6.28-47.64.21-.77.42-.68,2.04-2.2,2.27-1.89h0l3.16-1.92,3.52-1.43.28.04.15.24v.06l-1.29,16.81.19.18h.04s5.25-2.16,5.25-2.16l.09-.12,2.1-15.9.43-1.04.89-.7,10.8-4.6.11-.03.4.12.16.39-1.3,16.84v.03l.23.17,6.36-1.45h.07s.47.14.47.14l.2.45.06,9.65-.28.95-.76.62-7.93,3.24-.46.58-3.16,19.39-.34.78-.66.52-10.97,4.93-.73-.04-.4-.6h0v-.24s3.9-21.3,3.9-21.3Z"/>
    <path class="cls-16" d="M479.99,938.81l9.13,405.05-79.23-.53-6-362.2-.02-7.94.32-6.39.69-5.64,1.07-4.95,1.48-4.22,1.9-3.48,1.07-1.41,1.2-1.24,1.25-1.02,1.38-.84,4.8-2.24,4.59-1.59,4.39-.96,4.18-.32,47.8-.08Z"/>
    <path class="cls-1" d="M568.2,938.98l8.89,405.69-87.39-.51-.59-.02v-.28s-9.12-405.05-9.12-405.05l88.21.17Z"/>
    <path class="cls-29" d="M652.28,939.36l1.25.29.19.24,8.63,405.68-85.01-.53-.25-.21v-.16l-8.89-405.69,84.08.38Z"/>
    <path class="cls-8" d="M739.39,939.33l7.66,407.36v-.13s-.52.06-.52.06l-83.83-.85-.06.22-.29-.42-8.63-405.68-.19-.24-1.25-.29,87.11-.03Z"/>
    <path class="cls-25" d="M824.37,939.67l7.66,407.49-84.98-.47-7.66-407.36,84.98.34Z"/>
    <path class="cls-12" d="M919.99,1332.24l-.34,3.92-.12,3.99.09,4.04.3,4.1-88.12-.91.23-.22-7.66-407.49,34.36-.03,4.61.2,4.48.5,4.24.79,4.09,1.09,3.9,1.38,3.73,1.7,3.46,1.95,3.29,2.27,3.2,2.67,2.99,3.01,2.7,3.28,2.49,3.62,2.34,4.23,1.82,4.42h0l1.05,3.52.79,5.17.47,7.96,11.61,344.84Z"/>
    <path d="M1086.84,1108.3l-1.79,1.35-2.11,1.17-.66.59-.24.85.05,6.61.02.16.36.38.51-.06,7.33-4.61,7.2-4.27,3.32-1.68,10.28-4.64,9.75-3.83,3.97-1.07,1.75-.19,1.6.05.9.23.6.44.44,1.05-.11,1.55-.63,1.94-1.16,2.4-3.19,5.88-2.55,4.18-2.47,3.36-2.41,2.59-1.27.63-1.41-.15-1.92-.59-1.93-.21h0l-2.44.29-2.44.9-5.49,2.73-.64.45-2.1,1.5-2.76,1.44-4.95,2.57-34.74,19.98-.78.05-.53-.59-.03-.21-2.68-91.04.25-1.11.75-.86,8.97-6.19.12-.06.4.06.2.37.26,8.86.02.12.28.28.38-.06,2.38-1.64.52-.6.18-.77-.24-8.04.13-.6.4-.46,7.51-5.18.15-.08.52.09.24.47.04,7.02.15.28.31.05h0l.1-.06,3.63-2.55,3.8-1.87,2.18-.51.93.06.83.28h0l.68.45.59.65.9,1.85.54,1.97.46,2.82.12,3-.23,3-.57,3.18-.9,3.3-1.26,3.51-3.9,8.58-.66,1.06-.72.59h-.58l-.36-.46h0v-.16s.65-17.53.65-17.53v-.03l-.15-.05-6.6,4.55-.21.42.59,20.21-.23,1.03-.69.8-7.34,5.06-.46.06-.33-.33h0l-.02-.15-.14-21.23-.17-.32-.35-.06-.11.05-1.87,1.29-.46.54-.15.68.88,30.03.06.19.33.15.29-.21,3.37-7.54.64-.56.84.12h0l.12.09,1.54,1.06,1.62.55h0l1.18.09,1.22-.15,1.26-.4,1.31-.63,12.98-7.4h.53l.28.45.37,12.43-.26,1.02-.75.73-3.84,2.12-.08.05Z"/>
    <path class="cls-5" d="M919.99,1332.24l.4,21.26-.18-.64h0l-.35-2.23.06-2.34-.3-4.1-.09-4.04.12-3.99.34-3.92Z"/>
    <path class="cls-5" d="M489.12,1343.86v.28s.58.02.58.02l-.42,1.94v.38l1.05,42.93-52.08-1.89-4.13-.33-3.84-.58-3.47-.83-3.13-1.07-2.86-1.35-2.48-1.57-2.16-1.82-1.9-2.15-1.31-1.97-1.09-2.21-.69-2.27-.53-3.09-.35-3.91-.18-4.73-.24-16.31,79.23.53Z"/>
    <path class="cls-22" d="M577.09,1344.67v.16l.25.21h-.13s-.12.14-.12.14l1.07,47.4-87.83-3.17-1.05-42.93v-.38l.42-1.94,87.39.51Z"/>
    <path class="cls-6" d="M577.34,1345.04l85.01.53.29.42.06-.22-.33.17h0l-.21.42v.66s.2,1.49.2,1.49l.99,47.11-85.19-3.04-1.07-47.4.12-.13h.13Z"/>
    <path class="cls-31" d="M746.53,1346.62l.5.69.17.51,1.07,50.88-84.92-3.08-.99-47.11-.19-1.49v-.66s.2-.42.2-.42h0l.33-.17,83.83.85Z"/>
    <path class="cls-17" d="M747.05,1346.69l84.98.47-.23.22,1.1,54.35-84.63-3.03-1.07-50.88-.17-.51-.5-.69.53-.06v.13Z"/>
    <path class="cls-3" d="M919.92,1348.29l-.06,2.34.35,2.23h0l.18.64-.79,8.52-1.3,7.77-1.83,7.06-2.37,6.35-1.34,2.81-1.51,2.68-1.6,2.42-1.77,2.29-1.83,2-1.99,1.84-2.08,1.61-2.24,1.43-2.51,1.28-2.69,1.07-1.92.48-2.44.31-6.45.1-50.83-1.79-1.1-54.35,88.12.91Z"/>
  </g>
  <g>
    <path class="cls-19" d="M602.94,781.5l-.14-.06v-.04h-.01l.04-.57.5-.68.9-.68,1.15-.58.26-.11,1.22-.39,1.12-.14.84.13.43.39h0v.03s.02.02.02.02l-.07.13-6.26,2.55Z"/>
    <path class="cls-19" d="M611.51,780.84h-.02l-.04-.1.71-1.61.35-.4.51-.14,7.46.12.27.14.05.3h0l-.04.08-1.87,1.78-1.59,1.43-.63.54-1.35.55-1.67.07-.33-.21-.03-.38h0l.07-.12.99-1.12.16-.67-.48-.49-.3-.03-2.22.26Z"/>
    <path class="cls-19" d="M597.72,788.54l.17.04.19.3-.16.32-2.39,1.53-2,.94-1.61.34-1.21-.25-.18-.27.12-.29.13-.06,1.79-.76,1.95-1.44,1.01-.38,2.19-.02Z"/>
    <ellipse class="cls-19" cx="600.98" cy="790.18" rx="1.35" ry=".48" transform="translate(-389.41 858.66) rotate(-56.7)"/>
    <path class="cls-19" d="M599.47,797.39l-6.83,4.72-.18.06-.32-.16-.02-.36.67-1.95-.04-1.77h0l-.19-.59.02-.38.3-.22h.08s6.26-.13,6.26-.13l.2.05.23.35-.18.38Z"/>
  </g>
</svg>