<?xml version="1.0" encoding="utf-8"?>
<!-- Generator: Adobe Illustrator 29.8.2, SVG Export Plug-In . SVG Version: 9.03 Build 0)  -->
<svg version="1.0" id="Layer_1" xmlns="http://www.w3.org/2000/svg" xmlns:xlink="http://www.w3.org/1999/xlink" x="0px" y="0px"
	 viewBox="0 0 2000 1500" style="enable-background:new 0 0 2000 1500;" xml:space="preserve">
<g>
	<g>
		<rect y="0" style="fill:#02CE53;" width="2000" height="1500"/>
	</g>
	<g>
		<polygon style="fill:#009937;" points="635.674,1205.181 1024.028,1500 2000,1500 1258.795,1181.037 		"/>
	</g>
	<g>
		<path style="fill:#009937;" d="M1367.642,1229.731c-0.691,0-1.363-0.358-1.734-1c-0.552-0.957-0.225-2.18,0.732-2.732
			l231.88-133.876c15.882-9.169,25.363-25.592,25.362-43.931c0-18.338-9.481-34.76-25.362-43.929l-52.159-30.114
			c-17.557-10.137-28.463-29.026-28.463-49.299v-40.71c0-20.732,11.153-40.051,29.108-50.417l36.123-20.855
			c0.955-0.553,2.18-0.225,2.732,0.732c0.552,0.957,0.225,2.18-0.732,2.732l-36.123,20.855
			c-16.721,9.653-27.108,27.645-27.108,46.952v40.71c0,18.848,10.14,36.41,26.463,45.834l52.159,30.114
			c17.134,9.893,27.362,27.609,27.362,47.394c0.001,19.785-10.229,37.503-27.362,47.396l-231.88,133.876
			C1368.325,1229.646,1367.98,1229.731,1367.642,1229.731z"/>
	</g>
	<g>
		<g>
			<path style="fill:#9ABAD8;" d="M1592.593,844.991l47.847,27.624c8.075,4.662,18.168-1.165,18.168-10.489V730.527
				c0-9.532-5.085-18.339-13.34-23.105l-47.847-27.625c-8.075-4.662-18.168,1.166-18.168,10.49v131.599
				C1579.253,831.417,1584.338,840.225,1592.593,844.991z"/>
			<path d="M1646.496,876.261c-2.424,0-4.847-0.638-7.057-1.913l-47.847-27.624c-8.845-5.106-14.34-14.624-14.34-24.838V690.287
				c0-5.102,2.638-9.671,7.057-12.222c4.418-2.55,9.693-2.551,14.111,0l47.848,27.624c8.845,5.107,14.34,14.624,14.34,24.837
				v131.599c0,5.102-2.638,9.671-7.056,12.222C1651.344,875.623,1648.919,876.261,1646.496,876.261z M1591.365,680.159
				c-1.737,0-3.473,0.457-5.056,1.371c-3.166,1.828-5.057,5.102-5.057,8.757v131.599c0,8.789,4.729,16.979,12.34,21.373l0,0
				l47.847,27.624c3.166,1.828,6.947,1.828,10.113,0c3.166-1.827,5.056-5.102,5.056-8.757V730.527
				c0-8.789-4.729-16.979-12.34-21.374l-47.848-27.624C1594.838,680.616,1593.102,680.159,1591.365,680.159z"/>
		</g>
		<g>
			<path style="fill:#233344;" d="M1618.245,734.759c-6.998-4.041-13.339-4.415-17.918-1.754l-43.026,25.004
				c4.579-2.661,10.919-2.286,17.918,1.754c13.915,8.034,25.152,27.503,25.107,43.487c-0.022,7.941-2.826,13.529-7.348,16.157
				l43.026-25.004c4.522-2.628,7.325-8.216,7.348-16.157C1643.397,762.262,1632.159,742.792,1618.245,734.759z"/>
			<path d="M1592.979,821.406c-0.689,0-1.36-0.356-1.731-0.995c-0.555-0.955-0.23-2.179,0.725-2.734
				c4.077-2.369,6.333-7.495,6.353-14.434c0.043-15.321-10.771-34.049-24.106-41.748c-6.124-3.535-11.772-4.161-15.908-1.76
				l-0.005,0.003c-0.957,0.554-2.179,0.229-2.734-0.725c-0.555-0.955-0.23-2.179,0.725-2.734l43.026-25.004
				c5.428-3.156,12.503-2.533,19.922,1.751c14.442,8.338,26.154,28.626,26.107,45.225c-0.023,8.417-2.986,14.768-8.343,17.881
				l-43.026,25.004C1593.666,821.319,1593.32,821.406,1592.979,821.406z M1567.175,754.584c2.891,0.501,5.937,1.652,9.044,3.446
				c14.441,8.338,26.153,28.626,26.106,45.225c-0.01,3.469-0.519,6.586-1.488,9.271l34.162-19.853
				c4.077-2.369,6.333-7.495,6.353-14.434c0.043-15.32-10.771-34.049-24.107-41.749l0,0c-6.127-3.538-11.778-4.16-15.912-1.757
				L1567.175,754.584z"/>
		</g>
		<g>
			<path style="fill:#BFD8F6;" d="M1575.218,759.763c13.915,8.034,25.152,27.503,25.107,43.487
				c-0.045,15.984-11.356,22.435-25.271,14.401c-13.91-8.031-25.147-27.5-25.102-43.484
				C1549.998,758.183,1561.308,751.732,1575.218,759.763z"/>
			<path d="M1586.361,823.119c-3.817,0-8.005-1.253-12.307-3.736c-14.439-8.336-26.149-28.622-26.103-45.222
				c0.024-8.449,3.006-14.811,8.396-17.912c5.422-3.119,12.479-2.486,19.871,1.781l0,0c14.441,8.339,26.153,28.627,26.106,45.225
				c-0.023,8.448-3.005,14.81-8.395,17.911C1591.663,822.471,1589.107,823.119,1586.361,823.119z M1563.929,758.3
				c-2.057,0-3.94,0.47-5.586,1.416c-4.102,2.36-6.371,7.494-6.391,14.457c-0.043,15.321,10.77,34.048,24.103,41.745
				c6.106,3.526,11.746,4.158,15.881,1.781c4.101-2.36,6.37-7.494,6.39-14.456c0.043-15.319-10.772-34.048-24.106-41.748l0,0
				C1570.544,759.373,1567.039,758.3,1563.929,758.3z"/>
		</g>
		<g>
			<path style="fill:#233344;" d="M1565.46,780.833c6.391,3.69,11.552,12.631,11.531,19.972c-0.021,7.341-5.215,10.304-11.606,6.614
				c-6.388-3.688-11.549-12.63-11.529-19.971C1553.877,780.107,1559.072,777.144,1565.46,780.833z"/>
			<path d="M1570.58,811.015c-1.942,0-4.049-0.625-6.195-1.863c-7.048-4.069-12.551-13.604-12.528-21.709
				c0.012-4.282,1.573-7.535,4.397-9.16c2.838-1.633,6.463-1.344,10.206,0.817l0,0c7.05,4.071,12.554,13.607,12.531,21.711
				c-0.012,4.281-1.573,7.535-4.397,9.16C1573.382,810.668,1572.026,811.015,1570.58,811.015z M1560.267,781.252
				c-0.757,0-1.439,0.164-2.018,0.497c-1.535,0.884-2.385,2.909-2.393,5.705c-0.019,6.577,4.803,14.928,10.528,18.232
				c2.421,1.398,4.688,1.697,6.214,0.816c1.535-0.883,2.385-2.908,2.393-5.704c0.019-6.576-4.805-14.927-10.531-18.234l0,0
				C1562.956,781.695,1561.512,781.252,1560.267,781.252z"/>
		</g>
		<g>
			<path d="M1367.642,1198.185c-0.691,0-1.363-0.358-1.734-1c-0.552-0.957-0.225-2.18,0.732-2.732l211.88-122.329
				c15.882-9.169,25.363-25.592,25.362-43.931c0-18.338-9.481-34.76-25.362-43.929l-52.159-30.114
				c-17.557-10.137-28.463-29.026-28.463-49.299v-40.71c0-20.732,11.153-40.051,29.108-50.417l36.123-20.855
				c0.955-0.553,2.18-0.225,2.732,0.732c0.552,0.957,0.225,2.18-0.732,2.732l-36.123,20.855
				c-16.721,9.653-27.108,27.645-27.108,46.952v40.71c0,18.848,10.14,36.41,26.463,45.834l52.159,30.114
				c17.134,9.893,27.362,27.609,27.362,47.394c0.001,19.784-10.229,37.503-27.362,47.396l-211.88,122.329
				C1368.325,1198.099,1367.98,1198.185,1367.642,1198.185z"/>
		</g>
	</g>
	<g>
		<g>
			<g>
				<polygon style="fill:#FE728C;" points="1044.456,1442.739 635.674,1205.181 635.562,1165.505 1044.344,1403.063 				"/>
				<path d="M1044.456,1444.738c-0.348,0-0.694-0.09-1.005-0.271L634.669,1206.91c-0.614-0.357-0.993-1.014-0.995-1.724
					l-0.112-39.676c-0.002-0.717,0.379-1.38,1-1.738c0.621-0.358,1.386-0.357,2.005,0.003l408.782,237.559
					c0.614,0.357,0.993,1.014,0.995,1.724l0.112,39.675c0.002,0.717-0.38,1.38-1,1.738
					C1045.146,1444.649,1044.802,1444.738,1044.456,1444.738z M637.671,1204.027l404.775,235.229l-0.1-35.041l-404.775-235.229
					L637.671,1204.027z"/>
			</g>
		</g>
		<g>
			<g>
				<polygon style="fill:#FE728C;" points="1044.344,1403.063 635.562,1165.505 669.978,1105.895 1078.759,1343.453 				"/>
				<path d="M1044.344,1405.063c-0.35,0-0.697-0.092-1.005-0.271l-408.782-237.559c-0.953-0.554-1.278-1.774-0.727-2.729
					l34.416-59.61c0.266-0.46,0.704-0.796,1.217-0.933c0.513-0.138,1.06-0.064,1.52,0.203l408.781,237.559
					c0.953,0.554,1.278,1.774,0.728,2.729l-34.415,59.61c-0.266,0.46-0.704,0.796-1.218,0.933
					C1044.689,1405.041,1044.517,1405.063,1044.344,1405.063z M638.291,1164.777l405.323,235.549l32.415-56.146l-405.323-235.549
					L638.291,1164.777z"/>
			</g>
		</g>
		<g>
			<g>
				<polygon style="fill:#FE728C;" points="1078.759,1343.453 669.978,1105.895 716.918,1078.794 1125.699,1316.352 				"/>
				<path d="M1078.759,1345.453c-0.347,0-0.694-0.09-1.005-0.271l-408.781-237.559c-0.617-0.358-0.996-1.019-0.995-1.732
					s0.382-1.372,1-1.729l46.94-27.101c0.621-0.358,1.386-0.357,2.005,0.003l408.782,237.558c0.617,0.358,0.996,1.019,0.995,1.732
					s-0.382,1.372-1,1.729l-46.94,27.102C1079.449,1345.364,1079.104,1345.453,1078.759,1345.453z M673.968,1105.9l404.794,235.241
					l42.947-24.796l-404.795-235.24L673.968,1105.9z"/>
			</g>
		</g>
		<g>
			<g>
				<polygon style="fill:#233344;" points="1125.699,1316.352 716.918,1078.794 716.11,804.78 1124.891,1042.338 				"/>
				<path d="M1125.699,1318.352c-0.348,0-0.694-0.09-1.005-0.271l-408.782-237.558c-0.614-0.357-0.993-1.014-0.995-1.724
					l-0.808-274.014c-0.002-0.717,0.379-1.38,1-1.738c0.621-0.358,1.386-0.357,2.005,0.003l408.782,237.558
					c0.614,0.357,0.993,1.014,0.995,1.724l0.808,274.014c0.002,0.717-0.379,1.38-1,1.738
					C1126.39,1318.262,1126.045,1318.352,1125.699,1318.352z M718.914,1077.641l404.774,235.229l-0.794-269.379L718.12,808.262
					L718.914,1077.641z"/>
			</g>
		</g>
		<g>
			<g style="enable-background:new    ;">
				<g>
					<g>
						<polygon style="fill:#BFD8F6;" points="1084.982,1099.371 1084.551,1251.257 982.786,1192.503 983.217,1040.617 						"/>
						<path d="M1084.551,1253.258c-0.346,0-0.69-0.089-1-0.268l-101.765-58.755c-0.621-0.358-1.002-1.021-1-1.738l0.431-151.887
							c0.002-0.713,0.384-1.372,1.002-1.728c0.618-0.356,1.379-0.355,1.998,0.001l101.765,58.755c0.62,0.358,1.002,1.021,1,1.738
							l-0.431,151.887c-0.002,0.713-0.384,1.372-1.003,1.728C1085.239,1253.169,1084.896,1253.258,1084.551,1253.258z
							 M984.79,1191.351l97.771,56.449l0.418-147.276l-97.771-56.449L984.79,1191.351z"/>
					</g>
				</g>
				<g>
					<g>
						<polygon style="fill:#85A8C6;" points="1051.169,1175.443 1051.024,1218.384 1016.599,1198.509 1016.744,1155.568 						"/>
						<path d="M1051.023,1220.384c-0.346,0-0.69-0.089-1-0.268l-34.425-19.875c-0.621-0.358-1.002-1.022-1-1.739l0.146-42.941
							c0.002-0.713,0.385-1.371,1.003-1.727c0.618-0.357,1.379-0.356,1.997,0.001l34.425,19.876c0.621,0.358,1.002,1.022,1,1.739
							l-0.146,42.94c-0.002,0.713-0.385,1.371-1.003,1.727C1051.712,1220.295,1051.367,1220.384,1051.023,1220.384z
							 M1018.603,1197.356l30.433,17.57l0.13-38.331l-30.433-17.571L1018.603,1197.356z"/>
					</g>
				</g>
				<g>
					<g>
						<path d="M1040.922,1111.082l-0.038,28.382c-0.006,4.768-5.169,7.744-9.299,5.36l0,0c-2.937-1.696-4.744-4.831-4.74-8.222
							l0.038-28.382c0.006-4.768,5.169-7.745,9.299-5.36v0C1039.119,1104.556,1040.927,1107.691,1040.922,1111.082z"/>
						<path d="M1034.686,1147.668c-1.408,0-2.816-0.371-4.1-1.112c-3.545-2.046-5.745-5.86-5.74-9.955l0.038-28.383
							c0.004-2.962,1.539-5.613,4.104-7.092c2.566-1.479,5.63-1.478,8.194,0.002c3.546,2.048,5.745,5.862,5.739,9.957l-0.038,28.382
							c-0.004,2.962-1.538,5.613-4.104,7.093C1037.497,1147.299,1036.091,1147.668,1034.686,1147.668z M1033.083,1104.023
							c-0.721,0-1.44,0.189-2.098,0.567c-1.313,0.758-2.1,2.116-2.102,3.633l-0.038,28.382c-0.003,2.668,1.43,5.153,3.74,6.486
							c1.312,0.759,2.88,0.761,4.196,0.002c1.313-0.758,2.1-2.115,2.102-3.633l0.038-28.382l0,0
							c0.004-2.667-1.429-5.153-3.739-6.486C1034.525,1104.213,1033.804,1104.023,1033.083,1104.023z"/>
					</g>
				</g>
				<g>
					<g>
						<polygon style="fill:#9ABAD8;" points="1084.982,1099.371 1106.126,1087.083 1105.695,1238.97 1084.551,1251.257 						"/>
						<path d="M1084.551,1253.258c-0.346,0-0.69-0.089-1-0.268c-0.62-0.358-1.002-1.021-1-1.738l0.431-151.887
							c0.002-0.71,0.381-1.366,0.995-1.724l21.145-12.288c0.62-0.361,1.385-0.361,2.005-0.003s1.002,1.021,1,1.738l-0.431,151.887
							c-0.002,0.71-0.381,1.366-0.995,1.724l-21.145,12.288C1085.245,1253.168,1084.897,1253.258,1084.551,1253.258z
							 M1086.979,1100.523l-0.418,147.253l17.138-9.959l0.418-147.253L1086.979,1100.523z"/>
					</g>
				</g>
				<g>
					<g>
						<polygon style="fill:#BFD8F6;" points="983.217,1040.617 1004.361,1028.329 1106.126,1087.083 1084.982,1099.371 						"/>
						<path d="M1084.981,1101.371c-0.346,0-0.69-0.089-1-0.268l-101.765-58.755c-0.618-0.357-0.999-1.016-1-1.729
							s0.378-1.374,0.995-1.732l21.144-12.287c0.62-0.361,1.385-0.361,2.005-0.003l101.766,58.754c0.618,0.357,0.999,1.016,1,1.729
							s-0.378,1.374-0.995,1.732l-21.145,12.288C1085.676,1101.281,1085.328,1101.371,1084.981,1101.371z M987.207,1040.61
							l97.771,56.449l17.157-9.971l-97.772-56.448L987.207,1040.61z"/>
					</g>
				</g>
			</g>
		</g>
		<g>
			<g>
				<polygon style="fill:#FDC41F;" points="1028.603,1105.25 619.821,867.693 619.596,807.341 1028.378,1044.899 				"/>
				<path d="M1028.603,1107.25c-0.347,0-0.694-0.09-1.005-0.271L618.816,869.422c-0.614-0.356-0.993-1.012-0.995-1.722
					l-0.225-60.351c-0.002-0.717,0.378-1.381,0.999-1.739c0.622-0.358,1.386-0.358,2.006,0.002l408.782,237.558
					c0.613,0.356,0.992,1.012,0.995,1.722l0.225,60.351c0.003,0.717-0.379,1.381-0.999,1.739
					C1029.294,1107.16,1028.948,1107.25,1028.603,1107.25z M621.817,866.539l404.773,235.228l-0.208-55.714L621.609,810.825
					L621.817,866.539z"/>
			</g>
		</g>
		<g>
			<g>
				<polygon style="fill:#FDC41F;" points="1028.378,1044.899 619.596,807.341 715.885,714.429 1124.666,951.987 				"/>
				<path d="M1028.377,1046.899c-0.344,0-0.69-0.089-1.004-0.271L618.591,809.071c-0.542-0.315-0.905-0.866-0.98-1.489
					c-0.076-0.622,0.146-1.244,0.597-1.68l96.289-92.913c0.645-0.621,1.622-0.739,2.394-0.29l408.781,237.557
					c0.542,0.315,0.905,0.866,0.98,1.489c0.075,0.622-0.146,1.244-0.597,1.68l-96.288,92.913
					C1029.384,1046.708,1028.883,1046.899,1028.377,1046.899z M622.89,806.942l405.186,235.469l93.296-90.025L716.186,716.917
					L622.89,806.942z"/>
			</g>
		</g>
		<g>
			<g>
				<polygon style="fill:#FDC41F;" points="1124.666,951.987 715.885,714.429 790.958,304.191 1199.739,541.749 				"/>
				<path d="M1124.666,953.986c-0.348,0-0.695-0.091-1.005-0.271L714.88,716.158c-0.729-0.424-1.114-1.259-0.962-2.089
					l75.073-410.238c0.117-0.641,0.539-1.184,1.13-1.457c0.59-0.272,1.278-0.241,1.842,0.087l408.782,237.558
					c0.729,0.424,1.114,1.259,0.963,2.089l-75.073,410.238c-0.118,0.641-0.539,1.184-1.131,1.456
					C1125.236,953.926,1124.951,953.986,1124.666,953.986z M718.105,713.406l405.106,235.421l74.308-406.056L792.413,307.35
					L718.105,713.406z"/>
			</g>
			<g>
				<path style="fill:#233344;" d="M752.268,682.27l54.288-296.663c3.032-16.568,21.58-25.113,36.143-16.65l308.953,179.544
					c8.868,5.154,13.55,15.316,11.703,25.406l-54.289,296.662c-3.032,16.568-21.58,25.113-36.143,16.65L763.972,707.676
					C755.104,702.522,750.422,692.359,752.268,682.27z"/>
				<path d="M1085.11,892.553c-4.546,0-9.067-1.207-13.191-3.604L762.967,709.405c-9.568-5.56-14.658-16.609-12.666-27.494
					l54.289-296.663c1.564-8.546,6.987-15.533,14.878-19.168c7.891-3.634,16.726-3.217,24.237,1.149l308.954,179.544
					c9.568,5.561,14.658,16.61,12.666,27.495l-54.289,296.662c-1.564,8.546-6.987,15.533-14.879,19.168
					C1092.597,891.737,1088.845,892.553,1085.11,892.553z M752.268,682.271l1.967,0.36c-1.689,9.231,2.627,18.601,10.741,23.316
					l308.952,179.543c6.371,3.702,13.862,4.057,20.554,0.975c6.692-3.083,11.291-9.008,12.617-16.256l54.289-296.661
					c1.689-9.23-2.626-18.601-10.74-23.317L841.695,370.687c-6.371-3.702-13.862-4.057-20.554-0.974
					c-6.692,3.083-11.291,9.007-12.617,16.254L754.235,682.63L752.268,682.271z"/>
			</g>
			<g>
				<path style="fill:#9ABAD8;" d="M1085.104,880.532c-2.512,0-4.919-0.659-7.156-1.959L768.996,699.03
					c-5.206-3.025-7.975-9.037-6.892-14.959l54.289-296.662c1.413-7.723,8.176-11.763,14.127-11.763
					c2.512,0,4.919,0.659,7.155,1.958l308.953,179.544c5.206,3.025,7.975,9.037,6.892,14.959l-54.289,296.663
					C1097.818,876.492,1091.054,880.532,1085.104,880.532z"/>
				<path d="M1085.104,882.531c-2.87,0-5.615-0.75-8.161-2.229L767.991,700.759c-5.933-3.448-9.089-10.299-7.854-17.048
					l54.289-296.662c1.61-8.799,9.315-13.403,16.094-13.403c2.869,0,5.614,0.75,8.16,2.229l308.954,179.545
					c5.932,3.448,9.088,10.299,7.854,17.048l-54.289,296.663C1099.588,877.928,1091.883,882.531,1085.104,882.531z M830.52,377.646
					c-5.122,0-10.943,3.477-12.16,10.123L764.072,684.43c-0.932,5.095,1.451,10.268,5.929,12.871l308.952,179.542
					c1.928,1.12,3.997,1.688,6.151,1.688c5.121,0,10.942-3.477,12.16-10.122l54.288-296.662c0.932-5.095-1.45-10.267-5.929-12.87
					L836.67,379.333C834.743,378.213,832.674,377.646,830.52,377.646z"/>
			</g>
		</g>
		<g>
			<g>
				<polygon style="fill:#FE728C;" points="1123.22,441.743 714.438,204.185 968.918,57.261 1377.699,294.819 				"/>
				<path d="M1123.22,443.743c-0.348,0-0.694-0.09-1.005-0.271L713.433,205.914c-0.617-0.358-0.996-1.018-0.995-1.732
					c0.001-0.713,0.382-1.373,1-1.729l254.48-146.924c0.621-0.358,1.385-0.357,2.005,0.003l408.781,237.558
					c0.617,0.358,0.996,1.019,0.995,1.732s-0.382,1.373-1,1.729L1124.22,443.475C1123.91,443.654,1123.565,443.743,1123.22,443.743z
					 M718.428,204.191l404.794,235.241l250.486-144.618L968.915,59.573L718.428,204.191z"/>
			</g>
		</g>
		<g>
			<g>
				<polygon style="fill:#FE728C;" points="1123.628,585.692 714.846,348.134 714.438,204.185 1123.22,441.743 				"/>
				<path d="M1123.628,587.692c-0.348,0-0.694-0.09-1.005-0.271L713.841,349.863c-0.614-0.357-0.993-1.013-0.995-1.723
					l-0.408-143.949c-0.002-0.717,0.379-1.379,1-1.738s1.385-0.357,2.005,0.003l408.782,237.558
					c0.614,0.357,0.993,1.013,0.995,1.723l0.408,143.949c0.002,0.717-0.38,1.379-1,1.738
					C1124.318,587.603,1123.973,587.692,1123.628,587.692z M716.843,346.981l404.775,235.23l-0.396-139.315l-404.775-235.23
					L716.843,346.981z"/>
			</g>
		</g>
		<g>
			<g>
				<polygon style="fill:#233344;" points="1123.628,585.692 714.846,238.134 714.438,204.185 1123.22,551.743 				"/>
				<path d="M1123.628,587.692c-0.466,0-0.927-0.163-1.296-0.476L713.551,239.658c-0.44-0.375-0.697-0.922-0.705-1.5l-0.408-33.949
					c-0.009-0.784,0.44-1.501,1.15-1.834c0.709-0.333,1.549-0.221,2.146,0.286l408.782,347.558c0.44,0.375,0.697,0.922,0.704,1.5
					l0.408,33.949c0.009,0.784-0.44,1.501-1.149,1.834C1124.207,587.629,1123.917,587.692,1123.628,587.692z M716.835,237.2
					l404.74,344.122l-0.345-28.644l-404.74-344.122L716.835,237.2z"/>
			</g>
		</g>
		<g>
			<g>
				<polygon style="fill:#509EFF;" points="1123.628,585.692 714.846,238.134 714.438,348.134 				"/>
				<path d="M1123.627,587.692c-0.343,0-0.688-0.087-1.003-0.271l-409.19-237.558c-0.619-0.359-0.998-1.021-0.996-1.737l0.408-110
					c0.003-0.778,0.457-1.484,1.164-1.81c0.708-0.326,1.539-0.211,2.131,0.293l408.782,347.558c0.788,0.671,0.935,1.833,0.337,2.678
					C1124.874,587.395,1124.257,587.692,1123.627,587.692z M716.442,346.985l388.875,225.764L716.83,242.446L716.442,346.985z"/>
			</g>
		</g>
		<g>
			<g>
				<polygon style="fill:#EF5072;" points="1377.699,294.819 1380.404,1248.779 1044.456,1442.739 1044.344,1403.063 
					1078.759,1343.453 1125.699,1316.352 1124.891,1042.338 1028.603,1105.25 1028.378,1044.899 1124.666,951.987 1199.739,541.749 
					1123.628,585.692 1123.22,441.743 				"/>
				<path d="M1044.456,1444.738c-0.345,0-0.688-0.089-0.998-0.267c-0.618-0.355-1-1.015-1.002-1.728l-0.112-39.675
					c-0.001-0.354,0.092-0.7,0.268-1.006l34.415-59.61c0.176-0.304,0.429-0.557,0.732-0.732l45.938-26.521l-0.794-269.173
					l-93.206,60.898c-0.614,0.399-1.397,0.434-2.042,0.086c-0.646-0.348-1.049-1.021-1.052-1.753l-0.225-60.351
					c-0.002-0.546,0.219-1.068,0.611-1.447l95.825-92.466l74.179-405.351l-72.365,41.78c-0.618,0.357-1.378,0.357-1.998,0.001
					c-0.618-0.356-1-1.014-1.002-1.728l-0.408-143.949c-0.002-0.717,0.38-1.379,1-1.738l254.479-146.924
					c0.618-0.357,1.378-0.357,1.998-0.001c0.618,0.356,1,1.014,1.002,1.728l2.705,953.96c0.002,0.717-0.38,1.38-1,1.738
					l-335.948,193.959C1045.146,1444.649,1044.802,1444.738,1044.456,1444.738z M1046.346,1403.597l0.101,35.684l331.955-191.653
					l-2.692-949.349l-250.486,144.618l0.396,139.337l73.121-42.217c0.675-0.39,1.516-0.353,2.152,0.097
					c0.638,0.449,0.955,1.228,0.815,1.995l-75.073,410.238c-0.076,0.411-0.278,0.788-0.579,1.079l-95.674,92.32l0.208,55.817
					l93.209-60.899c0.613-0.402,1.398-0.435,2.043-0.087c0.646,0.349,1.049,1.021,1.051,1.755l0.808,274.014
					c0.002,0.717-0.379,1.38-1,1.738l-46.477,26.833L1046.346,1403.597z"/>
			</g>
		</g>
		<g>
			<g>
				<g>
					<polygon style="fill:#509EFF;" points="1296.839,1126.673 1296.93,1159.02 1268.774,1175.276 1268.682,1142.929 					"/>
				</g>
			</g>
			<g>
				<g>
					<polygon style="fill:#509EFF;" points="1296.93,1159.02 1297.022,1191.366 1268.865,1207.622 1268.774,1175.276 					"/>
				</g>
			</g>
			<g>
				<g>
					<polygon style="fill:#509EFF;" points="1240.63,1191.525 1240.722,1223.871 1212.572,1240.123 1212.48,1207.777 					"/>
				</g>
			</g>
			<g>
				<g>
					<polygon style="fill:#509EFF;" points="1296.747,1094.327 1296.839,1126.673 1268.682,1142.929 1268.59,1110.583 					"/>
				</g>
			</g>
			<g>
				<g>
					<polygon style="fill:#509EFF;" points="1184.239,1191.683 1184.33,1224.029 1156.18,1240.282 1156.089,1207.935 					"/>
				</g>
			</g>
			<g style="enable-background:new    ;">
				<g>
					<g>
						<polygon style="fill:#509EFF;" points="1240.538,1159.178 1240.63,1191.525 1212.48,1207.777 1212.389,1175.431 						"/>
					</g>
				</g>
				<g>
					<g>
						<polygon style="fill:#509EFF;" points="1212.389,1175.431 1212.48,1207.777 1184.33,1224.029 1184.239,1191.683 						"/>
					</g>
				</g>
				<g>
					<g>
						<polygon style="fill:#509EFF;" points="1240.447,1126.832 1240.538,1159.178 1212.389,1175.431 1212.297,1143.084 						"/>
					</g>
				</g>
				<g>
					<g>
						<polygon style="fill:#509EFF;" points="1212.297,1143.084 1212.389,1175.431 1184.239,1191.683 1184.147,1159.336 						"/>
					</g>
				</g>
			</g>
			<g>
				<g>
					<polygon style="fill:#509EFF;" points="1268.682,1142.929 1268.774,1175.276 1240.63,1191.525 1240.538,1159.178 					"/>
				</g>
			</g>
			<g style="enable-background:new    ;">
				<g>
					<g>
						<polygon style="fill:#509EFF;" points="1240.355,1094.485 1240.447,1126.832 1212.297,1143.084 1212.205,1110.738 						"/>
					</g>
				</g>
				<g>
					<g>
						<polygon style="fill:#509EFF;" points="1240.263,1062.139 1240.355,1094.485 1212.205,1110.738 1212.113,1078.391 						"/>
					</g>
				</g>
			</g>
			<g>
				<g>
					<polygon style="fill:#BFD8F6;" points="1268.499,1078.236 1268.59,1110.583 1240.447,1126.832 1240.355,1094.485 					"/>
				</g>
			</g>
			<g>
				<g>
					<polygon style="fill:#509EFF;" points="1268.59,1110.583 1268.682,1142.929 1240.538,1159.178 1240.447,1126.832 					"/>
				</g>
			</g>
			<g>
				<g>
					<polygon style="fill:#509EFF;" points="1353.138,1094.169 1353.23,1126.515 1325.08,1142.767 1324.988,1110.421 					"/>
				</g>
			</g>
			<g>
				<g>
					<polygon style="fill:#509EFF;" points="1324.988,1110.421 1325.08,1142.767 1296.93,1159.02 1296.839,1126.673 					"/>
				</g>
			</g>
			<g>
				<g>
					<polygon style="fill:#509EFF;" points="1324.897,1078.074 1324.988,1110.421 1296.839,1126.673 1296.747,1094.327 					"/>
				</g>
			</g>
			<g>
				<g>
					<polygon style="fill:#509EFF;" points="1296.563,1029.634 1296.655,1061.98 1268.499,1078.236 1268.407,1045.89 					"/>
				</g>
			</g>
			<g>
				<g>
					<polygon style="fill:#509EFF;" points="1296.655,1061.98 1296.747,1094.327 1268.59,1110.583 1268.499,1078.236 					"/>
				</g>
			</g>
			<g>
				<g>
					<polygon style="fill:#509EFF;" points="1268.315,1013.544 1268.407,1045.89 1240.263,1062.139 1240.172,1029.792 					"/>
				</g>
			</g>
			<g>
				<g>
					<polygon style="fill:#BFD8F6;" points="1268.407,1045.89 1268.499,1078.236 1240.355,1094.485 1240.263,1062.139 					"/>
				</g>
			</g>
		</g>
		<g>
			<g>
				<g>
					<polygon style="fill:#FDC41F;" points="1277.346,877.862 1277.438,910.208 1249.288,926.461 1249.196,894.114 					"/>
				</g>
			</g>
			<g>
				<g>
					<polygon style="fill:#FDC41F;" points="1249.196,894.114 1249.288,926.461 1221.138,942.713 1221.046,910.367 					"/>
				</g>
			</g>
			<g>
				<g>
					<polygon style="fill:#FDC41F;" points="1333.469,780.668 1333.56,813.007 1305.411,829.259 1305.319,796.92 					"/>
				</g>
			</g>
			<g>
				<g>
					<polygon style="fill:#BFD8F6;" points="1249.104,861.768 1249.196,894.114 1221.046,910.367 1220.954,878.02 					"/>
				</g>
			</g>
			<g>
				<g>
					<polygon style="fill:#02CE53;" points="1248.921,797.082 1249.012,829.429 1220.863,845.681 1220.771,813.335 					"/>
				</g>
			</g>
			<g>
				<g>
					<polygon style="fill:#FDC41F;" points="1249.012,829.429 1249.104,861.768 1220.954,878.02 1220.863,845.681 					"/>
				</g>
			</g>
			<g>
				<g>
					<polygon style="fill:#FDC41F;" points="1277.071,780.83 1277.162,813.176 1249.012,829.429 1248.921,797.082 					"/>
				</g>
			</g>
			<g>
				<g>
					<polygon style="fill:#BFD8F6;" points="1277.162,813.176 1277.254,845.515 1249.104,861.768 1249.012,829.429 					"/>
				</g>
			</g>
			<g style="enable-background:new    ;">
				<g>
					<g>
						<polygon style="fill:#FDC41F;" points="1305.319,796.92 1305.411,829.259 1277.254,845.515 1277.162,813.176 						"/>
					</g>
				</g>
				<g>
					<g>
						<polygon style="fill:#02CE53;" points="1305.227,764.574 1305.319,796.92 1277.162,813.176 1277.071,780.83 						"/>
					</g>
				</g>
			</g>
			<g>
				<g>
					<polygon style="fill:#BFD8F6;" points="1305.411,829.259 1305.502,861.606 1277.346,877.862 1277.254,845.515 					"/>
				</g>
			</g>
			<g>
				<g>
					<polygon style="fill:#FDC41F;" points="1305.502,861.606 1305.594,893.952 1277.438,910.208 1277.346,877.862 					"/>
				</g>
			</g>
			<g>
				<g>
					<polygon style="fill:#FDC41F;" points="1220.863,845.681 1220.954,878.02 1192.804,894.273 1192.713,861.933 					"/>
				</g>
			</g>
			<g>
				<g>
					<polygon style="fill:#FDC41F;" points="1220.954,878.02 1221.046,910.367 1192.896,926.619 1192.804,894.273 					"/>
				</g>
			</g>
			<g>
				<g>
					<polygon style="fill:#FDC41F;" points="1333.56,813.007 1333.652,845.353 1305.502,861.606 1305.411,829.259 					"/>
				</g>
			</g>
			<g>
				<g>
					<polygon style="fill:#BFD8F6;" points="1277.254,845.515 1277.346,877.862 1249.196,894.114 1249.104,861.768 					"/>
				</g>
			</g>
			<g>
				<g>
					<polygon style="fill:#02CE53;" points="1220.679,780.988 1220.771,813.335 1192.621,829.587 1192.529,797.241 					"/>
				</g>
			</g>
			<g>
				<g>
					<polygon style="fill:#02CE53;" points="1220.771,813.335 1220.863,845.681 1192.713,861.933 1192.621,829.587 					"/>
				</g>
			</g>
			<g style="enable-background:new    ;">
				<g>
					<g>
						<polygon style="fill:#233344;" points="1276.979,748.483 1277.071,780.83 1248.921,797.082 1248.829,764.736 						"/>
					</g>
				</g>
				<g>
					<g>
						<polygon style="fill:#02CE53;" points="1248.829,764.736 1248.921,797.082 1220.771,813.335 1220.679,780.988 						"/>
					</g>
				</g>
			</g>
			<g>
				<g>
					<polygon style="fill:#02CE53;" points="1305.135,732.227 1305.227,764.574 1277.071,780.83 1276.979,748.483 					"/>
				</g>
			</g>
			<g>
				<g>
					<polygon style="fill:#02CE53;" points="1333.285,715.975 1333.377,748.321 1305.227,764.574 1305.135,732.227 					"/>
				</g>
			</g>
			<g>
				<g>
					<polygon style="fill:#02CE53;" points="1333.377,748.321 1333.469,780.668 1305.319,796.92 1305.227,764.574 					"/>
				</g>
			</g>
			<g>
				<g>
					<polygon style="fill:#233344;" points="1333.102,651.282 1333.194,683.628 1305.044,699.881 1304.952,667.534 					"/>
				</g>
			</g>
			<g>
				<g>
					<polygon style="fill:#233344;" points="1305.044,699.881 1305.135,732.227 1276.979,748.483 1276.887,716.137 					"/>
				</g>
			</g>
			<g>
				<g>
					<polygon style="fill:#233344;" points="1248.737,732.389 1248.829,764.736 1220.679,780.988 1220.587,748.642 					"/>
				</g>
			</g>
			<g>
				<g>
					<polygon style="fill:#233344;" points="1220.496,716.295 1220.587,748.642 1192.438,764.894 1192.346,732.548 					"/>
				</g>
			</g>
		</g>
		<g>
			<g>
				<g style="enable-background:new    ;">
					<g>
						<g>
							<path style="fill:#233344;" d="M1050.67,931.17c7.572,4.372,7.618,11.46,0.095,15.832l-43.241,25.129
								c-7.523,4.372-19.761,4.368-27.333-0.004l-127.789-73.779c-7.572-4.372-7.612-11.457-0.089-15.829l43.241-25.129
								c7.523-4.372,19.754-4.372,27.327,0L1050.67,931.17z"/>
							<path d="M993.881,977.434c-5.279,0-10.562-1.191-14.69-3.573l-127.789-73.779c-4.319-2.494-6.7-5.929-6.705-9.672
								c-0.005-3.722,2.343-7.138,6.611-9.618l43.241-25.13c8.2-4.763,21.084-4.765,29.332-0.003l127.789,73.779l0,0
								c4.32,2.495,6.703,5.932,6.708,9.677c0.006,3.722-2.341,7.137-6.607,9.617l-43.241,25.129
								C1004.431,976.242,999.158,977.434,993.881,977.434z M909.199,856.089c-4.584,0-9.162,1.01-12.64,3.031l-43.241,25.13
								c-2.983,1.733-4.625,3.919-4.621,6.154c0.003,2.256,1.674,4.462,4.705,6.212l127.789,73.779
								c7.01,4.047,18.372,4.049,25.329,0.006l43.241-25.129c2.98-1.732,4.621-3.917,4.617-6.152
								c-0.003-2.259-1.675-4.467-4.708-6.218l-127.789-73.779C918.377,857.1,913.785,856.089,909.199,856.089z"/>
						</g>
					</g>
					<g>
						<path d="M1050.765,947.002l-43.241,25.129c-7.523,4.372-19.761,4.368-27.333-0.004l-127.789-73.779
							c-3.81-2.2-5.713-5.087-5.705-7.969l-0.023,8.152c-0.008,2.883,1.895,5.77,5.705,7.969l127.789,73.779
							c7.572,4.372,19.81,4.375,27.333,0.004l43.241-25.129c3.736-2.171,5.605-5.012,5.613-7.857l0.023-8.152
							C1056.37,941.99,1054.501,944.831,1050.765,947.002z"/>
						<path d="M993.858,985.585c-5.279,0-10.563-1.191-14.69-3.573l-127.789-73.779c-4.334-2.502-6.716-5.949-6.706-9.707
							l0.023-8.152l0,0c0.003-1.103,0.898-1.994,2-1.994c0.002,0,0.004,0,0.006,0c1.104,0.003,1.998,0.901,1.994,2.006
							c-0.006,2.263,1.665,4.476,4.705,6.231l127.789,73.779c7.01,4.047,18.372,4.049,25.329,0.006l43.241-25.129
							c2.971-1.727,4.611-3.905,4.617-6.134l0,0c0.003-1.103,0.897-1.994,2-1.994c0.002,0,0.004,0,0.006,0
							c1.104,0.003,1.997,0.901,1.994,2.006l-0.022,8.152c-0.012,3.708-2.358,7.109-6.608,9.58l-43.241,25.13
							C1004.407,984.395,999.135,985.585,993.858,985.585z M848.674,898.167l-0.001,0.37c-0.006,2.263,1.665,4.476,4.705,6.23
							l127.79,73.779c7.008,4.048,18.37,4.051,25.328,0.007l43.241-25.13c2.971-1.727,4.611-3.904,4.618-6.133l0.001-0.371
							c-0.762,0.646-1.625,1.253-2.586,1.812l0,0l-43.241,25.129c-8.197,4.764-21.084,4.764-29.338,0l-127.789-73.779
							C850.383,899.492,849.472,898.852,848.674,898.167z M1050.766,947.002h0.01H1050.766z"/>
					</g>
				</g>
			</g>
			<g>
				<g>
					<path style="fill:#02CE53;" d="M919.419,876.776c8.949,5.167,8.996,13.541,0.108,18.706c-8.888,5.165-23.348,5.167-32.297,0
						c-8.946-5.165-8.99-13.541-0.102-18.706C896.015,871.611,910.472,871.611,919.419,876.776z"/>
					<path d="M903.399,901.392c-6.17,0-12.347-1.393-17.17-4.177c-4.984-2.878-7.733-6.825-7.739-11.113
						c-0.006-4.265,2.705-8.19,7.632-11.055c9.586-5.568,24.651-5.571,34.296-0.003l0,0c4.987,2.88,7.737,6.828,7.743,11.117
						c0.006,4.264-2.704,8.188-7.63,11.051C915.737,899.998,909.571,901.392,903.399,901.392z M903.25,874.88
						c-5.483,0-10.958,1.208-15.118,3.626c-3.642,2.116-5.646,4.812-5.642,7.59c0.004,2.802,2.042,5.521,5.739,7.654
						c8.38,4.84,21.969,4.839,30.292,0.003c3.641-2.115,5.644-4.81,5.64-7.587c-0.004-2.802-2.044-5.521-5.743-7.657l0,0
						C914.229,876.09,908.735,874.88,903.25,874.88z"/>
				</g>
			</g>
			<g>
				<g>
					<path style="fill:#FE728C;" d="M967.618,903.575c8.949,5.167,8.996,13.541,0.108,18.706c-8.888,5.165-23.348,5.167-32.297,0
						c-8.946-5.165-8.99-13.541-0.102-18.706C944.215,898.41,958.672,898.41,967.618,903.575z"/>
					<path d="M951.599,928.19c-6.17,0-12.347-1.393-17.17-4.177c-4.984-2.878-7.733-6.825-7.739-11.113
						c-0.006-4.266,2.704-8.191,7.632-11.055c9.586-5.569,24.651-5.571,34.296-0.003l0,0c4.987,2.88,7.737,6.828,7.743,11.117
						c0.006,4.264-2.704,8.188-7.63,11.051C963.937,926.797,957.771,928.19,951.599,928.19z M951.451,901.679
						c-5.484,0-10.958,1.208-15.119,3.626c-3.642,2.116-5.646,4.812-5.642,7.59c0.004,2.802,2.042,5.521,5.739,7.654
						c8.379,4.839,21.969,4.84,30.292,0.003c3.641-2.115,5.644-4.81,5.64-7.587c-0.003-2.802-2.043-5.521-5.743-7.657
						C962.429,902.889,956.935,901.679,951.451,901.679z"/>
				</g>
			</g>
			<g>
				<g>
					<path style="fill:#509EFF;" d="M1015.818,930.374c8.949,5.167,8.996,13.541,0.108,18.706c-8.888,5.165-23.348,5.167-32.297,0
						c-8.946-5.165-8.99-13.541-0.102-18.706C992.415,925.209,1006.872,925.209,1015.818,930.374z"/>
					<path d="M999.799,954.989c-6.17,0-12.347-1.393-17.169-4.177c-4.985-2.878-7.733-6.825-7.739-11.113
						c-0.006-4.266,2.704-8.191,7.632-11.055c9.586-5.569,24.651-5.572,34.296-0.003l0,0c4.987,2.88,7.737,6.828,7.743,11.116
						c0.006,4.264-2.704,8.188-7.63,11.052C1012.137,953.596,1005.971,954.989,999.799,954.989z M999.65,928.478
						c-5.484,0-10.958,1.208-15.119,3.626c-3.642,2.116-5.646,4.812-5.642,7.59c0.004,2.802,2.042,5.521,5.739,7.654
						c8.38,4.839,21.969,4.84,30.292,0.003c3.641-2.115,5.644-4.81,5.64-7.587c-0.004-2.802-2.044-5.521-5.743-7.657l0,0
						C1010.629,929.688,1005.135,928.478,999.65,928.478z"/>
				</g>
			</g>
		</g>
		<g>
			<g>
				<g style="enable-background:new    ;">
					<g>
						<g>
							<path style="fill:#233344;" d="M814.94,795.706c7.227,4.173,7.272,10.944,0.085,15.121l-44.459,25.837
								c-7.187,4.177-18.877,4.173-26.105,0l-44.75-25.836c-7.234-4.176-7.272-10.944-0.085-15.121l44.459-25.837
								c7.187-4.177,18.871-4.177,26.105,0L814.94,795.706z"/>
							<path d="M757.531,841.817c-5.057,0-10.118-1.141-14.07-3.422l-44.75-25.836c-4.155-2.399-6.445-5.708-6.45-9.316
								c-0.005-3.589,2.253-6.88,6.36-9.267l44.459-25.837c7.857-4.565,20.205-4.566,28.11-0.003l44.75,25.837
								c4.153,2.397,6.443,5.705,6.448,9.315c0.005,3.59-2.253,6.881-6.358,9.267l-44.459,25.837
								C767.643,840.676,762.589,841.817,757.531,841.817z M757.12,768.713c-4.363,0-8.719,0.962-12.029,2.886l-44.459,25.837
								c-2.821,1.64-4.374,3.7-4.37,5.802c0.003,2.122,1.583,4.202,4.45,5.857l44.75,25.836c6.556,3.785,17.591,3.787,24.1,0.003
								l44.459-25.837c2.82-1.639,4.371-3.699,4.368-5.802c-0.003-2.123-1.583-4.203-4.448-5.856l0,0l-44.75-25.837
								C765.856,769.676,761.485,768.713,757.12,768.713z"/>
						</g>
					</g>
					<g>
						<path d="M815.026,810.826l-44.459,25.837c-7.187,4.177-18.877,4.173-26.105,0l-44.75-25.836
							c-3.64-2.102-5.458-4.859-5.45-7.613l-0.023,8.152c-0.008,2.754,1.81,5.512,5.45,7.613l44.75,25.836
							c7.227,4.173,18.918,4.176,26.105,0l44.459-25.837c3.57-2.074,5.355-4.789,5.363-7.507l0.023-8.152
							C820.381,806.037,818.595,808.752,815.026,810.826z"/>
						<path d="M757.507,849.969c-5.056,0.001-10.117-1.14-14.069-3.421l-44.75-25.837c-4.17-2.407-6.46-5.729-6.45-9.352
							l0.023-8.151l0,0c0.003-1.103,0.898-1.994,2-1.994c0.002,0,0.004,0,0.006,0c1.104,0.003,1.997,0.901,1.994,2.006l0,0
							c-0.006,2.129,1.574,4.215,4.45,5.875l44.75,25.836c6.555,3.785,17.591,3.787,24.1,0.003l44.459-25.837l0,0
							c2.811-1.633,4.362-3.687,4.368-5.783c0.003-1.103,0.898-1.994,2-1.994c0.002,0,0.004,0,0.006,0
							c1.104,0.003,1.997,0.901,1.994,2.006l-0.023,8.151c-0.01,3.575-2.268,6.854-6.358,9.23l-44.459,25.837
							C767.619,848.827,762.566,849.969,757.507,849.969z M696.24,810.847l-0.001,0.524c-0.006,2.129,1.574,4.215,4.45,5.875
							l44.75,25.837c6.556,3.785,17.592,3.786,24.1,0.002l44.459-25.837c2.811-1.633,4.362-3.687,4.368-5.783l0.001-0.525
							c-0.695,0.575-1.475,1.115-2.336,1.616l-44.459,25.837c-7.856,4.566-20.205,4.565-28.11,0.003l-44.75-25.836
							C697.795,812.03,696.97,811.457,696.24,810.847z"/>
					</g>
				</g>
			</g>
			<g>
				<g>
					<g>
						<path style="fill:#BFD8F6;" d="M763.971,741.241l-0.121,58.187c-0.003,0.981-0.648,1.96-1.936,2.709
							c-2.59,1.505-6.809,1.507-9.418,0c-1.313-0.758-1.968-1.753-1.965-2.747l0.121-58.187c-0.003,0.993,0.652,1.989,1.965,2.747
							c2.61,1.507,6.828,1.505,9.418,0C763.324,743.201,763.969,742.222,763.971,741.241z"/>
						<path d="M757.212,805.258c-2.054,0-4.11-0.463-5.716-1.39c-1.889-1.091-2.97-2.725-2.965-4.483l0.121-58.177
							c0-0.003,0-0.007,0-0.01c0.003-1.103,0.898-1.994,2-1.994c0.001,0,0.003,0,0.005,0c1.104,0.003,1.998,0.9,1.995,2.004v0.001
							c0,0.217,0.301,0.625,0.965,1.009c1.981,1.144,5.446,1.146,7.413,0.002c0.645-0.375,0.94-0.773,0.94-0.985
							c0.003-1.103,0.898-1.994,2-1.994c0.001,0,0.003,0,0.005,0c1.104,0.003,1.998,0.9,1.995,2.004v0.002c0,0.001,0,0.002,0,0.002
							l-0.121,58.183c-0.005,1.739-1.074,3.354-2.931,4.434C761.323,804.794,759.269,805.258,757.212,805.258z M752.642,746.187
							l-0.111,53.207c0,0.219,0.301,0.627,0.965,1.01c1.983,1.146,5.447,1.146,7.414,0.004c0.646-0.376,0.94-0.773,0.941-0.985
							l0.11-53.212C759.154,747.367,755.446,747.358,752.642,746.187z"/>
					</g>
				</g>
				<g>
					<circle style="fill:#FF613C;" cx="757.325" cy="733.627" r="19.842"/>
					<path d="M757.325,755.469c-12.043,0-21.842-9.798-21.842-21.842c0-12.044,9.798-21.842,21.842-21.842
						c12.044,0,21.842,9.798,21.842,21.842C779.167,745.67,769.369,755.469,757.325,755.469z M757.325,715.785
						c-9.838,0-17.842,8.004-17.842,17.842c0,9.838,8.004,17.842,17.842,17.842c9.838,0,17.842-8.004,17.842-17.842
						C775.167,723.789,767.163,715.785,757.325,715.785z"/>
				</g>
			</g>
		</g>
	</g>
</g>
</svg>
