<?xml version="1.0" encoding="UTF-8" standalone="no"?><!DOCTYPE svg PUBLIC "-//W3C//DTD SVG 1.1//EN" "http://www.w3.org/Graphics/SVG/1.1/DTD/svg11.dtd"><svg width="3840px" height="3840px" version="1.1" xmlns="http://www.w3.org/2000/svg" xmlns:xlink="http://www.w3.org/1999/xlink" xml:space="preserve" xmlns:serif="http://www.serif.com/" style="fill-rule:evenodd;clip-rule:evenodd;stroke-linejoin:round;stroke-miterlimit:2;"><g id="Artboard1" transform="matrix(1,0,0,1.77778,0,0)"><rect x="0" y="0" width="3840" height="2160" style="fill:none;"/><clipPath id="_clip1"><rect x="0" y="0" width="3840" height="2160"/></clipPath><g clip-path="url(#_clip1)"><g transform="matrix(6.38723,0,0,3.59282,3839.54,5051.9)"><g transform="matrix(0.771475,0,0,0.771475,534.976,-772.802)"><rect x="-1472.54" y="-820.815" width="779.099" height="779.099" style="fill:url(#_Linear2);"/></g><g transform="matrix(1.31501,0.652523,0.652523,2.35166,1609.08,828.278)"><path d="M-1192.13,-556.117C-1192.31,-556.491 -1192.7,-556.53 -1191.7,-557.01C-1190.71,-557.491 -1190.47,-557.021 -1190.47,-557.021L-1164.53,-505.328C-1164.35,-504.954 -1165.01,-504.261 -1166.01,-503.78C-1167,-503.3 -1167.96,-503.213 -1168.14,-503.586L-1192.13,-556.117Z" style="fill:url(#_Linear3);"/></g><g transform="matrix(1.21479,-0.323347,-0.323347,1.48676,927.736,-786.857)"><path d="M-1143.2,-494.704C-1143.56,-494.163 -1144.6,-494.22 -1145.52,-494.832C-1146.44,-495.444 -1146.89,-496.38 -1146.54,-496.921L-1104.85,-557.541C-1104.49,-558.082 -1104.34,-558.821 -1103.42,-558.209C-1102.5,-557.597 -1102.94,-557.023 -1103.31,-556.482L-1143.2,-494.704Z" style="fill:url(#_Linear4);"/></g><g transform="matrix(1.33982,-0.66991,1.41085,0.705426,1347.93,-641.715)"><path d="M-272.939,-848C-272.348,-848 -272,-847.67 -272,-847.108C-272,-837.064 -272,-745.104 -272,-719.94C-272,-718.739 -272.893,-717.133 -274.306,-715.79C-275.72,-714.448 -277.411,-713.6 -278.676,-713.6C-304.241,-713.6 -395.759,-713.6 -421.324,-713.6C-425.527,-713.6 -428,-715.949 -428,-719.94L-428,-844.432C-428,-845.108 -427.498,-846.012 -426.702,-846.767C-425.907,-847.523 -424.955,-848 -424.243,-848C-401.669,-848 -284.618,-848 -272.939,-848Z" style="fill:url(#_Linear5);"/></g><g transform="matrix(1.33982,-0.66991,1.41085,0.705426,1317.47,-656.943)"><path d="M-272.939,-848C-272.348,-848 -272,-847.67 -272,-847.108C-272,-837.064 -272,-745.104 -272,-719.94C-272,-718.739 -272.893,-717.133 -274.306,-715.79C-275.72,-714.448 -277.411,-713.6 -278.676,-713.6C-304.241,-713.6 -395.759,-713.6 -421.324,-713.6C-425.527,-713.6 -428,-715.949 -428,-719.94L-428,-844.432C-428,-845.108 -427.498,-846.012 -426.702,-846.767C-425.907,-847.523 -424.955,-848 -424.243,-848C-401.669,-848 -284.618,-848 -272.939,-848Z" style="fill:url(#_Linear6);"/></g><g transform="matrix(1.091,-0.545502,1.41085,0.705426,1187.46,-615.454)"><path d="M-273.153,-848C-272.427,-848 -272,-847.67 -272,-847.108C-272,-837.064 -272,-745.104 -272,-719.94C-272,-718.739 -273.097,-717.133 -274.832,-715.79C-276.568,-714.448 -278.646,-713.6 -280.198,-713.6C-307.153,-713.6 -392.847,-713.6 -419.802,-713.6C-424.963,-713.6 -428,-715.949 -428,-719.94C-428,-743.587 -428,-826.223 -428,-844.432C-428,-845.108 -427.383,-846.012 -426.406,-846.767C-425.429,-847.523 -424.26,-848 -423.387,-848C-399.008,-848 -285.819,-848 -273.153,-848Z" style="fill:rgb(171,66,15);"/></g><g transform="matrix(0.917361,-0.458681,1.11803,0.559017,891.923,-701.683)"><path d="M-272.663,-848.152C-272.23,-848.053 -271.939,-847.81 -271.825,-847.45C-269.233,-839.329 -238.796,-743.955 -238.796,-743.955C-238.796,-743.955 -266.342,-721.353 -273.896,-715.155C-275.057,-714.202 -276.448,-713.6 -277.487,-713.6C-292.817,-713.6 -407.35,-713.6 -425.563,-713.6C-427.097,-713.6 -428,-714.341 -428,-715.6C-428,-731.004 -428,-830.535 -428,-843.498C-428,-844.351 -427.266,-845.491 -426.104,-846.445C-418.551,-852.642 -391.004,-875.245 -391.004,-875.245C-391.004,-875.245 -282.181,-850.331 -272.663,-848.152Z" style="fill:url(#_Linear7);"/></g><g transform="matrix(0.917361,-0.458681,1.11803,0.559017,891.923,-733.882)"><path d="M-273.372,-848C-272.508,-848 -272,-847.583 -272,-846.875C-272,-835.428 -272,-740.071 -272,-718.102C-272,-717.249 -272.734,-716.109 -273.896,-715.155C-275.057,-714.202 -276.448,-713.6 -277.487,-713.6C-302.842,-713.6 -408.169,-713.6 -425.562,-713.6C-427.097,-713.6 -428,-714.341 -428,-715.6C-428,-730.328 -428,-822.012 -428,-843.498C-428,-844.351 -427.266,-845.491 -426.104,-846.445C-424.943,-847.398 -423.552,-848 -422.513,-848C-396.571,-848 -286.905,-848 -273.372,-848Z" style="fill:rgb(254,250,161);"/></g><g transform="matrix(0.688021,-0.34401,1.01155,0.505777,739.99,-742.822)"><path d="M-273.829,-848C-272.678,-848 -272,-847.539 -272,-846.756C-272,-834.871 -272,-741.329 -272,-718.576C-272,-717.633 -272.978,-716.373 -274.528,-715.319C-276.077,-714.266 -277.93,-713.6 -279.316,-713.6L-424.75,-713.6C-426.796,-713.6 -428,-714.419 -428,-715.811C-428,-731.068 -428,-820.803 -428,-843.024C-428,-843.967 -427.022,-845.227 -425.472,-846.281C-423.923,-847.334 -422.07,-848 -420.684,-848L-273.829,-848Z" style="fill:rgb(241,195,84);"/></g><g transform="matrix(0.816185,0.44279,4.83159e-17,0.912781,1106.17,-640.03)"><path d="M-1702.7,450.692L-1698.32,458.364C-1698.32,458.364 -1703.46,463.172 -1704.7,464.456C-1705.93,465.74 -1707.48,466.552 -1708.78,466.601C-1733.84,467.554 -1828.64,471.157 -1844.96,471.778C-1846.42,471.833 -1847.33,470.918 -1847.28,469.432C-1847.08,463.509 -1846.59,448.838 -1846.59,448.838L-1702.7,450.692Z" style="fill:rgb(87,19,12);"/></g><g transform="matrix(0.816185,0.44279,4.83159e-17,0.912781,1106.24,-640.063)"><path d="M-1702.7,450.692L-1702.7,460.298C-1702.7,461.599 -1703.46,463.172 -1704.7,464.456C-1705.93,465.74 -1707.48,466.552 -1708.78,466.601C-1733.84,467.554 -1828.64,471.157 -1844.96,471.778C-1846.42,471.833 -1847.33,470.918 -1847.28,469.432C-1847.08,463.509 -1846.59,448.838 -1846.59,448.838L-1702.7,450.692Z" style="fill:rgb(117,25,16);"/></g><g transform="matrix(1.06279,0.6136,-6.46358e-17,1.27161,1125.1,-628.725)"><path d="M-1324.32,257.115C-1317.89,256.671 -1313.83,260.189 -1313.84,266.187C-1313.89,287.873 -1314,339.534 -1314.05,358.759C-1314.05,360.341 -1315.03,362.28 -1316.64,363.885C-1318.25,365.491 -1320.26,366.534 -1321.94,366.644C-1350.28,368.475 -1446.43,374.691 -1467.79,376.072C-1470.38,376.239 -1472,374.797 -1471.95,372.361C-1471.67,356.189 -1470.61,295.331 -1470.25,274.344C-1470.22,272.791 -1469.25,270.903 -1467.68,269.341C-1466.11,267.78 -1464.15,266.764 -1462.5,266.65C-1436.88,264.882 -1353.8,259.149 -1324.32,257.115Z" style="fill:url(#_Linear8);"/></g><g transform="matrix(0.99635,0.575243,-5.29947e-17,1.13942,1032.88,-639.769)"><path d="M-1320.68,256.176C-1317,255.928 -1314.69,258.06 -1314.72,261.672C-1314.91,281.502 -1315.51,345.413 -1315.66,361.853C-1315.67,362.689 -1316.17,363.711 -1316.98,364.555C-1317.79,365.4 -1318.8,365.948 -1319.65,366.005C-1340.92,367.444 -1441.56,374.251 -1463.99,375.768C-1466.71,375.952 -1468.43,374.388 -1468.43,371.728C-1468.43,354.377 -1468.41,290.039 -1468.41,271.313C-1468.41,270.211 -1467.76,268.858 -1466.68,267.738C-1465.61,266.617 -1464.28,265.889 -1463.15,265.813C-1439.79,264.233 -1345.49,257.855 -1320.68,256.176Z" style="fill:url(#_Linear9);"/></g><g transform="matrix(0.793851,0.45833,-6.44896e-17,1.13942,735.529,-811.444)"><path d="M-1315.18,257.911L-1315.18,367.809C-1315.18,367.809 -1435.34,374.285 -1462.87,375.768C-1466.28,375.952 -1468.44,374.388 -1468.44,371.728C-1468.43,354.377 -1468.41,290.038 -1468.41,271.313C-1468.41,270.211 -1467.59,268.858 -1466.25,267.738C-1464.9,266.617 -1463.22,265.889 -1461.81,265.813C-1432.44,264.231 -1315.18,257.911 -1315.18,257.911Z" style="fill:url(#_Linear10);"/></g><g transform="matrix(0.74467,0.429935,-5.71302e-17,1.0455,666.888,-820.46)"><path d="M-1314.67,256.695L-1317.17,318.747L-1324.11,355.137C-1324.11,355.137 -1432.57,370.868 -1461.43,375.054C-1465.63,375.663 -1468.41,373.951 -1468.41,370.758C-1468.41,352.243 -1468.41,290.629 -1468.41,271.73C-1468.41,270.533 -1467.54,269.065 -1466.12,267.846C-1464.69,266.627 -1462.91,265.83 -1461.4,265.737C-1431.32,263.883 -1314.67,256.695 -1314.67,256.695Z" style="fill:rgb(71,16,15);"/></g><g transform="matrix(1,0,0,1,1131.9,-705.869)"><path d="M-1546.59,-451.526L-1556.72,-464.734C-1557.93,-463.962 -1558.48,-462.898 -1558.49,-461.606L-1558.49,-357.552C-1558.43,-355.926 -1558.04,-354.523 -1557.31,-353.364L-1544.39,-360.661C-1555,-387.248 -1553.54,-417.065 -1546.59,-451.526Z" style="fill:rgb(102,37,28);"/></g><g transform="matrix(1,0,0,1,1133.99,-706.516)"><path d="M-1546.48,-360.014L-1559.4,-352.716C-1558.59,-351.432 -1557.48,-350.374 -1555.95,-349.635C-1555.95,-349.635 -1469.31,-305.737 -1452.03,-296.979C-1451.48,-296.705 -1450.83,-296.769 -1450.35,-297.143C-1449.88,-297.517 -1449.66,-298.133 -1449.79,-298.725C-1450.88,-303.492 -1452.79,-311.81 -1452.79,-311.81L-1546.48,-360.014Z" style="fill:rgb(203,148,106);"/></g><g transform="matrix(0.673822,0.389031,-5.48716e-17,0.989396,570.01,-859.61)"><path d="M-1319.74,268.032C-1307.44,277.83 -1311.27,353.258 -1319.74,358.434C-1335.95,368.337 -1386.33,372.347 -1408.28,371.837C-1422.27,371.511 -1445.57,372.241 -1457.79,364.399C-1472.57,354.91 -1470.18,284.092 -1457.79,273.631C-1445.4,263.171 -1332.31,258.022 -1319.74,268.032Z" style="fill:url(#_Linear11);"/></g><g transform="matrix(0.894427,0.447214,5.55112e-17,1.11803,879.272,-735.255)"><path d="M-1300.11,189.949C-1297.59,189.949 -1296,191.373 -1296,193.627C-1296,206.002 -1296,245.666 -1296,251.157C-1296,251.545 -1296.28,252.008 -1296.71,252.351C-1297.28,252.799 -1297.99,253.354 -1297.99,253.354C-1297.99,253.354 -1317.91,252.93 -1322.89,252.824C-1323.57,252.809 -1324.01,252.416 -1324.02,251.799C-1324.13,243.899 -1324.89,191.897 -1324.89,191.897C-1324.89,191.897 -1323.87,191.078 -1323.15,190.502C-1322.72,190.154 -1322.21,189.949 -1321.78,189.949C-1318.76,189.949 -1306.59,189.949 -1300.11,189.949Z" style="fill:rgb(220,153,87);"/></g><g transform="matrix(1,-0.0454797,0,1,-0.959827,-14.325)"><g transform="matrix(1,0,0,1,1569.69,-788.34)"><path d="M-1850.55,-242.853C-1850.15,-242.631 -1850,-242.123 -1850.22,-241.721C-1850.45,-241.318 -1850.95,-241.171 -1851.36,-241.393L-1873.68,-253.691C-1874.08,-253.913 -1874.23,-254.42 -1874.01,-254.823C-1873.79,-255.226 -1873.28,-255.373 -1872.88,-255.151L-1850.55,-242.853Z" style="fill:rgb(71,16,15);"/></g><g transform="matrix(1,0,0,1,1569.69,-784.968)"><path d="M-1850.55,-242.853C-1850.15,-242.631 -1850,-242.123 -1850.22,-241.721C-1850.45,-241.318 -1850.95,-241.171 -1851.36,-241.393L-1873.68,-253.691C-1874.08,-253.913 -1874.23,-254.42 -1874.01,-254.823C-1873.79,-255.226 -1873.28,-255.373 -1872.88,-255.151L-1850.55,-242.853Z" style="fill:rgb(71,16,15);"/></g><g transform="matrix(1,0,0,1,1569.69,-781.596)"><path d="M-1850.55,-242.853C-1850.15,-242.631 -1850,-242.123 -1850.22,-241.721C-1850.45,-241.318 -1850.95,-241.171 -1851.36,-241.393L-1873.68,-253.691C-1874.08,-253.913 -1874.23,-254.42 -1874.01,-254.823C-1873.79,-255.226 -1873.28,-255.373 -1872.88,-255.151L-1850.55,-242.853Z" style="fill:rgb(71,16,15);"/></g><g transform="matrix(1,0,0,1,1569.69,-778.224)"><path d="M-1850.55,-242.853C-1850.15,-242.631 -1850,-242.123 -1850.22,-241.721C-1850.45,-241.318 -1850.95,-241.171 -1851.36,-241.393L-1873.68,-253.691C-1874.08,-253.913 -1874.23,-254.42 -1874.01,-254.823C-1873.79,-255.226 -1873.28,-255.373 -1872.88,-255.151L-1850.55,-242.853Z" style="fill:rgb(71,16,15);"/></g><g transform="matrix(1,0,0,1,1569.69,-774.852)"><path d="M-1850.55,-242.853C-1850.15,-242.631 -1850,-242.123 -1850.22,-241.721C-1850.45,-241.318 -1850.95,-241.171 -1851.36,-241.393L-1873.68,-253.691C-1874.08,-253.913 -1874.23,-254.42 -1874.01,-254.823C-1873.79,-255.226 -1873.28,-255.373 -1872.88,-255.151L-1850.55,-242.853Z" style="fill:rgb(71,16,15);"/></g><g transform="matrix(1,0,0,1,1569.69,-771.48)"><path d="M-1850.55,-242.853C-1850.15,-242.631 -1850,-242.123 -1850.22,-241.721C-1850.45,-241.318 -1850.95,-241.171 -1851.36,-241.393L-1873.68,-253.691C-1874.08,-253.913 -1874.23,-254.42 -1874.01,-254.823C-1873.79,-255.226 -1873.28,-255.373 -1872.88,-255.151L-1850.55,-242.853Z" style="fill:rgb(71,16,15);"/></g><g transform="matrix(1,0,0,1,1569.69,-768.108)"><path d="M-1850.55,-242.853C-1850.15,-242.631 -1850,-242.123 -1850.22,-241.721C-1850.45,-241.318 -1850.95,-241.171 -1851.36,-241.393L-1873.68,-253.691C-1874.08,-253.913 -1874.23,-254.42 -1874.01,-254.823C-1873.79,-255.226 -1873.28,-255.373 -1872.88,-255.151L-1850.55,-242.853Z" style="fill:rgb(71,16,15);"/></g><g transform="matrix(1,0,0,1,1569.69,-764.736)"><path d="M-1850.55,-242.853C-1850.15,-242.631 -1850,-242.123 -1850.22,-241.721C-1850.45,-241.318 -1850.95,-241.171 -1851.36,-241.393L-1873.68,-253.691C-1874.08,-253.913 -1874.23,-254.42 -1874.01,-254.823C-1873.79,-255.226 -1873.28,-255.373 -1872.88,-255.151L-1850.55,-242.853Z" style="fill:rgb(71,16,15);"/></g><g transform="matrix(1,0,0,1,1569.69,-761.364)"><path d="M-1850.55,-242.853C-1850.15,-242.631 -1850,-242.123 -1850.22,-241.721C-1850.45,-241.318 -1850.95,-241.171 -1851.36,-241.393L-1873.68,-253.691C-1874.08,-253.913 -1874.23,-254.42 -1874.01,-254.823C-1873.79,-255.226 -1873.28,-255.373 -1872.88,-255.151L-1850.55,-242.853Z" style="fill:rgb(71,16,15);"/></g><g transform="matrix(1,0,0,1,1569.69,-757.992)"><path d="M-1850.55,-242.853C-1850.15,-242.631 -1850,-242.123 -1850.22,-241.721C-1850.45,-241.318 -1850.95,-241.171 -1851.36,-241.393L-1873.68,-253.691C-1874.08,-253.913 -1874.23,-254.42 -1874.01,-254.823C-1873.79,-255.226 -1873.28,-255.373 -1872.88,-255.151L-1850.55,-242.853Z" style="fill:rgb(71,16,15);"/></g><g transform="matrix(1,0,0,1,1569.69,-754.62)"><path d="M-1850.55,-242.853C-1850.15,-242.631 -1850,-242.123 -1850.22,-241.721C-1850.45,-241.318 -1850.95,-241.171 -1851.36,-241.393L-1873.68,-253.691C-1874.08,-253.913 -1874.23,-254.42 -1874.01,-254.823C-1873.79,-255.226 -1873.28,-255.373 -1872.88,-255.151L-1850.55,-242.853Z" style="fill:rgb(71,16,15);"/></g><g transform="matrix(1,0,0,1,1569.69,-751.248)"><path d="M-1850.55,-242.853C-1850.15,-242.631 -1850,-242.123 -1850.22,-241.721C-1850.45,-241.318 -1850.95,-241.171 -1851.36,-241.393L-1873.68,-253.691C-1874.08,-253.913 -1874.23,-254.42 -1874.01,-254.823C-1873.79,-255.226 -1873.28,-255.373 -1872.88,-255.151L-1850.55,-242.853Z" style="fill:rgb(71,16,15);"/></g><g transform="matrix(1,0,0,1,1569.69,-747.876)"><path d="M-1850.55,-242.853C-1850.15,-242.631 -1850,-242.123 -1850.22,-241.721C-1850.45,-241.318 -1850.95,-241.171 -1851.36,-241.393L-1873.68,-253.691C-1874.08,-253.913 -1874.23,-254.42 -1874.01,-254.823C-1873.79,-255.226 -1873.28,-255.373 -1872.88,-255.151L-1850.55,-242.853Z" style="fill:rgb(71,16,15);"/></g></g><g transform="matrix(0.894427,0.447214,5.55112e-17,1.11803,877.987,-734.612)"><path d="M-1300.11,189.949C-1297.59,189.949 -1296,191.373 -1296,193.627C-1296,205.558 -1296,242.895 -1296,251.166C-1296,251.516 -1296.23,251.932 -1296.6,252.265C-1296.97,252.597 -1297.43,252.8 -1297.83,252.8C-1303.14,252.8 -1318.47,252.8 -1322.83,252.8C-1323.55,252.8 -1324,252.396 -1324,251.755C-1324,244.507 -1324,201.706 -1324,191.935C-1324,191.51 -1323.73,191.004 -1323.27,190.6C-1322.82,190.195 -1322.26,189.949 -1321.78,189.949C-1317.09,189.949 -1306.12,189.949 -1300.11,189.949Z" style="fill:rgb(231,186,141);"/></g><g transform="matrix(0.652673,0.376821,-5.05832e-17,0.904961,542.265,-844.229)"><path d="M-1319.74,268.032C-1307.44,277.83 -1312.42,351.901 -1320.89,357.077C-1337.1,366.98 -1384.24,371.917 -1406.18,371.406C-1420.17,371.081 -1445.57,372.241 -1457.79,364.399C-1472.57,354.91 -1470.18,284.092 -1457.79,273.631C-1445.4,263.171 -1332.31,258.022 -1319.74,268.032Z" style="fill:url(#_Linear12);"/></g><g transform="matrix(0.894427,-0.447214,0,1.35341,877.1,-536.49)"><path d="M-1199.09,-837.242C-1197.2,-835.991 -1196,-834.316 -1196,-832.917L-1196,-774.4L-1212,-774.4L-1212,-835.2L-1248,-858.991L-1232,-858.991C-1232,-858.991 -1207.81,-843.007 -1199.09,-837.242Z" style="fill:url(#_Linear13);"/></g><g transform="matrix(0.866025,-0.5,5.55112e-17,1.1547,890.898,-749.353)"><path d="M-1530.77,-1041.67L-1453.05,-1037.08C-1449.7,-1036.88 -1445.74,-1035.12 -1442.44,-1032.36L-1277.97,-894.914C-1270.51,-888.679 -1265.84,-880.831 -1265.8,-874.464L-1265.21,-776.997C-1265.18,-773.661 -1267.71,-771.712 -1271.7,-771.982L-1346.16,-777.034L-1345.67,-777.008C-1343.7,-776.902 -1342.45,-777.878 -1342.44,-779.534L-1341.96,-881.638C-1341.93,-888.233 -1346.91,-896.437 -1354.81,-902.788L-1523.64,-1038.56C-1525.89,-1040.37 -1528.52,-1041.51 -1530.77,-1041.67Z" style="fill:url(#_Linear14);"/></g><g transform="matrix(0.89456,0.276419,0.188915,1.1419,821.506,-362.576)"><path d="M-1170.73,-359.63C-1165.37,-359.63 -1161.97,-356.331 -1161.97,-350.974C-1161.97,-347.475 -1163.69,-344.758 -1166.36,-342.845C-1171.15,-339.413 -1175.47,-338.9 -1175.47,-338.9L-1182.76,-353.063C-1182.76,-353.063 -1179.61,-355.739 -1176.89,-357.417C-1175.02,-358.576 -1173.07,-359.63 -1170.73,-359.63Z" style="fill:rgb(97,37,32);"/></g><g transform="matrix(0.89456,0.276419,0.188915,1.1419,821.344,-331.53)"><path d="M-1170.73,-359.63C-1165.37,-359.63 -1161.97,-356.331 -1161.97,-350.974C-1161.97,-347.475 -1163.69,-344.758 -1166.36,-342.845C-1171.15,-339.413 -1175.47,-338.9 -1175.47,-338.9L-1182.76,-353.063C-1182.76,-353.063 -1179.61,-355.739 -1176.89,-357.417C-1175.02,-358.576 -1173.07,-359.63 -1170.73,-359.63Z" style="fill:rgb(97,37,32);"/></g><g transform="matrix(0.794056,0.397028,4.57494e-17,0.921426,633.532,-296.413)"><circle cx="-1171.97" cy="-350.011" r="9.707" style="fill:rgb(235,213,185);"/></g><g transform="matrix(0.794056,0.397028,4.57494e-17,0.921426,633.371,-265.367)"><circle cx="-1171.97" cy="-350.011" r="9.707" style="fill:rgb(235,213,185);"/></g><g transform="matrix(1.3559,0,0,1.3559,1308.86,-543.856)"><circle cx="-1202.78" cy="-528.517" r="2.843" style="fill:url(#_Radial15);"/></g><g transform="matrix(1.44588,0.966326,-0.826568,1.23677,1070.6,556.125)"><circle cx="-1202.78" cy="-528.517" r="2.843" style="fill:url(#_Radial16);"/></g><g transform="matrix(1,0,0,1,1131.9,-705.869)"><path d="M-1545.77,-451.361C-1552.69,-417.081 -1554.17,-387.418 -1543.62,-360.97C-1543.46,-360.583 -1543.62,-360.141 -1543.98,-359.936L-1556.9,-352.638C-1557.29,-352.419 -1557.78,-352.543 -1558.02,-352.919C-1558.82,-354.193 -1559.25,-355.732 -1559.33,-357.518L-1559.33,-357.552L-1559.33,-461.606L-1559.33,-461.617C-1559.31,-463.194 -1558.64,-464.495 -1557.16,-465.437C-1556.8,-465.669 -1556.32,-465.584 -1556.05,-465.241L-1545.93,-452.033C-1545.78,-451.842 -1545.72,-451.597 -1545.77,-451.361ZM-1547.48,-451.32L-1556.86,-463.558C-1557.4,-463.021 -1557.65,-462.362 -1557.66,-461.598L-1557.66,-357.558C-1557.61,-356.416 -1557.39,-355.394 -1556.98,-354.506L-1545.43,-361.03C-1555.77,-387.489 -1554.35,-417.128 -1547.48,-451.32Z" style="fill:none;"/></g><g transform="matrix(0.771475,0,0,0.771475,534.976,-772.802)"><path d="M-692.844,-820.815L-692.844,-41.716C-692.844,-41.384 -693.113,-41.115 -693.445,-41.115L-1472.54,-41.115C-1472.88,-41.115 -1473.14,-41.384 -1473.14,-41.716L-1473.14,-820.815C-1473.14,-821.147 -1472.88,-821.416 -1472.54,-821.416L-693.445,-821.416C-693.113,-821.416 -692.844,-821.147 -692.844,-820.815ZM-694.046,-820.214L-1471.94,-820.214L-1471.94,-42.317L-694.046,-42.317L-694.046,-820.214Z" style="fill:none;"/></g><g transform="matrix(1.33982,-0.66991,1.41085,0.705426,1347.93,-641.715)"><path d="M-272.731,-848.33C-272.052,-848.33 -271.652,-847.951 -271.652,-847.306L-271.652,-720.138C-271.652,-718.837 -272.62,-717.097 -274.151,-715.643C-275.682,-714.188 -277.515,-713.27 -278.884,-713.27L-421.533,-713.27C-425.823,-713.27 -428.348,-715.667 -428.348,-719.742L-428.348,-844.234C-428.348,-845.01 -427.771,-846.048 -426.858,-846.915C-425.944,-847.782 -424.851,-848.33 -424.035,-848.33L-272.731,-848.33ZM-273.148,-847.67L-424.452,-847.67C-425.058,-847.67 -425.869,-847.263 -426.547,-846.62C-427.224,-845.976 -427.652,-845.206 -427.652,-844.631L-427.652,-720.138C-427.652,-716.23 -425.231,-713.93 -421.116,-713.93L-278.467,-713.93C-277.308,-713.93 -275.758,-714.707 -274.462,-715.938C-273.166,-717.168 -272.348,-718.641 -272.348,-719.742L-272.348,-846.91C-272.348,-847.388 -272.644,-847.67 -273.148,-847.67Z" style="fill:none;"/></g><g transform="matrix(1.33982,-0.66991,1.41085,0.705426,1317.47,-656.943)"><path d="M-272.731,-848.33C-272.052,-848.33 -271.652,-847.951 -271.652,-847.306L-271.652,-720.138C-271.652,-718.837 -272.62,-717.097 -274.151,-715.643C-275.682,-714.188 -277.515,-713.27 -278.884,-713.27L-421.533,-713.27C-425.823,-713.27 -428.348,-715.667 -428.348,-719.742L-428.348,-844.234C-428.348,-845.01 -427.771,-846.048 -426.858,-846.915C-425.944,-847.782 -424.851,-848.33 -424.035,-848.33L-272.731,-848.33ZM-273.148,-847.67L-424.452,-847.67C-425.058,-847.67 -425.869,-847.263 -426.547,-846.62C-427.224,-845.976 -427.652,-845.206 -427.652,-844.631L-427.652,-720.138C-427.652,-716.23 -425.231,-713.93 -421.116,-713.93L-278.467,-713.93C-277.308,-713.93 -275.758,-714.707 -274.462,-715.938C-273.166,-717.168 -272.348,-718.641 -272.348,-719.742L-272.348,-846.91C-272.348,-847.388 -272.644,-847.67 -273.148,-847.67Z" style="fill:none;"/></g><g transform="matrix(1.091,-0.545502,1.41085,0.705426,1187.46,-615.454)"><path d="M-272.897,-848.33C-272.064,-848.33 -271.573,-847.951 -271.573,-847.306L-271.573,-720.138C-271.573,-718.837 -272.761,-717.097 -274.641,-715.643C-276.522,-714.188 -278.772,-713.27 -280.454,-713.27L-420.058,-713.27C-425.326,-713.27 -428.427,-715.667 -428.427,-719.742L-428.427,-844.234C-428.427,-845.01 -427.719,-846.048 -426.597,-846.915C-425.476,-847.782 -424.133,-848.33 -423.13,-848.33L-272.897,-848.33ZM-273.41,-847.67L-423.643,-847.67C-424.387,-847.67 -425.383,-847.263 -426.215,-846.62C-427.047,-845.976 -427.573,-845.206 -427.573,-844.631L-427.573,-720.138C-427.573,-716.23 -424.599,-713.93 -419.546,-713.93L-279.942,-713.93C-278.519,-713.93 -276.615,-714.707 -275.023,-715.938C-273.432,-717.168 -272.427,-718.641 -272.427,-719.742L-272.427,-846.91C-272.427,-847.388 -272.791,-847.67 -273.41,-847.67Z" style="fill:none;"/></g><g transform="matrix(0.917361,-0.458681,1.11803,0.559017,891.923,-701.683)"><path d="M-272.203,-848.653C-271.691,-848.536 -271.348,-848.249 -271.212,-847.824L-238.183,-744.329C-238.134,-744.175 -238.27,-743.93 -238.517,-743.727L-273.617,-714.927C-274.99,-713.801 -276.632,-713.09 -277.86,-713.09L-425.936,-713.09C-427.627,-713.09 -428.622,-713.906 -428.622,-715.294L-428.622,-843.192C-428.622,-844.199 -427.755,-845.547 -426.383,-846.673L-391.283,-875.473C-391.033,-875.677 -390.732,-875.789 -390.544,-875.746L-272.203,-848.653ZM-273.123,-847.65L-391.147,-874.671L-425.826,-846.216C-426.777,-845.436 -427.378,-844.502 -427.378,-843.804L-427.378,-715.906C-427.378,-714.776 -426.567,-714.11 -425.189,-714.11L-277.113,-714.11C-276.263,-714.11 -275.125,-714.603 -274.174,-715.384L-239.491,-743.842L-272.437,-847.076C-272.531,-847.37 -272.768,-847.569 -273.123,-847.65Z" style="fill:none;"/></g><g transform="matrix(0.917361,-0.458681,1.11803,0.559017,891.923,-733.882)"><path d="M-273.067,-848.417C-272.076,-848.417 -271.492,-847.938 -271.492,-847.125L-271.492,-718.352C-271.492,-717.373 -272.335,-716.063 -273.669,-714.969C-275.002,-713.875 -276.598,-713.183 -277.791,-713.183L-425.867,-713.183C-427.53,-713.183 -428.508,-713.986 -428.508,-715.35L-428.508,-843.248C-428.508,-844.227 -427.665,-845.537 -426.331,-846.631C-424.998,-847.725 -423.402,-848.417 -422.209,-848.417L-273.067,-848.417ZM-273.676,-847.583L-422.818,-847.583C-423.703,-847.583 -424.888,-847.07 -425.877,-846.258C-426.867,-845.446 -427.492,-844.474 -427.492,-843.748L-427.492,-715.85C-427.492,-714.696 -426.664,-714.017 -425.258,-714.017L-277.182,-714.017C-276.297,-714.017 -275.112,-714.53 -274.123,-715.342C-273.133,-716.154 -272.508,-717.126 -272.508,-717.852L-272.508,-846.625C-272.508,-847.228 -272.941,-847.583 -273.676,-847.583Z" style="fill:none;"/></g><g transform="matrix(0.688021,-0.34401,1.01155,0.505777,739.99,-742.822)"><path d="M-273.489,-848.386C-272.194,-848.386 -271.433,-847.868 -271.433,-846.988L-271.433,-718.807C-271.433,-717.748 -272.533,-716.331 -274.274,-715.147C-276.015,-713.962 -278.099,-713.214 -279.656,-713.214L-425.09,-713.214C-427.279,-713.214 -428.567,-714.09 -428.567,-715.579L-428.567,-842.793C-428.567,-843.852 -427.467,-845.269 -425.726,-846.453C-423.985,-847.638 -421.901,-848.386 -420.344,-848.386L-273.489,-848.386ZM-274.169,-847.614L-421.025,-847.614C-422.238,-847.614 -423.862,-847.031 -425.219,-846.108C-426.576,-845.185 -427.433,-844.081 -427.433,-843.256L-427.433,-716.042C-427.433,-714.748 -426.313,-713.986 -424.41,-713.986L-278.975,-713.986C-277.762,-713.986 -276.138,-714.569 -274.781,-715.492C-273.424,-716.415 -272.567,-717.519 -272.567,-718.344L-272.567,-846.525C-272.567,-847.21 -273.161,-847.614 -274.169,-847.614Z" style="fill:none;"/></g><g transform="matrix(0.816185,0.44279,4.83159e-17,0.912781,1106.17,-640.03)"><path d="M-1701.76,449.893L-1697.37,457.565C-1697.18,457.91 -1697.39,458.514 -1697.86,458.957C-1697.86,458.957 -1702.94,463.704 -1704.16,464.972C-1705.7,466.568 -1707.62,467.578 -1709.24,467.639L-1845.42,472.816C-1847.24,472.885 -1848.36,471.747 -1848.3,469.9L-1847.61,449.306C-1847.6,448.982 -1847.41,448.596 -1847.1,448.289C-1846.79,447.981 -1846.41,447.796 -1846.1,447.8L-1702.21,449.653C-1702,449.656 -1701.84,449.74 -1701.76,449.893ZM-1703.52,451.726L-1845.62,449.896L-1846.26,468.965C-1846.3,470.089 -1845.61,470.782 -1844.5,470.74L-1708.32,465.563C-1707.34,465.525 -1706.17,464.911 -1705.23,463.94C-1704.29,462.966 -1701.14,459.987 -1699.62,458.556L-1703.52,451.726Z" style="fill:none;"/></g><g transform="matrix(0.816185,0.44279,4.83159e-17,0.912781,1106.24,-640.063)"><path d="M-1701.68,450.197L-1701.68,459.803C-1701.68,461.42 -1702.62,463.376 -1704.16,464.972C-1705.7,466.568 -1707.62,467.578 -1709.24,467.639L-1845.42,472.816C-1847.24,472.885 -1848.36,471.747 -1848.3,469.9L-1847.61,449.306C-1847.6,448.982 -1847.41,448.596 -1847.1,448.289C-1846.79,447.981 -1846.41,447.796 -1846.1,447.8L-1702.21,449.653C-1701.88,449.657 -1701.68,449.865 -1701.68,450.197ZM-1703.73,451.724L-1845.62,449.896L-1846.26,468.965C-1846.3,470.089 -1845.61,470.782 -1844.5,470.74L-1708.32,465.563C-1707.34,465.525 -1706.17,464.911 -1705.23,463.94C-1704.3,462.968 -1703.73,461.778 -1703.73,460.794L-1703.73,451.724Z" style="fill:none;"/></g><g transform="matrix(1.06279,0.6136,-6.46358e-17,1.27161,1125.1,-628.725)"><path d="M-1324.14,256.737C-1317.58,256.285 -1313.44,259.876 -1313.45,265.998L-1313.65,358.571C-1313.66,360.266 -1314.71,362.344 -1316.43,364.065C-1318.16,365.786 -1320.31,366.904 -1322.12,367.021L-1467.97,376.45C-1470.69,376.626 -1472.39,375.108 -1472.34,372.545L-1470.64,274.528C-1470.61,272.862 -1469.57,270.836 -1467.88,269.16C-1466.2,267.485 -1464.1,266.395 -1462.33,266.273L-1324.14,256.737ZM-1324.49,257.492L-1462.68,267.028C-1464.21,267.133 -1466.02,268.075 -1467.48,269.522C-1468.93,270.97 -1469.83,272.72 -1469.86,274.159L-1471.56,372.176C-1471.6,374.486 -1470.07,375.853 -1467.62,375.695L-1321.77,366.266C-1320.2,366.164 -1318.34,365.196 -1316.85,363.706C-1315.35,362.216 -1314.44,360.416 -1314.44,358.948L-1314.23,266.376C-1314.22,260.503 -1318.2,257.058 -1324.49,257.492Z" style="fill:none;"/></g><g transform="matrix(0.99635,0.575243,-5.29947e-17,1.13942,1032.88,-639.769)"><path d="M-1320.3,255.333C-1316.34,255.065 -1313.85,257.363 -1313.89,261.256L-1314.83,361.437C-1314.84,362.527 -1315.49,363.858 -1316.54,364.958C-1317.6,366.059 -1318.92,366.773 -1320.03,366.848L-1464.37,376.611C-1467.37,376.814 -1469.27,375.087 -1469.27,372.15L-1469.25,271.735C-1469.25,270.38 -1468.44,268.716 -1467.12,267.338C-1465.81,265.96 -1464.16,265.064 -1462.77,264.97L-1320.3,255.333ZM-1321.05,257.019L-1463.52,266.656C-1464.39,266.715 -1465.42,267.275 -1466.25,268.138C-1467.07,269.001 -1467.57,270.042 -1467.57,270.891L-1467.59,371.306C-1467.59,373.689 -1466.05,375.09 -1463.62,374.925L-1319.28,365.162C-1318.69,365.122 -1317.98,364.74 -1317.42,364.152C-1316.85,363.564 -1316.5,362.852 -1316.5,362.269L-1315.56,262.088C-1315.53,258.757 -1317.66,256.79 -1321.05,257.019Z" style="fill:rgb(71,16,15);"/></g><g transform="matrix(0.793851,0.45833,-6.44896e-17,1.13942,735.529,-811.444)"><path d="M-1314.13,257.489L-1314.13,367.387C-1314.13,367.64 -1314.32,367.952 -1314.63,368.209C-1314.94,368.467 -1315.32,368.635 -1315.65,368.652L-1463.34,376.611C-1467.11,376.814 -1469.49,375.087 -1469.49,372.15L-1469.46,271.735C-1469.46,270.38 -1468.45,268.716 -1466.8,267.338C-1465.14,265.96 -1463.08,265.064 -1461.34,264.97L-1314.71,257.068C-1314.35,257.049 -1314.13,257.212 -1314.13,257.489ZM-1316.23,258.785L-1462.28,266.656C-1463.37,266.715 -1464.66,267.275 -1465.69,268.138C-1466.73,269.001 -1467.36,270.042 -1467.36,270.891L-1467.39,371.306C-1467.39,373.689 -1465.45,375.09 -1462.4,374.925L-1316.23,367.048L-1316.23,258.785Z" style="fill:rgb(71,16,15);"/></g><g transform="matrix(0.74467,0.429935,-5.71302e-17,1.0455,666.888,-820.46)"><path d="M-1314.11,256.476L-1316.61,318.529L-1316.62,318.578L-1323.56,354.967C-1323.59,355.097 -1323.68,355.242 -1323.83,355.363C-1323.98,355.484 -1324.15,355.568 -1324.31,355.591L-1461.62,375.508C-1466.04,376.149 -1468.97,374.347 -1468.97,370.988L-1468.97,271.96C-1468.97,270.626 -1468,268.989 -1466.41,267.63C-1464.82,266.27 -1462.84,265.381 -1461.15,265.278L-1314.42,256.236C-1314.22,256.223 -1314.1,256.318 -1314.11,256.476ZM-1315.24,257.174L-1461.65,266.196C-1462.98,266.278 -1464.56,266.984 -1465.82,268.063C-1467.08,269.141 -1467.85,270.441 -1467.85,271.5L-1467.85,370.528C-1467.85,373.554 -1465.21,375.178 -1461.23,374.6L-1324.57,354.777L-1317.73,318.942L-1315.24,257.174Z" style="fill:none;"/></g><g transform="matrix(1,0,0,1,1133.99,-706.516)"><path d="M-1546.1,-360.755L-1452.41,-312.551C-1452.19,-312.439 -1452.03,-312.236 -1451.98,-311.996L-1448.98,-298.911C-1448.77,-298.004 -1449.11,-297.059 -1449.84,-296.486C-1450.57,-295.913 -1451.57,-295.816 -1452.4,-296.236L-1556.32,-348.889C-1558,-349.701 -1559.22,-350.863 -1560.1,-352.274C-1560.22,-352.466 -1560.26,-352.7 -1560.2,-352.921C-1560.15,-353.142 -1560,-353.33 -1559.81,-353.442L-1546.89,-360.739C-1546.64,-360.877 -1546.35,-360.883 -1546.1,-360.755ZM-1546.46,-359.067L-1558.18,-352.443C-1557.52,-351.607 -1556.67,-350.908 -1555.59,-350.386L-1555.58,-350.379L-1451.65,-297.723C-1451.4,-297.595 -1451.09,-297.624 -1450.87,-297.799C-1450.64,-297.974 -1450.54,-298.262 -1450.61,-298.539L-1453.52,-311.246L-1546.46,-359.067Z" style="fill:none;"/></g><g transform="matrix(0.673822,0.389031,-5.48716e-17,0.989396,570.01,-859.61)"><path d="M-1319.2,267.612C-1316.23,269.985 -1314.16,276.159 -1312.9,284.265C-1309.97,303.043 -1311.25,332.195 -1314.7,347.814C-1315.57,351.779 -1316.6,354.889 -1317.72,356.757C-1318.3,357.712 -1318.94,358.384 -1319.55,358.761C-1324.49,361.778 -1332.56,364.285 -1342.03,366.263C-1363.83,370.817 -1393.2,372.681 -1408.6,372.323C-1422.65,371.996 -1446.04,372.709 -1458.31,364.833C-1461.44,362.82 -1463.83,358.083 -1465.51,351.742C-1469.38,337.07 -1469.48,313.791 -1466.66,296.249C-1465.62,289.779 -1464.18,284.086 -1462.39,279.885C-1461.14,276.963 -1459.69,274.733 -1458.13,273.414C-1456.94,272.405 -1454.87,271.41 -1452.08,270.5C-1445.98,268.509 -1436.21,266.785 -1424.65,265.435C-1397.81,262.301 -1361.27,261.155 -1338.74,263.156C-1329,264.021 -1321.87,265.489 -1319.2,267.612ZM-1320.28,268.453C-1322.89,266.372 -1329.91,264.972 -1339.45,264.124C-1361.92,262.129 -1398.35,263.273 -1425.12,266.398C-1436.53,267.731 -1446.18,269.419 -1452.2,271.386C-1454.62,272.173 -1456.41,272.975 -1457.45,273.848C-1458.86,275.041 -1460.1,277.059 -1461.22,279.703C-1462.99,283.852 -1464.41,289.474 -1465.43,295.864C-1468.24,313.332 -1468.14,336.516 -1464.29,351.126C-1462.65,357.335 -1460.35,361.993 -1457.27,363.964C-1445.11,371.773 -1421.88,371.027 -1407.95,371.351C-1392.63,371.707 -1363.4,369.855 -1341.7,365.322C-1332.53,363.406 -1324.71,361.031 -1319.93,358.107C-1319.69,357.96 -1319.47,357.727 -1319.24,357.428C-1318.94,357.037 -1318.66,356.55 -1318.37,355.975C-1317.47,354.135 -1316.65,351.452 -1315.92,348.156C-1312.48,332.593 -1311.21,303.545 -1314.13,284.833C-1315.37,276.872 -1317.35,270.783 -1320.28,268.453Z" style="fill:rgb(71,16,15);"/></g><g transform="matrix(0.894427,0.447214,5.55112e-17,1.11803,879.272,-735.255)"><path d="M-1299.9,189.533C-1297.23,189.533 -1295.53,191.046 -1295.53,193.441L-1295.53,250.971C-1295.53,251.501 -1295.91,252.136 -1296.51,252.605L-1297.78,253.608C-1297.92,253.713 -1298.07,253.773 -1298.2,253.77L-1323.1,253.24C-1323.94,253.222 -1324.47,252.742 -1324.48,251.99L-1325.36,192.088C-1325.36,191.947 -1325.26,191.776 -1325.1,191.649L-1323.36,190.253C-1322.8,189.8 -1322.13,189.533 -1321.57,189.533L-1299.9,189.533ZM-1300.32,190.366L-1321.99,190.366C-1322.29,190.366 -1322.64,190.509 -1322.94,190.751L-1324.42,191.938L-1323.55,251.608C-1323.54,252.089 -1323.2,252.396 -1322.67,252.407L-1297.98,252.933L-1296.91,252.097C-1296.64,251.88 -1296.47,251.588 -1296.47,251.344L-1296.47,193.814C-1296.47,191.701 -1297.96,190.366 -1300.32,190.366Z" style="fill:none;"/></g><g transform="matrix(0.894427,0.447214,5.55112e-17,1.11803,877.987,-734.612)"><path d="M-1299.9,189.533C-1297.23,189.533 -1295.53,191.046 -1295.53,193.441L-1295.53,250.98C-1295.53,251.459 -1295.84,252.028 -1296.35,252.484C-1296.86,252.939 -1297.5,253.217 -1298.04,253.217L-1323.04,253.217C-1323.91,253.217 -1324.47,252.723 -1324.47,251.942L-1324.47,192.121C-1324.47,191.567 -1324.11,190.908 -1323.52,190.381C-1322.93,189.854 -1322.19,189.533 -1321.57,189.533L-1299.9,189.533ZM-1300.32,190.366L-1321.99,190.366C-1322.32,190.366 -1322.71,190.537 -1323.03,190.819C-1323.34,191.101 -1323.53,191.452 -1323.53,191.749L-1323.53,251.569C-1323.53,252.068 -1323.18,252.383 -1322.62,252.383L-1297.62,252.383C-1297.37,252.383 -1297.08,252.256 -1296.84,252.046C-1296.61,251.836 -1296.47,251.573 -1296.47,251.353L-1296.47,193.813C-1296.47,191.701 -1297.96,190.366 -1300.32,190.366Z" style="fill:none;"/></g><g transform="matrix(0.652673,0.376821,-5.05832e-17,0.904961,542.265,-844.229)"><path d="M-1319.19,267.569C-1316.21,269.944 -1314.21,276.046 -1313.05,284.042C-1310.35,302.55 -1312.05,331.213 -1315.71,346.594C-1316.64,350.511 -1317.71,353.586 -1318.86,355.439C-1319.45,356.396 -1320.1,357.07 -1320.72,357.452C-1325.66,360.468 -1333.42,363.053 -1342.47,365.148C-1363.33,369.977 -1391.11,372.296 -1406.52,371.938C-1420.56,371.611 -1446.05,372.752 -1458.32,364.878C-1461.46,362.862 -1463.85,358.122 -1465.53,351.774C-1469.4,337.097 -1469.5,313.811 -1466.68,296.264C-1465.64,289.787 -1464.2,284.087 -1462.4,279.882C-1461.15,276.94 -1459.69,274.698 -1458.12,273.371C-1456.92,272.361 -1454.85,271.363 -1452.07,270.453C-1445.96,268.462 -1436.19,266.739 -1424.64,265.39C-1397.8,262.255 -1361.26,261.109 -1338.73,263.111C-1328.99,263.976 -1321.86,265.445 -1319.19,267.569ZM-1320.29,268.496C-1322.9,266.416 -1329.92,265.017 -1339.46,264.17C-1361.93,262.174 -1398.36,263.319 -1425.13,266.444C-1436.55,267.777 -1446.19,269.466 -1452.22,271.433C-1454.63,272.22 -1456.43,273.018 -1457.46,273.892C-1458.87,275.076 -1460.09,277.081 -1461.21,279.706C-1462.98,283.851 -1464.39,289.466 -1465.41,295.85C-1468.22,313.312 -1468.12,336.488 -1464.27,351.094C-1462.63,357.296 -1460.33,361.95 -1457.26,363.92C-1445.09,371.73 -1419.78,370.551 -1405.85,370.875C-1390.53,371.231 -1362.9,368.927 -1342.15,364.124C-1333.37,362.091 -1325.85,359.628 -1321.06,356.702C-1320.82,356.559 -1320.61,356.332 -1320.38,356.043C-1320.08,355.661 -1319.8,355.186 -1319.51,354.626C-1318.59,352.815 -1317.74,350.18 -1316.96,346.944C-1313.32,331.629 -1311.63,303.09 -1314.32,284.662C-1315.46,276.829 -1317.37,270.823 -1320.29,268.496Z" style="fill:none;"/></g><g transform="matrix(0.894427,-0.447214,0,1.35341,877.1,-536.49)"><path d="M-1198.88,-837.449C-1196.83,-836.093 -1195.53,-834.279 -1195.53,-832.763L-1195.53,-774.246C-1195.53,-774.129 -1195.63,-774.056 -1195.79,-774.056L-1211.79,-774.056C-1211.94,-774.056 -1212.11,-774.118 -1212.25,-774.219C-1212.38,-774.321 -1212.47,-774.447 -1212.47,-774.554L-1212.47,-835.164L-1248.21,-858.785C-1248.37,-858.889 -1248.47,-859.029 -1248.47,-859.145C-1248.47,-859.262 -1248.37,-859.336 -1248.21,-859.336L-1232.21,-859.336C-1232.08,-859.336 -1231.92,-859.284 -1231.79,-859.198L-1198.88,-837.449ZM-1199.3,-837.036L-1232,-858.647L-1246.96,-858.647L-1211.79,-835.407C-1211.63,-835.302 -1211.53,-835.163 -1211.53,-835.046L-1211.53,-774.744L-1196.47,-774.744L-1196.47,-833.071C-1196.47,-834.353 -1197.56,-835.888 -1199.3,-837.036Z" style="fill:none;"/></g><g transform="matrix(0.866025,-0.5,5.55112e-17,1.1547,890.898,-749.353)"><path d="M-1530.99,-1042.09L-1453.27,-1037.5C-1449.77,-1037.29 -1445.65,-1035.46 -1442.21,-1032.58L-1277.74,-895.133C-1270.12,-888.768 -1265.36,-880.757 -1265.32,-874.257L-1264.73,-776.791C-1264.7,-773.315 -1267.33,-771.285 -1271.49,-771.567L-1345.94,-776.617L-1345.95,-776.618C-1346.02,-776.623 -1346.09,-776.641 -1346.16,-776.673L-1346.37,-777.449L-1345.89,-777.424C-1344.08,-777.327 -1342.93,-778.223 -1342.93,-779.744L-1342.44,-881.848C-1342.41,-888.305 -1347.29,-896.338 -1355.02,-902.557L-1523.86,-1038.33C-1525.97,-1040.03 -1528.44,-1041.11 -1530.56,-1041.26C-1530.62,-1041.26 -1530.69,-1041.27 -1530.75,-1041.27L-1530.75,-1041.27C-1530.82,-1041.27 -1530.89,-1041.29 -1530.97,-1041.33L-1531.18,-1042.1C-1531.12,-1042.1 -1531.05,-1042.09 -1530.99,-1042.09ZM-1342.95,-777.217L-1271.91,-772.398C-1268.09,-772.139 -1265.67,-774.007 -1265.69,-777.204L-1266.28,-874.67C-1266.32,-880.905 -1270.89,-888.589 -1278.19,-894.694L-1442.66,-1032.14C-1445.83,-1034.79 -1449.62,-1036.47 -1452.84,-1036.66L-1527.12,-1041.06C-1525.85,-1040.49 -1524.59,-1039.72 -1523.43,-1038.79L-1354.6,-903.019C-1346.54,-896.536 -1341.45,-888.16 -1341.48,-881.428L-1341.96,-779.325C-1341.97,-778.412 -1342.32,-777.69 -1342.95,-777.217Z" style="fill:none;"/></g><g transform="matrix(0.89456,0.276419,0.188915,1.1419,821.506,-362.576)"><path d="M-1170.5,-360.032C-1164.99,-360.032 -1161.47,-356.662 -1161.47,-351.154C-1161.47,-347.473 -1163.33,-344.614 -1166.14,-342.601C-1171.13,-339.027 -1175.63,-338.501 -1175.63,-338.501C-1175.78,-338.483 -1175.89,-338.527 -1175.94,-338.62L-1183.24,-352.783C-1183.3,-352.912 -1183.22,-353.106 -1183.04,-353.261C-1183.04,-353.261 -1179.83,-355.987 -1177.06,-357.696C-1175.06,-358.929 -1172.99,-360.032 -1170.5,-360.032ZM-1170.95,-359.227C-1173.14,-359.227 -1174.97,-358.224 -1176.73,-357.138C-1178.88,-355.804 -1181.33,-353.826 -1182.17,-353.123L-1175.07,-339.334C-1174.13,-339.495 -1170.53,-340.263 -1166.58,-343.089C-1164.05,-344.903 -1162.47,-347.477 -1162.47,-350.794C-1162.47,-356 -1165.74,-359.227 -1170.95,-359.227Z" style="fill:none;"/></g><g transform="matrix(0.89456,0.276419,0.188915,1.1419,821.344,-331.53)"><path d="M-1170.5,-360.032C-1164.99,-360.032 -1161.47,-356.662 -1161.47,-351.154C-1161.47,-347.473 -1163.33,-344.614 -1166.14,-342.601C-1171.13,-339.027 -1175.63,-338.501 -1175.63,-338.501C-1175.78,-338.483 -1175.89,-338.527 -1175.94,-338.62L-1183.24,-352.783C-1183.3,-352.912 -1183.22,-353.106 -1183.04,-353.261C-1183.04,-353.261 -1179.83,-355.987 -1177.06,-357.696C-1175.06,-358.929 -1172.99,-360.032 -1170.5,-360.032ZM-1170.95,-359.227C-1173.14,-359.227 -1174.97,-358.224 -1176.73,-357.138C-1178.88,-355.804 -1181.33,-353.826 -1182.17,-353.123L-1175.07,-339.334C-1174.13,-339.495 -1170.53,-340.263 -1166.58,-343.089C-1164.05,-344.903 -1162.47,-347.477 -1162.47,-350.794C-1162.47,-356 -1165.74,-359.227 -1170.95,-359.227Z" style="fill:none;"/></g><g transform="matrix(0.794056,0.397028,4.57494e-17,0.921426,633.532,-296.413)"><path d="M-1171.74,-360.223C-1166.22,-360.223 -1161.74,-355.751 -1161.74,-350.237C-1161.74,-347.372 -1162.94,-344.775 -1164.82,-342.895C-1166.71,-341.004 -1169.33,-339.798 -1172.21,-339.798C-1177.72,-339.798 -1182.2,-344.27 -1182.2,-349.785C-1182.2,-352.649 -1181,-355.247 -1179.12,-357.126C-1177.23,-359.017 -1174.62,-360.223 -1171.74,-360.223ZM-1172.21,-359.212C-1174.68,-359.212 -1176.92,-358.244 -1178.55,-356.62C-1180.18,-354.985 -1181.16,-352.729 -1181.16,-350.237C-1181.16,-345.036 -1176.94,-340.809 -1171.74,-340.809C-1169.26,-340.809 -1167.02,-341.778 -1165.4,-343.401C-1163.77,-345.036 -1162.79,-347.292 -1162.79,-349.785C-1162.79,-354.985 -1167.01,-359.212 -1172.21,-359.212Z" style="fill:none;"/></g><g transform="matrix(0.794056,0.397028,4.57494e-17,0.921426,633.371,-265.367)"><path d="M-1171.74,-360.223C-1166.22,-360.223 -1161.74,-355.751 -1161.74,-350.237C-1161.74,-347.372 -1162.94,-344.775 -1164.82,-342.895C-1166.71,-341.004 -1169.33,-339.798 -1172.21,-339.798C-1177.72,-339.798 -1182.2,-344.27 -1182.2,-349.785C-1182.2,-352.649 -1181,-355.247 -1179.12,-357.126C-1177.23,-359.017 -1174.62,-360.223 -1171.74,-360.223ZM-1172.21,-359.212C-1174.68,-359.212 -1176.92,-358.244 -1178.55,-356.62C-1180.18,-354.985 -1181.16,-352.729 -1181.16,-350.237C-1181.16,-345.036 -1176.94,-340.809 -1171.74,-340.809C-1169.26,-340.809 -1167.02,-341.778 -1165.4,-343.401C-1163.77,-345.036 -1162.79,-347.292 -1162.79,-349.785C-1162.79,-354.985 -1167.01,-359.212 -1172.21,-359.212Z" style="fill:none;"/></g></g></g></g><defs><linearGradient id="_Linear2" x1="0" y1="0" x2="1" y2="0" gradientUnits="userSpaceOnUse" gradientTransform="matrix(-388.335,664.984,-664.984,-388.335,-1002.99,-820.815)"><stop offset="0" style="stop-color:rgb(183,62,25);stop-opacity:1"/><stop offset="1" style="stop-color:rgb(218,146,29);stop-opacity:1"/></linearGradient><linearGradient id="_Linear3" x1="0" y1="0" x2="1" y2="0.569427" gradientUnits="userSpaceOnUse" gradientTransform="matrix(4.43684,-32.2759,43.0596,26.1522,-1178.53,-516.939)"><stop offset="0" style="stop-color:rgb(121,61,45);stop-opacity:1"/><stop offset="1" style="stop-color:rgb(217,175,142);stop-opacity:1"/></linearGradient><linearGradient id="_Linear4" x1="0" y1="0" x2="1" y2="0" gradientUnits="userSpaceOnUse" gradientTransform="matrix(6.85831,-38.4187,66.5599,31.1296,-1123.96,-510.503)"><stop offset="0" style="stop-color:rgb(121,61,45);stop-opacity:1"/><stop offset="1" style="stop-color:rgb(217,175,142);stop-opacity:1"/></linearGradient><linearGradient id="_Linear5" x1="0" y1="0" x2="1" y2="0.525227" gradientUnits="userSpaceOnUse" gradientTransform="matrix(-182.678,57.2331,116.535,-154.254,-239.084,-792.428)"><stop offset="0" style="stop-color:rgb(199,99,30);stop-opacity:0"/><stop offset="1" style="stop-color:rgb(178,78,16);stop-opacity:1"/></linearGradient><linearGradient id="_Linear6" x1="0" y1="0" x2="1" y2="0.5" gradientUnits="userSpaceOnUse" gradientTransform="matrix(-164.899,50.5318,111.688,-146.49,-263.101,-780.8)"><stop offset="0" style="stop-color:rgb(193,91,28);stop-opacity:0"/><stop offset="1" style="stop-color:rgb(172,68,15);stop-opacity:1"/></linearGradient><linearGradient id="_Linear7" x1="0" y1="0" x2="1" y2="0" gradientUnits="userSpaceOnUse" gradientTransform="matrix(284.7,259.2,-308.766,246.85,-521.6,-981.736)"><stop offset="0" style="stop-color:rgb(255,255,0);stop-opacity:1"/><stop offset="0.7" style="stop-color:rgb(255,171,43);stop-opacity:1"/><stop offset="0.71" style="stop-color:rgb(240,151,29);stop-opacity:1"/><stop offset="0.72" style="stop-color:rgb(225,131,15);stop-opacity:1"/><stop offset="0.74" style="stop-color:rgb(218,122,8);stop-opacity:1"/><stop offset="1" style="stop-color:rgb(167,49,14);stop-opacity:1"/></linearGradient><linearGradient id="_Linear8" x1="0" y1="0" x2="1" y2="0" gradientUnits="userSpaceOnUse" gradientTransform="matrix(134.616,-4.62166,-72.1911,147.345,-1512.88,310.197)"><stop offset="0" style="stop-color:rgb(235,160,26);stop-opacity:1"/><stop offset="1" style="stop-color:rgb(227,133,24);stop-opacity:1"/></linearGradient><linearGradient id="_Linear9" x1="0" y1="0" x2="1" y2="0" gradientUnits="userSpaceOnUse" gradientTransform="matrix(1.46008e-15,-86.7238,99.1766,-50.07,-1320.46,352.306)"><stop offset="0" style="stop-color:rgb(143,68,49);stop-opacity:1"/><stop offset="1" style="stop-color:rgb(159,87,54);stop-opacity:1"/></linearGradient><linearGradient id="_Linear10" x1="0" y1="0" x2="1" y2="0" gradientUnits="userSpaceOnUse" gradientTransform="matrix(96.0817,41.0507,-114.393,112.956,-1450.38,292.777)"><stop offset="0" style="stop-color:rgb(181,117,79);stop-opacity:1"/><stop offset="1" style="stop-color:rgb(158,83,57);stop-opacity:1"/></linearGradient><linearGradient id="_Linear11" x1="0" y1="0" x2="1" y2="0.901566" gradientUnits="userSpaceOnUse" gradientTransform="matrix(120.069,82.2691,-37.303,25.4138,-1449.1,275.691)"><stop offset="0" style="stop-color:rgb(212,134,39);stop-opacity:1"/><stop offset="1" style="stop-color:rgb(132,99,67);stop-opacity:1"/></linearGradient><linearGradient id="_Linear12" x1="0" y1="0" x2="1" y2="0.474145" gradientUnits="userSpaceOnUse" gradientTransform="matrix(18.0129,78.0639,-109.632,19.1072,-1373.24,281.081)"><stop offset="0" style="stop-color:rgb(228,174,94);stop-opacity:1"/><stop offset="1" style="stop-color:rgb(114,102,81);stop-opacity:0"/></linearGradient><linearGradient id="_Linear13" x1="0" y1="0" x2="1" y2="0" gradientUnits="userSpaceOnUse" gradientTransform="matrix(10.02,19.8657,-25.05,-1.65548,-1231.87,-850.937)"><stop offset="0" style="stop-color:rgb(124,50,39);stop-opacity:1"/><stop offset="0.51" style="stop-color:rgb(166,71,54);stop-opacity:1"/><stop offset="0.61" style="stop-color:rgb(172,76,59);stop-opacity:1"/><stop offset="0.65" style="stop-color:rgb(185,87,70);stop-opacity:1"/><stop offset="0.69" style="stop-color:rgb(198,98,80);stop-opacity:1"/><stop offset="0.71" style="stop-color:rgb(197,95,77);stop-opacity:1"/><stop offset="0.73" style="stop-color:rgb(197,94,76);stop-opacity:1"/><stop offset="0.85" style="stop-color:rgb(107,41,33);stop-opacity:1"/><stop offset="1" style="stop-color:rgb(81,25,21);stop-opacity:1"/></linearGradient><linearGradient id="_Linear14" x1="0" y1="0" x2="1" y2="0" gradientUnits="userSpaceOnUse" gradientTransform="matrix(82.7889,155.578,-159.639,-7.03421,-1443.43,-1003.64)"><stop offset="0" style="stop-color:rgb(250,199,56);stop-opacity:1"/><stop offset="0.58" style="stop-color:rgb(237,157,33);stop-opacity:1"/><stop offset="0.63" style="stop-color:rgb(238,163,44);stop-opacity:1"/><stop offset="0.65" style="stop-color:rgb(240,177,69);stop-opacity:1"/><stop offset="0.67" style="stop-color:rgb(242,190,93);stop-opacity:1"/><stop offset="0.7" style="stop-color:rgb(236,178,86);stop-opacity:1"/><stop offset="0.72" style="stop-color:rgb(234,173,83);stop-opacity:1"/><stop offset="0.77" style="stop-color:rgb(172,55,17);stop-opacity:1"/><stop offset="1" style="stop-color:rgb(167,49,14);stop-opacity:1"/></linearGradient><radialGradient id="_Radial15" cx="0" cy="0" r="1" gradientUnits="userSpaceOnUse" gradientTransform="matrix(3.81917,1.11257,-1.11257,3.81917,-1204.84,-529.025)"><stop offset="0" style="stop-color:rgb(217,175,149);stop-opacity:1"/><stop offset="1" style="stop-color:rgb(129,63,48);stop-opacity:1"/></radialGradient><radialGradient id="_Radial16" cx="0" cy="0" r="1" gradientUnits="userSpaceOnUse" gradientTransform="matrix(3.81917,1.11257,-1.11257,3.81917,-1204.84,-529.025)"><stop offset="0" style="stop-color:rgb(217,175,149);stop-opacity:1"/><stop offset="1" style="stop-color:rgb(129,63,48);stop-opacity:1"/></radialGradient></defs></svg>