<?xml version="1.0" encoding="UTF-8"?>
<svg id="Art" xmlns="http://www.w3.org/2000/svg" version="1.1" xmlns:xlink="http://www.w3.org/1999/xlink" viewBox="0 0 3700 3000">
  <!-- Generator: Adobe Illustrator 30.0.0, SVG Export Plug-In . SVG Version: 2.1.1 Build 123)  -->
  <defs>
    <linearGradient id="linear-gradient" x1="1258.894067" y1="754.4589557" x2="2454.029214" y2="754.4589557" gradientTransform="translate(-70.8113444 -78.6430901) rotate(1.4169212) scale(1.003853 1.01731) skewX(4.7068474)" gradientUnits="userSpaceOnUse">
      <stop offset="0" stop-color="#a66cff"/>
      <stop offset=".0125271" stop-color="#ae6dff"/>
      <stop offset=".0596297" stop-color="#cb70ff"/>
      <stop offset=".1101096" stop-color="#e173ff"/>
      <stop offset=".1648765" stop-color="#f175ff"/>
      <stop offset=".227095" stop-color="#fb76ff"/>
      <stop offset=".3128315" stop-color="#fe77ff"/>
      <stop offset=".9464194" stop-color="#f9f2f6"/>
    </linearGradient>
    <linearGradient id="linear-gradient1" x1="2385.2774555" y1="678.6877838" x2="2520.8448663" y2="682.0410413" gradientTransform="translate(-.3754699 -52.1532964) scale(1 1.0925025)" xlink:href="#linear-gradient"/>
    <linearGradient id="linear-gradient2" x1="1424.8784409" y1="696.6536741" x2="2464.9025332" y2="696.6536741" gradientTransform="translate(-70.8113444 -78.6430901) rotate(1.4169212) scale(1.003853 1.01731) skewX(4.7068474)" gradientUnits="userSpaceOnUse">
      <stop offset=".0835526" stop-color="#761efe"/>
      <stop offset=".2884575" stop-color="#741dfb"/>
      <stop offset=".4132369" stop-color="#701cf3"/>
      <stop offset=".516633" stop-color="#6a1ae4"/>
      <stop offset=".6083637" stop-color="#6018d0"/>
      <stop offset=".692299" stop-color="#5415b5"/>
      <stop offset=".7706598" stop-color="#451195"/>
      <stop offset=".8446475" stop-color="#330d6e"/>
      <stop offset=".9151331" stop-color="#1e0741"/>
      <stop offset=".9805627" stop-color="#070110"/>
      <stop offset="1" stop-color="#000"/>
    </linearGradient>
    <linearGradient id="linear-gradient3" x1="1460.6822803" y1="679.4093935" x2="2369.464046" y2="679.4093935" gradientUnits="userSpaceOnUse">
      <stop offset="0" stop-color="#f9f2f6"/>
      <stop offset=".0117498" stop-color="#eee0f7"/>
      <stop offset=".0436124" stop-color="#d4b7f9"/>
      <stop offset=".0747156" stop-color="#c096fc"/>
      <stop offset=".1044349" stop-color="#b17efd"/>
      <stop offset=".1321888" stop-color="#a970fe"/>
      <stop offset=".1560109" stop-color="#a66cff"/>
      <stop offset=".319982" stop-color="#8896dd"/>
      <stop offset=".6697576" stop-color="#4cee99"/>
      <stop offset=".7181539" stop-color="#50e79e"/>
      <stop offset=".7883535" stop-color="#5ed3ad"/>
      <stop offset=".8718502" stop-color="#74b4c6"/>
      <stop offset=".9648169" stop-color="#9288e8"/>
      <stop offset="1" stop-color="#9f76f7"/>
    </linearGradient>
    <linearGradient id="linear-gradient4" x1="1198.8608363" y1="596.3058677" x2="1373.1694345" y2="600.6173878" gradientTransform="translate(-3.2448701 93.7773123)" xlink:href="#linear-gradient"/>
    <linearGradient id="linear-gradient5" x1="1088.7910862" y1="692.6372617" x2="1310.8658678" y2="698.1302775" gradientTransform="translate(-2.0211913 -1.4655151)" xlink:href="#linear-gradient2"/>
    <linearGradient id="linear-gradient6" x1="1053.370075" y1="691.7611236" x2="1245.7521643" y2="696.5196912" gradientTransform="translate(-2.0211913 -1.4655151)" gradientUnits="userSpaceOnUse">
      <stop offset=".6345498" stop-color="#4cee99"/>
      <stop offset=".6881057" stop-color="#50e79e"/>
      <stop offset=".7657894" stop-color="#5ed3ad"/>
      <stop offset=".8581878" stop-color="#74b4c6"/>
      <stop offset=".9610659" stop-color="#9288e8"/>
      <stop offset="1" stop-color="#9f76f7"/>
    </linearGradient>
    <linearGradient id="linear-gradient7" x1="1676.0581538" y1="1224.7532097" x2="2094.7009163" y2="1235.1083311" gradientTransform="matrix(1,0,0,1,0,0)" xlink:href="#linear-gradient2"/>
    <linearGradient id="linear-gradient8" x1="1092.4647976" y1="2019.7220186" x2="1432.7108796" y2="2028.1379994" gradientTransform="matrix(1,0,0,1,0,0)" xlink:href="#linear-gradient"/>
    <linearGradient id="linear-gradient9" x1="1255.5405238" y1="2573.4648207" x2="2459.4459099" y2="2603.2433991" gradientUnits="userSpaceOnUse">
      <stop offset=".1338165" stop-color="#a66cff"/>
      <stop offset=".1822659" stop-color="#b46dff"/>
      <stop offset=".3043423" stop-color="#d471ff"/>
      <stop offset=".4224064" stop-color="#eb74ff"/>
      <stop offset=".5336658" stop-color="#f976ff"/>
      <stop offset=".6309998" stop-color="#fe77ff"/>
      <stop offset=".6763807" stop-color="#fd7efe"/>
      <stop offset=".7429323" stop-color="#fc91fd"/>
      <stop offset=".8225419" stop-color="#fbb2fa"/>
      <stop offset=".911523" stop-color="#f9def7"/>
      <stop offset=".9464194" stop-color="#f9f2f6"/>
    </linearGradient>
    <linearGradient id="linear-gradient10" x1="1212.4168891" y1="1869.8064214" x2="2600.8824585" y2="1904.1500928" gradientTransform="matrix(1,0,0,1,0,0)" xlink:href="#linear-gradient"/>
    <linearGradient id="linear-gradient11" x1="832.5088611" y1="1453.2051904" x2="1276.865104" y2="1464.1963342" gradientTransform="matrix(1,0,0,1,0,0)" xlink:href="#linear-gradient2"/>
    <linearGradient id="linear-gradient12" x1="315.4488505" y1="1624.5699772" x2="1176.4465875" y2="1645.866741" gradientTransform="matrix(1,0,0,1,0,0)" xlink:href="#linear-gradient"/>
    <linearGradient id="linear-gradient13" x1="243.6251792" y1="2023.4371926" x2="469.6138516" y2="2023.4371926" gradientUnits="userSpaceOnUse">
      <stop offset="0" stop-color="#cff500"/>
      <stop offset=".0864116" stop-color="#cff405"/>
      <stop offset=".1907088" stop-color="#d2f413"/>
      <stop offset=".3042576" stop-color="#d6f42c"/>
      <stop offset=".4244538" stop-color="#dcf44e"/>
      <stop offset=".5499072" stop-color="#e3f37a"/>
      <stop offset=".6797011" stop-color="#edf2b0"/>
      <stop offset=".8107629" stop-color="#f7f2ee"/>
      <stop offset=".8260671" stop-color="#f9f2f6"/>
    </linearGradient>
    <linearGradient id="linear-gradient14" x1="296.3664971" y1="2145.4432598" x2="1231.1067794" y2="2168.5640442" gradientUnits="userSpaceOnUse">
      <stop offset="0" stop-color="#1777f2"/>
      <stop offset=".107343" stop-color="#3758f6"/>
      <stop offset=".2427174" stop-color="#5938fa"/>
      <stop offset=".3544844" stop-color="#6e25fd"/>
      <stop offset=".4279984" stop-color="#761efe"/>
      <stop offset=".4767405" stop-color="#711cf4"/>
      <stop offset=".5586481" stop-color="#6519da"/>
      <stop offset=".6636406" stop-color="#5114af"/>
      <stop offset=".7876659" stop-color="#360d74"/>
      <stop offset=".9261042" stop-color="#13052a"/>
      <stop offset="1" stop-color="#000"/>
    </linearGradient>
    <linearGradient id="linear-gradient15" x1="296.6229198" y1="2190.1040175" x2="1224.7645367" y2="2190.1040175" gradientUnits="userSpaceOnUse">
      <stop offset=".1228114" stop-color="#f9f2f6"/>
      <stop offset=".2318935" stop-color="#f6eef6"/>
      <stop offset=".3334896" stop-color="#efe3f6"/>
      <stop offset=".4321478" stop-color="#e4d0f7"/>
      <stop offset=".5290041" stop-color="#d3b5f8"/>
      <stop offset=".624537" stop-color="#be93f9"/>
      <stop offset=".7191087" stop-color="#a469fb"/>
      <stop offset=".8111578" stop-color="#8638fc"/>
      <stop offset=".8562999" stop-color="#761efe"/>
      <stop offset=".909891" stop-color="#751dfc"/>
      <stop offset=".9291982" stop-color="#711cf5"/>
      <stop offset=".9429587" stop-color="#6c1be9"/>
      <stop offset=".9540919" stop-color="#6419d8"/>
      <stop offset=".9636221" stop-color="#5a16c2"/>
      <stop offset=".9720656" stop-color="#4d13a7"/>
      <stop offset=".9797054" stop-color="#3e0f86"/>
      <stop offset=".9867231" stop-color="#2d0b61"/>
      <stop offset=".9932529" stop-color="#190636"/>
      <stop offset=".9990574" stop-color="#030008"/>
      <stop offset="1" stop-color="#000"/>
    </linearGradient>
    <linearGradient id="linear-gradient16" x1="1156.8805751" y1="2156.2191463" x2="1282.7989805" y2="2159.3337358" gradientTransform="matrix(1,0,0,1,0,0)" xlink:href="#linear-gradient6"/>
    <linearGradient id="linear-gradient17" x1="395.6577445" y1="593.2214994" x2="465.5692909" y2="594.9507603" gradientUnits="userSpaceOnUse">
      <stop offset="0" stop-color="#a66cff"/>
      <stop offset=".2050325" stop-color="#79accc"/>
      <stop offset=".3751338" stop-color="#58dba7"/>
      <stop offset=".4597182" stop-color="#4cee99"/>
      <stop offset=".5234695" stop-color="#52ee9c"/>
      <stop offset=".6104211" stop-color="#63eea5"/>
      <stop offset=".7107353" stop-color="#80efb5"/>
      <stop offset=".8210465" stop-color="#a8f0ca"/>
      <stop offset=".9382017" stop-color="#dbf1e5"/>
      <stop offset="1" stop-color="#f9f2f6"/>
    </linearGradient>
    <linearGradient id="linear-gradient18" x1="462.3214224" y1="588.1543764" x2="575.9306852" y2="590.9644995" xlink:href="#linear-gradient17"/>
    <linearGradient id="linear-gradient19" x1="327.7980284" y1="902.2109244" x2="800.3527886" y2="913.899558" gradientUnits="userSpaceOnUse">
      <stop offset="0" stop-color="#4cee99"/>
      <stop offset=".0689551" stop-color="#40d3ac"/>
      <stop offset=".2113105" stop-color="#29a1d2"/>
      <stop offset=".3194245" stop-color="#1c82e9"/>
      <stop offset=".3798146" stop-color="#1777f2"/>
      <stop offset=".8626766" stop-color="#f9f2f6"/>
    </linearGradient>
    <linearGradient id="linear-gradient20" x1="108.346607" y1="715.4224227" x2="938.4112477" y2="657.4833412" gradientUnits="userSpaceOnUse">
      <stop offset=".267038" stop-color="#a66cff"/>
      <stop offset=".4746697" stop-color="#d071ff"/>
      <stop offset=".713355" stop-color="#fe77ff"/>
      <stop offset=".755593" stop-color="#fd7bfe"/>
      <stop offset=".8024341" stop-color="#fd88fd"/>
      <stop offset=".8514932" stop-color="#fc9ffc"/>
      <stop offset=".9020907" stop-color="#fbbef9"/>
      <stop offset=".9533778" stop-color="#f9e5f6"/>
      <stop offset=".9676307" stop-color="#f9f2f6"/>
    </linearGradient>
    <linearGradient id="linear-gradient21" x1="105.0276357" y1="635.2964235" x2="203.8067525" y2="637.7397232" xlink:href="#linear-gradient17"/>
    <linearGradient id="linear-gradient22" x1="199.6425079" y1="635.5348774" x2="268.0256527" y2="637.2263333" xlink:href="#linear-gradient17"/>
    <linearGradient id="linear-gradient23" x1="264.1450697" y1="623.2102453" x2="351.9490289" y2="625.3820747" xlink:href="#linear-gradient17"/>
    <linearGradient id="linear-gradient24" x1="348.204824" y1="615.035441" x2="398.8020946" y2="616.2869636" xlink:href="#linear-gradient17"/>
    <linearGradient id="linear-gradient25" x1="152.6748969" y1="1071.6578958" x2="313.1768652" y2="1075.6279091" xlink:href="#linear-gradient17"/>
    <linearGradient id="linear-gradient26" x1="700.6019405" y1="814.0734281" x2="763.705906" y2="815.6343036" gradientUnits="userSpaceOnUse">
      <stop offset="0" stop-color="#a66cff"/>
      <stop offset=".0254665" stop-color="#896efc"/>
      <stop offset=".0626869" stop-color="#6670f9"/>
      <stop offset=".1022352" stop-color="#4973f6"/>
      <stop offset=".1442397" stop-color="#3374f4"/>
      <stop offset=".1897998" stop-color="#2376f3"/>
      <stop offset=".2415444" stop-color="#1976f2"/>
      <stop offset=".3128315" stop-color="#1777f2"/>
      <stop offset=".9464194" stop-color="#f9f2f6"/>
    </linearGradient>
    <linearGradient id="linear-gradient27" x1="692.5564226" y1="934.4758111" x2="753.3719832" y2="935.980083" xlink:href="#linear-gradient26"/>
    <linearGradient id="linear-gradient28" x1="690.4848396" y1="1086.285653" x2="778.3954853" y2="1088.4601212" gradientUnits="userSpaceOnUse">
      <stop offset="0" stop-color="#4cee99"/>
      <stop offset=".0673666" stop-color="#49e79d"/>
      <stop offset=".1596772" stop-color="#41d6aa"/>
      <stop offset=".2664249" stop-color="#34b9c0"/>
      <stop offset=".3831084" stop-color="#2291de"/>
      <stop offset=".4500884" stop-color="#1777f2"/>
      <stop offset=".5086322" stop-color="#267ff2"/>
      <stop offset=".6226328" stop-color="#4f95f3"/>
      <stop offset=".7808244" stop-color="#92baf4"/>
      <stop offset=".9754123" stop-color="#edebf5"/>
      <stop offset="1" stop-color="#f9f2f6"/>
    </linearGradient>
    <linearGradient id="linear-gradient29" x1="776.085302" y1="1034.563933" x2="918.7612144" y2="1038.0930192" gradientUnits="userSpaceOnUse">
      <stop offset="0" stop-color="#4cee99"/>
      <stop offset=".2429784" stop-color="#32b5c3"/>
      <stop offset=".4952693" stop-color="#1777f2"/>
      <stop offset=".5678827" stop-color="#3185f2"/>
      <stop offset=".7236855" stop-color="#74aaf3"/>
      <stop offset=".9488207" stop-color="#dfe4f5"/>
      <stop offset="1" stop-color="#f9f2f6"/>
    </linearGradient>
    <linearGradient id="linear-gradient30" x1="1430.2537488" y1="1639.0587671" x2="2495.4139649" y2="1665.4054862" gradientTransform="matrix(1,0,0,1,0,0)" xlink:href="#linear-gradient2"/>
    <linearGradient id="linear-gradient31" x1="1481.5376588" y1="1640.3271194" x2="2444.1356615" y2="1664.136964" xlink:href="#linear-gradient3"/>
    <linearGradient id="linear-gradient32" x1="1301.1476009" y1="2149.5450518" x2="1949.0386676" y2="2165.5706258" gradientUnits="userSpaceOnUse">
      <stop offset="0" stop-color="#1777f2"/>
      <stop offset=".1184043" stop-color="#3758f6"/>
      <stop offset=".2677285" stop-color="#5938fa"/>
      <stop offset=".3910126" stop-color="#6e25fd"/>
      <stop offset=".472102" stop-color="#761efe"/>
      <stop offset=".5189945" stop-color="#701cf1"/>
      <stop offset=".6046709" stop-color="#6018d0"/>
      <stop offset=".7195514" stop-color="#48129b"/>
      <stop offset=".8594198" stop-color="#250951"/>
      <stop offset="1" stop-color="#000"/>
    </linearGradient>
    <linearGradient id="linear-gradient33" x1="-1474.9855545" y1="1535.2700141" x2="-1030.6293116" y2="1546.2611579" gradientTransform="translate(1534.8829873) rotate(-180) scale(1 -1)" xlink:href="#linear-gradient2"/>
    <linearGradient id="linear-gradient34" x1="-1992.0455651" y1="1706.6348009" x2="-1131.047828" y2="1727.9315647" gradientTransform="translate(1534.8829873) rotate(-180) scale(1 -1)" xlink:href="#linear-gradient"/>
    <linearGradient id="linear-gradient35" x1="-2063.8692363" y1="2105.5020163" x2="-1837.880564" y2="2105.5020163" gradientTransform="translate(1534.8829873) rotate(-180) scale(1 -1)" xlink:href="#linear-gradient13"/>
    <linearGradient id="linear-gradient36" x1="-2011.1279185" y1="2227.5080835" x2="-1076.3876361" y2="2250.6288679" gradientTransform="translate(1534.8829873) rotate(-180) scale(1 -1)" xlink:href="#linear-gradient14"/>
    <linearGradient id="linear-gradient37" x1="-2010.8714962" y1="2272.1688411" x2="-1082.7298793" y2="2272.1688411" gradientTransform="translate(1534.8829873) rotate(-180) scale(1 -1)" xlink:href="#linear-gradient15"/>
    <linearGradient id="linear-gradient38" x1="-1150.6138404" y1="2238.2839699" x2="-1024.6954351" y2="2241.3985595" gradientTransform="translate(1534.8829873) rotate(-180) scale(1 -1)" xlink:href="#linear-gradient6"/>
    <linearGradient id="linear-gradient39" x1="610.0956885" y1="2170.061258" x2="1257.9867552" y2="2186.0868321" gradientTransform="translate(3213.2269814) rotate(-180) scale(1 -1)" xlink:href="#linear-gradient32"/>
    <linearGradient id="linear-gradient40" x1="1569.067457" y1="674.5769634" x2="1879.6931329" y2="674.5769634" gradientUnits="userSpaceOnUse">
      <stop offset="0" stop-color="#a66cff"/>
      <stop offset=".0242472" stop-color="#9b7bf2"/>
      <stop offset=".0869947" stop-color="#829ed7"/>
      <stop offset=".1536651" stop-color="#6ebbc0"/>
      <stop offset=".2244983" stop-color="#5fd1af"/>
      <stop offset=".301311" stop-color="#54e1a2"/>
      <stop offset=".38856" stop-color="#4eeb9b"/>
      <stop offset=".5087719" stop-color="#4cee99"/>
      <stop offset=".6209649" stop-color="#7fefb4"/>
      <stop offset=".7756351" stop-color="#c0f0d7"/>
      <stop offset=".8883851" stop-color="#e9f1ed"/>
      <stop offset=".9464194" stop-color="#f9f2f6"/>
    </linearGradient>
    <linearGradient id="linear-gradient41" x1="2122.9128544" y1="717.2478781" x2="2344.5697729" y2="717.2478781" gradientUnits="userSpaceOnUse">
      <stop offset="0" stop-color="#4cee99"/>
      <stop offset=".242619" stop-color="#7fefb4"/>
      <stop offset=".5770958" stop-color="#c0f0d7"/>
      <stop offset=".8209193" stop-color="#e9f1ed"/>
      <stop offset=".9464194" stop-color="#f9f2f6"/>
    </linearGradient>
    <linearGradient id="linear-gradient42" x1="2479.8834368" y1="1080.5538334" x2="2549.7949832" y2="1082.2830943" gradientTransform="translate(5784.7338996 1913.0146657) rotate(178.2816636) scale(1 1.0398369)" xlink:href="#linear-gradient17"/>
    <linearGradient id="linear-gradient43" x1="2546.5471147" y1="1075.4867104" x2="2660.1563775" y2="1078.2968335" gradientTransform="translate(5784.7338996 1913.0146657) rotate(178.2816636) scale(1 1.0398369)" xlink:href="#linear-gradient17"/>
    <linearGradient id="linear-gradient44" x1="2412.0237208" y1="1389.5432584" x2="2884.5784809" y2="1401.231892" gradientTransform="translate(5784.7338996 1913.0146657) rotate(178.2816636) scale(1 1.0398369)" xlink:href="#linear-gradient19"/>
    <linearGradient id="linear-gradient45" x1="2192.5722993" y1="1202.7547567" x2="3022.63694" y2="1144.8156752" gradientTransform="translate(5784.7338996 1913.0146657) rotate(178.2816636) scale(1 1.0398369)" xlink:href="#linear-gradient20"/>
    <linearGradient id="linear-gradient46" x1="2189.253328" y1="1122.6287575" x2="2288.0324448" y2="1125.0720572" gradientTransform="translate(5784.7338996 1913.0146657) rotate(178.2816636) scale(1 1.0398369)" xlink:href="#linear-gradient17"/>
    <linearGradient id="linear-gradient47" x1="2283.8682003" y1="1122.8672114" x2="2352.2513451" y2="1124.5586673" gradientTransform="translate(5784.7338996 1913.0146657) rotate(178.2816636) scale(1 1.0398369)" xlink:href="#linear-gradient17"/>
    <linearGradient id="linear-gradient48" x1="2348.370762" y1="1110.5425793" x2="2436.1747213" y2="1112.7144087" gradientTransform="translate(5784.7338996 1913.0146657) rotate(178.2816636) scale(1 1.0398369)" xlink:href="#linear-gradient17"/>
    <linearGradient id="linear-gradient49" x1="2432.4305163" y1="1102.367775" x2="2483.0277869" y2="1103.6192976" gradientTransform="translate(5784.7338996 1913.0146657) rotate(178.2816636) scale(1 1.0398369)" xlink:href="#linear-gradient17"/>
    <linearGradient id="linear-gradient50" x1="2236.9005892" y1="1558.9902298" x2="2397.4025575" y2="1562.9602431" gradientTransform="translate(5784.7338996 1913.0146657) rotate(178.2816636) scale(1 1.0398369)" xlink:href="#linear-gradient17"/>
    <linearGradient id="linear-gradient51" x1="2784.8276328" y1="1301.4057621" x2="2847.9315984" y2="1302.9666376" gradientTransform="translate(5784.7338996 1913.0146657) rotate(178.2816636) scale(1 1.0398369)" xlink:href="#linear-gradient26"/>
    <linearGradient id="linear-gradient52" x1="2776.7821149" y1="1421.8081451" x2="2837.5976756" y2="1423.312417" gradientTransform="translate(5784.7338996 1913.0146657) rotate(178.2816636) scale(1 1.0398369)" xlink:href="#linear-gradient26"/>
    <linearGradient id="linear-gradient53" x1="2774.7105319" y1="1573.617987" x2="2862.6211776" y2="1575.7924552" gradientTransform="translate(5784.7338996 1913.0146657) rotate(178.2816636) scale(1 1.0398369)" xlink:href="#linear-gradient28"/>
    <linearGradient id="linear-gradient54" x1="2860.3109944" y1="1521.896267" x2="3002.9869067" y2="1525.4253532" gradientTransform="translate(5784.7338996 1913.0146657) rotate(178.2816636) scale(1 1.0398369)" xlink:href="#linear-gradient29"/>
  </defs>
  <g id="Background">
    <rect width="3700" height="3000"/>
  </g>
  <g id="Graphics">
    <g>
      <path d="M2205.4458002,1234.8789016l-687.442754-16.6953489c-140.9863947-3.424019-261.8238095-129.0034659-269.8979203-280.4895451l-23.0227885-431.9524572c-8.0741107-151.4860793,99.6725842-271.5140945,240.6589789-268.0900755l687.442754,16.6953489c140.9863947,3.424019,261.8238095,129.0034659,269.8979203,280.4895451l23.0227885,431.9524572c8.0741107,151.4860793-99.6725842,271.5140945-240.6589789,268.0900755Z" fill="url(#linear-gradient)"/>
      <path d="M2389.5715351,483.0686606h66.3371296c33.8319136,0,61.299135,27.4672214,61.299135,61.299135v291.961807c0,33.8319136-27.4672214,61.299135-61.299135,61.299135h-66.3371296v-414.560077h0Z" transform="translate(-47.5270503 199.311269) rotate(-4.6075228)" fill="url(#linear-gradient1)"/>
      <path d="M2236.8089859,1121.1710704l-598.0119621-14.7918153c-122.6451948-3.0336267-227.7626306-114.2950326-234.7863643-248.5093055l-20.0277082-382.7030525c-7.0237336-134.2142729,86.70598-240.557198,209.3511748-237.5235713l598.0119621,14.7918153c122.6451948,3.0336267,227.7626306,114.2950326,234.7863643,248.5093055l20.0277082,382.7030525c7.0237336,134.2142729-86.70598,240.557198-209.3511748,237.5235713Z" fill="url(#linear-gradient2)"/>
      <path d="M2204.300483,1056.8861739c-4.6570936.2667207-9.3757959.3487404-14.1458388.2257734l-67.2417898-1.6619329-422.2852269-10.4529468-21.7676644-.5334414c-40.0680851-.9847378-77.9410463-15.4897104-109.7925061-39.4320877-51.5058949-38.7244013-87.2348225-102.1400013-90.9482507-173.044004l-17.1207137-327.2026802c-6.0010904-114.7471873,74.1352049-205.6749644,178.9936286-203.0796969l99.2676824,2.4517016,140.4333294,3.4775119,271.5935441,6.7190449c51.8855649,1.2822629,100.0986489,25.2144346,136.2994091,62.9745091,26.5582436,27.7071461,46.6436893,62.8411488,56.9836868,101.9347641,4.0417577,15.3153402,6.5960153,31.235936,7.4473928,47.5565503l17.1311071,327.2129483c5.7239764,109.5257854-67.0264097,197.3556579-164.8477898,202.8539861Z" fill="url(#linear-gradient3)"/>
      <path d="M1201.6216085,447.2836418h88.7481628c41.6342278,0,75.4359384,33.8017106,75.4359384,75.4359384v337.2430185c0,41.6342278-33.8017106,75.4359384-75.4359384,75.4359384h-88.7481628v-488.1148952h0Z" transform="translate(-20.1534256 38.8045879) rotate(-1.7183406)" fill="url(#linear-gradient4)"/>
      <ellipse cx="1197.8072857" cy="693.9182545" rx="110.9352035" ry="246.2761517" transform="translate(-20.2695053 36.2300541) rotate(-1.7183553)" fill="url(#linear-gradient5)"/>
      <ellipse cx="1197.8072857" cy="693.9182545" rx="62.1617646" ry="137.9991175" transform="translate(-20.2695053 36.2300541) rotate(-1.7183553)" fill="url(#linear-gradient6)"/>
      <ellipse cx="1197.8072857" cy="693.9182545" rx="22.3846363" ry="49.6938925" transform="translate(-20.2695053 36.2300541) rotate(-1.7183553)"/>
      <path d="M2093.2949449,1291.9497464l-417.4601902-24.8870498v-32.4531999c0-37.9247587,32.2860927-67.8226859,70.0991435-64.9139897l287.2486708,22.0960516c33.9199165,2.6092243,60.1123759,30.8938664,60.1123759,64.9139897v35.2441981Z" fill="url(#linear-gradient7)"/>
      <path d="M1233.3758498,1328.3347196l-107.9687798,212.1625155c-20.0507751,39.4004905-27.4991717,84.0142215-21.3351506,127.7913511l147.8801807,1050.2510793,169.7811136-246.5903184-188.3573639-1143.6146274Z" fill="url(#linear-gradient8)"/>
      <path d="M1251.9521001,2718.5396655l974.7567338,26.9932634c42.9241419,1.1886685,83.4943938-19.5807343,107.6272442-55.0983416l127.598219-187.7931268-1040.2010833-73.1126959-169.7811136,289.0109009Z" fill="url(#linear-gradient9)"/>
      <path d="M1388.5950826,1231.7581502l1082.4912148,78.5763624c85.4581815,6.2032772,148.7569688,78.5454048,140.0523181,160.0612443l-100.3172216,939.433732c-8.2750584,77.4928663-78.846269,135.051815-160.1907773,130.6540252l-856.1760938-46.2880963c-73.5252569-3.9750516-133.5556175-57.6544478-142.6156794-127.5275291l-125.9978994-971.7219981c-11.8430245-91.3358677,66.7669787-170.1552999,162.7541387-163.1877404Z" fill="url(#linear-gradient10)"/>
      <path d="M1281.8348685,1263.2758541s-196.8668445-140.7186079-447.3429586,109.7575062c0,0,166.0886629,153.8388675,289.0109009,324.3344554l128.4492893-101.0472592s-36.5714301-288.6630614,29.8827684-333.0447024Z" fill="url(#linear-gradient11)"/>
      <path d="M767.0560331,1328.3347196s279.399051,100.1123809,407.7989572,381.878025l-138.0554497,199.0963984-728.9497167,22.4786256s28.9010901-227.4802673,459.2062092-603.453049Z" fill="url(#linear-gradient12)"/>
      <circle cx="356.6195154" cy="2023.4371926" r="112.9943362" fill="url(#linear-gradient13)"/>
      <path d="M366.3798733,1787.9864502c35.5463203-4.4621745,71.4891384-5.1681436,107.2822424-4.7364955,42.822606.6458299,86.1210366,3.8408874,128.6977603,8.7865007,149.3620428,17.8748639,296.192946,58.1902976,434.4397373,117.2724655-57.0306865-21.177168-114.7700158-40.1928794-173.1871504-56.83447-78.9228011-22.1345233-159.6352886-39.7541982-240.8071977-51.2102897-84.807793-11.677342-170.8338957-18.6482943-256.4253919-13.277711h0Z" fill="#f9f2f6"/>
      <path d="M1224.6517126,1886.0281504v543.5050242H365.6484135s-20.3007632-36.0673999-38.8781727-95.3284807c-22.1061994-70.4833854-41.7709652-173.7621463-21.9831071-288.2013527,8.9450357-51.7112573,25.952988-105.699533,54.4397599-159.9751909h865.424819Z" fill="url(#linear-gradient14)"/>
      <path d="M1224.7645367,2222.6170198c-.0410099-.0102681-.0718142-.0308044-.1128241-.0410725-31.5539347-11.8276228-55.896393-40.2938585-90.5687685-38.6319256-42.5506537,2.0310844-62.4513359,47.4745306-103.0836667,57.9480136-52.5112316,13.5303777-101.9758366-37.5139527-156.6515129-32.1181805-51.8444298,5.1187834-77.3768631,56.4606388-125.6207514,72.7301003-30.333218,10.2270482-65.2723142,4.9339572-96.0055506-4.5034474-30.7230309-9.4374046-59.7124399-22.8756197-91.5946414-29.3074703-52.4394173-10.5658961-110.5926055-.3077932-152.9585583,26.9685928-28.3123391,18.2389371-51.1468864,44.0687703-81.398022,58.5430637-22.1061994-70.4833854-41.7709652-173.7621463-21.9831071-288.2013527,18.1260504,18.5978205,39.1448934,35.3185784,62.4718095,49.5672236,10.5042874,6.421332,21.8087369,12.4634949,34.6416337,14.7715681,40.2630541,7.2522985,74.8533473-23.1526085,114.2650239-33.0002371,51.3520609-12.8431649,105.4224816,10.5451095,147.9834034,37.2061595,23.6449148,14.8023725,53.1164246,31.8922818,80.505572,22.2703015,13.5714502-4.7701681,22.6191045-15.1206842,32.7951251-23.8500894,49.567161-42.5405734,140.8335357-46.5205971,195.7041184-8.5348118,29.9844149,20.7521223,56.5734003,53.9474536,95.69782,50.428744,11.1505529-1.0052741,21.5112745-5.1290515,32.4976627-6.9753097,26.9480565-4.5445199,55.1270353,5.3033591,75.4791391,20.3827204,20.2905577,15.0382888,34.2312846,34.7748689,47.823271,54.18337.0410099.0510902.0718142.1126989.1128241.1640395Z" fill="url(#linear-gradient15)"/>
      <ellipse cx="1219.8397778" cy="2157.776441" rx="62.6327967" ry="271.7523236" fill="url(#linear-gradient16)"/>
      <ellipse cx="1219.8397778" cy="2157.776441" rx="32.1123223" ry="139.3295314"/>
      <g>
        <polygon points="463.4129928 544.023747 463.4129928 682.1268133 397.8140426 656.2324955 397.8140426 506.0454464 463.4129928 544.023747" fill="url(#linear-gradient17)"/>
        <polygon points="577.3479619 533.6660286 463.4129928 682.1268133 463.4129928 544.023747 522.10673 495.687728 577.3479619 533.6660286" fill="url(#linear-gradient18)"/>
        <polygon points="324.310048 1200.0131696 723.6009559 776.9699297 806.5126804 664.8639348 734.0085905 614.3700151 324.310048 1043.2249904 324.310048 1200.0131696" fill="url(#linear-gradient19)"/>
        <path d="M885.3275648,699.0233228l40.2368886-65.2053532-41.4846589-58.7786901,55.4270241-69.1290037-45.6536764-48.5652301s38.6774834-55.0549516,38.7133731-55.1063458c10.7193617-15.7352792-105.5449547-109.342804-113.5382571-103.3478222-.0034242.0025682-55.2412317,41.4309406-55.2412317,41.4309406l-51.7885917-41.4309407-69.0515229,58.6938046-62.1463774-36.6875154-65.5989502,43.5926609-62.1463101-43.5926609-75.9566685,57.4029521-51.788659-34.5257278-217.5122872,179.5339193,93.2195997,56.6473294,65.5988828-56.6473294,82.8618141,40.2562083,48.3360863-57.5190722,65.5989502,37.9783006,58.6937373-48.3360189,55.2412318,37.9783006-407.4039248,414.3091377,72.7154943,44.8682841,81.6505167,50.38154,384.2956582-397.8925435,56.4246721,39.7623739-63.1451111,77.0955456,62.0971999,42.2629698-70.1964744,80.3127124,59.7721759,43.6868261-60.5489147,55.7743131,82.861817,58.9978026,142.9338416-161.0908428-38.6053496-48.830388,53.6610549-75.7669719-48.533053-58.5134649Z" fill="url(#linear-gradient20)"/>
        <path d="M107.7976597,523.3083103v160.5447909s94.9458437,70.777802,93.2195558,65.5989385.0000439-169.4964.0000439-169.4964l-93.2195997-56.6473294Z" fill="url(#linear-gradient21)"/>
        <polygon points="266.6161423 523.3083103 266.6161423 694.2108283 201.0172155 749.4520397 201.0172594 579.9556397 266.6161423 523.3083103" fill="url(#linear-gradient22)"/>
        <polygon points="266.6161423 694.2108283 349.4779563 725.2840097 349.4779563 563.5645186 266.6161423 523.3083103 266.6161423 694.2108283" fill="url(#linear-gradient23)"/>
        <polygon points="397.8140426 506.0454464 397.8140426 656.2324955 349.4779563 725.2840097 349.4779563 563.5645186 397.8140426 506.0454464" fill="url(#linear-gradient24)"/>
        <polygon points="324.310048 1043.2249904 324.310048 1200.0131696 166.7071904 1089.4792195 169.9440371 947.9751663 324.310048 1043.2249904" fill="url(#linear-gradient25)"/>
        <polygon points="701.8852671 762.1903664 709.9954615 866.2205815 763.982467 804.4533362 701.8852671 762.1903664" fill="url(#linear-gradient26)"/>
        <polygon points="693.7859927 884.7660487 693.0092539 984.2271878 753.5581686 928.4528747 693.7859927 884.7660487" fill="url(#linear-gradient27)"/>
        <polygon points="775.8710709 1043.2249904 775.8710709 1190.5185864 693.0092539 1133.5510872 693.0092539 984.2271878 775.8710709 1043.2249904" fill="url(#linear-gradient28)"/>
        <polygon points="918.8049125 882.1341476 918.8049125 1036.326367 775.8710709 1190.5185864 775.8710709 1043.2249904 918.8049125 882.1341476" fill="url(#linear-gradient29)"/>
      </g>
      <path d="M2326.8655294,1935.5366454c-2.705775,0-5.4516207-.0721273-8.1593993-.2143783l-727.330054-38.1733664c-78.7624959-4.134296-141.4335946-66.6375985-145.7787627-145.3885742l-12.1684743-220.5381943c-2.3571598-42.7073677,12.5301125-83.3295556,41.9189764-114.3848604,28.9866541-30.6300543,69.7395728-48.1975565,111.810317-48.1975565,2.96924,0,5.9825577.0866529,8.9563056.2569535l756.44243,43.4211273c41.7086052,2.3942252,79.8048354,21.0481447,107.2723086,52.5261955,27.4674732,31.4775499,40.7889823,71.7506217,37.5111978,113.3991208l-16.9428999,215.2909342c-3.0583973,38.8555703-20.5232183,74.7990014-49.1767846,101.2066041-28.5443736,26.307426-65.6057776,40.7959946-104.3551605,40.7959946Z" fill="url(#linear-gradient30)"/>
      <path d="M1593.1747054,1420.1029552l756.4427865,43.4211871c57.5323351,3.3024603,101.1118824,53.2455794,96.5906292,110.6949841l-16.9433594,215.2911729c-4.3723461,55.5573126-52.2172362,97.512977-107.8697348,94.5920533l-727.3308173-38.1739892c-52.4305502-2.7518197-94.362001-44.5708766-97.254535-96.993852l-12.1686098-220.5383709c-3.3795873-61.2501091,47.2911778-111.8086136,108.5336406-108.2931853Z" fill="url(#linear-gradient31)"/>
      <path d="M1302.1423068,2109.6048843c1.0289153-65.2446916,39.7590962-124.5245143,99.8063349-150.063848,1.1259554-.4788922,2.2568578-.9457616,3.3925362-1.4004379,47.8929891-19.1742699,106.2453498-19.3316097,141.2881039-58.159,16.4596258-18.2372828,32.0381061-46.2909952,55.7225592-41.5602867,12.2944441,2.4556707,21.1968527,13.9620528,25.5884221,26.0895063,10.2267529,28.2414831,1.3484832,60.1363277-12.095874,86.8966762s-31.4524196,51.2486834-41.1168148,79.7011973c-3.4867549,10.265215-5.6346209,22.3567877.1094497,31.4720241,3.7647925,5.974329,10.2222381,9.4581525,16.5228641,12.3550535,82.650711,38.0011331,178.9784852,17.0604749,264.5028943-13.3889532,18.5096874-6.5900414,40.5257592-13.1423803,56.3113579-1.1693358,20.8288358,15.7982334,13.0563847,51.1510661-4.6752005,70.5759785-17.7315852,19.4249124-33.9504006,28.9061481-68.2677222,48.0932018,28.1229644-1.0995628,65.9891713-24.0014181,91.1601343-10.9829064,25.7231158,13.3040821,19.0272656,53.6741159,3.5577927,78.7493555-19.4335324,31.5007825-46.1730626,60.7590318-92.1661331,74.3510367,23.2976768-2.087609,64.8291174-.8787195,78.3755732,18.8351578,13.1974103,19.2059102,3.7753531,47.7410025-14.0970866,62.3528395s-41.4297831,18.8808338-63.9205381,22.6388553c0,0-280.0346767,56.4575826-467.2111989-66.7871127-47.5361697-31.2997628-75.6857958-84.8118653-74.7883459-141.7201877l2.0008915-126.8788141Z" fill="url(#linear-gradient32)"/>
      <circle cx="1632.4831196" cy="2204.7425084" r="30.5067062" fill="#f9f2f6"/>
      <circle cx="1632.4831196" cy="2297.0654351" r="30.5067062" fill="#f9f2f6"/>
      <circle cx="1632.4831196" cy="2380.1560691" r="30.5067062" fill="#f9f2f6"/>
      <path d="M1873.548584,2179.8596191c-7.7049527,7.0215638-16.8013053,12.4519185-25.9144263,17.4909635-4.0499997,1.995022-9.2391496,4.769599-13.3963467,6.4460287-30.1547291,13.3103971-63.1663009,20.3477788-95.9368674,22.8866981-8.751566.5635678-17.5495852,1.1531512-26.3216968.9897215-12.6946772.1594804-26.8077943-.7984946-39.3555869-2.0577096,8.7514622-.7005264,17.4621555-1.0003311,26.1528293-1.4712784,6.3589561-.5309364,16.5519601-1.3401933,22.7544825-1.763604,7.4920494-.9484489,15.1311039-1.6492604,22.615775-2.5922279,27.7212368-3.8082361,55.5729985-9.4873504,82.1015338-18.474808,16.350772-5.7464876,32.5098146-12.231213,47.3003034-21.4537839h0Z" fill="#f9f2f6"/>
      <path d="M1905.1407471,2303.9401855c-38.9531011,41.43864-106.255702,58.1151009-161.5453245,58.2197194-19.5166872.1479564-39.0065553-1.4255299-58.1269167-4.8837819,57.5146703,1.8953912,116.2584354-2.3237755,169.849584-24.6197945,17.6636508-7.4700965,34.9530548-16.4859961,49.8226572-28.716143h0Z" fill="#f9f2f6"/>
      <path d="M696.2810059,1392.1296387c97.0524459,36.3179019,183.69791,97.5239659,258.3330317,168.7929464,29.6748901,28.9983495,58.0182987,60.5570316,83.1343174,93.5837476,31.9013739,41.734613,59.8322713,86.5608266,83.1776515,133.4800477-50.2711412-88.2599413-113.106467-169.1515786-187.9063035-237.8621386-70.3189372-63.9864746-149.4286847-119.7171537-236.738697-157.9946031h0Z" fill="#f9f2f6"/>
      <path d="M580.6197205,1506.7701416c31.4059532,5.8829257,62.0157161,15.5415437,92.0803965,26.2581401,23.9606896,8.6454403,47.815882,18.4960015,71.0209666,29.0220221,87.1378999,39.9016398,169.2219284,91.3763455,244.1748631,151.0117293,40.0251348,31.8189485,78.2208135,65.9120881,114.0706671,102.2664582-37.8637695-34.2471924-76.9206543-67.0612793-117.4243164-97.9545898-40.2780578-30.7871528-82.7000583-59.8579157-125.9292355-86.3101411-86.9488264-52.3070302-179.5834216-98.1966683-277.9933414-124.2936186h0Z" fill="#f9f2f6"/>
      <path d="M456.606575,1652.0880127c112.9961286,3.1259315,225.2002239,25.7192115,332.2243045,61.7208662,25.4098074,8.8404443,52.0614989,19.0258331,76.7332865,29.7109086,21.233506,9.412175,44.4259146,20.1655185,64.8785399,31.2119939,30.1347832,15.6667836,59.8252892,34.0326203,87.8443077,53.2967705,9.085148,6.6860198,24.2545873,17.3800628,32.9323254,24.554196.0001434.0000157,16.0160736,12.8333897,16.0160736,12.8333897l-16.6502686-11.9871826-8.293335-6.0195312-8.5180054-5.7026367c-8.4396608-5.8685419-25.5943975-16.9666305-34.3859189-22.2547681-63.6106184-39.3038995-132.6424037-70.9100215-203.1680039-95.6634563-109.4890566-38.0842196-224.0194906-62.5374112-339.6133059-71.70055h0Z" fill="#f9f2f6"/>
      <path d="M2560.5425344,1345.3406778s196.8668445-140.7186079,447.3429586,109.7575062c0,0-166.0886629,153.8388675-289.0109009,324.3344554l-128.4492893-101.0472593s36.5714301-288.6630614-29.8827684-333.0447024Z" fill="url(#linear-gradient33)"/>
      <path d="M3075.3213698,1410.3995433s-279.399051,100.1123808-407.7989572,381.878025l138.0554497,199.0963984,728.9497167,22.4786257s-28.9010901-227.4802673-459.2062092-603.453049Z" fill="url(#linear-gradient34)"/>
      <circle cx="3485.7578875" cy="2105.5020163" r="112.9943362" fill="url(#linear-gradient35)"/>
      <path d="M3475.9975586,1870.0512695c-85.5916625-5.3706496-171.6177881,1.6005479-256.4255662,13.2768783-81.1687487,11.4564728-161.8880426,29.0773105-240.8070679,51.2111761-58.4168589,16.6414972-116.1562243,35.657158-173.1870184,56.8347708,138.2453301-59.0821742,285.078733-99.3982645,434.4396267-117.2730339,42.5782763-4.9441266,85.866818-8.1403431,128.6977762-8.7859226,35.7933788-.4322811,71.7359929.2740928,107.2822495,4.7361312h0Z" fill="#f9f2f6"/>
      <path d="M2617.7256903,1968.092974v543.5050242s859.0032991,0,859.0032991,0c0,0,20.3007632-36.0673999,38.8781727-95.3284807,22.1061994-70.4833854,41.7709652-173.7621463,21.9831072-288.2013527-8.9450357-51.7112573-25.952988-105.699533-54.4397599-159.9751909h-865.424819Z" fill="url(#linear-gradient36)"/>
      <path d="M2617.6128662,2304.6818435c.0410099-.0102681.0718142-.0308044.1128241-.0410725,31.5539347-11.8276228,55.896393-40.2938585,90.5687685-38.6319256,42.5506537,2.0310844,62.4513358,47.4745306,103.0836667,57.9480136,52.5112316,13.5303777,101.9758366-37.5139527,156.6515129-32.1181805,51.8444298,5.1187834,77.3768631,56.4606388,125.6207514,72.7301003,30.333218,10.2270482,65.2723142,4.9339572,96.0055506-4.5034474,30.7230309-9.4374046,59.7124399-22.8756197,91.5946414-29.3074703,52.4394173-10.5658961,110.5926055-.3077932,152.9585583,26.9685928,28.3123391,18.2389371,51.1468863,44.0687703,81.398022,58.5430637,22.1061994-70.4833854,41.7709652-173.7621463,21.9831072-288.2013527-18.1260504,18.5978205-39.1448934,35.3185784-62.4718095,49.5672236-10.5042874,6.421332-21.8087369,12.4634949-34.6416337,14.7715681-40.2630541,7.2522985-74.8533473-23.1526085-114.2650239-33.0002371-51.3520609-12.8431649-105.4224816,10.5451095-147.9834034,37.2061595-23.6449148,14.8023725-53.1164246,31.8922818-80.505572,22.2703015-13.5714502-4.7701681-22.6191045-15.1206842-32.7951251-23.8500894-49.567161-42.5405734-140.8335357-46.5205971-195.7041184-8.5348118-29.9844149,20.7521223-56.5734003,53.9474536-95.69782,50.428744-11.1505529-1.0052741-21.5112745-5.1290515-32.4976627-6.9753097-26.9480565-4.5445199-55.1270353,5.3033591-75.4791391,20.3827204-20.2905577,15.0382888-34.2312846,34.7748689-47.823271,54.18337-.0410099.0510902-.0718142.1126989-.1128241.1640395Z" fill="url(#linear-gradient37)"/>
      <ellipse cx="2622.5376251" cy="2239.8412647" rx="62.6327967" ry="271.7523236" fill="url(#linear-gradient38)"/>
      <ellipse cx="2622.5376251" cy="2239.8412647" rx="32.1123223" ry="139.3295314"/>
      <path d="M3146.0964355,1474.194458c-87.3086573,38.2763794-166.4207171,94.0089345-236.7394065,157.9937526-74.8003539,68.7128775-137.6329854,149.6013329-187.9053681,237.8632556,23.344554-46.9188518,51.2761252-91.7459875,83.1771202-133.4803826,25.1160268-33.025898,53.4596771-64.5860582,83.1352714-93.5826769,74.6337971-71.2699483,161.2807382-132.4764382,258.332383-168.7939487h0Z" fill="#f9f2f6"/>
      <path d="M3261.7575684,1588.8349609c-98.4081836,26.096365-191.0451762,71.9868995-277.9934823,124.2927914-43.2257463,26.4508772-85.6557381,55.5269538-125.9288759,86.3109896-40.5036672,30.8932893-79.5605519,63.7074983-117.4245656,97.9545686,35.8500977-36.3543701,74.0456543-70.4475098,114.0708008-102.2663574,74.9513676-59.6343999,157.0384209-111.1110742,244.1747482-151.01192,23.2057431-10.5257081,47.0572313-20.3751125,71.0210549-29.0217348,30.0651714-10.717031,60.6743492-20.3753019,92.08032-26.2583374h0Z" fill="#f9f2f6"/>
      <path d="M3385.770752,1734.152832c-115.5926542,9.1627915-230.1252097,33.6166745-339.6134304,71.699935-70.5247791,24.7539419-139.5574658,56.3601118-203.1678884,95.663697-8.6812959,5.2189602-26.0525328,16.4568779-34.3857449,22.2553554-.0001726-.000213-8.518239,5.7024238-8.518239,5.7024238l-8.2932129,6.0195312-16.6501465,11.9871826,16.0158691-12.833374c8.720271-7.1830449,23.6823937-17.7703386,32.9324749-24.5543509,28.0453384-19.2771836,57.6950344-37.6213407,87.8442375-53.2966979,20.4571723-11.0477735,43.6417159-21.7985717,64.8786202-31.2118395,24.6673598-10.6841598,51.3291871-20.8729701,76.7333978-29.7100479,107.0242866-36.0028405,219.2275739-58.5956696,332.2240626-61.7218149h0Z" fill="#f9f2f6"/>
      <path d="M2602.1365865,2130.1210902c-1.0289153-65.2446916-39.7590962-124.5245143-99.8063349-150.063848-1.1259554-.4788922-2.2568578-.9457616-3.3925362-1.4004379-47.8929891-19.1742699-106.2453498-19.3316097-141.2881039-58.159-16.4596258-18.2372828-32.0381061-46.2909952-55.7225591-41.5602867-12.2944441,2.4556707-21.1968527,13.9620528-25.5884221,26.0895063-10.2267529,28.2414831-1.3484832,60.1363277,12.0958739,86.8966762,13.4443571,26.7603486,31.4524196,51.2486834,41.1168148,79.7011973,3.4867549,10.265215,5.6346209,22.3567877-.1094497,31.4720241-3.7647925,5.974329-10.2222381,9.4581525-16.5228641,12.3550535-82.650711,38.0011331-178.9784852,17.0604749-264.5028943-13.3889532-18.5096874-6.5900414-40.5257592-13.1423803-56.3113579-1.1693358-20.8288358,15.7982334-13.0563847,51.1510661,4.6752005,70.5759785,17.7315852,19.4249124,33.9504006,28.9061481,68.2677222,48.0932018-28.1229644-1.0995628-65.9891713-24.0014181-91.1601343-10.9829064-25.7231158,13.3040821-19.0272656,53.6741159-3.5577927,78.7493555,19.4335324,31.5007825,46.1730626,60.7590318,92.1661331,74.3510367-23.2976768-2.087609-64.8291174-.8787195-78.3755732,18.8351578-13.1974103,19.2059102-3.7753531,47.7410025,14.0970866,62.3528395,17.8724397,14.611837,41.4297831,18.8808338,63.9205381,22.6388553,0,0,280.0346767,56.4575826,467.2111989-66.7871127,47.5361697-31.2997628,75.6857958-84.8118653,74.7883459-141.7201877l-2.0008915-126.8788141Z" fill="url(#linear-gradient39)"/>
      <circle cx="2271.7957737" cy="2225.2587143" r="30.5067062" fill="#f9f2f6"/>
      <circle cx="2271.7957737" cy="2317.581641" r="30.5067062" fill="#f9f2f6"/>
      <circle cx="2271.7957737" cy="2400.672275" r="30.5067062" fill="#f9f2f6"/>
      <path d="M2030.7303467,2200.3757324c14.7898767,9.2227654,30.9498299,15.7072382,47.3002655,21.4539052,26.5253865,8.986785,54.3831563,14.6674053,82.1016037,18.4744516,7.4830692.9430792,15.1256587,1.6443273,22.6156949,2.592753,6.1913743.4308252,16.4852185,1.2332016,22.7549003,1.7634123,8.6903042.471093,17.4009975.7706536,26.1525845,1.4715813-12.5275236,1.2574974-26.6550619,2.2226918-39.3557566,2.0572099-8.7722849.1636358-17.5701733-.4260061-26.3217343-.9898736-32.7722712-2.5386113-65.7800024-9.576044-95.9368052-22.8860022-4.1664497-1.6684389-9.3582504-4.4685067-13.3965329-6.4464877-9.1119249-5.0389628-18.2091952-10.4689903-25.9142199-17.4909499h0Z" fill="#f9f2f6"/>
      <path d="M1999.1381836,2324.4562988c14.868995,12.2303135,32.1593365,21.2460736,49.8225326,28.7164718,53.5943723,22.2963216,112.3310941,26.5144936,169.8497245,24.6192897-19.1203772,3.4584279-38.6102453,5.0319143-58.1267248,4.8839651-55.2594067-.0999468-122.5984883-16.7796401-161.5455322-58.2197266h0Z" fill="#f9f2f6"/>
      <ellipse cx="2083.036842" cy="668.0794773" rx="48.3568808" ry="63.2729306"/>
      <path d="M1879.6931329,307.634371l-179.0655054,737.3626966-21.7676644-.5334414c-40.0680851-.9847378-77.9410463-15.4897104-109.7925061-39.4320877l170.1923466-700.8746795,140.4333294,3.4775119Z" fill="url(#linear-gradient40)"/>
      <path d="M1719.2549107,599.0993972c5.0394691,2.478795,10.0789383,4.9575901,15.1184074,7.4363851,12.0200877,5.9123953,24.0401753,11.8247906,36.060263,17.7371858,14.5286232,7.1462842,29.0572464,14.2925685,43.5858695,21.4388527,12.6160751,6.2055473,25.2321501,12.4110946,37.8482252,18.6166419,4.1133599,2.0232639,8.2267198,4.0465278,12.3400797,6.0697917,1.9657209.9668914,3.9114598,2.0213237,5.9146919,2.9092963.0851658.0377514.1678054.0825395.2514388.1236768v-7.7712362c-4.9472757,2.1275095-9.8945513,4.2550191-14.841827,6.3825286-11.8002022,5.0745187-23.6004044,10.1490374-35.4006067,15.2235561-14.3443753,6.1686062-28.6887507,12.3372124-43.033126,18.5058187-12.3350175,5.3045088-24.670035,10.6090177-37.0050525,15.9135265l-12.2638355,5.273898c-1.9273415.8288274-3.9155569,1.5801586-5.8038615,2.4958728-.080092.0388398-.164355.0706787-.2461662.1058605-2.1708362.933539-2.8197654,4.2872113-1.6143819,6.1568542,1.4532882,2.2541623,3.8341827,2.6132157,6.1568542,1.6143819,4.9472757-2.1275095,9.8945513-4.2550191,14.841827-6.3825286,11.8002022-5.0745187,23.6004044-10.1490374,35.4006067-15.2235561,14.3443753-6.1686062,28.6887507-12.3372124,43.033126-18.5058187,12.3350175-5.3045088,24.670035-10.6090177,37.0050525-15.9135265,4.0879452-1.757966,8.1758904-3.515932,12.2638355-5.273898,1.9273415-.8288274,3.9155569-1.5801586,5.8038615-2.4958728.080092-.0388398.164355-.0706787.2461662-.1058605,3.0579291-1.3150214,2.8280004-6.38021,0-7.7712362-5.0394691-2.478795-10.0789383-4.9575901-15.1184074-7.4363851-12.0200877-5.9123953-24.0401753-11.8247906-36.060263-17.7371858-14.5286232-7.1462842-29.0572464-14.2925685-43.5858695-21.4388527-12.6160751-6.2055473-25.2321501-12.4110946-37.8482252-18.6166419-6.0838274-2.99249-12.1415134-6.0469499-18.2547715-8.979088-.0842034-.040387-.167637-.0824566-.2514388-.1236768-2.1092774-1.0375034-4.9662416-.6390913-6.1568542,1.6143819-1.0714607,2.0279543-.6407075,5.0476294,1.6143819,6.1568542h0Z"/>
      <path d="M1835.5935583,789.1480292h219.1665998v.000093c0,51.3203845-41.6656409,92.9860254-92.9860254,92.9860254h-33.194549c-51.3203845,0-92.9860254-41.6656409-92.9860254-92.9860254v-.000093h0Z"/>
      <path d="M2344.5697729,479.2626892l-140.2692899,577.6234847c-4.6570936.2667207-9.3757959.3487404-14.1458388.2257734l-67.2417898-1.6619329,164.6732317-678.1220894c26.5582436,27.7071461,46.6436893,62.8411488,56.9836868,101.9347641Z" fill="url(#linear-gradient41)"/>
      <g>
        <polygon points="3206.0844337 917.448622 3201.7785372 773.9085312 3268.1553414 798.8552321 3272.8380028 954.9550438 3206.0844337 917.448622" fill="url(#linear-gradient42)"/>
        <polygon points="3092.5236455 931.6305856 3201.7785372 773.9085312 3206.0844337 917.448622 3148.9241544 969.4475954 3092.5236455 931.6305856" fill="url(#linear-gradient43)"/>
        <polygon points="3324.6718167 231.4621801 2938.7504858 683.133536 2859.3713859 802.13927 2933.4172121 852.446984 3329.5602938 394.4230039 3324.6718167 231.4621801" fill="url(#linear-gradient44)"/>
        <path d="M2779.5268953,768.9984035l-38.1857645,68.9789925,43.2986551,59.848803-53.2467337,73.5126079,47.1473536,49.1082332s-36.9435385,58.3822159-36.9778097,58.4367097c-10.2239328,16.6761987,108.9066731,110.4826714,116.709464,104.011983.0033426-.002772,53.9246189-44.7185195,53.9246189-44.7185195l53.0570709,41.5091093,67.1904629-63.0751281,63.2623038,36.2683486,64.2102793-47.2759333,63.4775311,43.4453471,74.1327504-61.9405141,52.8418415,34.3320408,211.8168037-193.1244004-94.9438761-56.0822013-63.8031823,60.8445532-84.0796921-39.3563628-46.5209692,61.2329715-66.7535691-37.5064219-57.1602793,51.9989735-56.4005088-37.8170098,394.3030186-442.836676-74.0817346-44.4542618-83.1846358-49.916644-371.716995,425.0808441-57.6390423-39.635834,60.7129619-82.0242227-63.3869848-42.0647796,67.6608464-85.5794903-61.1074006-43.6144106,58.7827048-59.7857378-84.6640366-58.8358008-137.8469318,171.7189133,40.1104639,49.5951823-51.2745943,80.3589538,50.3356099,59.361782Z" fill="url(#linear-gradient45)"/>
        <path d="M3562.1857226,928.3160832l-5.005604-166.8653308s-97.1099158-70.7172177-95.2229333-65.3862304c1.8869826,5.3309872,5.2846611,176.1693599,5.2846611,176.1693599l94.9438761,56.0822013Z" fill="url(#linear-gradient46)"/>
        <polygon points="3403.4386641 933.0784351 3398.110118 755.4476005 3461.9571853 696.064522 3467.2418464 872.2338819 3403.4386641 933.0784351" fill="url(#linear-gradient47)"/>
        <polygon points="3398.110118 755.4476005 3314.3167422 725.6357942 3319.358972 893.7220723 3403.4386641 933.0784351 3398.110118 755.4476005" fill="url(#linear-gradient48)"/>
        <polygon points="3272.8380028 954.9550438 3268.1553414 798.8552321 3314.3167422 725.6357942 3319.358972 893.7220723 3272.8380028 954.9550438" fill="url(#linear-gradient49)"/>
        <polygon points="3329.5602938 394.4230039 3324.6718167 231.4621801 3485.6501197 341.621877 3486.8266642 488.7939096 3329.5602938 394.4230039" fill="url(#linear-gradient50)"/>
        <polygon points="2960.9172185 697.8437912 2949.5671276 589.9611702 2897.5302337 655.7790116 2960.9172185 697.8437912" fill="url(#linear-gradient51)"/>
        <polygon points="2965.1910801 570.1995213 2962.8663844 466.7993729 2904.0836795 526.5851107 2965.1910801 570.1995213" fill="url(#linear-gradient52)"/>
        <polygon points="2878.2023477 407.9635721 2873.6099009 254.8711268 2958.210635 311.5966926 2962.8663844 466.7993729 2878.2023477 407.9635721" fill="url(#linear-gradient53)"/>
        <polygon points="2740.3554159 579.6824854 2735.5478779 419.4198226 2873.6099009 254.8711268 2878.2023477 407.9635721 2740.3554159 579.6824854" fill="url(#linear-gradient54)"/>
      </g>
    </g>
  </g>
</svg>