<svg xmlns="http://www.w3.org/2000/svg" width="1em" height="1em" viewBox="0 0 16 16"><path fill="currentColor" d="M7.938 1a.52.52 0 0 0-.438.5c0 .833-.366 1.379-1.125 1.813C5.615 3.746 4.445 4 3 4h-.5a.499.499 0 1 0 0 1h.844L1.78 10H1.5c-.268 0-.5.223-.5.5v1c0 .277.232.5.5.5h1c.268 0 .5-.223.5-.5v-1a.49.49 0 0 0-.219-.406L4.375 5h1.031l-.75 5H4.5c-.268 0-.5.223-.5.5v1c0 .277.232.5.5.5h1c.268 0 .5-.223.5-.5v-1a.48.48 0 0 0-.344-.469L6.438 5H7v8H2.5a.499.499 0 1 0 0 1h11a.499.499 0 1 0 0-1H9V5h.563l.78 5.031A.48.48 0 0 0 10 10.5v1c0 .277.232.5.5.5h1c.268 0 .5-.223.5-.5v-1c0-.277-.232-.5-.5-.5h-.156l-.75-5h1.031l1.594 5.094A.49.49 0 0 0 13 10.5v1c0 .277.232.5.5.5h1c.268 0 .5-.223.5-.5v-1c0-.277-.232-.5-.5-.5h-.281l-1.563-5h.844a.499.499 0 1 0 0-1H13c-1.444 0-2.616-.254-3.375-.687C8.865 2.879 8.5 2.333 8.5 1.5a.52.52 0 0 0-.562-.5"/></svg>