<svg xmlns="http://www.w3.org/2000/svg" width="1em" height="1em" viewBox="0 0 16 16"><path fill="currentColor" d="M10 6a.5.5 0 0 1 .465.314l1 2.5a.5.5 0 0 1-.367.676l-1.149.23l-.033.057l-2 3a.5.5 0 0 1-.84-.011L4.723 9H4c-.676.01-.676-1.01 0-1h2c.676-.01.676 1.01 0 1h-.098l.284.453l4.127-.826L9.663 7H8.5c-.676.01-.676-1.01 0-1zM8.568 9.996l-1.816.363l.762 1.22zM11.5 10c1.375 0 2.5 1.125 2.5 2.5S12.875 15 11.5 15A2.51 2.51 0 0 1 9 12.5c0-1.375 1.125-2.5 2.5-2.5m-8 0C4.875 10 6 11.125 6 12.5S4.875 15 3.5 15A2.51 2.51 0 0 1 1 12.5C1 11.125 2.125 10 3.5 10m8 1c-.834 0-1.5.666-1.5 1.5s.666 1.5 1.5 1.5s1.5-.666 1.5-1.5s-.666-1.5-1.5-1.5m-8 0c-.834 0-1.5.666-1.5 1.5S2.666 14 3.5 14S5 13.334 5 12.5S4.334 11 3.5 11"/><path fill="currentColor" d="M4.5 1.5a2.5 2.5 0 0 0-1.652.625a.5.5 0 0 0 .33.875h1.554l.666 1l-.666 1H3.178a.5.5 0 0 0-.33.875l.017.016A2.496 2.496 0 0 0 6.79 5h5.71a.5.5 0 0 0 .5-.5v-1a.5.5 0 0 0-.5-.5H6.79A2.51 2.51 0 0 0 4.5 1.5"/></svg>