<svg xmlns="http://www.w3.org/2000/svg" width="1em" height="1em" viewBox="0 0 16 16"><path fill="currentColor" d="M9 7a1 1 0 0 1 .8.4l1.27 1.694l2.125.426a1 1 0 0 1 .805.98v1.502A1.995 1.995 0 0 1 12 14a1.996 1.996 0 0 1-1.937-1.5H5.937A1.996 1.996 0 0 1 4 14c-1.108 0-2-.89-2-1.998V10q0-.123.03-.242l.5-2A1 1 0 0 1 3.5 7zm3 4c-.554 0-1 .446-1 1s.446 1 1 1s1-.446 1-1s-.446-1-1-1m-8 0c-.554 0-1 .446-1 1s.446 1 1 1s1-.446 1-1s-.446-1-1-1m.5-9.5a2.5 2.5 0 0 0-1.652.625a.5.5 0 0 0 .33.875h1.554l.666 1l-.666 1H3.178a.5.5 0 0 0-.33.875l.017.016A2.496 2.496 0 0 0 6.79 5h5.71a.5.5 0 0 0 .5-.5v-1a.5.5 0 0 0-.5-.5H6.79A2.51 2.51 0 0 0 4.5 1.5"/></svg>