<svg xmlns="http://www.w3.org/2000/svg" width="1em" height="1em" viewBox="0 0 16 16"><path fill="currentColor" d="M4 1L1 4h3l2-3zm3 0L6 4h3L8 1zm2 0l2 3h3l-3-3zM1 5c0 .554.446 1 1 1h1c.554 0 1-.446 1-1zm5 0c0 .554.446 1 1 1h1c.554 0 1-.446 1-1zm5 0c0 .554.446 1 1 1h1c.554 0 1-.446 1-1zM2 7v7c0 .554.446 1 1 1h9c.554 0 1-.446 1-1V7zm1.75 1h1.5c.415 0 .75.335.75.75v4.5c0 .415-.335.75-.75.75h-1.5a.75.75 0 0 1-.75-.75v-4.5c0-.415.334-.75.75-.75M9 8h2c.554 0 1 .446 1 1v2c0 .554-.446 1-1 1H9c-.554 0-1-.446-1-1V9c0-.554.446-1 1-1"/></svg>