<svg xmlns="http://www.w3.org/2000/svg" width="1em" height="1em" viewBox="0 0 16 16"><path fill="currentColor" d="M10 2.25c-1.003 0-2.014.19-2.695.754c-.997.032-1.828.312-2.408.893C4.278 4.514 4 5.417 4 6.5v3.883l-.947 1.894A.5.5 0 0 0 3 12.5v2a.5.5 0 0 0 .5.5h2a.5.5 0 0 0 .5-.5v-2a.5.5 0 0 0-.053-.223L5 10.383V6.5c0-.917.221-1.514.604-1.896c.324-.325.804-.533 1.502-.588C7.53 5.456 8.77 6.25 10 6.25c1.347 0 2.709-.955 2.994-2.668a.5.5 0 0 0-.14-.435c-.677-.677-1.77-.897-2.854-.897M8.27 4h3.46c-.354.817-1.006 1.25-1.73 1.25S8.624 4.817 8.27 4"/></svg>