<svg xmlns="http://www.w3.org/2000/svg" width="1em" height="1em" viewBox="0 0 16 16"><path fill="currentColor" d="M6.5 1a.5.5 0 0 0-.326.121l-3.5 3A.5.5 0 0 0 3 5h2.148L2.674 7.121A.5.5 0 0 0 3 8h2.148l-2.474 2.121A.5.5 0 0 0 3 11h2.691l-1.638 3.277a.5.5 0 1 0 .894.446L5.31 14h4.38l.362.723a.5.5 0 1 0 .894-.446L9.31 11H12a.5.5 0 0 0 .326-.879L9.852 8H12a.5.5 0 0 0 .326-.879L9.852 5H12a.5.5 0 0 0 .326-.879l-3.5-3A.5.5 0 0 0 8.5 1zM7 2h1v2H7zm-1 .588V4H4.352zm3 0L10.648 4H9zM7 5h1v2H7zm-1 .588V7H4.352zm3 0L10.648 7H9zM7 8h1v2H7zm-1 .588V10H4.352zm3 0L10.648 10H9zM6.809 11H8.19l1 2H5.81z"/></svg>