<svg xmlns="http://www.w3.org/2000/svg" width="1em" height="1em" viewBox="0 0 16 16"><path fill="currentColor" d="M2.11 3.813L6 8.676v.728l-1.965 4.91c-.189.474.37.894.772.58L7.5 12.8l2.693 2.096c.403.313.961-.107.772-.58L9 9.405v-.73l3.89-4.863c.355-.435-.168-1.034-.648-.742L7.5 5.916L2.758 3.07c-.46-.278-1.008.298-.649.743M4.631 5.36l2.215 1.33l-.444.887zm5.738 0L8.598 7.578l-.444-.887zM7.5 7.62l.5.998V9H7v-.383zM6.84 10h1.32l.31.777l-.97.756l-.973-.756zm-.697 1.744l.543.422l-1.036.807zm2.714 0l.493 1.229l-1.035-.807z"/></svg>