<svg xmlns="http://www.w3.org/2000/svg" width="1em" height="1em" viewBox="0 0 16 16"><path fill="currentColor" d="M3.492 1.992A.5.5 0 0 0 3 2.5V3H2a.5.5 0 1 0 0 1h1v1H2a.5.5 0 1 0 0 1h1v.418a.5.5 0 0 0 .09.371L6 11.64v2.86a.5.5 0 1 0 1 0V14h1v.5a.5.5 0 1 0 1 0v-2.861l2.906-4.844l.008-.01A.5.5 0 0 0 12 6.418V6h1a.5.5 0 1 0 0-1h-1V4h1a.5.5 0 1 0 0-1h-1v-.5a.5.5 0 0 0-.508-.508A.5.5 0 0 0 11 2.5V3H4v-.5a.5.5 0 0 0-.508-.508M4 4h7v1H4zm0 2h7v.25L7.5 8.875L4 6.25zm1.244 2.436L6.865 9.65l-.404.81zm4.512 0L8.539 10.46l-.404-.81zM7.5 10.619l.5.998V13H7v-1.383z"/></svg>