<svg xmlns="http://www.w3.org/2000/svg" width="1em" height="1em" viewBox="0 0 16 16"><path fill="currentColor" d="M4.492 1.992A.5.5 0 0 0 4 2.5V3H2.5c-.676-.01-.676 1.01 0 1H4v10.5c-.01.676 1.01.676 1 0V12h5v2.5c-.01.676 1.01.676 1 0V4h1.5c.676.01.676-1.01 0-1H11v-.5a.5.5 0 1 0-1 0V3H5v-.5a.5.5 0 0 0-.508-.508M5 4h5v7H5zm-2.508.492A.5.5 0 0 0 2 5v1c-.01.676 1.01.676 1 0V5a.5.5 0 0 0-.508-.508m5 0A.5.5 0 0 0 7 5v1c-.01.676 1.01.676 1 0V5a.5.5 0 0 0-.508-.508m5 0A.5.5 0 0 0 12 5v1c-.01.676 1.01.676 1 0V5a.5.5 0 0 0-.508-.508"/></svg>