<svg xmlns="http://www.w3.org/2000/svg" width="1em" height="1em" viewBox="0 0 16 16"><path fill="currentColor" d="M6.5 1a.5.5 0 0 0-.354.147l-3 3A.5.5 0 0 0 3.5 5h1.498L2.2 7.1a.5.5 0 0 0 .3.9h2.793l-2.146 2.146A.5.5 0 0 0 3.5 11h2.191l-1.638 3.277a.5.5 0 1 0 .894.446L5.31 14h4.38l.362.723a.5.5 0 1 0 .894-.446L9.31 11h2.19a.5.5 0 0 0 .354-.854L9.707 8H12.5a.5.5 0 0 0 .3-.9L10.003 5H11.5a.5.5 0 0 0 .354-.854l-3-3A.5.5 0 0 0 8.5 1zM7 2h1v2H7zm-1 .707V4H4.707zm3 0L10.293 4H9zM7 5h1v2H7zm2 .5L11 7H9zm-3 .002V7H4.002zM7 8h1v2H7zm-1 .707V10H4.707zm3 0L10.293 10H9zM6.809 11H8.19l1 2H5.81z"/></svg>