<svg xmlns="http://www.w3.org/2000/svg" width="1em" height="1em" viewBox="0 0 16 16"><path fill="currentColor" d="M3.492.992A.5.5 0 0 0 3 1.5V2H2a.5.5 0 1 0 0 1h1v1H2a.5.5 0 1 0 0 1h1v1H2a.5.5 0 1 0 0 1h1.215L6 11.639V14.5a.5.5 0 1 0 1 0V14h1v.5a.5.5 0 1 0 1 0v-2.861L11.785 7H13a.5.5 0 1 0 0-1h-1V5h1a.5.5 0 1 0 0-1h-1V3h1a.5.5 0 1 0 0-1h-1v-.5a.5.5 0 0 0-.508-.508A.5.5 0 0 0 11 1.5V2H4v-.5a.5.5 0 0 0-.508-.508M4 3h7v1H4zm0 2h7v1H4zm1.002 2h4.996L7.5 8.873zm.242 1.436L6.865 9.65l-.404.81zm4.512 0L8.539 10.46l-.404-.81zM7.5 10.619l.5.998V13H7v-1.383z"/></svg>