<svg xmlns="http://www.w3.org/2000/svg" width="1em" height="1em" viewBox="0 0 16 16"><path fill="currentColor" d="M4.484 1.992a.5.5 0 0 0-.482.467L3.957 3H2.5a.5.5 0 1 0 0 1h1.373l-.871 10.459a.5.5 0 1 0 .996.082L4.877 4h5.246l.879 10.541a.5.5 0 1 0 .996-.082L11.127 4H12.5a.5.5 0 1 0 0-1h-1.457l-.045-.541a.5.5 0 0 0-.498-.467a.5.5 0 0 0-.498.549l.039.459H4.959l.039-.459a.5.5 0 0 0-.514-.549m-1.992 2.5A.5.5 0 0 0 2 5v1a.5.5 0 1 0 1 0V5a.5.5 0 0 0-.508-.508m5 0A.5.5 0 0 0 7 5v1a.5.5 0 1 0 1 0V5a.5.5 0 0 0-.508-.508m5 0A.5.5 0 0 0 12 5v1a.5.5 0 1 0 1 0V5a.5.5 0 0 0-.508-.508"/></svg>