<svg xmlns="http://www.w3.org/2000/svg" width="1em" height="1em" viewBox="0 0 16 16"><path fill="currentColor" d="M7.5 2c-.277 0-.5.223-.5.5V3H2.5a.5.5 0 0 0-.5.5a.5.5 0 0 0 .5.5H7v1H2.5a.5.5 0 0 0-.5.5a.5.5 0 0 0 .5.5H7v8.5c0 .277.223.5.5.5h1c.277 0 .5-.223.5-.5V6h4.5a.5.5 0 0 0 .5-.5a.5.5 0 0 0-.5-.5H9V4h4.5a.5.5 0 0 0 .5-.5a.5.5 0 0 0-.5-.5H9v-.5c0-.277-.223-.5-.5-.5zm-5 4.5A.5.5 0 0 0 2 7v1a.5.5 0 0 0 .5.5A.5.5 0 0 0 3 8V7a.5.5 0 0 0-.5-.5m11 0a.5.5 0 0 0-.5.5v1a.5.5 0 0 0 .5.5a.5.5 0 0 0 .5-.5V7a.5.5 0 0 0-.5-.5"/></svg>