<svg xmlns="http://www.w3.org/2000/svg" width="1em" height="1em" viewBox="0 0 16 16"><path fill="currentColor" d="M3.484 1.992a.5.5 0 0 0-.482.467L2.957 3H2.5a.5.5 0 1 0 0 1h.373l-.871 10.459a.5.5 0 1 0 .996.082L3.877 4h7.246l.879 10.541a.5.5 0 1 0 .996-.082L12.127 4h.373a.5.5 0 1 0 0-1h-.457l-.045-.541a.5.5 0 0 0-.498-.467a.5.5 0 0 0-.498.549l.039.459H3.959l.039-.459a.5.5 0 0 0-.514-.549m2.008 2.5A.5.5 0 0 0 5 5v1a.5.5 0 1 0 1 0V5a.5.5 0 0 0-.508-.508m4 0A.5.5 0 0 0 9 5v1a.5.5 0 1 0 1 0V5a.5.5 0 0 0-.508-.508"/></svg>