<svg xmlns="http://www.w3.org/2000/svg" width="1em" height="1em" viewBox="0 0 16 16"><path fill="currentColor" d="M3.484 1.992a.5.5 0 0 0-.482.467L2.957 3H2.5a.5.5 0 1 0 0 1h.373l-.084 1H2.5a.5.5 0 1 0 0 1h.207l-.084 1H2.5a.5.5 0 1 0 0 1h.041l-.54 6.459a.5.5 0 1 0 .997.082L3.543 8h7.914l.545 6.541a.5.5 0 1 0 .996-.082L12.46 8h.041a.5.5 0 1 0 0-1h-.123l-.084-1h.207a.5.5 0 1 0 0-1h-.29l-.083-1h.373a.5.5 0 1 0 0-1h-.457l-.045-.541a.5.5 0 0 0-.498-.467a.5.5 0 0 0-.498.549l.039.459H3.959l.039-.459a.5.5 0 0 0-.514-.549M3.877 4h7.246l.084 1H3.793zm-.166 2h7.578l.084 1H3.627zm1.781 2.492A.5.5 0 0 0 5 9v1a.5.5 0 1 0 1 0V9a.5.5 0 0 0-.508-.508m4 0A.5.5 0 0 0 9 9v1a.5.5 0 1 0 1 0V9a.5.5 0 0 0-.508-.508"/></svg>