<svg xmlns="http://www.w3.org/2000/svg" width="1em" height="1em" viewBox="0 0 16 16"><path fill="currentColor" d="M3.484 1.992a.5.5 0 0 0-.482.467L2.957 3H2.5a.5.5 0 1 0 0 1h.373l-.084 1H2.5a.5.5 0 1 0 0 1h.207l-.705 8.459a.5.5 0 1 0 .996.082L3.711 6h7.578l.713 8.541a.5.5 0 1 0 .996-.082L12.293 6h.207a.5.5 0 1 0 0-1h-.29l-.083-1h.373a.5.5 0 1 0 0-1h-.457l-.045-.541a.5.5 0 0 0-.498-.467a.5.5 0 0 0-.498.549l.039.459H3.959l.039-.459a.5.5 0 0 0-.514-.549M3.877 4h7.246l.084 1H3.793zm1.615 2.492A.5.5 0 0 0 5 7v1a.5.5 0 1 0 1 0V7a.5.5 0 0 0-.508-.508m4 0A.5.5 0 0 0 9 7v1a.5.5 0 1 0 1 0V7a.5.5 0 0 0-.508-.508"/></svg>