<svg xmlns="http://www.w3.org/2000/svg" width="1em" height="1em" viewBox="0 0 16 16"><path fill="currentColor" d="M7.504 1a.5.5 0 0 0-.451.277l-1 2A.5.5 0 0 0 6 3.5V4H3.5a.5.5 0 1 0 0 1H6v1H3.5a.5.5 0 1 0 0 1H6v1H3.5a.5.5 0 1 0 0 1H6v1H3.5a.5.5 0 1 0 0 1h2.191l-1.638 3.277a.5.5 0 1 0 .894.446L5.31 14h4.38l.362.723a.5.5 0 1 0 .894-.446L9.31 11h2.19a.5.5 0 1 0 0-1H9V9h2.5a.5.5 0 1 0 0-1H9V7h2.5a.5.5 0 1 0 0-1H9V5h2.5a.5.5 0 1 0 0-1H9v-.5a.5.5 0 0 0-.053-.223l-1-2A.5.5 0 0 0 7.504 1M7.5 2.617l.5 1V4H7v-.383zM7 5h1v1H7zm0 2h1v1H7zm0 2h1v1H7zm-.191 2H8.19l1 2H5.81z"/></svg>