<svg xmlns="http://www.w3.org/2000/svg" width="1em" height="1em" viewBox="0 0 16 16"><path fill="currentColor" d="M2.5 3a.499.499 0 1 0 0 1H3v2h-.5c-.277 0-.5.223-.5.5v4c0 .277.223.5.5.5H3v2h-.5a.499.499 0 1 0 0 1h11a.499.499 0 1 0 0-1H13V4h.5a.499.499 0 1 0 0-1zM4 4h2v2H4zm3 0h2v9H7v-2h.5c.277 0 .5-.223.5-.5v-4c0-.277-.223-.5-.5-.5H7zm3 0h2v9h-2zM5 7a1 1 0 0 1 1 1a1 1 0 0 1-.523.879c.01.04.023.078.023.121v1a.499.499 0 1 1-1 0V9c0-.043.013-.081.023-.121A1 1 0 0 1 4 8a1 1 0 0 1 1-1m-1 4h2v2H4z"/></svg>