<svg xmlns="http://www.w3.org/2000/svg" width="1em" height="1em" viewBox="0 0 16 16"><path fill="currentColor" d="M13.814 1.81a1.6 1.6 0 0 0-.83.19c-.39.214-.665.572-.841 1H1.5a.5.5 0 0 0-.484.621l1 4a.5.5 0 0 0 .418.375l7.478.996l.002.002c.223.042.31.263.277.508c-.034.263-.143.498-.691.498h-6a.5.5 0 0 0 0 1h7a.5.5 0 0 0 .48-.363c.669-2.344 1.342-4.686 2.009-7.03c.11-.397.296-.632.478-.732c.185-.102.414-.126.81.072a.5.5 0 0 0 .446-.894a2.2 2.2 0 0 0-.908-.243M4 12a1 1 0 1 0 0 2a1 1 0 0 0 0-2m6 0a1 1 0 1 0 0 2a1 1 0 0 0 0-2"/></svg>