<svg xmlns="http://www.w3.org/2000/svg" width="1em" height="1em" viewBox="0 0 16 16"><path fill="currentColor" d="M1.477 2.05c-.29 0-.524.213-.524.475v2c0 .263.234.475.524.475H2V3h11v2h.477c.29 0 .523-.212.523-.475v-2c0-.262-.234-.474-.523-.474zM3 4v10h9V4zm3.832 3.027C7.942 7.714 8 9 9 9h.062c.52 0 .938.418.938.938v.124c0 .52-.419.938-.938.938H10c.554 0 1 .446 1 1s-.446 1-1 1H5c-.554 0-1-.446-1-1s.446-1 1-1h.938A.935.935 0 0 1 5 10.063v-.126C5 9.419 5.418 9 5.938 9H6c.823 0 1.359-.949.832-1.973"/></svg>