<?xml version="1.0" encoding="UTF-8"?>
<svg id="Capa_1" data-name="Capa 1" xmlns="http://www.w3.org/2000/svg" xmlns:xlink="http://www.w3.org/1999/xlink" version="1.1" viewBox="0 0 1533.1 906.1">
  <defs>
    <style>
      .cls-1 {
        fill: #d1d2d6;
      }

      .cls-1, .cls-2, .cls-3, .cls-4, .cls-5, .cls-6, .cls-7, .cls-8, .cls-9, .cls-10, .cls-11, .cls-12, .cls-13, .cls-14, .cls-15, .cls-16, .cls-17, .cls-18, .cls-19, .cls-20, .cls-21, .cls-22, .cls-23, .cls-24, .cls-25, .cls-26, .cls-27, .cls-28, .cls-29, .cls-30, .cls-31, .cls-32, .cls-33, .cls-34, .cls-35, .cls-36, .cls-37, .cls-38, .cls-39, .cls-40, .cls-41, .cls-42, .cls-43, .cls-44, .cls-45, .cls-46, .cls-47, .cls-48, .cls-49, .cls-50, .cls-51, .cls-52, .cls-53, .cls-54, .cls-55, .cls-56, .cls-57, .cls-58, .cls-59, .cls-60, .cls-61, .cls-62, .cls-63, .cls-64, .cls-65, .cls-66, .cls-67, .cls-68, .cls-69, .cls-70, .cls-71 {
        stroke-width: 0px;
      }

      .cls-2 {
        fill: #d0e0f0;
      }

      .cls-3 {
        fill: #211915;
      }

      .cls-4 {
        fill: #004a6e;
      }

      .cls-5 {
        fill: #4f8e3a;
      }

      .cls-6 {
        fill: #4693d3;
      }

      .cls-7 {
        fill: #edf1f8;
      }

      .cls-8 {
        fill: #ccdd4b;
      }

      .cls-9 {
        fill: #0b78a4;
      }

      .cls-10 {
        fill: #a9a8ae;
      }

      .cls-11 {
        fill: url(#Degradado_sin_nombre);
        fill-opacity: .9;
        mix-blend-mode: multiply;
        opacity: .3;
      }

      .cls-11, .cls-27, .cls-72 {
        isolation: isolate;
      }

      .cls-12 {
        fill: #ff6b3e;
      }

      .cls-13 {
        fill: #3f1700;
      }

      .cls-14 {
        fill: #484648;
      }

      .cls-15 {
        fill: #532a13;
      }

      .cls-16 {
        fill: #eaebed;
      }

      .cls-17 {
        fill: #f43172;
      }

      .cls-17, .cls-21 {
        fill-rule: evenodd;
      }

      .cls-18 {
        fill: #e6eaf2;
      }

      .cls-19 {
        fill: #4082c0;
      }

      .cls-20 {
        fill: #bebec4;
      }

      .cls-21, .cls-58 {
        fill: #959499;
      }

      .cls-22 {
        fill: #e5c69e;
      }

      .cls-23 {
        fill: #d31326;
      }

      .cls-24 {
        fill: #b1b1b6;
      }

      .cls-25 {
        fill: #c3c6c9;
      }

      .cls-26 {
        fill: #1a703b;
      }

      .cls-27 {
        opacity: .7;
      }

      .cls-27, .cls-64 {
        fill: #fff;
      }

      .cls-28 {
        fill: #e6e7e9;
      }

      .cls-29 {
        fill: #dca19f;
      }

      .cls-30 {
        fill: #ba5d35;
      }

      .cls-31 {
        fill: #9d1417;
      }

      .cls-32 {
        fill: #3ec68f;
      }

      .cls-33 {
        fill: #1e5a85;
      }

      .cls-34 {
        fill: #97969b;
      }

      .cls-35 {
        fill: #ad8a77;
      }

      .cls-36 {
        fill: #e1e8f4;
      }

      .cls-37 {
        fill: #ea9b0f;
      }

      .cls-38 {
        fill: #ababb0;
      }

      .cls-39 {
        fill: #8b441d;
      }

      .cls-40 {
        fill: #4795d6;
      }

      .cls-41 {
        fill: #a1bc31;
      }

      .cls-42 {
        fill: #434142;
      }

      .cls-43 {
        fill: #c2c6cc;
      }

      .cls-44 {
        fill: #3da0da;
      }

      .cls-45 {
        fill: #a25242;
      }

      .cls-46 {
        fill: #7c6455;
      }

      .cls-47 {
        fill: #464445;
      }

      .cls-48 {
        fill: #793c17;
      }

      .cls-49 {
        fill: #305d51;
      }

      .cls-50 {
        fill: #be0811;
      }

      .cls-51 {
        fill: #ed323b;
      }

      .cls-52 {
        fill: #3978b7;
      }

      .cls-53 {
        fill: #3a2857;
      }

      .cls-54 {
        fill: #b35948;
      }

      .cls-55 {
        fill: #525153;
      }

      .cls-56 {
        fill: #ffbf3e;
      }

      .cls-57 {
        fill: #dddfe2;
      }

      .cls-59 {
        fill: #edca4c;
      }

      .cls-60 {
        fill: #f3f3f4;
      }

      .cls-61 {
        fill: #b7b8bd;
      }

      .cls-62 {
        fill: #ca6037;
      }

      .cls-63 {
        fill: #58c6b3;
      }

      .cls-65 {
        fill: #ecedef;
      }

      .cls-66 {
        fill: #e9ecf4;
      }

      .cls-67 {
        fill: #626165;
      }

      .cls-68 {
        fill: #d07c80;
      }

      .cls-69 {
        fill: #ffd550;
      }

      .cls-70 {
        fill: #6d2b17;
      }

      .cls-71 {
        fill: #e0e1e4;
      }
    </style>
    <linearGradient id="Degradado_sin_nombre" data-name="Degradado sin nombre" x1="765.7" y1="201" x2="765.7" y2="1045.5" gradientTransform="translate(0 908) scale(1 -1)" gradientUnits="userSpaceOnUse">
      <stop offset="0" stop-color="#dce0e9" stop-opacity="0"/>
      <stop offset="1" stop-color="#dce0e9"/>
    </linearGradient>
  </defs>
  <g class="cls-72">
    <g id="Capa_1-2" data-name="Capa 1">
      <rect class="cls-36" width="1533.1" height="906.1"/>
      <g>
        <path class="cls-3" d="M642.1,458.5s-45.6-6.6-79.8,8.9c-3.7,1.7-6.3,5-7,9-1.7,10.4-3.3,32.5,7.2,55.1,1.7,3.6,5.1,6.2,9,6.8,14.9,2.3,53.8,6.7,75.7-5.5,0,0,9.3-35.8-5.2-74.4h0Z"/>
        <path class="cls-11" d="M1470.8,772.2c19.8-52,30.4-107,30.4-164,0-388-236-143-690.6-501.4C524.8-118.6,30.1,291,30.1,608.2s10.6,112,30.4,164h1410.3,0Z"/>
        <g>
          <path class="cls-66" d="M230.7,156.6h152.6s-2.6,188.6,5.7,211.5c0,0-149.9,7.4-158.3,0,0,0,2.9-200.6,0-211.5Z"/>
          <path class="cls-27" d="M372.9,175.6h-132.3v-10.5h132.3v10.5ZM242,174.2h129.5v-7.7h-129.5v7.7Z"/>
          <path class="cls-27" d="M372.9,360.3h-132.3v-36.5h132.3v36.5ZM242,358.9h129.5v-33.7h-129.5v33.7Z"/>
          <path class="cls-27" d="M347.8,211h-82v-6.2h82v6.2ZM267.1,209.6h79.2v-3.4h-79.2v3.4Z"/>
          <path class="cls-27" d="M325.1,224.3h-36.7v-9.8h36.7v9.8ZM289.8,222.9h33.9v-7h-33.9v7Z"/>
          <path class="cls-27" d="M372.9,244.7h-132.3v-64.7h132.3v64.7h0ZM242,243.3h129.5v-61.9h-129.5v61.9h0Z"/>
          <path class="cls-27" d="M274.9,317.7h-34.3v-64.7h34.3v64.7ZM242,316.3h31.4v-61.9h-31.4v61.9h0Z"/>
          <path class="cls-27" d="M323.9,317.7h-34.3v-64.7h34.3v64.7ZM291,316.3h31.4v-61.9h-31.4v61.9Z"/>
          <path class="cls-27" d="M372.9,317.7h-34.3v-64.7h34.3v64.7ZM340.1,316.3h31.4v-61.9h-31.4v61.9Z"/>
        </g>
        <g>
          <path class="cls-66" d="M456.9,156.6h152.6s-2.6,188.6,5.7,211.5c0,0-149.9,7.4-158.3,0,0,0,2.9-200.6,0-211.5Z"/>
          <path class="cls-27" d="M599.6,175.6h-132.3v-10.5h132.3v10.5ZM468.7,174.2h129.5v-7.7h-129.5v7.7h0Z"/>
          <path class="cls-27" d="M528.5,312.6h-61.2v-10.5h61.2v10.5ZM468.7,311.2h58.4v-7.7h-58.4v7.7Z"/>
          <path class="cls-27" d="M600,312.6h-61.2v-10.5h61.2v10.5ZM540.2,311.2h58.4v-7.7h-58.4v7.7Z"/>
          <path class="cls-27" d="M528.5,357.1h-61.2v-41.6h61.2v41.6ZM468.7,355.7h58.4v-38.8h-58.4v38.8Z"/>
          <path class="cls-27" d="M600,357.1h-61.2v-41.6h61.2v41.6ZM540.2,355.7h58.4v-38.8h-58.4v38.8Z"/>
          <path class="cls-27" d="M599.6,294.4h-132.3v-41.4h132.3v41.4ZM468.7,293h129.5v-38.6h-129.5v38.6h0Z"/>
          <path class="cls-27" d="M588.1,201.4h-48.1v-8.4h48.1v8.4ZM541.5,200h45.2v-5.6h-45.2v5.6Z"/>
          <path class="cls-27" d="M594.3,212.3h-60.5v-5.8h60.5v5.8ZM535.3,210.9h57.7v-3h-57.7v3Z"/>
          <path class="cls-27" d="M594.3,219.8h-60.5v-5.8h60.5v5.8ZM535.3,218.3h57.7v-3h-57.7v3Z"/>
          <path class="cls-27" d="M594.3,227.2h-60.5v-5.8h60.5v5.8ZM535.3,225.8h57.7v-3h-57.7v3Z"/>
          <path class="cls-27" d="M594.3,234.7h-60.5v-5.8h60.5v5.8ZM535.3,233.3h57.7v-3h-57.7v3Z"/>
          <path class="cls-27" d="M498.7,244.7c-16,0-29-13-29-28.9s13-28.9,29-28.9,29,13,29,28.9-13,28.9-29,28.9ZM498.7,188.2c-15.2,0-27.5,12.4-27.5,27.5s12.4,27.5,27.5,27.5,27.5-12.4,27.5-27.5-12.4-27.5-27.5-27.5h0Z"/>
          <rect class="cls-27" x="532.7" y="205.3" width="1.4" height="136.9" transform="translate(115.7 703.8) rotate(-73)"/>
          <rect class="cls-27" x="465" y="273" width="136.9" height="1.4" transform="translate(-56.8 168.3) rotate(-17)"/>
        </g>
        <path class="cls-18" d="M574,276.1h45.4s-2,35.2,4.3,49.8c0,0-43.4,4.7-49.8,0,0,0,2.2-42.9,0-49.8h0Z"/>
        <g>
          <path class="cls-5" d="M1390.2,517.5c-8.3,58.7-4.4,111.8,8.4,143.4,21-26.8,39.6-76.7,47.9-135.4,8.3-58.7,4.4-111.8-8.4-143.4-21,26.8-39.6,76.7-47.9,135.4Z"/>
          <path class="cls-41" d="M1403.1,604.6c-1.2-64.2,31.7-214.1,32-215.6l1.4.3c-.3,1.5-33.2,151.2-32,215.3h-1.4Z"/>
          <path class="cls-41" d="M1343.5,490.8c11.4,73.5,32.6,136.1,55.1,170,11.2-39.1,12.4-105.3,1.1-178.7-11.4-73.5-32.6-136.1-55.1-170-11.2,39.1-12.4,105.3-1.1,178.7Z"/>
          <path class="cls-5" d="M1398.7,639c-2-66.1-16.3-148.3-28-205.6-12.6-62.1-24.9-109.3-25.1-109.8l1.4-.4c.1.5,12.4,47.6,25.1,109.8,11.7,57.4,26,139.7,28,205.9h-1.4s0,0,0,0Z"/>
          <path class="cls-41" d="M1424,555.9c-15,47.9-20.6,92.3-16.5,119.7,18.9-20.2,39.8-59.8,54.8-107.7s20.6-92.3,16.5-119.7c-18.9,20.2-39.8,59.8-54.8,107.7Z"/>
          <path class="cls-5" d="M1414.3,650.5l-1.4-.2c8.8-55.9,57.3-178.3,57.8-179.5l1.3.5c-.5,1.2-48.9,123.5-57.7,179.2h0Z"/>
          <path class="cls-5" d="M1336.9,603.2c15.5,34.3,39.7,59.6,63.2,69.4,8.2-24.2,5.1-59-10.4-93.3s-39.7-59.6-63.2-69.4c-8.2,24.2-5.1,59,10.4,93.3Z"/>
          <path class="cls-41" d="M1398.7,665.7c-15.1-56.8-64.1-141-64.6-141.9l1.2-.7c.5.8,49.6,85.2,64.7,142.2l-1.4.4Z"/>
          <path class="cls-6" d="M1435.3,770.8c13.2-31.4,20.5-65.8,20.5-101.9s-.6-20.1-1.7-29.9h-125.1c-1.1,9.8-1.7,19.8-1.7,29.9,0,36.1,7.3,70.6,20.5,101.9h87.6Z"/>
          <path class="cls-33" d="M1454.1,639h-5.3c.3.8.5,1.8.6,2.7.5,6.5.7,13.1.7,19.7,0,10.2-.6,20.2-1.7,30-4.7,40.9-39.2,71.9-80.4,71.9h0c-10.8,0-20.8-4.8-27.7-12.5,2.2,6.8,4.7,13.5,7.4,20h87.6c13.2-31.4,20.5-65.8,20.5-101.9s-.6-20.1-1.7-29.9h0Z"/>
        </g>
        <path class="cls-52" d="M692.6,310.4s.5-16.4,7.7-26.9l-19.1-21.5s-10.3-5.7-13.8-10.1-23.8-6-30,4.4-15.2,12.7-19.4,14.1-23.1,12.7-20.8,24.7c2.3,12,13.9,19.2,7.6,34-6.2,14.8-8.1,15.9-18,24-9.9,8.1-10.6,20.1-3.9,33.7l98.2-3.4s2.5-13.9-5.1-26.1c-7.6-12.2,16.6-46.9,16.6-46.9h0Z"/>
        <path class="cls-29" d="M701.3,386.8s15.8,9.4,38.2,61.4l-21.7,19-26.4-34.9,9.9-45.5h0Z"/>
        <path class="cls-29" d="M599.6,421.7l-32.8,50.7,42.2,14.4-7.7,15.7s-59.1-3.6-70.1-11.8c-11-8.2,46.4-99.7,46.4-99.7,0,0,12.3-11.7,23.3.6,11,12.4-1.2,30-1.2,30h0Z"/>
        <path class="cls-32" d="M633.6,366.5s-47.8,15.4-52.8,18.3-17.8,25.2-17.8,25.2l30.8,20.5s12.2,41.8-1.7,97.8h99.8s-14.9-62.4,4.5-100.9l27.8-13.7s-12.2-21-23.9-32.3c0,0-8.8-6.9-30.6-13.4l-36.2-1.6h0Z"/>
        <path class="cls-49" d="M599.2,528.4c4.8-21.8,11.1-52,9.8-56-2-6.3-2.6-9.5-6.4-20.1-3.8-10.6,3.5-34.7,3.5-34.7-5.2,8-12.2,12.9-12.2,12.9,0,0,12.2,41.8-1.7,97.8h7Z"/>
        <path class="cls-68" d="M634.5,320.7s6.2,21.4-3.1,47.1c0,0,12.8,27.1,32.6,33.8,0,0,17.3-9.4,9.8-28.2,0,0-9.1-17.4-3.9-36.4l-35.3-16.2h0Z"/>
        <path class="cls-29" d="M634.5,326.5s15.5,39.5,45.8,38.2,2.9-95.4,2.9-95.4c0,0-74.9,1.1-48.8,57.2h0Z"/>
        <path class="cls-52" d="M636.3,331.6s2.6-42.6,52.5-42.4l3.2-13.4-32.9-15.6-43.5,33.7,10,31.5,10.6,6.3h0Z"/>
        <path class="cls-29" d="M688,334.8c6.5,1.1,11.1-1.3,11.1-1.3-6.5-16.4-9.1-30-9.1-30l-2,31.3h0Z"/>
        <path class="cls-29" d="M641.6,306.3s-3.6-6.9-10.7-1.4c-7.1,5.5-3.3,13.2-1.4,17.4,1.9,4.2,8.2,12.9,14.1,7.6,5.9-5.3-2-23.6-2-23.6h0Z"/>
        <path class="cls-52" d="M681.2,262c11.4-.2,20.4,10.1,19.1,21.5-.7,6-4.1,12.2-14.2,15.6-23.3,7.8-38.2.5-43.6,33.5,0,0-10.2-32.4,5-46.9,11-10.5,20.9-23.4,33.7-23.6h0Z"/>
        <path class="cls-68" d="M686.9,344.1l-13.1-2.4s-1.5,5.8,6.4,7.3c5,1,6.7-4.9,6.7-4.9h0Z"/>
        <path class="cls-29" d="M612.2,487.8s11.1-10.6,13.5-15.4c0,0,4.6,2.4,1.7,8.4-2.9,6-4.1,12.1-4.1,12.1l-11.1-5.1h0Z"/>
        <path class="cls-34" d="M575.3,511.1h105.1v5.1h-102.5c-1.4,0-2.6-1.2-2.6-2.6v-2.5h0Z"/>
        <path class="cls-38" d="M612.9,516.2h162.7l26.4-92.5c.9-3-1.4-6-4.6-6h-152.1c-2.5,0-4.8,1.7-5.5,4.1l-27,94.4h0Z"/>
        <path class="cls-1" d="M617.2,516.2h162.7l26.4-92.5c.9-3-1.4-6-4.6-6h-152.1c-2.5,0-4.8,1.7-5.5,4.1l-27,94.4h0Z"/>
        <path class="cls-29" d="M597.4,482.8s16.3,4.4,19.6,4c3.2-.5,5.2-3.2,9.7-3.2s16.2,9,25,12.2c1.6.6,2.5,2.3,2.2,4-.8,4.3-5.3,10.8-11.2,11.5-8.8,1-16.4-.6-21.2-1.4-5.6-.9-5.9-2.6-11.4-4.2-4-1.2-5.3-2.5-14.2-3.6-4.7-.6,1.6-19.3,1.6-19.3h0Z"/>
        <path class="cls-44" d="M640.1,305.1h-1.4c0-.7,1-14.9,9.8-26.1l1.1.9c-8.5,10.9-9.5,25.1-9.5,25.2h0Z"/>
        <path class="cls-3" d="M620.3,524.5s-43.2,66.8,5.2,73.1,121.5,8.7,121.5,8.7c0,0,1.5.5-6,14.8-5.7,10.9-7.8,22.5-11.9,34.1-5,14.1-10,33.4-12.6,40.5,0,0,5.1,4.6,12.9,5.5,0,0,53-79.9,65.8-102.1,0,0,5.7-7.8.2-19.6-6.5-14.1-39.5-25.3-91-40,0,0-4.9-3.8-14-12.1l-70.3-2.9h0Z"/>
        <g>
          <circle class="cls-3" cx="588.1" cy="760.5" r="9.5"/>
          <path class="cls-3" d="M579.8,753.2l88.3-21.3v-21.7l-83.2,30.7c-3,1.1-5,4-5,7.2v5.1h0Z"/>
          <rect class="cls-3" x="663.4" y="632.3" width="9.3" height="99.2"/>
          <path class="cls-3" d="M611.5,618.5c7.8-.8,32.2-2.6,74.3.3,0,0,35-.3,37.7,2.8,2.6,3,2.5,16.5-1.6,17.2-4,.7-62.3,1.4-110.9-2-1.7-.1-3.1-1.5-3-3.1l.6-12.5c0-1.5,1.3-2.6,2.9-2.8h0Z"/>
          <path class="cls-3" d="M589.4,602c11.3-1.2,46.7-3.8,107.9.5,0,0,50.9-.4,54.7,4,3.8,4.4,3.6,24-2.4,25-5.8,1-90.4,2.1-160.9-2.9-2.5-.2-4.4-2.2-4.3-4.5l.9-18.1c0-2.1,1.9-3.8,4.2-4h0Z"/>
          <circle class="cls-3" cx="748" cy="760.5" r="9.5"/>
          <ellipse class="cls-3" cx="644.9" cy="761.2" rx="4.6" ry="9.5"/>
          <path class="cls-3" d="M756.3,753.2l-88.3-21.3v-21.7l83.2,30.7c3,1.1,5,4,5,7.2v5.1h0Z"/>
          <path class="cls-3" d="M639.3,751.7h5.6v19.1h-5.6c-2.6,0-4.6-4.3-4.6-9.5s2.1-9.5,4.6-9.5h0Z"/>
          <polygon class="cls-3" points="690.4 720.9 645.5 753.8 636.5 753.8 649.5 726.5 690.4 720.9"/>
        </g>
        <path class="cls-3" d="M778.8,754.1s-1.2,2.2-2.6,3.1-72.2-40.6-76.5-43.8c0,0-3.3-2-2.7-3.4s4-3.3,4-3.3l77.8,47.4h0Z"/>
        <path class="cls-3" d="M717.8,687.2l-16.2,18.1s-1.8,2.4,0,3.9,65.7,42.1,76.7,46.4c0,0,.6-.1,1.5-.7,4-2.7,4.2-8.5.6-11.6-6.4-5.7-23.1-19.8-25.8-25.3-3.7-7.7-8.8-9.7-12.6-23.2,0,0-2.8-5.6-5.7-2.8,0,0-5.7,8.2-12.5,1.4,0,0-3.3-2.2-4.3-5.6l-1.8-.5h0Z"/>
        <path class="cls-3" d="M589.2,530.5s-32.4,72.8,13.6,72.8c46,0,95.7-9.4,95.7-9.4,0,0-8.4,14.1-6.5,44.1,0,0,2,35-.5,46.8,0,0,10.3,2.5,17.8,2.5,0,0,23.8-84.4,33.1-108.1,0,0,3-8.5-3.5-19.4-7.9-13.2-44-14.3-94-22.2,0,0-5.1-3.2-14.6-10.2l-41,3.1h0Z"/>
        <path class="cls-3" d="M556.1,554.5l-7.7,11.6c-3.8,5.8-3.9,13.3-.2,19.1l26.1,41.3c1.2,1.8,3.2,3,5.4,2.9l13.3-.4c4.2-.1,6.6-4.7,4.5-8.2l-21-35.3c-3.8-6.5-3.1-14.7,1.8-20.5l9-10.5h-31.2"/>
        <path class="cls-3" d="M532.3,545.6l82.6-2.8c2.7,0,4.7,2.4,4,5l-1.8,7c-.5,1.8-2,3-3.9,3h-79.2c-1.7,0-3.2-1-3.7-2.6l-1.6-4.2c-.9-2.5.9-5.3,3.6-5.4h0Z"/>
        <path class="cls-7" d="M710,687.5l-1.4-.4c.2-.8,23.9-84.7,33.1-108.2,0,0,2.8-8.3-3.5-18.8-5.8-9.8-28.8-12.9-60.6-17.2-9.9-1.3-21.1-2.8-32.8-4.7l.2-1.4c11.8,1.9,23,3.4,32.8,4.7,33.4,4.5,55.5,7.5,61.6,17.8,6.6,11.1,3.7,19.7,3.6,20-9.1,23.5-32.8,107.2-33.1,108.1h0Z"/>
        <path class="cls-8" d="M1106.8,162.6h45.4s-1.9,35.2,4.3,49.8c0,0-43.4,4.7-49.8,0,0,0,2.2-42.9,0-49.8h0Z"/>
        <path class="cls-56" d="M1341.6,162.6h45.4s-1.9,35.2,4.3,49.8c0,0-43.4,4.7-49.8,0,0,0,2.2-42.9,0-49.8h0Z"/>
        <path class="cls-56" d="M1185.4,141.6h45.4s-1.9,35.2,4.3,49.8c0,0-43.4,4.7-49.8,0,0,0,2.2-42.9,0-49.8h0Z"/>
        <path class="cls-56" d="M1178.1,210.3h45.4s-1.9,35.2,4.3,49.8c0,0-43.4,4.7-49.8,0,0,0,2.2-42.9,0-49.8h0Z"/>
        <path class="cls-59" d="M1088.4,105.1h45.4s-1.9,35.2,4.3,49.8c0,0-43.4,4.7-49.8,0,0,0,2.2-42.9,0-49.8h0Z"/>
        <path class="cls-8" d="M1252.5,141.6h45.4s-1.9,35.2,4.3,49.8c0,0-43.4,4.7-49.8,0,0,0,2.2-42.9,0-49.8h0Z"/>
        <path class="cls-8" d="M211.7,223h45.4s-1.9,35.2,4.3,49.8c0,0-43.4,4.7-49.8,0,0,0,2.2-42.9,0-49.8h0Z"/>
        <path class="cls-56" d="M154.8,238.1h45.4s-1.9,35.2,4.3,49.8c0,0-43.4,4.7-49.8,0,0,0,2.2-42.9,0-49.8h0Z"/>
        <path class="cls-56" d="M386.2,144.5h45.4s-2,35.2,4.3,49.8c0,0-43.4,4.7-49.8,0,0,0,2.2-42.9,0-49.8h0Z"/>
        <g>
          <path class="cls-51" d="M274.8,667.4h-27.6c-3.2,0-5.9,2.6-5.9,5.9v16.7c0,3.2,2.6,5.9,5.9,5.9h8.4l3.2,5.3c1,1.7,3.4,1.7,4.4,0l3.2-5.3h8.4c3.2,0,5.9-2.6,5.9-5.9v-16.7c0-3.2-2.6-5.9-5.9-5.9h0Z"/>
          <path class="cls-64" d="M270.4,681.4c1.2-.7,2-1.9,2-3.4,0-2.1-1.7-3.9-3.9-3.9s-3.9,1.7-3.9,3.9h-7.2c0-2.1-1.7-3.9-3.9-3.9s-3.9,1.7-3.9,3.9.8,2.7,2,3.4c-1.2.7-2,1.9-2,3.4,0,2.1,1.7,3.9,3.9,3.9s3.9-1.7,3.9-3.9h7.2c0,2.1,1.7,3.9,3.9,3.9s3.9-1.7,3.9-3.9-.8-2.7-2-3.4Z"/>
        </g>
        <path class="cls-3" d="M1126.9,553.9s2,24.6-19.6,57l-25.1-1.3s22.5-38.9,19.9-57l24.8,1.3h0Z"/>
        <path class="cls-3" d="M1079.7,475.4s45.6-6.6,79.8,8.9c3.7,1.7,6.3,5,7,9,1.7,10.4,3.3,32.5-7.2,55.1-1.7,3.6-5.1,6.2-9,6.8-14.9,2.3-53.8,6.7-75.7-5.5,0,0-9.3-35.8,5.2-74.4Z"/>
        <path class="cls-3" d="M1078.7,475.2s40.2-5.8,70.3,7.9c3.3,1.5,5.6,4.4,6.2,8,1.5,9.2,2.9,28.6-6.4,48.6-1.5,3.2-4.5,5.5-7.9,6-13.1,2-47.4,5.9-66.7-4.8,0,0-8.2-31.5,4.6-65.6h0Z"/>
        <path class="cls-3" d="M985.4,536.2l7.7,11.6c3.8,5.8,3.9,13.3.2,19.1l-26.1,41.3c-1.2,1.8-3.2,3-5.4,2.9l-13.3-.4c-4.2-.1-6.6-4.7-4.5-8.2l21-35.3c3.8-6.5,3.1-14.7-1.8-20.5l-9-10.5h31.2"/>
        <path class="cls-3" d="M1009.2,527.3l-82.6-2.8c-2.7,0-4.7,2.4-4,5l1.8,7c.5,1.8,2,3,3.9,3h79.2c1.7,0,3.2-1,3.7-2.6l1.6-4.2c.9-2.5-.9-5.3-3.6-5.4h0Z"/>
        <path class="cls-42" d="M267.8,632.3l-17.9-5s-32.5-64.9-40.3-104.1l-12.5,5.8c-6,2.8-8.7,9.7-6.3,15.8l33.4,83.9c1.8,4.4,5.9,7.4,10.7,7.8l36.3,2.4-3.4-6.5h0Z"/>
        <path class="cls-67" d="M241.5,634c-4.8-.3-8.9-3.3-10.7-7.8l-33.4-83.9c-2.4-6.1.3-13,6.3-15.8l6.1-2.8c0-.2,0-.4-.1-.6l-12.5,5.8c-6,2.8-8.7,9.7-6.3,15.8l33.4,83.9c1.8,4.4,5.9,7.4,10.7,7.8l36.3,2.4-1.5-2.9-28.2-1.8h0Z"/>
        <path class="cls-3" d="M342.5,704.6s-2.3-3.2-4.1-2.7c-1.8.5-5,4.5-5,4.5,0,0,9.1,48.1,15.1,56.5s8.8,8.5,14.7,8.5h28.7s5-2.2,2.1-7l-36-5.4-15.4-54.4h0Z"/>
        <polygon class="cls-3" points="370 679.5 352.6 712.3 373.3 728.9 402.9 691.2 370 679.5"/>
        <path class="cls-3" d="M363.1,685.9s15.4,19.5,28.7,22.7c0,0,38.8-60.3,49.6-72.1s19.4-42.6,19.4-42.6l-42.4-27.1s-23.5,59.8-36.6,83.4c-9.3,16.8-18.6,35.8-18.6,35.8h0Z"/>
        <path class="cls-3" d="M359.7,700.4l-2.1,5.8s7.1,17.7,18.9,18.7c0,0,5.6-2.5,8.4-1.6l1.6,2.6-8.9,8s-3.5,16.7-2.6,17.6,16.6,6,20.4,6c0,0,.5,7.7-4.7,10.1,0,0-27.4.9-33.5-5.2,0,0-14.5-26.5-16.6-58.3,0,0,14.9-4.6,18.6-8.1,0,0,3.4,1.8.5,4.5h0Z"/>
        <path class="cls-33" d="M981.7,381.6s-14.7-.7-36.9,36c0,0,19.9,8.9,31.2,18.4l5.7-54.5Z"/>
        <path class="cls-29" d="M942.9,426.5s-11.5,19.2-15.1,32c0,0-23.8-21.6-40.9-32-17.1-10.4-32.5-21.2-33.5-25.2-.9-4-6.7-18.3-10-24.2s-4-11.6-4-13.2-5.8-.9-6.5,5.7.4,11.4,1.3,14c0,0-10.7-5.8-13.4-3.8s-4.9,5.9-5.5,10.5-2.7,9.5,0,11.9,7.5,9.6,15.5,11.3c8.2,1.7,11.4,4.4,14.5,9s26.6,31.9,42.5,47.9c15.8,15.9,29.2,30.7,44.8,27.3s31-34.8,39.2-54.5c0,0-15.7-15.1-29-16.6h0Z"/>
        <path class="cls-33" d="M944.8,417.7l-1.8,8.8,29,16.6,4.4-7.6s-15.9-12-31.6-17.8h0Z"/>
        <path class="cls-40" d="M986.3,377.9s-8.9,4.6-11.1,18.9c-2.7,17.4-1.5,19.5-.9,37.4.7,19.3,6.4,72.6,10.5,91.7,0,0,42.8,4.6,95.2,0,0,0,11.1-115.8-24.7-153.2,0,0-23.3-23-69,5.2h0Z"/>
        <path class="cls-33" d="M1068.7,394.6l-34.8-4.3s6.3,66.8,8.3,120.1l39.5-18.7c.3-28.5-1.6-68.8-13-97.1Z"/>
        <path class="cls-29" d="M1080.2,421.7s20.9,57.5,19.8,81.2c0,0-.3,15.5-19.8,15.5s-55.3,5.4-106.7-2.1c0,0-7,2.4-18.2,2.1-11.3-.3-31-2.1-31-2.1h-9.6s.5-4.3,4.9-6c4.4-1.6,15.9-5.5,25.5-11,9.6-5.5,23.1,3.5,23.1,3.5,0,0,67.6-16.1,95.2-16.3l-13.6-47.3,30.5-17.6h0Z"/>
        <path class="cls-68" d="M1025,312.1s-.7,31.3,4.9,46.3c0,0-24.2,31.1-32.9,42.8,0,0-7.7-14-8.5-25.6,0,0,4.2-15.6,2.9-34.3l33.7-29.2h0Z"/>
        <path class="cls-29" d="M1039.4,295.6c0-20.4-16.5-36.8-36.8-36.8s-26.5,8-32.6,19.7h0s-9.4,15.1-9.4,39l6.7,1.4s-5.8,28.3,5.5,33.6c11.3,5.3,46.1,8.4,60.8-37h0c3.7-5.8,5.9-12.6,5.9-19.9h0Z"/>
        <path class="cls-70" d="M1003.6,308.2l-5.1.7c-1.3.2-2.6-.3-3.5-1.4l-1-1.2c-.7-.9-1-2.1-.8-3.2l3.9-20.5c.2-1,0-1.9-.5-2.7l-5-8.1c-1-1.7-3.2-2.3-5-1.4l-14,6.9c-1.5.8-3.4.4-4.6-.9l-9.7-10.7c-1.2-1.4-1.3-3.5-.2-4.9l9.1-12c.7-.9,1.7-1.4,2.8-1.5l12.3-.8c.4,0,.9-.1,1.3-.3l11.9-5.1c2.5-1.1,5.1-1.7,7.8-1.9,3.3-.3,7.2-.1,8,.4,1.4,1,7,4.7,11.5,7.4,3,1.8,5.6,4.1,7.6,7h0c1,1.4,2.1,2.6,3.3,3.8l20.5,19.1c1.5,1.4,1.6,3.8.3,5.3l-9.2,10.9c-.2.2-.4.5-.5.7l-11,21.5c-.1.2-.2.5-.3.8l-5.3,20.1c-.4,1.6-2.5,2-3.4.6l-2.4-3.4c-.3-.4-.5-1-.6-1.5l-2.8-14.1c-.2-1.1-.9-2-1.8-2.6l-10.9-6.3c-.8-.4-1.6-.6-2.5-.5h0Z"/>
        <path class="cls-29" d="M1004.9,310.6s0,8.4,9.6,6.7c9.6-1.7,9.8-11,10.1-16.1s-1.4-16.5-9.8-14.4c-8.4,2.2-9.8,23.7-9.8,23.7h0Z"/>
        <path class="cls-33" d="M998.6,384.4s-3.2,4.1-1.7,16.8l25.3-24.2-23.7,7.4h0Z"/>
        <path class="cls-19" d="M1035.7,363.4l-7.1-9.1s-26,22.5-30,30.2c0,0,8,10.3,18.5,15.4,0,0,6.7-12.3,10.3-22.2.9-2.4,1.9-4.7,3.2-6.9,1.7-2.8,3.9-6.3,5-7.3h0Z"/>
        <path class="cls-19" d="M1035.7,369.4s-5.5,4.5-3.6,12.7c1.8,8.2,7.7,33.4,12.5,53.9,0,0,14-1.5,37.5-26.2,0,0-27.1-57.1-46.3-40.4h0Z"/>
        <path class="cls-19" d="M1082,409.9l1.7,11s-7.7,15.8-33.1,22.2l-6.1-7s19.6-8.9,37.5-26.2h0Z"/>
        <path class="cls-33" d="M982,375.9s-1.4,7.7-3,15.7l9.4-10-6.4-5.7h0Z"/>
        <path class="cls-19" d="M997,401.2s-13.2-17.8-15-25.3l7.5-5.3s-2.4,8.3,7.4,30.6Z"/>
        <path class="cls-29" d="M838,383.6s-16.9-19.6-22.6-27.4c-1.2-1.5-3.5-1.5-4.5.2-.8,1.3-1,3.5.7,6.9,4,8,16.7,22.6,16.7,22.6l8.2,1.4,1.6-3.8h0Z"/>
        <path class="cls-3" d="M961.7,684.8l34.5,43.8s10.3-10.3,12.8-18.4l-26.2-46.8-21.2,21.4Z"/>
        <g>
          <circle class="cls-3" cx="935.8" cy="760.5" r="9.5"/>
          <path class="cls-3" d="M927.5,753.2l88.3-21.3v-21.7l-83.2,30.7c-3,1.1-5,4-5,7.2v5.1h0Z"/>
          <rect class="cls-3" x="1011.1" y="633.7" width="9.3" height="97.8"/>
          <path class="cls-3" d="M960.6,619.9c7.8-.8,32.2-2.6,74.3.3,0,0,35.1-.3,37.7,2.8,2.6,3,2.5,16.5-1.6,17.2-4,.7-62.3,1.4-110.9-2-1.7-.1-3.1-1.5-3-3.1l.6-12.5c0-1.5,1.3-2.6,2.9-2.8h0Z"/>
          <path class="cls-3" d="M937.1,603.4c11.3-1.2,46.7-3.8,107.9.5,0,0,50.9-.4,54.7,4,3.8,4.4,3.6,24-2.4,25-5.8,1-90.4,2.1-160.9-2.9-2.5-.2-4.4-2.2-4.3-4.5l.9-18.1c0-2.1,1.9-3.8,4.2-4h0Z"/>
          <circle class="cls-3" cx="1095.7" cy="760.5" r="9.5"/>
          <ellipse class="cls-3" cx="1007.3" cy="761.2" rx="4.6" ry="9.5"/>
          <path class="cls-3" d="M1104,753.2l-88.3-21.3v-21.7l83.2,30.7c3,1.1,5,4,5,7.2v5.1h0Z"/>
          <path class="cls-3" d="M1012.9,751.7h-5.6v19.1h5.6c2.6,0,4.6-4.3,4.6-9.5s-2.1-9.5-4.6-9.5h0Z"/>
          <polygon class="cls-3" points="1008.4 720.9 1001.1 753.8 1010.2 753.8 1034.1 720.8 1008.4 720.9"/>
        </g>
        <path class="cls-3" d="M1015,538.4s-96,13.2-124.3,35.2c0,0-11.9,10.1-6.3,23.8,5.6,13.7,60.7,85.2,89.2,106.6,0,0,13.5-1.8,26.4-19.5,0,0-26.7-57.2-55.2-85.8l102.5-29.6-32.2-30.7h0Z"/>
        <path class="cls-3" d="M904.5,679l-19.8,42.6,15.2,11.7s26.2-24.1,36.4-43.1l-31.9-11.2h0Z"/>
        <path class="cls-3" d="M892.3,692.6s6.5,19.6,35.1,23.9c0,0,35.9-80.9,35.1-108,0,0,3.9-1.1,8.8-.8,8.3.5,73.7,7.9,107.9-8.7,34.2-16.6-5.8-88.6-5.8-88.6l-61.4,24.7s-81,37.5-91.6,54-10.5,61.8-28.1,103.5h0Z"/>
        <path class="cls-7" d="M893,692.9l-1.3-.5c9.3-22.2,13.7-45.7,17.3-64.7,3.3-17.4,5.8-31.2,10.9-39,10.6-16.5,90-53.3,93.4-54.9l.6,1.3c-.8.4-82.4,38.2-92.8,54.4-4.9,7.6-7.6,21.9-10.7,38.5-3.6,19-8,42.7-17.4,65h0Z"/>
        <path class="cls-3" d="M1018.3,707.3s4.5-3,9.5-2.8,6.6,7.2,6.6,8.9c.1,4.2,0,22.4-2.6,30s-9.8,25.1-18.1,26.7c-8.3,1.6-10.5,4.3-37.1.9,0,0-14.6-2.5-8.3-9.3l36.8-8.3,13.1-46h0Z"/>
        <path class="cls-3" d="M1020.9,706s-8.8,1.5-9.8,0-7.8-9.1-7.8-9.1c0,0-4.2.3-4.2,2.2s4.9,7.5,4.9,7.5c0,0,3.7,4.9-1.7,9.1-5.4,4.2-16.9-3.4-16.9-3.4,0,0-7,1.2-7.5,3.9s7.3,9.8,11.2,11.7c3.9,2-2,15.9-2,15.9l-19.5,13.7s0,4.3,1.7,5.8c1.7,1.5,27.6,2.7,37.1,0s17.3-20.1,17.8-34.2-.2-20.7-3.4-23.1h0Z"/>
        <path class="cls-3" d="M906.3,731.2s3.8,1.7,5.7,7.6c1.9,5.9-9.5,23.4-25.3,27.8s-44.5,6.6-51.5.2c-7-6.5-12-14.2-9-23.6,3-9.3,33.5-3,33.5-3l46.6-9h0Z"/>
        <path class="cls-3" d="M907.9,728.7c.3-1.1.8-2.7,1.6-5,.7-1.9.3-4-1.1-5.5-3-3.2-8.8-8.5-15.7-9.9-2-.4-4.1.4-5.3,2.1-2.2,3-6,8.3-8,13.4,0,0-.9.2-10.8,4.4s-8.1,5.8-17,7.6c-8.9,1.8-21.7-1-22.6,6.4s8.4,21.3,25.8,21.8c10.7.2,32.8-1.1,44.6-15.1,11.8-14,8.8-16.2,8.8-16.2h0c-.5-1.3-.6-2.7-.2-4h0Z"/>
        <path class="cls-45" d="M496.6,415.3s9.3-.4,12.3-3.9,6.4-9.2,9.6-8.4,2.9,4,2.9,4c0,0-2.8,13.5-12.7,17.8l-12.1-9.4h0Z"/>
        <path class="cls-45" d="M430.2,467.2s14.8,8.2,35.7,27.3c0,0,5-22.7,11.8-36.1,6.8-13.4,9.8-30.2,9.8-30.2,0,0-4.1-10.9,1.4-12.7,5.5-1.8,14.1-.5,20.9-2.3,6.8-1.8,23.6-15.5,26.1-20.5s5.9-3.4,5.9-3.4c0,0,3.9.2-1.6,10.4s-3.6,11.8-14.1,17.5-20.2,7-23,15.9-5.7,67.2-7.3,73.8c-1.6,6.6-7.5,23.4-20.4,24.8-13,1.3-52.7-16.1-68.2-34.3l23-30.2h0Z"/>
        <polygon class="cls-45" points="528.8 732.6 488.2 669.2 501.9 716.8 495.5 722.1 507.8 748.2 528.8 732.6"/>
        <polygon class="cls-3" points="423.5 772.2 440.8 772.2 511.1 535.5 482.1 535.5 423.5 772.2"/>
        <path class="cls-9" d="M358.6,537.2s45.1-1.7,112.2,42.9c6.2,4.1,11.5,9.4,12.1,16.8,1.7,20.8,20.8,66.5,39.4,116,0,0-12.6,8.9-26.6,13.8,0,0-44.4-59.1-50.6-72.8-6.9-15.2-16-47.8-16-47.8,0,0-134.7-1.5-149.1-2.8-12-1-32.6-8.2-21.6-54,0,0,47.2-17.2,100.2-12h0Z"/>
        <path class="cls-4" d="M482.8,596.9c-.6-7.4-5.9-12.8-12.1-16.8-72.9-47.6-112.5-42-121.9-43.3l-25.9,10.4s45.3,4.2,40.2,57.9c34.3.5,66,.9,66,.9,0,0,9,32.7,16,47.8,6.3,13.8,50.6,72.8,50.6,72.8,14-4.9,26.6-13.8,26.6-13.8-18.7-49.4-37.7-95.2-39.4-116h0Z"/>
        <path class="cls-23" d="M437.3,471s-12-11-14.2-19.9c-2.2-8.8-14.5-21.3-25.6-26.2-11.1-5-20.8-15.2-20.8-15.2l-25-10s-23.2,2.4-33.5,3.2c-8.3.6-18.3.8-23.5,4.5-6,4.4-9,5.5-16.3,45.3-7.9,42.4-15.4,73.2-17.5,83.8-2.3,11.8-4.5,20.7-4.5,20.7,0,0,18.6-3.3,42.4-6.3,20.3-2.5,50.1-3.3,84.5-10.3,0,0-10.8-37.9,1.2-51.5l28.1,14.5s8.8-19,24.6-32.5h0Z"/>
        <path class="cls-31" d="M383.4,540.5s-6.4-23.6-3.7-42.6l-44-20.7-23.3-27.3-26.4-7.8s9.2,16.9,32.7,55.3c5.8,9.5,4.2,44.3,4.2,51.2,15.6-1.6,43.2-3.6,60.5-8.1h0Z"/>
        <path class="cls-31" d="M384.6,489l28.1,14.5s8.8-19,24.6-32.5c0,0-12-11-14.2-19.9-2.2-8.8-14.5-21.3-25.6-26.2,7.6,4.3,10.8,24.2,2.7,35.5-8.1,11.4-15.6,28.6-15.6,28.6h0Z"/>
        <path class="cls-3" d="M415.9,761.9c0,5.3-4.3,9.5-9.5,9.5s-9.5-4.3-9.5-9.5,4.3-9.5,9.5-9.5,9.5,4.3,9.5,9.5Z"/>
        <path class="cls-3" d="M414.7,754.6l-88.3-21.3v-21.7l83.2,30.7c3,1.1,5,4,5,7.2v5.1h0Z"/>
        <rect class="cls-7" x="367.3" y="682.6" width="1.4" height="88.7" transform="translate(-441.3 821) rotate(-69.8)"/>
        <rect class="cls-7" x="369.8" y="698.6" width="1.4" height="90.8" transform="translate(-439.6 929.6) rotate(-76.4)"/>
        <rect class="cls-3" x="321.8" y="633.7" width="9.3" height="99.2"/>
        <path class="cls-3" d="M381.6,618.5c-7.8-.8-32.1-2.6-74.3.3,0,0-35-.3-37.7,2.8-2.6,3-2.5,16.5,1.6,17.2,4,.7,62.3,1.4,110.9-2,1.7-.1,3.1-1.5,3-3.1l-.6-12.5c0-1.5-1.3-2.6-2.9-2.8h0Z"/>
        <path class="cls-24" d="M405,602c-11.3-1.2-46.6-3.8-107.9.5,0,0-50.9-.4-54.7,4s-3.6,24,2.4,25c5.8,1,90.4,2.1,160.9-2.9,2.5-.2,4.4-2.2,4.3-4.5l-.9-18.1c-.1-2.1-1.9-3.8-4.2-4h0Z"/>
        <path class="cls-34" d="M409.2,606.1c-.1-2.1-1.9-3.8-4.2-4-7.4-.8-25.1-2.1-53.7-1.8,16.4.2,27.1,1.2,32.2,1.8,2,.2,3.5,2,3.6,4l.8,18.1c.1,2.3-1.6,4.3-3.8,4.5-34.3,2.8-72.4,3.6-100.2,3.7,32.4,0,79.6-.7,121.9-3.7,2.5-.2,4.4-2.2,4.3-4.5l-.9-18.1h0Z"/>
        <path class="cls-42" d="M270.3,568.5l-7.7,11.6c-3.9,5.8-3.9,13.3-.2,19.1l26.1,41.3c1.2,1.8,3.2,3,5.4,2.9l13.3-.4c4.1-.1,6.6-4.7,4.5-8.2l-21-35.3c-3.9-6.5-3.1-14.7,1.8-20.5l9-10.5h-31.2"/>
        <path class="cls-67" d="M262.6,580.1l7.7-11.6h9.5l-7.7,11.5c-5.1,7.6-5.2,17.5-.3,25.2l24.1,38.2h-2.5c-1.9.1-3.8-.8-4.8-2.5l-26.3-41.7c-3.7-5.9-3.6-13.4.2-19.1Z"/>
        <path class="cls-24" d="M264.9,556.9l82.6-2.8c2.7,0,4.7,2.4,4,5l-1.8,7c-.5,1.8-2,3-3.9,3h-79.2c-1.7,0-3.2-1-3.7-2.6l-1.6-4.2c-.9-2.5.9-5.3,3.6-5.4h0Z"/>
        <path class="cls-34" d="M347.5,554.1l-8.8.3c1.8.7,2.9,2.7,2.4,4.7l-1.8,7c-.5,1.8-2,3-3.9,3h10.4c1.8,0,3.4-1.2,3.9-3l1.8-7c.7-2.6-1.3-5.1-4-5Z"/>
        <circle class="cls-3" cx="246.5" cy="761.9" r="9.5"/>
        <ellipse class="cls-3" cx="302.5" cy="757.6" rx="4.6" ry="9.5"/>
        <path class="cls-3" d="M238.1,754.6l88.3-21.3v-21.7l-83.2,30.7c-3,1.1-5,4-5,7.2v5.1h0Z"/>
        <path class="cls-3" d="M296.9,748.1h5.6v19.1h-5.6c-2.6,0-4.6-4.3-4.6-9.5s2.1-9.5,4.6-9.5h0Z"/>
        <polygon class="cls-3" points="333.8 722.3 302.5 750.2 293.4 750.2 308.1 722.3 333.8 722.3"/>
        <path class="cls-45" d="M354.6,359.6s1,21.7-7.6,42.1c0,0,.9,30.7,26.8,27,0,0,12-2,12.5-8.8,0,0,3.8-17.1,2.7-31.9l-34.5-28.4h0Z"/>
        <path class="cls-54" d="M417.5,336.8s-9.7-19.1-5.4-24.9h-28.3c-2,0-4,0-6,.2-20.2,2.2-34.9,20.4-32.6,40.6.8,7.3,3.7,13.9,8,19.2,19.5,43.6,57.9,35.3,68.8,29.4,5.3-2.9-2.5-33.1-2.5-33.1l9.7-5.4-11.7-26h0Z"/>
        <path class="cls-13" d="M377.8,363.4l7.6-4.5-2.2-14.1,12-18.9v-6l15.9-1.8s17.5-20.2,9.2-30.7l-24.3,1.7-25.1-6.6s-15,9.4-20.1,26.6c0,0-13.6,3.4-15.9,8,0,0-8.8,12.5,18.2,54.7l8.7-7,16-1.4h0Z"/>
        <path class="cls-54" d="M367.7,344.2s-4.7-7-11.7-.2c-7,6.8-2,14.6.6,19s10.4,12.9,16.2,6.5c5.8-6.5-5.1-25.2-5.1-25.2h0Z"/>
        <path class="cls-28" d="M500.4,457.3l3.3,2.7-45.3,54.6c-.8.9-2.1,1-3,.3h0c-.9-.8-1-2.1-.3-3l45.3-54.6h0Z"/>
        <rect class="cls-47" x="467.3" y="470" width="94.3" height="4.8" transform="translate(-147.5 695.1) rotate(-61.2)"/>
        <path class="cls-47" d="M544.8,516.7h-96.1v-4.2h96.1c1.3,0,2.3-.7,2.8-1.9.5-1.2.2-2.4-.7-3.4l-29.2-29.2c-2.3-2.3-2.8-5.9-1.2-8.7l21-38,3.7,2-21,38c-.7,1.2-.4,2.7.5,3.7l29.2,29.2c2.1,2.1,2.7,5.2,1.6,8-1.2,2.8-3.7,4.5-6.8,4.5h0Z"/>
        <path class="cls-54" d="M341.1,446.5s11,14.7,19,34.2c0,0,16.8.5,46.3,6.6,29.4,6,45.4,3,45.4,3,0,0,6.5-4.3,14-6.9,3.3-1.2,13.9-10.1,14.8-11.4,0,0,6.2,3.4,1.5,8.7,0,0-8.1,6.2-4.2,7.4,2.6.9,3.8-1.5,3.8-1.5,0,0,5.9,0,7.4,1.6,2.5,2.5,8.4,8.7,2.7,14.4s-9.2,9.4-13.8,11.8c-4.6,2.4-10.4-1.8-18.8-3.1-8.4-1.3-36.8,2.3-52.1,3.8-5.7.6-50.1,4.8-63.4-.9-13.3-5.8-21-22.8-23.5-26.1-2.4-3.3-15.5-24.6-20-31.2,0,0,16-13.9,41-10.3h0Z"/>
        <path class="cls-50" d="M345.7,451.4s-24.6,4.5-39.4,15.8c0,0-25-25.1-25-38.1s8.8-21.2,17-23.8c8.2-2.5,22.1-1.1,30,10.9s17.3,35.1,17.3,35.1h0Z"/>
        <path class="cls-20" d="M589.9,764.3s2.5,3.5,1.7,5.2-87.5,1.6-93.5,1c0,0-4.3,0-4.5-1.7-.2-1.6,1.9-5.4,1.9-5.4l94.4.9h0Z"/>
        <path class="cls-4" d="M500.7,735.3l-5.2,26.5s-.4,3.3,2.3,3.7,79.7,2.7,92.7.6c0,0,3.4-3.1,1.4-11.8,0,0-30.5-5.2-38.5-10.4s-13.7-6.4-25.1-17.1c0,0-4.1,2.4-5.3,6.7,0,0-4,9.9-14.4,7.2,0,0-5.8-2.1-5.9-5.8l-2,.6h0Z"/>
        <path class="cls-34" d="M222,474.4c-5.5-.9-12.2-1.7-19.8-1.5-9.4.2-16.5,6.1-15.7,13,1.8,15.3,3.8,33.3,16.2,66.1,3.2,8.5,15.3,14.4,26.8,12.9,6.7-.8,13.5-2.6,18-6.1,1.7-1.3,2.5-3.1,2.4-4.9-.5-9.2-.1-31.8-10.9-67-1.8-6-8.7-11-17-12.4h0Z"/>
        <path class="cls-24" d="M232.9,476.8c-2.5-.8-5.6-1.5-8.9-2.1-6.6-1.1-12.3,2.7-11.6,7.8,2,15,4.7,37.1,17.4,71.8,2.3,6.2,12.8,8.8,18,4.2.1-.1.3-.3.4-.4,1.4-1.3,2.1-3,2.1-4.8-.4-9.7,0-35.6-10.3-70.2-.8-2.8-3.6-5.2-7.1-6.2h0Z"/>
        <path class="cls-68" d="M976.7,338c-2.1,0-3.3-.4-3.5-.4l.5-1.6c0,0,7.4,2,16.2-4.3l1,1.4c-5.8,4.1-11,5-14.2,5h0Z"/>
        <path class="cls-68" d="M416,381.5l-13.2,1.3s.1,6.3,8.2,5.2c8-1,5.1-6.5,5.1-6.5h0Z"/>
        <path class="cls-3" d="M694.4,677.9s-3.8,23.2-6.6,26.5c0,0,13.1.4,17.4-2,4.3-2.4,2.7-6.6,2.7-6.6,0,0-1.6-5.1,1.4-15.7l-14.8-2.2h0Z"/>
        <polygon class="cls-68" points="1183.8 670 1171.8 665.6 1168.1 670.5 1170.3 687.7 1181.7 698.6 1183.8 670"/>
        <path class="cls-3" d="M1124.4,598.6s-42.8,18.5-51.3,30.6c0,0-7.4,9.2,0,21,7.4,11.8,100,42.7,100,42.7,0,0-6.2-19.1,0-23.2,3.3-2.2,7.5-1.2,7.5-1.2,0,0-30.6-10.9-38.5-22.8-8-11.9-5.8-36.9-5.8-36.9l-11.8-10.2Z"/>
        <path class="cls-42" d="M1316.9,596.1s2,24.6-19.6,57l-25.1-1.3s22.5-38.9,19.9-57l24.8,1.3h0Z"/>
        <path class="cls-67" d="M1316.9,596.1l-24.8-1.3c0,.1,0,.2,0,.3l18.6,1s1.9,24.5-19.4,56.7l6,.3c21.6-32.3,19.6-57,19.6-57h0Z"/>
        <path class="cls-34" d="M1269.7,517.6s45.6-6.6,79.8,8.9c3.7,1.7,6.3,5,7,9,1.7,10.4,3.3,32.5-7.2,55.1-1.7,3.6-5.1,6.2-9,6.8-14.9,2.3-53.8,6.7-75.7-5.5,0,0-9.3-35.8,5.2-74.4h0Z"/>
        <path class="cls-24" d="M1268.8,517.5s40.2-5.8,70.3,7.9c3.3,1.5,5.6,4.4,6.2,8,1.5,9.2,2.9,28.6-6.4,48.6-1.5,3.2-4.5,5.5-7.9,6-13.1,2-47.4,5.9-66.7-4.8,0,0-8.2-31.5,4.6-65.6h0Z"/>
        <path class="cls-23" d="M1236.3,566.1s-73,6-124,39.5c-4.2,2.8-7.6,6.5-10,10.9-2.9,5.5-5.9,13.2-4.3,20.2,2.9,12.2,37,55.6,71.9,96.2,0,0,14.8-5,21.2-14,0,0-17-24.8-26.9-44.7-10-19.9-10-24.9-18.6-37.5,0,0,3.6-8.1,101.2-3.2,97.6,5,46.6-77.4,46.6-77.4l-57.2,10h0Z"/>
        <path class="cls-31" d="M1145.7,636.7s1.4-3.2,26.1-4.3c-2.4-55.4,47.7-64.1,49.9-64.5-23.9,3.6-72.4,13.4-109.4,37.7-4.2,2.8-7.6,6.5-10,10.9-2.9,5.5-5.9,13.2-4.3,20.2,2.9,12.2,37,55.6,71.9,96.2,0,0,14.8-5,21.2-14,0,0-17-24.8-26.9-44.7-10-19.9-10-24.9-18.6-37.5h0Z"/>
        <circle class="cls-3" cx="1147.1" cy="761.9" r="9.5"/>
        <path class="cls-3" d="M1138.7,754.6l88.3-21.3v-21.7l-83.2,30.7c-3,1.1-5,4-5,7.2v5.1h0Z"/>
        <path class="cls-15" d="M1173.3,732.9s-5.4,9.7-16.1,15.3c-10.7,5.6-19.8,5.8-21.8,8.4-2.1,2.6-.9,7.2,2,10.5,0,0,23.4,1.6,39.3-4,15.9-5.6,24.2-14,29.6-26.7,0,0-4.2-11.7-12.5-15.8-8.2-4.1-20.5,12.4-20.5,12.4h0Z"/>
        <path class="cls-56" d="M1157.7,495.4s-2.9,20.9,30.9,23.8c0,0,14.7,21.4,33.2,48.6,0,0,19.7,9.1,52.3-1.3,0,0,10.3-4.5,23.7-2.4,0,0-26.1-114.6-104.6-143.2,0,0-6.8-2.7-15.8,0s-44.8,56.7-44.8,56.7l25.1,17.8h0Z"/>
        <path class="cls-37" d="M1226.3,569.4c-3.2-2.5-5.3-5.3-6.1-8.2-7.1-24.6-15.9-53.7-28.2-59.7-12.3-6-1.1-23.8-1.1-23.8l-35.1,16.4,2,1.4s-2.9,20.9,30.9,23.8c0,0,14.7,21.4,33.2,48.6,0,0,1.5.7,4.4,1.5h0Z"/>
        <path class="cls-53" d="M1104.2,387.3s-6.4-20.4-5.3-38.6l16.3,8.7-10.9,29.9h0Z"/>
        <path class="cls-68" d="M1132.6,430.6l28.5,17.6s23.6-4.7,25.4-25.2l-10.6-10.7-43.3,18.2Z"/>
        <path class="cls-29" d="M1102.1,366.9s-4.9,44.8-5.2,49.8c-.3,4.8-2.6,11.4,14.7,17,14.5,4.7,30.8-1.7,57.8-20,0,0,15.5-22.8,6.3-33.4s-33.9-34.6-73.7-13.4h0Z"/>
        <path class="cls-3" d="M1154.9,398s-5.5-3.9-5.9-7.5c-.5-3.7-3.7-19.7-13.3-19.7s-8.5,5-20.6,2.8c-12.1-2.3-19.9-12.8-20.4-20.6s0-10.3-1.4-12.4c0,0,11.4,0,19.2-6.4s16.5-14.4,34.8-8.9,22.2,3.7,28.6,7.8c6.4,4.1,15.3,12.8,14.4,27.7-.9,14.9-3.2,19-2.3,20.6.9,1.6,3.9-.2,5,1.4s3,4.4,1.4,8.2c0,0,6.4-.5,5.7,7.1,0,0,5.3,1.6,8.5,0s12.1-3.7,22.7,2.8c10.5,6.4,19.2,21.3,23.1,37.8s6.4,38,0,40.5c0,0-16,9.1-40.3-13.5-24.3-22.6-21.3-29.8-23.6-35.2-2.3-5.5-4.1-16-14.8-17.9-10.7-1.8-8.6-8.7-8.6-8.7,0,0,9.6-11.9,2.8-17.2s-12.1,3.2-15.1,11.4h0Z"/>
        <path class="cls-50" d="M1175.9,412.4c2.7.5,4.9,1.5,6.6,2.9,5.4-2.3,15-7.6,17.8-17.3.7-7.5-5.7-7.1-5.7-7.1,1.6-3.9-.2-6.6-1.4-8.2-1.1-1.6-4.1.2-5-1.4,0,0,2.8,4.5-20.7,25.6.7,2,2.7,4.5,8.4,5.5h0Z"/>
        <ellipse class="cls-2" cx="1097.1" cy="383.5" rx="13.2" ry="8.5" transform="translate(517.8 1391.1) rotate(-79.4)"/>
        <path class="cls-29" d="M1108.6,379.8s-7.2,12.7-13.2,22c0,0,6.5,2.5,12.2,2.4,0,0,1.4-9.8,1-24.4h0Z"/>
        <path class="cls-16" d="M1166.6,387.5c-6.9,7.7-20.4,23.4-26.7,34.4-1.2,2-1.1,4.5.1,6.4,2.1,3.4,6.1,8.8,11.2,12,2.4,1.5,5.5,1.2,7.6-.7,5.9-5.5,18.9-18.6,27.7-33.8,1.3-2.2,1.1-5-.5-7-2.3-3-6-7.5-10.4-11.7-2.6-2.5-6.7-2.4-9.1.3h0Z"/>
        <path class="cls-29" d="M1145.4,437.1s3.6-10.5,7.8-12.6c4.2-2.1,9.8-13.4,14.1-20.7,4.2-7.4,9.3-4.9,12.9-3.1s2.6,13.5,1.4,19.5-8.6,16.9-21.8,27.3c0,0-4.8-6.4-14.3-10.4h0Z"/>
        <path class="cls-68" d="M1082.8,503.5s-25.9-3.7-35.5,7.6c0,0-.7,3.4,2.8,4.1,3.4.7,40.3,0,40.3,0l-7.6-11.7h0Z"/>
        <rect class="cls-55" x="960.5" y="433.4" width="5.4" height="85.1" transform="translate(-109.9 422.8) rotate(-23.5)"/>
        <path class="cls-56" d="M1161.1,448.3s-6.3-9.2-20-12.2c0,0-14.2,16.9-29.5,27.2-15.3,10.3-38.5,21.5-45.1,33.2,0,0-.2,22.7,26.9,22.7s67.3-6.5,89.3-29.4c22-22.9-1.1-35.7-10.2-35-9.2.7-31.8,16.5-31.8,16.5,0,0,12.1-16,20.5-23.1h0Z"/>
        <path class="cls-37" d="M1183.2,490.4l-1-1c8.2-8.5,10.9-16.6,7.7-23.3-3.3-7.1-12.4-10.9-17.4-10.5v-1.4c5.3-.4,15.1,3.7,18.7,11.3,2.4,5.1,2.9,13.5-8,24.9h0Z"/>
        <path class="cls-37" d="M1116.3,498.2l-.6-1.3c9.9-4.7,18.9-17.5,22.3-22.8,2-3,3.9-5.7,5.9-8.2,4.7-5.8,11.4-13.7,16.7-18.2l.9,1.1c-5.5,4.6-12.7,13.3-16.5,18-2,2.5-3.9,5.1-5.8,8.1-4.3,6.7-13.1,18.5-22.9,23.3h0Z"/>
        <ellipse class="cls-2" cx="1119.5" cy="392.5" rx="13.2" ry="8.5" transform="translate(527.2 1420.4) rotate(-79.4)"/>
        <path class="cls-3" d="M1112.5,369.3s22.9,9.6,21.3,37.8c0,0,12.7-2,21.4-28.6s-9-22.9-9-22.9l-33.8,13.6h0Z"/>
        <path class="cls-2" d="M1118,391c-10.6-6.8-13.2-5.6-13.3-5.6l-1-1.4c.5-.4,3.5-2,15.2,5.5l-.9,1.4h0Z"/>
        <path class="cls-15" d="M1199.4,674s-5.8-6.5-11.8-6.5-7.8,1-9.2,3.5c-1.4,2.6.2,13.6.9,16.6.7,3-.2,9.4-2.7,15-2.5,5.6-13.1,20.2-11.4,28.3,1.7,8.2,5.4,14.2,10.4,16.5,8.1,4.5,21.3-13,24.1-17.1,5.1-7.4,15.1-53.6-.2-56.4h0Z"/>
        <path class="cls-3" d="M691.2,696.4s5.3-7.5,10.9-7.5,7.2,1.1,8.5,4.1-.2,15.7-.8,19.2c-.6,3.5.2,10.9,2.5,17.3s12.1,23.3,10.5,32.7c-1.5,9.4-1.4,8.7-9.6,8.7-16.3,0-19.7-4.6-22.3-9.3-4.7-8.6-13.9-62,.2-65.2h0Z"/>
        <path class="cls-57" d="M1199.4,674s-7.2-1.6-7,11.1.9,16.1-3.7,25.6c-4.6,9.6-21.3,32.2-13.2,36.7,8.1,4.5,21.3-13,24.1-17.1,5.1-7.4,15.1-53.6-.2-56.4h0Z"/>
        <path class="cls-20" d="M1202.8,675.3s-7.2-1.6-7,11.1.9,16.1-3.7,25.6-24.2,31.4-16.1,36,24.2-12.2,27-16.3c5.1-7.4,15.1-53.6-.2-56.4h0Z"/>
        <path class="cls-57" d="M1206.3,736.3c-5.3,12.8-13.7,21.2-29.6,26.7-15.9,5.6-39.3,4-39.3,4,0,0,.2,2.8,1.1,3.8.9,1,25.8.6,33.1,0s23.7-9,28.5-14.6c4.8-5.6,10.7-14,10.8-19,0,0-1.9-1.4-4.7-.8h0Z"/>
        <rect class="cls-3" x="1222.4" y="661.8" width="9.3" height="71.1"/>
        <path class="cls-3" d="M1171.8,648c7.8-.8,32.2-2.6,74.3.3,0,0,35.1-.3,37.7,2.8,2.6,3,2.5,16.5-1.6,17.2-4,.7-62.3,1.4-110.9-2-1.7-.1-3.1-1.5-3-3.1l.6-12.5c0-1.5,1.3-2.6,2.9-2.8h0Z"/>
        <path class="cls-24" d="M1148.4,631.6c11.3-1.2,46.7-3.8,107.9.5,0,0,50.9-.4,54.7,4,3.8,4.4,3.6,24-2.4,25-5.8,1-90.4,2.1-160.9-2.9-2.5-.2-4.4-2.2-4.3-4.5l.9-18.1c0-2.1,1.9-3.8,4.2-4h0Z"/>
        <path class="cls-34" d="M1198.1,658.2c-2.5-.2-4.4-2.2-4.3-4.5l.9-18.1c0-2.1,1.9-3.8,4.2-4,4-.4,11-1,21.2-1.4-39.2-1.3-62.8.5-71.7,1.4-2.3.2-4.1,2-4.2,4l-.9,18.1c-.1,2.3,1.8,4.3,4.3,4.5,52.7,3.7,113.2,4,142.9,3.5-28.3-.4-61.7-1.4-92.4-3.5Z"/>
        <path class="cls-42" d="M1283.1,598.1l7.7,11.6c3.8,5.8,3.9,13.3.2,19.1l-26.1,41.3c-1.2,1.8-3.2,3-5.4,2.9l-13.3-.4c-4.2-.1-6.6-4.7-4.5-8.2l20.9-35.3c3.8-6.5,3.1-14.7-1.8-20.5l-9-10.5h31.2"/>
        <path class="cls-67" d="M1290.8,609.7l-7.7-11.6h-9.5l7.7,11.5c5.1,7.6,5.2,17.5.3,25.2l-24.1,38.2h2.5c1.9.1,3.8-.8,4.8-2.5l26.3-41.7c3.7-5.9,3.6-13.4-.2-19.1h0Z"/>
        <path class="cls-24" d="M1288.6,586.4l-82.6-2.8c-2.7,0-4.7,2.4-4,5l1.8,7c.4,1.8,2,3,3.9,3h79.2c1.7,0,3.2-1,3.7-2.6l1.6-4.2c.9-2.5-.9-5.3-3.6-5.4h0Z"/>
        <path class="cls-34" d="M1234.6,595.6l-1.8-7c-.4-1.6.2-3.1,1.3-4l-28.1-.9c-2.7,0-4.7,2.4-4,5l1.8,7c.4,1.8,2,3,3.9,3h30.8c-1.8,0-3.4-1.2-3.9-3h0Z"/>
        <path class="cls-68" d="M1113.7,419.9c-6.9,0-10.8-2.9-11-3l1-1.3c0,0,6.2,4.5,16.7,1.8l.4,1.6c-2.6.7-5,.9-7.1.9h0Z"/>
        <circle class="cls-3" cx="1306.9" cy="761.9" r="9.5"/>
        <ellipse class="cls-3" cx="1218.6" cy="757.6" rx="4.6" ry="9.5"/>
        <path class="cls-3" d="M1315.3,754.6l-88.3-21.3v-21.7l83.2,30.7c3,1.1,5,4,5,7.2v5.1h0Z"/>
        <path class="cls-3" d="M1224.2,748.1h-5.6v19.1h5.6c2.6,0,4.6-4.3,4.6-9.5s-2.1-9.5-4.6-9.5h0Z"/>
        <polygon class="cls-3" points="1219.6 722.3 1212.3 750.2 1221.4 750.2 1245.3 722.3 1219.6 722.3"/>
        <rect class="cls-14" x="977.7" y="512.3" width="92.8" height="3.9"/>
        <path class="cls-14" d="M1150.1,392.2l-1.3-.6c.1-.3,11.6-27.3-12.8-51.3l1-1c13.1,12.9,16,26.6,16.1,35.8,0,10-2.9,16.8-3,17.1h0Z"/>
        <path class="cls-14" d="M1238.7,423.5c-6.8-11-15.1-15.5-20.8-17.3-6.2-2-10.9-1.3-11-1.3l-.2-1.4c.2,0,19.8-2.6,33.2,19.3l-1.2.7h0Z"/>
        <path class="cls-14" d="M1206.2,430.7c-4.2-7.9-6.6-18-6.6-18.1l1.4-.3c0,.1,2.3,10,6.4,17.7l-1.2.7h0Z"/>
        <rect class="cls-22" x="331.9" y="516.2" width="842" height="19.4"/>
        <polygon class="cls-71" points="884.4 516.2 858.1 516.2 853.8 461.8 888.6 461.8 884.4 516.2"/>
        <path class="cls-26" d="M885.1,471c-4.4,0-7.9,7.1-7.9,16s3.5,16,7.9,16,.2,0,.4,0l2.4-30.9c-.9-.6-1.8-1-2.8-1Z"/>
        <polygon class="cls-35" points="853.8 474.1 855.8 500.6 886.6 500.6 888.7 474.1 853.8 474.1"/>
        <rect class="cls-1" x="852.6" y="459.4" width="37.3" height="2.4"/>
        <polygon class="cls-1" points="888.5 459.4 854 459.4 856.8 453.4 885.7 453.4 888.5 459.4"/>
        <polygon class="cls-3" points="1082.3 772.2 1065 772.2 994.7 535.5 1023.7 535.5 1082.3 772.2"/>
        <g>
          <polygon class="cls-58" points="1031.1 535.5 1101.4 772.2 1107.2 772.2 1037 535.5 1031.1 535.5"/>
          <polygon class="cls-61" points="1124.5 772.2 1107.2 772.2 1037 535.5 1066 535.5 1124.5 772.2"/>
          <polygon class="cls-58" points="474.7 535.5 404.4 772.2 398.5 772.2 468.8 535.5 474.7 535.5"/>
          <polygon class="cls-61" points="381.3 772.2 398.5 772.2 468.8 535.5 439.8 535.5 381.3 772.2"/>
          <polygon class="cls-10" points="1066 535.5 1037 535.5 1048.9 575.6 1075.4 573.8 1066 535.5"/>
          <polygon class="cls-10" points="419.5 617.7 444.9 616 468.8 535.5 439.8 535.5 419.5 617.7"/>
        </g>
        <rect class="cls-43" x="52.5" y="770.8" width="1427.9" height="9.9"/>
        <g>
          <g>
            <path class="cls-21" d="M441.9,544.2c-.1,0-.2,0-.2.2s0,.2.2.2.2,0,.2-.2,0-.2-.2-.2Z"/>
            <path class="cls-21" d="M442.5,541.2c-1.5,0-2.6,1.2-2.6,2.6s1.2,2.6,2.6,2.6,2.6-1.2,2.6-2.6-1.2-2.6-2.6-2.6ZM443.2,543c.1,0,.2.2.1.3l-.2.5h0c.1,0,.2,0,.2.2s0,.2-.2.2h-.3v.2c-.1.1-.3.2-.4.1h0c-.1,0-.2-.2-.1-.3v-.2c.1,0,.5-.9.5-.9,0-.1.2-.2.3-.1ZM441.1,543.9c0,.2-.1.3-.3.3s-.3-.1-.3-.3h0c0-1.2.9-2.1,2-2.1h.1c.2,0,.3.1.3.3s-.1.3-.3.3c0,0-.2,0-.3,0-.6,0-1,.6-1.1,1.1,0,0,0,.2,0,.3h0ZM441.5,545.2c-.1,0-.2,0-.2-.2s0-.2.2-.2.2,0,.2.2,0,.2-.2.2ZM441.8,544.6c0,0-.1-.1-.1-.2h0s0,0,0-.1l.5-1.1c0-.1.2-.2.3-.1h0c.1,0,.2.2.1.3v.2c-.1,0-.5.9-.5.9,0,.1-.2.2-.3.1h0ZM442.5,545.8h-.1c-.2,0-.3-.1-.3-.3s.1-.3.3-.3c0,0,.2,0,.3,0,.6,0,1-.6,1.1-1.1,0,0,0-.2,0-.3,0-.2.1-.3.3-.3s.3.1.3.3h0c0,1.2-.9,2.1-2,2.1h0Z"/>
          </g>
          <g>
            <path class="cls-58" d="M447.9,542.9v1.8h-.5v-.2c-.1.2-.3.2-.5.2s-.3,0-.5-.1-.2-.2-.3-.3c0-.1-.1-.3-.1-.5s0-.3.1-.5c0-.1.2-.2.3-.3.1,0,.3-.1.5-.1s.4,0,.5.2v-.2h.5,0ZM447.2,544.1c0,0,.1-.2.1-.3s0-.3-.1-.3c0,0-.2-.1-.3-.1s-.2,0-.3.1c0,0-.1.2-.1.3s0,.3.1.3c0,0,.2.1.3.1s.2,0,.3-.1Z"/>
            <path class="cls-58" d="M449.1,542.9c.1,0,.2,0,.4,0v.5h-.1c-.1,0-.3,0-.3.1s-.1.2-.1.4v.8h-.5v-1.8h.5v.2c0,0,.1-.2.2-.2h0Z"/>
            <path class="cls-58" d="M451.4,544.2v.4h-1.7v-.3l.9-.8c0,0,.2-.2.2-.2s0-.1,0-.2c0,0,0-.2,0-.2,0,0-.1,0-.3,0s-.2,0-.3,0-.1,0-.2.2l-.4-.2c0-.1.2-.2.4-.3.2,0,.3-.1.5-.1s.3,0,.5,0c.1,0,.2.1.3.2s.1.2.1.4,0,.2,0,.3-.1.2-.3.4l-.5.5h1,0Z"/>
            <path class="cls-58" d="M451.7,544.5c0,0,0-.1,0-.2s0-.2,0-.2.1,0,.2,0,.2,0,.2,0,0,.1,0,.2,0,.2,0,.2-.1,0-.2,0-.2,0-.2,0Z"/>
            <path class="cls-58" d="M454.3,542.2v2.4h-.5v-.2c-.1.2-.3.2-.5.2s-.3,0-.5-.1-.2-.2-.3-.3c0-.1-.1-.3-.1-.5s0-.3.1-.5c0-.1.2-.2.3-.3.1,0,.3-.1.5-.1s.4,0,.5.2v-.8h.5,0ZM453.7,544.1c0,0,.1-.2.1-.3s0-.3-.1-.3c0,0-.2-.1-.3-.1s-.2,0-.3.1c0,0-.1.2-.1.3s0,.3.1.3c0,0,.2.1.3.1s.2,0,.3-.1Z"/>
            <path class="cls-58" d="M455.9,544.2c0,0,.1,0,.2-.1l.3.3c-.2.2-.4.3-.7.3s-.4,0-.5-.1c-.1,0-.3-.2-.4-.3s-.1-.3-.1-.5,0-.3.1-.5c0-.1.2-.2.3-.3.1,0,.3-.1.5-.1s.3,0,.5.1c.1,0,.2.2.3.3,0,.1.1.3.1.5l-1.3.2c0,0,.1.2.2.2,0,0,.2,0,.3,0s.2,0,.2,0h0ZM455.3,543.3c0,0-.1.2-.1.3l.9-.2c0,0,0-.2-.1-.2,0,0-.2,0-.3,0s-.2,0-.3.1h0Z"/>
            <path class="cls-58" d="M457,544.6c-.1,0-.2,0-.3-.1l.2-.4c0,0,.2,0,.3.1.1,0,.2,0,.3,0,.2,0,.3,0,.3-.2s0,0,0-.1c0,0-.1,0-.3,0-.1,0-.3,0-.4,0,0,0-.2,0-.2-.2,0,0-.1-.2-.1-.3s0-.2.1-.3c0,0,.2-.2.3-.2s.3,0,.4,0,.2,0,.4,0c.1,0,.2,0,.3.1l-.2.4c-.1,0-.3-.1-.5-.1s-.2,0-.2,0c0,0,0,0,0,.1s0,0,0,.1c0,0,.1,0,.3,0,.1,0,.3,0,.4,0s.2,0,.2.2c0,0,.1.2.1.3s0,.2-.1.3c0,0-.2.2-.3.2s-.3,0-.5,0-.3,0-.4,0h0Z"/>
            <path class="cls-58" d="M458.6,542.5c0,0,0-.1,0-.2s0-.2,0-.2.1,0,.2,0,.2,0,.2,0,0,.1,0,.2,0,.2,0,.2c0,0-.1,0-.2,0s-.2,0-.2,0h0ZM458.6,542.9h.5v1.8h-.5v-1.8Z"/>
            <path class="cls-58" d="M461.4,542.9v1.5c0,.3,0,.6-.2.7s-.4.2-.7.2-.3,0-.5,0c-.1,0-.3,0-.4-.2l.2-.4c0,0,.2.1.3.2.1,0,.2,0,.3,0,.2,0,.3,0,.4-.1,0,0,.1-.2.1-.4h0c-.1,0-.3.1-.6.1s-.3,0-.4-.1-.2-.2-.3-.3c0-.1-.1-.3-.1-.4s0-.3.1-.4c0-.1.2-.2.3-.3.1,0,.3-.1.4-.1.2,0,.5,0,.6.2v-.2h.5ZM460.8,544c0,0,.1-.2.1-.3s0-.2-.1-.3-.2-.1-.3-.1-.2,0-.3.1-.1.2-.1.3,0,.2.1.3.2.1.3.1.2,0,.3-.1Z"/>
            <path class="cls-58" d="M463.5,543c.1.1.2.3.2.6v1h-.5v-.9c0-.1,0-.2,0-.3s-.1,0-.3,0-.2,0-.3.1-.1.2-.1.3v.9h-.5v-1.8h.5v.2c0,0,.1-.1.2-.2s.2,0,.3,0c.2,0,.4,0,.5.2h0Z"/>
          </g>
        </g>
        <rect class="cls-46" x="858" y="498" width="11.7" height=".8"/>
        <g>
          <path class="cls-30" d="M266,803.4s9.4-5.3,22.4-6.3,29.2,10.8,28.9,6.3c-.4-4.5,6.5-15.5,6.5-15.5,0,0,29.9-22.7-9.6-54.3s-79.5-27.9-87.9-26.9c-8.4,1-52.4,4.2-76.1,31.5,0,0-12.1,4.5-18.2,16.3s-8.6,44.1,18.2,57.6c26.8,13.5,50.6,17.8,59,14.2,8.4-3.6-14.2-14.5-19-16.8-4.8-2.3-19.8-10.8-19.8-10.8,0,0,22.5,7.3,34.3,2,11.8-5.4,61.4,2.6,61.4,2.6h0Z"/>
          <path class="cls-39" d="M324.1,743.1c.3.8,15.9,43.4-19.5,38.2l17,10.4c1.2-2.2,2.1-3.7,2.1-3.7,0,0,24.1-18.3.4-44.9h0Z"/>
          <path class="cls-39" d="M151.6,756.5s-23.9,28.3,27.9,44.8c0,0,10.7,3.1,21.4,1.3l2.9-8.3s-70.7-1.9-52.2-37.8h0Z"/>
          <path class="cls-3" d="M324.1,743c-2.7-3-6-6.1-10-9.3-39.6-31.6-79.5-27.9-87.9-26.9-7.4.9-42.4,3.5-66.8,22.7-1.9,7.5,2,16.6,14,12.5,14.7-5,36.6.7,34.1,17.9s11.5,47.5,31,28c19.5-19.4,52.9-21.8,52.9-21.8,0,0-2.6-37.8,25.9-25.6,2.8,1.2,5,2,6.8,2.5h0Z"/>
          <path class="cls-48" d="M231.1,771.3s1.5-3-.5-5.1,0-6.1,0-6.1c0,0,4.6-5.3,5.9-6.9.6-.7,3.4-3.2,8.1-5.5h0s-11.6,1.6-16.9,8c-5.3,6.5-4.1,16-9.2,20.4,6.4-2.6,12.7-4.9,12.7-4.9h0Z"/>
          <path class="cls-30" d="M292.5,760.1s-1.1-12.2-21.7-15.7-33,7.4-34.3,8.9-5.9,6.9-5.9,6.9c0,0-2,4.1,0,6.1s.5,5.1.5,5.1c0,0-23.6,8.6-25.7,11.2s-6.3,14.2-10.1,16.8c-3.8,2.5-6.6,5.3,0,6.3,6.6,1,19.3-.5,21.1-1.3,0,0,8.8,3.8,18.5,3.8s23.4,3,37.6-4.8c14.2-7.9,14.2-13,14.2-13l5.7-30.2h0Z"/>
          <path class="cls-48" d="M245.3,761.3s-2.3,9.2-10.8,11.5-6.7-2.8-6.7-2.8c0,0-1.6-4.2,2.8-6.6s14.7-2,14.7-2Z"/>
          <path class="cls-65" d="M257.4,779.4c-8.4-7.4-8-16.9-7-21.9,0-.4-.5-.6-.7-.2-6.8,12-18.7,13.8-18.7,13.8,0,0-24.2,8.8-26.2,11.4-2.1,2.6-6.5,14.5-10.4,17.1-3.9,2.6-6.7,5.5,0,6.5s19.7-.5,21.5-1.3c0,0,9,3.9,18.9,3.9s23.9,3.1,38.4-4.9c2.3-1.3,4.3-2.5,5.9-3.6,8.4-7.2-9.8-10.2-21.8-20.7h0Z"/>
          <path class="cls-25" d="M218.2,805.7l-1.5-12.3s-7.1,14.9-22.9,9.7c0,0-2.5-.4,1.5-3.8h-.2c-.2,0-.4.2-.6.4-3.9,2.6-6.7,5.5,0,6.5s19.7-.5,21.5-1.3c0,0,.8.3,2.2.8h0Z"/>
          <path class="cls-25" d="M234.9,808.7c9.9,0,23.9,3.1,38.4-4.9,2.3-1.3,4.3-2.5,5.9-3.6,3.4-3,2.4-5.2-.9-7.5-1,.4-2,1-3.1,1.7-8.2,5.7-37.2,24.8-58.9,1.2,0,0-2.7,5.1.4,9.7,2.4.9,9.9,3.6,18.1,3.6h0Z"/>
          <path class="cls-48" d="M250.5,763.3s-2.3,7.9,1.7,11.5c4,3.7,10,9.6,14.2,8.7s2.9-9.2,0-13.1-16-7.1-16-7.1h0Z"/>
          <path class="cls-3" d="M205.4,782.5s10.9-5.8,26.2,2.5c0,0-7.9,10.7-15.2,10.4,0,0-14-2-10.9-13h0Z"/>
          <path class="cls-48" d="M169.9,799.4c-15.1-7.8-23.5-16.8-24.7-26.5-1.5-11.4,7.4-19.6,7.7-20l.9.9c0,0-8.7,8.1-7.3,18.9,1.2,9.3,9.3,17.8,24.1,25.5l-.6,1.1h0Z"/>
          <path class="cls-65" d="M190.4,809.6c-2.4-1.2-7.3-3.8-11.7-6.3-2.4-1.3-5.2-2.1-8-2.1-5.2,0-6.1,2.8-7.3,4.1-1.7,1.7-12.9-.7-14.6,4.6-.2.5-.2,1-.2,1.5.5.3.9.5,1.5.8,27.1,13.7,51,17.9,59.5,14.3s-14.3-14.6-19.1-16.9h0Z"/>
          <path class="cls-48" d="M269.2,765.8s6.3,5.8,6.6,11.7c.2,5.8,2.8,19.8,7.4,22.8,4.6,3,18.8,6.1,28.7,8.4s42.4,3.3,43.9-6.9-19.3-12.2-28.9-16c-9.6-3.8-20.1-6.1-28.6-18.5-8.5-12.4-12.3-15-16.3-15s-11.6,1.8-12.7,13.5h0Z"/>
        </g>
        <circle class="cls-63" cx="85.8" cy="791.8" r="15.9"/>
        <path class="cls-60" d="M718.5,476.7h0c-5.4,0-9.1-4.4-8.3-9.8h0c.9-5.4,6-9.8,11.4-9.8h0c5.4,0,9.1,4.4,8.3,9.8h0c-.9,5.4-6,9.8-11.4,9.8Z"/>
      </g>
      <g>
        <g>
          <polygon class="cls-62" points="678.5 436.5 673.9 436.7 669 438.7 664.1 440.7 660.8 443.7 659.5 449.1 678.7 459.1 683.7 439.2 678.5 436.5"/>
          <path class="cls-64" d="M680,461.8l-22.8-11.9,1.8-7.2,3.9-3.6,10.5-4.3,5.5-.2,6.9,3.6-5.9,23.5h0ZM661.7,448.1l15.7,8.2,4.1-16.2-3.4-1.8h-3.7c0,.1-9.2,3.9-9.2,3.9l-2.6,2.4-.9,3.5h0Z"/>
        </g>
        <polygon class="cls-12" points="678.5 436.5 673.9 436.7 669 438.7 664.1 440.7 660.8 443.7 659.5 449.1 678.7 459.1 683.7 439.2 678.5 436.5"/>
      </g>
      <g>
        <g>
          <path class="cls-59" d="M691.6,483.3l-10.2,1.3c-2.2.3-3.9-1.1-3.8-3.1l.5-9.1c.1-2,2-3.8,4.2-4.1l10.2-1.3c2.2-.3,3.9,1.1,3.8,3.1l-.5,9.1c-.1,2-2,3.8-4.2,4.1Z"/>
          <path class="cls-64" d="M680.8,486.3c-1.4,0-2.7-.5-3.6-1.3-1-.9-1.5-2.2-1.4-3.6l.5-9.1c.2-2.8,2.7-5.3,5.8-5.7l10.2-1.3c1.7-.2,3.3.3,4.4,1.3,1,.9,1.5,2.2,1.4,3.6l-.5,9.1c-.2,2.8-2.7,5.3-5.8,5.7l-10.2,1.3c-.3,0-.5,0-.8,0ZM693.1,468.7c-.1,0-.2,0-.4,0l-10.2,1.3c-1.4.2-2.7,1.3-2.7,2.5l-.5,9.1c0,.4,0,.7.3.9.3.3.9.5,1.5.4l10.3-1.3c1.4-.2,2.7-1.3,2.7-2.5l.5-9.1c0-.4,0-.7-.3-.9-.3-.3-.7-.4-1.2-.4Z"/>
        </g>
        <path class="cls-69" d="M691.6,483.3l-10.2,1.3c-2.2.3-3.9-1.1-3.8-3.1l.5-9.1c.1-2,2-3.8,4.2-4.1l10.2-1.3c2.2-.3,3.9,1.1,3.8,3.1l-.5,9.1c-.1,2-2,3.8-4.2,4.1Z"/>
      </g>
      <g>
        <path class="cls-17" d="M766.7,458.4c-4.1,0-7.2-2.7-7.4-6.7-.3-4.9,3.7-10.1,8.9-11.6,1-.3,2-.4,2.9-.4,4.1,0,7.2,2.7,7.4,6.7.3,4.9-3.7,10.1-8.9,11.6-1,.3-2,.4-2.9.4h0Z"/>
        <path class="cls-64" d="M771.1,440.2c3.7,0,6.6,2.4,6.9,6.2.3,4.6-3.5,9.6-8.5,11.1-1,.3-1.9.4-2.8.4-3.7,0-6.6-2.4-6.9-6.2-.3-4.6,3.5-9.6,8.5-11.1,1-.3,1.9-.4,2.8-.4M771.1,439.1c-1,0-2,.1-3.1.5-5.5,1.6-9.6,7.1-9.3,12.2.3,4.2,3.6,7.2,8,7.2s2-.1,3.1-.5c5.5-1.6,9.6-7.1,9.3-12.2-.3-4.2-3.6-7.2-8-7.2h0Z"/>
      </g>
    </g>
  </g>
</svg>