<?xml version="1.0" encoding="UTF-8"?>
<!DOCTYPE svg PUBLIC "-//W3C//DTD SVG 1.1//EN" "http://www.w3.org/Graphics/SVG/1.1/DTD/svg11.dtd">
<!-- Creator: CorelDRAW -->
<svg xmlns="http://www.w3.org/2000/svg" xml:space="preserve" width="4000px" height="5500px" version="1.1" style="shape-rendering:geometricPrecision; text-rendering:geometricPrecision; image-rendering:optimizeQuality; fill-rule:evenodd; clip-rule:evenodd"
viewBox="0 0 896.49 1232.68"
 xmlns:xlink="http://www.w3.org/1999/xlink"
 xmlns:xodm="http://www.corel.com/coreldraw/odm/2003">
 <defs>
  <style type="text/css">
   <![CDATA[
    .fil2 {fill:#0E46B3}
    .fil5 {fill:#1959D4}
    .fil7 {fill:#1E439E}
    .fil8 {fill:#233567}
    .fil3 {fill:#4176E6}
    .fil6 {fill:#588EF0}
    .fil1 {fill:#9EBBE3}
    .fil4 {fill:#ADCCF8}
    .fil0 {fill:#CADEF9}
    .fil9 {fill:#D43C00}
    .fil10 {fill:#FF6600}
   ]]>
  </style>
 </defs>
 <g id="Layer_x0020_1">
  <metadata id="CorelCorpID_0Corel-Layer"/>
  <g id="_2164993805456">
   <polygon class="fil0" points="0,1232.68 0,0 896.49,0 896.49,1232.68 "/>
   <path class="fil1" d="M757.73 838.34c0,0 65.05,2.47 138.76,5.75l0 298.27c-67.45,-3.06 -137.78,-6.57 -145.23,-6.57 -14.34,0 -73.96,-31.6 -73.96,-31.6l-329.23 -18.6 409.67 -247.25 -0.01 0z"/>
   <polygon class="fil2" points="318.7,832.35 318.7,605.53 592.78,542.28 622.43,848.79 616.18,944.25 582.86,952.29 "/>
   <path class="fil3" d="M154.21 928.49c0,0 -4.4,-64.64 164.49,-96.14l269.91 122.55 -27.85 59.9 -243.68 24.43 -142.25 -41.93 -17.37 -39.15c0,0 -3.25,-17.57 -3.25,-29.66l0 0z"/>
   <path class="fil4" d="M210.78 717.62c0,0 -22.97,35.49 -24.36,63.06l0 137.38c0,0 18.76,91.28 185.34,82.25 166.58,-9.04 166.81,-82.25 166.81,-82.25l0 -135.3c0,0 -10.16,-51.83 -26.86,-63.56l-300.92 -1.58 -0.01 0z"/>
   <path class="fil5" d="M513.77 702.26c0.31,1.68 0.47,3.38 0.47,5.09 0,1.72 -0.16,3.42 -0.47,5.1l0 0.02 0 0c-6.13,33.5 -71.93,59.87 -152.21,59.87 -80.27,0 -146.07,-26.37 -152.2,-59.87l-0.27 0 0 -1.74c-0.13,-1.12 -0.2,-2.25 -0.2,-3.38 0,-1.13 0.07,-2.26 0.2,-3.38l0 -10.85c-0.13,-1.12 -0.2,-2.25 -0.2,-3.38 0,-1.13 0.07,-2.26 0.2,-3.38l0 0 0 0c4.14,-34.32 70.82,-61.6 152.47,-61.6 84.32,0 152.68,29.09 152.68,64.98 0,1.72 -0.16,3.42 -0.47,5.1l0 7.41 0 0.01z"/>
   <path class="fil6" d="M361.56 625.35c83.56,0 151.3,28.83 151.3,64.4 0,35.56 -67.74,64.4 -151.3,64.4 -83.56,0 -151.29,-28.84 -151.29,-64.4 0,-35.57 67.73,-64.4 151.29,-64.4z"/>
   <path class="fil7" d="M361.56 653.93c46.48,0 84.15,16.04 84.15,35.82 0,19.78 -37.67,35.82 -84.15,35.82 -46.47,0 -84.14,-16.04 -84.14,-35.82 0,-19.78 37.67,-35.82 84.14,-35.82z"/>
   <path class="fil4" d="M218.74 587.02c0,0 -5.87,96.61 144.72,94.99 150.59,-1.62 132.39,-82.4 132.39,-82.4l-277.11 -12.59z"/>
   <path class="fil3" d="M218.74 587.02c0,0 -0.48,7.99 2.41,19.34 40.77,17.04 84.13,34.93 98.94,40.21 30.58,10.89 67.65,13.67 96.38,4.63 14.69,-4.62 48.64,-17.9 78.32,-29.78 3.17,-12.43 1.06,-21.81 1.06,-21.81l-277.11 -12.58 0 -0.01z"/>
   <path class="fil6" d="M115.3 289.75l0 207.82 0 28.73c0,0 -1.17,15.52 22,26.41 0,0 152.21,64.64 182.79,75.53 30.58,10.89 67.65,13.67 96.38,4.63 28.73,-9.03 131.13,-51.2 131.13,-51.2 0,0 31.51,-13.43 36.83,29.2l1.86 23.4 0 293.54c0,0 2.55,35.67 -22.94,47.49 0,0 -79.47,34.06 -104.25,41.71 -24.79,7.64 -112.14,14.36 -170.52,1.39 -58.38,-12.98 -136.92,-48.66 -134.37,-89.9l0 73.21c0,0 14.36,45.88 114.21,70.9 99.86,25.02 175.85,13.2 243.5,-13.9 67.65,-27.11 213.6,-93.14 225.42,-99.39 11.82,-6.26 21.09,-16.45 20.62,-38.23l-1.91 -675.53c0,0 -357.19,113.71 -640.76,44.2l0.01 -0.01z"/>
   <path class="fil3" d="M335.62 632.92c27,6.8 56.84,7.5 80.85,-0.05 3.47,-1.09 8.02,-2.67 13.32,-4.59l-2.37 -277.6 -91.8 0.47 0 281.77 0 0zm88.17 390.05c-24.73,2.55 -57.13,3.73 -88.17,1.69l0 59.8c29.91,2.94 57.57,2.32 83.55,-1.04l4.62 -60.45z"/>
   <path class="fil5" d="M410.45 634.56c2.04,-0.51 4.05,-1.07 6.02,-1.69 28.73,-9.04 131.13,-51.2 131.13,-51.2 0,0 31.51,-13.44 36.84,29.19l1.85 23.4 0 293.54c0,0 2.55,35.68 -22.94,47.5 0,0 -79.46,34.06 -104.25,41.7 -9.18,2.83 -26.95,5.54 -48.65,7.16l0 60.28c36.67,-3.81 69.98,-13.11 101.47,-25.73 67.65,-27.11 213.61,-93.14 225.43,-99.39 11.82,-6.26 21.08,-16.45 20.62,-38.23l-1.91 -675.53c0,0 -89.42,28.47 -214.29,48.21l-55.1 42.33 -76.22 18.77 0 279.7 0 -0.01z"/>
   <path class="fil8" d="M362.49 799.69c94.52,0 171.15,32.61 171.15,72.84 0,1.4 -0.1,2.79 -0.29,4.17l0.29 0 0 35.36c0,0 -0.23,71.16 -162.14,79.94 -161.91,8.78 -180.15,-79.94 -180.15,-79.94l0 -35.36 0.28 0c-0.18,-1.38 -0.28,-2.77 -0.28,-4.17 0,-40.23 76.62,-72.84 171.15,-72.84l-0.01 0z"/>
   <path class="fil9" d="M167.27 493.47c4.97,-1.67 17.56,4.35 20.72,17.68 3.16,13.34 -0.81,22.52 -7.77,25.04l-6.39 2.45 -11.04 -8.06c0,0 -9.68,-18.65 -9.51,-19.53 0.18,-0.88 3.7,-13.43 3.7,-13.43 4.73,-2.18 5.33,-2.47 10.29,-4.14l0 -0.01z"/>
   <path class="fil10" d="M161.23 496.8c8.87,0 17.99,9.53 20.35,21.28 2.37,11.75 -2.9,21.28 -11.78,21.28 -8.87,0 -17.98,-9.53 -20.35,-21.28 -2.37,-11.75 2.91,-21.28 11.78,-21.28z"/>
   <path class="fil9" d="M227.74 519.42c4.97,-1.67 17.56,4.35 20.72,17.68 3.16,13.34 -0.81,22.52 -7.77,25.04l-6.39 2.45 -11.04 -8.06c0,0 -9.68,-18.66 -9.51,-19.54 0.18,-0.88 3.7,-13.43 3.7,-13.43 4.73,-2.17 5.33,-2.47 10.29,-4.14l0 0z"/>
   <path class="fil10" d="M221.69 522.75c8.88,0 17.99,9.53 20.36,21.28 2.37,11.75 -2.91,21.28 -11.78,21.28 -8.87,0 -17.99,-9.53 -20.35,-21.28 -2.37,-11.75 2.9,-21.28 11.77,-21.28z"/>
   <path class="fil5" d="M291.45 543.29c4.97,-1.67 17.56,4.34 20.72,17.68 3.16,13.33 -0.81,22.51 -7.77,25.04l-6.39 2.44 -11.04 -8.05c0,0 -9.68,-18.66 -9.51,-19.54 0.18,-0.88 3.7,-13.43 3.7,-13.43 4.73,-2.18 5.33,-2.47 10.29,-4.14l0 0z"/>
   <path class="fil4" d="M285.41 546.62c8.87,0 17.99,9.53 20.35,21.28 2.37,11.75 -2.9,21.28 -11.77,21.28 -8.88,0 -17.99,-9.53 -20.36,-21.28 -2.37,-11.75 2.91,-21.28 11.78,-21.28z"/>
   <path class="fil9" d="M247.01 460.16c4.03,-1.35 14.25,3.53 16.82,14.36 2.57,10.83 -0.66,18.28 -6.31,20.33l-5.18 1.99 -8.97 -6.54c0,0 -7.86,-15.15 -7.72,-15.86 0.14,-0.72 3,-10.91 3,-10.91 3.84,-1.77 4.33,-2.01 8.36,-3.37l0 0z"/>
   <path class="fil10" d="M242.1 462.87c7.2,0 14.6,7.73 16.53,17.28 1.92,9.54 -2.36,17.28 -9.57,17.28 -7.21,0 -14.61,-7.73 -16.53,-17.28 -1.92,-9.54 2.36,-17.28 9.57,-17.28z"/>
   <path class="fil9" d="M199.73 439.54c4.03,-1.36 14.26,3.53 16.82,14.36 2.57,10.83 -0.66,18.28 -6.31,20.33l-5.18 1.99 -8.97 -6.54c0,0 -7.86,-15.15 -7.72,-15.86 0.14,-0.72 3,-10.91 3,-10.91 3.84,-1.77 4.33,-2.01 8.36,-3.37l0 0z"/>
   <path class="fil10" d="M194.82 442.25c7.2,0 14.6,7.74 16.53,17.28 1.92,9.55 -2.36,17.29 -9.57,17.29 -7.2,0 -14.6,-7.74 -16.53,-17.29 -1.92,-9.54 2.36,-17.28 9.57,-17.28z"/>
   <path class="fil9" d="M153.16 420.55c4.03,-1.36 14.26,3.53 16.82,14.36 2.57,10.82 -0.65,18.28 -6.31,20.33l-5.18 1.98 -8.97 -6.54c0,0 -7.86,-15.15 -7.72,-15.86 0.14,-0.71 3,-10.91 3,-10.91 3.84,-1.77 4.33,-2 8.36,-3.36l0 0z"/>
   <path class="fil10" d="M148.25 423.25c7.21,0 14.61,7.74 16.53,17.28 1.92,9.55 -2.36,17.29 -9.57,17.29 -7.2,0 -14.6,-7.74 -16.53,-17.29 -1.92,-9.54 2.36,-17.28 9.57,-17.28z"/>
   <path class="fil9" d="M686.53 723.65c-11.48,-3.82 -39.73,9.92 -45.84,40.37 -6.12,30.45 3.71,51.42 19.81,57.18l19.32 5.91 20.02 -18.72c0,0 20.56,-42.6 20.09,-44.61 -0.48,-2.01 -9.56,-30.67 -9.56,-30.67 -10.97,-4.97 -12.37,-5.64 -23.85,-9.46l0.01 0z"/>
   <path class="fil10" d="M700.61 731.25c-20.26,0 -39.47,21.76 -42.89,48.6 -3.43,26.84 10.22,48.59 30.48,48.59 20.26,0 39.47,-21.75 42.89,-48.59 3.43,-26.84 -10.22,-48.6 -30.48,-48.6z"/>
   <path class="fil9" d="M659.59 863.94c-3.16,-1.05 -10.95,2.74 -12.63,11.13 -1.69,8.39 1.02,14.16 5.46,15.75l5.32 1.63 5.51 -5.16c0,0 5.67,-11.74 5.54,-12.29 -0.13,-0.55 -2.63,-8.45 -2.63,-8.45 -3.03,-1.37 -3.41,-1.55 -6.58,-2.6l0.01 -0.01z"/>
   <path class="fil10" d="M663.47 866.04c-5.58,0 -10.88,5.99 -11.82,13.39 -0.94,7.39 2.82,13.38 8.4,13.38 5.58,0 10.87,-5.99 11.82,-13.38 0.94,-7.4 -2.82,-13.39 -8.4,-13.39z"/>
   <path class="fil9" d="M704.65 846.8c-3.16,-1.06 -10.94,2.73 -12.63,11.12 -1.68,8.39 1.03,14.17 5.46,15.75l5.32 1.63 5.52 -5.15c0,0 5.67,-11.74 5.53,-12.3 -0.13,-0.55 -2.63,-8.44 -2.63,-8.44 -3.03,-1.37 -3.41,-1.56 -6.57,-2.61l0 0z"/>
   <path class="fil10" d="M708.53 848.89c-5.58,0 -10.87,6 -11.81,13.39 -0.95,7.39 2.81,13.39 8.39,13.39 5.59,0 10.88,-6 11.82,-13.39 0.94,-7.39 -2.81,-13.39 -8.4,-13.39z"/>
   <path class="fil9" d="M707.03 881.61c-4.27,-1.42 -14.79,3.69 -17.07,15.03 -2.27,11.33 1.39,19.13 7.38,21.28l7.19 2.2 7.45 -6.97c0,0 7.65,-15.85 7.48,-16.6 -0.18,-0.75 -3.56,-11.42 -3.56,-11.42 -4.08,-1.85 -4.6,-2.1 -8.87,-3.52l0 0z"/>
   <path class="fil10" d="M712.27 884.44c-7.54,0 -14.69,8.1 -15.97,18.09 -1.27,9.99 3.81,18.09 11.35,18.09 7.54,0 14.69,-8.1 15.97,-18.09 1.27,-9.99 -3.81,-18.09 -11.35,-18.09z"/>
   <path class="fil9" d="M660.23 902.46c-4.27,-1.42 -14.79,3.69 -17.07,15.03 -2.27,11.33 1.39,19.13 7.38,21.28l7.19 2.2 7.45 -6.97c0,0 7.66,-15.85 7.48,-16.6 -0.17,-0.75 -3.56,-11.42 -3.56,-11.42 -4.08,-1.85 -4.6,-2.1 -8.87,-3.52l0 0z"/>
   <path class="fil10" d="M665.47 905.29c-7.54,0 -14.69,8.1 -15.97,18.09 -1.27,9.99 3.81,18.09 11.35,18.09 7.54,0 14.69,-8.1 15.97,-18.09 1.27,-9.99 -3.81,-18.09 -11.35,-18.09z"/>
   <path class="fil4" d="M749.63 237.16c0,0 -220.56,-89.66 -235.85,-96.14 -15.29,-6.49 -40.54,-4.4 -72.05,6.25 -31.51,10.66 -281.49,94.06 -305.59,104.49 -24.09,10.43 -32.66,38.23 -7.64,50.51 25.02,12.27 153.6,70.66 186.5,78.07 32.9,7.42 77.85,8.81 112.83,-4.4 34.98,-13.2 308.36,-119.08 319.48,-123.48 11.12,-4.4 11.82,-10.66 2.32,-15.29l0 -0.01z"/>
   <polygon class="fil8" points="147.25,332.68 278.26,392.81 278.26,454.05 147.25,393.91 "/>
   <path class="fil4" d="M668.89 364.76l0 0c-9.98,2.83 -18.15,13.98 -18.15,24.77l0 260.09c0,10.79 8.17,17.3 18.15,14.47l0 0c9.99,-2.83 18.16,-13.98 18.16,-24.77l0 -260.09c0,-10.79 -8.17,-17.3 -18.16,-14.47z"/>
   <path class="fil6" d="M656.01 475.98l0 172.13c0,7.66 7.68,15.48 12.89,10.27l0 0c5.21,-5.21 12.89,-9.92 12.89,-17.58l0 -172.13c0,-23.21 -25.78,-14.15 -25.78,7.31l0 0z"/>
  </g>
 </g>
</svg>
