<?xml version="1.0" encoding="utf-8"?>
<!-- Generator: Adobe Illustrator 28.1.0, SVG Export Plug-In . SVG Version: 6.00 Build 0)  -->
<svg version="1.1" id="Layer_1" xmlns="http://www.w3.org/2000/svg" xmlns:xlink="http://www.w3.org/1999/xlink" x="0px" y="0px"
	 viewBox="0 0 841.9 595.3" style="enable-background:new 0 0 841.9 595.3;" xml:space="preserve">
<path d="M424.7,593c-1.1-9.9-2.3-19.7-3.3-29.6c-1.2-12.2-2.3-24.4-3.3-36.6c-0.9-10.8-1.5-21.7-2.2-32.5
	c-1.3-19.8-2.1-39.6-2.7-59.4c-0.1-5.1-0.1-10.2-0.1-15.4c0-0.8,0.1-1.7-0.2-2.4c-0.7-0.2-0.9,0.2-1.2,0.5
	c-6.1,5.7-12.8,10.6-19.5,15.6c-6.1,4.6-12.1,9.5-18.1,14.3c-0.9,0.7-1.8,1.4-2.7,2c-2.5,1.4-4.5,0.5-4.8-2.4
	c-0.3-2.5-0.4-4.9-0.5-7.4c-0.3-6.6-0.7-13.3-1-19.9c0-0.9-0.2-1.5-1.4-1.3c-13.3,2.1-26.6,1.6-40,0.9c-7.9-0.4-15.8-1-23.7-1.3
	c-14-0.6-27.8,0.7-41,6c-11,4.4-20.6,10.9-29.4,18.8C215.1,456,202.4,471,190.9,487c-10.2,14.3-19.4,29.2-28.5,44.1
	c-11.5,18.7-23.1,37.4-33.5,56.8c-0.9,1.7-1.8,3.4-2.7,5.1c-1.3,0-2.6,0-3.8,0c-0.1-1,0.6-1.8,1-2.6c8.6-16.3,18-32.1,27.6-47.8
	c11-17.9,21.8-36,33.8-53.3c11.7-16.9,24.7-32.6,39.7-46.7c5.7-5.3,11.7-10.2,18.3-14.3c14.5-9.3,30.5-13.7,47.7-14
	c8.7-0.1,17.4,0.3,26.1,0.9c12.2,0.8,24.4,1.6,36.7,0.7c6.9-0.5,13.7-1.3,20.2-3.7c8.3-3,13.8-8.7,16.8-16.9c2.5-7,3.2-14.2,3-21.5
	c-0.3-8.6-1.6-17-3.5-25.4c-0.4-1.8-0.4-1.9-2.4-1.6c-5.8,0.8-11.6,1-17.4-0.1c-11.1-2.2-19.4-8.3-24.9-18.2
	c-3.4-6.1-5.2-12.7-6.3-19.5c-1.8-11.6-1.3-23.1,0.3-34.7c3.4-25.1,11.1-48.9,20.6-72.2c0.6-1.4,1.1-2.8,1.8-4.2
	c0.3-0.8,0.4-1.3-0.5-1.7c-12-5.6-18.3-15.6-21.3-27.9c-2.1-8.5-1.9-17,1.1-25.3c4-10.9,11.2-18.9,22-23.4
	c10.4-4.4,21.2-5.3,32.2-2.6c4.3,1.1,8.3,2.9,11.9,5.5c3,2.1,6.2,3.9,8.3,7.1c0.4,0.5,0.9,0.2,1.3,0.1c18.6-3.5,42.2,8.8,51.3,20.9
	c9.1,12,11.7,25.1,7.5,39.6c-0.2,0.6-0.3,1.2-0.5,1.8c0.7,0.5,1.2,0.1,1.8,0c12.6-2.8,25-2,37,2.5c10.7,3.9,19.1,10.9,25.4,20.4
	c9.8,14.9,13.4,31.3,11.6,48.9c-1.7,16.2-7.7,30.8-16.6,44.3c-16.1,24.4-38.1,41.5-65.4,51.9c-0.9,0.3-1.8,0.6-2.7,0.9
	c-5.1,1.6-10.2,2.6-15.5,1.4c-0.5,0.5-0.3,1-0.3,1.4c0.9,5.5,2.1,11,4,16.3c4.1,11.1,11.9,18.4,22.7,22.6c6.1,2.4,12.4,3.6,18.9,4.3
	c9.5,1.1,19.1,1.2,28.7,1.5c18.7,0.5,37.3,2.2,55.7,6.4c25.3,5.8,48,16.9,68.5,32.7c13.1,10.1,25.3,21.1,35.9,33.8
	c8.1,9.7,15,20.3,21.4,31.2c9.3,16,17.6,32.4,26.4,48.7c5.3,9.8,10.6,19.5,15.1,29.7c0.3,0.7,0.9,1.4,0.7,2.2c-1.3,0-2.6,0-3.8,0
	c-3.2-7.3-6.7-14.3-10.5-21.3c-9.8-18.1-19.2-36.5-29.4-54.5c-7.4-13-15.3-25.5-25.3-36.7c-18.9-21.2-40.6-38.7-66.4-50.9
	c-14.4-6.8-29.6-11-45.3-13.8c-14.5-2.6-29.2-3.5-43.9-3.9c-8.9-0.2-17.8-0.3-26.6-1.3c-6.8-0.7-13.5-1.9-19.9-4.2
	c-0.4-0.1-0.8-0.2-1.3-0.3c-1.1,5-2.4,9.8-3.1,14.7c-0.6,4.6-1.2,9.2-1.8,13.8c-0.1,0.4-0.1,0.8-0.2,1.2c-0.6,2.8-2.2,3.8-4.9,2.7
	c-2.9-1.2-5.7-2.5-8.6-3.7c-11.3-5.1-22.5-10.5-34.1-14.8c-2.1-0.8-4.1-1.8-6.4-2.1c0,1.9,0,3.8,0,5.6c0.3,9.9,0.5,19.8,0.9,29.7
	c0.5,14.2,1.3,28.4,2.1,42.7c0.8,12.3,1.6,24.6,2.6,36.9c1.2,14.4,2.5,28.8,4.1,43.2c0.6,4.8,1.1,9.7,1.6,14.5
	c0.1,0.9,0.3,1.7,0.4,2.6C427.3,593,426,593,424.7,593z M439.2,219.6c-1.1,0.8-2,1.5-3,2.2c-7.8,5.6-16.3,9.6-26,10
	c-9.9,0.4-18.2-3.1-24.4-10.9c-5.1-6.5-5.6-13.7-2.4-21.2c0.3-0.7,0.8-1.2,0.8-2c-0.5-0.3-0.9-0.1-1.4,0c-5.2,1-10.5,1.2-15.7,0.2
	c-1.4-0.3-1.8,0.3-2.2,1.4c-2.1,5.5-4.3,11-6.5,16.5c-1.9,4.6-2.9,9.5-5.4,13.8c-0.5,0.8-0.2,1.5,0.8,1.8c0.5,0.1,0.9,0.2,1.4,0.4
	c5.9,2.1,9.9,6.2,13.1,11.4c0.5,0.9,0.7,1.8-0.3,2.6c-0.8,0.6-1.7,0.3-2.6-0.9c-0.3-0.4-0.5-0.8-0.8-1.2c-0.5-0.7-0.8-1.5-1.6-1.9
	c-0.7,0.6-0.6,1.3-0.8,1.9c-0.9,2.5-2.2,4.6-4.4,6.1c-3,2-5.8,1.4-7.8-1.7c-0.3-0.5-0.4-1.2-1.1-1.5c-1.1,1.5-1.1,3.3-1.5,4.9
	c-3.1,12.8-5.3,25.7-5.7,38.8c-0.2,8.7,0.3,17.3,2.6,25.7c1.8,6.7,4.7,12.9,9.6,18c7.2,7.5,16.4,9.9,26.4,9.7
	c6.4-0.2,12.5-1.5,18.6-3.4c12.2-3.8,23.3-9.6,34.1-16.3c0.7-0.4,1.3-0.9,2-1.3c1.2-0.6,2.2-0.4,2.7,0.4c0.5,0.9,0.3,1.9-0.8,2.7
	c-1,0.8-2.1,1.4-3.2,2.1c-12.3,7.5-25.1,14-39.3,17.5c-1.2,0.3-1.6,0.9-1.2,2c0.1,0.4,0.2,0.8,0.3,1.2c2.7,10.9,4.3,21.8,3.5,33
	c-0.6,8.8-2.7,17.2-8.2,24.4c-0.1,0.2-0.2,0.4-0.3,0.7c1.4,1.1,3.1,1.6,4.8,2c12.1,2.9,24,2.4,35.6-1.8c8.1-2.9,15.3-7.2,21.3-13.5
	c0.5-0.5,1.2-1,1.3-1.7c0.1-0.8,0-1.6,0.7-2.2c0.7-0.7,1.6-0.1,2.6-0.4c-3.1-5.2-5-10.7-6.4-16.4c-2.6-10.7-3.2-21.7-4.7-32.5
	c-0.6-4.3-0.6-8.8-0.9-13.2c0-0.8-0.2-1.5-0.6-2.3c-1.4-2.5,0-5.2,2.8-5.5c4.9-0.5,9.8-1.1,14.7-2.3c5.8-1.3,11.4-3.1,16.5-6.3
	c2.9-1.8,5.4-4,7.4-6.8c1.3-1.9,2.2-4.1,2.4-6.4c0.3-5-2.2-8.6-6.2-11.2c-5.3-3.4-11.1-4.7-17.4-4.5c-3.6,0.1-6.9,1.2-10.3,2.4
	c-0.8,0.3-1.7,0.6-2.5,0.7c-0.9,0.2-1.6-0.1-2-1c-0.3-0.9,0-1.6,0.8-2c0.3-0.2,0.7-0.4,1.1-0.5c2.3-0.8,4.7-1.6,7.1-2.3
	c8.3-2.3,16.2-0.8,23.7,3c2.2,1.1,4.2,2.7,5.8,4.6c4,4.9,4.9,10.3,2.4,16.1c-1.1,2.6-2.8,4.8-4.8,6.8c-3.9,3.8-8.6,6.4-13.7,8.2
	c-7.1,2.6-14.5,4-22,4.8c-1.8,0.2-1.8,0.2-1.7,2c0.4,9.8,1.8,19.6,2.9,29.4c0.2,1.6,0.1,3.2,0.8,4.9c1.4-0.9,2.7-0.3,4.1-0.2
	c4.9,0.3,9.5-1,14-2.7c30.3-11.8,53.7-31.5,69-60.4c6.2-11.7,10-24.2,10.4-37.6c0.5-14.5-2.9-27.9-10.7-40.2
	c-6-9.5-14.3-16.3-24.9-20.2c-5.7-2.1-11.6-3.1-17.6-3.4c-7-0.4-13.9,0.2-20.6,2.6c-0.4,0.2-0.9,0.3-1.4,0.3c-1.8,0.2-2.9-1-2.5-2.8
	c0.2-0.8,0.6-1.7,0.9-2.5c2.6-6.6,3.4-13.5,2.4-20.5c-1.4-9-5.7-16.6-12.1-22.9c-7-6.9-15.6-11-24.9-13.9
	c-5.6-1.7-11.2-2.4-17.1-1.9c-1.6,0.1-3.6,1-4.5-1.4c0-0.1-0.1-0.1-0.2-0.1c-2.7,0.1-4.1-2.1-5.8-3.4c-5.9-4.4-12.3-7.4-19.7-8.3
	c-5.4-0.6-10.7-0.4-16,0.7c-11,2.3-19.9,7.8-25.6,17.7c-8.7,15-5.8,36.4,6.6,48.6c4.2,4.2,9.2,6.9,15.1,7.7c6,0.8,11.8,0.3,17.5-1.5
	c0.9-0.3,1.8-0.6,2.7-0.9c1-0.3,1.9-0.3,2.6,0.7c0.7,1,0.3,2-0.4,2.8c-0.3,0.4-0.7,0.7-1,1c-6.5,6.6-6.8,16.3-0.6,23.2
	c6.8,7.5,15.4,9.7,25.1,7.8c8.5-1.6,15.9-5.7,22.5-11.3c1.6-1.4,3.2-2.9,4.8-4.4c0.8-0.8,1.7-1.2,2.8-0.5c0.9,0.6,1.3,1.6,0.9,3
	c-0.4,1.3-0.9,2.6-1.4,3.8c-3.5,9.2-6.3,18.6-7.1,28.5c-0.6,7.7,0.2,15.3,2.7,22.7c0.9,2.7,2.3,5.3,4.1,7.6c0.8,1,1.7,1.4,2.9,0.9
	c0.8-0.3,1.6-0.7,2.5-0.9c0.9-0.2,1.6,0.1,2,0.9c0.4,0.8,0.2,1.5-0.4,2.2c-2.2,2.3-7.2,2.3-9.3-0.1c-2.4-2.6-4-5.7-5.2-9.1
	c-2.5-7.3-3.5-14.8-3.1-22.4c0.4-8.9,2.5-17.4,5.3-25.7C438.7,221.7,439.2,220.8,439.2,219.6z M455.7,391c-0.5,2.3-0.6,2.5-2.6,4.6
	c-6.2,6.7-13.8,11.4-22.3,14.6c-4.2,1.6-8.5,2.6-13,3.4c0.4,0.9,1.2,0.9,1.9,1.1c9,3.3,17.8,7,26.6,11c6.2,2.9,12.5,5.7,18.8,8.5
	c1.9,0.9,2,0.8,2.3-1.4c0-0.2,0-0.3,0-0.5c0.9-8,2-16,4-23.9c0.2-0.7,0.3-1.4,0.4-2.1c0.2-1.4-0.3-2.3-1.7-3
	c-5.4-2.7-9.8-6.5-13.5-11.3C456.4,391.8,456.1,391.5,455.7,391z M370.8,445.5c0.8-0.6,1.7-1.3,2.5-2c5.7-4.7,11.4-9.2,17.3-13.7
	c5.8-4.4,11.6-8.7,17.1-13.6c0.6-0.5,1.3-0.9,1.5-1.8c-1.3-0.3-2.6-0.2-3.8-0.3c-6.6-0.4-13-1.3-18.9-4.5c-0.7-0.4-1.2-0.2-1.7,0.3
	c-4.1,3.5-8.9,5.6-14,7c-2.2,0.6-2.2,0.6-2,2.9c0.6,8,1.3,15.9,1.5,23.9C370.2,444.3,370,444.9,370.8,445.5z M351.8,241.7
	c0,1.2,0.2,2.4,0.7,3.5c0.9,2.1,1.9,2.3,3.6,0.9c2.3-2,2.8-4.7,2.9-7.5c0-0.4-0.2-0.7-0.6-1c-1.3-1-2.8-1.8-4.4-2.2
	c-0.5-0.1-1-0.1-1.1,0.5C352.6,237.9,351.9,239.7,351.8,241.7z"/>
<path d="M621.5,593c0.2-0.8-0.1-1.6-0.3-2.3c-4.5-20-10.7-39.4-16.7-58.9c-0.8-2.4-1.5-4.9-2.2-7.3c-0.2-0.5-0.3-1.1-0.3-1.6
	c0-0.8,0.5-1.4,1.2-1.6c0.7-0.2,1.3,0.1,1.6,0.7c0.4,0.7,0.6,1.5,0.9,2.2c7.4,22.2,14.4,44.5,19.6,67.3c0.1,0.5,0.2,1.1,0.5,1.6
	C624.4,593,623,593,621.5,593z"/>
<path d="M242.8,593c2.1-4.8,4.1-9.6,6.2-14.3c7.1-15.5,13.3-31.4,20-47c0.3-0.7,0.5-1.3,0.9-2c0.4-0.7,1.1-1.2,2-0.9
	c1,0.4,1.2,1.2,1,2.2c-0.2,0.6-0.5,1.2-0.7,1.8c-7.5,19.5-15.8,38.6-24.3,57.6c-0.4,0.8-0.9,1.5-0.8,2.5
	C245.7,593,244.2,593,242.8,593z"/>
<path d="M168.3,128.2c-1.6-2.3-3.2-4.3-4.6-6.5c-4.3-6.4-8-13.1-9.9-20.6c-0.9-3.8-1.3-7.6-0.2-11.4c1.1-3.6,3.2-6.2,7-7.2
	c1.2-0.3,2.4-0.3,3.5,0.1c2.3,0.8,3.6,3,3,5.3c-0.6,2.2-2.8,3.7-5.1,3.4c-1.9-0.3-3.4-1.3-4.8-2.9c-1.7,2.5-1.8,5-1.6,7.6
	c0.2,2.6,0.8,5,1.6,7.5c1.4,4.4,3.5,8.4,5.8,12.4c2.2,3.7,4.6,7.3,7.2,10.8c0.4,0.6,0.7,1.2,1.6,1.2c3.4,0,6.1,1.6,8.4,4.2
	c0.8-0.8,0.6-1.7,0.6-2.5c0.8-11.2,2.6-22.2,5.8-33c2.9-9.7,7.2-18.8,13.7-26.7c6.3-7.6,13.9-13.4,23.6-16.1
	c6.5-1.8,12.9-1.9,19.4,0.2c2.7,0.9,5.2,2.2,7.3,4c6.6,5.4,9.2,12.3,7.3,20.7c-0.8,3.4-2.1,6.5-3.4,9.7c-1.4,3.4-3,6.7-3.8,10.3
	c-1,4.8,0.2,7.9,4.4,10.4c1.8,1.1,3.8,2,5.7,3c2,1,4,2,5.9,3.3c5.7,4,8.2,9.4,7.2,16.4c-0.1,0.5-0.3,0.9-0.1,1.4
	c1.4,0.5,2.8,1,4.2,1.6c3.6,1.7,5.4,4.6,5.6,8.5c0.2,2.7-0.3,5.3-0.7,7.9c-0.3,2-0.7,3.9-0.8,5.9c-0.5,5.5,1.5,10,5.5,13.7
	c2.2,2,4.7,3.7,7.3,5.1c2.7,1.5,5.5,2.9,8.3,4.3c2.1,1.1,4.1,2.3,5.9,3.7c2,1.5,3.8,3.2,5.1,5.4c3,4.7,3,9.5,0.1,14.2
	c-1.9,3.1-4.5,5.4-7.5,7.3c-5.5,3.6-11.6,5.8-17.9,7.2c-10.3,2.3-20.8,2.5-31.2,1.2c-5.2-0.7-10.3-1.6-15.3-3.1
	c-3.1-0.9-6.1-2-8.8-3.7c-0.6-0.3-1.1-0.9-1.9-0.1c-1.5,1.4-3.2,1.2-4.9,0.6c-1.9-0.6-3.6-1.7-5.3-2.7c-0.7-0.5-1.3-1.1-2.2-1.3
	c-0.5,0.1-0.4,0.5-0.4,0.8c1.2,11.2-1,22-4.6,32.5c-2.6,7.7-5.7,15.3-9.7,22.4c-3,5.2-6.4,9.9-10.8,14c-4.2,3.8-8.9,6.6-14.5,7.4
	c-9.2,1.3-17.5-1-24.4-7.4c-4.5-4.2-5.5-9.4-3.8-15.2c0.5-1.8,1.2-3.7,1.9-5.4c1.8-4.6,0.9-8.4-2.8-11.7c-1.7-1.5-3.4-2.9-5-4.5
	c-2.1-1.9-3.7-4.2-4.5-7c-0.4-1.3-0.6-2.7-0.4-4c0.2-1.8-0.3-1.7-1.7-1.7c-3,0.1-5.9-0.2-8.8-0.9c-2.6-0.7-5-1.8-7-3.6
	c-2.7-2.5-3.8-5.6-2.8-9.3c0.6-2.3,1.7-4.3,2.8-6.3c1.2-2.2,2.4-4.3,3.2-6.7c1.5-4.4,0.7-7.2-3.1-10.1c-2.1-1.5-4.3-2.7-6.6-3.9
	c-3.4-1.8-6.8-3.6-9.8-6.1c-4.1-3.3-6.9-7.3-7.3-12.7c-0.3-3.4,0.5-6.5,1.9-9.5c1.9-4,4.8-7.2,8.3-9.8c6.6-5.1,14.2-8,22.4-9.3
	c12.8-2,25.2-0.5,37.3,3.8c0.7,0.2,1.3,0.6,2.1,0.6c0.1-0.7-0.6-0.6-0.9-0.8c-3.4-1.5-5.9-3.8-6.6-7.6c-0.2-1.1-0.9-1.6-1.8-2
	c-5.1-2.8-9.8-6-14.2-9.8c-3.9-3.3-7.2-7-9.5-11.6c-1.7-3.3-2.6-6.8-2.2-10.6c0.2-1.5,0.6-3,1.5-4.2c1.2-1.6,2.7-2.5,4.7-2.2
	c2.1,0.3,3.3,1.7,4,3.7c1.1,3.2-1,8.1-5.8,7.9c-0.4,0-0.8-0.2-1.3,0.2c-0.1,0.8,0.3,1.6,0.6,2.4c1.2,3.1,3,5.8,5.2,8.3
	c5.4,5.8,11.8,10.3,18.8,14.4C164.5,131,165.9,129.2,168.3,128.2z M210.4,169.4c1.3-1.6,1.3-1.7,4-1.9c12.9-1.3,24.9-5.5,36.1-12.2
	c5.1-3.1,9.8-6.7,13.8-11.1c2.6-2.9,4.8-6,6.1-9.7c0.9-2.5,1.5-5.1,1-7.8c-0.7-4.1-3-7.2-6.4-9.5c-2.2-1.5-4.6-2.6-7-3.7
	c-2.2-1-4.3-2.1-6.2-3.7c-3-2.5-4.3-5.7-4-9.5c0.2-2.1,0.6-4.1,1.4-6.1c0.9-2.4,1.9-4.7,2.9-7.1c1.2-3,2.5-5.9,3.2-9
	c1.8-7.9-0.9-14.7-7.6-19.2c-2.1-1.4-4.3-2.4-6.7-3.1c-7-1.9-13.8-1-20.4,1.6c-8,3.2-14.3,8.7-19.5,15.5c-6.1,7.9-10,16.9-12.6,26.5
	c-3.4,12.2-4.8,24.8-5.7,37.4c-0.1,0.9,0.1,1.7-0.5,2.5c-1,1.3-0.9,1.4,0.4,2.3c4.8,3.3,9,7.2,13.1,11.2
	C200.9,158.1,205.7,163.6,210.4,169.4z M193.7,183c-2.2-2.9-4.4-5.7-6.4-8.5c-5.3-7.3-10.3-14.8-13.9-23.2c-0.8-1.9-1.9-3.1-3.7-3.6
	c-0.8-0.2-1.5-0.6-2.3-0.8c-11.2-3.6-22.6-5.2-34.3-3.5c-7.3,1-14.1,3.4-20.3,7.5c-3.2,2.1-6,4.7-8.2,8c-1.6,2.4-2.7,5.1-3,8
	c-0.5,5,1.5,9,5.1,12.4c2.6,2.4,5.7,4.2,8.8,5.8c2.9,1.6,5.8,3,8.5,4.9c5,3.6,6.2,7.8,4.1,13.6c-0.9,2.3-2.1,4.5-3.3,6.7
	c-0.9,1.7-1.8,3.4-2.4,5.2c-0.9,3.1-0.1,5.6,2.4,7.7c1.3,1.1,2.8,1.8,4.4,2.3c4.3,1.4,8.7,1.4,13.1,0.7c7.8-1.1,14.6-4.6,20.8-9.2
	c11.2-8.4,20.2-18.8,27.6-30.7C191.6,185,192.2,183.6,193.7,183z M211.6,170.5c0,0.1,0,0.3,0,0.4c0.4,0.6,0.8,1.2,1.3,1.7
	c6,7.9,11.7,16,16.1,24.9c1.4,2.7,3,5.5,3.2,8.5c0.1,3.4,2.2,4.4,4.6,5.5c1.2,0.5,2.4,1,3.6,1.3c12.3,3.8,24.9,5.2,37.7,4.2
	c8-0.7,15.8-2.5,23.1-6.1c2.6-1.3,5-2.8,7.2-4.7c0.8-0.7,1.5-1.4,2.2-2.2c4.4-5.2,4.3-10.7-0.4-15.7c-2-2.2-4.5-3.8-7.1-5.2
	c-2.8-1.5-5.7-2.9-8.5-4.4c-3.2-1.7-6.2-3.6-8.9-6.1c-4.8-4.5-6.8-9.9-6.1-16.4c0.2-1.3,0.4-2.7,0.6-4c0.3-2.3,0.7-4.6,0.9-6.9
	c0.4-4.5-1.5-7.4-5.5-8.7c-0.6-0.2-1.2-0.5-1.8,0c-0.9,0.8-1.9,1.4-2.5,2.5c-2.6,4.7-6.1,8.6-10.2,12
	C246.6,162.8,229.9,168.8,211.6,170.5z M216.4,215c0-1.7-0.3-4.7-0.7-7.6c-0.2-1.2-0.7-2-1.6-2.8c-4.2-3.7-8.2-7.7-11.9-11.8
	c-2-2.2-3.9-4.4-5.8-6.7c-0.8-0.9-1.4-0.8-2.2-0.2c-0.3,0.3-0.6,0.7-0.8,1.2c-5.5,9.3-12.4,17.4-20.2,24.9
	c-5.1,4.9-10.7,9.2-17,12.4c-3.4,1.7-6.9,3-10.5,3.9c-2.6,0.6-3.4,1.9-3,4.5c0.3,2,1.2,3.8,2.5,5.4c1.1,1.4,2.4,2.6,3.8,3.7
	c1.6,1.3,3.2,2.7,4.5,4.3c2.6,3.1,3.7,6.5,2.6,10.5c-0.7,2.5-1.7,5-2.4,7.5c-1.7,5.8-0.2,10.4,4.5,14c5.3,4.1,11.3,5.9,17.9,5.7
	c6.5-0.3,11.8-3.1,16.4-7.5c4.4-4.2,7.8-9.1,10.7-14.4c3.7-6.8,6.6-13.9,8.9-21.2C214.5,232.7,216.4,224.6,216.4,215z M230,209.2
	c0-1.9-0.5-3.3-0.9-4.7c-1.5-4.5-3.8-8.6-6.2-12.7c-9.2-15.3-20.4-29-33.4-41.3c-3.1-3-6.5-5.7-10.2-7.9c-1.2-0.7-2.4-1.3-3.7-1.6
	c-1.3-0.2-1.8,0.2-1.9,1.5c-0.1,1.5,0.3,2.8,0.8,4.2c1.2,3.6,2.8,7,4.7,10.2c9.6,16.6,21.4,31.4,35.4,44.5c2.9,2.7,5.9,5.2,9.2,7.2
	c1.2,0.7,2.5,1.5,3.9,1.8C229.5,211,230,210.6,230,209.2z M171.4,130.3c-1.8,0.1-3.7,0.7-4.8,2.6c-1.1,1.9-0.8,3.8,0.3,5.7
	c0.7,1.2,1.7,2.1,2.9,2.8c0.8,0.5,1.2,0.4,1.6-0.6c1-2.3,2.4-2.9,4.8-2.4c0.5,0.1,1.1,0.3,1.6,0.5c1.3,0.4,1.5,0.2,1.6-1.1
	c0.1-0.8,0-1.6-0.3-2.4C178,132.6,174.9,130.3,171.4,130.3z M140.2,105.3c2.5,0.1,4-2.1,3.2-4.6c-0.6-1.8-2.5-2.2-3.7-0.8
	c-0.8,0.9-1,2-1.3,3.1C137.9,104.9,138.3,105.3,140.2,105.3z M162.6,88.6c1.2,0,1.9-0.6,2-1.6c0.1-1.1-0.6-1.8-1.9-2
	c-1.4-0.2-3.3,0.6-3.4,1.2C159.2,87.1,161.3,88.6,162.6,88.6z"/>
<path d="M667.9,276.5c-0.5-0.5-1-0.3-1.5-0.4c-3-0.4-4.8-2.9-4.1-5.8c0.4-1.6,1.6-2.8,3-3.1c1.6-0.2,2.8,0.4,3.7,1.7
	c1.3,1.9,1.5,4,1.2,6.2c-0.3,2.3-1.1,4.3-2.2,6.3c-1.7,3-4,5.6-6.6,7.8c-3.3,2.9-6.9,5.4-10.8,7.5c-1,0.5-1.7,1-1.8,2.3
	c-0.1,1-0.7,2-1.4,2.7c-0.7,0.8-1.4,1.5-2.2,2.3c1.1,0.1,2.1-0.5,3-0.7c10.1-2.8,20.3-3.5,30.5-0.6c5,1.4,9.6,3.7,13.4,7.2
	c3.1,2.8,5.4,6.1,6.2,10.3c0.8,4.2-0.4,7.9-3.2,11.1c-1.6,1.9-3.7,3.3-5.8,4.6c-1.9,1.1-3.9,2.2-5.9,3.3c-1.3,0.7-2.5,1.4-3.6,2.3
	c-2.4,2-3.1,4-2.1,7c0.6,1.8,1.5,3.5,2.4,5.2c0.9,1.6,1.7,3.2,2.3,5c0.9,3,0.1,5.5-2.2,7.6c-2.2,1.9-4.8,2.8-7.6,3.2
	c-1.5,0.2-3,0.2-4.5,0.2c-0.9,0-1.3,0.2-1.2,1.3c0.3,3.4-1.2,6.1-3.5,8.3c-1.2,1.2-2.5,2.3-3.8,3.4c-3.1,2.7-4,5.8-2.4,9.7
	c0.6,1.4,1.1,2.8,1.5,4.3c1.2,4.8,0,8.9-3.8,12.1c-5.9,5-17.3,8.4-27.1,1c-3.8-2.8-6.7-6.4-9.2-10.4c-4.3-6.8-7.2-14.2-9.6-21.9
	c-2.3-7.2-3.5-14.6-2.8-22.2c0-0.3,0.1-0.6-0.2-0.9c-0.7,0-1.2,0.6-1.8,0.9c-1.2,0.7-2.3,1.4-3.6,1.9c-1.1,0.4-2.4,0.8-3.2,0.2
	c-1.4-1-2.4-0.4-3.6,0.2c-4.4,2.2-9.2,3.3-14,4.1c-10.2,1.7-20.4,1.6-30.4-1.2c-3.9-1.1-7.6-2.6-10.9-4.8c-2.3-1.5-4.3-3.3-5.8-5.7
	c-2.3-3.7-2.2-7.4,0.1-11.1c1.6-2.5,3.8-4.3,6.4-5.7c2.1-1.2,4.4-2.3,6.6-3.5c2.5-1.3,4.9-2.7,7-4.5c3.4-3,5.2-6.7,4.6-11.3
	c-0.2-1.8-0.5-3.6-0.8-5.5c-0.2-1.3-0.3-2.5-0.3-3.8c0-4.5,1.6-6.8,5.8-8.3c1.8-0.6,1.8-0.7,1.6-2.4c-0.5-4.7,1.2-8.4,4.8-11.4
	c1.6-1.3,3.5-2.2,5.4-3.2c1.4-0.7,2.9-1.4,4.3-2.2c3.3-2,4.3-4.3,3.5-8.1c-0.4-2.1-1.3-4.1-2.1-6.1c-1.2-2.7-2.4-5.4-3.2-8.3
	c-2.1-7.7,0.7-14.7,7.7-18.6c5.8-3.3,12-3.5,18.4-1.7c5.9,1.7,10.9,4.9,15.2,9.2c6,6,10,13.3,12.7,21.2c3,8.8,4.5,18,5.3,27.2
	c0.1,0.6,0.1,1.3,0.2,1.9c0,0.1,0.1,0.3,0.2,0.4c0.6,0.3,0.8-0.3,1.2-0.5c1.4-1.3,3-2.1,4.9-2.3c0.7-0.1,1.3-0.2,1.8-0.9
	c4.3-6,8.4-12.1,10.4-19.3c0.7-2.5,1.2-5.1,0.6-7.8c-0.2-0.8-0.3-1.5-0.9-2.1c-0.8,0.1-1.2,0.9-1.8,1.2c-1,0.5-2,0.9-3.2,0.7
	c-1.6-0.3-2.7-1.5-2.8-3.1c-0.1-1.7,0.9-3.1,2.6-3.5c2.2-0.6,5.1,0.6,6.6,2.9c1.9,2.8,2.1,6,1.6,9.2c-0.7,4.2-2.3,8.2-4.3,11.9
	c-1.9,3.5-4.1,6.9-6.6,10c-0.6,0.8-0.7,1.3,0.3,1.9c0.6,0.3,1.1,0.9,1.6,1.4c1.4,1.7,1.4,1.7,3.2,0.5c4.2-2.7,8.2-5.5,11.7-9.2
	C665.1,282.6,667,279.8,667.9,276.5z M612.7,323.4c0.7-0.9,1.2-1.5,1.8-2.1c5.9-7.1,12.1-13.9,19.7-19.2c0.7-0.5,1.2-0.9,0.4-1.7
	c-0.5-0.4-0.5-1-0.5-1.5c-0.3-3.5-0.6-7-1-10.5c-0.9-8.4-2.4-16.6-5.3-24.5c-3.1-8.4-7.5-15.9-14.6-21.6c-4.8-3.9-10.3-6.5-16.5-7
	c-4.8-0.4-9.4,0.5-13.4,3.5c-4.5,3.4-6.5,7.9-5.4,13.6c0.5,2.8,1.7,5.5,2.8,8.1c1.1,2.5,2.2,5,2.8,7.6c1.1,4.8-0.2,8.1-4.4,10.6
	c-1.6,1-3.4,1.8-5.1,2.6c-1.7,0.9-3.4,1.7-4.9,3.1c-2.9,2.7-4.1,5.9-3.3,9.9c0.8,3.6,2.7,6.6,5.1,9.4c3.8,4.4,8.4,7.6,13.4,10.3
	c7.9,4.3,16.3,7,25.2,7.9C610.7,322.1,611.9,322.1,612.7,323.4z M668.9,367.5c3.2,0,6.2-0.4,9-2.1c2.7-1.7,3.5-4,2.4-7
	c-0.4-1.2-1.1-2.3-1.7-3.5c-0.9-1.7-1.9-3.4-2.5-5.2c-1.6-4.5-0.7-7.7,3.2-10.5c1.7-1.3,3.7-2.3,5.6-3.3c2.3-1.2,4.7-2.5,6.7-4.2
	c5.8-4.7,6.7-11.1,2.3-17.1c-0.6-0.9-1.4-1.8-2.2-2.6c-2.7-2.8-6-4.7-9.6-6.2c-7.1-2.9-14.5-3.7-22.1-2.9
	c-5.5,0.6-10.9,1.6-16.1,3.7c-1,0.4-1.9,0.7-2.3,1.8c-3.5,8.3-8.6,15.5-13.9,22.6c-0.6,0.8-1.3,1.5-1.7,2.3
	c-0.4,1.1,1.3,1.2,1.4,2.2c0,0.1,0.2,0.3,0.2,0.4c4.9,8.3,11.2,15.4,18.4,21.6c2.7,2.3,5.6,4.3,8.7,5.9
	C659.2,366,663.9,367.5,668.9,367.5z M611.6,324.3c-0.5-0.1-0.9-0.1-1.3-0.1c-10.3-1.1-20-4.1-28.9-9.4c-6.3-3.8-12-8.3-15.7-14.8
	c-0.4-0.7-1-1-1.5-1.5c-0.6-0.6-1.2-0.5-2-0.3c-2.5,0.9-4,2.7-4,5.4c0,1.1,0.1,2.2,0.2,3.3c0.3,2.1,0.7,4.3,0.9,6.4
	c0.6,5-1,9.1-4.6,12.6c-1.9,1.8-4,3.2-6.2,4.4c-2.2,1.2-4.4,2.3-6.6,3.5c-1.9,1-3.8,2.1-5.4,3.6c-4.7,4.3-4.8,9.2-0.4,13.8
	c1.9,1.9,4.1,3.3,6.5,4.5c5.4,2.7,11.3,4,17.3,4.6c7.9,0.8,15.8,0.2,23.6-1.5c3.7-0.8,7.3-1.7,10.6-3.6c0.7-0.4,1.3-0.7,1.4-1.7
	c0.2-2.9,1.5-5.5,2.8-8.1c3.3-6.7,7.6-12.8,12-18.7C610.8,325.9,611.4,325.4,611.6,324.3z M608.1,359.1c-0.1,3.7,0.3,6.8,0.9,10
	c2.3,10.7,6,20.9,12,30.1c2.1,3.3,4.7,6.2,7.9,8.7c7.8,6.1,18.4,4.3,24.6-0.9c3.2-2.7,4.2-6.1,3.1-10.1c-0.4-1.5-0.9-2.9-1.5-4.3
	c-1.7-4.4-0.8-8.1,2.7-11.3c1.4-1.2,2.8-2.4,4.1-3.7c1.4-1.3,2.5-2.9,2.9-4.9c0.5-2.3,0-3.3-2.4-3.8c-6.7-1.6-12.4-5-17.6-9.4
	c-7.5-6.3-13.9-13.7-19-22.1c-1.2-2-1.6-2.1-3.1-0.3c-3.5,4.1-6.9,8.3-11.1,11.6c-2.9,2.3-3.7,5.1-3.7,8.5
	C608.1,358,608.1,358.8,608.1,359.1z M641.1,303.3c0-1.4-0.5-1.9-1.8-1.6c-1,0.2-1.9,0.7-2.8,1.3c-2.4,1.4-4.6,3.2-6.7,5.1
	c-11.1,10.3-20.5,21.9-28.1,35.1c-1.4,2.4-2.6,4.9-3.5,7.6c-0.3,1-0.7,2-0.7,3c0,1.5,0.5,1.9,1.9,1.4c1.2-0.4,2.3-1,3.4-1.7
	c2.9-2,5.6-4.2,8.2-6.7c9.5-9.2,17.7-19.5,24.6-30.9c1.8-3,3.5-6.1,4.7-9.4C640.7,305.4,640.9,304.3,641.1,303.3z M643.3,302.1
	c1.9-0.8,2.9-1.8,3.4-3.3c0.6-1.6,0.2-3.3-1.1-4.4c-1.5-1.3-4-1.4-6.1-0.3c-2,1.1-3.2,3.2-3,5.1c0.1,0.8,0.3,1.1,1.2,0.9
	C641.4,299.2,641.6,299.3,643.3,302.1z M666.7,274c0.6-0.2,1.6,0.2,1.6-0.9c0-1.3-0.2-2.5-1.2-3.5c-0.8-0.7-1.7-0.6-2.3,0.1
	c-0.7,0.8-0.7,1.8-0.3,2.7C664.8,273.5,665.6,274,666.7,274z M650.1,258.3c-1.3,0-2,0.5-2.1,1.3c0,0.8,0.6,1.4,1.5,1.4
	c0.9,0,2.5-1,2.4-1.6C651.8,258.3,650.7,258.5,650.1,258.3z"/>
<path d="M122.3,433.7c-1.5,0.9-2.6,1.6-3.7,2.2c-1.4,0.7-2.8,1.2-4.3,0.3c-0.6-0.4-1-0.1-1.6,0.1c-12,5.2-24.3,5.8-36.8,2.7
	c-2.9-0.7-5.6-1.9-8.1-3.5c-1.3-0.8-2.5-1.7-3.6-2.8c-4.2-4.3-4.1-9.4,0.4-13.5c1.7-1.5,3.6-2.6,5.6-3.7c2.2-1.1,4.4-2.3,6.5-3.6
	c4.9-3.1,6.7-7.5,5.6-13.1c-0.3-1.6-0.6-3.1-0.7-4.7c-0.2-3.7,1.1-5.7,4.6-7c1.4-0.5,1.6-1.1,1.5-2.4c-0.4-4,1.3-7,4.4-9.2
	c1.6-1.2,3.5-2,5.3-2.8c5.1-2.6,6-4.8,4-10.2c-0.6-1.6-1.4-3.2-2-4.9c-0.6-1.5-1.2-3-1.6-4.5c-1.6-6.3,0.9-11.9,6.6-14.9
	c4.2-2.2,8.6-2.5,13.1-1.5c6.8,1.4,12.1,5.4,16.4,10.6c4.9,6.1,7.8,13.2,9.5,20.7c1.2,5.2,2,10.5,2.5,15.9c0,0.5-0.1,1.1,0.5,1.8
	c1.6-1.3,3.3-2.4,5.5-2.4c0.4,0,0.6-0.5,0.9-0.8c3.2-4.4,6.2-9,7.9-14.2c0.7-2,1.2-4,1.1-6.1c0-1.1-0.2-2.2-0.8-3.2
	c-0.9,0.1-1.3,0.8-1.9,1.1c-1.4,0.6-2.9,0.4-3.8-0.5c-0.7-0.8-0.9-2.2-0.4-3.1c0.5-1.1,1.8-1.7,3.3-1.5c2.3,0.3,3.8,1.6,4.6,3.7
	c1,2.4,0.8,4.9,0.3,7.3c-0.8,4-2.6,7.7-4.8,11.2c-1.1,1.7-2.2,3.3-3.4,4.9c-0.7,0.9-1.1,1.6,0.2,2.2c0.3,0.1,0.5,0.4,0.7,0.6
	c1.5,1.6,1.5,1.6,3.3,0.4c3.2-2,6.2-4.2,8.8-7c2-2,3.5-4.3,4.3-7c-0.4-0.7-1-0.4-1.5-0.5c-1.7-0.4-2.8-1.5-3-3.3
	c-0.2-1.7,0.8-3.4,2.2-3.8c1.5-0.4,3.1,0.4,3.8,2.1c0.8,1.8,0.7,3.6,0.3,5.4c-0.8,3.3-2.7,6-5,8.3c-3,3-6.4,5.5-10.1,7.6
	c-1.1,0.6-1.9,1.2-2.2,2.6c-0.4,1.6-1.6,2.7-2.9,3.7c2.6-0.5,5-1.4,7.6-1.8c7.3-1.2,14.5-1.3,21.5,1.2c4.1,1.5,7.9,3.6,10.8,6.9
	c2.5,2.8,4,6,3.5,9.9c-0.3,3-1.9,5.4-4.2,7.3c-1.8,1.6-3.9,2.7-6.1,3.9c-1.6,0.8-3.1,1.6-4.5,2.7c-2.3,1.8-2.9,3.5-1.8,6.3
	c0.5,1.3,1.2,2.5,1.7,3.7c0.6,1.2,1.3,2.4,1.7,3.7c1.1,3,0.2,5.5-2.5,7.3c-2.3,1.5-4.9,1.9-7.5,2.1c-0.5,0-1,0-1.4,0
	c-0.7,0-1,0.2-1,1c0.2,3.5-1.7,5.9-4.2,7.9c-0.9,0.7-1.7,1.5-2.5,2.3c-1.8,1.7-2.2,3.8-1.4,6.2c0.4,1.4,1,2.7,1.4,4.1
	c1.2,4.1,0.1,7.6-3.3,10.3c-5.6,4.6-15,6-22,0.4c-2.3-1.8-4.3-3.9-5.9-6.3c-6.4-9.7-10.3-20.3-11.4-31.9
	C121.8,438.3,121.9,436.2,122.3,433.7z M113.1,337.6c-3.4,0-6.5,0.7-9.3,2.7c-3.8,2.8-5.6,6.4-4.7,11.2c0.4,2.3,1.3,4.4,2.2,6.6
	c0.9,2.2,1.9,4.4,2.4,6.8c0.7,3.3-0.4,5.8-3.1,7.7c-1.4,1-2.9,1.6-4.4,2.4c-1.5,0.7-3,1.5-4.3,2.7c-2.4,2.3-3.4,5-2.6,8.2
	c0.4,1.6,1,3,1.9,4.4c1.8,2.8,4,5.2,6.7,7.2c6.6,5.1,14,8.3,22.1,9.9c2,0.4,4.1,0.3,5.9,1c1.6,0.7,2.1,0.1,3-0.9
	c3.4-4.2,7-8.1,11-11.7c1.5-1.3,3.1-2.5,4.7-3.7c0.6-0.4,1-0.8,0.4-1.6c-0.4-0.5-0.3-1.2-0.4-1.9c-0.2-2.5-0.4-4.9-0.7-7.4
	c-0.8-7.3-2.1-14.6-4.8-21.4c-2.5-6.3-6-12-11.4-16.4C123.5,339.9,118.7,337.7,113.1,337.6z M138,417.5c0.4,0.5,0.8,0.8,1.1,1.3
	c0.3,0.5,0.6,1,0.9,1.4c4.5,7.1,9.9,13.3,16.6,18.4c3.7,2.8,7.7,4.9,12.2,5.8c3.6,0.7,7.2,0.8,10.6-0.8c3-1.4,3.8-3.6,2.5-6.7
	c-0.4-1-1-2-1.5-3c-0.5-1.1-1.1-2.1-1.5-3.2c-1.5-3.8-0.7-6.4,2.6-8.8c1.7-1.2,3.6-2.1,5.4-3.1c2-1.1,3.9-2.2,5.5-3.8
	c3.2-3.1,3.9-7.1,1.9-11.2c-0.9-1.8-2.2-3.3-3.7-4.7c-2.5-2.2-5.4-3.7-8.5-4.8c-10-3.3-19.8-2.2-29.6,1.3c-0.9,0.3-1.4,0.9-1.8,1.8
	c-2,4.9-4.9,9.3-8,13.6C141.2,413.3,139.6,415.3,138,417.5z M126.6,410.2c-0.8-0.6-1.4-0.4-2-0.5c-5.2-0.6-10.2-1.9-15-3.8
	c-3.9-1.6-7.5-3.5-10.9-5.9c-3.6-2.6-6.7-5.6-9.1-9.5c-1.7-2.8-2.9-2.1-4.8-0.6c-1.3,1-1.5,2.6-1.4,4.2c0.2,2.2,0.6,4.4,0.9,6.6
	c0.5,4-0.6,7.4-3.5,10.3c-1.7,1.7-3.7,3-5.9,4.1c-2,1.1-4.1,2.1-6.1,3.3c-1.7,0.9-3.2,2.1-4.4,3.7c-2,2.7-2,5.4-0.1,8.2
	c1.2,1.7,2.7,2.9,4.4,4c2.5,1.6,5.3,2.6,8.2,3.4c8.9,2.4,17.9,2.1,26.8,0.2c2.8-0.6,5.6-1.3,8.2-2.6c1-0.5,1.7-1,1.8-2.3
	c0.2-2.2,1.2-4.1,2.2-6.1c2.3-4.7,5.2-9,8.3-13.2C124.9,412.5,125.7,411.4,126.6,410.2z M123.7,438.3c0,1.8,0,3.7,0.3,5.5
	c1.4,8.7,4.4,16.8,8.7,24.5c1.8,3.2,4.1,6.1,6.9,8.6c6.6,5.7,14.8,4.4,20.2,0.6c3.3-2.4,4.3-5.4,3.1-9.3c-0.4-1.3-0.9-2.6-1.3-3.9
	c-1-2.9-0.3-5.4,1.8-7.5c1-1,2.1-1.9,3.2-2.9c1.3-1.2,2.5-2.5,3-4.2c0.6-2.2,0.2-3.2-2-3.7c-5.5-1.4-10.2-4.2-14.4-7.8
	c-5.9-5-10.9-10.8-14.9-17.4c-1.1-1.8-1.4-1.8-2.7-0.3c-2.8,3.3-5.6,6.7-8.9,9.4c-2.2,1.8-2.8,3.9-2.9,6.4
	C123.7,436.8,123.7,437.6,123.7,438.3z M115.2,433.5c0,1.4,0.4,1.7,1.7,1.3c1.9-0.6,3.5-1.9,5.1-3.1c3.8-3,7.1-6.4,10.3-10
	c5.8-6.6,11-13.5,15.2-21.2c1.1-2,2.2-4.1,2.7-6.4c0.2-0.8,0.6-1.9-0.2-2.5c-0.7-0.5-1.5,0.1-2.2,0.4c-2.7,1.3-4.9,3.2-7.1,5.3
	c-8.2,7.7-15.2,16.4-21.1,26c-1.4,2.4-2.8,4.9-3.7,7.5C115.5,431.8,115.2,432.7,115.2,433.5z M152.2,391.9c1.6-0.6,2.5-1.6,2.9-3.1
	c0.3-1.4-0.1-2.6-1.2-3.4c-1.5-1-3-0.9-4.5,0c-1.5,0.8-2.5,2-2.5,3.8c0,0.7,0.2,1.3,1.1,0.9C149.9,389.4,151.4,389.8,152.2,391.9z
	 M169.3,367.1c0,1.3,0.8,2.1,2.1,2c0.7-0.1,1.2-0.3,1.1-1.2c-0.1-1.4-1-2.7-1.9-2.7C169.8,365.2,169.2,366,169.3,367.1z
	 M159.2,357.1c-0.5-0.7-1.3-0.8-2.1-0.7c-0.7,0.1-1.2,0.5-1,1.3c0.2,0.9,0.9,1,1.7,0.8C158.5,358.3,159.1,358,159.2,357.1z"/>
<path d="M493,116.3c-2.5,2.9-4.8,5.4-7.3,7.7c-0.8,0.7-0.8,1.7-0.9,2.7c-0.3,3.3,0.2,6.5,1.2,9.7c1.5,5,3.3,9.8,6.5,14.2
	c-3.9-2.5-9.5-15.3-8.8-24.3c-0.6-0.4-1,0.2-1.5,0.4c-0.7,0.3-1.5,1-2.2,0.7c-1.5-0.6-2.6,0.2-3.8,0.6c-7.7,2.5-15.3,2.9-23,0.3
	c-2.5-0.9-4.8-2.1-6.3-4.5c-1.6-2.5-1.4-4.6,0.6-6.8c1-1.1,2.4-1.9,3.7-2.6c1.6-0.9,3.3-1.6,4.8-2.7c2.5-1.8,3.7-4.1,3-7.3
	c-0.2-1.1-0.4-2.2-0.5-3.3c-0.1-2,0.5-3.7,2.5-4.4c1-0.4,1.3-0.9,1.2-2c-0.2-2.6,1.1-4.4,3.2-5.7c1.2-0.7,2.4-1.2,3.6-1.9
	c2.2-1.3,2.8-2.5,2.1-5c-0.3-1.1-0.8-2.1-1.2-3.1c-0.5-1.2-1-2.4-1.3-3.6c-1.1-4.1,0.6-7.9,4.6-9.7c3.1-1.4,6.2-1.3,9.3-0.3
	c4.1,1.4,7.2,4.1,9.6,7.6c3,4.3,4.6,9.3,5.5,14.4c0.5,2.6,0.8,5.2,1.2,8c1.1-0.5,2.1-1.3,3.3-1.4c0.4,0,0.7-0.4,0.9-0.7
	c2.2-3,4.2-6.1,5.1-9.7c0.4-1.4,0.5-3,0-4.4c-0.8-0.2-1.3,0.5-1.9,0.6c-1.2,0.2-2.2-0.5-2.2-1.6c-0.1-1,0.7-1.8,1.8-1.8
	c1.4,0,2.4,0.7,3.1,1.9c0.7,1.2,0.8,2.6,0.6,4c-0.4,2.7-1.5,5.2-2.9,7.5c-0.9,1.4-1.8,2.8-2.8,4.2c1.9,2.2,1.9,2.2,4.3,0.5
	c2.2-1.5,4.3-3.1,5.8-5.4c0.5-0.7,0.9-1.5,1.1-2.3c-0.2-0.7-0.8-0.5-1.2-0.6c-1.2-0.5-1.8-1.5-1.5-2.6c0.2-0.8,0.6-1.5,1.5-1.7
	c0.9-0.2,1.6,0.2,2,1c0.6,1,0.7,2.1,0.5,3.2c-0.5,2.1-1.5,3.9-3,5.4c-1.4,1.5-2.9,2.8-4.6,3.8c-2.1,1.1-3.6,2.7-4.5,5
	c2.8-0.8,5.7-1.3,8.5-1.4c4.2-0.2,8.3,0.6,12,2.6c1.9,1.1,3.6,2.4,4.7,4.3c2,3.3,1.5,6.8-1.5,9.3c-0.8,0.7-1.7,1.2-2.6,1.8
	c-0.7,0.5-1.5,0.8-2.3,1.3c-3.6,2-4,3.2-2,6.9c0.4,0.8,0.9,1.7,1.2,2.6c0.7,2,0.2,3.6-1.6,4.7c-1.5,0.9-3.1,1.2-4.8,1.2
	c-0.7,0-1.3,0-1.3,1c0,2-1.2,3.4-2.6,4.6c-0.5,0.4-1,0.8-1.4,1.3c-1.2,1.2-1.6,2.5-1,4.2c0.3,0.9,0.6,1.8,0.9,2.7
	c0.5,1.9,0.1,3.6-1.2,5.1c-3,3.6-9.7,4.5-13.6,1.8c-0.7-0.5-1.6-1-1.8-2.3c0.9,0.6,1.5,1,2.2,1.4c3.5,2.1,8,1.9,11.3-0.5
	c2.1-1.5,2.7-3.3,2-5.9c-0.1-0.4-0.3-0.8-0.4-1.1c-1.2-3.5-0.9-4.6,2-7.1c1-0.9,2.1-1.8,2.5-3.1c0.5-1.3,0.2-2.1-1.1-2.4
	c-6.9-1.8-11.5-6.7-15.7-12C495.3,119.8,494.3,118.2,493,116.3z M478.4,65.6c-5.8,0-11.4,4-8.2,11.3c0.5,1.2,1.1,2.5,1.5,3.8
	c1.4,3.9,0.7,5.8-3,7.6c-1.1,0.6-2.3,1.1-3.4,1.8c-2.1,1.6-2.7,3.7-1.9,6.2c0.4,1.3,1.1,2.5,2,3.5c1.5,1.9,3.4,3.4,5.4,4.7
	c4.5,2.8,9.4,4.3,14.6,5.1c1.5,0.2,2.1-0.2,3-1.1c2-2.4,4.1-4.7,6.5-6.8c1-0.8,2.4-1.4,2.8-2.5c0.4-1.1-0.1-2.6-0.2-3.9
	c-0.5-5.5-1.3-11-3.3-16.1c-1.6-3.9-3.8-7.4-7.1-10.1C484.5,66.9,481.5,65.7,478.4,65.6z M513.5,99.9c-2.7,0-5.2,0.5-7.8,1
	c-2.4,0.5-4.2,1.6-5.1,4.1c-0.6,1.7-1.8,3.2-2.8,4.7c-1,1.5-2.1,3-3.2,4.5c-0.7,0.9-0.7,1.5-0.1,2.5c2.3,3.6,5,6.9,8.1,9.8
	c2.2,2.1,4.7,3.9,7.5,5c2.7,1.1,5.5,1.6,8.4,0.7c2.8-0.8,3.5-2.5,2.3-5.1c-0.2-0.4-0.4-0.9-0.7-1.3c-2.4-4.6-1.9-6.3,2.7-8.8
	c1.5-0.8,3.1-1.6,4.4-2.8c2.3-2.1,2.8-4.8,1.2-7.6c-1.1-1.9-2.7-3.2-4.5-4.2C520.8,100.5,517.2,99.8,513.5,99.9z M486.5,110.9
	c-0.4-0.2-0.6-0.2-0.7-0.3c-9.1-1.3-17.2-4.4-22.6-12.4c-0.7-1.1-1.4-1-2.5-0.3c-1.1,0.7-1.3,1.8-1.2,3c0.1,1.1,0.2,2.2,0.5,3.3
	c0.6,3.3-0.5,6-3.1,8c-1.5,1.1-3.1,2-4.7,2.8c-1.3,0.7-2.6,1.3-3.6,2.3c-2.3,2.2-2.3,4.7-0.1,6.9c1.5,1.5,3.4,2.4,5.3,3.1
	c5.1,1.8,10.3,1.9,15.6,1.2c2.5-0.3,5.1-0.9,7.4-1.9c0.7-0.3,1.5-0.6,1.7-1.5c0.8-4,3.2-7.3,5.4-10.6
	C484.7,113.4,485.5,112.3,486.5,110.9z M479.5,124.7c-0.2,1.6,0.2,1.9,1.3,1.5c0.8-0.4,1.6-0.8,2.3-1.3c7.3-6,13.1-13.3,17.4-21.7
	c0.4-0.8,0.7-1.8,0.9-2.7c0.2-0.8-0.2-1.2-1.1-0.9c-1.2,0.4-2.1,1.1-3.1,1.9c-6.8,5.8-12.4,12.7-16.5,20.7
	C480.1,122.9,479.8,124,479.5,124.7z M502.2,95.1c-1.3,0-2.5,0.9-2.9,2.1c-0.2,0.6-0.3,1.4,0.8,1.1c1-0.3,1.7,0,2.3,0.8
	c0.2,0.3,0.5,0.3,0.8,0.1c0.8-0.5,1.4-1.8,1.2-2.6C504,95.5,503.2,95.1,502.2,95.1z M515.2,84.5c-0.1-0.7-0.2-1.5-1.1-1.6
	c-0.6-0.1-0.9,0.4-0.9,0.9c-0.1,0.8,0.3,1.4,1.2,1.4C514.8,85.2,515.2,85.1,515.2,84.5z M505.8,78.7c0.4-0.1,1-0.2,0.9-0.8
	c0-0.4-0.4-0.4-0.7-0.4c-0.4,0-0.8,0-0.9,0.5C505,78.4,505.4,78.6,505.8,78.7z"/>
<path d="M686.5,151.2c-0.2,12-10.1,21.8-22.1,21.6c-12.2-0.2-22-10.2-21.7-22.5c0.4-12.7,10.8-21.4,21.6-21.4
	C676.9,129,686.6,138.9,686.5,151.2z M646.5,150.8c-0.1,10.1,8,18.2,18,18.3c10,0.1,18.2-8,18.2-18.1c0-9.7-7.9-18-17.4-18.2
	C654.8,132.7,646.5,140.6,646.5,150.8z"/>
<path d="M52.7,271.6c0-11.2,9.5-20.6,20.9-20.7c11.6-0.1,21.3,9.6,21.2,21.2c-0.1,11.5-9.5,20.9-21,20.9
	C62,293,52.7,283.6,52.7,271.6z M73.6,289.2c9.7,0,17.5-7.7,17.5-17.3c0-9.5-7.7-17.3-17.2-17.3c-9.6-0.1-17.4,7.6-17.4,17.3
	C56.4,281.5,64.1,289.2,73.6,289.2z"/>
<path d="M281.7,361.9c0.3,5.9-1.4,11.1-3.8,16.2c-1.2,2.5-2.6,4.8-4.6,6.6c-3.2,3-7.3,3.5-11.1,1.4c-3.1-1.6-4.2-4-2.9-7.1
	c1.1-2.6,0.5-4.4-1.7-6c-1.2-0.9-2.1-2.1-2.2-3.6c-0.1-1-0.6-1.2-1.4-1.1c-1.1,0-2.2-0.2-3.2-0.7c-2.1-1-2.7-2.6-1.8-4.7
	c0.4-1,1-2,1.5-3c0.8-1.9,0.5-2.9-1.2-4.1c-0.6-0.4-1.2-0.7-1.9-1.1c-0.8-0.5-1.7-0.9-2.5-1.5c-3.8-2.6-4.2-6.6-1-10
	c2.2-2.3,4.9-3.5,8-4.1c3.4-0.7,6.8-0.5,10.2,0.3c0.4,0.1,0.8,0.2,1.2,0.2c0.1,0,0.3,0,0.6-0.1c-0.3-1.5-1-2.5-2.4-3.2
	c-1.6-0.8-3.1-2-4.4-3.3c-1.2-1.2-2.2-2.5-2.8-4.1c-0.3-0.8-0.4-1.5-0.3-2.4c0.1-1.3,0.8-2.2,1.8-2.3c0.8,0,1.4,0.4,1.6,1.2
	c0.3,1.1-0.1,1.9-1.4,2.6c-0.2,0.1-0.4,0.2-0.7,0.3c0.3,1.5,1.2,2.6,2.1,3.7c1.4,1.5,3,2.6,4.7,3.7c0.7,0.5,1.3,0.6,2-0.2
	c0.6-0.7,0.7-1.1,0.1-1.8c-1.3-1.7-2.4-3.4-3.2-5.3c-0.6-1.3-1-2.7-1.2-4.1c-0.1-1.1,0.1-2.2,0.7-3.2c0.4-0.7,1-1.1,1.6-1.3
	c0.8-0.3,1.6-0.2,2.1,0.6c0.4,0.5,0.4,1.1,0,1.6c-0.5,0.7-1.2,0.7-1.9,0.5c-1.5-0.3-1.6-0.2-1.6,1.1c0,0.7,0.1,1.4,0.3,2.1
	c0.4,1.8,1.2,3.5,2.2,5c1.3,2.2,2.5,4.7,5.8,4.8c0.6-1.7,0.5-3.8,0.8-5.7c0.7-3.8,1.7-7.5,3.5-10.9c1.6-3,3.8-5.6,6.7-7.3
	c2.9-1.7,6-2.6,9.4-1.6c4.3,1.2,6.4,5,5.1,9.3c-0.5,1.5-1.2,3-1.7,4.5c-1,2.8-0.6,3.9,2,5.3c0.7,0.4,1.4,0.7,2.1,1.1
	c2,1.2,3.3,2.8,3.2,5.2c0,0.8,0.1,1.3,1,1.6c1.9,0.7,2.4,2.2,2.2,4.1c-0.1,1-0.3,2.1-0.4,3.1c-0.3,2.4,0.6,4.2,2.5,5.6
	c1.3,1,2.7,1.6,4.1,2.4c1.3,0.7,2.5,1.4,3.5,2.5c1.5,1.9,1.6,4,0.1,5.9c-1.3,1.6-3,2.6-4.9,3.3c-6.8,2.5-13.6,2.1-20.4-0.3
	c-0.8-0.3-1.5-0.7-2.5-0.4C283.9,363.4,283,362.1,281.7,361.9z M269.6,336.9c0.4,0.7-0.9,1.7,0.2,2.5c3.1,2.3,5.7,5.1,8.1,8.1
	c0.3,0.4,0.6,0.7,1.2,0.6c5.7-0.8,11-2.5,15.6-6.1c1.4-1.1,2.6-2.4,3.5-3.9c1.7-3,1-5.6-2-7.3c-0.6-0.3-1.1-0.6-1.7-0.9
	c-3.3-1.7-3.9-3.3-2.6-6.8c0.5-1.4,1.2-2.8,1.7-4.2c1.1-3.8-0.6-6.8-4.3-8c-1.6-0.5-3.1-0.5-4.7-0.2c-3.4,0.7-6.1,2.6-8.3,5.3
	c-2.2,2.7-3.6,5.8-4.6,9.1C270.5,328.8,270,332.7,269.6,336.9z M255.8,339.5c-3.7,0.1-7.5,1-10.7,3.7c-2.9,2.5-3.8,6.8,0.7,9.5
	c0.8,0.5,1.7,0.9,2.5,1.4c0.6,0.4,1.3,0.7,1.8,1.1c1.6,1.2,2,2.5,1.3,4.4c-0.3,0.8-0.7,1.6-1.1,2.4c-1.6,3.1-0.7,4.8,2.8,5.3
	c1.4,0.2,2.7,0.1,4-0.2c2.2-0.5,4.2-1.6,6-2.9c3.8-2.8,6.7-6.3,9.2-10.3c0.6-0.9,0.6-1.4-0.1-2.3c-2.3-2.8-4.3-5.8-5.7-9.1
	c-0.4-0.9-1.1-1.3-1.9-1.6C261.9,340.1,259.1,339.6,255.8,339.5z M279.4,348.8c0.5,1.4,1.4,2.1,2,3.1c1.7,2.6,3.7,5.1,4.4,8.2
	c0.4,1.7,1.4,2.4,2.8,2.8c3.9,1.2,7.9,1.8,12,1.5c3.4-0.3,6.8-0.9,9.8-2.9c3.7-2.5,3.7-5.7-0.2-8.1c-1.4-0.8-2.8-1.5-4.2-2.3
	c-3.8-2.3-4.8-4.5-4-8.8c0.2-1,0.4-2.1,0.1-3.1c-0.2-0.8-0.8-1.4-1.6-1.6c-0.9-0.2-1.3,0.4-1.7,1c-2.1,3.4-5.3,5.5-8.7,7.2
	C286.8,347.5,283.3,348.3,279.4,348.8z M273.9,353.8c-1,0.4-1.2,1.4-1.7,2c-3.9,5.3-8.1,10.1-14.7,12.1c-1.3,0.4-1.5,1.1-0.9,2.4
	c0.5,1.2,1.6,2,2.6,2.8c1.7,1.4,2.1,3.1,1.3,5.2c-0.2,0.4-0.3,0.9-0.5,1.4c-0.7,2.3-0.1,3.8,1.8,5.2c3.2,2.2,7.2,2.1,10.2-0.3
	c1.6-1.3,2.8-2.8,3.8-4.6c2.1-3.7,3.6-7.6,4.5-11.8c0.5-2.1,0.6-4.3,0.4-6.4c-0.1-0.6-0.1-1.2-0.5-1.5
	C277.9,358.3,276,356,273.9,353.8z M267.4,339.1c-0.6,0-0.8,0.3-0.8,0.7c0.1,1.1,0.5,2,1,2.9c3.6,6.8,8.3,12.7,14.1,17.6
	c0.5,0.5,1.2,0.9,1.8,1.2c0.5,0.3,1,0.7,1.5,0.3c0.6-0.4,0.2-1,0-1.5c-0.4-1.4-1-2.7-1.8-3.9c-2.7-4.7-6.1-9-9.9-12.9
	c-1.3-1.4-2.8-2.7-4.4-3.7C268.5,339.6,268,339.2,267.4,339.1z M265.5,339c0.5-1,1.7-0.7,2.7-1.1c0.1,0,0.1-0.3,0.1-0.4
	c-0.1-1.1-0.8-1.6-1.8-2c-1-0.3-1.7,0-2.3,0.7C263.7,337.1,264.4,338.9,265.5,339z M255.8,327c0.4-0.1,0.7-0.5,0.7-1.1
	c0-0.4-0.3-0.8-0.7-0.7c-0.8,0.1-0.9,0.7-0.9,1.4C254.9,326.9,255.2,327.1,255.8,327z M262.9,321.4c0.2-0.1,0.6-0.1,0.5-0.5
	c-0.1-0.4-0.4-0.5-0.7-0.5c-0.3,0-0.6,0.1-0.6,0.5C262.2,321.3,262.5,321.3,262.9,321.4z"/>
<path d="M753.5,443.5c0,5.9-4.9,10.8-10.9,10.8c-6,0-11-5.1-10.9-11c0.1-5.9,5-10.8,10.9-10.8C748.7,432.5,753.6,437.4,753.5,443.5z
	 M742.8,436.4c-3.8,0-6.9,2.9-7,6.6c-0.1,4.2,2.8,7.3,6.7,7.4c4,0.1,7.2-3,7.2-7C749.7,439.5,746.7,436.4,742.8,436.4z"/>
<path d="M369.1,286.4c-1.6,0-3.4,0-5.2-0.6c-4.1-1.3-6.3-4.3-6-8.7c0.2-2.4,1.1-4.6,2.3-6.8c1.8-3.3,4.1-6.3,6.6-9.1
	c2.5-3,5.1-5.9,7.6-8.9c3.4-4.2,6.3-8.7,7.4-14.1c1.5-7.3-1.5-13.9-8-17.3c-1.4-0.7-2.8-1.2-4.3-1.3c-0.3,0-0.6,0-1-0.1
	c-1-0.1-1.7-0.7-1.6-1.7c0.1-1,0.8-1.5,1.8-1.5c0.7,0,1.5-0.1,2.1,0.1c5.1,1,9.2,3.7,12,8.1c1.3,2.1,1.7,4.6,2.4,7
	c1.5,5.1,0.1,9.8-2,14.3c-1.9,4.1-4.6,7.6-7.6,11c-2.4,2.8-4.8,5.6-7.2,8.4c-2,2.3-3.7,4.8-5.2,7.5c-0.8,1.5-1.4,3-1.6,4.7
	c-0.3,2.4,0.7,4,3,4.8c1.5,0.5,3.1,0.6,4.7,0.5c2.6-0.2,5.3-0.4,7.9-0.6c0.6,0,1.1-0.1,1.7,0c1,0.1,1.7,0.6,1.8,1.6
	c0.1,0.9-0.5,1.7-1.7,2c-0.3,0.1-0.6,0.1-0.9,0.1C375.2,286,372.3,286.2,369.1,286.4z"/>
<path d="M416.2,254.5c0.2,6.9-3.2,11.7-8.4,15.1c-6.1,3.9-11.2,1.3-12.1-5.9c-0.3-2.5,0.2-4.7,1.4-6.9c0.3-0.6,0.9-1.2,0.7-2
	c-0.4-1.5,0.5-2.2,1.7-2.7c8.5-4,16.8-2.9,24.7,1.6c3,1.7,5.1,4.4,6.8,7.3c0.2,0.3,0.3,0.6,0.4,0.9c0.3,0.8,0.1,1.6-0.6,2.1
	c-0.8,0.6-1.7,0.5-2.4-0.3c-0.6-0.6-1-1.4-1.5-2.2C424.3,257.8,420.8,255.6,416.2,254.5z M408.9,253.3c-0.4,0-1,0.1-1.6,0.2
	c-5.7,1-4.8,0.8-7.4,5.6c-0.9,1.8-0.9,3.7-0.3,5.6c0.8,2.8,2.2,3.5,4.8,2.4c4.3-1.8,6.5-5.3,7.9-9.4c0.5-1.4-0.2-2.7-0.9-3.9
	C411,253.1,409.8,253.4,408.9,253.3z"/>
<path d="M378,304.9c-7.2-0.1-12.5-3.2-17-7.7c-0.3-0.3-0.6-0.8-0.7-1.2c-0.2-0.7-0.1-1.3,0.5-1.7c0.6-0.5,1.2-0.5,1.8-0.1
	c0.5,0.3,0.8,0.7,1.2,1.1c2.8,2.5,5.8,4.5,9.5,5.4c5.5,1.3,10.6-0.1,15.3-3c0.8-0.5,1.3-1.1,1.9-1.8c0.3-0.4,0.6-0.8,0.9-1.1
	c0.7-0.7,1.5-0.9,2.4-0.3c0.8,0.6,0.9,1.5,0.5,2.4c-0.9,1.7-2.1,3-3.7,4c-2.9,1.9-6.1,3.1-9.5,3.7
	C379.9,304.7,378.7,304.8,378,304.9z"/>
<path d="M456.8,304c-1,0-1.7-0.3-2-1.4c-0.2-1,0.3-1.7,1.6-2c2.4-0.5,4.9-0.8,7.3-1.3c2-0.3,4.1-0.7,6.2-1c0.5-0.1,1.1-0.1,1.7-0.1
	c0.9,0.1,1.5,0.5,1.7,1.4c0.2,1-0.3,1.7-1.3,2c-0.4,0.2-0.9,0.3-1.4,0.3c-4.4,0.6-8.7,1.2-13.1,1.8
	C457.3,303.9,457.1,303.9,456.8,304z"/>
</svg>
