<?xml version="1.0" encoding="UTF-8"?>
<svg id="Art" xmlns="http://www.w3.org/2000/svg" version="1.1" xmlns:xlink="http://www.w3.org/1999/xlink" viewBox="0 0 2492.7429565 3700">
  <!-- Generator: Adobe Illustrator 30.0.0, SVG Export Plug-In . SVG Version: 2.1.1 Build 123)  -->
  <defs>
    <linearGradient id="linear-gradient" x1="1246.6331841" y1="1863.4623183" x2="1273.5593926" y2="-628.3208009" gradientUnits="userSpaceOnUse">
      <stop offset="0" stop-color="#cff500"/>
      <stop offset=".0864116" stop-color="#cff405"/>
      <stop offset=".1907088" stop-color="#d2f413"/>
      <stop offset=".3042576" stop-color="#d6f42c"/>
      <stop offset=".4244538" stop-color="#dcf44e"/>
      <stop offset=".5499072" stop-color="#e3f37a"/>
      <stop offset=".6797011" stop-color="#edf2b0"/>
      <stop offset=".8107629" stop-color="#f7f2ee"/>
      <stop offset=".8260671" stop-color="#f9f2f6"/>
    </linearGradient>
    <clipPath id="clippath">
      <rect width="2492.7429565" height="3700" fill="none"/>
    </clipPath>
    <linearGradient id="linear-gradient1" x1="-629.3246038" y1="2042.9429233" x2="2347.3146845" y2="2042.9429233" gradientUnits="userSpaceOnUse">
      <stop offset="0" stop-color="#f9f2f6"/>
      <stop offset=".069527" stop-color="#f9ddf7"/>
      <stop offset=".2121981" stop-color="#fca7fb"/>
      <stop offset=".3291324" stop-color="#fe77ff"/>
      <stop offset="1" stop-color="#a66cff"/>
    </linearGradient>
    <linearGradient id="linear-gradient2" x1="-649.3246038" y1="1892.9429233" x2="2327.3147737" y2="1892.9429233" gradientUnits="userSpaceOnUse">
      <stop offset="0" stop-color="#000"/>
      <stop offset=".0178403" stop-color="#06010e"/>
      <stop offset=".0837035" stop-color="#1d0740"/>
      <stop offset=".1545672" stop-color="#320c6d"/>
      <stop offset=".2288765" stop-color="#451194"/>
      <stop offset=".3074" stop-color="#5415b5"/>
      <stop offset=".3914654" stop-color="#6018cf"/>
      <stop offset=".4830742" stop-color="#6a1ae4"/>
      <stop offset=".5861367" stop-color="#701cf2"/>
      <stop offset=".7099748" stop-color="#741dfb"/>
      <stop offset=".9107442" stop-color="#761efe"/>
    </linearGradient>
    <linearGradient id="linear-gradient3" x1="1416.9357425" y1="997.3736353" x2="1867.8890217" y2="997.3736353" gradientUnits="userSpaceOnUse">
      <stop offset=".0620928" stop-color="#f9f2f6"/>
      <stop offset=".7197706" stop-color="#4cee99"/>
    </linearGradient>
    <linearGradient id="linear-gradient4" x1="844.8293097" y1="882.5599868" x2="1366.3832635" y2="882.5599868" gradientUnits="userSpaceOnUse">
      <stop offset=".0522244" stop-color="#f9f2f6"/>
      <stop offset=".7197706" stop-color="#4cee99"/>
    </linearGradient>
    <linearGradient id="linear-gradient5" x1="884.4570206" y1="1818.6938183" x2="1070.8497391" y2="1818.6938183" gradientUnits="userSpaceOnUse">
      <stop offset="0" stop-color="#761efe"/>
      <stop offset=".0122423" stop-color="#731df7"/>
      <stop offset=".1462334" stop-color="#5515b7"/>
      <stop offset=".2782768" stop-color="#3b0f7f"/>
      <stop offset=".4051201" stop-color="#250951"/>
      <stop offset=".5257333" stop-color="#15052e"/>
      <stop offset=".6385841" stop-color="#090214"/>
      <stop offset=".7406599" stop-color="#020005"/>
      <stop offset=".822524" stop-color="#000"/>
    </linearGradient>
    <linearGradient id="linear-gradient6" x1="885.3128858" y1="1950.1915725" x2="1631.6342947" y2="1950.1915725" xlink:href="#linear-gradient1"/>
    <linearGradient id="linear-gradient7" x1="516.6788779" y1="2014.3497266" x2="889.3703827" y2="2014.3497266" gradientUnits="userSpaceOnUse">
      <stop offset="0" stop-color="#a66cff"/>
      <stop offset=".0437039" stop-color="#ad84d0"/>
      <stop offset=".09208" stop-color="#b49ca5"/>
      <stop offset=".145663" stop-color="#bab17d"/>
      <stop offset=".2033572" stop-color="#c0c35b"/>
      <stop offset=".2662866" stop-color="#c4d33e"/>
      <stop offset=".3362445" stop-color="#c8df27"/>
      <stop offset=".4161629" stop-color="#cbe915"/>
      <stop offset=".5121676" stop-color="#cdef09"/>
      <stop offset=".6405196" stop-color="#cef302"/>
      <stop offset=".9357436" stop-color="#cff500"/>
    </linearGradient>
    <linearGradient id="linear-gradient8" x1="520.8054011" y1="2078.7462136" x2="909.368007" y2="2078.7462136" xlink:href="#linear-gradient5"/>
    <linearGradient id="linear-gradient9" x1="125.374601" y1="1928.5214902" x2="498.0661058" y2="1928.5214902" xlink:href="#linear-gradient7"/>
    <linearGradient id="linear-gradient10" x1="129.5011242" y1="1992.9179771" x2="518.0637301" y2="1992.9179771" xlink:href="#linear-gradient5"/>
    <linearGradient id="linear-gradient11" x1="-245.2517732" y1="1848.6895859" x2="127.4397316" y2="1848.6895859" xlink:href="#linear-gradient7"/>
    <linearGradient id="linear-gradient12" x1="-241.12525" y1="1913.0860729" x2="147.4373559" y2="1913.0860729" xlink:href="#linear-gradient5"/>
    <linearGradient id="linear-gradient13" x1="430.2171417" y1="2514.4806373" x2="1312.8350476" y2="2514.4806373" gradientUnits="userSpaceOnUse">
      <stop offset="0" stop-color="#761efe"/>
      <stop offset=".1892728" stop-color="#a86ffa"/>
      <stop offset=".4775788" stop-color="#f9f2f6"/>
      <stop offset=".7535755" stop-color="#b17efc"/>
      <stop offset=".8887317" stop-color="#924bff"/>
    </linearGradient>
    <linearGradient id="linear-gradient14" x1="430.2153742" y1="2665.7276379" x2="1312.8248629" y2="2665.7276379" xlink:href="#linear-gradient5"/>
    <linearGradient id="linear-gradient15" x1="37.51292" y1="2370.030093" x2="415.671136" y2="2370.030093" xlink:href="#linear-gradient13"/>
    <linearGradient id="linear-gradient16" x1="41.0950321" y1="2439.7964884" x2="433.81056" y2="2439.7964884" xlink:href="#linear-gradient5"/>
    <linearGradient id="linear-gradient17" x1="513.6379951" y1="1594.2540096" x2="886.3294999" y2="1594.2540096" xlink:href="#linear-gradient7"/>
    <linearGradient id="linear-gradient18" x1="517.7645182" y1="1658.6504966" x2="906.3271242" y2="1658.6504966" xlink:href="#linear-gradient5"/>
    <linearGradient id="linear-gradient19" x1="143.146185" y1="1515.4610357" x2="515.8376897" y2="1515.4610357" xlink:href="#linear-gradient7"/>
    <linearGradient id="linear-gradient20" x1="147.2727081" y1="1579.8575226" x2="535.835314" y2="1579.8575226" xlink:href="#linear-gradient5"/>
    <linearGradient id="linear-gradient21" x1="975.9904862" y1="1313.2302365" x2="1767.8253882" y2="1313.2302365" xlink:href="#linear-gradient13"/>
    <linearGradient id="linear-gradient22" x1="977.2225922" y1="1427.6714966" x2="1769.3784416" y2="1427.6714966" gradientUnits="userSpaceOnUse">
      <stop offset="0" stop-color="#761efe"/>
      <stop offset=".0201974" stop-color="#6d1bea"/>
      <stop offset=".0773922" stop-color="#5615ba"/>
      <stop offset=".139138" stop-color="#41108d"/>
      <stop offset=".2041062" stop-color="#300c67"/>
      <stop offset=".2730827" stop-color="#210847"/>
      <stop offset=".3472772" stop-color="#15052d"/>
      <stop offset=".4286182" stop-color="#0b0219"/>
      <stop offset=".5208197" stop-color="#05010a"/>
      <stop offset=".6331482" stop-color="#010002"/>
      <stop offset=".822524" stop-color="#000"/>
    </linearGradient>
    <linearGradient id="linear-gradient23" x1="-243.1885116" y1="1428.3857332" x2="129.5029931" y2="1428.3857332" xlink:href="#linear-gradient7"/>
    <linearGradient id="linear-gradient24" x1="-239.0619885" y1="1492.7822202" x2="149.5006174" y2="1492.7822202" xlink:href="#linear-gradient5"/>
    <linearGradient id="linear-gradient25" x1="583.301295" y1="1195.2592604" x2="955.9927998" y2="1195.2592604" gradientUnits="userSpaceOnUse">
      <stop offset="0" stop-color="#a66cff"/>
      <stop offset=".0551411" stop-color="#ab7edc"/>
      <stop offset=".147884" stop-color="#b399a9"/>
      <stop offset=".2449546" stop-color="#bbb27c"/>
      <stop offset=".3444419" stop-color="#c1c655"/>
      <stop offset=".4469368" stop-color="#c6d736"/>
      <stop offset=".5534396" stop-color="#cae41e"/>
      <stop offset=".6656075" stop-color="#cced0d"/>
      <stop offset=".7872168" stop-color="#cef303"/>
      <stop offset=".9357436" stop-color="#cff500"/>
    </linearGradient>
    <linearGradient id="linear-gradient26" x1="587.4278182" y1="1259.6557473" x2="975.9904241" y2="1259.6557473" xlink:href="#linear-gradient5"/>
    <linearGradient id="linear-gradient27" x1="202.0312129" y1="1103.8967214" x2="574.7227176" y2="1103.8967214" xlink:href="#linear-gradient7"/>
    <linearGradient id="linear-gradient28" x1="206.157736" y1="1168.2932084" x2="594.7203419" y2="1168.2932084" xlink:href="#linear-gradient5"/>
    <linearGradient id="linear-gradient29" x1="-185.5313931" y1="1016.816511" x2="187.1601117" y2="1016.816511" gradientUnits="userSpaceOnUse">
      <stop offset="0" stop-color="#a66cff"/>
      <stop offset=".025253" stop-color="#a977e9"/>
      <stop offset=".0895859" stop-color="#b191b9"/>
      <stop offset=".1590992" stop-color="#b8a98d"/>
      <stop offset=".2322962" stop-color="#bebd67"/>
      <stop offset=".3100788" stop-color="#c3ce47"/>
      <stop offset=".3938479" stop-color="#c7dc2c"/>
      <stop offset=".4858325" stop-color="#cae718"/>
      <stop offset=".5903279" stop-color="#cdef0a"/>
      <stop offset=".7180773" stop-color="#cef302"/>
      <stop offset=".9357436" stop-color="#cff500"/>
    </linearGradient>
    <linearGradient id="linear-gradient30" x1="-181.4048699" y1="1081.212998" x2="207.157736" y2="1081.212998" xlink:href="#linear-gradient5"/>
    <linearGradient id="linear-gradient31" x1="885.9454157" y1="2050.8504385" x2="1630.6088848" y2="2050.8504385" xlink:href="#linear-gradient5"/>
    <linearGradient id="linear-gradient32" x1="1417.8354304" y1="1059.3586592" x2="1872.8877058" y2="1059.3586592" gradientUnits="userSpaceOnUse">
      <stop offset="0" stop-color="#761efe"/>
      <stop offset=".0122423" stop-color="#731df7"/>
      <stop offset=".1462334" stop-color="#5515b7"/>
      <stop offset=".2782768" stop-color="#3b0f7f"/>
      <stop offset=".4051201" stop-color="#250951"/>
      <stop offset=".5257333" stop-color="#15052e"/>
      <stop offset=".6385841" stop-color="#090214"/>
      <stop offset=".7406599" stop-color="#020005"/>
      <stop offset=".822524" stop-color="#000"/>
    </linearGradient>
    <linearGradient id="linear-gradient33" x1="844.8254206" y1="962.9811477" x2="1367.3854792" y2="962.9811477" gradientUnits="userSpaceOnUse">
      <stop offset="0" stop-color="#761efe"/>
      <stop offset=".0122423" stop-color="#731df7"/>
      <stop offset=".1462334" stop-color="#5515b7"/>
      <stop offset=".2782768" stop-color="#3b0f7f"/>
      <stop offset=".4051201" stop-color="#250951"/>
      <stop offset=".5257333" stop-color="#15052e"/>
      <stop offset=".6385841" stop-color="#090214"/>
      <stop offset=".7406599" stop-color="#020005"/>
      <stop offset=".822524" stop-color="#000"/>
    </linearGradient>
    <linearGradient id="linear-gradient34" x1="327.6192951" y1="786.519989" x2="849.173267" y2="786.519989" gradientUnits="userSpaceOnUse">
      <stop offset=".0535481" stop-color="#f9f2f6"/>
      <stop offset=".7197706" stop-color="#4cee99"/>
    </linearGradient>
    <linearGradient id="linear-gradient35" x1="327.6132846" y1="866.9429198" x2="850.1733432" y2="866.9429198" gradientUnits="userSpaceOnUse">
      <stop offset="0" stop-color="#761efe"/>
      <stop offset=".0565731" stop-color="#671adf"/>
      <stop offset=".1753679" stop-color="#4c13a5"/>
      <stop offset=".2941469" stop-color="#350d72"/>
      <stop offset=".4101395" stop-color="#220849"/>
      <stop offset=".5227189" stop-color="#130429"/>
      <stop offset=".6309382" stop-color="#080212"/>
      <stop offset=".7330108" stop-color="#020004"/>
      <stop offset=".822524" stop-color="#000"/>
    </linearGradient>
    <linearGradient id="linear-gradient36" x1="-181.4009808" y1="690.5869762" x2="340.152973" y2="690.5869762" gradientUnits="userSpaceOnUse">
      <stop offset=".0391611" stop-color="#f9f2f6"/>
      <stop offset=".7197706" stop-color="#4cee99"/>
    </linearGradient>
    <linearGradient id="linear-gradient37" x1="-181.4048699" y1="771.0081371" x2="341.1551887" y2="771.0081371" xlink:href="#linear-gradient5"/>
  </defs>
  <g id="Background">
    <rect x=".8143593" width="2491.9285972" height="3700" fill="url(#linear-gradient)"/>
  </g>
  <g id="Graphic">
    <g clip-path="url(#clippath)">
      <g>
        <path d="M2347.0854304,953.9099731l-600.0617782,3002.6552442-699.6481827-48.5251783-1915.8300781-275.4748217,219.1300049-738.7851881,1957.6400146,631.5c97.4599609,31.4399414,201.7900391-23.0600586,231.6599121-121.0200195l807.1101074-2450.3500366Z"/>
        <path d="M2340.3097956,894.7731934l-14.5634766-123.7650757-21.5354004,55.847229c-27.3647461-32.6052246-66.2421875-56.0154419-112.1955566-63.1453857L-140.9746282,401.7000122l-488.3499756,2642.0800171,1957.6400146,631.5c97.4599609,31.4399414,201.7900391-23.0600586,231.6599121-121.0200195l777.4101562-2549.710022,1.8898926-6.1900024c4.5200195-14.8200073,7.0700684-29.7199707,7.8100586-44.4500122.0300293-.3800049.0400391-.75.0500488-1.1300049.8850098-19.8995361-1.5263672-39.4511108-6.8256836-58.0067749Z" fill="url(#linear-gradient1)"/>
        <path d="M2327.1354792,802.7799683c-.0100098.3800049-.0200195.75-.0500488,1.1300049-.7399902,14.7300415-3.2900391,29.6300049-7.8100586,44.4500122l-1.8898926,6.1900024-777.4101562,2549.710022c-29.869873,97.9599609-134.1999512,152.4599609-231.6599121,121.0200195l-1957.6400146-631.5L-160.9746282,251.7000122l2332.9899902,362.0099487c94.5500488,14.6700439,159.1599121,98.25,155.1201172,189.0700073Z" fill="url(#linear-gradient2)"/>
        <path d="M1864.5954401,967.9699707l-50.4500732,135.5c-9.8599854,26.460022-38.7999268,43.8200073-64.6400146,38.7900391l-300.3099365-58.4700317c-16.8099365-3.2700195-28.1800537-15.2299805-31.3599854-30.460022-1.6999512-8.1899414-1.0400391-17.3099976,2.3999023-26.5499878l50.460083-135.5c9.8499756-26.4599609,38.789917-43.8299561,64.6400146-38.789978l300.3000488,58.460022c18.329834,3.5799561,30.1799316,17.4400024,32,34.6399536.7600098,7.0599976-.170166,14.6799927-3.0400391,22.3800049Z" fill="url(#linear-gradient3)"/>
        <path d="M1365.6054499,851.8299561c-.5200195,2.7200317-1.3300781,5.4700317-2.4200439,8.2200317l-53.6300049,134.8800049c-10.4699707,26.3399658-43.5,42.9099731-73.7900391,37.0100098l-351.8699951-68.5100098c-22.2698975-4.3300171-36.8499756-19.6199951-38.8299561-37.8800049-.7199707-6.5599976.1899414-13.5100098,2.9599609-20.4799805l53.6199951-134.8800049c10.4700928-26.3400269,43.5100098-42.9100342,73.7900391-37.0100098l351.8699951,68.5100098c18.9499512,3.6900024,32.3300781,15.2999878,37.1300049,29.9299927,2.0699463,6.2999878,2.539917,13.1699829,1.1700439,20.2099609Z" fill="url(#linear-gradient4)"/>
        <path d="M884.499273,1768.0398105s-.7148193,18.0794779,3.7358318,37.2111058c4.74719,20.4063341,22.9115601,32.7084396,43.3102865,37.4882142l127.5652174,26.6086957,11.7391304-40.4877297-186.3504661-60.8202859Z" fill="url(#linear-gradient5)"/>
        <path d="M1630.4953425,1670.9599609c-.6298828,2.9799805-1.5300293,5.9699707-2.7099609,8.9699707l-70.5899658,179.2800293c-.9000244,2.2900391-1.9500732,4.5300293-3.1300049,6.7099609l-182.4599609,471c-14.1201172,36.460083-52.8901367,56.7900391-89.7199707,47.0400391l-340.6900635-90.1699219c-32.6400146-8.630127-53.4801025-37.8601074-54.2000732-69.8400879-.0599365-2.3699951,0-4.7600098.1700439-7.1599121.5999756-8.5,2.6500244-17.1000977,6.2800293-25.4699707l134.9899902-311.0900879,17.8399658-41.0999756-102.7099609-17.6300049c-32.2299805-5.5400391-53.9399414-25.6700439-57.6799316-49.8500977-1.3400879-8.6899414-.3601074-17.9099121,3.2799072-27.1699219l70.6099854-179.2700195c13.7800293-35.0100098,60.4799805-57.2800293,104.3200684-49.7600098l509.2900391,87.4699707c40.0698242,6.880127,63.8598633,36.3000488,57.1098633,68.0400391Z" fill="url(#linear-gradient6)"/>
        <g>
          <path d="M887.7553522,1947.1799316l-68.9299316,205.5600586c-4.9699707,14.8200684-20.1899414,23.6300049-35.2300415,20.3800049l-243.5599976-52.5899658c-8.4699707-1.8300781-15.2099609-7.0700684-19.2299805-13.9599609,0-.0100098,0-.0200195-.0100098-.0300293-.2700195-.460083-.5300293-.9300537-.7700195-1.4100342-.0299683-.0500488-.0499878-.0899658-.0700073-.1199951-.0099487-.0200195-.0199585-.0400391-.0299683-.0700684-3.5100098-6.9299316-4.3599854-15.2900391-1.6300049-23.4199219l68.9299927-205.5600586c4.9700317-14.8299561,20.1900024-23.6300049,35.2299805-20.3800049l243.5599976,52.5899658c10.4699707,2.2600098,18.3000488,9.75,21.6101074,19.1000977.7399902,2.0599365,1.25,4.2199707,1.5198975,6.4299316.5400391,4.3800049.1199951,8.9599609-1.3900146,13.4799805Z" fill="url(#linear-gradient7)"/>
          <path d="M907.7553522,1997.1799316l-68.9299316,205.5600586c-4.9699707,14.8200684-20.1899414,23.6300049-35.2299805,20.3800049l-243.5600586-52.5899658c-8.5499878-1.8500977-15.3300171-7.1800537-19.3399658-14.1600342l-4.0200195-.5899658c-3-23.7199707-12.8300171-43.5400391-15.8699951-49.2099609,4.0200195,6.8898926,10.7600098,12.1298828,19.2299805,13.9599609l243.5599976,52.5899658c15.0401001,3.25,30.2600708-5.5599365,35.2300415-20.3800049l68.9299316-205.5600586c1.5100098-4.5200195,1.9300537-9.0999756,1.3900146-13.4799805,4.1099854,16.1700439,9.3900146,27.5200195,13.0999756,34.1999512,6.5400391,7.7200928,9.0600586,18.6900635,5.5100098,29.2800293Z" fill="url(#linear-gradient8)"/>
        </g>
        <g>
          <path d="M496.4510753,1861.3516952l-68.9299316,205.5600586c-4.9699707,14.8200684-20.1899414,23.6300049-35.2300415,20.3800049l-243.5599976-52.5899658c-8.4699707-1.8300781-15.2099609-7.0700684-19.2299805-13.9599609,0-.0100098,0-.0200195-.0100098-.0300293-.2700195-.460083-.5300293-.9300537-.7700195-1.4100342-.0299683-.0500488-.0499878-.0899658-.0700073-.1199951-.0099487-.0200195-.0199585-.0400391-.0299683-.0700684-3.5100098-6.9299316-4.3599854-15.2900391-1.6300049-23.4199219l68.9299927-205.5600586c4.9700317-14.8299561,20.1900024-23.6300049,35.2299805-20.3800049l243.5599976,52.5899658c10.4699707,2.2600098,18.3000488,9.75,21.6101074,19.1000977.7399902,2.0599365,1.25,4.2199707,1.5198975,6.4299316.5400391,4.3800049.1199951,8.9599609-1.3900146,13.4799805Z" fill="url(#linear-gradient9)"/>
          <path d="M516.4510753,1911.3516952l-68.9299316,205.5600586c-4.9699707,14.8200684-20.1899414,23.6300049-35.2299805,20.3800049l-243.5600586-52.5899658c-8.5499878-1.8500977-15.3300171-7.1800537-19.3399658-14.1600342l-4.0200195-.5899658c-3-23.7199707-12.8300171-43.5400391-15.8699951-49.2099609,4.0200195,6.8898926,10.7600098,12.1298828,19.2299805,13.9599609l243.5599976,52.5899658c15.0401001,3.25,30.2600708-5.5599365,35.2300415-20.3800049l68.9299316-205.5600586c1.5100098-4.5200195,1.9300537-9.0999756,1.3900146-13.4799805,4.1099854,16.1700439,9.3900146,27.5200195,13.0999756,34.1999512,6.5400391,7.7200928,9.0600586,18.6900635,5.5100098,29.2800293Z" fill="url(#linear-gradient10)"/>
        </g>
        <g>
          <path d="M125.8247011,1781.5197909l-68.9299316,205.5600586c-4.9699707,14.8200684-20.1899414,23.6300049-35.2300415,20.3800049l-243.5599976-52.5899658c-8.4699707-1.8300781-15.2099609-7.0700684-19.2299805-13.9599609,0-.0100098,0-.0200195-.0100098-.0300293-.2700195-.460083-.5300293-.9300537-.7700195-1.4100342-.0299683-.0500488-.0499878-.0899658-.0700073-.1199951-.0099487-.0200195-.0199585-.0400391-.0299683-.0700684-3.5100098-6.9299316-4.3599854-15.2900391-1.6300049-23.4199219l68.9299927-205.5600586c4.9700317-14.8299561,20.1900024-23.6300049,35.2299805-20.3800049l243.5599976,52.5899658c10.4699707,2.2600098,18.3000488,9.75,21.6101074,19.1000977.7399902,2.0599365,1.25,4.2199707,1.5198975,6.4299316.5400391,4.3800049.1199951,8.9599609-1.3900146,13.4799805Z" fill="url(#linear-gradient11)"/>
          <path d="M145.8247011,1831.5197909l-68.9299316,205.5600586c-4.9699707,14.8200684-20.1899414,23.6300049-35.2299805,20.3800049l-243.5600586-52.5899658c-8.5499878-1.8500977-15.3300171-7.1800537-19.3399658-14.1600342l-4.0200195-.5899658c-3-23.7199707-12.8300171-43.5400391-15.8699951-49.2099609,4.0200195,6.8898926,10.7600098,12.1298828,19.2299805,13.9599609l243.5599976,52.5899658c15.0401001,3.25,30.2600708-5.5599365,35.2300415-20.3800049l68.9299316-205.5600586c1.5100098-4.5200195,1.9300537-9.0999756,1.3900146-13.4799805,4.1099854,16.1700439,9.3900146,27.5200195,13.0999756,34.1999512,6.5400391,7.7200928,9.0600586,18.6900635,5.5100098,29.2800293Z" fill="url(#linear-gradient12)"/>
        </g>
        <path d="M1312.3254206,2519.4699707c-.5300293,3.4299316-1.4699707,6.8400879-2.8500977,10.2099609l-72.0100098,175.9401855c-14.0599365,34.3598633-68.2199707,51.2299805-120.9699707,37.6899414l-612.8699341-157.3100586c-39.2300415-10.0700684-66.6400146-34.1401367-72.3200073-59.9499512-1.9500122-8.880127-1.3300171-17.9699707,2.2700195-26.7700195l72.0099487-175.9400635c14.0599976-34.3499756,68.2200317-51.2299805,120.9700317-37.6900635l612.8699951,157.3100586c47.5699463,12.2099609,77.75,45,72.9000244,76.5100098Z" fill="url(#linear-gradient13)"/>
        <path d="M1261.5452465,2522.4855883c-.7245042,4.4299287-2.3255737,8.0873351-4.080232,12.1102945l-7.2903963,16.7149169c-7.4962896,17.1869749-14.9925793,34.3739498-22.4888689,51.5609246-7.0591351,16.1846973-14.1182703,32.3693945-21.1774054,48.5540918-4.08993,9.377109-7.3997808,19.8425483-15.0942356,26.9464509-9.6518907,8.9111047-23.0077355,13.2656607-35.6885574,15.5691456-16.4535585,2.9888066-33.7169213,2.333235-50.0835475-.869779-5.2385506-1.0252052-10.3890873-2.3917174-15.5554111-3.7179295-17.8866984-4.5915733-35.7733968-9.1831467-53.6600952-13.77472-30.9079994-7.9341834-61.8159988-15.8683669-92.7239982-23.8025503-37.7364962-9.6870806-75.4729923-19.3741613-113.2094885-29.0612419-38.403198-9.8582252-76.8063961-19.7164504-115.2095941-29.5746755-32.9080764-8.4476097-65.8161528-16.8952194-98.7242292-25.342829-21.2070638-5.4439219-42.4141277-10.8878438-63.6211915-16.3317657-24.3005202-6.2380222-49.2630564-13.1893301-67.0641402-32.1576104-8.9754113-9.5639186-15.2490688-22.6985787-10.0607689-35.7724918.996143-2.5101647,2.1655702-4.9650705,3.245026-7.4399726,6.2342553-14.2934722,12.4685106-28.5869445,18.702766-42.8804167,12.5195049-28.7038607,24.9639837-57.4417669,37.5589607-86.1126044,8.7765969-19.9787887,32.8714437-27.2370893,52.9054042-29.2448157,17.7125854-1.7750871,35.3801527.1658526,52.5675059,4.5779014,14.4664813,3.7135922,28.9329627,7.4271845,43.399444,11.1407767,28.7295558,7.3749693,57.4591116,14.7499386,86.1886674,22.1249079,36.8309947,9.4546347,73.6619893,18.9092693,110.492984,28.363904,38.7704495,9.952499,77.5408991,19.904998,116.3113486,29.8574969,34.5480039,8.8685836,69.0960077,17.7371672,103.6440116,26.6057508,24.1638392,6.2029352,48.3276783,12.4058703,72.4915175,18.6088055,15.3395375,3.9377086,31.3928808,7.214776,45.8497333,13.7553245,19.2693736,8.7178223,45.312137,26.2800531,42.2140467,50.788989-.7244407,5.7310368,8.2822287,5.6782756,9,0,3.2763705-25.9193074-21.6420708-46.1490889-42.2202859-56.4424114-10.5063611-5.2553325-21.6162347-8.8650461-32.9571854-11.7763046-16.5378233-4.2453124-33.0756465-8.4906247-49.6134698-12.7359371-30.3139073-7.7816774-60.6278146-15.5633548-90.9417219-23.3450322-38.0485038-9.7671732-76.0970076-19.5343464-114.1455115-29.3015196-39.1546504-10.0511246-78.3093009-20.1022492-117.4639513-30.1533737-33.6973652-8.6502219-67.3947303-17.3004438-101.0920955-25.9506657-21.9607658-5.6373991-43.9215316-11.2747983-65.8822974-16.9121974-4.5831984-1.1765218-9.1654526-2.356797-13.7496123-3.5295696-21.1498526-5.4107993-43.3490645-7.0991601-64.912172-3.1701247-19.8756374,3.6215598-41.4062982,12.911502-49.9851632,32.4880994-4.9369831,11.2659812-9.8350709,22.5491747-14.7525666,33.8236711-14.0372815,32.1837144-28.0745629,64.3674288-42.1118444,96.5511432-1.5634009,3.5844582-3.4136868,7.2538356-4.4544953,11.0205455-3.9099311,14.150131,2.0485298,28.1128243,11.1025772,38.8357006,14.9463901,17.7012869,37.8505476,27.9176005,59.8227391,33.5904301,12.7163267,3.2831297,25.4418633,6.5310086,38.1627278,9.7964957,27.885781,7.1583702,55.771562,14.3167404,83.657343,21.4751106,36.9776318,9.4922777,73.9552635,18.9845554,110.9328953,28.4768331,39.4612437,10.1298289,78.9224875,20.2596579,118.3837312,30.3894868,35.3737846,9.080565,70.7475692,18.1611299,106.1213538,27.2416949,25.005765,6.4190608,50.01153,12.8381215,75.017295,19.2571823,15.4213862,3.9587197,30.8824985,8.5461919,46.7244233,10.4212641,27.388082,3.2416914,62.3859197.4382996,83.0432101-20.2372832,7.7307394-7.7375852,11.242496-18.4323356,15.5269678-28.2554765,14.724919-33.7602768,29.449838-67.5205536,44.174757-101.2808304,3.9691619-9.10022,9.8319499-19.1773742,11.4516075-29.0806529.9266454-5.6659063-7.7445157-8.1034051-8.6785113-2.3925565Z" fill="#f9f2f6"/>
        <path d="M1309.4753229,2593.6799316l-72.0100098,175.9401855c-14.0599365,34.3598633-68.2199707,51.2299805-120.9699707,37.6899414l-612.8699341-157.3100586c-48.0800171-12.3400879-78.3900146-45.6999512-72.7200317-77.5300293l-.6900024-.3400879c2.6100464-19.0097656,1.1799927-44.6599121,1.0900269-46.079834,5.6799927,25.8098145,33.0899658,49.8798828,72.3200073,59.9499512l612.8699341,157.3100586c52.75,13.5400391,106.9100342-3.3300781,120.9699707-37.6899414l72.0100098-175.9401855c1.380127-3.369873,2.3200684-6.7800293,2.8500977-10.2099609v50.670166c1.1699219,7.8498535.3100586,15.8098145-2.8500977,23.5397949Z" fill="url(#linear-gradient14)"/>
        <g>
          <path d="M413.6748002,2309.7203883l-76.4656864,202.8774802c-5.5132686,14.6266505-21.0478603,22.8691591-35.9578388,19.0665742l-241.454303-61.5385772c-8.3966985-2.1412716-14.9388096-7.6263192-18.7019399-14.6598125.0003692-.010003.0007385-.0200059-.0088952-.0303781-.2528643-.4697303-.4953609-.9489724-.7174823-1.4374789-.0281017-.0511202-.0466351-.0917485-.0655333-.1224959-.0092035-.0203729-.018468-.040748-.0273632-.0711261-3.2519906-7.0546919-3.7930014-15.4404633-.7649851-23.4641099l76.4657474-202.877478c5.5136943-14.6365292,21.0479213-22.8691569,35.9577778-19.0665764l241.454303,61.5385772c10.3794781,2.6446863,17.9279375,10.4184136,20.8908384,19.8842487.6635,2.0858312,1.0934836,4.2632084,1.2816767,6.4816212.3781026,4.3969448-.2106002,8.9582893-1.8863161,13.4195315Z" fill="url(#linear-gradient15)"/>
          <path d="M367.6740372,2321.9545072c-2.6390446,7.001869-5.2780892,14.0037379-7.9171338,21.0056069l-17.9461563,47.6144416c-6.5166609,17.2898956-13.0333217,34.5797912-19.5499826,51.8696868-4.2427915,11.2569035-8.4855831,22.5138071-12.7283746,33.7707106-.3752518.9956117-.7491861,1.9917318-1.125759,2.9868449-.0565679.1494836-.1146286.2985799-.169164.448823-.0476215.1311958-.2493103.6417179-.1535932.3971137.341031-.8715017-.1834936.3891151-.2185607.4623079-.3572512.7456617-.7527039,1.4730117-1.1846081,2.1780686-.2135611.3486253-.4360082.6918064-.6670772,1.0290825-.0514399.0750833-.8470222,1.1563225-.2586057.3966752-.5738582.7408525-1.2076794,1.4404018-1.8701196,2.1026277-.5658122.5656291-1.1654872,1.0873284-1.7743203,1.6053151-.9756838.8300982.7155303-.4444323-.3511662.2608748-.3305834.218584-.6504515.4519309-.9843721.6660043-.5548482.3557082-1.1243764.6885934-1.7066403.9973913-.3493116.185254-.7088309.3484074-1.0601616.5290389-.4754433.2118183-.4786968.2191465-.0097608.0219846-.2436601.0996933-.4889094.1953107-.7357478.2868521-1.4887019.5520534-3.0232517.9374283-4.5890432,1.1935002,1.0643514-.1740656-.2354569.0154561-.3849129.0281243-.3985049.033778-.7978834.0572508-1.197604.0703246-.9461963.0309474-1.8772641-.0361738-2.820695-.0804454-1.311024-.0615213.8754091.1908-.4240556-.0431944-.4062876-.0731601-.811903-.1426838-1.2154861-.2303827-.2768656-.0601631-.5432777-.1255207-.8183589-.1933995-.0513371-.0126679-.1024125-.0263983-.1537218-.0391785-.2566033-.0639151-.512547-.130631-.7687978-.1959407-8.7662948-2.2342336-17.5325897-4.4684672-26.2988845-6.7027007-16.4739425-4.1986536-32.947885-8.3973072-49.4218276-12.5959609-18.2491481-4.6510938-36.4982962-9.3021876-54.7474442-13.9532814-14.2145409-3.6228082-28.4290819-7.2456164-42.6436228-10.8684246l-11.33864-2.8898378c-.7194579-.1833656-1.4396437-.3641047-2.1584247-.5501098-.0450313-.0116531-.0902481-.022616-.1352283-.0344651-.3018532-.0795172-.590892-.1564341-.8901136-.2452649-.4330175-.1285512-.8623382-.2695627-1.2871364-.4231149-.2802624-.1012841-.5584528-.2079704-.8345713-.3200591.3942284.1633581.3473592.1362051-.1406075-.081459-.6509712-.3304947-1.2986712-.6558981-1.9257907-1.0319623-.3709705-.2224596-.735558-.4555595-1.0931565-.6989332-.0384215-.0261488-1.171988-.8644146-.4712593-.3158173-.6701136-.5246288-1.3034576-1.1020714-1.904558-1.7039982-.2996943-.3001063-.5909932-.608593-.8735169-.9249159-.1060057-.1186875-1.1318389-1.4061522-.6308157-.729633-.5030686-.6792811-.8941956-1.440397-1.3932262-2.1164192l-.2094227-.3670538c.3875614,1.0417433.3176637.9102448-.2096931-.3944955-.1276752-.2701848-.3446058-.9194542-.557706-1.1173663l.3814282.9244536c-.2086644-.5162751-.428463-1.0277078-.6593957-1.5342981.2443014.6349132-.3085129-.921237-.2701205-.8069188-.3775976-1.1243438-.6576885-2.2726127-.8711616-3.4386046-.5550121-3.0314805-.0284304-6.7099719,1.2069992-10.0690281.2014741-.5477955.4117738-1.0925105.6176243-1.6386692,1.3745342-3.6468883,2.7490685-7.2937766,4.1236027-10.9406649,5.4593103-14.4845391,10.9186206-28.9690782,16.377931-43.4536174,6.6442124-17.628299,13.2884248-35.256598,19.9326373-52.884897,5.0403848-13.3730539,10.0807696-26.7461077,15.1211544-40.1191616,1.039192-2.7571645,2.0738587-5.5160846,3.1175913-8.2715345.0488872-.1290621.0990375-.2578144.1460766-.3875676.4644332-1.2811002-.3916607.738751.1941061-.4798003.1805975-.3756909.3562118-.7523622.5491508-1.1220773.380692-.7294924.7986879-1.4395066,1.2520516-2.126203.2245374-.3401.4601365-.6715774.6986859-1.0018959-.5573565.7717697.2343034-.2831367.2985595-.3591394.604288-.7147577,1.250439-1.3940934,1.9340151-2.03344.2912052-.2723633.589195-.5374724.8935961-.7950034.0858462-.072628,1.1276666-.8559637.3360346-.2822964.6421054-.4653107,1.2969292-.9090033,1.9785589-1.3148104.5659084-.3369126,1.1459105-.6500146,1.7374247-.9395815.1099536-.0538261,1.3062268-.5822071.3659666-.1921409.4860712-.2016462.9816395-.3825005,1.4808325-.5487941.7504204-.2499837,1.5133826-.4623373,2.2851489-.6355646.3873811-.0869499.7782553-.1507598,1.1667633-.2309348,1.2646238-.2609756-.9109638.0416103.3797558-.0545996.8001657-.0596442,1.5941079-.1210991,2.3975103-.1192858.403291.0009103.8065572.0123926,1.2092457.0344513.1826384.0100046,1.8670962.179735.8273878.039927,2.3698813.3186744,4.7393101,1.072096,7.0513961,1.6613689,4.5016468,1.1473183,9.0032937,2.2946366,13.5049405,3.4419549,15.1131114,3.8518236,30.2262229,7.7036471,45.3393343,11.5554707,18.4381457,4.6992629,36.8762913,9.3985258,55.314437,14.0977887,15.7079419,4.0034258,31.4158838,8.0068517,47.1238258,12.0102775,7.2229182,1.8408788,14.4585155,3.638432,21.6702014,5.5230052.0360658.0094248.0723195.0181359.1083698.0276198.5610196.1475905,1.1177446.3066762,1.6678352.4913453.4055206.136136.8076841.2830064,1.2047974.4420489-.8617139-.3451134.4034397.1974914.4700082.2299511.6243487.3044416,1.2347648.6375575,1.8285035.9980731.352777.2142047.699685.4380717,1.0402056.6712691.0704206.0482258,1.1512161.8576391.4073428.2710369,1.2792782,1.0088108,2.4082636,2.1734097,3.455257,3.4175625.8317575.9883858-.4280868-.7098004.2723536.3744912.2187907.338691.4561566.6646289.6713834,1.0060927.4301177.6823947.8246445,1.3872027,1.1817429,2.1104857.0466651.0945176.5966781,1.3109557.2110845.3973461.1571955.3724525.2979228.7532536.4319002,1.1345793.3158734.899037.5811598,1.8162723.7868921,2.746789.7902083,3.5740716.3712812,7.3189028-1.0013474,11.099555-.8046155,2.2161649.9028569,5.025306,3.1429774,5.5355339,2.5362412.5776747,4.6740648-.7702198,5.5355339-3.1429774,2.9842188-8.2194796,1.9860571-17.8254539-2.9592903-25.098384-3.8083897-5.6008506-9.4138203-9.644778-15.9801396-11.3698129-2.0054855-.5268602-4.0191685-1.0243508-6.0284538-1.53645-12.1982227-3.1089165-24.3964454-6.217833-36.5946682-9.3267495-17.9134116-4.5655259-35.8268233-9.1310517-53.7402349-13.6965776-17.7187602-4.5159158-35.4375204-9.0318315-53.1562805-13.5477473-11.2976117-2.8793811-22.5952235-5.7587622-33.8928352-8.6381432-3.1476795-.8022376-6.2237667-1.6644774-9.4903446-1.9010316-7.4445831-.5391109-14.8399703,2.2829628-20.4072647,7.1536761-3.659861,3.2019384-6.2042977,7.343535-7.9175403,11.8540992-3.1337354,8.2503869-6.2253656,16.5170226-9.3379931,24.7753871-6.2673505,16.628416-12.5347009,33.256832-18.8020514,49.885248-6.4523391,17.1192243-12.9046782,34.2384486-19.3570172,51.3576729-3.7756575,10.0175032-7.551315,20.0350064-11.3269725,30.0525097-.2412492.6400777-.4914364,1.2779163-.7184981,1.9232669-1.6191722,4.6019808-1.8480921,9.5514784-1.0163128,14.3312543.3948909,2.2692197,1.2550602,4.2529366,2.0485572,6.3954393-.8180472-2.2087899,1.0886674,3.1064801.3889502.6758661.3299243,1.146061,1.0991591,2.2626632,1.7689577,3.240858,3.8185979,5.5767992,9.4052073,9.5872258,15.9571005,11.3090278.6185342.1625474,1.2396277.3159394,1.8593469.473885,9.8939665,2.5216391,19.787933,5.0432783,29.6818994,7.5649174,17.0773666,4.3524461,34.1547331,8.7048922,51.2320997,13.0573383,18.3425238,4.6748921,36.6850476,9.3497842,55.0275714,14.0246764,13.3749464,3.4088238,26.7498929,6.8176476,40.1248393,10.2264714,2.9841153.7605506,5.9682306,1.5211011,8.9523458,2.2816517,9.6409098,2.4571435,19.6755893.1764701,27.0057426-6.6791531,4.1664852-3.8967606,6.3899643-8.8326973,8.3457041-14.0216336l4.8801584-12.9479548c5.7789255-15.3325486,11.5578511-30.6650972,17.3367766-45.9976458,6.6663747-17.6871139,13.3327494-35.3742278,19.9991241-53.0613416,4.6943071-12.4548571,9.3886142-24.9097143,14.0829214-37.3645714.6779339-1.7986829,1.3558678-3.5973658,2.0338017-5.3960487.8318464-2.207041-.9226164-5.0298066-3.1429774-5.5355339-2.5603652-.5831694-4.6448785.7799052-5.5355339,3.1429774Z" fill="#f9f2f6"/>
          <path d="M431.8167961,2360.4241158l-76.4656864,202.8774802c-5.5132686,14.6266505-21.0478603,22.8691591-35.9577778,19.0665764l-241.454364-61.5385795c-8.4759227-2.1642291-15.054727-7.7406583-18.8044701-14.8638067l-3.995521-.7378542c-2.1229796-23.8144907-11.2151869-43.9836779-14.0439448-49.7618791,3.7631303,7.0334933,10.3052414,12.5185409,18.7019399,14.6598125l241.454303,61.5385772c14.9099785,3.802585,30.4445702-4.4399237,35.9578388-19.0665742l76.4656864-202.8774802c1.6757159-4.4612423,2.2644186-9.0225867,1.8863161-13.4195315,3.5107101,16.3106473,8.3684697,27.8476671,11.8294974,34.659905,6.2508104,7.9560865,8.3644563,19.0115493,4.4261825,29.463354Z" fill="url(#linear-gradient16)"/>
        </g>
        <g>
          <path d="M884.7144694,1527.0842146l-68.9299316,205.5600586c-4.9699707,14.8200684-20.1899414,23.6300049-35.2300415,20.3800049l-243.5599976-52.5899658c-8.4699707-1.8300781-15.2099609-7.0700684-19.2299805-13.9599609,0-.0100098,0-.0200195-.0100098-.0300293-.2700195-.460083-.5300293-.9300537-.7700195-1.4100342-.0299683-.0500488-.0499878-.0899658-.0700073-.1199951-.0099487-.0200195-.0199585-.0400391-.0299683-.0700684-3.5100098-6.9299316-4.3599854-15.2900391-1.6300049-23.4199219l68.9299927-205.5600586c4.9700317-14.8299561,20.1900024-23.6300049,35.2299805-20.3800049l243.5599976,52.5899658c10.4699707,2.2600098,18.3000488,9.75,21.6101074,19.1000977.7399902,2.0599365,1.25,4.2199707,1.5198975,6.4299316.5400391,4.3800049.1199951,8.9599609-1.3900146,13.4799805Z" fill="url(#linear-gradient17)"/>
          <path d="M904.7144694,1577.0842146l-68.9299316,205.5600586c-4.9699707,14.8200684-20.1899414,23.6300049-35.2299805,20.3800049l-243.5600586-52.5899658c-8.5499878-1.8500977-15.3300171-7.1800537-19.3399658-14.1600342l-4.0200195-.5899658c-3-23.7199707-12.8300171-43.5400391-15.8699951-49.2099609,4.0200195,6.8898926,10.7600098,12.1298828,19.2299805,13.9599609l243.5599976,52.5899658c15.0401001,3.25,30.2600708-5.5599365,35.2300415-20.3800049l68.9299316-205.5600586c1.5100098-4.5200195,1.9300537-9.0999756,1.3900146-13.4799805,4.1099854,16.1700439,9.3900146,27.5200195,13.0999756,34.1999512,6.5400391,7.7200928,9.0600586,18.6900635,5.5100098,29.2800293Z" fill="url(#linear-gradient18)"/>
        </g>
        <g>
          <path d="M514.2226593,1448.2912407l-68.9299316,205.5600586c-4.9699707,14.8200684-20.1899414,23.6300049-35.2300415,20.3800049l-243.5599976-52.5899658c-8.4699707-1.8300781-15.2099609-7.0700684-19.2299805-13.9599609,0-.0100098,0-.0200195-.0100098-.0300293-.2700195-.460083-.5300293-.9300537-.7700195-1.4100342-.0299683-.0500488-.0499878-.0899658-.0700073-.1199951-.0099487-.0200195-.0199585-.0400391-.0299683-.0700684-3.5100098-6.9299316-4.3599854-15.2900391-1.6300049-23.4199219l68.9299927-205.5600586c4.9700317-14.8299561,20.1900024-23.6300049,35.2299805-20.3800049l243.5599976,52.5899658c10.4699707,2.2600098,18.3000488,9.75,21.6101074,19.1000977.7399902,2.0599365,1.25,4.2199707,1.5198975,6.4299316.5400391,4.3800049.1199951,8.9599609-1.3900146,13.4799805Z" fill="url(#linear-gradient19)"/>
          <path d="M534.2226593,1498.2912407l-68.9299316,205.5600586c-4.9699707,14.8200684-20.1899414,23.6300049-35.2299805,20.3800049l-243.5600586-52.5899658c-8.5499878-1.8500977-15.3300171-7.1800537-19.3399658-14.1600342l-4.0200195-.5899658c-3-23.7199707-12.8300171-43.5400391-15.8699951-49.2099609,4.0200195,6.8898926,10.7600098,12.1298828,19.2299805,13.9599609l243.5599976,52.5899658c15.0401001,3.25,30.2600708-5.5599365,35.2300415-20.3800049l68.9299316-205.5600586c1.5100098-4.5200195,1.9300537-9.0999756,1.3900146-13.4799805,4.1099854,16.1700439,9.3900146,27.5200195,13.0999756,34.1999512,6.5400391,7.7200928,9.0600586,18.6900635,5.5100098,29.2800293Z" fill="url(#linear-gradient20)"/>
        </g>
        <path d="M1767.5163241,1294.2376528c-.391853,3.0556362-1.1519631,6.1155746-2.3079921,9.1633202l-60.3146514,159.1195529c-11.7762356,31.0747489-59.9571753,48.8402239-107.6150429,39.6886747l-553.7074845-106.3232777c-35.4430446-6.8063155-60.6226855-26.5974184-66.3485611-49.0775277-1.9662352-7.7347337-1.6317679-15.7909891,1.3834744-23.749625l60.3145996-159.1194419c11.7765316-31.0660246,59.9572301-48.8402272,107.6150946-39.6887857l553.7075392,106.3232745c42.9778507,8.2524733,70.8555872,35.5934171,67.2730241,63.6638357Z" fill="url(#linear-gradient21)"/>
        <path d="M1766.7699481,1359.8919582l-60.3146514,159.1195529c-11.7762356,31.0747489-59.9571753,48.8402239-107.6150429,39.6886747l-553.7074845-106.3232777c-43.4386632-8.3402592-71.4468896-36.1772735-67.1364228-64.5737317l-.6273709-.2635621c1.8778998-16.9179168-.0310195-39.4826695-.1463836-40.7312191,5.7258756,22.4801092,30.9055165,42.2712122,66.3485611,49.0775277l553.7074845,106.3232777c47.6578675,9.1515492,95.8388072-8.6139258,107.6150429-39.6886747l60.3146514-159.1195529c1.156029-3.0477456,1.9161391-6.107684,2.3079921-9.1633202l1.2363648,44.7251187c1.2411965,6.8667461.6639491,13.9384176-1.9827408,20.9291867Z" fill="url(#linear-gradient22)"/>
        <g>
          <path d="M127.8879627,1361.2159383l-68.9299316,205.5600586c-4.9699707,14.8200684-20.1899414,23.6300049-35.2300415,20.3800049l-243.5599976-52.5899658c-8.4699707-1.8300781-15.2099609-7.0700684-19.2299805-13.9599609,0-.0100098,0-.0200195-.0100098-.0300293-.2700195-.460083-.5300293-.9300537-.7700195-1.4100342-.0299683-.0500488-.0499878-.0899658-.0700073-.1199951-.0099487-.0200195-.0199585-.0400391-.0299683-.0700684-3.5100098-6.9299316-4.3599854-15.2900391-1.6300049-23.4199219l68.9299927-205.5600586c4.9700317-14.8299561,20.1900024-23.6300049,35.2299805-20.3800049l243.5599976,52.5899658c10.4699707,2.2600098,18.3000488,9.75,21.6101074,19.1000977.7399902,2.0599365,1.25,4.2199707,1.5198975,6.4299316.5400391,4.3800049.1199951,8.9599609-1.3900146,13.4799805Z" fill="url(#linear-gradient23)"/>
          <path d="M147.8879627,1411.2159383l-68.9299316,205.5600586c-4.9699707,14.8200684-20.1899414,23.6300049-35.2299805,20.3800049l-243.5600586-52.5899658c-8.5499878-1.8500977-15.3300171-7.1800537-19.3399658-14.1600342l-4.0200195-.5899658c-3-23.7199707-12.8300171-43.5400391-15.8699951-49.2099609,4.0200195,6.8898926,10.7600098,12.1298828,19.2299805,13.9599609l243.5599976,52.5899658c15.0401001,3.25,30.2600708-5.5599365,35.2300415-20.3800049l68.9299316-205.5600586c1.5100098-4.5200195,1.9300537-9.0999756,1.3900146-13.4799805,4.1099854,16.1700439,9.3900146,27.5200195,13.0999756,34.1999512,6.5400391,7.7200928,9.0600586,18.6900635,5.5100098,29.2800293Z" fill="url(#linear-gradient24)"/>
        </g>
        <g>
          <path d="M954.3777693,1128.0894654l-68.9299316,205.5600586c-4.9699707,14.8200684-20.1899414,23.6300049-35.2300415,20.3800049l-243.5599976-52.5899658c-8.4699707-1.8300781-15.2099609-7.0700684-19.2299805-13.9599609,0-.0100098,0-.0200195-.0100098-.0300293-.2700195-.460083-.5300293-.9300537-.7700195-1.4100342-.0299683-.0500488-.0499878-.0899658-.0700073-.1199951-.0099487-.0200195-.0199585-.0400391-.0299683-.0700684-3.5100098-6.9299316-4.3599854-15.2900391-1.6300049-23.4199219l68.9299927-205.5600586c4.9700317-14.8299561,20.1900024-23.6300049,35.2299805-20.3800049l243.5599976,52.5899658c10.4699707,2.2600098,18.3000488,9.75,21.6101074,19.1000977.7399902,2.0599365,1.25,4.2199707,1.5198975,6.4299316.5400391,4.3800049.1199951,8.9599609-1.3900146,13.4799805Z" fill="url(#linear-gradient25)"/>
          <path d="M974.3777693,1178.0894654l-68.9299316,205.5600586c-4.9699707,14.8200684-20.1899414,23.6300049-35.2299805,20.3800049l-243.5600586-52.5899658c-8.5499878-1.8500977-15.3300171-7.1800537-19.3399658-14.1600342l-4.0200195-.5899658c-3-23.7199707-12.8300171-43.5400391-15.8699951-49.2099609,4.0200195,6.8898926,10.7600098,12.1298828,19.2299805,13.9599609l243.5599976,52.5899658c15.0401001,3.25,30.2600708-5.5599365,35.2300415-20.3800049l68.9299316-205.5600586c1.5100098-4.5200195,1.9300537-9.0999756,1.3900146-13.4799805,4.1099854,16.1700439,9.3900146,27.5200195,13.0999756,34.1999512,6.5400391,7.7200928,9.0600586,18.6900635,5.5100098,29.2800293Z" fill="url(#linear-gradient26)"/>
        </g>
        <g>
          <path d="M573.1076872,1036.7269264l-68.9299316,205.5600586c-4.9699707,14.8200684-20.1899414,23.6300049-35.2300415,20.3800049l-243.5599976-52.5899658c-8.4699707-1.8300781-15.2099609-7.0700684-19.2299805-13.9599609,0-.0100098,0-.0200195-.0100098-.0300293-.2700195-.460083-.5300293-.9300537-.7700195-1.4100342-.0299683-.0500488-.0499878-.0899658-.0700073-.1199951-.0099487-.0200195-.0199585-.0400391-.0299683-.0700684-3.5100098-6.9299316-4.3599854-15.2900391-1.6300049-23.4199219l68.9299927-205.5600586c4.9700317-14.8299561,20.1900024-23.6300049,35.2299805-20.3800049l243.5599976,52.5899658c10.4699707,2.2600098,18.3000488,9.75,21.6101074,19.1000977.7399902,2.0599365,1.25,4.2199707,1.5198975,6.4299316.5400391,4.3800049.1199951,8.9599609-1.3900146,13.4799805Z" fill="url(#linear-gradient27)"/>
          <path d="M593.1076872,1086.7269264l-68.9299316,205.5600586c-4.9699707,14.8200684-20.1899414,23.6300049-35.2299805,20.3800049l-243.5600586-52.5899658c-8.5499878-1.8500977-15.3300171-7.1800537-19.3399658-14.1600342l-4.0200195-.5899658c-3-23.7199707-12.8300171-43.5400391-15.8699951-49.2099609,4.0200195,6.8898926,10.7600098,12.1298828,19.2299805,13.9599609l243.5599976,52.5899658c15.0401001,3.25,30.2600708-5.5599365,35.2300415-20.3800049l68.9299316-205.5600586c1.5100098-4.5200195,1.9300537-9.0999756,1.3900146-13.4799805,4.1099854,16.1700439,9.3900146,27.5200195,13.0999756,34.1999512,6.5400391,7.7200928,9.0600586,18.6900635,5.5100098,29.2800293Z" fill="url(#linear-gradient28)"/>
        </g>
        <g>
          <path d="M185.5450812,949.646716l-68.9299316,205.5600586c-4.9699707,14.8200684-20.1899414,23.6300049-35.2300415,20.3800049l-243.5599976-52.5899658c-8.4699707-1.8300781-15.2099609-7.0700684-19.2299805-13.9599609,0-.0100098,0-.0200195-.0100098-.0300293-.2700195-.460083-.5300293-.9300537-.7700195-1.4100342-.0299683-.0500488-.0499878-.0899658-.0700073-.1199951-.0099487-.0200195-.0199585-.0400391-.0299683-.0700684-3.5100098-6.9299316-4.3599854-15.2900391-1.6300049-23.4199219l68.9299927-205.5600586c4.9700317-14.8299561,20.1900024-23.6300049,35.2299805-20.3800049l243.5599976,52.5899658c10.4699707,2.2600098,18.3000488,9.75,21.6101074,19.1000977.7399902,2.0599365,1.25,4.2199707,1.5198975,6.4299316.5400391,4.3800049.1199951,8.9599609-1.3900146,13.4799805Z" fill="url(#linear-gradient29)"/>
          <path d="M205.5450812,999.646716l-68.9299316,205.5600586c-4.9699707,14.8200684-20.1899414,23.6300049-35.2299805,20.3800049l-243.5600586-52.5899658c-8.5499878-1.8500977-15.3300171-7.1800537-19.3399658-14.1600342l-4.0200195-.5899658c-3-23.7199707-12.8300171-43.5400391-15.8699951-49.2099609,4.0200195,6.8898926,10.7600098,12.1298828,19.2299805,13.9599609l243.5599976,52.5899658c15.0401001,3.25,30.2600708-5.5599365,35.2300415-20.3800049l68.9299316-205.5600586c1.5100098-4.5200195,1.9300537-9.0999756,1.3900146-13.4799805,4.1099854,16.1700439,9.3900146,27.5200195,13.0999756,34.1999512,6.5400391,7.7200928,9.0600586,18.6900635,5.5100098,29.2800293Z" fill="url(#linear-gradient30)"/>
        </g>
        <path d="M1630.0954401,1711.3800049v.0599365l-.0200195.0200195c-.3391724,2.3681026-.1390411,13.8428155.092483,23.1731289.2086615,8.40896-1.3107525,16.768172-4.4602913,24.5678229l-57.1187427,141.4512612c-.9000244,2.2900391-16.8200684,44.0039912-18,46.173913l-171.3913043,438.2608696c-14.1201172,36.4602051-61.5021495,52.6129947-98.3421153,42.8629947l-340.6900635-90.1699219c-16.5699463-4.380127-30.0999756-14.0800781-39.5-26.75-9.4000244-12.6700439-14.6600342-28.3100586-14.7199707-44.5800781,0-1.4099121.0299072-2.8199463.1099854-4.2399902l.9399414-38.2600098c.7199707,31.9799805,21.5600586,61.2099609,54.2000732,69.8400879l340.6900635,90.1699219c36.829834,9.75,75.5998535-10.5799561,89.7199707-47.0400391l182.4599609-471c1.1799316-2.1799316,2.2299805-4.4199219,3.1300049-6.7099609l70.5899658-179.2800293c1.1799316-3,2.0800781-5.9899902,2.7099609-8.9699707l-.2700195,27.1300049c.5500488,4.3299561.5100098,8.7800293-.1298828,13.2900391Z" fill="url(#linear-gradient31)"/>
        <path d="M1869.5954401,997.9699707l-50.4500732,135.5c-9.8599854,26.460022-38.7999268,43.8200073-64.6400146,38.7900391l-300.3099365-58.4700317c-17.8299561-3.4699707-29.5200195-16.6900024-31.8299561-33.25l-4.5300293-27.210022c3.1799316,15.2300415,14.5500488,27.1900024,31.3599854,30.460022l300.3099365,58.4700317c25.8400879,5.0299683,54.7800293-12.3300171,64.6400146-38.7900391l50.4500732-135.5c2.869873-7.7000122,3.8000488-15.3200073,3.0400391-22.3800049l3.9899902,24.2399902c.5400391,2.1800537.9199219,4.4400024,1.1098633,6.75l.0100098.0400391-.0100098.0100098c.5600586,6.7699585-.4099121,14.0199585-3.1398926,21.3399658Z" fill="url(#linear-gradient32)"/>
        <path d="M1367.2953913,882.5899658c.3499756,5.960022-.6300049,12.2000122-3.1099854,18.460022l-53.6300049,134.8800049c-10.4699707,26.3399658-43.5,42.9099731-73.7900391,37.0100098l-351.8699951-68.5100098c-23.7799072-4.6300049-38.789917-21.7399902-39.0599365-41.6400146-.6500244-.1699829-1.0100098-.2700195-1.0100098-.2700195v-36.9299927l.2399902-.039978c1.9799805,18.2600098,16.5600586,33.5499878,38.8299561,37.8800049l351.8699951,68.5100098c30.2900391,5.8999634,63.3200684-10.6700439,73.7900391-37.0100098l53.6300049-134.8800049c1.0899658-2.75,1.9000244-5.5,2.4200439-8.2200317l1.7800293,30.7300415s-.0300293.0100098-.0900879.0299683Z" fill="url(#linear-gradient33)"/>
        <path d="M848.3953669,755.789978c-.5198975,2.7200317-1.3299561,5.4700317-2.4200439,8.2200317l-53.6299438,134.8800049c-10.4699707,26.3399658-43.5,42.9099731-73.789978,37.0099487l-65.960022-12.8399658-42.5499878-8.2900391-139.8900146-27.2399902-85.1099854-16.5700073-18.3599854-3.5699463c-22.2700195-4.3300171-36.8500366-19.6200562-38.8300171-37.8800049-.7199707-6.5599976.1900024-13.5100098,2.960022-20.4800415l53.6199951-134.8800049c10.4699707-26.3399658,43.5100098-42.9099731,73.789978-37.0099487l134.4500122,26.1799927,85.1199951,16.5700073,132.3000488,25.7599487c2.5.4900513,4.8999023,1.1100464,7.1999512,1.8699951,13.0600586,4.2600098,22.7700195,12.6100464,27.8599854,22.9800415.8099365,1.6400146,1.5,3.3399658,2.0699463,5.0799561,2.0700684,6.3000488,2.5400391,13.1700439,1.1700439,20.210022Z" fill="url(#linear-gradient34)"/>
        <path d="M850.0832553,786.5517379c.3499756,5.960022-.6300049,12.2000122-3.1099854,18.460022l-53.6300049,134.8800049c-10.4699707,26.3399658-43.5,42.9099731-73.7900391,37.0100098l-351.8699951-68.5100098c-23.7799072-4.6300049-38.789917-21.7399902-39.0599365-41.6400146-.6500244-.1699829-1.0100098-.2700195-1.0100098-.2700195v-36.9299927l.2399902-.039978c1.9799805,18.2600098,16.5600586,33.5499878,38.8299561,37.8800049l351.8699951,68.5100098c30.2900391,5.8999634,63.3200684-10.6700439,73.7900391-37.0100098l53.6300049-134.8800049c1.0899658-2.75,1.9000244-5.5,2.4200439-8.2200317l1.7800293,30.7300415s-.0300293.0100098-.0900879.0299683Z" fill="url(#linear-gradient35)"/>
        <path d="M339.3751594,659.8569455c-.5200195,2.7200317-1.3300781,5.4700317-2.4200439,8.2200317l-53.6300049,134.8800049c-10.4699707,26.3399658-43.5,42.9099731-73.7900391,37.0100098l-351.8699951-68.5100098c-22.2698975-4.3300171-36.8499756-19.6199951-38.8299561-37.8800049-.7199707-6.5599976.1899414-13.5100098,2.9599609-20.4799805l53.6199951-134.8800049c10.4700928-26.3400269,43.5100098-42.9100342,73.7900391-37.0100098l351.8699951,68.5100098c18.9499512,3.6900024,32.3300781,15.2999878,37.1300049,29.9299927,2.0699463,6.2999878,2.539917,13.1699829,1.1700439,20.2099609Z" fill="url(#linear-gradient36)"/>
        <path d="M341.0651008,690.6169553c.3499756,5.960022-.6300049,12.2000122-3.1099854,18.460022l-53.6300049,134.8800049c-10.4699707,26.3399658-43.5,42.9099731-73.7900391,37.0100098l-351.8699951-68.5100098c-23.7799072-4.6300049-38.789917-21.7399902-39.0599365-41.6400146-.6500244-.1699829-1.0100098-.2700195-1.0100098-.2700195v-36.9299927l.2399902-.039978c1.9799805,18.2600098,16.5600586,33.5499878,38.8299561,37.8800049l351.8699951,68.5100098c30.2900391,5.8999634,63.3200684-10.6700439,73.7900391-37.0100098l53.6300049-134.8800049c1.0899658-2.75,1.9000244-5.5,2.4200439-8.2200317l1.7800293,30.7300415s-.0300293.0100098-.0900879.0299683Z" fill="url(#linear-gradient37)"/>
        <g>
          <path d="M1476.218332,1633.1288663c8.6841059,1.5063533,17.3682117,3.0127066,26.0523176,4.51906,15.4902863,2.6869599,30.9805727,5.3739198,46.470859,8.0608797,5.4722031.9492136,10.9444062,1.8984272,16.4166093,2.8476408,1.304818.226335,2.6096361.45267,3.9144541.679005.1746748.0302993.3496501.0592362.5240832.090908,1.2358885.2243997,2.4118133.5741665,3.5931692.9946742,1.0538862.3751344-.8450904-.4488714.1390431.067444.2897016.1519889.5876423.2871307.8759196.4425563.6683753.3603566,1.2875124.7815726,1.9226336,1.1945956.9135188.5940665-.7131829-.6371853.10802.0741821.2413376.2090588.4878621.4106061.7241745.6256422.4698517.427549.9177393.8792131,1.3415197,1.3524623.1698818.1897125.5231304.48542.6153918.7233422-.351261-.9058258-.1757524-.2331044.0572716.0986605.423349.6027378.8112635,1.2303506,1.161155,1.8784953.2237589.4144946.5902523.9485045.6908013,1.4187789-.236861-1.1078147-.0914654-.1898704.0123736.1000801.1067444.298063.2059519.5988259.297455.9019155.1836009.6081492.3362246,1.225652.4568259,1.8493619.0692557.3581674.4352008,1.1286232.0383867.0647745.1329139.3563388.0921557.9004716.1120943,1.2787596.0340937.6468475.0340764,1.2954796-.0001168,1.9423228-.0172973.3272191-.0515343.6518712-.0778908.9782762-.0903516,1.1189346.2228723-.9901451-.0260198.111561-.2770076,1.2261579-.5681232,2.4117815-1.0214446,3.5885849-.0780994.2027428-.1593993.4043123-.2390853.6064341-1.4214714,3.6055274-2.8429428,7.2110548-4.2644142,10.8165821-5.6074754,14.223224-11.2149508,28.4464481-16.8224262,42.6696721-3.7915551,9.6171867-7.7470613,19.1868706-11.3801154,28.8653839-.0281094.0748839-.0584862.1490566-.0880669.2233794-.0587507.1476138-.1009815.1260978.1619292-.3741834-.3949355.7515052-.7304279,1.5198328-1.1764631,2.2465224-.1870804.3047951-.382952.6041929-.5873136.8976815-.1100039.1579793-.8594562,1.045459-.1515157.2223722-.4603846.535266-.9198857,1.0636292-1.4262073,1.5569697-.2508212.2443907-.5085443.4816963-.7727387.7115641-.1440248.1253118-1.0723468.8269149-.1763052.1729118-.6574733.4798768-1.3327459.9288565-2.0432075,1.3271006-.3036275.1701962-.6120021.3319236-.9246461.4849274-.1832989.089704-1.2584929.516619-.1981181.1116718-.5443451.2078803-1.0895379.4062678-1.6483911.5718803-.6760201.2003341-1.3602804.3315093-2.0478323.4809885-1.148687.2497335.9744565-.0448556-.2027969.0308886-.4739732.0304953-.944451.0747617-1.419866.0849615-.7233486.0155192-1.4360587-.0375306-2.1569838-.0790363-1.2055062-.0694045.9415212.2021227-.251969-.0339121-.0217312-.0042977-.2441358-.0448292-.3651686-.0673384-.0473381-.0088038-.0945056-.0185464-.1418018-.0275724-2.4870122-.4746198-4.9708507-.9665489-7.4561934-1.4498072-12.6694992-2.4634999-25.3389984-4.9269998-38.0084976-7.3904997-15.6872234-3.0502763-31.3744467-6.1005526-47.0616701-9.1508289-9.7160872-1.8892286-19.4321744-3.7784571-29.1482617-5.6676857-.4783067-.0930036-.9566134-.1860071-1.4349201-.2790107-2.3035038-.447901-4.9674757.6489568-5.5355339,3.1429774-.5070718,2.2262638.6720791,5.0550842,3.1429774,5.5355339,7.1384709,1.3880282,14.2769418,2.7760564,21.4154126,4.1640846,15.2813882,2.9713643,30.5627765,5.9427287,45.8441647,8.914093,14.223269,2.7656201,28.4465381,5.5312402,42.6698071,8.2968603l11.5185477,2.239705c.5984716.1163688,1.196221.2377227,1.7956398.3491502,6.1788038,1.1485935,12.7423166.1048383,17.9204496-3.6119598,4.0361601-2.8971045,6.8081786-6.6447728,8.6340514-11.2418333.4387973-1.1047745.8719998-2.211806,1.3079919-3.3176895,2.0466347-5.1912388,4.0932694-10.3824775,6.1399041-15.5737163,5.7996271-14.7106121,11.5992542-29.4212242,17.3988813-44.1318363l6.2919188-15.9592979c.4740417-1.2023952.9497482-2.4041496,1.4221301-3.6071981,1.3196974-3.3609671,1.8940301-7.0623834,1.4800813-10.6603952-1.1779429-10.2385907-8.7517854-18.7330223-19.0129111-20.5298876-3.4990446-.6127312-7.0000928-1.2142428-10.5001145-1.8213599l-44.7530708-7.7629105c-11.9574556-2.0741517-23.9149112-4.1483034-35.8723669-6.2224551-.627148-.1087857-1.254296-.2175714-1.881444-.3263571-2.3107726-.4008288-4.9599933.6161057-5.5355339,3.1429774-.4979098,2.1860389.6628866,5.105335,3.1429774,5.5355339h0Z" fill="#f9f2f6"/>
          <path d="M1425.7680661,1757.7046389c-5.8937014-6.1112956-11.7874028-12.2225912-17.6811042-18.3338868-.8336363-.864414-1.6672726-1.728828-2.5009089-2.593242l-.9107443,7.0675986c7.8561978-4.1321749,15.7123956-8.2643497,23.5685934-12.3965246,1.1250819-.5917665,2.2501638-1.1835331,3.3752456-1.7752996,2.0866028-1.0975039,2.8906552-4.1772558,1.6143819-6.1568542-1.3690644-2.1235247-3.9249637-2.7883037-6.1568542-1.6143819-7.8561978,4.1321749-15.7123956,8.2643497-23.5685934,12.3965246-1.1250819.5917665-2.2501638,1.1835331-3.3752456,1.7752996-2.621011,1.37859-2.8422247,5.0648084-.9107443,7.0675986,5.8937014,6.1112956,11.7874028,12.2225912,17.6811042,18.3338868.8336363.864414,1.6672726,1.728828,2.5009089,2.593242,1.6371715,1.6976155,4.7402657,1.7687667,6.363961,0,1.6736864-1.8232244,1.7467323-4.5527398,0-6.363961h0Z" fill="#f9f2f6"/>
        </g>
      </g>
    </g>
    <path d="M2184.0757009,785.3237108c-6.8680107,22.7295584-13.7360214,45.4591168-20.6040321,68.1886752-18.6913028,61.858532-37.3826057,123.7170639-56.0739085,185.5755959-27.6455011,91.4922907-55.2910021,182.9845814-82.9365032,274.4768721-33.7306054,111.6308346-67.4612109,223.2616692-101.1918163,334.8925037-36.9466159,122.2741636-73.8932318,244.5483273-110.8398477,366.8224909-37.2935325,123.4222778-74.587065,246.8445557-111.8805974,370.2668335-34.7713552,115.0751772-69.5427103,230.1503544-104.3140655,345.2255317-29.380084,97.2328618-58.760168,194.4657235-88.1402519,291.6985853-21.1197189,69.8953315-42.2394378,139.7906629-63.3591567,209.6859944-9.9855806,33.0471001-20.513811,65.9841798-29.9707798,99.1877589-.4002846,1.4054062-.8458582,2.7993527-1.268567,4.1982999-1.678946,5.5564418,7.0049452,7.9311935,8.6785113,2.3925565,6.8680107-22.7295584,13.7360214-45.4591168,20.6040321-68.1886752,18.6913028-61.858532,37.3826057-123.7170639,56.0739085-185.5755959,27.6455011-91.4922907,55.2910021-182.9845814,82.9365032-274.4768721,33.7306054-111.6308346,67.4612109-223.2616692,101.1918163-334.8925037,36.9466159-122.2741636,73.8932318-244.5483273,110.8398477-366.8224909,37.2935325-123.4222778,74.587065-246.8445557,111.8805974-370.2668335,34.7713552-115.0751772,69.5427103-230.1503544,104.3140655-345.2255317,29.380084-97.2328618,58.760168-194.4657235,88.1402519-291.6985853,21.1197189-69.8953315,42.2394378-139.7906629,63.3591567-209.6859944,9.9855806-33.0471001,20.513811-65.9841798,29.9707798-99.1877589.4002846-1.4054062.8458582-2.7993527,1.268567-4.1982999,1.678946-5.5564418-7.0049452-7.9311935-8.6785113-2.3925565h0Z" fill="#f9f2f6"/>
  </g>
</svg>