<?xml version="1.0" encoding="UTF-8"?>
<svg xmlns="http://www.w3.org/2000/svg" xmlns:xlink="http://www.w3.org/1999/xlink" version="1.1" viewBox="0 0 1920 1080">
  <!-- Generator: Adobe Illustrator 29.6.1, SVG Export Plug-In . SVG Version: 2.1.1 Build 9)  -->
  <defs>
    <clipPath id="clippath">
      <rect width="1920" height="1080" fill="none"/>
    </clipPath>
    <clipPath id="clippath-1">
      <rect x="697.523" y="388.091" width="442.488" height="236.235" fill="none"/>
    </clipPath>
    <clipPath id="clippath-2">
      <path d="M748.943,509.31c-17.277-19.07-45.018-28.002-70.176-22.593-25.158,5.409-46.777,24.953-54.69,49.439,0,0,21.646,35.455,67.175,27.61,43.607-7.514,57.691-54.455,57.691-54.455Z" fill="none"/>
    </clipPath>
    <clipPath id="clippath-3">
      <path d="M523.155,546.849c-18.009-19.879-46.926-29.188-73.15-23.55-26.224,5.638-48.76,26.01-57.007,51.533,0,0,22.563,36.957,70.022,28.78,45.455-7.832,60.136-56.763,60.136-56.763Z" fill="none"/>
    </clipPath>
    <clipPath id="clippath-4">
      <path d="M1660.424,460.654c-3.114-12.956-9.705-25.146-17.201-36.061-8.472-12.337-18.744-23.751-31.012-32.417-12.086-8.537-26.623-13.601-41.258-15.45-14.163-1.79-28.524-.049-42.082,4.294-6.993,2.24-13.776,5.105-20.339,8.391-8.024,4.017-15.843,8.479-23.169,13.671-1.801,1.276-3.565,2.603-5.293,3.976-.348.184-.576.526-.492.989.015.112.047.221.097.325,4.396,12.348,10.829,23.944,18.668,34.434,9.101,12.178,20.302,22.903,33.234,30.947,6.732,4.187,13.975,7.738,21.517,10.208,7.097,2.324,14.527,3.617,21.97,4.121,15.222,1.031,30.686-1.135,45.262-5.535,12.956-3.911,25.759-9.607,36.455-18.01,1.128-.886,2.226-1.808,3.294-2.765.306-.274.448-.718.351-1.118Z" fill="none"/>
    </clipPath>
  </defs>
  <g id="Capa_2">
    <g clip-path="url(#clippath)">
      <rect width="1920" height="1080"/>
      <path d="M-129.653-32.852c9.77-13.321,20.121-26.212,31.006-38.639,10.921-12.468,22.375-24.468,34.309-35.97s24.255-22.422,37.047-32.862c12.799-10.445,26.03-20.358,39.641-29.72,13.612-9.363,27.602-18.176,41.925-26.411,14.379-8.267,29.092-15.953,44.093-23.029s30.165-13.484,45.631-19.284,31.158-10.963,47.044-15.467,31.954-8.346,48.16-11.497c16.267-3.163,32.669-5.634,49.15-7.366,18.983-1.994,38.11-3.001,57.193-2.172s37.967,3.516,56.206,8.999c16.19,4.866,31.603,11.952,45.48,21.643,12.831,8.961,24.345,20.011,33.446,32.765,8.985,12.592,15.619,26.863,18.672,42.065,3.777,18.808,1.384,38.092-3.341,56.5-2.521,9.824-5.677,19.471-8.952,29.066-3.382,9.907-6.823,19.795-10.238,29.691-6.896,19.981-13.792,39.962-20.687,59.943s-13.792,39.962-20.687,59.943c-6.177,17.897-12.97,35.731-17.351,54.18-3.916,16.49-6.021,34.115-1.72,50.751,3.667,14.182,12.264,26.823,24.377,35.108,10.851,7.422,23.867,10.931,36.849,12.032,14.211,1.206,28.604-.379,42.513-3.335,14.286-3.035,28.146-7.675,41.604-13.313,15.308-6.413,30.42-13.287,45.349-20.541,14.991-7.284,29.797-14.945,44.45-22.885s29.285-16.234,43.737-24.686,28.892-17.157,43.212-25.945c14.344-8.802,28.619-17.716,42.874-26.661,14.301-8.974,28.582-17.981,42.893-26.94,14.209-8.895,28.448-17.744,42.765-26.464,14.238-8.672,28.553-17.218,42.992-25.552,14.334-8.273,28.79-16.336,43.408-24.096,14.558-7.728,29.276-15.156,44.186-22.181,14.741-6.946,29.67-13.497,44.805-19.539s30.333-11.529,45.796-16.437c15.471-4.911,31.137-9.213,46.966-12.806,15.957-3.622,32.082-6.537,48.312-8.629,17.491-2.255,35.137-3.678,52.783-3.105,17.802.579,35.659,3.226,52.428,9.396,14.902,5.483,28.615,13.908,40.126,24.853,10.303,9.797,18.713,21.395,25.402,33.915,6.933,12.978,12.017,26.873,15.819,41.068,3.922,14.643,6.498,29.63,8.148,44.692,1.649,15.055,2.392,30.202,2.524,45.343.178,20.427-.373,40.865-1.118,61.276-.766,21.01-1.809,42.008-2.772,63.01-.962,20.992-1.846,41.99-2.294,63-.446,20.903-.477,41.825.309,62.72.612,16.271,1.908,32.529,4.344,48.633,2.419,15.986,5.99,31.847,11.376,47.108,5.236,14.834,12.195,29.132,21.411,41.915,9.248,12.829,20.668,23.973,33.848,32.732,12.696,8.437,26.873,14.519,41.589,18.421,15.033,3.986,30.619,5.753,46.151,5.969,16.159.224,32.313-1.232,48.267-3.744,16.184-2.549,32.18-6.221,47.949-10.65,16.662-4.68,33.057-10.268,49.352-16.083,17.624-6.289,35.102-12.983,52.444-20.013,17.253-6.994,34.372-14.318,51.371-21.908,17.03-7.604,33.94-15.476,50.752-23.551,16.902-8.118,33.704-16.441,50.434-24.906,16.687-8.443,33.302-17.028,49.875-25.694,16.588-8.674,33.134-17.428,49.668-26.204,16.54-8.779,33.068-17.579,49.616-26.342,16.542-8.76,33.104-17.483,49.717-26.109,16.597-8.618,33.245-17.139,49.971-25.503,16.706-8.353,33.491-16.549,50.38-24.525,16.936-7.998,33.977-15.774,51.144-23.262,17.107-7.462,34.34-14.635,51.713-21.454,17.472-6.858,35.085-13.36,52.845-19.435,18.638-6.375,37.437-12.279,56.372-17.71,18.86-5.41,37.854-10.35,56.958-14.819,19.105-4.469,38.32-8.467,57.621-11.991,19.322-3.528,38.731-6.587,58.204-9.158s38.969-4.66,58.525-6.275c19.555-1.614,39.15-2.752,58.761-3.409,19.687-.66,39.391-.837,59.087-.528,19.618.308,39.229,1.097,58.808,2.371,19.579,1.273,39.126,3.03,58.618,5.273,18.055,2.078,36.06,4.58,53.999,7.495,1.889.307,2.701-2.583.798-2.893-19.423-3.156-38.925-5.833-58.481-8.021s-39.051-3.878-58.634-5.09-39.35-1.946-59.047-2.191-39.246-.005-58.854.713c-19.609.718-39.2,1.915-58.75,3.59-19.608,1.68-39.172,3.846-58.674,6.477-19.522,2.634-38.979,5.748-58.347,9.338-19.292,3.576-38.496,7.626-57.589,12.147s-38.073,9.513-56.917,14.975-37.703,11.439-56.323,17.866c-17.693,6.106-35.239,12.633-52.646,19.51-17.394,6.872-34.649,14.095-51.781,21.597-17.09,7.484-34.055,15.251-50.917,23.235-16.882,7.993-33.661,16.204-50.361,24.57-16.787,8.409-33.496,16.975-50.154,25.636-16.674,8.668-33.299,17.432-49.904,26.23-16.546,8.766-33.074,17.568-49.615,26.344-16.535,8.774-33.083,17.523-49.675,26.188-16.641,8.691-33.326,17.298-50.086,25.76-16.671,8.417-33.415,16.69-50.258,24.756-16.886,8.087-33.873,15.966-50.981,23.571-17.042,7.576-34.206,14.88-51.509,21.842-17.361,6.985-34.86,13.63-52.505,19.865-16.166,5.713-32.43,11.175-48.973,15.704-15.864,4.343-31.959,7.905-48.237,10.3-15.919,2.342-32.052,3.534-48.144,3.019-15.459-.494-30.899-2.615-45.744-7.034-14.678-4.37-28.63-11.045-41.01-20.088-12.766-9.325-23.617-21.103-32.189-34.366-8.583-13.28-14.923-27.884-19.602-42.961-4.812-15.505-7.935-31.516-9.961-47.611-2.13-16.923-3.039-33.959-3.443-51.003-.498-20.998-.271-42.006.326-63,.599-21.092,1.571-42.172,2.555-63.249.98-21,1.973-42,2.622-63.013.595-19.262,1.049-38.566.575-57.836-.375-15.268-1.426-30.529-3.456-45.67-2.016-15.034-4.981-29.967-9.414-44.484-4.25-13.919-9.854-27.501-17.292-40.031-7.249-12.212-16.288-23.418-27.098-32.659-12.486-10.675-27.068-18.521-42.718-23.464-16.979-5.362-34.886-7.419-52.642-7.604-17.571-.183-35.111,1.484-52.501,3.89-16.197,2.241-32.283,5.272-48.199,9.016-15.796,3.715-31.425,8.129-46.857,13.142-15.493,5.033-30.789,10.669-45.881,16.798-15.169,6.16-30.138,12.807-44.918,19.847-14.831,7.064-29.474,14.52-43.96,22.267-14.603,7.81-29.046,15.915-43.37,24.224-14.485,8.402-28.848,17.011-43.137,25.742-14.31,8.743-28.545,17.608-42.755,26.513-14.309,8.967-28.591,17.976-42.898,26.946s-28.54,17.841-42.894,26.624c-14.384,8.801-28.841,17.485-43.417,25.965-14.466,8.416-29.049,16.631-43.789,24.557-14.731,7.921-29.619,15.552-44.694,22.796-14.814,7.118-29.797,13.974-45.037,20.135-13.407,5.42-27.327,9.702-41.545,12.387-13.836,2.613-28.2,3.758-42.206,1.865-12.736-1.721-25.337-6.191-35.204-14.625-11.693-9.994-18.527-24.35-20.179-39.543-1.875-17.242,1.798-34.653,6.619-51.13,2.604-8.9,5.666-17.651,8.691-26.414,3.448-9.991,6.896-19.981,10.344-29.972,6.896-19.981,13.792-39.962,20.687-59.943,6.923-20.06,13.846-40.119,20.769-60.179,6.632-19.217,13.77-38.465,17.371-58.539,3.187-17.763,3.194-35.941-2.02-53.32-4.469-14.892-12.234-28.623-22.05-40.634-9.991-12.225-22.15-22.671-35.525-31.035-14.707-9.198-30.989-15.658-47.769-19.936-18.365-4.682-37.34-6.755-56.265-7.128s-37.801.934-56.565,3.129c-16.408,1.919-32.733,4.538-48.917,7.849-16.238,3.322-32.334,7.337-48.235,12.014-15.841,4.659-31.489,9.977-46.893,15.925-15.469,5.972-30.698,12.571-45.634,19.773-14.881,7.177-29.472,14.955-43.726,23.308s-28.28,17.351-41.864,26.868c-13.525,9.475-26.669,19.498-39.385,30.034-12.714,10.534-24.998,21.589-36.799,33.137s-23.209,23.679-34.034,36.231c-9.979,11.571-19.496,23.539-28.533,35.86-1.143,1.558,1.459,3.057,2.59,1.514h0Z" fill="#315dff"/>
      <path d="M1386.781-237.053c3.6,16.394,7.31,32.764,11.237,49.083,3.91,16.25,8.033,32.449,12.47,48.564,4.451,16.167,9.219,32.249,14.404,48.197,5.152,15.847,10.716,31.562,16.785,47.082,6.06,15.496,12.619,30.8,19.758,45.83,6.274,13.208,13.019,26.193,20.262,38.895,7.179,12.59,14.846,24.903,23.026,36.867s16.908,23.627,26.145,34.833c9.166,11.119,18.861,21.804,29.092,31.953s21.049,19.799,32.37,28.769c11.43,9.056,23.378,17.462,35.827,25.058,13.546,8.266,27.685,15.552,42.342,21.642,14.563,6.051,29.649,10.874,45.082,14.141,15.188,3.215,30.701,4.891,46.222,5.075,15.115.18,30.225-1.066,45.145-3.465,15.084-2.425,29.963-6.053,44.55-10.583,14.761-4.584,29.222-10.091,43.408-16.222,14.512-6.272,28.728-13.216,42.705-20.598,14.041-7.415,27.844-15.275,41.491-23.39,13.658-8.122,27.16-16.501,40.602-24.975,13.402-8.448,26.749-16.985,40.162-25.417,13.661-8.588,27.367-17.104,41.136-25.516,13.722-8.383,27.508-16.663,41.374-24.806,13.929-8.18,27.939-16.222,42.046-24.091,14.025-7.823,28.145-15.474,42.375-22.916,14.203-7.428,28.515-14.648,42.947-21.621,14.467-6.99,29.055-13.731,43.772-20.181,14.636-6.415,29.401-12.538,44.295-18.329,14.928-5.804,29.986-11.275,45.171-16.369s30.364-9.769,45.726-14.05c15.484-4.315,31.087-8.208,46.792-11.633s31.635-6.396,47.579-8.877c16.034-2.495,32.143-4.499,48.298-6.023,16.064-1.515,32.172-2.554,48.297-3.121,16.202-.57,32.421-.661,48.628-.277s32.255,1.235,48.338,2.556c16.175,1.329,32.312,3.127,48.38,5.409,15.976,2.27,31.886,5.006,47.701,8.206s31.682,6.899,47.352,11.05c15.596,4.131,31.071,8.724,46.393,13.777,14.824,4.888,29.503,10.211,44.017,15.952,1.796.71,2.575-2.19.798-2.893-15.005-5.936-30.187-11.423-45.522-16.446-15.333-5.023-30.816-9.586-46.42-13.687-15.605-4.101-31.332-7.739-47.151-10.914-15.821-3.175-31.735-5.884-47.715-8.128-15.964-2.241-31.992-4.03-48.059-5.345-16.159-1.323-32.356-2.173-48.565-2.548s-32.275-.275-48.402.296-32.233,1.615-48.297,3.134-32.047,3.51-47.976,5.97c-15.947,2.463-31.82,5.404-47.589,8.823-15.639,3.391-31.178,7.249-46.598,11.525-15.368,4.261-30.619,8.941-45.745,13.995s-30.114,10.48-44.98,16.239c-14.864,5.758-29.599,11.847-44.211,18.22-14.658,6.393-29.189,13.075-43.6,20.006-14.443,6.946-28.765,14.142-42.978,21.548-14.307,7.455-28.502,15.122-42.601,22.965-14.05,7.816-28.003,15.805-41.875,23.932s-27.668,16.397-41.397,24.769c-13.713,8.363-27.363,16.831-40.967,25.371-13.435,8.434-26.801,16.975-40.214,25.444-13.364,8.438-26.782,16.792-40.348,24.901-13.631,8.147-27.413,16.049-41.427,23.519-13.897,7.407-28.025,14.392-42.445,20.727-14.19,6.233-28.674,11.819-43.451,16.501-14.503,4.595-29.296,8.309-44.3,10.847-14.911,2.522-30.032,3.837-45.157,3.751-15.462-.089-30.908-1.656-46.049-4.8-15.517-3.222-30.689-8.024-45.333-14.068-14.63-6.038-28.733-13.352-42.239-21.593-12.458-7.602-24.433-16.003-35.852-25.091-11.249-8.952-21.976-18.556-32.168-28.694-10.217-10.163-19.897-20.864-29.049-31.995-9.19-11.179-17.838-22.798-25.977-34.763-8.151-11.984-15.791-24.315-22.942-36.92-7.208-12.704-13.917-25.688-20.16-38.892-7.135-15.09-13.681-30.454-19.718-46.015-6.028-15.537-11.553-31.266-16.671-47.125-5.126-15.886-9.844-31.902-14.252-48.002-4.434-16.196-8.555-32.477-12.466-48.808-3.745-15.64-7.295-31.325-10.744-47.032-.414-1.885-3.307-1.087-2.893.798h0Z" fill="#315dff"/>
      <path d="M1650.595,1236.395c.888-15.289,1.962-30.568,3.246-45.829,1.288-15.307,2.785-30.597,4.511-45.862,1.721-15.222,3.669-30.418,5.87-45.578,2.209-15.218,4.669-30.401,7.4-45.534,2.727-15.112,5.726-30.175,9.018-45.174s6.861-29.866,10.753-44.684c3.881-14.777,8.076-29.472,12.606-44.064,4.517-14.549,9.369-28.995,14.576-43.312,5.174-14.225,10.694-28.328,16.595-42.267,5.916-13.972,12.204-27.787,18.88-41.413,6.675-13.625,13.74-27.06,21.203-40.27,7.479-13.237,15.358-26.248,23.644-38.996,8.356-12.856,17.094-25.479,26.341-37.711,9.322-12.331,19.23-24.243,29.962-35.375,10.633-11.03,22.091-21.305,34.515-30.285,12.399-8.963,26.326-17.48,41.84-19.242,13.476-1.531,26.638,2.5,37.944,9.736,11.605,7.427,21.252,17.783,29.111,29.021,8.402,12.015,14.752,25.34,21.265,38.431,6.597,13.26,13.332,26.568,22.149,38.524,8.061,10.932,19.074,24.316,34.057,23.717,13.634-.545,24.419-11.566,32.238-21.677,4.31-5.574,8.179-11.499,12.104-17.346,3.955-5.891,7.852-11.82,11.702-17.78,7.763-12.019,15.331-24.162,22.785-36.374,7.443-12.193,14.773-24.455,22.069-36.737,7.335-12.347,14.637-24.713,21.987-37.051,7.334-12.312,14.717-24.595,22.229-36.8,7.478-12.149,15.085-24.22,22.9-36.155,7.768-11.862,15.742-23.589,24.001-35.115,8.208-11.456,16.697-22.712,25.542-33.684,8.763-10.87,17.871-21.464,27.376-31.692,9.551-10.278,19.505-20.185,29.889-29.621,10.617-9.648,21.671-18.849,33.22-27.364,12.51-9.224,25.748-17.625,40.052-23.792,14.225-6.133,29.423-9.646,44.928-9.933,15.357-.284,30.617,2.393,45.246,6.962,14.962,4.673,29.257,11.289,42.891,18.986,13.638,7.699,26.55,16.553,39.122,25.875,12.408,9.2,24.518,18.792,36.787,28.175,12.213,9.34,24.594,18.488,37.549,26.782,12.404,7.941,25.335,15.034,38.92,20.745.753.316,1.642-.341,1.845-1.048.248-.862-.305-1.533-1.048-1.845-14.191-5.965-27.652-13.556-40.537-21.949-12.895-8.4-25.238-17.611-37.439-26.979-12.306-9.448-24.481-19.071-36.986-28.259-12.635-9.283-25.656-18.03-39.402-25.593-13.791-7.588-28.28-14.061-43.389-18.538-14.647-4.34-29.962-6.768-45.261-6.27-15.557.506-30.679,4.211-44.939,10.384-14.295,6.188-27.525,14.602-40.029,23.835-11.585,8.554-22.697,17.765-33.361,27.44-10.392,9.428-20.354,19.328-29.913,29.599-9.602,10.317-18.798,21.007-27.642,31.979-8.841,10.966-17.337,22.208-25.551,33.65-8.307,11.571-16.325,23.347-24.134,35.258-7.821,11.93-15.432,23.997-22.913,36.143-7.55,12.258-14.969,24.598-22.338,36.966-7.351,12.337-14.652,24.703-21.987,37.05-7.364,12.397-14.761,24.774-22.274,37.082-7.454,12.212-15.023,24.355-22.785,36.374-3.885,6.016-7.82,12-11.812,17.945-3.925,5.844-7.774,11.8-12.122,17.342-7.73,9.852-18.855,21.189-32.524,19.956-7.386-.666-13.525-5.346-18.559-10.456-5.231-5.31-9.805-11.253-13.925-17.455-8.275-12.455-14.727-25.987-21.393-39.337-6.493-13.005-13.203-25.951-22.139-37.477-8.359-10.782-18.494-20.561-30.53-27.144-12.072-6.602-25.797-9.385-39.406-6.822-15.276,2.876-28.878,11.518-41.175,20.639-12.407,9.203-23.871,19.618-34.504,30.813-10.63,11.193-20.436,23.143-29.705,35.48-9.249,12.31-17.997,25.003-26.357,37.932-8.254,12.766-16.103,25.793-23.551,39.045-7.468,13.288-14.533,26.801-21.207,40.505-6.639,13.632-12.885,27.453-18.772,41.426-5.928,14.071-11.481,28.299-16.676,42.656-5.185,14.327-10.014,28.781-14.51,43.339-4.53,14.667-8.722,29.439-12.598,44.292-3.869,14.826-7.424,29.734-10.687,44.705-3.286,15.075-6.276,30.214-8.993,45.401-2.709,15.138-5.146,30.324-7.335,45.546-2.198,15.286-4.149,30.608-5.869,45.955-1.711,15.265-3.194,30.555-4.468,45.863-1.229,14.765-2.262,29.545-3.121,44.336-.112,1.929,2.888,1.922,3,0h0Z" fill="#315dff"/>
      <path d="M-415.077,205.66c2.821,20.758,7.14,41.304,12.916,61.441s12.944,39.67,21.477,58.697c8.403,18.737,18.105,36.925,29.138,54.247,10.492,16.474,22.301,32.188,35.837,46.293,13.406,13.97,28.616,26.584,45.585,36.001,17.211,9.551,36.759,16.06,56.624,15.527,9.799-.263,19.443-2.351,28.491-6.112,8.959-3.725,17.241-8.844,24.979-14.669,7.858-5.916,15.18-12.492,22.324-19.242,7.901-7.467,15.615-15.133,23.153-22.966,15.083-15.672,29.467-32.006,43.307-48.783,13.316-16.142,25.886-32.862,38.938-49.213,12.798-16.033,26.27-31.663,41.833-45.097,14.917-12.876,31.988-23.533,50.719-29.864,18.527-6.262,38.16-7.805,57.222-3.086,19.202,4.753,37.086,14.071,56.636,17.525,9.286,1.641,18.822,1.783,28.002-.571,8.458-2.169,16.295-6.321,23.237-11.568,14.57-11.013,25.416-26.03,35.869-40.797,12.667-17.894,25.064-35.98,37.185-54.249,12.121-18.269,23.966-36.721,35.53-55.347,11.606-18.693,22.928-37.562,33.963-56.598,10.995-18.968,21.704-38.102,32.121-57.393,5.041-9.334,10.012-18.706,14.917-28.113.892-1.71-1.697-3.229-2.59-1.514-10.1,19.371-20.488,38.591-31.164,57.65s-21.639,37.957-32.884,56.687c-11.204,18.662-22.688,37.156-34.446,55.474-11.758,18.318-23.79,36.46-36.092,54.418-6.173,9.011-12.414,17.976-18.722,26.893-5.348,7.56-10.734,15.102-16.702,22.19-11.155,13.249-24.817,25.583-42.12,29.644-19.071,4.476-38.166-2.401-55.932-8.804-9.364-3.375-18.749-6.819-28.478-9.005-9.36-2.103-18.97-2.832-28.539-2.104-19.396,1.476-38.075,8.38-54.745,18.221-17.209,10.16-32.187,23.619-45.69,38.263-13.816,14.983-26.167,31.222-38.668,47.294-13.164,16.924-26.694,33.558-40.861,49.654-14.263,16.205-29.138,31.88-44.755,46.788-14.085,13.445-28.976,26.853-46.983,34.8-8.911,3.933-18.481,6.199-28.218,6.564s-19.374-1.037-28.694-3.674c-19.036-5.385-36.372-15.681-51.692-28.037-15.08-12.163-28.385-26.453-40.103-41.854-11.96-15.72-22.392-32.588-31.697-49.999-9.777-18.295-18.235-37.289-25.291-56.795-7.074-19.557-12.755-39.617-16.973-59.982-2.033-9.816-3.721-19.703-5.071-29.636-.11-.809-1.138-1.234-1.845-1.048-.869.229-1.156,1.046-1.048,1.845h0Z" fill="#315dff"/>
      <path d="M494.718,1266.914c-6.169-15.26-12.071-30.63-17.532-46.159-5.5-15.638-10.556-31.437-14.985-47.413-4.409-15.905-8.196-31.987-11.169-48.223-2.949-16.104-5.101-32.361-6.233-48.696-1.067-15.4-1.234-30.867-.405-46.283.83-15.445,2.664-30.837,5.652-46.016,2.939-14.934,6.984-29.66,12.273-43.935,5.163-13.936,11.525-27.462,19.195-40.198,7.076-11.75,15.288-22.807,24.53-32.943,9.042-9.917,19.055-18.978,29.946-26.828,10.678-7.696,22.207-14.302,34.382-19.327,11.903-4.913,24.452-8.407,37.238-10.017,13.178-1.659,26.612-1.393,39.727.685,13.118,2.079,25.938,5.898,38.174,11.045,12.556,5.281,24.513,11.96,35.831,19.522,11.766,7.861,22.848,16.712,33.326,26.214,10.634,9.643,20.653,19.957,30.133,30.734,9.456,10.749,18.309,21.986,26.817,33.496,8.334,11.275,16.437,22.718,24.729,34.023s16.766,22.482,25.842,33.168c8.787,10.346,18.155,20.24,28.449,29.105,10.057,8.662,21,16.349,32.868,22.33,13.575,6.841,28.22,11.384,43.252,13.605,15.088,2.23,30.408,2.249,45.564.698,15.694-1.606,31.191-4.795,46.417-8.884,15.476-4.156,30.69-9.237,45.751-14.697,15.434-5.596,30.716-11.605,46.052-17.463,15.884-6.067,31.793-12.067,47.757-17.92,15.948-5.847,31.951-11.547,48.033-17.017,16.122-5.484,32.325-10.737,48.624-15.671,16.183-4.899,32.462-9.483,48.845-13.664s32.974-7.981,49.614-11.269c16.405-3.242,32.949-6.022,49.667-6.939,16.537-.907,33.254.051,49.31,4.314,12.704,3.373,24.759,8.83,35.855,15.855,11.119,7.039,21.22,15.603,30.263,25.15,9.343,9.864,17.544,20.775,24.619,32.368,7.418,12.155,13.546,25.042,18.502,38.385,5.584,15.034,9.747,30.575,12.772,46.319,3.046,15.849,4.932,31.902,5.979,48.002,1.015,15.608,1.238,31.259.927,46.894-.038,1.931,2.962,1.931,3,0,.325-16.322.067-32.661-1.065-48.95-1.121-16.127-3.091-32.213-6.207-48.08-3.103-15.801-7.364-31.391-13.066-46.458-5.058-13.364-11.253-26.282-18.756-38.449-7.155-11.603-15.444-22.546-24.843-32.427-9.104-9.571-19.295-18.162-30.455-25.247-11.076-7.031-23.153-12.546-35.817-16.01-16.117-4.409-32.967-5.547-49.608-4.74-16.74.812-33.335,3.501-49.765,6.705-16.726,3.261-33.351,7.03-49.871,11.213-16.545,4.189-32.983,8.793-49.322,13.72-16.304,4.916-32.51,10.153-48.636,15.623-16.237,5.508-32.394,11.253-48.494,17.149-16.117,5.902-32.178,11.956-48.211,18.079-15.416,5.887-30.776,11.929-46.288,17.558-15.13,5.49-30.414,10.599-45.964,14.774-15.313,4.113-30.912,7.346-46.706,8.885-15.293,1.49-30.819,1.424-46.007-1.061-14.895-2.437-29.367-7.171-42.714-14.235-11.865-6.28-22.756-14.245-32.742-23.191-10.247-9.18-19.575-19.345-28.352-29.925-8.974-10.818-17.38-22.092-25.65-33.453-8.315-11.422-16.49-22.947-24.96-34.256-8.652-11.55-17.741-22.769-27.408-33.487-9.646-10.694-19.843-20.903-30.672-30.402-10.636-9.33-21.887-17.996-33.803-25.634-11.538-7.395-23.718-13.802-36.478-18.821-12.479-4.909-25.49-8.385-38.793-10.118-13.178-1.717-26.553-1.62-39.697.353-12.912,1.938-25.484,5.72-37.45,10.92-12.17,5.288-23.667,12.081-34.309,19.998-10.843,8.067-20.827,17.256-29.82,27.341-9.171,10.284-17.34,21.477-24.351,33.339-7.654,12.95-13.977,26.693-19.12,40.823-5.233,14.379-9.216,29.202-12.086,44.229-2.912,15.244-4.7,30.704-5.486,46.202s-.567,31.174.57,46.714c1.194,16.321,3.389,32.571,6.358,48.661,3.024,16.385,6.875,32.612,11.355,48.658,4.479,16.043,9.587,31.906,15.137,47.609,5.33,15.08,11.072,30.011,17.066,44.839.714,1.767,3.617.995,2.893-.798h0Z" fill="#315dff"/>
      <path d="M-463.753,733.572c10.203-9.502,20.566-18.831,31.09-27.976,10.558-9.175,21.275-18.165,32.149-26.962,10.958-8.866,22.076-17.535,33.351-25.994,11.221-8.419,22.595-16.634,34.119-24.632,11.523-7.998,23.196-15.78,35.015-23.333s23.762-14.863,35.857-21.939c12.075-7.063,24.292-13.885,36.645-20.45,12.326-6.55,24.787-12.845,37.379-18.867,12.621-6.036,25.373-11.798,38.249-17.269,12.783-5.432,25.694-10.566,38.715-15.399s26.07-9.33,39.264-13.52c13.162-4.18,26.427-8.038,39.781-11.557s26.749-6.684,40.244-9.498,27.038-5.266,40.652-7.346c13.688-2.091,27.434-3.794,41.219-5.103s27.518-2.215,41.311-2.72,27.705-.604,41.556-.282c14.63.34,29.269,1.082,43.817,2.711,14.762,1.653,29.453,4.265,43.731,8.406,13.942,4.044,27.457,9.588,39.944,17.022,11.012,6.556,21.149,14.501,30.283,23.483,9.123,8.971,17.234,18.937,24.319,29.586,7.152,10.748,13.277,22.171,18.405,34.017s9.231,24.155,12.344,36.685c3.837,15.441,6.257,31.215,7.54,47.068,1.295,15.994,1.452,32.068.799,48.097-.659,16.182-2.142,32.323-4.136,48.393-1.938,15.617-4.343,31.178-7.048,46.68-2.656,15.223-5.633,30.389-8.887,45.495s-6.782,30.13-10.545,45.105-7.764,29.907-11.953,44.776c-4.215,14.961-8.623,29.867-13.18,44.728s-9.231,29.571-14.027,44.299-9.712,29.462-14.687,44.153c-4.981,14.707-10.027,29.392-15.099,44.068-5.075,14.685-10.176,29.362-15.261,44.043-5.086,14.683-10.158,29.372-15.175,44.079-5.04,14.775-10.024,29.569-14.912,44.396-4.86,14.743-9.625,29.518-14.252,44.335-4.624,14.805-9.11,29.654-13.418,44.555-4.156,14.375-8.142,28.799-11.928,43.276-.489,1.869,2.404,2.667,2.893.798,3.941-15.071,8.1-30.084,12.44-45.045,4.343-14.971,8.866-29.889,13.524-44.765,4.663-14.888,9.462-29.733,14.356-44.546,4.921-14.897,9.938-29.761,15.009-44.608,5.048-14.778,10.148-29.538,15.262-44.294,5.112-14.753,10.237-29.502,15.334-44.261s10.158-29.508,15.154-44.29,9.911-29.555,14.721-44.38c4.803-14.804,9.496-29.645,14.035-44.533s8.956-29.926,13.159-44.968c4.177-14.951,8.158-29.958,11.899-45.024s7.239-30.181,10.455-45.362c3.218-15.195,6.152-30.45,8.757-45.762,2.655-15.604,5.001-31.268,6.865-46.988,1.906-16.078,3.275-32.228,3.794-48.414s.188-32.25-1.319-48.298c-1.473-15.691-4.035-31.315-8.031-46.567-3.293-12.567-7.606-24.862-12.896-36.728s-11.568-23.243-18.894-33.944c-7.255-10.597-15.516-20.53-24.785-29.428s-19.482-16.723-30.546-23.179c-12.632-7.371-26.308-12.88-40.356-16.891-14.345-4.095-29.092-6.646-43.906-8.295-14.68-1.635-29.452-2.371-44.215-2.701-13.918-.311-27.846-.199-41.758.327-13.86.523-27.704,1.457-41.509,2.787-13.778,1.327-27.518,3.05-41.2,5.143s-27.303,4.565-40.85,7.398-27.044,6.032-40.437,9.572-26.746,7.435-39.969,11.649c-13.322,4.245-26.538,8.819-39.639,13.702s-26.014,10.052-38.844,15.513c-12.873,5.48-25.622,11.251-38.239,17.295s-25.17,12.395-37.552,18.988-24.681,13.475-36.81,20.586c-12.149,7.123-24.155,14.49-36.013,22.087-11.928,7.642-23.706,15.516-35.332,23.611-11.569,8.055-22.987,16.328-34.249,24.807-11.243,8.464-22.334,17.131-33.267,25.992-10.919,8.85-21.681,17.895-32.28,27.125-10.202,8.884-20.251,17.941-30.151,27.159-1.416,1.319.709,3.436,2.121,2.121h0Z" fill="#315dff"/>
      <path d="M-383.56,184.542c22.999,15.999,44.469,34.032,66.7,51.051,22.055,16.885,45.058,32.886,70.481,44.315,13.704,6.16,28.292,11.123,43.443,11.568,13.593.399,26.893-3.341,38.816-9.746,25.005-13.433,42.028-36.831,57.05-60.189,7.353-11.434,14.531-22.972,22.152-34.232,7.331-10.831,14.964-21.467,23.086-31.721,15.967-20.158,33.876-39.084,54.731-54.254,10.28-7.478,21.25-14.021,32.828-19.285,12.671-5.76,26.039-9.714,39.585-12.811,28.205-6.449,57.374-9.428,84.587-19.719,24.194-9.149,45.359-24.419,63.199-43.01s32.553-40.217,45.379-62.587c3.075-5.363,6.046-10.785,8.938-16.249.903-1.705-1.686-3.223-2.59-1.514-12.03,22.723-25.467,44.887-41.87,64.749-16.078,19.469-35.136,36.727-57.632,48.458-25.248,13.166-53.551,17.66-81.21,22.939-14.088,2.688-28.173,5.624-41.817,10.103-12.454,4.088-24.419,9.565-35.68,16.271-21.799,12.981-40.793,30.226-57.539,49.183-17.189,19.459-32.175,40.763-46.24,62.552-15.204,23.554-29.357,48.776-51.188,66.981-10.105,8.426-21.803,15.243-34.558,18.697-14.209,3.848-28.832,2.624-42.828-1.537-13.72-4.079-26.784-10.425-39.232-17.425-11.985-6.74-23.46-14.352-34.612-22.387-22.604-16.287-43.898-34.291-66.181-51.002-5.361-4.021-10.781-7.964-16.283-11.791-1.588-1.105-3.09,1.494-1.514,2.59h0Z" fill="#315dff"/>
      <path d="M2048.805-109.908c-13.629,4.092-27.203,8.369-40.7,12.877-13.477,4.502-26.879,9.231-40.181,14.23-13.359,5.02-26.614,10.315-39.741,15.913-13.104,5.588-26.076,11.487-38.876,17.74-12.687,6.198-25.206,12.743-37.508,19.675-12.309,6.936-24.402,14.259-36.219,22.005-11.723,7.684-23.175,15.783-34.29,24.323s-21.991,17.575-32.408,27.04c-5.2,4.724-10.297,9.561-15.283,14.511s-10.184,9.879-14.534,15.396c-3.989,5.059-7.863,11.331-7.623,18.025.245,6.834,5.084,11.654,11.082,14.212,14.272,6.089,30.884,4.251,45.547.741,7.759-1.858,15.373-4.278,22.956-6.743,7.739-2.515,15.436-5.158,23.096-7.904,15.172-5.439,30.196-11.282,45.128-17.347,14.995-6.09,29.898-12.402,44.781-18.757,14.943-6.382,29.867-12.811,44.848-19.104,14.863-6.244,29.782-12.359,44.824-18.156,15.049-5.8,30.227-11.273,45.569-16.252,15.339-4.978,30.842-9.464,46.515-13.266,15.52-3.765,31.209-6.859,47.026-9.074s31.854-3.527,47.866-3.755c7.742-.11,15.486.04,23.218.452,1.929.103,1.924-2.898,0-3-15.758-.84-31.561-.564-47.289.689s-31.485,3.473-47.032,6.449c-15.573,2.981-30.993,6.728-46.247,11.048-15.38,4.356-30.593,9.293-45.657,14.638-14.993,5.32-29.836,11.052-44.586,17.013-14.863,6.006-29.633,12.241-44.378,18.53-14.727,6.281-29.429,12.62-44.181,18.842-14.786,6.236-29.623,12.354-44.575,18.18-14.868,5.793-29.851,11.296-44.994,16.328-14.923,4.959-30.263,10.262-46.076,11.227-7.64.467-15.393-.16-22.688-2.58-5.993-1.988-11.774-6.004-11.759-12.949.014-6.671,4.507-12.906,8.706-17.715,4.552-5.213,9.558-10.089,14.495-14.935,9.917-9.732,20.265-19.023,30.974-27.874,10.753-8.888,21.874-17.325,33.294-25.338,11.378-7.984,23.05-15.548,34.957-22.721,12.012-7.237,24.263-14.076,36.7-20.554,12.429-6.474,25.044-12.587,37.803-18.38,12.874-5.845,25.895-11.361,39.031-16.59s26.268-10.129,39.543-14.809c13.317-4.696,26.72-9.148,40.187-13.394,6.479-2.043,12.972-4.038,19.478-5.991,1.844-.554,1.059-3.45-.798-2.893h0Z" fill="#315dff"/>
      <path d="M-220.357,936.148c11.15-15.693,23.247-30.703,36.188-44.956,12.932-14.244,26.696-27.732,41.176-40.399s29.697-24.52,45.523-35.481c15.83-10.965,32.269-21.049,49.214-30.197s34.39-17.366,52.247-24.568c17.849-7.199,36.099-13.404,54.644-18.552s37.368-9.237,56.376-12.211c19.634-3.071,39.559-5.116,59.437-5.483,21.32-.393,43.692,1.937,62.076,13.637,7.684,4.891,14.55,11.262,19.5,18.944,5.361,8.319,8.06,17.85,7.903,27.749-.18,11.301-3.654,22.371-8.194,32.63-4.392,9.923-9.754,19.413-15.705,28.479-11.95,18.205-26.333,34.66-41.256,50.464-16.115,17.067-32.815,33.584-49.845,49.735-17.18,16.293-34.721,32.202-52.452,47.891-17.74,15.697-35.672,31.175-53.639,46.61-18.628,16.003-37.273,31.987-55.91,47.98-18.842,16.168-37.683,32.336-56.525,48.504s-37.683,32.336-56.525,48.504c-18.842,16.168-37.683,32.336-56.525,48.504-18.842,16.168-37.683,32.336-56.525,48.504-9.105,7.813-18.209,15.625-27.314,23.438-1.468,1.259.663,3.373,2.121,2.121,19.031-16.331,38.063-32.661,57.094-48.992,19.031-16.331,38.063-32.661,57.094-48.992,18.968-16.276,37.936-32.553,56.904-48.829,18.968-16.276,37.936-32.553,56.904-48.829,19.031-16.331,38.063-32.661,57.094-48.992,18.333-15.732,36.688-31.439,54.919-47.289,17.993-15.643,35.861-31.432,53.438-47.542,17.566-16.099,34.842-32.52,51.642-49.418,15.907-16,31.672-32.283,45.812-49.889,13.69-17.045,26.118-35.615,34.135-56.055,4.094-10.437,6.88-21.714,6.153-32.997-.622-9.653-3.957-18.864-9.528-26.76-11.4-16.157-29.689-25.666-48.744-29.506-21.392-4.311-43.732-2.754-65.301-.681-19.35,1.86-38.591,4.875-57.587,9s-37.618,9.323-55.952,15.573-36.336,13.544-53.869,21.8-34.732,17.557-51.296,27.754c-16.561,10.195-32.54,21.322-47.862,33.298-15.262,11.93-29.852,24.721-43.655,38.313-13.847,13.634-26.903,28.074-39.048,43.246-5.854,7.313-11.499,14.793-16.925,22.429-1.12,1.577,1.48,3.077,2.59,1.514h0Z" fill="#315dff"/>
    </g>
  </g>
  <g id="Capa_6">
    <path d="M958.609,303.466c3.133-4.945,6.361-9.827,9.71-14.628,1.605-2.3,3.234-4.582,4.889-6.846.904-1.236,1.815-2.466,2.733-3.691.338-.451,4.064-5.246,2.075-2.745-2.105,2.648,1.045-1.304,1.194-1.492.954-1.2,1.915-2.394,2.883-3.582,1.776-2.179,3.576-4.339,5.399-6.478,3.98-4.67,8.073-9.243,12.275-13.715,8.225-8.753,16.867-17.114,25.898-25.033,4.22-3.7,8.524-7.305,12.912-10.805.797-.636,1.601-1.263,2.399-1.898,4.106-3.268-3.621,2.676.593-.448,2.863-2.123,5.713-4.258,8.619-6.322,9.518-6.759,19.37-13.049,29.531-18.796,9.803-5.544,20.454-12.001,31.208-15.505-5.592,1.822,2.231-.894,3.371-1.345,2.811-1.112,5.639-2.182,8.482-3.209,5.684-2.053,11.43-3.935,17.229-5.636,11.13-3.265,22.456-5.862,33.903-7.736,1.456-.238,9.462-1.819,3.429-.572,2.941-.608,6.085-.737,9.073-1.023,6.977-.667,13.986-1.068,20.996-1.049,2.955.008,5.911.089,8.861.258,1.766.101,3.53.232,5.291.398.833.078,6.705.402,1.421.096,6.767.392,14.117,2.77,20.437,5.04l1.651.61c2.294.913,2.189.853-.315-.18.562-.013,2.186,1.004,2.816,1.31,2.774,1.346,5.481,2.83,8.113,4.436,2.402,1.465,4.738,3.034,7.013,4.689,1.23.895,4.033,2.006.015-.021,1.667.841,3.301,2.738,4.691,3.979,4.241,3.785,8.218,7.86,11.968,12.13,2.031,2.313,4.287,4.668,6,7.231-.355-.531-2.662-3.583-.412-.502,1.242,1.7,2.494,3.391,3.705,5.114,29.08,41.376,44.625,92.895,85.513,125.268,21.507,17.028,46.37,27.332,71.873,36.899,5.559,2.085,11.129,4.14,16.675,6.259,3.023,1.154,6.04,2.326,9.043,3.532,1.49.598,3.036,1.144,4.488,1.831-4.817-2.279.168.085.919.415,10.961,4.807,21.611,10.33,31.497,17.101,1.21.829,2.409,1.675,3.597,2.536.891.647,5.095,3.336.429.242,2.201,1.46,4.217,3.385,6.214,5.108,4.241,3.659,8.298,7.529,12.161,11.586,3.873,4.068,7.475,8.347,11.004,12.712,1.969,2.435-3.002-4.144-.167-.179.853,1.193,1.736,2.363,2.583,3.56,1.838,2.597,3.608,5.241,5.313,7.927,3.025,4.765,5.842,9.661,8.446,14.669,1.135,2.183,2.23,4.386,3.284,6.609.633,1.335,1.252,2.677,1.856,4.026.403.9.799,1.802,1.189,2.708-1.15-2.748-1.285-3.055-.406-.921,4.126,10.629,7.661,21.382,10.178,32.515,1.201,5.314,2.147,10.668,2.981,16.05.603,3.888.017-.775-.154-1.171.493,1.139.375,3.185.502,4.421.354,3.44.623,6.89.803,10.343.613,11.767.186,23.571-1.161,35.275-.12,1.043-.2,2.151-.389,3.19,1.027-5.634,0-.251-.161.775-.499,3.17-1.065,6.329-1.694,9.476-1.258,6.292-2.771,12.532-4.524,18.704-1.608,5.664-3.418,11.27-5.416,16.809-.909,2.521-1.859,5.028-2.844,7.52-.59,1.492-1.156,3.011-1.817,4.473,2.316-5.117-.668,1.433-1.092,2.371-5.104,11.29-10.972,22.231-17.495,32.764-3.129,5.053-6.41,10.012-9.831,14.872-1.556,2.211-3.142,4.401-4.755,6.57-.968,1.301-1.934,2.607-2.935,3.882,3.349-4.269-1.124,1.357-1.741,2.118-16.013,19.768-34.419,37.153-54.227,53.059-4.422,3.551,3.451-2.554-1.087.847-1.125.843-2.244,1.695-3.372,2.534-2.483,1.846-4.986,3.663-7.511,5.452-5.511,3.905-11.119,7.673-16.81,11.311-10.932,6.988-22.172,13.493-33.641,19.559s-23.235,11.727-35.138,16.98c-1.554.686-3.111,1.365-4.67,2.038-.733.316-5.913,2.703-1.237.539-2.561,1.185-5.24,2.171-7.856,3.224-6.297,2.536-12.633,4.973-19.003,7.319-55.018,20.258-112.221,33.679-169.268,46.793-14.414,3.314-28.832,6.612-43.231,9.991-10.703,2.512-18.067,15.326-14.667,25.832,3.614,11.167,14.365,17.359,25.832,14.667,113.622-26.667,232.354-49.401,331.149-115.295,45.606-30.418,85.652-69.199,113.613-116.639,26.626-45.173,42.6-98.715,38.697-151.448-3.754-50.726-23.472-100.138-58.43-137.47-17.43-18.614-38.687-33.193-61.926-43.551-12.496-5.57-25.272-10.438-38.084-15.221-6.054-2.26-12.108-4.522-18.115-6.906-1.496-.594-2.982-1.209-4.477-1.804-5.08-2.022,4.092,1.836-.902-.371-2.925-1.293-5.85-2.581-8.739-3.956-5.742-2.734-11.378-5.703-16.807-9.017-2.26-1.38-4.486-2.815-6.668-4.315-1.313-.903-2.593-1.849-3.889-2.777-1.853-1.396-1.702-1.278.452.354-.841-.675-1.673-1.361-2.496-2.058-4.533-3.839-8.777-8.009-12.761-12.414-2.17-2.4-4.215-4.896-6.271-7.392-3.471-4.214,2.508,3.568-.666-.883-1.257-1.763-2.55-3.498-3.785-5.276-14.594-21.011-25.346-44.295-38.153-66.369-13.885-23.933-30.475-46.293-52.746-63.009-23.541-17.669-52.826-24.222-81.884-23.736-104.349,1.748-199.47,63.658-261.406,144.507-7.13,9.308-13.836,18.919-20.111,28.824-5.889,9.295-2.248,23.564,7.534,28.732,10.366,5.477,22.447,2.387,28.732-7.534h0Z" fill="#33ff68"/>
    <g>
      <path d="M638.782,271.722c83.935-2.693,269.209-4.217,345.418-3.485,45.639.438,149.314-.422,185.496,2.291,29.487,2.211,43.038,4.57,54.309,21.722,7.614,11.587,9.27,33.246,9.085,47.109-1.024,76.612,1.607,158.898,1.413,226.611-.297,103.821,5.906,139.752-33.429,139.752-54.438,0-245.375,1.17-277.051.741-65.879-.892-244.788-.915-322.437-.915-12.052,0-20.431-2.244-24.212-13.447-3.233-9.579-2.487-28.574-2.423-38.684.4-62.579-.277-150.704.347-213.281.675-67.685,2.274-109.061,6.237-135.923,3.724-25.241,28.284-31.562,57.248-32.491Z" fill="#315dff"/>
      <rect x="605.855" y="297.584" width="597.447" height="380.516" fill="#ffd049"/>
      <rect x="605.855" y="297.584" width="597.447" height="48.008"/>
      <path d="M934.865,897.979v-3.281l-34.375,1.64-34.375-1.64v3.281l-424.891,20.076c0,8.718.105,16.291,11.493,21.067,11.388,4.775,25.855,5.799,39.593,5.799h816.36c13.738,0,28.205-1.024,39.593-5.799,11.388-4.775,11.493-12.349,11.493-21.067l-424.891-20.076Z" fill="#315dff"/>
      <path d="M1212.754,706.559c41.562,58.938,101.006,155.948,147.002,211.495h-406.619c-170.66-1.797-341.306,4.602-511.913,0,51.504-65.778,101.012-142.716,148.434-211.495h623.096Z" fill="#eb99ff"/>
      <g>
        <path d="M676.341,733.404c-9.542,19.551-18.82,39.231-27.823,59.036-9.059,19.928-17.837,39.982-26.346,60.151-4.764,11.294-9.441,22.624-14.032,33.99-.506,1.252.551,2.747,1.746,3.075,1.428.392,2.568-.489,3.075-1.746,8.097-20.047,16.465-39.984,25.111-59.8,8.667-19.866,17.606-39.613,26.813-59.234,5.173-11.023,10.432-22.006,15.772-32.948.592-1.213.329-2.703-.897-3.42-1.099-.643-2.826-.322-3.42.897h0Z"/>
        <path d="M783.42,746.698c-1.734,18.94-3.469,37.879-5.203,56.819-1.727,18.857-3.454,37.714-5.181,56.57-.977,10.669-1.954,21.338-2.931,32.007-.123,1.346,1.237,2.5,2.5,2.5,1.455,0,2.376-1.15,2.5-2.5,1.734-18.94,3.469-37.879,5.203-56.819,1.727-18.857,3.454-37.714,5.181-56.57.977-10.669,1.954-21.338,2.931-32.007.123-1.346-1.237-2.5-2.5-2.5-1.455,0-2.376,1.15-2.5,2.5h0Z"/>
        <path d="M1116.974,744.369c9.507,19.478,18.75,39.084,27.722,58.814,8.949,19.681,17.632,39.483,26.037,59.403,4.734,11.218,9.377,22.475,13.937,33.765.505,1.251,1.666,2.133,3.075,1.746,1.187-.326,2.255-1.816,1.746-3.075-8.167-20.222-16.608-40.333-25.323-60.325-8.726-20.017-17.727-39.914-27.002-59.683-5.206-11.097-10.499-22.153-15.876-33.169-.592-1.213-2.317-1.542-3.42-.897-1.238.724-1.491,2.203-.897,3.42h0Z"/>
        <path d="M1009.213,746.698c1.734,18.94,3.469,37.879,5.203,56.819,1.727,18.857,3.454,37.714,5.181,56.57.977,10.669,1.954,21.338,2.931,32.007.123,1.345,1.061,2.5,2.5,2.5,1.257,0,2.624-1.148,2.5-2.5-1.734-18.94-3.469-37.879-5.203-56.819-1.727-18.857-3.454-37.714-5.181-56.57-.977-10.669-1.954-21.338-2.931-32.007-.123-1.345-1.061-2.5-2.5-2.5-1.257,0-2.624,1.148-2.5,2.5h0Z"/>
        <path d="M609.027,786.917c18.645-1.346,37.312-2.381,55.988-3.183,19.12-.82,38.25-1.397,57.383-1.803,19.531-.414,39.065-.65,58.599-.77,19.885-.122,39.77-.125,59.655-.066,19.955.059,39.911.179,59.866.306,20.047.128,40.095.262,60.142.348,19.856.085,39.713.122,59.57.055,19.688-.067,39.376-.236,59.062-.571,19.242-.327,38.481-.812,57.712-1.524,18.745-.694,37.482-1.603,56.201-2.808,4.503-.29,9.005-.597,13.506-.922,1.347-.097,2.5-1.079,2.5-2.5,0-1.278-1.146-2.598-2.5-2.5-18.645,1.346-37.312,2.381-55.988,3.183-19.12.82-38.25,1.397-57.383,1.803-19.531.414-39.065.65-58.599.77-19.885.122-39.77.125-59.655.066-19.955-.059-39.911-.179-59.866-.306-20.047-.128-40.095-.262-60.142-.348-19.856-.085-39.713-.122-59.57-.055-19.688.067-39.376.236-59.062.571-19.242.327-38.481.812-57.712,1.524-18.745.694-37.482,1.603-56.201,2.808-4.503.29-9.005.597-13.506.922-1.347.097-2.5,1.079-2.5,2.5,0,1.278,1.146,2.598,2.5,2.5h0Z"/>
        <path d="M557.047,853.43c21.634-.472,43.269-.865,64.906-1.199,22.373-.346,44.747-.63,67.122-.872,22.984-.249,45.968-.453,68.952-.628,23.474-.179,46.947-.329,70.421-.464,23.619-.135,47.238-.256,70.857-.374s47.285-.236,70.928-.365c23.545-.128,47.09-.269,70.634-.435,23.03-.163,46.059-.351,69.089-.579,22.612-.224,45.224-.488,67.835-.809,21.849-.31,43.698-.674,65.545-1.114,5.119-.103,10.238-.21,15.356-.322,3.213-.07,3.224-5.07,0-5-21.634.472-43.269.865-64.906,1.199-22.373.346-44.747.63-67.122.872-22.984.249-45.968.453-68.952.628-23.474.179-46.947.329-70.421.464-23.619.135-47.238.256-70.857.374s-47.285.236-70.928.365c-23.545.128-47.09.269-70.634.435-23.03.163-46.059.351-69.089.579-22.612.224-45.224.488-67.835.809-21.849.31-43.698.674-65.545,1.114-5.119.103-10.238.21-15.356.322-3.213.07-3.224,5.07,0,5h0Z"/>
        <path d="M892.658,743.726c-.085,17.959.022,35.919.326,53.876.304,17.957.805,35.91,1.5,53.856.393,10.136.849,20.27,1.366,30.4.163,3.202,5.164,3.221,5,0-.915-17.936-1.638-35.882-2.163-53.834-.526-17.952-.855-35.909-.99-53.868-.076-10.143-.088-20.287-.04-30.431.015-3.218-4.985-3.222-5,0h0Z"/>
      </g>
      <g>
        <circle cx="632.283" cy="321.474" r="9.506" fill="#33ff68"/>
        <circle cx="668.646" cy="321.474" r="9.506" fill="#ffd049"/>
        <circle cx="705.01" cy="321.474" r="9.506" fill="#ff4355"/>
      </g>
      <g>
        <rect x="697.523" y="388.091" width="442.488" height="236.235"/>
        <g clip-path="url(#clippath-1)">
          <path d="M985.768,362.737c-7.787,17.541-10.556,37.979-6.359,56.828.998,4.485,2.581,8.937,5.153,12.772,2.357,3.515,5.496,6.42,9.085,8.647,7.787,4.832,17.099,6.3,26.13,6.08,10.394-.254,20.683-2.339,30.987-3.559,10.118-1.198,20.366-1.922,30.536-.947,5.066.486,10.061,1.458,14.937,2.915,4.781,1.429,9.51,3.13,14.514,3.582,9.445.853,17.662-4.217,24.7-9.947,15.509-12.627,28.896-27.751,41.99-42.793,1.625-1.867,3.247-3.737,4.869-5.608,1.259-1.453-.854-3.583-2.121-2.121-12.756,14.713-25.558,29.479-40.054,42.528-6.481,5.834-13.572,12.404-22.3,14.478-4.668,1.109-9.344.356-13.895-.918-4.726-1.323-9.333-2.951-14.159-3.898-19.724-3.874-39.5.023-59.127,2.416-9.34,1.139-19.023,1.64-28.082-1.36-8.069-2.672-14.775-8.054-18.093-15.999-3.504-8.39-4.147-18.166-3.895-27.157.266-9.491,2.022-18.917,5.174-27.873.781-2.218,1.649-4.404,2.603-6.553.776-1.749-1.808-3.277-2.59-1.514h0Z" fill="#315dff"/>
          <path d="M577.392,525.283c20.255-8.425,40.854-16.888,62.627-20.435,10.633-1.732,21.544-2.172,32.24-.73,9.343,1.259,18.459,3.893,27.317,7.066,17.883,6.404,34.888,15.117,53.05,20.763,8.84,2.748,17.969,4.715,27.234,5.178,10.112.505,20.174-1.026,29.886-3.796,20.287-5.785,38.943-16.077,58.977-22.617,20.253-6.612,41.331-10.525,62.557-12.175,21.345-1.659,42.837-1.082,64.112,1.216,10.488,1.133,20.946,2.665,31.308,4.647,10.044,1.921,20.116,4.389,29.45,8.654,8.753,3.999,16.507,9.617,22.99,16.73,6.343,6.96,11.368,15.036,15.465,23.491,9.311,19.214,13.452,40.332,19.243,60.744,1.471,5.183,3.054,10.335,4.838,15.419.635,1.81,3.534,1.031,2.893-.798-7.373-21.012-11.088-43.132-18.898-64.001-6.574-17.566-16.262-34.606-31.422-46.123-16.459-12.503-37.678-16.321-57.624-19.376-21.378-3.275-43.024-4.944-64.655-4.476-21.421.463-42.847,3.019-63.658,8.174-10.397,2.575-20.627,5.811-30.599,9.721-9.88,3.874-19.524,8.32-29.396,12.214-9.733,3.839-19.757,7.173-30.146,8.662-9.574,1.372-19.297.874-28.762-1.022-18.699-3.746-36.028-12.141-53.572-19.304-8.835-3.607-17.8-6.976-27.055-9.351-9.856-2.528-19.972-3.763-30.15-3.446-22.204.691-43.603,7.839-64.071,15.957-5.014,1.989-9.998,4.05-14.978,6.121-1.757.731-.986,3.635.798,2.893h0Z" fill="#315dff"/>
          <path d="M702.865,592.834c13.708-12.567,27.727-25.39,44.74-33.349,15.086-7.058,33.248-9.631,49.086-3.484,8.244,3.2,14.672,9.005,20.403,15.591,5.865,6.74,11.205,13.98,18.341,19.473,3.415,2.628,7.179,4.818,11.296,6.14,4.453,1.429,9.117,1.584,13.716.863,4.951-.775,9.688-2.523,14.323-4.375,4.516-1.805,8.971-3.759,13.374-5.822,17.587-8.24,34.314-18.163,51.712-26.777,16.072-7.958,32.759-14.671,50.55-17.528,16.284-2.615,33.478-2.118,48.998,3.872,7.745,2.989,15.119,7.424,21.095,13.214,3.217,3.117,5.984,6.674,7.946,10.714,2.032,4.184,3.137,8.82,3.648,13.428,1.039,9.381.198,19.08-1.258,28.372-1.5,9.575-3.911,18.991-6.932,28.195-6.067,18.481-14.546,36.055-23.439,53.315-2.177,4.226-4.384,8.436-6.594,12.645-.897,1.708,1.691,3.226,2.59,1.514,9.199-17.514,18.346-35.113,25.589-53.548,7.144-18.182,12.339-37.279,13.305-56.865.466-9.453-.008-19.26-4.04-27.979-3.742-8.094-10.571-14.405-17.939-19.21-14.077-9.179-31.116-12.582-47.741-12.111-17.535.497-34.653,5.04-50.765,11.795-18.178,7.62-35.244,17.521-52.693,26.623-8.745,4.562-17.604,8.941-26.74,12.671-9.086,3.71-18.918,7.278-28.654,3.852-8.413-2.96-14.915-9.674-20.57-16.3-5.959-6.983-11.574-14.431-19.225-19.687-14.163-9.731-32.786-10.319-48.883-5.725-17.978,5.131-33.213,16.837-47.026,29.018-3.484,3.072-6.911,6.208-10.335,9.347-1.426,1.307.7,3.425,2.121,2.121h0Z" fill="#315dff"/>
          <path d="M970.526,329.962c-8.909,24.907-18.011,50.601-18.065,77.383-.024,11.864,1.529,24.285,7.231,34.867,5.585,10.367,15.276,17.155,25.884,21.731,20.63,8.9,43.23,11.625,64.534,18.416,10.344,3.297,20.427,7.616,29.282,13.976,9.437,6.778,16.914,15.86,22.74,25.852,2.919,5.005,5.46,10.236,7.671,15.59,2.369,5.738,4.286,11.642,6.512,17.434,4.072,10.594,9.733,21.373,19.952,27.197,2.316,1.32,4.817,2.313,7.413,2.917,1.878.437,2.68-2.455.798-2.893-11.147-2.594-18.393-12.411-22.894-22.297-2.619-5.752-4.546-11.786-6.75-17.701-2.002-5.373-4.254-10.661-6.853-15.775-5.164-10.159-11.777-19.74-20.254-27.422-8.037-7.283-17.567-12.564-27.62-16.519-20.49-8.061-42.561-10.814-63.399-17.762-10.555-3.519-21.339-8.147-28.986-16.52-7.831-8.573-10.929-20.378-11.882-31.69-2.222-26.388,5.699-52.224,14.325-76.826,1.073-3.059,2.162-6.112,3.254-9.164.651-1.821-2.246-2.605-2.893-.798h0Z" fill="#315dff"/>
          <path d="M679.282,412.662c4.23,12.454,10.109,27.703,24.525,31,6.932,1.585,13.794-.809,19.702-4.376,6.108-3.687,11.632-8.393,17.193-12.84,11.008-8.803,22.051-17.829,34.744-24.132,13.52-6.714,28.732-9.437,43.73-7.483,14.852,1.935,28.832,10.172,44.13,7.987,14.335-2.048,26.439-11.692,37.713-20.073,11.85-8.809,23.402-18.011,34.847-27.338,11.469-9.347,22.835-18.822,34.312-28.16,11.462-9.326,23.037-18.52,34.931-27.291,11.847-8.736,24.011-17.057,36.629-24.645,3.081-1.853,6.19-3.66,9.324-5.422,1.683-.946.172-3.539-1.514-2.59-25.444,14.307-48.943,31.731-71.707,49.931-22.775,18.208-44.88,37.249-67.967,55.068-5.701,4.4-11.461,8.724-17.301,12.937-5.807,4.189-11.775,8.272-18.331,11.212-6.501,2.916-13.45,4.295-20.565,3.551-7.569-.792-14.789-3.523-22.07-5.577-14.532-4.099-29.89-4.319-44.41.012-13.434,4.007-25.282,11.752-36.326,20.192-5.494,4.199-10.846,8.579-16.269,12.868-5.53,4.374-11.179,9.146-17.759,11.864-3.092,1.277-6.405,2.014-9.76,1.784-3.195-.219-6.244-1.423-8.921-3.141-5.861-3.761-9.621-9.843-12.306-16.122-1.398-3.271-2.536-6.648-3.679-10.014-.618-1.818-3.516-1.038-2.893.798h0Z" fill="#315dff"/>
        </g>
        <g>
          <path d="M862.098,582.078c39.754-20.021,86.388-42.459,124.487-65.354-33.592-23.585-82.878-56.226-124.487-81.22h0c-.575,49.743.017,101.234,0,146.574Z" fill="#ffd049"/>
          <path d="M864.369,585.964c41.849-21.062,84.262-41.256,124.487-65.354,3.072-1.841,2.724-5.861,0-7.771-40.549-28.443-82.042-55.689-124.487-81.22-2.962-1.782-6.733.52-6.771,3.886-.55,48.858.01,97.716,0,146.574-.001,5.791,8.999,5.801,9,0,.01-48.859-.55-97.717,0-146.574l-6.771,3.886c42.445,25.531,83.938,52.778,124.487,81.22v-7.771c-40.225,24.098-82.638,44.292-124.487,65.354-5.175,2.604-.623,10.371,4.542,7.771Z" fill="#ffd049"/>
        </g>
      </g>
    </g>
    <g>
      <path d="M227.795,506.823c-32.196,36.528-50.984,85.575-49.328,134.513,1.753,51.78,32.614,102.789,84.62,116.75,28.434,7.633,59.299,5.575,88.264,2.734,16.6-1.628,33.131-3.898,49.653-6.169,3.191-.439,6.382-.881,9.573-1.32,1.915-.264,3.83-.528,5.745-.789.527-.072,6.886-.926,2.079-.286,7.661-1.021,15.327-1.999,23.007-2.863,26.815-3.018,53.946-4.779,80.905-5.912,13.346-.561,26.718-.751,40.066-.155,6.557.293,13.106.781,19.627,1.526,1.231.141,5.187.521.277-.009,1.66.18,3.322.482,4.969.751,3.812.622,7.608,1.347,11.376,2.196,10.203,2.299,19.829,5.785,29.565,9.5-.089-.034-5.142-2.258-2.151-.888,1.286.589,2.581,1.156,3.86,1.761,2.306,1.09,4.584,2.237,6.83,3.446,4.38,2.357,8.637,4.947,12.724,7.782.651.451,1.298.909,1.94,1.373,4.659,3.365-2.302-1.996.556.371,2.072,1.717,4.137,3.429,6.119,5.252,4.185,3.848,7.892,8.046,11.593,12.346,1.958,2.275-3.057-4.255-.353-.475,1.085,1.517,2.187,3.018,3.228,4.567,1.751,2.606,3.395,5.283,4.938,8.017,1.618,2.868,3.122,5.798,4.514,8.783.408.876,2.843,5.59.423.79.97,1.923,1.61,4.101,2.345,6.123,3.741,10.297,14.442,18.353,25.832,14.667,10.12-3.275,18.683-14.778,14.667-25.832-8.383-23.073-21.164-44.519-39.822-60.775-15.373-13.394-32.711-22.856-51.707-30.044-47.32-17.906-99.582-14.308-149.055-10.78-29.551,2.107-58.785,5.405-88.135,9.456-3.51.484-7.02.97-10.531,1.449-.528.072-6.886.92-2.077.284-1.277.169-2.553.339-3.83.506-7.656,1.001-15.319,1.944-22.996,2.764-14.695,1.57-29.45,2.688-44.232,2.898-6.577.093-13.162.015-19.726-.436-1.776-.122-3.551-.27-5.322-.45-.054-.005-5.801-.802-2.498-.271s-2.418-.448-2.46-.456c-2.317-.424-4.623-.915-6.909-1.486-2.852-.713-5.675-1.545-8.449-2.517-.689-.241-6.024-2.534-1.557-.49-1.343-.615-2.677-1.24-3.99-1.916-2.175-1.12-4.296-2.342-6.361-3.652-1.237-.785-2.416-1.649-3.639-2.452-1.833-1.352-1.584-1.136.746.648-.764-.606-1.517-1.224-2.259-1.855-4.119-3.504-7.742-7.417-11.302-11.473-2.47-2.814.171.422.541.786-.994-.978-1.803-2.445-2.593-3.591-1.823-2.644-3.519-5.373-5.093-8.172-1.337-2.377-2.585-4.803-3.74-7.274-.648-1.386-3.172-4.654-.263-.448-.644-.93-.946-2.41-1.338-3.48-1.966-5.363-3.525-10.871-4.668-16.467-.297-1.456-.524-2.922-.802-4.38-.901-4.725.544,5.14-.051-.338-.228-2.099-.399-4.204-.521-6.311-.289-4.995-.302-10.006-.088-15.004.106-2.484.27-4.967.488-7.444.112-1.276.238-2.552.379-3.825.095-.862.197-1.724.304-2.585-.471,3.41-.542,3.962-.214,1.658.846-5.433,1.857-10.829,3.153-16.174,1.482-6.113,3.28-12.15,5.388-18.076.501-1.409,1.02-2.812,1.557-4.209.451-1.172,2.296-7.515.754-2.001.801-2.863,2.591-5.745,3.914-8.396,3.079-6.169,6.529-12.153,10.339-17.9,1.762-2.658,3.53-5.676,5.676-8.033-3.427,3.764.302-.345.833-.995,1.428-1.745,2.9-3.45,4.391-5.141,7.26-8.237,8.717-21.696,0-29.698-7.948-7.296-21.942-8.801-29.698,0h0Z" fill="#ffd049"/>
      <g>
        <path d="M401.767,518.343c-24.945-12.715-57.012-27.056-79.866-41.844-30.889-19.986-72.92-34.542-75.561-58.231-1.537-13.786,7.406-34.461,14.972-38.764,13.211-7.512,42.669-8.214,54.605-7.475,19.777-.492,376.152,13.778,398.392,18.354,42.597,8.766,66.456,42.08,74.899,77.26,11.101,46.258,2.282,98.323-15.925,130.438-26.434,46.626-105.246,54.967-158.023,24.783-48.991-28.019-176.111-85.468-213.494-104.522Z" fill="#ff4355"/>
        <path d="M763.65,577.339c16.342-31.701,18.994-75.29,7.381-113.686-11.48-37.956-44.011-61.39-92.677-59.005-37.029,1.815-63.997,22.555-78.316,54.421-14.319,31.865-14.658,70.967-3.256,103.839,9.637,27.784,40.419,59.009,81.593,59.92,48.238,1.067,72.92-21.523,85.275-45.489Z" fill="#ffd049"/>
        <g>
          <path d="M748.943,509.31c-17.277-19.07-45.018-28.002-70.176-22.593-25.158,5.409-46.777,24.953-54.69,49.439,0,0,21.646,35.455,67.175,27.61,43.607-7.514,57.691-54.455,57.691-54.455Z" fill="#fff"/>
          <g clip-path="url(#clippath-2)">
            <path d="M657.201,492.339c-4.138,15.005-3.185,31.365,2.665,45.789,2.751,6.783,6.658,13.26,12.318,17.901,5.66,4.641,13.25,7.258,20.433,5.85,6.899-1.352,12.739-6.255,16.472-12.212,3.732-5.957,5.575-12.906,6.729-19.84,3.452-20.742,1.068-42.424-6.807-61.921" fill="#315dff"/>
            <path d="M668.247,480.227c-2.149,19.489-1.901,40.657,9.238,56.792,2.835,4.107,6.878,8.037,11.866,8.186,7.147.212,12.612-6.894,14.658-13.745,6.956-23.281,1.755-45.552-5.321-69.119"/>
            <path d="M705.091,507.23c7.721,0,7.734-12,0-12s-7.734,12,0,12h0Z" fill="#fff"/>
          </g>
        </g>
        <path d="M656.543,391.191c-18.121,3.081-34.904,11.98-48.46,24.279-14.321,12.993-24.717,29.78-31.339,47.865-3.82,10.432-6.339,21.279-7.813,32.282-.109.81.767,1.492,1.5,1.5.899.009,1.393-.7,1.5-1.5,2.547-19.005,8.552-37.713,18.588-54.112,9.494-15.514,22.696-28.694,38.662-37.502,8.77-4.838,18.28-8.238,28.16-9.918,1.899-.323,1.094-3.214-.798-2.893h0Z" fill="#14162b"/>
        <path d="M297.347,390.855c15.839,2.074,31.675,4.175,47.496,6.388,19.862,2.778,39.703,5.713,59.502,8.91,20.554,3.319,41.07,6.904,61.478,11.032,9.455,1.913,18.887,3.944,28.274,6.169,9.57,2.268,19.186,4.561,28.27,8.406,7.958,3.369,15.528,7.848,21.836,13.796,5.761,5.432,10.29,11.974,13.527,19.192.824,1.838,1.548,3.717,2.209,5.619.63,1.812,3.529,1.033,2.893-.798-2.692-7.75-6.586-15.005-11.9-21.279-5.487-6.478-12.369-11.686-19.836-15.678-8.81-4.71-18.314-7.716-27.968-10.143-9.208-2.314-18.47-4.407-27.759-6.37-20.529-4.337-41.187-8.051-61.886-11.477-20.31-3.362-40.669-6.427-61.052-9.317-16.712-2.37-33.442-4.613-50.178-6.808-1.635-.215-3.271-.429-4.906-.643-.81-.106-1.492.766-1.5,1.5-.009.897.7,1.395,1.5,1.5h0Z" fill="#14162b"/>
        <path d="M427.255,387.571c16.162,1.507,32.468,1.803,48.682,2.369,20.664.721,41.334,1.339,61.986,2.366,9.075.451,18.159.947,27.203,1.832,1.92.188,1.907-2.813,0-3-17.895-1.751-35.927-2.294-53.887-2.963-20.171-.751-40.349-1.316-60.514-2.198-7.826-.343-15.668-.678-23.47-1.406-1.921-.179-1.909,2.822,0,3h0Z" fill="#eb99ff"/>
        <path d="M570.733,538.265c2.033,21.181,9.598,41.73,21.821,59.156,3.461,4.934,7.282,9.613,11.428,13.987,1.331,1.404,3.45-.72,2.121-2.121-14.234-15.019-24.406-33.72-29.407-53.793-1.411-5.662-2.406-11.42-2.963-17.229-.183-1.905-3.185-1.924-3,0h0Z" fill="#14162b"/>
        <g>
          <path d="M620.76,492.912c1.525.796,3.004,1.676,4.426,2.643,1.486,1.01,2.545,1.832,3.899,3.009.591.515,1.547.625,2.121,0,.518-.565.632-1.571,0-2.121-2.731-2.377-5.722-4.445-8.932-6.121-.695-.363-1.662-.201-2.052.538-.365.69-.205,1.665.538,2.052h0Z"/>
          <path d="M640.708,467.91c2.414,3.308,4.829,6.617,7.243,9.925.477.653,1.303.977,2.052.538.645-.377,1.018-1.394.538-2.052-2.414-3.308-4.829-6.617-7.243-9.925-.477-.653-1.303-.977-2.052-.538-.645.377-1.018,1.394-.538,2.052h0Z"/>
          <path d="M675.571,451.694c1.101,6.385,2.202,12.771,3.303,19.156.327,1.899,3.219,1.094,2.893-.798-1.101-6.385-2.202-12.771-3.303-19.156-.327-1.899-3.219-1.094-2.893.798h0Z"/>
          <path d="M712.644,472.519c2.576-4.442,5.152-8.884,7.728-13.326.97-1.673-1.621-3.186-2.59-1.514-2.576,4.442-5.152,8.884-7.728,13.326-.97,1.673,1.621,3.186,2.59,1.514h0Z"/>
          <path d="M741.726,486.401c1.982-3.083,3.963-6.165,5.945-9.248.425-.661.157-1.685-.538-2.052-.744-.393-1.599-.168-2.052.538-1.982,3.083-3.963,6.165-5.945,9.248-.425.661-.157,1.685.538,2.052.744.393,1.599.168,2.052-.538h0Z"/>
        </g>
      </g>
      <path d="M306.049,448.413c1.661-4.372,3.348-8.734,5.078-13.08.866-2.174,1.74-4.345,2.625-6.511.442-1.084.887-2.166,1.334-3.248.284-.686,2.236-5.368.822-1.993-1.311,3.128.178-.407.506-1.174.461-1.076.925-2.151,1.391-3.225.933-2.148,1.876-4.291,2.83-6.429,2.027-4.544,4.101-9.066,6.228-13.564,8.243-17.437,17.257-34.516,27.19-51.051,4.806-8,9.828-15.872,15.082-23.586,2.626-3.856,5.307-7.674,8.048-11.448,1.371-1.887,2.756-3.765,4.156-5.63.7-.933,1.408-1.861,2.112-2.791,3.481-4.598-2.121,2.634-.002.014,11.422-14.121,23.231-27.843,36.065-40.712,6.321-6.339,12.846-12.476,19.592-18.362,3.264-2.847,6.581-5.633,9.951-8.354,1.377-1.112,6.114-5.657,1.511-1.256,1.525-1.458,3.47-2.629,5.177-3.879,14.216-10.417,29.387-19.602,45.47-26.842.233-.105,2.432-1.343,2.913-1.287-1.896-.221-4.175,1.703-1.33.571,1.972-.785,3.943-1.569,5.933-2.307,4.231-1.571,8.515-3,12.843-4.278,8.519-2.517,17.213-4.381,25.964-5.887,2.126-.366,4.257-.69,6.388-1.023,3.747-.585-1.405.567-1.598.191.036.07,3.41-.423,3.183-.396,4.481-.532,8.975-.95,13.477-1.252,8.595-.578,17.218-.73,25.827-.421,3.853.138,7.703.372,11.545.701,2.035.174,4.068.375,6.097.603,1.011.114,2.021.245,3.032.362,3.087.358-5.515-.832-1.103-.128,8.196,1.307,16.314,2.932,24.322,5.124,3.84,1.051,7.649,2.214,11.419,3.492s7.958,3.774,11.828,4.439c-4.343-.746-3.578-1.563-1.639-.671.898.413,1.806.805,2.705,1.218,1.797.826,3.58,1.681,5.349,2.563,3.763,1.876,7.46,3.884,11.085,6.014,3.423,2.012,6.779,4.135,10.063,6.366,1.442.98,2.871,1.979,4.284,3.001.809.586,1.606,1.188,2.413,1.775,4.318,3.142-4.227-3.488-.106-.071,6.268,5.198,12.317,10.577,17.935,16.482,2.558,2.689,5.057,5.444,7.429,8.299.388.467.761.951,1.154,1.415,2.195,2.591-2.26-2.889-2.057-2.686,1.052,1.057,1.88,2.528,2.735,3.749,2.927,4.179,5.588,8.542,8.042,13.014,2.658,4.843,5.068,9.821,7.297,14.876.278.63.546,1.264.824,1.893,1.135,2.56-2.259-5.465-1.205-2.861.525,1.298,1.063,2.589,1.58,3.891,1.116,2.811,2.186,5.64,3.218,8.483,4.197,11.567,7.774,23.351,11.114,35.19,6.999,24.807,12.948,49.899,20.24,74.625,14.684,49.792,35.873,102.682,81.958,131.297,4.791,2.975,9.817,5.524,15.009,7.721,6.208,2.626,11.689,4.293,18.493,2.419,5.567-1.533,11.6-5.837,14.343-11.029,5.427-10.271,3.736-27.614-8.61-32.837-5.511-2.331-10.833-5.064-15.887-8.272-2.324-1.475-4.56-3.064-6.782-4.685-3.016-2.201,5.098,4.107.831.583-1.315-1.086-2.605-2.202-3.869-3.347-4.188-3.792-8.088-7.896-11.712-12.228-.887-1.06-1.739-2.146-2.61-3.22-1.749-2.155,3.476,4.637,1.85,2.381-.407-.565-.832-1.117-1.242-1.679-1.757-2.41-3.442-4.873-5.059-7.379-3.305-5.122-6.327-10.423-9.119-15.84-1.344-2.606-2.634-5.24-3.877-7.896-.628-1.342-1.244-2.69-1.848-4.042-.841-1.882-3.379-8.286-.248-.439-4.706-11.796-9.022-23.675-12.782-35.81-15.466-49.907-23.78-102.758-47.253-149.879-13.683-27.468-35.39-49.62-60.412-67.072-30.303-21.135-65.951-32.304-102.374-36.517-17.57-2.032-35.347-2.003-52.938-.238-19.42,1.948-38.978,5.108-57.548,11.259-37.219,12.327-70.171,33.841-99.396,59.681-60.056,53.1-102.094,122.146-132.843,195.472-3.732,8.901-7.299,17.868-10.726,26.89-4.468,11.76,4.943,26.831,16.763,29.523,13.683,3.117,24.739-4.171,29.523-16.763h0Z" fill="#eb99ff"/>
      <g>
        <path d="M221.627,522.868c-20.799-21.192-60.098-58.984-72.788-73.57-13.341-15.334-15.454-27.449-3.427-49.188,4.392-7.939,10.289-15.391,18.338-19.578,6.615-3.441,14.394-4.45,21.746-3.203,17.409,2.974,278.375,40.784,301.558,45.554,44.402,9.137,69.272,43.863,78.072,80.534,11.571,48.218,2.379,102.489-16.6,135.965-27.554,48.601-109.705,57.296-164.719,25.833-51.067-29.206-131.545-111.132-162.181-142.347Z" fill="#ff4355"/>
        <path d="M538.485,617.761c17.035-33.044,19.799-78.48,7.694-118.503-11.966-39.564-45.875-63.991-96.604-61.505-38.598,1.892-66.709,23.511-81.634,56.727-14.926,33.216-15.279,73.975-3.394,108.239,10.045,28.961,42.132,61.509,85.05,62.459,50.282,1.112,76.01-22.435,88.888-47.416Z" fill="#ffd049"/>
        <g>
          <path d="M523.155,546.849c-18.009-19.879-46.926-29.188-73.15-23.55-26.224,5.638-48.76,26.01-57.007,51.533,0,0,22.563,36.957,70.022,28.78,45.455-7.832,60.136-56.763,60.136-56.763Z" fill="#fff"/>
          <g clip-path="url(#clippath-3)">
            <path d="M427.526,529.159c-4.313,15.641-3.32,32.695,2.778,47.729,2.868,7.07,6.941,13.822,12.84,18.659s13.812,7.566,21.299,6.098c7.191-1.41,13.279-6.52,17.17-12.729,3.891-6.21,5.811-13.453,7.014-20.681,3.598-21.621,1.114-44.222-7.095-64.545" fill="#315dff"/>
            <path d="M439.039,516.534c-2.24,20.315-1.982,42.38,9.63,59.199,2.956,4.281,7.169,8.378,12.369,8.532,7.45.221,13.146-7.187,15.28-14.328,7.251-24.268,1.83-47.482-5.547-72.048"/>
          </g>
          <path d="M479.191,544.265c7.721,0,7.734-12,0-12s-7.734,12,0,12h0Z" fill="#fff"/>
        </g>
        <path d="M426.856,423.787c-18.877,3.208-36.356,12.478-50.479,25.285-14.89,13.503-25.712,30.952-32.611,49.746-4.003,10.907-6.646,22.25-8.188,33.757-.108.81.767,1.492,1.5,1.5.899.009,1.393-.7,1.5-1.5,2.662-19.869,8.948-39.421,19.457-56.555,9.917-16.171,23.716-29.91,40.384-39.069,9.11-5.006,18.982-8.529,29.235-10.272,1.899-.323,1.094-3.214-.798-2.893h0Z" fill="#14162b"/>
        <path d="M177.607,430.714c27.211,17.999,54.423,35.999,81.634,53.998l22.908,15.153c1.615,1.068,3.119-1.529,1.514-2.59-27.211-17.999-54.423-35.999-81.634-53.998l-22.908-15.153c-1.615-1.068-3.119,1.529-1.514,2.59h0Z" fill="#eb99ff"/>
        <path d="M233.734,410.159c29.116,6.484,58.232,12.967,87.348,19.451,8.133,1.811,16.266,3.622,24.399,5.433,1.881.419,2.684-2.473.798-2.893-29.116-6.484-58.232-12.967-87.348-19.451-8.133-1.811-16.266-3.622-24.399-5.433-1.881-.419-2.684,2.473-.798,2.893h0Z" fill="#eb99ff"/>
        <path d="M259.162,442.926c19.253,8.643,38.714,16.824,58.365,24.521,5.602,2.194,11.219,4.348,16.85,6.464,1.809.68,2.591-2.219.798-2.893-19.589-7.362-39.002-15.191-58.208-23.5-5.447-2.357-10.877-4.752-16.291-7.182-1.747-.784-3.274,1.8-1.514,2.59h0Z" fill="#eb99ff"/>
        <path d="M225.427,499.651c11.251,8.427,22.13,17.341,32.618,26.701,1.436,1.282,3.565-.833,2.121-2.121-10.679-9.531-21.769-18.59-33.225-27.17-1.546-1.158-3.043,1.445-1.514,2.59h0Z" fill="#eb99ff"/>
        <path d="M337.457,577.031c2.114,22.031,9.977,43.414,22.679,61.548,3.62,5.169,7.619,10.07,11.96,14.649,1.331,1.404,3.45-.72,2.121-2.121-14.871-15.689-25.491-35.236-30.697-56.21-1.457-5.872-2.486-11.843-3.064-17.865-.183-1.905-3.185-1.924-3,0h0Z" fill="#14162b"/>
        <g>
          <path d="M388.444,535.114c3.196,1.411,6.215,3.193,8.995,5.31.627.477,1.705.119,2.052-.538.418-.792.131-1.543-.538-2.052-2.78-2.117-5.798-3.898-8.995-5.31-.716-.316-1.645-.233-2.052.538-.344.651-.228,1.714.538,2.052h0Z"/>
          <path d="M406.983,509.128c2.626,3.143,5.251,6.287,7.877,9.43.505.605,1.607.561,2.121,0,.59-.643.539-1.476,0-2.121-2.626-3.143-5.251-6.287-7.877-9.43-.505-.605-1.607-.561-2.121,0-.59.643-.539,1.476,0,2.121h0Z"/>
          <path d="M440.5,490.353c1.516,6.3,3.032,12.599,4.548,18.899.452,1.876,3.345,1.082,2.893-.798-1.516-6.3-3.032-12.599-4.548-18.899-.452-1.876-3.345-1.082-2.893.798h0Z"/>
          <path d="M478.837,508.889c2.28-4.601,4.56-9.202,6.839-13.803.36-.726.195-1.624-.538-2.052-.663-.388-1.691-.191-2.052.538l-6.839,13.803c-.36.726-.195,1.624.538,2.052.663.388,1.691.191,2.052-.538h0Z"/>
          <path d="M508.765,520.839c1.776-3.206,3.552-6.411,5.327-9.617.38-.686.189-1.668-.538-2.052-.705-.373-1.646-.195-2.052.538-1.776,3.206-3.552,6.411-5.327,9.617-.38.686-.189,1.668.538,2.052.705.373,1.646.195,2.052-.538h0Z"/>
        </g>
      </g>
    </g>
    <path d="M1064.106,498.69c19.125,22.118,43.346,40.004,71.52,48.607,27.256,8.322,58.431,7.305,85.56-1.071,48.742-15.048,86.185-53.67,121.772-88.296,8.026-7.809,16.074-15.604,24.422-23.069,3.949-3.531,7.967-6.989,12.104-10.301.422-.338.863-.661,1.274-1.012,1.897-1.618-3.197,2.437-2.743,2.107.991-.72,1.952-1.481,2.94-2.206,1.904-1.398,3.838-2.757,5.809-4.059,3.516-2.323,7.149-4.486,10.939-6.334.785-.383,1.612-.705,2.384-1.112-7.086,3.733-4.244,1.737-2.19.972,1.957-.729,3.947-1.312,5.965-1.845,16.76-4.423,33.768-8.045,50.876-10.832,1.869-.304,3.739-.599,5.611-.882,1.248-.189,2.497-.367,3.745-.551.543-.08,3.741-.503.559-.089-3.219.419,2.478-.305,3.377-.413,2.502-.301,5.007-.581,7.515-.839,8.447-.87,16.92-1.495,25.404-1.839,17.22-.699,34.498-.246,51.635,1.62,1.868.203,3.732.44,5.598.66,2.857.338-1.632-.258-1.723-.23.653-.202,2.878.424,3.72.555,4.342.676,8.669,1.446,12.977,2.315,6.885,1.389,13.714,3.046,20.467,4.977,6.66,1.904,13.244,4.072,19.732,6.498,1.683.629,3.359,1.278,5.028,1.943.838.334,5.608,2.299,2.118.841-3.669-1.534,1.924.868,2.778,1.254,1.87.845,3.729,1.713,5.578,2.604,12.431,5.991,24.372,13.02,35.571,21.087,1.239.893,2.461,1.807,3.689,2.715,3.34,2.47-3.739-2.993.561.459,2.771,2.224,5.486,4.516,8.142,6.876,5.11,4.542,9.999,9.335,14.623,14.371,2.396,2.61,4.722,5.284,6.97,8.022.961,1.17,1.851,2.42,2.85,3.556.053.061-2.966-3.978-1.444-1.839.734,1.032,1.512,2.035,2.251,3.065,4.13,5.754,7.924,11.744,11.356,17.94,1.872,3.38,3.638,6.818,5.297,10.307.765,1.61,1.493,3.237,2.228,4.861,2.081,4.598-.354-.807-.326-.813.097-.02,1.216,3.041,1.322,3.311,2.91,7.485,5.368,15.144,7.399,22.913,2.117,8.095,3.59,16.271,4.97,24.515.461,2.754-.265-1.845-.248-1.952-.12.745.235,1.908.323,2.662.241,2.071.457,4.145.644,6.222.346,3.85.604,7.708.767,11.57.593,14.127-.524,27.957-1.876,41.994.047-.492.875-5.929.208-1.748-.123.77-.235,1.541-.358,2.311-.245,1.54-.504,3.077-.778,4.612-.684,3.838-1.455,7.66-2.315,11.463-1.548,6.845-3.379,13.627-5.484,20.322-2.107,6.701-4.531,13.278-7.129,19.803-1.592,3.999,2.103-4.776-.316.727-.627,1.427-1.267,2.848-1.92,4.264-1.523,3.302-3.117,6.571-4.781,9.805-6.544,12.721-14.215,24.734-22.728,36.22-2.651,3.577,2.757-3.386-.061.059-1.149,1.405-2.278,2.825-3.44,4.219-2.325,2.787-4.713,5.522-7.163,8.2-4.728,5.169-9.685,10.126-14.858,14.849-2.495,2.278-5.043,4.5-7.638,6.664-1.407,1.173-2.839,2.314-4.261,3.468-.515.418-2.704,2.121-.047.053,2.797-2.177-.127.071-.696.495-5.875,4.369-11.96,8.453-18.223,12.243-6.04,3.655-12.245,7.038-18.588,10.139-3.057,1.494-6.173,2.85-9.258,4.283-2.446,1.136,2.191-.96,2.126-.875-.294.383-2.663,1.095-2.904,1.192-1.699.685-3.406,1.349-5.119,1.994-13.465,5.075-27.38,8.956-41.528,11.584-3.345.621-6.703,1.126-10.063,1.65-2.721.424,2.613-.34,2.494-.334-.775.042-1.564.192-2.336.282-2.077.241-4.156.456-6.239.643-7.023.631-14.074.955-21.126.96s-14.092-.309-21.109-.945c-1.819-.165-3.636-.35-5.45-.559-.777-.089-1.553-.195-2.331-.282-2.685-.299,2.548.37,2.501.338-1.145-.789-3.968-.601-5.414-.844-1.802-.303-3.6-.627-5.393-.975-14.864-2.881-29.333-7.396-43.372-13.044-.803-.323-1.604-.653-2.406-.979-2.27-.922-1.37-1.743.946.4-1.052-.973-3.433-1.5-4.756-2.094-3.691-1.657-7.354-3.376-10.995-5.141-7.04-3.413-13.991-7.008-20.895-10.688-14.113-7.522-28.026-15.41-42.136-22.936-29.647-15.815-60.662-30.065-93.708-36.996-33.743-7.077-69.799-7.979-102.965,2.547-28.072,8.909-55.075,25.137-73.897,48.071-10.409,12.683-18.097,25.863-23.927,41.209-4.468,11.76,4.943,26.831,16.763,29.523,13.683,3.117,24.739-4.171,29.523-16.763.259-.683.539-1.361.789-2.047,1.07-2.94-2.071,4.518-.72,1.702.629-1.311,1.214-2.641,1.863-3.943,1.617-3.243,3.401-6.402,5.339-9.463.775-1.223,1.574-2.43,2.396-3.622.536-.777,4.044-5.433,1.543-2.245-2.383,3.037.714-.832,1.299-1.526,1.246-1.481,2.529-2.93,3.846-4.348,4.508-4.852,9.509-8.963,14.484-13.298-5.107,4.451-.971.805.43-.186s2.814-1.954,4.249-2.889c2.875-1.875,5.821-3.643,8.827-5.298,2.797-1.54,5.646-2.984,8.54-4.332,1.608-.749,6.829-2.455.342-.242,1.621-.553,3.197-1.276,4.806-1.87,6.486-2.392,13.141-4.308,19.905-5.732,1.757-.37,3.52-.709,5.289-1.019.883-.155,1.769-.292,2.652-.444,4.6-.789-.545.276-1.061.108,1.258.409,3.983-.451,5.335-.574,2.374-.217,4.753-.384,7.133-.501,8.345-.413,16.717-.223,25.04.488,1.789.153,3.576.33,5.36.531.893.1,1.784.219,2.677.32,3.46.392-4.464-.732-1.035-.117,4.142.743,8.293,1.38,12.414,2.244,7.959,1.669,15.829,3.756,23.584,6.201,7.922,2.498,16.137,5.094,23.649,8.671-.074-.035-4.212-1.835-1.732-.717.793.357,1.596.693,2.391,1.044,1.856.82,3.705,1.657,5.548,2.507,3.688,1.701,7.349,3.459,10.989,5.261,28.632,14.172,55.864,31.025,84.756,44.689,30.589,14.467,61.672,24.417,95.426,27.712,29.837,2.913,60.565-.04,89.546-7.574,60.741-15.789,113.194-53.073,148.98-104.432,34.089-48.922,51.828-110.772,48.349-170.337-2.083-35.656-10.817-70.847-27.874-102.365-15.016-27.747-36.639-50.806-61.565-69.849-50.622-38.674-115.17-55.113-178.158-55.091-36.096.013-72.325,5.176-107.466,13.213-12.874,2.945-25.284,5.933-37.064,12.096-9.647,5.047-18.353,11.862-26.785,18.681-17.497,14.148-33.224,30.399-49.384,46.015-8.877,8.579-17.85,17.066-27.154,25.183-4.712,4.111-9.536,8.076-14.411,11.992-3.29,2.643,4.035-3.026.666-.508-1.231.92-2.455,1.85-3.694,2.759-2.456,1.802-4.941,3.563-7.463,5.272-4.763,3.227-9.648,6.279-14.678,9.074-2.55,1.417-5.136,2.769-7.76,4.043-1.112.54-2.231,1.066-3.357,1.578-.56.254-1.13.489-1.686.751-2.641,1.243,5.524-2.183,1.782-.762-5.086,1.931-10.188,3.7-15.48,4.99-3.132.764-6.3,1.401-9.476,1.957-.809.142-7.074,1.071-2.876.501,4.125-.56-2.596.237-3.519.316-6.441.553-12.923.655-19.374.217-1.618-.11-3.228-.316-4.845-.433-2.677-.194,3.247.483,2.962.429-.671-.127-1.358-.201-2.033-.309-3.355-.538-6.687-1.229-9.977-2.077-2.832-.73-5.633-1.578-8.396-2.537-1.275-.442-2.541-.908-3.799-1.398-4.922-1.916,4.312,1.991-.494-.23-5.63-2.601-11.034-5.675-16.185-9.128-1.369-.918-2.718-1.866-4.051-2.837-4.365-3.18,2.909,2.45-.269-.172-2.459-2.028-4.89-4.074-7.24-6.229-5.128-4.702-9.906-9.754-14.455-15.015-8.24-9.53-25.607-9.079-33.941,0-9.32,10.153-8.789,23.776,0,33.941h0Z" fill="#ff4355"/>
    <g>
      <path d="M1449.635,654.779c-29.158-11.245-76.065-27.806-97.328-43.687-5.939-4.436-11.815-9.58-14.419-16.521-2.471-6.587-2.257-14.022-.577-20.853,14.382-58.47,37.564-111.716,58.549-167.017,25.597-67.454,41.211-117.565,79.146-187.376,3.954-7.276,11.467-12.417,19.232-15.292,5.946-2.202,12.544-3.139,18.784-2.014,16.42,2.96,97.548,32.363,140.318,48.375,21.064,7.886,92.022,34.184,109.585,48.234,4.951,3.961,9.781,8.317,12.803,13.891,3.947,7.279,6.212,16.097,4.392,24.175-17.459,77.51-37.86,123.178-63.047,190.786-20.649,55.427-38.292,110.756-65.997,164.217-3.237,6.246-7.975,11.98-14.174,15.307-6.532,3.506-14.396,3.998-21.732,2.928-19.194-2.801-115.415-35.823-165.537-55.152Z" fill="#eb99ff"/>
      <rect x="1436.434" y="285.653" width="248.539" height="340.343" transform="translate(260.284 -520.127) rotate(20.607)" fill="#33ff68"/>
      <rect x="1491.165" y="295.602" width="248.539" height="29.326" transform="translate(212.557 -548.703) rotate(20.607)"/>
      <path d="M1343.552,548.888c-12.055-12.001-19.78-33.17-15.314-49.584,4.838-17.781,18.7-29.477,34.693-38.632,24.463-14.003,44.057-24.692,72.954-29.151,9.309-1.436,18.332-.087,21.465,6.38,2.621,5.411.294,11.912-2.867,17.026-9.251,14.967-24.96,24.687-40.833,32.279-15.873,7.592-41.884,17.665-56.165,27.942" fill="#ffd049"/>
      <path d="M1420.696,435.372c-.466,2.962-.256,5.948,1.182,8.63,1.275,2.378,3.437,4.234,5.869,5.358,6.349,2.936,13.194,1.533,19.373-1.113,3.637-1.557,7.11-3.533,10.284-5.897,1.531-1.14.037-3.745-1.514-2.59-3.115,2.32-6.527,4.292-10.1,5.819-3.518,1.503-7.421,2.727-11.288,2.452-3.086-.219-6.304-1.25-8.521-3.492-2.2-2.225-2.869-5.337-2.392-8.369.297-1.889-2.593-2.702-2.893-.798h0Z"/>
      <circle cx="1631.025" cy="268.805" r="6.687"/>
      <circle cx="1491.638" cy="639.505" r="14.408"/>
      <g>
        <circle cx="1514.572" cy="273.204" r="6.898" fill="#33ff68"/>
        <circle cx="1539.27" cy="282.491" r="6.898" fill="#ffd049"/>
        <circle cx="1563.967" cy="291.777" r="6.898" fill="#ff4355"/>
      </g>
      <g>
        <path d="M1660.424,460.654c-3.114-12.956-9.705-25.146-17.201-36.061-8.472-12.337-18.744-23.751-31.012-32.417-12.086-8.537-26.623-13.601-41.258-15.45-14.163-1.79-28.524-.049-42.082,4.294-6.993,2.24-13.776,5.105-20.339,8.391-8.024,4.017-15.843,8.479-23.169,13.671-1.801,1.276-3.565,2.603-5.293,3.976-.348.184-.576.526-.492.989.015.112.047.221.097.325,4.396,12.348,10.829,23.944,18.668,34.434,9.101,12.178,20.302,22.903,33.234,30.947,6.732,4.187,13.975,7.738,21.517,10.208,7.097,2.324,14.527,3.617,21.97,4.121,15.222,1.031,30.686-1.135,45.262-5.535,12.956-3.911,25.759-9.607,36.455-18.01,1.128-.886,2.226-1.808,3.294-2.765.306-.274.448-.718.351-1.118Z" fill="#fff"/>
        <g>
          <path d="M1487,370.256c2.623,2.725,4.732,5.434,6.727,8.639.414.666,1.358.986,2.052.538.667-.43.982-1.34.538-2.052-2.067-3.32-4.484-6.427-7.196-9.246-.545-.566-1.581-.589-2.121,0-.558.608-.582,1.517,0,2.121h0Z"/>
          <path d="M1594.433,351.836c-1.293,4.056-2.586,8.112-3.879,12.167-.588,1.844,2.308,2.633,2.893.798,1.293-4.056,2.586-8.112,3.879-12.167.588-1.844-2.308-2.633-2.893-.798h0Z"/>
          <path d="M1634.673,371.327c-2.626,3.011-5.251,6.023-7.877,9.034-.515.591-.625,1.548,0,2.121.565.519,1.571.632,2.121,0,2.626-3.011,5.251-6.023,7.877-9.034.515-.591.625-1.548,0-2.121-.565-.519-1.571-.632-2.121,0h0Z"/>
          <path d="M1652.247,407.255c3.545-1.869,7.193-3.529,10.938-4.957.757-.288,1.277-1.011,1.048-1.845-.199-.724-1.084-1.338-1.845-1.048-3.986,1.52-7.881,3.27-11.654,5.259-.716.378-.934,1.375-.538,2.052.424.726,1.333.917,2.052.538h0Z"/>
          <path d="M1664.892,436.634c4.17-1.227,8.34-2.453,12.51-3.68,1.848-.544,1.062-3.44-.798-2.893-4.17,1.227-8.34,2.453-12.51,3.68-1.848.544-1.062,3.44.798,2.893h0Z"/>
          <path d="M1551.473,346.887c.842,4.021,1.683,8.042,2.525,12.063.166.793,1.099,1.253,1.845,1.048.823-.226,1.214-1.05,1.048-1.845-.842-4.021-1.683-8.042-2.525-12.063-.166-.793-1.099-1.253-1.845-1.048-.823.226-1.214,1.05-1.048,1.845h0Z"/>
          <path d="M1515.035,355.218c1.786,3.219,3.403,6.528,4.844,9.915.317.746,1.416.91,2.052.538.771-.451.857-1.304.538-2.052-1.442-3.387-3.058-6.696-4.844-9.915-.393-.708-1.364-.941-2.052-.538-.714.417-.933,1.341-.538,2.052h0Z"/>
        </g>
        <g clip-path="url(#clippath-4)">
          <path d="M1597.462,521.352c12.831-10.55,22.184-25.673,24.317-42.147,2.133-16.474-4.596-37.524-18.586-51.697-15.548-15.752-38.128-18.845-54.857-17.02-21.496,2.345-39.511,15.85-49.073,37.476-7.294,16.498-4.915,39.111,3.763,53.899,7.306,12.45,17.691,23.395,33.398,28.017,16.498,4.856,39.944,8.817,61.039-8.529Z" fill="#315dff"/>
          <path d="M1581.791,505.179c7.888-6.486,13.638-15.783,14.949-25.911,1.311-10.128-2.826-23.069-11.426-31.782-9.559-9.684-23.44-11.586-33.725-10.463-13.216,1.442-24.291,9.744-30.169,23.04-4.484,10.143-3.022,24.044,2.313,33.136,4.492,7.654,10.876,14.383,20.532,17.224,10.143,2.985,24.557,5.42,37.526-5.243Z"/>
          <g>
            <path d="M1551.615,451.802c2.691-2.219,4.654-5.398,5.104-8.86.45-3.462-.957-7.884-3.886-10.859-3.256-3.307-7.988-3.953-11.494-3.567-4.506.497-8.284,3.337-10.291,7.883-1.532,3.468-1.037,8.219.779,11.325,1.529,2.615,3.704,4.913,6.995,5.881,3.457,1.017,8.37,1.846,12.794-1.803Z" fill="#fff"/>
            <path d="M1552.676,452.863c4.883-4.132,6.948-10.613,4.546-16.645-2.388-5.996-7.928-9.398-14.313-9.3-5.943.091-11.024,3.595-13.308,9.082-2.349,5.643-.352,12.685,4.27,16.574,2.46,2.07,5.552,2.986,8.707,3.314,3.731.388,7.178-.704,10.098-3.026,1.511-1.201-.625-3.311-2.121-2.121-3.768,2.996-9.702,2.884-13.711.326-4.011-2.559-6.02-7.917-4.936-12.504,1.07-4.525,5.106-8.128,9.734-8.578,4.825-.469,9.534,1.323,11.998,5.655,1.295,2.277,2.003,5.059,1.508,7.668-.566,2.979-2.308,5.5-4.593,7.434-1.476,1.249.655,3.362,2.121,2.121Z" fill="#fff"/>
          </g>
        </g>
      </g>
      <path d="M1448.872,481.639c17.554,5.818,35.009,11.935,52.352,18.356,4.911,1.818,9.813,3.661,14.707,5.527,1.806.688,2.587-2.211.798-2.893-17.28-6.588-34.672-12.882-52.169-18.87-4.955-1.696-9.918-3.366-14.89-5.014-1.837-.609-2.624,2.287-.798,2.893h0Z"/>
      <path d="M1433.838,510.005c24.592,8.591,49.291,16.87,73.947,25.272,24.585,8.378,49.131,16.882,73.474,25.945,13.712,5.105,27.357,10.391,40.902,15.923,1.786.73,2.564-2.171.798-2.893-24.105-9.846-48.526-18.9-73.074-27.576s-49.119-16.945-73.718-25.3c-13.86-4.707-27.712-9.437-41.53-14.264-1.826-.638-2.611,2.259-.798,2.893h0Z"/>
      <path d="M1420.918,541.472c19.919,8.158,40.063,15.759,60.299,23.091,21.031,7.62,42.172,14.933,63.383,22.036,11.375,3.809,22.77,7.555,34.185,11.243,1.841.595,2.63-2.301.798-2.893-20.716-6.693-41.372-13.575-61.948-20.686-21.076-7.283-42.074-14.798-62.923-22.708-11.051-4.192-22.059-8.498-32.996-12.977-1.785-.731-2.563,2.17-.798,2.893h0Z"/>
    </g>
  </g>
</svg>