<?xml version="1.0" encoding="UTF-8"?>
<svg id="Art" xmlns="http://www.w3.org/2000/svg" version="1.1" xmlns:xlink="http://www.w3.org/1999/xlink" viewBox="0 0 3000 3000">
  <!-- Generator: Adobe Illustrator 30.0.0, SVG Export Plug-In . SVG Version: 2.1.1 Build 123)  -->
  <defs>
    <linearGradient id="linear-gradient" x1="1516.1791755" y1="-1082.1162013" x2="1502.9261302" y2="1033.0041314" gradientUnits="userSpaceOnUse">
      <stop offset=".3915534" stop-color="#a66cff"/>
      <stop offset=".422538" stop-color="#9963eb"/>
      <stop offset=".6228493" stop-color="#472e6e"/>
      <stop offset=".760001" stop-color="#140d1e"/>
      <stop offset=".822524" stop-color="#000"/>
    </linearGradient>
    <clipPath id="clippath">
      <rect width="3000" height="3000.0000004" fill="none"/>
    </clipPath>
    <linearGradient id="linear-gradient1" x1="533.2498772" y1="877.5388127" x2="1334.8053117" y2="877.5388127" gradientTransform="translate(333.0621797 -173.2307238) rotate(23.454785)" gradientUnits="userSpaceOnUse">
      <stop offset=".1338165" stop-color="#a66cff"/>
      <stop offset=".1701948" stop-color="#9b7bf2"/>
      <stop offset=".2766247" stop-color="#7ea4d2"/>
      <stop offset=".3809238" stop-color="#68c4b9"/>
      <stop offset=".4811745" stop-color="#58dba7"/>
      <stop offset=".5756156" stop-color="#4fe99c"/>
      <stop offset=".6581986" stop-color="#4cee99"/>
      <stop offset=".6977453" stop-color="#66dca7"/>
      <stop offset=".8036912" stop-color="#a6b1cd"/>
      <stop offset=".8930051" stop-color="#d691e8"/>
      <stop offset=".9611298" stop-color="#f37ef8"/>
      <stop offset="1" stop-color="#fe77ff"/>
    </linearGradient>
    <linearGradient id="linear-gradient2" x1="245.9667347" y1="309.9983685" x2="1334.8053117" y2="309.9983685" gradientTransform="translate(333.0621797 -173.2307238) rotate(23.454785)" gradientUnits="userSpaceOnUse">
      <stop offset=".1432507" stop-color="#4cee99"/>
      <stop offset=".249327" stop-color="#68ef77"/>
      <stop offset=".4285611" stop-color="#94f144"/>
      <stop offset=".5850317" stop-color="#b4f31f"/>
      <stop offset=".7109925" stop-color="#c7f408"/>
      <stop offset=".7906336" stop-color="#cff500"/>
      <stop offset=".8793858" stop-color="#e3f377"/>
      <stop offset=".9512393" stop-color="#f2f2d2"/>
      <stop offset=".9834711" stop-color="#f9f2f6"/>
    </linearGradient>
    <linearGradient id="linear-gradient3" x1="355.3718313" y1="309.9983685" x2="1225.4002151" y2="309.9983685" gradientTransform="translate(333.0621797 -173.2307238) rotate(23.454785)" gradientUnits="userSpaceOnUse">
      <stop offset="0" stop-color="#000"/>
      <stop offset=".0559661" stop-color="#100424"/>
      <stop offset=".1445856" stop-color="#280a56"/>
      <stop offset=".2375622" stop-color="#3d0f83"/>
      <stop offset=".333037" stop-color="#4e13a9"/>
      <stop offset=".43176" stop-color="#5c17c8"/>
      <stop offset=".5346328" stop-color="#681adf"/>
      <stop offset=".6435146" stop-color="#6f1cf0"/>
      <stop offset=".7625366" stop-color="#741dfa"/>
      <stop offset=".9107442" stop-color="#761efe"/>
    </linearGradient>
    <linearGradient id="linear-gradient4" x1="458.1289225" y1="309.9983685" x2="1122.643124" y2="309.9983685" xlink:href="#linear-gradient2"/>
    <linearGradient id="linear-gradient5" x1="575.1253201" y1="309.9983685" x2="1005.6467264" y2="309.9983685" xlink:href="#linear-gradient3"/>
    <linearGradient id="linear-gradient6" x1="670.2911102" x2="910.4809362" xlink:href="#linear-gradient2"/>
    <linearGradient id="linear-gradient7" x1="742.9232106" y1="309.9983685" x2="837.8488359" y2="309.9983685" xlink:href="#linear-gradient3"/>
    <linearGradient id="linear-gradient8" x1="107.7050905" y1="716.1637142" x2="717.6785612" y2="716.1637142" gradientTransform="translate(333.0621797 -173.2307238) rotate(23.454785)" gradientUnits="userSpaceOnUse">
      <stop offset=".1771755" stop-color="#761efe"/>
      <stop offset=".268784" stop-color="#731df9"/>
      <stop offset=".3709934" stop-color="#6d1beb"/>
      <stop offset=".4783594" stop-color="#6319d5"/>
      <stop offset=".5893292" stop-color="#5415b6"/>
      <stop offset=".7030481" stop-color="#41108e"/>
      <stop offset=".8190875" stop-color="#2b0a5c"/>
      <stop offset=".9347867" stop-color="#100423"/>
      <stop offset="1" stop-color="#000"/>
    </linearGradient>
    <linearGradient id="linear-gradient9" x1="-72.3606147" y1="716.1637142" x2="458.1289225" y2="716.1637142" xlink:href="#linear-gradient2"/>
    <linearGradient id="linear-gradient10" x1="217.9693187" y1="1167.39404" x2="862.665957" y2="1167.39404" gradientUnits="userSpaceOnUse">
      <stop offset=".1455154" stop-color="#fe77ff"/>
      <stop offset=".4805567" stop-color="#761efe"/>
      <stop offset=".5383885" stop-color="#731df9"/>
      <stop offset=".6029126" stop-color="#6d1beb"/>
      <stop offset=".670692" stop-color="#6319d5"/>
      <stop offset=".7407464" stop-color="#5415b6"/>
      <stop offset=".8125364" stop-color="#41108e"/>
      <stop offset=".8857912" stop-color="#2b0a5c"/>
      <stop offset=".9588313" stop-color="#100423"/>
      <stop offset="1" stop-color="#000"/>
    </linearGradient>
    <linearGradient id="linear-gradient11" x1="726.1383239" y1="776.9296197" x2="1207.8770723" y2="776.9296197" gradientTransform="matrix(1,0,0,1,0,0)" xlink:href="#linear-gradient3"/>
    <linearGradient id="linear-gradient12" x1="662.3682233" y1="767.5017689" x2="746.5121754" y2="767.5017689" gradientUnits="userSpaceOnUse">
      <stop offset="0" stop-color="#f9f2f6"/>
      <stop offset=".0528753" stop-color="#f9ebf6"/>
      <stop offset=".1268941" stop-color="#fad9f7"/>
      <stop offset=".2133937" stop-color="#fbbbf9"/>
      <stop offset=".3085831" stop-color="#fc92fd"/>
      <stop offset=".3635591" stop-color="#fe77ff"/>
      <stop offset="1" stop-color="#a66cff"/>
    </linearGradient>
    <linearGradient id="linear-gradient13" x1="1225.7405258" y1="875.7970551" x2="709.3817547" y2="808.9096889" gradientUnits="userSpaceOnUse">
      <stop offset=".038203" stop-color="#cff500"/>
      <stop offset=".1735333" stop-color="#cff303"/>
      <stop offset=".2962395" stop-color="#d1ed0e"/>
      <stop offset=".4141125" stop-color="#d5e421"/>
      <stop offset=".5290573" stop-color="#d9d73b"/>
      <stop offset=".6418694" stop-color="#e0c75c"/>
      <stop offset=".7530212" stop-color="#e7b285"/>
      <stop offset=".8628822" stop-color="#f09ab6"/>
      <stop offset=".969103" stop-color="#fa7fed"/>
      <stop offset="1" stop-color="#fe77ff"/>
    </linearGradient>
    <linearGradient id="linear-gradient14" x1="618.6479355" y1="898.5155079" x2="1105.9291109" y2="898.5155079" gradientTransform="translate(-113.1223342 -8.0802118) rotate(.6844729) scale(1.2009352 .9999286) skewX(.5699175)" xlink:href="#linear-gradient3"/>
    <linearGradient id="linear-gradient15" x1="563.061851" y1="889.0876568" x2="644.564214" y2="889.0876568" gradientTransform="translate(-113.1223342 -8.0802118) rotate(.6844729) scale(1.2009352 .9999286) skewX(.5699175)" xlink:href="#linear-gradient12"/>
    <linearGradient id="linear-gradient16" x1="585.2561807" y1="964.7489002" x2="1105.9291109" y2="964.7489002" gradientTransform="translate(-113.1223342 -8.0802118) rotate(.6844729) scale(1.2009352 .9999286) skewX(.5699175)" xlink:href="#linear-gradient13"/>
    <linearGradient id="linear-gradient17" x1="540.407931" y1="1021.8756372" x2="1113.2707852" y2="1021.8756372" gradientTransform="translate(-5.436464 1.619814) rotate(-.196099) scale(1.0116248 .9999941) skewX(-.1938444)" xlink:href="#linear-gradient3"/>
    <linearGradient id="linear-gradient18" x1="464.5752894" y1="1011.8059763" x2="564.6356328" y2="1011.8059763" gradientTransform="translate(-5.436464 1.619814) rotate(-.196099) scale(1.0116248 .9999941) skewX(-.1938444)" xlink:href="#linear-gradient12"/>
    <linearGradient id="linear-gradient19" x1="494.1090883" y1="1085.738218" x2="1113.2707852" y2="1085.738218" gradientTransform="translate(-5.436464 1.619814) rotate(-.196099) scale(1.0116248 .9999941) skewX(-.1938444)" xlink:href="#linear-gradient13"/>
    <linearGradient id="linear-gradient20" x1="553.600885" y1="2784.2675204" x2="1145.6698916" y2="2784.2675204" gradientTransform="matrix(1,0,0,1,0,0)" xlink:href="#linear-gradient8"/>
    <linearGradient id="linear-gradient21" x1="1145.6698916" y1="2826.7539537" x2="1767.8905606" y2="2826.7539537" gradientTransform="matrix(1,0,0,1,0,0)" xlink:href="#linear-gradient2"/>
    <linearGradient id="linear-gradient22" x1="581.0114872" y1="2523.4099565" x2="1767.8905606" y2="2523.4099565" gradientTransform="matrix(1,0,0,1,0,0)" xlink:href="#linear-gradient1"/>
    <linearGradient id="linear-gradient23" x1="581.0114872" y1="2523.4099565" x2="1197.7500357" y2="2523.4099565" gradientUnits="userSpaceOnUse">
      <stop offset=".1432507" stop-color="#4cee99"/>
      <stop offset=".2163917" stop-color="#68ef77"/>
      <stop offset=".3399759" stop-color="#94f144"/>
      <stop offset=".4478645" stop-color="#b4f31f"/>
      <stop offset=".534716" stop-color="#c7f408"/>
      <stop offset=".5896296" stop-color="#cff500"/>
      <stop offset=".6294675" stop-color="#d5f425"/>
      <stop offset=".7023784" stop-color="#e0f364"/>
      <stop offset=".7722408" stop-color="#e8f398"/>
      <stop offset=".8371064" stop-color="#eff2c0"/>
      <stop offset=".8959083" stop-color="#f4f2dd"/>
      <stop offset=".9466316" stop-color="#f7f2ef"/>
      <stop offset=".9834711" stop-color="#f9f2f6"/>
    </linearGradient>
    <linearGradient id="linear-gradient24" x1="1473.4601961" y1="2650.5917525" x2="1567.18855" y2="2650.5917525" gradientTransform="matrix(1,0,0,1,0,0)" xlink:href="#linear-gradient3"/>
    <linearGradient id="linear-gradient25" x1="1110.3921418" y1="2479.1248858" x2="1567.18855" y2="2479.1248858" gradientTransform="matrix(1,0,0,1,0,0)" xlink:href="#linear-gradient3"/>
    <linearGradient id="linear-gradient26" x1="1482.8049686" y1="2674.8954733" x2="1184.7742529" y2="2467.5404527" gradientUnits="userSpaceOnUse">
      <stop offset=".038203" stop-color="#cff500"/>
      <stop offset=".1526978" stop-color="#bbc438"/>
      <stop offset=".272418" stop-color="#a8996c"/>
      <stop offset=".394283" stop-color="#997399"/>
      <stop offset=".5159274" stop-color="#8c54bd"/>
      <stop offset=".6373632" stop-color="#823cd9"/>
      <stop offset=".7585628" stop-color="#7b2bed"/>
      <stop offset=".879461" stop-color="#7721f9"/>
      <stop offset="1" stop-color="#761efe"/>
    </linearGradient>
    <linearGradient id="linear-gradient27" x1="1317.0167223" y1="2725.3110235" x2="1410.7450762" y2="2725.3110235" gradientTransform="matrix(1,0,0,1,0,0)" xlink:href="#linear-gradient3"/>
    <linearGradient id="linear-gradient28" x1="953.948668" y1="2553.8441569" x2="1410.7450762" y2="2553.8441569" gradientTransform="matrix(1,0,0,1,0,0)" xlink:href="#linear-gradient3"/>
    <linearGradient id="linear-gradient29" x1="953.948668" y1="2616.8107233" x2="1317.0167223" y2="2616.8107233" gradientUnits="userSpaceOnUse">
      <stop offset=".038203" stop-color="#cff500"/>
      <stop offset=".2176492" stop-color="#b9c03e"/>
      <stop offset=".4702498" stop-color="#9c7b8f"/>
      <stop offset=".6781032" stop-color="#8749cb"/>
      <stop offset=".8302907" stop-color="#7a29f0"/>
      <stop offset=".9107442" stop-color="#761efe"/>
    </linearGradient>
    <linearGradient id="linear-gradient30" x1="1160.8557187" y1="2802.4274214" x2="1254.8393716" y2="2802.4274214" gradientTransform="translate(10.4863687 -20.313362) rotate(1.0201253) skewX(.7426588)" xlink:href="#linear-gradient3"/>
    <linearGradient id="linear-gradient31" x1="796.8096056" y1="2630.9605339" x2="1254.8393716" y2="2630.9605339" gradientTransform="translate(10.4863687 -20.313362) rotate(1.0201253) skewX(.7426588)" xlink:href="#linear-gradient3"/>
    <linearGradient id="linear-gradient32" x1="1129.4375107" y1="2838.2569976" x2="709.5907364" y2="2439.9408272" gradientTransform="translate(10.4863687 -20.313362) rotate(1.0201253) skewX(.7426588)" gradientUnits="userSpaceOnUse">
      <stop offset=".038203" stop-color="#cff500"/>
      <stop offset=".0918215" stop-color="#c2d624"/>
      <stop offset=".1767237" stop-color="#b0ab56"/>
      <stop offset=".2658002" stop-color="#a08583"/>
      <stop offset=".3572701" stop-color="#9365a9"/>
      <stop offset=".451852" stop-color="#884bc8"/>
      <stop offset=".5504096" stop-color="#8037df"/>
      <stop offset=".654724" stop-color="#7a29f0"/>
      <stop offset=".7687535" stop-color="#7720fa"/>
      <stop offset=".9107442" stop-color="#761efe"/>
    </linearGradient>
    <linearGradient id="linear-gradient33" x1="1632.37002" y1="1542.3198288" x2="2500.7037553" y2="1152.6776897" gradientUnits="userSpaceOnUse">
      <stop offset=".2306215" stop-color="#a66cff"/>
      <stop offset=".2639658" stop-color="#b46dff"/>
      <stop offset=".3479821" stop-color="#d471ff"/>
      <stop offset=".429237" stop-color="#eb74ff"/>
      <stop offset=".5058088" stop-color="#f976ff"/>
      <stop offset=".5727968" stop-color="#fe77ff"/>
      <stop offset=".6591685" stop-color="#fd8efd"/>
      <stop offset=".8402971" stop-color="#facbf8"/>
      <stop offset=".9464194" stop-color="#f9f2f6"/>
    </linearGradient>
    <linearGradient id="linear-gradient34" x1="1851.8477354" y1="2767.1710362" x2="2097.8747492" y2="2656.7728241" gradientTransform="translate(-1345.2399982 -1101.0530409) scale(1.2689427 1.1253379)" xlink:href="#linear-gradient2"/>
    <linearGradient id="linear-gradient35" x1="1245.5837627" y1="1793.3656807" x2="1419.4400676" y2="1715.3521937" gradientTransform="translate(1569.3686669 -241.4154968) rotate(40.0286287)" xlink:href="#linear-gradient3"/>
    <linearGradient id="linear-gradient36" x1="1289.4012054" y1="1773.7037449" x2="1375.6226249" y2="1735.0141295" gradientTransform="translate(1569.3686669 -241.4154968) rotate(40.0286287)" gradientUnits="userSpaceOnUse">
      <stop offset=".1338165" stop-color="#a66cff"/>
      <stop offset=".1822659" stop-color="#b46dff"/>
      <stop offset=".3043423" stop-color="#d471ff"/>
      <stop offset=".4224064" stop-color="#eb74ff"/>
      <stop offset=".5336658" stop-color="#f976ff"/>
      <stop offset=".6309998" stop-color="#fe77ff"/>
      <stop offset=".6763807" stop-color="#fd7efe"/>
      <stop offset=".7429323" stop-color="#fc91fd"/>
      <stop offset=".8225419" stop-color="#fbb2fa"/>
      <stop offset=".911523" stop-color="#f9def7"/>
      <stop offset=".9464194" stop-color="#f9f2f6"/>
    </linearGradient>
    <linearGradient id="linear-gradient37" x1="760.7310713" y1="2342.0500505" x2="974.7655212" y2="2246.0076678" gradientTransform="translate(1569.3686669 -241.4154968) rotate(40.0286287)" gradientUnits="userSpaceOnUse">
      <stop offset="0" stop-color="#000"/>
      <stop offset=".0573423" stop-color="#180f24"/>
      <stop offset=".1458721" stop-color="#392557"/>
      <stop offset=".2387239" stop-color="#563884"/>
      <stop offset=".3340519" stop-color="#6e48aa"/>
      <stop offset=".4325367" stop-color="#8255c9"/>
      <stop offset=".5352436" stop-color="#925fe0"/>
      <stop offset=".6439489" stop-color="#9d66f1"/>
      <stop offset=".7627777" stop-color="#a36afb"/>
      <stop offset=".9107442" stop-color="#a66cff"/>
    </linearGradient>
    <linearGradient id="linear-gradient38" x1="1541.9131162" y1="3825.4466414" x2="1755.947566" y2="3729.4042587" gradientTransform="translate(347.8728581 5921.6964052) rotate(-17.6077538) scale(1 -1)" xlink:href="#linear-gradient37"/>
    <linearGradient id="linear-gradient39" x1="767.1003226" y1="2173.66718" x2="940.9566275" y2="2095.653693" gradientTransform="translate(1569.3686669 -241.4154968) rotate(40.0286287)" xlink:href="#linear-gradient3"/>
    <linearGradient id="linear-gradient40" x1="810.9177653" y1="2154.0052442" x2="897.1391848" y2="2115.3156288" xlink:href="#linear-gradient36"/>
    <linearGradient id="linear-gradient41" x1="1251.1875209" y1="1514.2879812" x2="2102.5804155" y2="1514.2879812" gradientTransform="matrix(1,0,0,1,0,0)" xlink:href="#linear-gradient3"/>
    <linearGradient id="linear-gradient42" x1="1274.9470193" y1="1554.2879812" x2="1978.8209172" y2="1554.2879812" gradientUnits="userSpaceOnUse">
      <stop offset="0" stop-color="#f9f2f6"/>
      <stop offset=".0117498" stop-color="#eee0f7"/>
      <stop offset=".0436124" stop-color="#d4b7f9"/>
      <stop offset=".0747156" stop-color="#c096fc"/>
      <stop offset=".1044349" stop-color="#b17efd"/>
      <stop offset=".1321888" stop-color="#a970fe"/>
      <stop offset=".1560109" stop-color="#a66cff"/>
      <stop offset=".319982" stop-color="#8896dd"/>
      <stop offset=".6697576" stop-color="#4cee99"/>
      <stop offset=".7181539" stop-color="#50e79e"/>
      <stop offset=".7883535" stop-color="#5ed3ad"/>
      <stop offset=".8718502" stop-color="#74b4c6"/>
      <stop offset=".9648169" stop-color="#9288e8"/>
      <stop offset="1" stop-color="#9f76f7"/>
    </linearGradient>
    <linearGradient id="linear-gradient43" x1="2004.8400879" y1="1685.1950073" x2="2492.9299316" y2="1685.1950073" gradientUnits="userSpaceOnUse">
      <stop offset="0" stop-color="#fe77ff"/>
      <stop offset=".6782336" stop-color="#facdf8"/>
      <stop offset="1" stop-color="#f9f2f6"/>
    </linearGradient>
    <linearGradient id="linear-gradient44" x1="2302.2804373" y1="1654.9870656" x2="2550.9051405" y2="1543.423208" gradientTransform="translate(-661.028348 -192.65364) scale(1.2689427 1.1253379)" xlink:href="#linear-gradient2"/>
    <linearGradient id="linear-gradient45" x1="2541.2187617" y1="1996.128249" x2="2789.8434649" y2="1884.5643914" gradientTransform="translate(-1060.21193 -96.2639859) scale(1.2689427 1.1253379)" xlink:href="#linear-gradient2"/>
    <linearGradient id="linear-gradient46" x1="2524.0235772" y1="1925.0272939" x2="2699.7155532" y2="1846.1900974" gradientTransform="matrix(1,0,0,1,0,0)" xlink:href="#linear-gradient3"/>
    <linearGradient id="linear-gradient47" x1="2568.3036687" y1="1905.1577566" x2="2655.4354617" y2="1866.0596347" gradientTransform="matrix(1,0,0,1,0,0)" xlink:href="#linear-gradient36"/>
    <linearGradient id="linear-gradient48" x1="1982.2775582" y1="2492.0921413" x2="2198.5719023" y2="2395.03569" gradientTransform="matrix(1,0,0,1,0,0)" xlink:href="#linear-gradient37"/>
    <linearGradient id="linear-gradient49" x1="2069.9502897" y1="2715.6186217" x2="2286.2446338" y2="2618.5621704" gradientTransform="translate(3028.6028558 5504.8673979) rotate(-57.6363825) scale(1 -1)" xlink:href="#linear-gradient37"/>
    <linearGradient id="linear-gradient50" x1="1988.7140596" y1="2321.9313912" x2="2164.4060356" y2="2243.0941946" gradientTransform="matrix(1,0,0,1,0,0)" xlink:href="#linear-gradient3"/>
    <linearGradient id="linear-gradient51" x1="2032.9941511" y1="2302.0618538" x2="2120.1259441" y2="2262.963732" gradientTransform="matrix(1,0,0,1,0,0)" xlink:href="#linear-gradient36"/>
    <linearGradient id="linear-gradient52" x1="1840.1599121" y1="1011.0650024" x2="2177.4699707" y2="1011.0650024" xlink:href="#linear-gradient43"/>
    <linearGradient id="linear-gradient53" x1="2070.4899902" y1="1268.5849609" x2="2397.75" y2="1268.5849609" xlink:href="#linear-gradient43"/>
  </defs>
  <g id="Background">
    <rect width="3000" height="3000.0000004" fill="url(#linear-gradient)"/>
  </g>
  <g id="Graphic">
    <g clip-path="url(#clippath)">
      <g>
        <polygon points="315.012797 1208.1085875 750.7074197 667.2724526 1366.2524813 799.0264841 959.7094353 1299.4059001 315.012797 1208.1085875" fill="url(#linear-gradient1)"/>
        <polygon points="1366.2524813 799.0264841 1114.4035833 182.3138832 495.8425046 69.5584527 750.7074197 667.2724526 1366.2524813 799.0264841" fill="url(#linear-gradient2)"/>
        <polygon points="1279.539851 724.0132927 1078.3018582 231.2336661 584.0452191 141.1372762 787.6931379 618.7362117 1279.539851 724.0132927" fill="url(#linear-gradient3)"/>
        <polygon points="1198.0963174 653.5582811 1044.393856 277.1808362 666.8882918 208.3666093 822.4314174 573.1492775 1198.0963174 653.5582811" fill="url(#linear-gradient4)"/>
        <polygon points="1105.3669502 573.3401428 1005.7871373 329.4950203 761.2111357 284.9120789 861.9834669 521.2452482 1105.3669502 573.3401428" fill="url(#linear-gradient5)"/>
        <polygon points="1029.9401534 508.0900781 974.3841286 372.0477892 837.934079 347.174766 894.1554151 479.0261025 1029.9401534 508.0900781" fill="url(#linear-gradient6)"/>
        <polygon points="972.3731784 458.2901528 950.4168346 404.5247641 896.4902945 394.6946755 918.7095765 446.8037542 972.3731784 458.2901528" fill="url(#linear-gradient7)"/>
        <polygon points="315.012797 1208.1085875 124.5619895 577.9222317 495.8425046 69.5584527 750.7074197 667.2724526 315.012797 1208.1085875" fill="url(#linear-gradient8)"/>
        <polygon points="127.9079738 1047.6361856 -37.7257227 499.5676477 285.1742689 57.447328 506.8284513 577.2748917 127.9079738 1047.6361856" fill="url(#linear-gradient9)"/>
        <polygon points="959.7094353 1299.4059001 818.351867 1080.0209224 454.1602432 1035.3821799 315.012797 1208.1085875 959.7094353 1299.4059001" fill="url(#linear-gradient10)"/>
        <polygon points="726.1383239 697.7705449 1156.7693594 790.2764713 1207.8770723 856.0886946 746.5121754 757.4650051 726.1383239 697.7705449" fill="url(#linear-gradient11)"/>
        <polygon points="746.5121754 757.4650051 687.2041421 837.232993 662.3682233 776.9296197 726.1383239 697.7705449 746.5121754 757.4650051" fill="url(#linear-gradient12)"/>
        <polygon points="687.2041421 837.232993 1158.3345768 923.3199495 1207.8770723 856.0886946 746.5121754 757.4650051 687.2041421 837.232993" fill="url(#linear-gradient13)"/>
        <polygon points="629.7807529 817.3810554 1153.5594536 921.6855681 1214.9321269 988.2310052 660.902304 882.9883881 629.7807529 817.3810554" fill="url(#linear-gradient14)"/>
        <polygon points="660.902304 882.9883881 589.6822796 961.905522 563.030229 901.406906 629.7807529 817.3810554 660.902304 882.9883881" fill="url(#linear-gradient15)"/>
        <polygon points="589.6822796 961.905522 1155.4390442 1054.7515059 1214.9321269 988.2310052 660.902304 882.9883881 589.6822796 961.905522" fill="url(#linear-gradient16)"/>
        <polygon points="541.2504168 941.8714632 1059.2880931 1033.6660143 1120.7693117 1099.3938209 565.7596181 1001.5322771 541.2504168 941.8714632" fill="url(#linear-gradient17)"/>
        <polygon points="565.7596181 1001.5322771 494.4136322 1081.3982549 464.5366828 1021.135899 541.2504168 941.8714632 565.7596181 1001.5322771" fill="url(#linear-gradient18)"/>
        <polygon points="494.4136322 1081.3982549 1066.8311167 1167.5588917 1120.7693117 1099.3938209 565.7596181 1001.5322771 494.4136322 1081.3982549" fill="url(#linear-gradient19)"/>
      </g>
      <path d="M1756.7332474,2808.4461383h436.6892874c5.6301219,0,12.1741193.9317963,17.7491014,0,.2467137-.0412355.5325991,0,.7848856,0l-5-5v72.6468993c0,2.7029064,2.2908198,5,5,5h206.2222237c2.7029064,0,5-2.2908198,5-5v-346.1210412c0-15.908693.6993545-31.9964558,0-47.8943775-.0101812-.2314429,0-.4654573,0-.6972524,0-6.4345228-10-6.4451805-10,0v378.6691482c0,4.8601412-.8171582,10.535282,0,15.3462704.0371448.2186887,0,.4736022,0,.6972524l5-5h-206.2222237l5,5v-72.6468993c0-2.7029064-2.2908198-5-5-5h-398.9975997c-18.4209895,0-37.031215-.7739245-55.440789,0-.2606317.0109568-.5238814,0-.7848856,0-6.4345228,0-6.4451805,10,0,10h0Z" fill="#f9f2f6"/>
      <path d="M1576.1967409,2429.8653743v-311.8218961c0-6.4345228-10-6.4451805-10,0v311.8218961c0,6.4345228,10,6.4451805,10,0h0Z" fill="#f9f2f6"/>
      <path d="M563.030229,2871.0930376H253.8695652c1.6666667,1.6666667,3.3333333,3.3333333,5,5v-1070.3670045c0-4.7648073.4555724-9.7870375,0-14.5349312-.0577913-.6022904,0-1.2365024,0-1.8432758-1.6666667,1.6666667-3.3333333,3.3333333-5,5h154.5803319c2.7029064,0,5-2.2908198,5-5v-134.4726624c-1.6666667,1.6666667-3.3333333,3.3333333-5,5h132.8005197c6.4345228,0,6.4451805-10,0-10h-132.8005197c-2.7029064,0-5,2.2908198-5,5v134.4726624c1.6666667-1.6666667,3.3333333-3.3333333,5-5h-154.5803319c-2.7029064,0-5,2.2908198-5,5v1042.6207128c0,14.0810635-.311684,28.2026025,0,42.2812229.0135881.613767,0,1.2292657,0,1.8432758,0,2.7029064,2.2908198,5,5,5h309.1606638c6.4345228,0,6.4451805-10,0-10h0Z" fill="#f9f2f6"/>
      <path d="M253.8695652,2407.40058h136.173913c2.7029064,0,5-2.2908198,5-5v-231.6737046c0-6.4345228-10-6.4451805-10,0v231.6737046c1.6666667-1.6666667,3.3333333-3.3333333,5-5h-136.173913c-6.4345228,0-6.4451805,10,0,10h0Z" fill="#f9f2f6"/>
      <path d="M997.8129862,2273.9544263v-542.9754133c0-24.96948.8818337-50.1201678,0-75.0787398-.0120428-.3408468,0-.6839336,0-1.0251096,0-6.4345228-10-6.4451805-10,0v542.9754133c0,24.96948-.8818337,50.1201678,0,75.0787398.0120428.3408468,0,.6839336,0,1.0251096,0,6.4345228,10,6.4451805,10,0h0Z" fill="#f9f2f6"/>
      <g>
        <polygon points="553.600885 3029.5924097 581.0114872 2481.3803665 1145.6698916 2876.0930376 1145.6698916 3087.1546742 553.600885 3029.5924097" fill="url(#linear-gradient20)"/>
        <polygon points="1145.6698916 2876.0930376 1767.8905606 2566.3532332 1745.9620789 3032.3334699 1145.6698916 3087.1546742 1145.6698916 2876.0930376" fill="url(#linear-gradient21)"/>
        <polygon points="581.0114872 2481.3803665 1197.7500357 2170.7268754 1767.8905606 2566.3532332 1145.6698916 2876.0930376 581.0114872 2481.3803665" fill="url(#linear-gradient22)"/>
        <polygon points="1197.7500357 2170.7268754 1182.3468721 2760.9685085 1145.6698916 2876.0930376 581.0114872 2481.3803665 1197.7500357 2170.7268754" fill="url(#linear-gradient23)"/>
        <polygon points="774.7521365 2616.8107233 1225.1606379 2402.40058 1581.964988 2658.9064918 1145.6698916 2876.0930376 774.7521365 2616.8107233"/>
        <g>
          <polygon points="1473.4601961 2714.4720056 1473.4601961 2630.5684628 1567.18855 2586.7114993 1567.18855 2667.8142788 1473.4601961 2714.4720056" fill="url(#linear-gradient24)"/>
          <polygon points="1567.18855 2586.7114993 1191.6633004 2327.6813089 1110.3921418 2369.7108989 1473.4601961 2630.5684628 1567.18855 2586.7114993" fill="url(#linear-gradient25)"/>
          <polygon points="1110.3921418 2369.7108989 1110.3921418 2456.5111391 1473.4601961 2714.4720056 1473.4601961 2630.5684628 1110.3921418 2369.7108989" fill="url(#linear-gradient26)"/>
        </g>
        <g>
          <polygon points="1317.0167223 2789.1912767 1317.0167223 2705.2877338 1410.7450762 2661.4307704 1410.7450762 2742.5335498 1317.0167223 2789.1912767" fill="url(#linear-gradient27)"/>
          <polygon points="1410.7450762 2661.4307704 1035.2198266 2402.40058 953.948668 2444.43017 1317.0167223 2705.2877338 1410.7450762 2661.4307704" fill="url(#linear-gradient28)"/>
          <polygon points="953.948668 2444.43017 953.948668 2531.2304101 1317.0167223 2789.1912767 1317.0167223 2705.2877338 953.948668 2444.43017" fill="url(#linear-gradient29)"/>
        </g>
        <g>
          <polygon points="1161.0466312 2866.4816882 1161.4504213 2782.5853252 1255.9237298 2740.4105885 1255.5334185 2821.5064278 1161.0466312 2866.4816882" fill="url(#linear-gradient30)"/>
          <polygon points="1255.9237298 2740.4105885 879.5060287 2474.677712 797.5696678 2515.2483133 1161.4504213 2782.5853252 1255.9237298 2740.4105885" fill="url(#linear-gradient31)"/>
          <polygon points="797.5696678 2515.2483133 797.1519372 2602.0411257 1161.0466312 2866.4816882 1161.4504213 2782.5853252 797.5696678 2515.2483133" fill="url(#linear-gradient32)"/>
        </g>
      </g>
      <g>
        <path d="M2493.1401367,1421.4399414c0,281.2299805-183.25,518.1600342-432.9001465,589.8500977-18.1300049,5.2099609-36.6099854,9.5499268-55.3999023,12.9599609-33.4700928,6.0899658-67.9101563,9.2700195-103.0700684,9.2700195-41.8900146,0-82.7700195-4.5100098-122.1999512-13.0800781,38.4899902-2.1699219,76.2700195-11.0300293,112.2399902-27.1699219,161.25-72.3500977,237.4599609-269.2700195,202.3598633-479.8400879-5.3100586-31.869873-13.1699219-64.0499268-23.6799316-96.1599121v-.0100098c-7.4099121-22.6899414-16.1398926-45.3400879-26.2299805-67.8200684-25.3800049-56.5699463-57.2700195-107.4699707-93.6899414-151.6499023-33.4700928-40.6201172-70.7800293-75.5600586-110.4101562-103.9799805-118.8598633-85.3200684-258.579834-112.1800537-378.2099609-58.5-10.8598633,4.869873-21.3399658,10.3099365-31.4199219,16.289917,107.9899902-147.2000122,278.8898926-242.25,471.2399902-242.25,44.8999023,0,88.6398926,5.1799927,130.6699219,14.9899902,51.1699219,11.9500122,99.8300781,30.7600098,145.0300293,55.460022,66.4399414,36.2999878,125.4001465,85.3300171,173.8300781,143.9400024,16.8000488,20.3100586,32.329834,41.7700195,46.4499512,64.25,47.8300781,76.0400391,79.7700195,163.7700195,90.9599609,258.1500244,2.2900391,19.3199463,3.7099609,38.9300537,4.2199707,58.7698975.1401367,5.4899902.2102051,11,.2102051,16.5300293Z" fill="url(#linear-gradient33)"/>
        <rect x="1109.6448247" y="1642.3216885" width="102.2017962" height="617.0202246" rx="51.1008467" ry="51.1008467" transform="translate(3142.2754025 843.3050623) rotate(91.550741)" fill="url(#linear-gradient34)"/>
        <circle cx="1461.3523592" cy="1958.9698699" r="95.2551133" fill="url(#linear-gradient35)"/>
        <circle cx="1461.3523592" cy="1958.9698699" r="47.2403408" fill="url(#linear-gradient36)"/>
        <path d="M811.594057,1988.5911794s-21.8842456,171.7564388-141.2435932,63.4093956c0,0-41.7251411,49.6756575-41.839454,49.8117521-6.5590591,7.8088549,53.9781043,53.6535678,59.3132109,56.5956391,103.5346164,57.0946839,212.6130493-54.0721486,202.4515478-156.3193696l-78.6817115-13.4974173Z" fill="url(#linear-gradient37)"/>
        <path d="M793.7788436,1921.0358636s45.2791888-167.1196863-106.3817856-112.4874205c0,0-19.6243649-61.8348012-19.6781291-62.0042079-3.0848876-9.7202335,70.3616016-29.0101036,76.4155394-29.6949272,117.4844614-13.2898855,175.9175133,131.0768268,127.526323,221.7192176l-77.8819476-17.532662Z" fill="url(#linear-gradient38)"/>
        <circle cx="850.3678757" cy="1942.4292041" r="95.2551133" fill="url(#linear-gradient39)"/>
        <circle cx="850.3678757" cy="1942.4292041" r="47.2403408" fill="url(#linear-gradient40)"/>
        <path d="M1891.8100586,1993.2700195c-35.9699707,16.1398926-73.75,25-112.2399902,27.1699219-178.6201172,10.1201172-372.4001465-123.6699219-470.0600586-341.2999268-112.3500977-250.3699951-57.2199707-521.9901123,121.0200195-627.5400391,10.0799561-5.9799805,20.5600586-11.4200439,31.4199219-16.289917,202.9000244-91.0401001,463.6000977,49.5998535,582.3100586,314.1298828,118.6999512,264.5300293,50.4499512,552.7900391-152.4499512,643.8300781Z" fill="url(#linear-gradient41)"/>
        <path d="M1826.570282,1963.2778426c-29.737532,13.3433685-60.9714978,20.6683043-92.792411,22.4622486-147.6709976,8.3666265-307.8751824-102.2419033-388.6137737-282.1636301-92.8834404-206.9889301-47.3055907-431.5460199,100.0511437-518.8075402,8.333424-4.9438422,16.9976619-9.4413177,25.9758603-13.4673985,167.7439781-75.2657798,383.2731162,41.0057947,481.4144602,259.7012807,98.1330686,218.695486,41.7085978,457.0093103-126.0352794,532.2750396Z"/>
        <path d="M1804.570282,1950.2778426c-29.737532,13.3433685-60.9714978,20.6683043-92.792411,22.4622486-147.6709976,8.3666265-307.8751824-102.2419033-388.6137737-282.1636301-92.8834404-206.9889301-47.3055907-431.5460199,100.0511437-518.8075402,8.333424-4.9438422,16.9976619-9.4413177,25.9758603-13.4673985,167.7439781-75.2657798,383.2731162,41.0057947,481.4144602,259.7012807,98.1330686,218.695486,41.7085978,457.0093103-126.0352794,532.2750396Z" fill="url(#linear-gradient42)"/>
        <ellipse cx="1410.1840679" cy="1555.3749377" rx="30.5217391" ry="120.9130435" transform="translate(-425.2144656 536.0013431) rotate(-18.7552753)"/>
        <ellipse cx="1703.0352635" cy="1473.2010246" rx="30.5217391" ry="120.9130435" transform="translate(-383.2431194 625.7974155) rotate(-18.7552753)"/>
        <path d="M2492.9299316,1404.9099121l-432.6899414,606.380127c-18.1300049,5.2099609-36.6099854,9.5499268-55.3999023,12.9599609l483.869873-678.1099854c2.2900391,19.3199463,3.7099609,38.9300537,4.2199707,58.7698975Z" fill="url(#linear-gradient43)"/>
        <rect x="2366.5382958" y="1295.2250873" width="103.2808993" height="623.5350657" rx="51.6403978" ry="51.6403978" transform="translate(-485.1223826 1577.7302574) rotate(-33.0284282)" fill="url(#linear-gradient44)"/>
        <rect x="2270.5538518" y="1775.5136861" width="103.2808994" height="623.5350657" rx="51.6403968" ry="51.6403968" transform="translate(2511.320563 -1029.3773312) rotate(51.5221134)" fill="url(#linear-gradient45)"/>
        <circle cx="2611.8695652" cy="1885.6086957" r="96.2608696" fill="url(#linear-gradient46)"/>
        <circle cx="2611.8695652" cy="1885.6086957" r="47.7391304" fill="url(#linear-gradient47)"/>
        <path d="M2076.5600476,2343.4347826s94.700822,147.1304348-68.0817867,140.8695652v65.7387607c0,10.3056893,76.6414339,6.4338895,82.6820149,5.2428756,117.2252563-23.1131592,129.3768985-180.0317083,55.0571155-252.5468537l-69.6573437,40.6956522Z" fill="url(#linear-gradient48)"/>
        <path d="M2018.8661541,2302.7391304s-73.583916-158.7482845-155.4315508-17.8996393c0,0-55.3757168-35.0931934-55.5274277-35.1893369-8.704886-5.516538,35.5909342-68.1805671,39.8304114-72.6453141,82.2725171-86.6441675,221.3212537-12.9112555,242.7897997,88.6809588l-71.6612326,37.0533316Z" fill="url(#linear-gradient49)"/>
        <circle cx="2076.5600476" cy="2282.5127929" r="96.2608696" fill="url(#linear-gradient50)"/>
        <circle cx="2076.5600476" cy="2282.5127929" r="47.7391304" fill="url(#linear-gradient51)"/>
        <g>
          <rect x="1478.9831024" y="1705.6485871" width="38.7391304" height="19.9565217" transform="translate(-399.2320945 455.6235668) rotate(-15.2831665)"/>
          <rect x="1521.6125523" y="1714.6881107" width="38.7391304" height="19.9565217" transform="translate(-400.1072247 467.1799322) rotate(-15.2831665)"/>
          <rect x="1564.2420022" y="1723.7276342" width="38.7391304" height="19.9565217" transform="translate(-400.9823549 478.7362977) rotate(-15.2831665)"/>
          <rect x="1701.3104772" y="1644.8969028" width="38.7391304" height="19.9565217" transform="translate(3816.7160348 2797.6720548) rotate(164.7168335)"/>
          <rect x="1669.2016925" y="1674.3588941" width="38.7391304" height="19.9565217" transform="translate(3761.3998716 2864.0176545) rotate(164.7168335)"/>
          <rect x="1637.0929077" y="1703.8208854" width="38.7391304" height="19.9565217" transform="translate(3706.0837085 2930.3632542) rotate(164.7168335)"/>
          <rect x="1606.8714522" y="1732.7671578" width="38.7391304" height="19.9565217" transform="translate(-401.8574852 490.2926631) rotate(-15.2831665)"/>
        </g>
        <path d="M2177.4699707,879.7999878l-226.8999023,317.9900513c-33.4700928-40.6201172-70.7800293-75.5600586-110.4101562-103.9799805l192.2800293-269.4700928c51.1699219,11.9500122,99.8300781,30.7600098,145.0300293,55.460022Z" fill="url(#linear-gradient52)"/>
        <path d="M2397.75,1087.9899902l-303.5800781,425.4399414c-5.3100586-31.869873-13.1699219-64.0499268-23.6799316-96.1599121v-.0100098l280.8100586-393.5200195c16.8000488,20.3100586,32.329834,41.7700195,46.4499512,64.25Z" fill="url(#linear-gradient53)"/>
      </g>
      <circle cx="553.600885" cy="1654.8751637" r="49.9786076" fill="#f9f2f6"/>
      <circle cx="390.0434783" cy="2138.7146204" r="49.9786076" fill="#f9f2f6"/>
      <circle cx="1000.4782609" cy="1619.6300881" r="49.9786076" fill="#f9f2f6"/>
      <circle cx="1571.1967409" cy="2118.0434783" r="49.9786076" fill="#f9f2f6"/>
      <circle cx="2418.1787455" cy="2474.677712" r="49.9786076" fill="#f9f2f6"/>
      <path d="M2882.2699711,2265.9565217c-261.4034397-36.0922833-232.1448631-65.3508599-196.0525797,196.0525797,36.0922833-261.4034397,65.3508599-232.1448631-196.0525797-196.0525797,261.4034397,36.0922833,232.1448631,65.3508599,196.0525797-196.0525797-36.0922833,261.4034397-65.3508599,232.1448631,196.0525797,196.0525797Z" fill="#f9f2f6"/>
      <path d="M1718.3512485,373.018602c-138.4883879-71.9678337-116.568846-81.5922924-146.8760017,64.4904904,70.4708653-131.5011786,81.110443-110.0559941-71.2924859-143.6974807,138.4883879,71.9678337,116.568846,81.5922924,146.8760017-64.4904904-70.4708653,131.5011786-81.110443,110.0559941,71.2924859,143.6974807Z" fill="#f9f2f6"/>
      <path d="M1957.308834,609.5797097c-59.1036165-30.7141942-49.7488668-34.8216889-62.6832546,27.5230384,30.075323-56.1216384,34.6160468-46.9693335-30.4259715-61.3267359,59.1036165,30.7141942,49.7488668,34.8216889,62.6832546-27.5230384-30.075323,56.1216384-34.6160468,46.9693335,30.4259715,61.3267359Z" fill="#f9f2f6"/>
    </g>
  </g>
</svg>