<?xml version="1.0" encoding="UTF-8" standalone="no"?>
<!DOCTYPE svg PUBLIC "-//W3C//DTD SVG 1.1//EN" "http://www.w3.org/Graphics/SVG/1.1/DTD/svg11.dtd">
<svg width="3250px" height="2000px" version="1.1" xmlns="http://www.w3.org/2000/svg" xmlns:xlink="http://www.w3.org/1999/xlink" xml:space="preserve" xmlns:serif="http://www.serif.com/" style="fill-rule:evenodd;clip-rule:evenodd;stroke-linejoin:round;stroke-miterlimit:2;">
    <rect id="Artboard1" x="0" y="0" width="3250" height="2000" style="fill:none;"/>
    <g id="Artboard11" serif:id="Artboard1">
        <g>
            <rect x="0" y="0" width="3250" height="2000" style="fill:rgb(255,231,248);"/>
            <g>
                <path d="M3125,1625L3125,1875L3250,1875L3250,1500C3180.96,1500 3125,1555.96 3125,1625Z" style="fill:rgb(0,30,76);fill-rule:nonzero;"/>
                <path d="M3250,1625L3250,1750L3125,1750L3250,1625Z" style="fill:rgb(139,59,149);fill-rule:nonzero;"/>
                <path d="M3250,1750L3250,2000L3000,2000C3069.04,2000 3125,1944.04 3125,1875L3250,1750Z" style="fill:rgb(194,243,250);fill-rule:nonzero;"/>
                <path d="M3125,2000L3250,2000L3250,1875C3250,1944.05 3194.04,2000 3125,2000Z" style="fill:rgb(153,235,246);fill-rule:nonzero;"/>
            </g>
            <g>
                <rect x="2750" y="1750" width="250.002" height="250" style="fill:rgb(110,10,122);"/>
                <path d="M2625,1875L2625,1625L2750,1625L2750,2000C2680.96,2000 2625,1944.04 2625,1875Z" style="fill:rgb(0,30,76);fill-rule:nonzero;"/>
                <path d="M2875,1875L2875,1625L3125,1625L3125,1875C3125,1944.04 3069.04,2000 3000,2000C2930.96,2000 2875,1944.04 2875,1875Z" style="fill:rgb(0,162,42);fill-rule:nonzero;"/>
                <path d="M2905,1875C2905,1822.53 2947.53,1780 3000,1780C3052.47,1780 3095,1822.53 3095,1875L3000,1970L2905,1875Z" style="fill:rgb(0,174,198);fill-rule:nonzero;"/>
                <path d="M2875,1875L2875,1750L2625,1750L2750,1875L2875,1875Z" style="fill:rgb(139,59,149);fill-rule:nonzero;"/>
                <path d="M2500,1500L2750,1500L2750,1625L2875,1625L2875,1750L2750,1750L2625,1625C2625,1555.96 2569.04,1500 2500,1500Z" style="fill:rgb(194,243,250);fill-rule:nonzero;"/>
                <path d="M2875,1625L2875,1750L2750,1625L2875,1625Z" style="fill:rgb(253,181,210);fill-rule:nonzero;"/>
                <path d="M2750,1750L2750,1625L2875,1750L2875,1875L2750,1750Z" style="fill:rgb(250,70,143);fill-rule:nonzero;"/>
                <path d="M2625,1500L2750,1500L2750,1625C2750,1555.95 2694.04,1500 2625,1500Z" style="fill:rgb(153,235,246);fill-rule:nonzero;"/>
                <path d="M2905,1875L3095,1875C3095,1927.47 3052.47,1970 3000,1970C2947.53,1970 2905,1927.47 2905,1875Z" style="fill:rgb(0,205,232);fill-rule:nonzero;"/>
                <path d="M2875,1625L2875,1500L3250,1500C3180.95,1500 3125,1555.95 3125,1625L3000,1750L2875,1625Z" style="fill:rgb(255,203,31);fill-rule:nonzero;"/>
                <path d="M2750,1500L3000,1500C2930.96,1500 2875,1555.95 2875,1625C2875,1555.95 2819.04,1500 2750,1500Z" style="fill:rgb(255,137,29);fill-rule:nonzero;"/>
                <path d="M3000,1750L3000,1625L3125,1625C3125,1694.04 3069.04,1750 3000,1750Z" style="fill:rgb(255,190,31);fill-rule:nonzero;"/>
                <path d="M2875,1625L3000,1625L3000,1750C2930.96,1750 2875,1694.04 2875,1625Z" style="fill:rgb(255,137,29);fill-rule:nonzero;"/>
            </g>
            <g>
                <rect x="2250" y="1500" width="250.002" height="250" style="fill:rgb(110,10,122);"/>
                <path d="M2125,1625L2125,1875L2250,1875L2250,1500C2180.96,1500 2125,1555.96 2125,1625Z" style="fill:rgb(0,30,76);fill-rule:nonzero;"/>
                <path d="M2375,1625L2375,1875L2625,1875L2625,1625C2625,1555.96 2569.04,1500 2500,1500C2430.96,1500 2375,1555.96 2375,1625Z" style="fill:rgb(0,162,42);fill-rule:nonzero;"/>
                <path d="M2405,1625C2405,1677.47 2447.53,1720 2500,1720C2552.47,1720 2595,1677.47 2595,1625L2500,1530L2405,1625Z" style="fill:rgb(0,174,198);fill-rule:nonzero;"/>
                <path d="M2375,1625L2375,1750L2125,1750L2250,1625L2375,1625Z" style="fill:rgb(139,59,149);fill-rule:nonzero;"/>
                <path d="M2000,2000L2250,2000L2250,1875L2375,1875L2375,1750L2250,1750L2125,1875C2125,1944.04 2069.04,2000 2000,2000Z" style="fill:rgb(194,243,250);fill-rule:nonzero;"/>
                <path d="M2375,1875L2375,1750L2250,1875L2375,1875Z" style="fill:rgb(253,181,210);fill-rule:nonzero;"/>
                <path d="M2250,1750L2250,1875L2375,1750L2375,1625L2250,1750Z" style="fill:rgb(250,70,143);fill-rule:nonzero;"/>
                <path d="M2125,2000L2250,2000L2250,1875C2250,1944.05 2194.04,2000 2125,2000Z" style="fill:rgb(153,235,246);fill-rule:nonzero;"/>
                <path d="M2405,1625L2595,1625C2595,1572.53 2552.47,1530 2500,1530C2447.53,1530 2405,1572.53 2405,1625Z" style="fill:rgb(0,205,232);fill-rule:nonzero;"/>
                <path d="M2375,1875L2375,2000L2750,2000C2680.95,2000 2625,1944.05 2625,1875L2500,1750L2375,1875Z" style="fill:rgb(255,203,31);fill-rule:nonzero;"/>
                <path d="M2250,2000L2500,2000C2430.96,2000 2375,1944.05 2375,1875C2375,1944.05 2319.04,2000 2250,2000Z" style="fill:rgb(255,137,29);fill-rule:nonzero;"/>
                <path d="M2500,1750L2500,1875L2625,1875C2625,1805.96 2569.04,1750 2500,1750Z" style="fill:rgb(255,190,31);fill-rule:nonzero;"/>
                <path d="M2375,1875L2500,1875L2500,1750C2430.96,1750 2375,1805.96 2375,1875Z" style="fill:rgb(255,137,29);fill-rule:nonzero;"/>
            </g>
            <g>
                <rect x="1750" y="1750" width="250.002" height="250" style="fill:rgb(110,10,122);"/>
                <path d="M1625,1875L1625,1625L1750,1625L1750,2000C1680.96,2000 1625,1944.04 1625,1875Z" style="fill:rgb(0,30,76);fill-rule:nonzero;"/>
                <path d="M1875,1875L1875,1625L2125,1625L2125,1875C2125,1944.04 2069.04,2000 2000,2000C1930.96,2000 1875,1944.04 1875,1875Z" style="fill:rgb(0,162,42);fill-rule:nonzero;"/>
                <path d="M1905,1875C1905,1822.53 1947.53,1780 2000,1780C2052.47,1780 2095,1822.53 2095,1875L2000,1970L1905,1875Z" style="fill:rgb(0,174,198);fill-rule:nonzero;"/>
                <path d="M1875,1875L1875,1750L1625,1750L1750,1875L1875,1875Z" style="fill:rgb(139,59,149);fill-rule:nonzero;"/>
                <path d="M1500,1500L1750,1500L1750,1625L1875,1625L1875,1750L1750,1750L1625,1625C1625,1555.96 1569.04,1500 1500,1500Z" style="fill:rgb(194,243,250);fill-rule:nonzero;"/>
                <path d="M1875,1625L1875,1750L1750,1625L1875,1625Z" style="fill:rgb(253,181,210);fill-rule:nonzero;"/>
                <path d="M1750,1750L1750,1625L1875,1750L1875,1875L1750,1750Z" style="fill:rgb(250,70,143);fill-rule:nonzero;"/>
                <path d="M1625,1500L1750,1500L1750,1625C1750,1555.95 1694.04,1500 1625,1500Z" style="fill:rgb(153,235,246);fill-rule:nonzero;"/>
                <path d="M1905,1875L2095,1875C2095,1927.47 2052.47,1970 2000,1970C1947.53,1970 1905,1927.47 1905,1875Z" style="fill:rgb(0,205,232);fill-rule:nonzero;"/>
                <path d="M1875,1625L1875,1500L2250,1500C2180.95,1500 2125,1555.95 2125,1625L2000,1750L1875,1625Z" style="fill:rgb(255,203,31);fill-rule:nonzero;"/>
                <path d="M1750,1500L2000,1500C1930.96,1500 1875,1555.95 1875,1625C1875,1555.95 1819.04,1500 1750,1500Z" style="fill:rgb(255,137,29);fill-rule:nonzero;"/>
                <path d="M2000,1750L2000,1625L2125,1625C2125,1694.04 2069.04,1750 2000,1750Z" style="fill:rgb(255,190,31);fill-rule:nonzero;"/>
                <path d="M1875,1625L2000,1625L2000,1750C1930.96,1750 1875,1694.04 1875,1625Z" style="fill:rgb(255,137,29);fill-rule:nonzero;"/>
            </g>
            <g>
                <rect x="1250" y="1500" width="250.002" height="250" style="fill:rgb(110,10,122);"/>
                <path d="M1125,1625L1125,1875L1250,1875L1250,1500C1180.96,1500 1125,1555.96 1125,1625Z" style="fill:rgb(0,30,76);fill-rule:nonzero;"/>
                <path d="M1375,1625L1375,1875L1625,1875L1625,1625C1625,1555.96 1569.04,1500 1500,1500C1430.96,1500 1375,1555.96 1375,1625Z" style="fill:rgb(0,162,42);fill-rule:nonzero;"/>
                <path d="M1405,1625C1405,1677.47 1447.53,1720 1500,1720C1552.47,1720 1595,1677.47 1595,1625L1500,1530L1405,1625Z" style="fill:rgb(0,174,198);fill-rule:nonzero;"/>
                <path d="M1375,1625L1375,1750L1125,1750L1250,1625L1375,1625Z" style="fill:rgb(139,59,149);fill-rule:nonzero;"/>
                <path d="M1000,2000L1250,2000L1250,1875L1375,1875L1375,1750L1250,1750L1125,1875C1125,1944.04 1069.04,2000 1000,2000Z" style="fill:rgb(194,243,250);fill-rule:nonzero;"/>
                <path d="M1375,1875L1375,1750L1250,1875L1375,1875Z" style="fill:rgb(253,181,210);fill-rule:nonzero;"/>
                <path d="M1250,1750L1250,1875L1375,1750L1375,1625L1250,1750Z" style="fill:rgb(250,70,143);fill-rule:nonzero;"/>
                <path d="M1125,2000L1250,2000L1250,1875C1250,1944.05 1194.04,2000 1125,2000Z" style="fill:rgb(153,235,246);fill-rule:nonzero;"/>
                <path d="M1405,1625L1595,1625C1595,1572.53 1552.47,1530 1500,1530C1447.53,1530 1405,1572.53 1405,1625Z" style="fill:rgb(0,205,232);fill-rule:nonzero;"/>
                <path d="M1375,1875L1375,2000L1750,2000C1680.95,2000 1625,1944.05 1625,1875L1500,1750L1375,1875Z" style="fill:rgb(255,203,31);fill-rule:nonzero;"/>
                <path d="M1250,2000L1500,2000C1430.96,2000 1375,1944.05 1375,1875C1375,1944.05 1319.04,2000 1250,2000Z" style="fill:rgb(255,137,29);fill-rule:nonzero;"/>
                <path d="M1500,1750L1500,1875L1625,1875C1625,1805.96 1569.04,1750 1500,1750Z" style="fill:rgb(255,190,31);fill-rule:nonzero;"/>
                <path d="M1375,1875L1500,1875L1500,1750C1430.96,1750 1375,1805.96 1375,1875Z" style="fill:rgb(255,137,29);fill-rule:nonzero;"/>
            </g>
            <g>
                <path d="M3250,1000L3250,1375L3125,1375L3125,1125C3125,1055.96 3180.96,1000 3250,1000Z" style="fill:rgb(0,162,42);fill-rule:nonzero;"/>
                <path d="M3250,1030L3250,1220C3197.53,1220 3155,1177.47 3155,1125L3250,1030Z" style="fill:rgb(0,174,198);fill-rule:nonzero;"/>
                <path d="M3250,1030L3250,1125L3155,1125C3155,1072.53 3197.53,1030 3250,1030Z" style="fill:rgb(0,205,232);fill-rule:nonzero;"/>
                <path d="M3250,1250L3250,1500L3000,1500C3069.05,1500 3125,1444.05 3125,1375L3250,1250Z" style="fill:rgb(255,203,31);fill-rule:nonzero;"/>
                <path d="M3250,1250L3250,1375L3125,1375C3125,1305.96 3180.96,1250 3250,1250Z" style="fill:rgb(255,190,31);fill-rule:nonzero;"/>
            </g>
            <g>
                <rect x="2750" y="1250" width="250.002" height="250" style="fill:rgb(110,10,122);"/>
                <path d="M3125,1375L3125,1125L3000,1125L3000,1500C3069.04,1500 3125,1444.04 3125,1375Z" style="fill:rgb(0,30,76);fill-rule:nonzero;"/>
                <path d="M2875,1375L2875,1125L2625,1125L2625,1375C2625,1444.04 2680.96,1500 2750,1500C2819.04,1500 2875,1444.04 2875,1375Z" style="fill:rgb(0,162,42);fill-rule:nonzero;"/>
                <path d="M2845,1375C2845,1322.53 2802.47,1280 2750,1280C2697.53,1280 2655,1322.53 2655,1375L2750,1470L2845,1375Z" style="fill:rgb(0,174,198);fill-rule:nonzero;"/>
                <path d="M2875,1375L2875,1250L3125,1250L3000,1375L2875,1375Z" style="fill:rgb(139,59,149);fill-rule:nonzero;"/>
                <path d="M3250,1000L3000,1000L3000,1125L2875,1125L2875,1250L3000,1250L3125,1125C3125,1055.96 3180.96,1000 3250,1000Z" style="fill:rgb(194,243,250);fill-rule:nonzero;"/>
                <path d="M2875,1125L2875,1250L3000,1125L2875,1125Z" style="fill:rgb(253,181,210);fill-rule:nonzero;"/>
                <path d="M3000,1250L3000,1125L2875,1250L2875,1375L3000,1250Z" style="fill:rgb(250,70,143);fill-rule:nonzero;"/>
                <path d="M3125,1000L3000,1000L3000,1125C3000,1055.95 3055.96,1000 3125,1000Z" style="fill:rgb(153,235,246);fill-rule:nonzero;"/>
                <path d="M2845,1375L2655,1375C2655,1427.47 2697.53,1470 2750,1470C2802.47,1470 2845,1427.47 2845,1375Z" style="fill:rgb(0,205,232);fill-rule:nonzero;"/>
                <path d="M2875,1125L2875,1000L2500,1000C2569.05,1000 2625,1055.95 2625,1125L2750,1250L2875,1125Z" style="fill:rgb(255,203,31);fill-rule:nonzero;"/>
                <path d="M3000,1000L2750,1000C2819.04,1000 2875,1055.95 2875,1125C2875,1055.95 2930.96,1000 3000,1000Z" style="fill:rgb(255,137,29);fill-rule:nonzero;"/>
                <path d="M2750,1250L2750,1125L2625,1125C2625,1194.04 2680.96,1250 2750,1250Z" style="fill:rgb(255,190,31);fill-rule:nonzero;"/>
                <path d="M2875,1125L2750,1125L2750,1250C2819.04,1250 2875,1194.04 2875,1125Z" style="fill:rgb(255,137,29);fill-rule:nonzero;"/>
            </g>
            <g>
                <rect x="2250" y="1000" width="250.002" height="250" style="fill:rgb(110,10,122);"/>
                <path d="M2625,1125L2625,1375L2500,1375L2500,1000C2569.04,1000 2625,1055.96 2625,1125Z" style="fill:rgb(0,30,76);fill-rule:nonzero;"/>
                <path d="M2375,1125L2375,1375L2125,1375L2125,1125C2125,1055.96 2180.96,1000 2250,1000C2319.04,1000 2375,1055.96 2375,1125Z" style="fill:rgb(0,162,42);fill-rule:nonzero;"/>
                <path d="M2345,1125C2345,1177.47 2302.47,1220 2250,1220C2197.53,1220 2155,1177.47 2155,1125L2250,1030L2345,1125Z" style="fill:rgb(0,174,198);fill-rule:nonzero;"/>
                <path d="M2375,1125L2375,1250L2625,1250L2500,1125L2375,1125Z" style="fill:rgb(139,59,149);fill-rule:nonzero;"/>
                <path d="M2750,1500L2500,1500L2500,1375L2375,1375L2375,1250L2500,1250L2625,1375C2625,1444.04 2680.96,1500 2750,1500Z" style="fill:rgb(194,243,250);fill-rule:nonzero;"/>
                <path d="M2375,1375L2375,1250L2500,1375L2375,1375Z" style="fill:rgb(253,181,210);fill-rule:nonzero;"/>
                <path d="M2500,1250L2500,1375L2375,1250L2375,1125L2500,1250Z" style="fill:rgb(250,70,143);fill-rule:nonzero;"/>
                <path d="M2625,1500L2500,1500L2500,1375C2500,1444.05 2555.96,1500 2625,1500Z" style="fill:rgb(153,235,246);fill-rule:nonzero;"/>
                <path d="M2345,1125L2155,1125C2155,1072.53 2197.53,1030 2250,1030C2302.47,1030 2345,1072.53 2345,1125Z" style="fill:rgb(0,205,232);fill-rule:nonzero;"/>
                <path d="M2375,1375L2375,1500L2000,1500C2069.05,1500 2125,1444.05 2125,1375L2250,1250L2375,1375Z" style="fill:rgb(255,203,31);fill-rule:nonzero;"/>
                <path d="M2500,1500L2250,1500C2319.04,1500 2375,1444.05 2375,1375C2375,1444.05 2430.96,1500 2500,1500Z" style="fill:rgb(255,137,29);fill-rule:nonzero;"/>
                <path d="M2250,1250L2250,1375L2125,1375C2125,1305.96 2180.96,1250 2250,1250Z" style="fill:rgb(255,190,31);fill-rule:nonzero;"/>
                <path d="M2375,1375L2250,1375L2250,1250C2319.04,1250 2375,1305.96 2375,1375Z" style="fill:rgb(255,137,29);fill-rule:nonzero;"/>
            </g>
            <g>
                <rect x="1750" y="1250" width="250.002" height="250" style="fill:rgb(110,10,122);"/>
                <path d="M2125,1375L2125,1125L2000,1125L2000,1500C2069.04,1500 2125,1444.04 2125,1375Z" style="fill:rgb(0,30,76);fill-rule:nonzero;"/>
                <path d="M1875,1375L1875,1125L1625,1125L1625,1375C1625,1444.04 1680.96,1500 1750,1500C1819.04,1500 1875,1444.04 1875,1375Z" style="fill:rgb(0,162,42);fill-rule:nonzero;"/>
                <path d="M1845,1375C1845,1322.53 1802.47,1280 1750,1280C1697.53,1280 1655,1322.53 1655,1375L1750,1470L1845,1375Z" style="fill:rgb(0,174,198);fill-rule:nonzero;"/>
                <path d="M1875,1375L1875,1250L2125,1250L2000,1375L1875,1375Z" style="fill:rgb(139,59,149);fill-rule:nonzero;"/>
                <path d="M2250,1000L2000,1000L2000,1125L1875,1125L1875,1250L2000,1250L2125,1125C2125,1055.96 2180.96,1000 2250,1000Z" style="fill:rgb(194,243,250);fill-rule:nonzero;"/>
                <path d="M1875,1125L1875,1250L2000,1125L1875,1125Z" style="fill:rgb(253,181,210);fill-rule:nonzero;"/>
                <path d="M2000,1250L2000,1125L1875,1250L1875,1375L2000,1250Z" style="fill:rgb(250,70,143);fill-rule:nonzero;"/>
                <path d="M2125,1000L2000,1000L2000,1125C2000,1055.95 2055.96,1000 2125,1000Z" style="fill:rgb(153,235,246);fill-rule:nonzero;"/>
                <path d="M1845,1375L1655,1375C1655,1427.47 1697.53,1470 1750,1470C1802.47,1470 1845,1427.47 1845,1375Z" style="fill:rgb(0,205,232);fill-rule:nonzero;"/>
                <path d="M1875,1125L1875,1000L1500,1000C1569.05,1000 1625,1055.95 1625,1125L1750,1250L1875,1125Z" style="fill:rgb(255,203,31);fill-rule:nonzero;"/>
                <path d="M2000,1000L1750,1000C1819.04,1000 1875,1055.95 1875,1125C1875,1055.95 1930.96,1000 2000,1000Z" style="fill:rgb(255,137,29);fill-rule:nonzero;"/>
                <path d="M1750,1250L1750,1125L1625,1125C1625,1194.04 1680.96,1250 1750,1250Z" style="fill:rgb(255,190,31);fill-rule:nonzero;"/>
                <path d="M1875,1125L1750,1125L1750,1250C1819.04,1250 1875,1194.04 1875,1125Z" style="fill:rgb(255,137,29);fill-rule:nonzero;"/>
            </g>
            <g>
                <rect x="1250" y="1000" width="250.002" height="250" style="fill:rgb(110,10,122);"/>
                <path d="M1625,1125L1625,1375L1500,1375L1500,1000C1569.04,1000 1625,1055.96 1625,1125Z" style="fill:rgb(0,30,76);fill-rule:nonzero;"/>
                <path d="M1375,1125L1375,1375L1125,1375L1125,1125C1125,1055.96 1180.96,1000 1250,1000C1319.04,1000 1375,1055.96 1375,1125Z" style="fill:rgb(0,162,42);fill-rule:nonzero;"/>
                <path d="M1345,1125C1345,1177.47 1302.47,1220 1250,1220C1197.53,1220 1155,1177.47 1155,1125L1250,1030L1345,1125Z" style="fill:rgb(0,174,198);fill-rule:nonzero;"/>
                <path d="M1375,1125L1375,1250L1625,1250L1500,1125L1375,1125Z" style="fill:rgb(139,59,149);fill-rule:nonzero;"/>
                <path d="M1750,1500L1500,1500L1500,1375L1375,1375L1375,1250L1500,1250L1625,1375C1625,1444.04 1680.96,1500 1750,1500Z" style="fill:rgb(194,243,250);fill-rule:nonzero;"/>
                <path d="M1375,1375L1375,1250L1500,1375L1375,1375Z" style="fill:rgb(253,181,210);fill-rule:nonzero;"/>
                <path d="M1500,1250L1500,1375L1375,1250L1375,1125L1500,1250Z" style="fill:rgb(250,70,143);fill-rule:nonzero;"/>
                <path d="M1625,1500L1500,1500L1500,1375C1500,1444.05 1555.96,1500 1625,1500Z" style="fill:rgb(153,235,246);fill-rule:nonzero;"/>
                <path d="M1345,1125L1155,1125C1155,1072.53 1197.53,1030 1250,1030C1302.47,1030 1345,1072.53 1345,1125Z" style="fill:rgb(0,205,232);fill-rule:nonzero;"/>
                <path d="M1375,1375L1375,1500L1000,1500C1069.05,1500 1125,1444.05 1125,1375L1250,1250L1375,1375Z" style="fill:rgb(255,203,31);fill-rule:nonzero;"/>
                <path d="M1500,1500L1250,1500C1319.04,1500 1375,1444.05 1375,1375C1375,1444.05 1430.96,1500 1500,1500Z" style="fill:rgb(255,137,29);fill-rule:nonzero;"/>
                <path d="M1250,1250L1250,1375L1125,1375C1125,1305.96 1180.96,1250 1250,1250Z" style="fill:rgb(255,190,31);fill-rule:nonzero;"/>
                <path d="M1375,1375L1250,1375L1250,1250C1319.04,1250 1375,1305.96 1375,1375Z" style="fill:rgb(255,137,29);fill-rule:nonzero;"/>
            </g>
            <g>
                <rect x="749.998" y="1250" width="250.002" height="250" style="fill:rgb(110,10,122);"/>
                <path d="M1125,1375L1125,1125L1000,1125L1000,1500C1069.04,1500 1125,1444.04 1125,1375Z" style="fill:rgb(0,30,76);fill-rule:nonzero;"/>
                <path d="M875,1375L875,1125L625,1125L625,1375C625,1444.04 680.96,1500 750,1500C819.04,1500 875,1444.04 875,1375Z" style="fill:rgb(0,162,42);fill-rule:nonzero;"/>
                <path d="M844.998,1375C844.998,1322.53 802.469,1280 749.998,1280C697.527,1280 654.998,1322.53 654.998,1375L750,1470L844.998,1375Z" style="fill:rgb(0,174,198);fill-rule:nonzero;"/>
                <path d="M875,1375L875,1250L1125,1250L1000,1375L875,1375Z" style="fill:rgb(139,59,149);fill-rule:nonzero;"/>
                <path d="M1250,1000L1000,1000L1000,1125L875,1125L875,1250L1000,1250L1125,1125C1125,1055.96 1180.96,1000 1250,1000Z" style="fill:rgb(194,243,250);fill-rule:nonzero;"/>
                <path d="M875,1125L875,1250L1000,1125L875,1125Z" style="fill:rgb(253,181,210);fill-rule:nonzero;"/>
                <path d="M1000,1250L1000,1125L875,1250L875,1375L1000,1250Z" style="fill:rgb(250,70,143);fill-rule:nonzero;"/>
                <path d="M1125,1000L1000,1000L1000,1125C1000,1055.95 1055.96,1000 1125,1000Z" style="fill:rgb(153,235,246);fill-rule:nonzero;"/>
                <path d="M844.998,1375L654.998,1375C654.998,1427.47 697.527,1470 749.998,1470C802.469,1470 844.998,1427.47 844.998,1375Z" style="fill:rgb(0,205,232);fill-rule:nonzero;"/>
                <path d="M874.998,1125L874.998,1000L500,1000C569.05,1000 625,1055.95 625,1125L750,1250L874.998,1125Z" style="fill:rgb(255,203,31);fill-rule:nonzero;"/>
                <path d="M999.998,1000L749.998,1000C819.039,1000 874.998,1055.95 874.998,1125C874.998,1055.95 930.959,1000 999.998,1000Z" style="fill:rgb(255,137,29);fill-rule:nonzero;"/>
                <path d="M750,1250L750,1125L625,1125C625,1194.04 680.96,1250 750,1250Z" style="fill:rgb(255,190,31);fill-rule:nonzero;"/>
                <path d="M875,1125L750,1125L750,1250C819.04,1250 875,1194.04 875,1125Z" style="fill:rgb(255,137,29);fill-rule:nonzero;"/>
            </g>
            <g>
                <rect x="249.998" y="1000" width="250.002" height="250" style="fill:rgb(110,10,122);"/>
                <path d="M625,1125L625,1375L500,1375L500,1000C569.04,1000 625,1055.96 625,1125Z" style="fill:rgb(0,30,76);fill-rule:nonzero;"/>
                <path d="M375,1125L375,1375L125,1375L125,1125C125,1055.96 180.96,1000 250,1000C319.04,1000 375,1055.96 375,1125Z" style="fill:rgb(0,162,42);fill-rule:nonzero;"/>
                <path d="M344.998,1125C344.998,1177.47 302.469,1220 249.998,1220C197.527,1220 154.998,1177.47 154.998,1125L250,1030L344.998,1125Z" style="fill:rgb(0,174,198);fill-rule:nonzero;"/>
                <path d="M375,1125L375,1250L625,1250L500,1125L375,1125Z" style="fill:rgb(139,59,149);fill-rule:nonzero;"/>
                <path d="M750,1500L500,1500L500,1375L375,1375L375,1250L500,1250L625,1375C625,1444.04 680.96,1500 750,1500Z" style="fill:rgb(194,243,250);fill-rule:nonzero;"/>
                <path d="M375,1375L375,1250L500,1375L375,1375Z" style="fill:rgb(253,181,210);fill-rule:nonzero;"/>
                <path d="M500,1250L500,1375L375,1250L375,1125L500,1250Z" style="fill:rgb(250,70,143);fill-rule:nonzero;"/>
                <path d="M625,1500L500,1500L500,1375C500,1444.05 555.96,1500 625,1500Z" style="fill:rgb(153,235,246);fill-rule:nonzero;"/>
                <path d="M344.998,1125L154.998,1125C154.998,1072.53 197.527,1030 249.998,1030C302.469,1030 344.998,1072.53 344.998,1125Z" style="fill:rgb(0,205,232);fill-rule:nonzero;"/>
                <path d="M374.998,1375L374.998,1500L0,1500C69.05,1500 125,1444.05 125,1375L250,1250L374.998,1375Z" style="fill:rgb(255,203,31);fill-rule:nonzero;"/>
                <path d="M499.998,1500L249.998,1500C319.039,1500 374.998,1444.05 374.998,1375C374.998,1444.05 430.959,1500 499.998,1500Z" style="fill:rgb(255,137,29);fill-rule:nonzero;"/>
                <path d="M250,1250L250,1375L125,1375C125,1305.96 180.96,1250 250,1250Z" style="fill:rgb(255,190,31);fill-rule:nonzero;"/>
                <path d="M375,1375L250,1375L250,1250C319.04,1250 375,1305.96 375,1375Z" style="fill:rgb(255,137,29);fill-rule:nonzero;"/>
            </g>
            <g>
                <path d="M125,1375L125,1125L0,1125L0,1500C69.04,1500 125,1444.04 125,1375Z" style="fill:rgb(0,30,76);fill-rule:nonzero;"/>
                <path d="M125,1250L0,1375L0,1250L125,1250Z" style="fill:rgb(139,59,149);fill-rule:nonzero;"/>
                <path d="M250,1000C180.96,1000 125,1055.96 125,1125L0,1250L0,1000L250,1000Z" style="fill:rgb(194,243,250);fill-rule:nonzero;"/>
                <path d="M125,1000L0,1000L0,1125C0,1055.95 55.96,1000 125,1000Z" style="fill:rgb(153,235,246);fill-rule:nonzero;"/>
            </g>
            <g>
                <rect x="750" y="1750" width="250.002" height="250" style="fill:rgb(110,10,122);"/>
                <path d="M625,1875L625,1625L750,1625L750,2000C680.96,2000 625,1944.04 625,1875Z" style="fill:rgb(0,30,76);fill-rule:nonzero;"/>
                <path d="M875,1875L875,1625L1125,1625L1125,1875C1125,1944.04 1069.04,2000 1000,2000C930.96,2000 875,1944.04 875,1875Z" style="fill:rgb(0,162,42);fill-rule:nonzero;"/>
                <path d="M905.002,1875C905.002,1822.53 947.531,1780 1000,1780C1052.47,1780 1095,1822.53 1095,1875L1000,1970L905.002,1875Z" style="fill:rgb(0,174,198);fill-rule:nonzero;"/>
                <path d="M875,1875L875,1750L625,1750L750,1875L875,1875Z" style="fill:rgb(139,59,149);fill-rule:nonzero;"/>
                <path d="M500,1500L750,1500L750,1625L875,1625L875,1750L750,1750L625,1625C625,1555.96 569.04,1500 500,1500Z" style="fill:rgb(194,243,250);fill-rule:nonzero;"/>
                <path d="M875,1625L875,1750L750,1625L875,1625Z" style="fill:rgb(253,181,210);fill-rule:nonzero;"/>
                <path d="M750,1750L750,1625L875,1750L875,1875L750,1750Z" style="fill:rgb(250,70,143);fill-rule:nonzero;"/>
                <path d="M625,1500L750,1500L750,1625C750,1555.95 694.04,1500 625,1500Z" style="fill:rgb(153,235,246);fill-rule:nonzero;"/>
                <path d="M905.002,1875L1095,1875C1095,1927.47 1052.47,1970 1000,1970C947.531,1970 905.002,1927.47 905.002,1875Z" style="fill:rgb(0,205,232);fill-rule:nonzero;"/>
                <path d="M875.002,1625L875.002,1500L1250,1500C1180.95,1500 1125,1555.95 1125,1625L1000,1750L875.002,1625Z" style="fill:rgb(255,203,31);fill-rule:nonzero;"/>
                <path d="M750.002,1500L1000,1500C930.961,1500 875.002,1555.95 875.002,1625C875.002,1555.95 819.041,1500 750.002,1500Z" style="fill:rgb(255,137,29);fill-rule:nonzero;"/>
                <path d="M1000,1750L1000,1625L1125,1625C1125,1694.04 1069.04,1750 1000,1750Z" style="fill:rgb(255,190,31);fill-rule:nonzero;"/>
                <path d="M875,1625L1000,1625L1000,1750C930.96,1750 875,1694.04 875,1625Z" style="fill:rgb(255,137,29);fill-rule:nonzero;"/>
            </g>
            <g>
                <path d="M125,1625L125,1875C125,1944.04 69.04,2000 0,2000L0,1625L125,1625Z" style="fill:rgb(0,162,42);fill-rule:nonzero;"/>
                <path d="M95,1875L0,1970L0,1780C52.471,1780 95,1822.53 95,1875Z" style="fill:rgb(0,174,198);fill-rule:nonzero;"/>
                <path d="M95,1875C95,1927.47 52.471,1970 0,1970L0,1875L95,1875Z" style="fill:rgb(0,205,232);fill-rule:nonzero;"/>
                <path d="M250,1500C180.95,1500 125,1555.95 125,1625L0,1750L0,1500L250,1500Z" style="fill:rgb(255,203,31);fill-rule:nonzero;"/>
                <path d="M0,1750L0,1625L125,1625C125,1694.04 69.04,1750 0,1750Z" style="fill:rgb(255,190,31);fill-rule:nonzero;"/>
            </g>
            <g>
                <rect x="250" y="1500" width="250.002" height="250" style="fill:rgb(110,10,122);"/>
                <path d="M125,1625L125,1875L250,1875L250,1500C180.96,1500 125,1555.96 125,1625Z" style="fill:rgb(0,30,76);fill-rule:nonzero;"/>
                <path d="M375,1625L375,1875L625,1875L625,1625C625,1555.96 569.04,1500 500,1500C430.96,1500 375,1555.96 375,1625Z" style="fill:rgb(0,162,42);fill-rule:nonzero;"/>
                <path d="M405.002,1625C405.002,1677.47 447.531,1720 500.002,1720C552.473,1720 595.002,1677.47 595.002,1625L500,1530L405.002,1625Z" style="fill:rgb(0,174,198);fill-rule:nonzero;"/>
                <path d="M375,1625L375,1750L125,1750L250,1625L375,1625Z" style="fill:rgb(139,59,149);fill-rule:nonzero;"/>
                <path d="M0,2000L250,2000L250,1875L375,1875L375,1750L250,1750L125,1875C125,1944.04 69.04,2000 0,2000Z" style="fill:rgb(194,243,250);fill-rule:nonzero;"/>
                <path d="M375,1875L375,1750L250,1875L375,1875Z" style="fill:rgb(253,181,210);fill-rule:nonzero;"/>
                <path d="M250,1750L250,1875L375,1750L375,1625L250,1750Z" style="fill:rgb(250,70,143);fill-rule:nonzero;"/>
                <path d="M125,2000L250,2000L250,1875C250,1944.05 194.04,2000 125,2000Z" style="fill:rgb(153,235,246);fill-rule:nonzero;"/>
                <path d="M405.002,1625L595.002,1625C595.002,1572.53 552.473,1530 500.002,1530C447.531,1530 405.002,1572.53 405.002,1625Z" style="fill:rgb(0,205,232);fill-rule:nonzero;"/>
                <path d="M375.002,1875L375.002,2000L750,2000C680.95,2000 625,1944.05 625,1875L500,1750L375.002,1875Z" style="fill:rgb(255,203,31);fill-rule:nonzero;"/>
                <path d="M250.002,2000L500.002,2000C430.961,2000 375.002,1944.05 375.002,1875C375.002,1944.05 319.041,2000 250.002,2000Z" style="fill:rgb(255,137,29);fill-rule:nonzero;"/>
                <path d="M500,1750L500,1875L625,1875C625,1805.96 569.04,1750 500,1750Z" style="fill:rgb(255,190,31);fill-rule:nonzero;"/>
                <path d="M375,1875L500,1875L500,1750C430.96,1750 375,1805.96 375,1875Z" style="fill:rgb(255,137,29);fill-rule:nonzero;"/>
            </g>
            <g>
                <g transform="matrix(1,0,0,1,0.002,0)">
                    <path d="M3125,625L3125,875L3250,874.927L3250,500C3180.96,500 3125,555.96 3125,625Z" style="fill:rgb(0,30,76);fill-rule:nonzero;"/>
                </g>
                <path d="M3250,625L3250,750L3125,750L3250,625Z" style="fill:rgb(139,59,149);fill-rule:nonzero;"/>
                <path d="M3250,750L3250,1000L3000,1000C3069.04,1000 3125,944.04 3125,875L3250,750Z" style="fill:rgb(194,243,250);fill-rule:nonzero;"/>
                <path d="M3125,1000L3250,1000L3250,875C3250,944.05 3194.04,1000 3125,1000Z" style="fill:rgb(153,235,246);fill-rule:nonzero;"/>
            </g>
            <g>
                <rect x="2750" y="750" width="250.002" height="250" style="fill:rgb(110,10,122);"/>
                <path d="M2625,875L2625,625L2750,625L2750,1000C2680.96,1000 2625,944.04 2625,875Z" style="fill:rgb(0,30,76);fill-rule:nonzero;"/>
                <path d="M2875,875L2875,625L3125,625L3125,875C3125,944.04 3069.04,1000 3000,1000C2930.96,1000 2875,944.04 2875,875Z" style="fill:rgb(0,162,42);fill-rule:nonzero;"/>
                <path d="M2905,875C2905,822.529 2947.53,780 3000,780C3052.47,780 3095,822.529 3095,875L3000,970L2905,875Z" style="fill:rgb(0,174,198);fill-rule:nonzero;"/>
                <path d="M2875,875L2875,750L2625,750L2750,875L2875,875Z" style="fill:rgb(139,59,149);fill-rule:nonzero;"/>
                <path d="M2500,500L2750,500L2750,625L2875,625L2875,750L2750,750L2625,625C2625,555.96 2569.04,500 2500,500Z" style="fill:rgb(194,243,250);fill-rule:nonzero;"/>
                <path d="M2875,625L2875,750L2750,625L2875,625Z" style="fill:rgb(253,181,210);fill-rule:nonzero;"/>
                <path d="M2750,750L2750,625L2875,750L2875,875L2750,750Z" style="fill:rgb(250,70,143);fill-rule:nonzero;"/>
                <path d="M2625,500L2750,500L2750,625C2750,555.95 2694.04,500 2625,500Z" style="fill:rgb(153,235,246);fill-rule:nonzero;"/>
                <path d="M2905,875L3095,875C3095,927.471 3052.47,970 3000,970C2947.53,970 2905,927.471 2905,875Z" style="fill:rgb(0,205,232);fill-rule:nonzero;"/>
                <path d="M2875,625L2875,500L3250,500C3180.95,500 3125,555.95 3125,625L3000,750L2875,625Z" style="fill:rgb(255,203,31);fill-rule:nonzero;"/>
                <path d="M2750,500.004L3000,500.004C2930.96,500.004 2875,555.954 2875,625.004C2875,555.954 2819.04,500.004 2750,500.004Z" style="fill:rgb(255,137,29);fill-rule:nonzero;"/>
                <path d="M3000,750L3000,625L3125,625C3125,694.04 3069.04,750 3000,750Z" style="fill:rgb(255,190,31);fill-rule:nonzero;"/>
                <path d="M2875,625L3000,625L3000,750C2930.96,750 2875,694.04 2875,625Z" style="fill:rgb(255,137,29);fill-rule:nonzero;"/>
            </g>
            <g>
                <rect x="2250" y="500" width="250.002" height="250" style="fill:rgb(110,10,122);"/>
                <path d="M2125,625L2125,875L2250,875L2250,500C2180.96,500 2125,555.96 2125,625Z" style="fill:rgb(0,30,76);fill-rule:nonzero;"/>
                <path d="M2375,625L2375,875L2625,875L2625,625C2625,555.96 2569.04,500 2500,500C2430.96,500 2375,555.96 2375,625Z" style="fill:rgb(0,162,42);fill-rule:nonzero;"/>
                <path d="M2405,625C2405,677.471 2447.53,720 2500,720C2552.47,720 2595,677.471 2595,625L2500,530L2405,625Z" style="fill:rgb(0,174,198);fill-rule:nonzero;"/>
                <path d="M2375,625L2375,750L2125,750L2250,625L2375,625Z" style="fill:rgb(139,59,149);fill-rule:nonzero;"/>
                <path d="M2000,1000L2250,1000L2250,875L2375,875L2375,750L2250,750L2125,875C2125,944.04 2069.04,1000 2000,1000Z" style="fill:rgb(194,243,250);fill-rule:nonzero;"/>
                <path d="M2375,875L2375,750L2250,875L2375,875Z" style="fill:rgb(253,181,210);fill-rule:nonzero;"/>
                <path d="M2250,750L2250,875L2375,750L2375,625L2250,750Z" style="fill:rgb(250,70,143);fill-rule:nonzero;"/>
                <path d="M2125,1000L2250,1000L2250,875C2250,944.05 2194.04,1000 2125,1000Z" style="fill:rgb(153,235,246);fill-rule:nonzero;"/>
                <path d="M2405,625L2595,625C2595,572.529 2552.47,530 2500,530C2447.53,530 2405,572.529 2405,625Z" style="fill:rgb(0,205,232);fill-rule:nonzero;"/>
                <path d="M2375,875L2375,1000L2750,1000C2680.95,1000 2625,944.05 2625,875L2500,750L2375,875Z" style="fill:rgb(255,203,31);fill-rule:nonzero;"/>
                <path d="M2250,999.996L2500,999.996C2430.96,999.996 2375,944.046 2375,874.996C2375,944.046 2319.04,999.996 2250,999.996Z" style="fill:rgb(255,137,29);fill-rule:nonzero;"/>
                <path d="M2500,750L2500,875L2625,875C2625,805.96 2569.04,750 2500,750Z" style="fill:rgb(255,190,31);fill-rule:nonzero;"/>
                <path d="M2375,875L2500,875L2500,750C2430.96,750 2375,805.96 2375,875Z" style="fill:rgb(255,137,29);fill-rule:nonzero;"/>
            </g>
            <g>
                <rect x="1750" y="750" width="250.002" height="250" style="fill:rgb(110,10,122);"/>
                <path d="M1625,875L1625,625L1750,625L1750,1000C1680.96,1000 1625,944.04 1625,875Z" style="fill:rgb(0,30,76);fill-rule:nonzero;"/>
                <path d="M1875,875L1875,625L2125,625L2125,875C2125,944.04 2069.04,1000 2000,1000C1930.96,1000 1875,944.04 1875,875Z" style="fill:rgb(0,162,42);fill-rule:nonzero;"/>
                <path d="M1905,875C1905,822.529 1947.53,780 2000,780C2052.47,780 2095,822.529 2095,875L2000,970L1905,875Z" style="fill:rgb(0,174,198);fill-rule:nonzero;"/>
                <path d="M1875,875L1875,750L1625,750L1750,875L1875,875Z" style="fill:rgb(139,59,149);fill-rule:nonzero;"/>
                <path d="M1500,500L1750,500L1750,625L1875,625L1875,750L1750,750L1625,625C1625,555.96 1569.04,500 1500,500Z" style="fill:rgb(194,243,250);fill-rule:nonzero;"/>
                <path d="M1875,625L1875,750L1750,625L1875,625Z" style="fill:rgb(253,181,210);fill-rule:nonzero;"/>
                <path d="M1750,750L1750,625L1875,750L1875,875L1750,750Z" style="fill:rgb(250,70,143);fill-rule:nonzero;"/>
                <path d="M1625,500L1750,500L1750,625C1750,555.95 1694.04,500 1625,500Z" style="fill:rgb(153,235,246);fill-rule:nonzero;"/>
                <path d="M1905,875L2095,875C2095,927.471 2052.47,970 2000,970C1947.53,970 1905,927.471 1905,875Z" style="fill:rgb(0,205,232);fill-rule:nonzero;"/>
                <path d="M1875,625L1875,500L2250,500C2180.95,500 2125,555.95 2125,625L2000,750L1875,625Z" style="fill:rgb(255,203,31);fill-rule:nonzero;"/>
                <path d="M1750,500.004L2000,500.004C1930.96,500.004 1875,555.954 1875,625.004C1875,555.954 1819.04,500.004 1750,500.004Z" style="fill:rgb(255,137,29);fill-rule:nonzero;"/>
                <path d="M2000,750L2000,625L2125,625C2125,694.04 2069.04,750 2000,750Z" style="fill:rgb(255,190,31);fill-rule:nonzero;"/>
                <path d="M1875,625L2000,625L2000,750C1930.96,750 1875,694.04 1875,625Z" style="fill:rgb(255,137,29);fill-rule:nonzero;"/>
            </g>
            <g>
                <rect x="1250" y="500" width="250.002" height="250" style="fill:rgb(110,10,122);"/>
                <path d="M1125,625L1125,875L1250,875L1250,500C1180.96,500 1125,555.96 1125,625Z" style="fill:rgb(0,30,76);fill-rule:nonzero;"/>
                <path d="M1375,625L1375,875L1625,875L1625,625C1625,555.96 1569.04,500 1500,500C1430.96,500 1375,555.96 1375,625Z" style="fill:rgb(0,162,42);fill-rule:nonzero;"/>
                <path d="M1405,625C1405,677.471 1447.53,720 1500,720C1552.47,720 1595,677.471 1595,625L1500,530L1405,625Z" style="fill:rgb(0,174,198);fill-rule:nonzero;"/>
                <path d="M1375,625L1375,750L1125,750L1250,625L1375,625Z" style="fill:rgb(139,59,149);fill-rule:nonzero;"/>
                <path d="M1000,1000L1250,1000L1250,875L1375,875L1375,750L1250,750L1125,875C1125,944.04 1069.04,1000 1000,1000Z" style="fill:rgb(194,243,250);fill-rule:nonzero;"/>
                <path d="M1375,875L1375,750L1250,875L1375,875Z" style="fill:rgb(253,181,210);fill-rule:nonzero;"/>
                <path d="M1250,750L1250,875L1375,750L1375,625L1250,750Z" style="fill:rgb(250,70,143);fill-rule:nonzero;"/>
                <path d="M1125,1000L1250,1000L1250,875C1250,944.05 1194.04,1000 1125,1000Z" style="fill:rgb(153,235,246);fill-rule:nonzero;"/>
                <path d="M1405,625L1595,625C1595,572.529 1552.47,530 1500,530C1447.53,530 1405,572.529 1405,625Z" style="fill:rgb(0,205,232);fill-rule:nonzero;"/>
                <path d="M1375,875L1375,1000L1750,1000C1680.95,1000 1625,944.05 1625,875L1500,750L1375,875Z" style="fill:rgb(255,203,31);fill-rule:nonzero;"/>
                <path d="M1250,999.996L1500,999.996C1430.96,999.996 1375,944.046 1375,874.996C1375,944.046 1319.04,999.996 1250,999.996Z" style="fill:rgb(255,137,29);fill-rule:nonzero;"/>
                <path d="M1500,750L1500,875L1625,875C1625,805.96 1569.04,750 1500,750Z" style="fill:rgb(255,190,31);fill-rule:nonzero;"/>
                <path d="M1375,875L1500,875L1500,750C1430.96,750 1375,805.96 1375,875Z" style="fill:rgb(255,137,29);fill-rule:nonzero;"/>
            </g>
            <g>
                <path d="M3250,0L3250,375L3125,375L3125,125C3125,55.96 3180.96,0 3250,0Z" style="fill:rgb(0,162,42);fill-rule:nonzero;"/>
                <path d="M3250,30L3250,220C3197.53,220 3155,177.47 3155,125L3250,30Z" style="fill:rgb(0,174,198);fill-rule:nonzero;"/>
                <path d="M3250,30L3250,125L3155,125C3155,72.53 3197.53,30 3250,30Z" style="fill:rgb(0,205,232);fill-rule:nonzero;"/>
                <path d="M3250,250L3250,500L3000,500C3069.05,500 3125,444.05 3125,375L3250,250Z" style="fill:rgb(255,203,31);fill-rule:nonzero;"/>
                <path d="M3250,250L3250,375L3125,375C3125,305.96 3180.96,250 3250,250Z" style="fill:rgb(255,190,31);fill-rule:nonzero;"/>
            </g>
            <g>
                <rect x="2750" y="250" width="250.002" height="250" style="fill:rgb(110,10,122);"/>
                <path d="M3125,375L3125,125L3000,125L3000,500C3069.04,500 3125,444.04 3125,375Z" style="fill:rgb(0,30,76);fill-rule:nonzero;"/>
                <path d="M2875,375L2875,125L2625,125L2625,375C2625,444.04 2680.96,500 2750,500C2819.04,500 2875,444.04 2875,375Z" style="fill:rgb(0,162,42);fill-rule:nonzero;"/>
                <path d="M2845,375C2845,322.529 2802.47,280 2750,280C2697.53,280 2655,322.529 2655,375L2750,470L2845,375Z" style="fill:rgb(0,174,198);fill-rule:nonzero;"/>
                <path d="M2875,375L2875,250L3125,250L3000,375L2875,375Z" style="fill:rgb(139,59,149);fill-rule:nonzero;"/>
                <path d="M3250,0L3000,0L3000,125L2875,125L2875,250L3000,250L3125,125C3125,55.96 3180.96,0 3250,0Z" style="fill:rgb(194,243,250);fill-rule:nonzero;"/>
                <path d="M2875,125L2875,250L3000,125L2875,125Z" style="fill:rgb(253,181,210);fill-rule:nonzero;"/>
                <path d="M3000,250L3000,125L2875,250L2875,375L3000,250Z" style="fill:rgb(250,70,143);fill-rule:nonzero;"/>
                <path d="M3125,0L3000,0L3000,125C3000,55.95 3055.96,0 3125,0Z" style="fill:rgb(153,235,246);fill-rule:nonzero;"/>
                <path d="M2845,375L2655,375C2655,427.471 2697.53,470 2750,470C2802.47,470 2845,427.471 2845,375Z" style="fill:rgb(0,205,232);fill-rule:nonzero;"/>
                <path d="M2875,125L2875,0L2500,0C2569.05,0 2625,55.95 2625,125L2750,250L2875,125Z" style="fill:rgb(255,203,31);fill-rule:nonzero;"/>
                <path d="M3000,0.004L2750,0.004C2819.04,0.004 2875,55.954 2875,125.004C2875,55.954 2930.96,0.004 3000,0.004Z" style="fill:rgb(255,137,29);fill-rule:nonzero;"/>
                <path d="M2750,250L2750,125L2625,125C2625,194.04 2680.96,250 2750,250Z" style="fill:rgb(255,190,31);fill-rule:nonzero;"/>
                <path d="M2875,125L2750,125L2750,250C2819.04,250 2875,194.04 2875,125Z" style="fill:rgb(255,137,29);fill-rule:nonzero;"/>
            </g>
            <g>
                <rect x="2250" y="0" width="250.002" height="250" style="fill:rgb(110,10,122);"/>
                <path d="M2625,125L2625,375L2500,375L2500,0C2569.04,0 2625,55.96 2625,125Z" style="fill:rgb(0,30,76);fill-rule:nonzero;"/>
                <path d="M2375,125L2375,375L2125,375L2125,125C2125,55.96 2180.96,0 2250,0C2319.04,0 2375,55.96 2375,125Z" style="fill:rgb(0,162,42);fill-rule:nonzero;"/>
                <path d="M2345,125C2345,177.471 2302.47,220 2250,220C2197.53,220 2155,177.471 2155,125L2250,30L2345,125Z" style="fill:rgb(0,174,198);fill-rule:nonzero;"/>
                <path d="M2375,125L2375,250L2625,250L2500,125L2375,125Z" style="fill:rgb(139,59,149);fill-rule:nonzero;"/>
                <path d="M2750,500L2500,500L2500,375L2375,375L2375,250L2500,250L2625,375C2625,444.04 2680.96,500 2750,500Z" style="fill:rgb(194,243,250);fill-rule:nonzero;"/>
                <path d="M2375,375L2375,250L2500,375L2375,375Z" style="fill:rgb(253,181,210);fill-rule:nonzero;"/>
                <path d="M2500,250L2500,375L2375,250L2375,125L2500,250Z" style="fill:rgb(250,70,143);fill-rule:nonzero;"/>
                <path d="M2625,500L2500,500L2500,375C2500,444.05 2555.96,500 2625,500Z" style="fill:rgb(153,235,246);fill-rule:nonzero;"/>
                <path d="M2345,125L2155,125C2155,72.529 2197.53,30 2250,30C2302.47,30 2345,72.529 2345,125Z" style="fill:rgb(0,205,232);fill-rule:nonzero;"/>
                <path d="M2375,375L2375,500L2000,500C2069.05,500 2125,444.05 2125,375L2250,250L2375,375Z" style="fill:rgb(255,203,31);fill-rule:nonzero;"/>
                <path d="M2500,499.996L2250,499.996C2319.04,499.996 2375,444.046 2375,374.996C2375,444.046 2430.96,499.996 2500,499.996Z" style="fill:rgb(255,137,29);fill-rule:nonzero;"/>
                <path d="M2250,250L2250,375L2125,375C2125,305.96 2180.96,250 2250,250Z" style="fill:rgb(255,190,31);fill-rule:nonzero;"/>
                <path d="M2375,375L2250,375L2250,250C2319.04,250 2375,305.96 2375,375Z" style="fill:rgb(255,137,29);fill-rule:nonzero;"/>
            </g>
            <g>
                <rect x="1750" y="250" width="250.002" height="250" style="fill:rgb(110,10,122);"/>
                <path d="M2125,375L2125,125L2000,125L2000,500C2069.04,500 2125,444.04 2125,375Z" style="fill:rgb(0,30,76);fill-rule:nonzero;"/>
                <path d="M1875,375L1875,125L1625,125L1625,375C1625,444.04 1680.96,500 1750,500C1819.04,500 1875,444.04 1875,375Z" style="fill:rgb(0,162,42);fill-rule:nonzero;"/>
                <path d="M1845,375C1845,322.529 1802.47,280 1750,280C1697.53,280 1655,322.529 1655,375L1750,470L1845,375Z" style="fill:rgb(0,174,198);fill-rule:nonzero;"/>
                <path d="M1875,375L1875,250L2125,250L2000,375L1875,375Z" style="fill:rgb(139,59,149);fill-rule:nonzero;"/>
                <path d="M2250,0L2000,0L2000,125L1875,125L1875,250L2000,250L2125,125C2125,55.96 2180.96,0 2250,0Z" style="fill:rgb(194,243,250);fill-rule:nonzero;"/>
                <path d="M1875,125L1875,250L2000,125L1875,125Z" style="fill:rgb(253,181,210);fill-rule:nonzero;"/>
                <path d="M2000,250L2000,125L1875,250L1875,375L2000,250Z" style="fill:rgb(250,70,143);fill-rule:nonzero;"/>
                <path d="M2125,0L2000,0L2000,125C2000,55.95 2055.96,0 2125,0Z" style="fill:rgb(153,235,246);fill-rule:nonzero;"/>
                <path d="M1845,375L1655,375C1655,427.471 1697.53,470 1750,470C1802.47,470 1845,427.471 1845,375Z" style="fill:rgb(0,205,232);fill-rule:nonzero;"/>
                <path d="M1875,125L1875,0L1500,0C1569.05,0 1625,55.95 1625,125L1750,250L1875,125Z" style="fill:rgb(255,203,31);fill-rule:nonzero;"/>
                <path d="M2000,0.004L1750,0.004C1819.04,0.004 1875,55.954 1875,125.004C1875,55.954 1930.96,0.004 2000,0.004Z" style="fill:rgb(255,137,29);fill-rule:nonzero;"/>
                <path d="M1750,250L1750,125L1625,125C1625,194.04 1680.96,250 1750,250Z" style="fill:rgb(255,190,31);fill-rule:nonzero;"/>
                <path d="M1875,125L1750,125L1750,250C1819.04,250 1875,194.04 1875,125Z" style="fill:rgb(255,137,29);fill-rule:nonzero;"/>
            </g>
            <g>
                <rect x="1250" y="0" width="250.002" height="250" style="fill:rgb(110,10,122);"/>
                <path d="M1625,125L1625,375L1500,375L1500,0C1569.04,0 1625,55.96 1625,125Z" style="fill:rgb(0,30,76);fill-rule:nonzero;"/>
                <path d="M1375,125L1375,375L1125,375L1125,125C1125,55.96 1180.96,0 1250,0C1319.04,0 1375,55.96 1375,125Z" style="fill:rgb(0,162,42);fill-rule:nonzero;"/>
                <path d="M1345,125C1345,177.471 1302.47,220 1250,220C1197.53,220 1155,177.471 1155,125L1250,30L1345,125Z" style="fill:rgb(0,174,198);fill-rule:nonzero;"/>
                <path d="M1375,125L1375,250L1625,250L1500,125L1375,125Z" style="fill:rgb(139,59,149);fill-rule:nonzero;"/>
                <path d="M1750,500L1500,500L1500,375L1375,375L1375,250L1500,250L1625,375C1625,444.04 1680.96,500 1750,500Z" style="fill:rgb(194,243,250);fill-rule:nonzero;"/>
                <path d="M1375,375L1375,250L1500,375L1375,375Z" style="fill:rgb(253,181,210);fill-rule:nonzero;"/>
                <path d="M1500,250L1500,375L1375,250L1375,125L1500,250Z" style="fill:rgb(250,70,143);fill-rule:nonzero;"/>
                <path d="M1625,500L1500,500L1500,375C1500,444.05 1555.96,500 1625,500Z" style="fill:rgb(153,235,246);fill-rule:nonzero;"/>
                <path d="M1345,125L1155,125C1155,72.529 1197.53,30 1250,30C1302.47,30 1345,72.529 1345,125Z" style="fill:rgb(0,205,232);fill-rule:nonzero;"/>
                <path d="M1375,375L1375,500L1000,500C1069.05,500 1125,444.05 1125,375L1250,250L1375,375Z" style="fill:rgb(255,203,31);fill-rule:nonzero;"/>
                <path d="M1500,499.996L1250,499.996C1319.04,499.996 1375,444.046 1375,374.996C1375,444.046 1430.96,499.996 1500,499.996Z" style="fill:rgb(255,137,29);fill-rule:nonzero;"/>
                <path d="M1250,250L1250,375L1125,375C1125,305.96 1180.96,250 1250,250Z" style="fill:rgb(255,190,31);fill-rule:nonzero;"/>
                <path d="M1375,375L1250,375L1250,250C1319.04,250 1375,305.96 1375,375Z" style="fill:rgb(255,137,29);fill-rule:nonzero;"/>
            </g>
            <g>
                <rect x="749.998" y="250" width="250.002" height="250" style="fill:rgb(110,10,122);"/>
                <path d="M1125,375L1125,125L1000,125L1000,500C1069.04,500 1125,444.04 1125,375Z" style="fill:rgb(0,30,76);fill-rule:nonzero;"/>
                <path d="M875,375L875,125L625,125L625,375C625,444.04 680.96,500 750,500C819.04,500 875,444.04 875,375Z" style="fill:rgb(0,162,42);fill-rule:nonzero;"/>
                <path d="M844.998,375C844.998,322.529 802.469,280 749.998,280C697.527,280 654.998,322.529 654.998,375L750,470L844.998,375Z" style="fill:rgb(0,174,198);fill-rule:nonzero;"/>
                <path d="M875,375L875,250L1125,250L1000,375L875,375Z" style="fill:rgb(139,59,149);fill-rule:nonzero;"/>
                <path d="M1250,0L1000,0L1000,125L875,125L875,250L1000,250L1125,125C1125,55.96 1180.96,0 1250,0Z" style="fill:rgb(194,243,250);fill-rule:nonzero;"/>
                <path d="M875,125L875,250L1000,125L875,125Z" style="fill:rgb(253,181,210);fill-rule:nonzero;"/>
                <path d="M1000,250L1000,125L875,250L875,375L1000,250Z" style="fill:rgb(250,70,143);fill-rule:nonzero;"/>
                <path d="M1125,0L1000,0L1000,125C1000,55.95 1055.96,0 1125,0Z" style="fill:rgb(153,235,246);fill-rule:nonzero;"/>
                <path d="M844.998,375L654.998,375C654.998,427.471 697.527,470 749.998,470C802.469,470 844.998,427.471 844.998,375Z" style="fill:rgb(0,205,232);fill-rule:nonzero;"/>
                <path d="M874.998,125L874.998,0L500,0C569.05,0 625,55.95 625,125L750,250L874.998,125Z" style="fill:rgb(255,203,31);fill-rule:nonzero;"/>
                <path d="M999.998,0.004L749.998,0.004C819.039,0.004 874.998,55.954 874.998,125.004C874.998,55.954 930.959,0.004 999.998,0.004Z" style="fill:rgb(255,137,29);fill-rule:nonzero;"/>
                <path d="M750,250L750,125L625,125C625,194.04 680.96,250 750,250Z" style="fill:rgb(255,190,31);fill-rule:nonzero;"/>
                <path d="M875,125L750,125L750,250C819.04,250 875,194.04 875,125Z" style="fill:rgb(255,137,29);fill-rule:nonzero;"/>
            </g>
            <g>
                <rect x="249.998" y="0" width="250.002" height="250" style="fill:rgb(110,10,122);"/>
                <path d="M625,125L625,375L500,375L500,0C569.04,0 625,55.96 625,125Z" style="fill:rgb(0,30,76);fill-rule:nonzero;"/>
                <path d="M375,125L375,375L125,375L125,125C125,55.96 180.96,0 250,0C319.04,0 375,55.96 375,125Z" style="fill:rgb(0,162,42);fill-rule:nonzero;"/>
                <path d="M344.998,125C344.998,177.471 302.469,220 249.998,220C197.527,220 154.998,177.471 154.998,125L250,30L344.998,125Z" style="fill:rgb(0,174,198);fill-rule:nonzero;"/>
                <path d="M375,125L375,250L625,250L500,125L375,125Z" style="fill:rgb(139,59,149);fill-rule:nonzero;"/>
                <path d="M750,500L500,500L500,375L375,375L375,250L500,250L625,375C625,444.04 680.96,500 750,500Z" style="fill:rgb(194,243,250);fill-rule:nonzero;"/>
                <path d="M375,375L375,250L500,375L375,375Z" style="fill:rgb(253,181,210);fill-rule:nonzero;"/>
                <path d="M500,250L500,375L375,250L375,125L500,250Z" style="fill:rgb(250,70,143);fill-rule:nonzero;"/>
                <path d="M625,500L500,500L500,375C500,444.05 555.96,500 625,500Z" style="fill:rgb(153,235,246);fill-rule:nonzero;"/>
                <path d="M344.998,125L154.998,125C154.998,72.529 197.527,30 249.998,30C302.469,30 344.998,72.529 344.998,125Z" style="fill:rgb(0,205,232);fill-rule:nonzero;"/>
                <path d="M374.998,375L374.998,500L0,500C69.05,500 125,444.05 125,375L250,250L374.998,375Z" style="fill:rgb(255,203,31);fill-rule:nonzero;"/>
                <path d="M499.998,499.996L249.998,499.996C319.039,499.996 374.998,444.046 374.998,374.996C374.998,444.046 430.959,499.996 499.998,499.996Z" style="fill:rgb(255,137,29);fill-rule:nonzero;"/>
                <path d="M250,250L250,375L125,375C125,305.96 180.96,250 250,250Z" style="fill:rgb(255,190,31);fill-rule:nonzero;"/>
                <path d="M375,375L250,375L250,250C319.04,250 375,305.96 375,375Z" style="fill:rgb(255,137,29);fill-rule:nonzero;"/>
            </g>
            <g>
                <path d="M125,375L125,125L0,125L0,500C69.04,500 125,444.04 125,375Z" style="fill:rgb(0,30,76);fill-rule:nonzero;"/>
                <path d="M125,250L0,375L0,250L125,250Z" style="fill:rgb(139,59,149);fill-rule:nonzero;"/>
                <path d="M250,0C180.96,0 125,55.96 125,125L0,250L0,0L250,0Z" style="fill:rgb(194,243,250);fill-rule:nonzero;"/>
                <path d="M125,0L0,0L0,125C0,55.95 55.96,0 125,0Z" style="fill:rgb(153,235,246);fill-rule:nonzero;"/>
            </g>
            <g>
                <rect x="750" y="750" width="250.002" height="250" style="fill:rgb(110,10,122);"/>
                <path d="M625,875L625,625L750,625L750,1000C680.96,1000 625,944.04 625,875Z" style="fill:rgb(0,30,76);fill-rule:nonzero;"/>
                <path d="M875,875L875,625L1125,625L1125,875C1125,944.04 1069.04,1000 1000,1000C930.96,1000 875,944.04 875,875Z" style="fill:rgb(0,162,42);fill-rule:nonzero;"/>
                <path d="M905.002,875C905.002,822.529 947.531,780 1000,780C1052.47,780 1095,822.529 1095,875L1000,970L905.002,875Z" style="fill:rgb(0,174,198);fill-rule:nonzero;"/>
                <path d="M875,875L875,750L625,750L750,875L875,875Z" style="fill:rgb(139,59,149);fill-rule:nonzero;"/>
                <path d="M500,500L750,500L750,625L875,625L875,750L750,750L625,625C625,555.96 569.04,500 500,500Z" style="fill:rgb(194,243,250);fill-rule:nonzero;"/>
                <path d="M875,625L875,750L750,625L875,625Z" style="fill:rgb(253,181,210);fill-rule:nonzero;"/>
                <path d="M750,750L750,625L875,750L875,875L750,750Z" style="fill:rgb(250,70,143);fill-rule:nonzero;"/>
                <path d="M625,500L750,500L750,625C750,555.95 694.04,500 625,500Z" style="fill:rgb(153,235,246);fill-rule:nonzero;"/>
                <path d="M905.002,875L1095,875C1095,927.471 1052.47,970 1000,970C947.531,970 905.002,927.471 905.002,875Z" style="fill:rgb(0,205,232);fill-rule:nonzero;"/>
                <path d="M875.002,625L875.002,500L1250,500C1180.95,500 1125,555.95 1125,625L1000,750L875.002,625Z" style="fill:rgb(255,203,31);fill-rule:nonzero;"/>
                <path d="M750.002,500.004L1000,500.004C930.961,500.004 875.002,555.954 875.002,625.004C875.002,555.954 819.041,500.004 750.002,500.004Z" style="fill:rgb(255,137,29);fill-rule:nonzero;"/>
                <path d="M1000,750L1000,625L1125,625C1125,694.04 1069.04,750 1000,750Z" style="fill:rgb(255,190,31);fill-rule:nonzero;"/>
                <path d="M875,625L1000,625L1000,750C930.96,750 875,694.04 875,625Z" style="fill:rgb(255,137,29);fill-rule:nonzero;"/>
            </g>
            <g>
                <path d="M125,625L125,875C125,944.04 69.04,1000 0,1000L0,625L125,625Z" style="fill:rgb(0,162,42);fill-rule:nonzero;"/>
                <path d="M95,875L0,970L0,780C52.471,780 95,822.529 95,875Z" style="fill:rgb(0,174,198);fill-rule:nonzero;"/>
                <path d="M95,875C95,927.471 52.471,970 0,970L0,875L95,875Z" style="fill:rgb(0,205,232);fill-rule:nonzero;"/>
                <path d="M250,500C180.95,500 125,555.95 125,625L0,750L0,500L250,500Z" style="fill:rgb(255,203,31);fill-rule:nonzero;"/>
                <path d="M0,750L0,625L125,625C125,694.04 69.04,750 0,750Z" style="fill:rgb(255,190,31);fill-rule:nonzero;"/>
            </g>
            <g>
                <rect x="250" y="500" width="250.002" height="250" style="fill:rgb(110,10,122);"/>
                <path d="M125,625L125,875L250,875L250,500C180.96,500 125,555.96 125,625Z" style="fill:rgb(0,30,76);fill-rule:nonzero;"/>
                <path d="M375,625L375,875L625,875L625,625C625,555.96 569.04,500 500,500C430.96,500 375,555.96 375,625Z" style="fill:rgb(0,162,42);fill-rule:nonzero;"/>
                <path d="M405.002,625C405.002,677.471 447.531,720 500.002,720C552.473,720 595.002,677.471 595.002,625L500,530L405.002,625Z" style="fill:rgb(0,174,198);fill-rule:nonzero;"/>
                <path d="M375,625L375,750L125,750L250,625L375,625Z" style="fill:rgb(139,59,149);fill-rule:nonzero;"/>
                <path d="M0,1000L250,1000L250,875L375,875L375,750L250,750L125,875C125,944.04 69.04,1000 0,1000Z" style="fill:rgb(194,243,250);fill-rule:nonzero;"/>
                <path d="M375,875L375,750L250,875L375,875Z" style="fill:rgb(253,181,210);fill-rule:nonzero;"/>
                <path d="M250,750L250,875L375,750L375,625L250,750Z" style="fill:rgb(250,70,143);fill-rule:nonzero;"/>
                <path d="M125,1000L250,1000L250,875C250,944.05 194.04,1000 125,1000Z" style="fill:rgb(153,235,246);fill-rule:nonzero;"/>
                <path d="M405.002,625L595.002,625C595.002,572.529 552.473,530 500.002,530C447.531,530 405.002,572.529 405.002,625Z" style="fill:rgb(0,205,232);fill-rule:nonzero;"/>
                <path d="M375.002,875L375.002,1000L750,1000C680.95,1000 625,944.05 625,875L500,750L375.002,875Z" style="fill:rgb(255,203,31);fill-rule:nonzero;"/>
                <path d="M250.002,999.996L500.002,999.996C430.961,999.996 375.002,944.046 375.002,874.996C375.002,944.046 319.041,999.996 250.002,999.996Z" style="fill:rgb(255,137,29);fill-rule:nonzero;"/>
                <path d="M500,750L500,875L625,875C625,805.96 569.04,750 500,750Z" style="fill:rgb(255,190,31);fill-rule:nonzero;"/>
                <path d="M375,875L500,875L500,750C430.96,750 375,805.96 375,875Z" style="fill:rgb(255,137,29);fill-rule:nonzero;"/>
            </g>
        </g>
    </g>
</svg>
