<?xml version="1.0" encoding="UTF-8"?>
<svg id="Art" xmlns="http://www.w3.org/2000/svg" version="1.1" xmlns:xlink="http://www.w3.org/1999/xlink" viewBox="0 0 3000 3000">
  <!-- Generator: Adobe Illustrator 30.0.0, SVG Export Plug-In . SVG Version: 2.1.1 Build 123)  -->
  <defs>
    <linearGradient id="linear-gradient" x1="1485.7166507" y1="2895.3456312" x2="1516.4243134" y2="-104.4972046" gradientUnits="userSpaceOnUse">
      <stop offset="0" stop-color="#761efe"/>
      <stop offset=".3867234" stop-color="#771ffd"/>
      <stop offset=".5260334" stop-color="#7b26fd"/>
      <stop offset=".6253814" stop-color="#8232fd"/>
      <stop offset=".7056706" stop-color="#8d43fc"/>
      <stop offset=".7744493" stop-color="#9a59fb"/>
      <stop offset=".8353259" stop-color="#ab74fa"/>
      <stop offset=".8904237" stop-color="#bf94f9"/>
      <stop offset=".9410262" stop-color="#d6baf8"/>
      <stop offset=".986135" stop-color="#f0e3f6"/>
      <stop offset="1" stop-color="#f9f2f6"/>
    </linearGradient>
    <linearGradient id="linear-gradient1" x1="2444.1546787" y1="1946.5459252" x2="2434.1276062" y2="1441.7033011" gradientUnits="userSpaceOnUse">
      <stop offset=".0751254" stop-color="#4cee99"/>
      <stop offset=".5322772" stop-color="#a8f0ca"/>
      <stop offset=".9133225" stop-color="#f9f2f6"/>
    </linearGradient>
    <linearGradient id="linear-gradient2" x1="1832.9822044" y1="1698.5917522" x2="1777.1420314" y2="2537.3026703" gradientUnits="userSpaceOnUse">
      <stop offset="0" stop-color="#a66cff"/>
      <stop offset=".0184143" stop-color="#925fe1"/>
      <stop offset=".0512224" stop-color="#744bb2"/>
      <stop offset=".0869589" stop-color="#583987"/>
      <stop offset=".1248373" stop-color="#402963"/>
      <stop offset=".1654044" stop-color="#2c1c44"/>
      <stop offset=".2095361" stop-color="#1c122b"/>
      <stop offset=".2586262" stop-color="#0f0a17"/>
      <stop offset=".3153889" stop-color="#06040a"/>
      <stop offset=".386735" stop-color="#010002"/>
      <stop offset=".5195698" stop-color="#000"/>
    </linearGradient>
    <linearGradient id="linear-gradient3" x1="539.3344101" y1="1397.1830301" x2="483.1791943" y2="2240.6258447" gradientTransform="translate(520.7880777 27.4098988) scale(1 .9874214) skewX(-13.4412048)" gradientUnits="userSpaceOnUse">
      <stop offset=".0751254" stop-color="#4cee99"/>
      <stop offset=".2479092" stop-color="#4eee9a"/>
      <stop offset=".3767227" stop-color="#58ee9f"/>
      <stop offset=".4913042" stop-color="#68eea8"/>
      <stop offset=".5976089" stop-color="#7fefb4"/>
      <stop offset=".6982322" stop-color="#9cefc4"/>
      <stop offset=".7945494" stop-color="#c0f0d7"/>
      <stop offset=".8858155" stop-color="#eaf1ee"/>
      <stop offset=".9133225" stop-color="#f9f2f6"/>
    </linearGradient>
    <linearGradient id="linear-gradient4" x1="1904.2772059" y1="926.8365177" x2="1894.0775651" y2="413.3054363" gradientTransform="translate(520.7880777 27.4098988) scale(1 .9874214) skewX(-13.4412048)" xlink:href="#linear-gradient1"/>
    <linearGradient id="linear-gradient5" x1="405.9083863" y1="1175.1884473" x2="2555.9769299" y2="1175.1884473" gradientUnits="userSpaceOnUse">
      <stop offset="0" stop-color="#a66cff"/>
      <stop offset=".0060692" stop-color="#9f68f5"/>
      <stop offset=".0392138" stop-color="#8254c7"/>
      <stop offset=".0765671" stop-color="#66429c"/>
      <stop offset=".1167135" stop-color="#4d3277"/>
      <stop offset=".1604121" stop-color="#382456"/>
      <stop offset=".2087056" stop-color="#26193b"/>
      <stop offset=".2632131" stop-color="#180f25"/>
      <stop offset=".3268891" stop-color="#0d0814"/>
      <stop offset=".4055908" stop-color="#050308"/>
      <stop offset=".5160163" stop-color="#010001"/>
      <stop offset=".822524" stop-color="#000"/>
    </linearGradient>
    <linearGradient id="linear-gradient6" x1="246.9759205" y1="542.0434659" x2="871.8223083" y2="542.0434659" gradientUnits="userSpaceOnUse">
      <stop offset=".1094219" stop-color="#a66cff"/>
      <stop offset=".1665271" stop-color="#ac80d9"/>
      <stop offset=".2525947" stop-color="#b49ba6"/>
      <stop offset=".342864" stop-color="#bbb37a"/>
      <stop offset=".435671" stop-color="#c1c754"/>
      <stop offset=".5317071" stop-color="#c6d835"/>
      <stop offset=".6318814" stop-color="#cae41e"/>
      <stop offset=".7380538" stop-color="#cced0d"/>
      <stop offset=".8543638" stop-color="#cef303"/>
      <stop offset="1" stop-color="#cff500"/>
    </linearGradient>
    <linearGradient id="linear-gradient7" x1="540.7391304" y1="979.9130435" x2="719.173913" y2="979.9130435" gradientUnits="userSpaceOnUse">
      <stop offset="0" stop-color="#f9f2f6"/>
      <stop offset="1" stop-color="#fe77ff"/>
    </linearGradient>
    <linearGradient id="linear-gradient8" x1="624.3913044" y1="1008.3043478" x2="934.3043478" y2="1008.3043478" gradientTransform="translate(1418.6956522 1968.4347826) rotate(-180)" xlink:href="#linear-gradient7"/>
    <linearGradient id="linear-gradient9" x1="463.2608696" y1="880.1304348" x2="815.4347826" y2="880.1304348" xlink:href="#linear-gradient7"/>
    <linearGradient id="linear-gradient10" x1="1301" y1="2325.2982766" x2="1301.5" y2="2325.2982766" gradientUnits="userSpaceOnUse">
      <stop offset="0" stop-color="#fe77ff"/>
      <stop offset=".2061119" stop-color="#fc99fc"/>
      <stop offset=".5270719" stop-color="#fac9f8"/>
      <stop offset=".7727739" stop-color="#f9e6f6"/>
      <stop offset=".9119761" stop-color="#f9f2f6"/>
    </linearGradient>
    <linearGradient id="linear-gradient11" x1="1645.0005191" y1="2401.1338282" x2="2269.0689277" y2="2401.1338282" gradientUnits="userSpaceOnUse">
      <stop offset=".0055727" stop-color="#a66cff"/>
      <stop offset=".2237762" stop-color="#fe77ff"/>
      <stop offset=".9009595" stop-color="#f9f2f6"/>
    </linearGradient>
    <linearGradient id="linear-gradient12" x1="1709.4375896" y1="2455.1286942" x2="2371.6166038" y2="2455.1286942" gradientUnits="userSpaceOnUse">
      <stop offset="0" stop-color="#a66cff"/>
      <stop offset=".432691" stop-color="#fe77ff"/>
      <stop offset=".514572" stop-color="#fd7ffe"/>
      <stop offset=".6457345" stop-color="#fc96fc"/>
      <stop offset=".8097534" stop-color="#fbbdf9"/>
      <stop offset=".9986876" stop-color="#f9f1f6"/>
      <stop offset="1" stop-color="#f9f2f6"/>
    </linearGradient>
    <linearGradient id="linear-gradient13" x1="622.9646765" y1="2451.4032479" x2="2420.1279907" y2="2451.4032479" gradientUnits="userSpaceOnUse">
      <stop offset="0" stop-color="#a66cff"/>
      <stop offset=".0125271" stop-color="#ae6dff"/>
      <stop offset=".0596297" stop-color="#cb70ff"/>
      <stop offset=".1101096" stop-color="#e173ff"/>
      <stop offset=".1648765" stop-color="#f175ff"/>
      <stop offset=".227095" stop-color="#fb76ff"/>
      <stop offset=".3128315" stop-color="#fe77ff"/>
      <stop offset=".9464194" stop-color="#f9f2f6"/>
    </linearGradient>
    <linearGradient id="linear-gradient14" x1="725" y1="2577.7718378" x2="889.8586019" y2="2577.7718378" gradientTransform="translate(1695.5712523 81.8777613) rotate(36.9582827)" gradientUnits="userSpaceOnUse">
      <stop offset="0" stop-color="#fe77ff"/>
      <stop offset=".2061119" stop-color="#fc99fc"/>
      <stop offset=".5270719" stop-color="#fac9f8"/>
      <stop offset=".7727739" stop-color="#f9e6f6"/>
      <stop offset=".9119761" stop-color="#f9f2f6"/>
    </linearGradient>
    <linearGradient id="linear-gradient15" x1="1301" y1="2283.4990321" x2="1301.5" y2="2283.4990321" xlink:href="#linear-gradient5"/>
    <linearGradient id="linear-gradient16" x1="1301" y1="2588.494705" x2="1301.5" y2="2588.494705" xlink:href="#linear-gradient5"/>
  </defs>
  <g id="Background">
    <rect width="3000" height="3000.0000004" fill="url(#linear-gradient)"/>
  </g>
  <g id="Graphics">
    <g>
      <path d="M2646.6618685,1953.6956522h-591.6521739c-51.8667417,0-83.8642418-24.0642356-71.4684167-53.7489746l133.5455291-319.8063987c12.3958251-29.684739,64.4909285-53.7489746,116.3576702-53.7489746h591.6521739c51.8667417,0,83.8642418,24.0642356,71.4684167,53.7489746l-133.5455291,319.8063987c-12.3958251,29.684739-64.4909285,53.7489746-116.3576702,53.7489746ZM2680.739838,1847.163981l97.9924879-214.2410055c9.0957574-19.8860572-14.3832363-36.0068917-52.4418003-36.0068917h-434.1400936c-38.058564,0-76.2846942,16.1208345-85.3804517,36.0068917l-97.9924879,214.2410055c-9.0957574,19.8860572,14.3832363,36.0068917,52.4418003,36.0068917h434.1400936c38.058564,0,76.2846942-16.1208345,85.3804517-36.0068917Z" fill="url(#linear-gradient1)"/>
      <path d="M2249.2318373,1798.1728524c7.0836319,132.6671089-92.5740256,263.0187847-222.4562234,290.9715341-48.335074,10.4024876-98.6444561,7.9279904-147.471519.1555892-67.7408547-10.7831348-135.7752074-32.7467304-187.7916056-77.461301-55.479958-47.6918557-87.5091328-116.2129927-125.046656-179.0100723-37.5375232-62.7970795-87.0514904-125.187673-157.4463254-145.1151931l504.3720294-76.8003658,335.8403,187.2598089Z" fill="url(#linear-gradient2)"/>
      <path d="M807.9565217,2179.0869565H216.3043478c-51.8667417,0-83.8642418-41.5174175-71.4684167-92.7317473l133.5455291-551.7538966c12.3958251-51.2143299,64.4909285-92.7317473,116.3576702-92.7317473h591.6521739c51.8667417,0,83.8642418,41.5174175,71.4684167,92.7317473l-133.5455291,551.7538966c-12.3958251,51.2143299-64.4909285,92.7317473-116.3576702,92.7317473Z" fill="url(#linear-gradient3)"/>
      <path d="M2456.1959457,948.826087h-591.6521739c-51.8667417,0-83.8642418-24.0642356-71.4684167-53.7489746l133.5455291-319.8063987c12.3958251-29.684739,64.4909285-53.7489746,116.3576702-53.7489746h591.6521739c51.8667417,0,83.8642418,24.0642356,71.4684167,53.7489746l-133.5455291,319.8063987c-12.3958251,29.684739-64.4909285,53.7489746-116.3576702,53.7489746Z" fill="url(#linear-gradient4)"/>
      <path d="M1550.3909912,1668.916748c49.0259946,33.8049831,76.3001486,89.0673057,102.6709768,140.6984557,41.4120473,82.700115,81.9054455,153.7548814,178.1298122,177.7895233,25.7268915,6.6419887,52.3168655,10.2496218,78.8289575,11.6994958,69.1182461,4.2714229,141.7934445-12.3852968,193.4791363-60.5754281,36.2421946-32.7825157,52.7858177-79.9803789,70.1931228-124.4839607,7.1316091-18.1195302,14.3259603-36.2147806,21.6602147-54.2559173.00006.0000237.7510366.2755364.7510366.2755364-9.1597289,27.754662-18.4387195,55.4270032-28.1126993,83.0127282-9.8277054,27.7347661-21.0990807,55.50768-39.0440113,79.1614771-36.0109647,48.0151137-94.4138337,75.0830767-153.0832376,81.9676287-48.7690517,5.9140495-98.5201153-.1787219-145.5929844-13.4837352-6.9814021-2.0568772-14.0551463-4.4276503-20.8851037-6.9666621-67.9805968-24.1095208-117.0436786-82.3644793-149.3091417-144.9056982-22.7373478-42.784885-41.5201472-87.995433-70.4156724-127.164297-11.4909875-15.5181702-24.6466271-29.8669251-39.7492883-42.1282776l.4788818-.6408691h0Z" fill="#f9f2f6"/>
      <path d="M1666.4295654,1658.3132324c34.8091128,14.7728849,59.872575,45.2316513,80.122195,76.1661484,20.6309826,30.6981364,35.8379708,64.89204,58.7246724,93.9667764,22.3267968,28.8981347,54.2792752,51.2452639,91.0505204,55.6454386,47.8004641,6.741517,98.0629547-12.3495605,127.1691839-51.2585558,15.1450399-19.2956121,26.0640242-41.3866562,38.1850447-62.6264737,6.1010447-10.7522207,12.504365-21.4084707,19.8500682-31.3757559l.6687012.4388428c-12.3242188,21.3791504-21.690918,44.1016846-33.0556641,66.203125-11.495603,22.310909-25.6561827,43.9882348-45.7741449,59.454023-42.7128478,32.6351421-105.9963905,37.4552673-151.86769,8.6789614-5.1756387-3.157109-10.6409506-6.8900137-15.3341065-10.7144287-.0000107.0000234-3.672374-2.8829111-3.672374-2.8829111l-3.5076904-3.0760498c-36.4754248-32.7791602-62.2750547-77.5856009-88.3802231-118.5970687-6.5807447-10.3052899-13.4487426-20.435238-20.8888921-30.1330691-7.4211323-9.6708251-15.4511877-18.8484862-24.3245525-27.2152609-8.8864348-8.3327995-18.6684172-15.7558952-29.322592-21.9580437l.3575439-.7156982h0Z" fill="#f9f2f6"/>
      <path d="M1828.3498535,1675.5477295c11.6645122,11.6837263,18.6242495,27.2426179,24.429757,42.4530838,9.834042,25.5687186,12.8570932,52.4308546,38.8387856,67.6679013,27.3863355,15.2821897,47.0964048,7.3917762,66.7477964-14.6809435,10.7156559-12.1001427,20.5394052-24.9269172,31.8108143-36.6104615-.0001269-.0001122.6439161.4743751.6439161.4743751-6.7039341,11.8735202-13.9184146,23.2897526-21.5904852,34.5071388-8.1223574,11.462871-17.7249558,22.6845724-31.1315751,28.2445594-16.5530569,7.1070908-35.3418626,2.716926-48.9498627-8.3171367-8.7962132-6.8146273-15.610315-15.5979748-21.5787825-24.8482826-8.9244881-13.6858716-16.3844707-28.4906678-21.4764355-43.9983349-5.2891025-15.2424328-10.4030849-30.2073398-18.3803786-44.4071149.0000978-.0000429.6364503-.4847841.6364503-.4847841h0Z" fill="#f9f2f6"/>
      <path d="M1455.9565217,1756.4782609s108-70.4347826,244.173913-37.5652174c0,0,143.9162115,61.0434783,318.4798449,37.5652174,0,0,385.8679812,286.4347826,526.7375464-173.7391304,0,0,154.9565217-718.4347826-718.4347826-1042.4347826,0,0-779.4782609-281.7391304-1375.826087,540,0,0-258.2608696,417.9130435,460.173913,540,0,0-7.7596913,93.1162959,99.5827053,171.8448307,99.6647291,73.0974745,231.5323609,84.4583617,343.5760921,32.2807675,33.8260534-15.7524394,68.7786514-37.6200154,101.5368548-67.9516852Z" fill="url(#linear-gradient5)"/>
      <path d="M1214.1304348,1211.7826087s272.3478261-380.3478261,652.6956522,0c0,0-331.0434783,370.9565217-652.6956522,0Z" fill="#f9f2f6"/>
      <circle cx="1540.4782609" cy="1209.6956522" r="169.0434783" fill="#1777f2"/>
      <circle cx="1540.4782609" cy="1209.6956522" r="62.0869565"/>
      <g>
        <path d="M909.3478261,479.7514962c0-151.3349452-122.3143598-274.1018874-273.4770807-274.8348271-151.8334206-.7361917-276.1245784,122.8617341-276.1991388,274.6969212-.0304894,62.0886922,20.5308479,119.3695881,55.227475,165.3964168,50.487805,66.9746239,78.6096752,148.1358709,78.6096752,232.0085048v2.1550225h282.0018851v-.7010048c0-83.7328254,26.7586061-165.5505501,77.5757659-232.0997975,35.2957965-46.2227466,56.2614184-103.9714574,56.2614184-166.6212359Z" fill="url(#linear-gradient6)"/>
        <ellipse cx="629.9565217" cy="979.9130435" rx="89.2173913" ry="71.6086957" fill="url(#linear-gradient7)"/>
        <rect x="484.3913044" y="920.8747827" width="309.9130434" height="78.5113043" rx="39.2556129" ry="39.2556129" fill="url(#linear-gradient8)"/>
        <rect x="463.2608696" y="835.5217391" width="352.1739131" height="89.2173913" rx="44.6086511" ry="44.6086511" fill="url(#linear-gradient9)"/>
        <path d="M682.6098575,538.4287309c41.2254254-3.9994615,101.1055861-15.1557153,186.2163194-26.9069918-85.1107333-11.7515159-144.990894-22.9077698-186.2163194-26.9069918,18.6594045-24.1955087,42.4863464-58.2044598,75.6878268-102.0428963-43.8384963,33.2013008-77.8475671,57.028542-102.0428364,75.6878268-3.9994016-41.2253655-15.1557153-101.1057058-26.9070516-186.2161996-11.7513363,85.1104938-22.90765,144.9908341-26.9070516,186.2161996-24.1952693-18.6592848-58.2043401-42.486526-102.0428364-75.6878268,33.2014804,43.8384364,57.0284822,77.8473875,75.6878867,102.0428963-41.2254254,3.999222-101.1055861,15.1554759-186.2163194,26.9069918,85.1107333,11.7512764,144.990894,22.9075303,186.2163194,26.9069918-18.6594045,24.1952693-42.4864063,58.2044598-75.6878867,102.0428963,43.8384963-33.2015402,77.8475671-57.028542,102.0428364-75.6880662,3.9994016,41.225605,15.1557153,101.1057058,26.9070516,186.2164391,11.7513363-85.1107333,22.90765-144.9908341,26.9070516-186.2164391,24.1952693,18.6595242,58.2043401,42.486526,102.0428364,75.6880662-33.2014804-43.8384364-57.0284223-77.847627-75.6878268-102.0428963Z" fill="#f9f2f6"/>
      </g>
      <g>
        <path d="M1666.4795426,2386.7615449s265.8029156,21.4790235,349.0341315-158.4077982c0,0,8.0399004-22.2777051,26.5791532-37.3701679,21.0363853-17.1253322,52.7572791-4.0009357,55.8333625,22.9498382,5.0079655,43.87675.9268929,120.8551757-68.9881261,186.8115459l-383.9375447,66.56292-10.7395117-80.546338h32.2185352Z" fill="url(#linear-gradient10)"/>
        <path d="M1645.0005191,2424.3498359s308.7609625,48.3278028,520.8663194-198.6809672c0,0,22.0430058-36.5750615,57.4314651-45.3391377,23.931199-5.9266455,46.8398871,13.047013,45.7320074,37.6762642-1.8218079,40.5005771-23.5433094,114.9747453-132.6971298,210.1666454l-322.1853522,194.8581625-169.1473099-198.6809672Z" fill="url(#linear-gradient11)"/>
        <path d="M2034.3078197,2601.5517796s227.2089785-67.9284575,331.5702849-249.7303259c15.3312812-26.7077489-1.6306158-60.3856084-32.2198409-63.9424809-27.9914673-3.2548089-66.0640713,4.7422492-111.4089886,45.1850133,0,0-193.3112113,161.0926761-512.8116856,153.0380423l287.281939,136.9287747,37.5882911-21.4790235Z" fill="url(#linear-gradient12)"/>
        <path d="M635.4864156,2418.9800801l408.1014461-201.3658451s139.6136526-75.1765822,340.9794977,0c0,0,161.0926761,42.958047,351.7190095,13.4243897,0,0,161.0926761-29.5336573,177.2019437,45.6429249,0,0,18.7941455,80.546338-249.6936479,142.2985305,0,0,54.4477955,40.0774179,115.6050435,77.8614343,48.5110136,29.9709518,101.243577,58.4989083,134.3720495,64.4370963,0,0,85.6326488,32.2185352,195.7126441,13.4243897,0,0,240.978958-60.9964793,313.4372806-18.7612297,13.6932048,7.9816355,12.711475,28.1230044-1.5632133,35.0109386-48.2171033,23.2660937-171.1171408,79.9146144-282.7376788,109.3889293-61.3436303,16.1982867-125.4857307,18.785757-187.982671,7.8515024l-133.8054123-23.4101452s-72.4917042,102.0253615-405.4165682-48.3278028c0,0-260.4331597-69.8068263-429.5804696,10.7395117l-147.6682864,71.4093705-198.6809672-299.623995Z" fill="url(#linear-gradient13)"/>
        <ellipse cx="725.284019" cy="2577.7718378" rx="77.8614601" ry="183.9591176" transform="translate(-1404.1136674 954.0076773) rotate(-36.9582827)" fill="url(#linear-gradient14)"/>
        <ellipse cx="725.284019" cy="2577.7718378" rx="43.1961271" ry="102.0571848" transform="translate(-1404.1136674 954.0076773) rotate(-36.9582827)"/>
        <path d="M1897.8026123,2315.6320801c-6.9052603,8.2614322-14.9751753,15.6503079-23.215995,22.5969818-48.6648364,40.1629778-108.2343345,65.4315521-169.0604997,80.6910765-62.9349621,15.391363-128.7673594,20.2837729-193.2405893,14.8268522,53.6075825-3.0583049,106.7761941-8.3238806,159.210069-19.2614198,77.862677-16.2747313,164.6703451-47.407384,226.307015-98.8534907h0Z"/>
        <path d="M1579.2210693,2577.7717285c49.6564503,25.279367,99.8687163,49.4405771,151.9168758,69.2926877,38.6400301,14.9751076,78.787922,28.0008896,118.6988797,39.3502929,6.2005027,1.7365606,24.1508286,6.773252,30.2995854,8.371558.0001864.0001098,10.1282381,2.8441039,10.1282381,2.8441039-110.9915676-10.9384993-221.278982-53.717319-311.0435791-119.8586426h0Z"/>
        <path d="M1913.8701328,2228.3571787s-43.897245-3.2881807-123.6297569,32.7466013c-18.8916737,8.5380145-25.7440704,31.458663-15.4415179,51.8090456l.0000348.0000688c9.8320871,19.4210836,32.0053453,29.9433551,51.2035588,24.277403,35.7405759-10.5480851,89.4493854-29.6812661,110.8183932-54.3106713,9.2443131-10.6547733,10.3250433-26.9121551,1.9498862-40.3349927-4.7261201-7.5745375-12.4334901-14.2811143-24.9005982-14.1874548Z" fill="url(#linear-gradient15)"/>
        <path d="M2430.5212824,2554.0075912s-33.3497311-2.0565133-93.9243278,20.4805516c-14.3524328,5.3398904-19.5583547,19.6750459-11.7312732,32.4026924l.0000265.000043c7.4696584,12.1464393,24.3151844,18.7273359,38.9005022,15.1837063,27.1529255-6.597039,67.9567253-18.5634144,84.1912456-33.9672692,7.0231145-6.6637655,7.8441705-16.8315449,1.4813745-25.2265288-3.5905401-4.7373083-9.4460034-8.9317721-18.9175478-8.8731955Z" fill="url(#linear-gradient16)"/>
      </g>
      <polygon points="1725.2607422 1122.5654297 1717.2607422 1122.5654297 1717.2607422 827.4345703 1909.3916016 827.4345703 1909.3916016 761 1917.3916016 761 1917.3916016 835.4345703 1725.2607422 835.4345703 1725.2607422 1122.5654297" fill="#f9f2f6"/>
      <polygon points="2184.5654297 1319.0869141 2055.2070312 1319.0869141 1961.2939453 1213.6958008 1808.1308594 1213.6958008 1808.1308594 1205.6958008 1964.8798828 1205.6958008 2058.7929688 1311.0869141 2184.5654297 1311.0869141 2184.5654297 1319.0869141" fill="#f9f2f6"/>
      <polygon points="1333.5800781 1476.3911133 967.6088867 1476.3911133 967.6088867 1468.3911133 1325.5800781 1468.3911133 1325.5800781 1315.0869141 1333.5800781 1315.0869141 1333.5800781 1476.3911133" fill="#f9f2f6"/>
      <rect x="1060.5263672" y="1207.7827148" width="153.6040039" height="8" fill="#f9f2f6"/>
      <polygon points="1308.984375 1122.5654297 1300.984375 1122.5654297 1300.984375 886.1669922 1405.0195312 885.2099609 1405.0195312 692.9130859 1413.0195312 692.9130859 1413.0195312 893.1367188 1308.984375 894.09375 1308.984375 1122.5654297" fill="#f9f2f6"/>
      <polygon points="2157.9560547 1488.1303711 1681.5351562 1488.1303711 1681.5351562 1340.8657227 1689.5351562 1340.8657227 1689.5351562 1480.1303711 2157.9560547 1480.1303711 2157.9560547 1488.1303711" fill="#f9f2f6"/>
      <rect x="1536.4785156" y="907.7392578" width="8" height="132.9130859" fill="#f9f2f6"/>
      <polygon points="1442.1357422 1631.3476562 1171.8696289 1631.3476562 1171.8696289 1623.3476562 1434.1357422 1623.3476562 1434.1357422 1364.8579102 1442.1357422 1364.8579102 1442.1357422 1631.3476562" fill="#f9f2f6"/>
      <polygon points="1967.0869141 1209.6958008 1959.0869141 1209.6958008 1959.0869141 1022.3041992 2106.8203125 1022.3041992 2106.8203125 1030.3041992 1967.0869141 1030.3041992 1967.0869141 1209.6958008" fill="#f9f2f6"/>
      <polygon points="1114.8261719 1211.7827148 1106.8261719 1211.7827148 1106.8261719 952.8261719 1012.2172852 952.8261719 1012.2172852 944.8261719 1114.8261719 944.8261719 1114.8261719 1211.7827148" fill="#f9f2f6"/>
      <circle cx="995.1956522" cy="952.326087" r="27.5869565" fill="#f9f2f6"/>
      <circle cx="956.4565217" cy="1472.3913043" r="27.5869565" fill="#f9f2f6"/>
      <circle cx="1148.5944048" cy="1624.5030404" r="27.5869565" fill="#f9f2f6"/>
      <circle cx="2157.9565217" cy="1484.1304348" r="27.5869565" fill="#f9f2f6"/>
      <circle cx="2195.7287178" cy="1315.0869565" r="27.5869565" fill="#f9f2f6"/>
      <circle cx="2121.0775332" cy="1026.3043478" r="27.5869565" fill="#f9f2f6"/>
      <circle cx="1540.4782609" cy="907.7391304" r="27.5869565" fill="#f9f2f6"/>
      <circle cx="1409.0195078" cy="692.9130435" r="27.5869565" fill="#f9f2f6"/>
      <circle cx="1913.3915372" cy="761" r="27.5869565" fill="#f9f2f6"/>
      <path d="M1540.0802192,1987.7458677c-135.9259168-18.7674527-120.7118904-33.9814792-101.9444376,101.9444376,18.7674527-135.9259168,33.9814792-120.7118904-101.9444376-101.9444376,135.9259168,18.7674527,120.7118904,33.9814792,101.9444376-101.9444376-18.7674527,135.9259168-33.9814792,120.7118904,101.9444376,101.9444376Z" fill="#f9f2f6"/>
      <path d="M2656.3265633,1209.6956522c-202.5716541-27.9693088-179.8980494-50.6429135-151.9287406,151.9287406,27.9693088-202.5716541,50.6429135-179.8980494-151.9287406-151.9287406,202.5716541,27.9693088,179.8980494,50.6429135,151.9287406-151.9287406-27.9693088,202.5716541-50.6429135,179.8980494,151.9287406,151.9287406Z" fill="#f9f2f6"/>
    </g>
  </g>
</svg>