<?xml version="1.0" encoding="UTF-8"?>
<!DOCTYPE svg PUBLIC "-//W3C//DTD SVG 1.1//EN" "http://www.w3.org/Graphics/SVG/1.1/DTD/svg11.dtd">
<!-- Creator: CorelDRAW -->
<svg xmlns="http://www.w3.org/2000/svg" xml:space="preserve" width="4000px" height="5500px" version="1.1" style="shape-rendering:geometricPrecision; text-rendering:geometricPrecision; image-rendering:optimizeQuality; fill-rule:evenodd; clip-rule:evenodd"
viewBox="0 0 1192.55 1639.75"
 xmlns:xlink="http://www.w3.org/1999/xlink"
 xmlns:xodm="http://www.corel.com/coreldraw/odm/2003">
 <defs>
  <style type="text/css">
   <![CDATA[
    .fil3 {fill:#0E46B3}
    .fil6 {fill:#1959D4}
    .fil8 {fill:#233567}
    .fil2 {fill:#4176E6}
    .fil4 {fill:#588EF0}
    .fil1 {fill:#7F9EC9}
    .fil15 {fill:#9DBD2E}
    .fil9 {fill:#B6B9CC}
    .fil0 {fill:#CADEF9}
    .fil10 {fill:#D1FAFC}
    .fil7 {fill:#D4D6E2}
    .fil5 {fill:#FEFEFE}
    .fil11 {fill:#FF8739}
    .fil14 {fill:white}
    .fil12 {fill:#233567;fill-rule:nonzero}
    .fil13 {fill:#588EF0;fill-rule:nonzero}
   ]]>
  </style>
 </defs>
 <g id="Layer_x0020_1">
  <metadata id="CorelCorpID_0Corel-Layer"/>
  <g id="_2165894986624">
   <polygon class="fil0" points="0,0 1192.55,0 1192.55,1639.75 0,1639.75 "/>
   <path class="fil1" d="M264.26 1260.3l-170.24 67.41c-2.87,1.13 -4.7,3.68 -4.88,6.76 -0.18,3.08 1.35,5.82 4.07,7.28l168.68 90.73c2.24,1.2 4.7,1.26 6.99,0.18l195.92 -92.78 -200.54 -79.58 0 0z"/>
   <polygon class="fil1" points="248.94,1221.55 207.8,1238.16 508.32,1384.54 567.95,1332.67 "/>
   <path class="fil1" d="M865.32 1058.38l327.14 168.38 0.09 44.92 -476.6 259.87c0,0 -65.33,43.84 -125.93,43.41 -60.61,-0.43 -88.12,-10.75 -107.89,-15.47 -19.77,-4.73 -196.12,-100.69 -204.29,-111.01 -8.17,-10.31 -3.01,-32.23 39.11,-52 42.12,-19.77 123.36,-51.58 123.36,-51.58l62.32 -27.93 362.69 -258.58 0 -0.01z"/>
   <polygon class="fil2" points="248.94,1156.88 621.11,978.09 993.27,1156.88 621.11,1335.67 "/>
   <polygon class="fil3" points="621.11,1335.67 621.11,1400.34 993.27,1221.55 993.27,1156.88 "/>
   <polygon class="fil4" points="248.94,1156.88 248.94,1221.55 621.11,1400.34 621.11,1335.67 "/>
   <polygon class="fil5" points="325.69,413.02 617.51,272.82 909.33,413.02 617.51,553.21 "/>
   <polygon class="fil3" points="617.51,553.21 617.51,1311.9 909.33,1171.71 909.33,413.02 "/>
   <polygon class="fil4" points="325.69,413.02 325.69,1171.71 617.51,1311.9 617.51,553.21 "/>
   <path class="fil6" d="M389.38 1075.86c9.53,1.18 17.79,15.57 18.44,32.12 0.66,16.56 -6.53,29.02 -16.06,27.84 -9.53,-1.18 -17.79,-15.56 -18.45,-32.12 -0.66,-16.55 6.53,-29.02 16.07,-27.84z"/>
   <path class="fil6" d="M499.69 1096.14c9.53,1.18 17.79,15.56 18.45,32.12 0.65,16.55 -6.54,29.02 -16.07,27.83 -9.53,-1.18 -17.79,-15.56 -18.45,-32.11 -0.66,-16.56 6.54,-29.03 16.07,-27.84z"/>
   <polygon class="fil7" points="281.87,727.37 282.25,981.49 512.2,1091.35 511.82,837.23 "/>
   <polygon class="fil8" points="303.47,768.4 303.47,965.75 491.74,1056.2 491.74,858.85 "/>
   <polygon class="fil5" points="583.99,754.27 354.61,644.08 281.87,727.37 511.82,837.23 "/>
   <polygon class="fil9" points="583.99,754.27 583.99,1055.56 511.82,1091.17 511.82,837.23 "/>
   <polygon class="fil10" points="498.18,522.54 498.29,591.45 591.7,636.08 591.6,567.17 "/>
   <polygon class="fil11" points="498.18,607.39 498.29,676.3 591.7,720.93 591.6,652.02 "/>
   <polygon class="fil8" points="349.68,452.83 349.83,605.49 482.83,669.03 482.68,516.38 "/>
   <path class="fil2" d="M709.64 1268.04l0 -521.73c0,-42.61 25.32,-74.09 52.08,-79.94 10.44,-2.29 18.96,-1.55 25.67,2.67l0 -0.01 0.1 0.07c0.38,0.24 0.75,0.49 1.11,0.75l27.23 11.66 -9.01 23.48c0.84,7.56 1.27,16.14 1.32,25.79l0 488.68 -70.16 60.87 -28.34 -12.29 0 0z"/>
   <path class="fil6" d="M737.98 1280.34l0 -515.08c0,-42.61 26.6,-79.86 53.37,-85.71 30.73,-6.73 44.87,12.72 45.13,70.18l0 482.48 -98.5 48.13 0 0z"/>
   <path class="fil3" d="M770.97 869.42c-10.28,1.27 -19.86,16.69 -21.41,34.44 -1.54,17.76 5.54,31.12 15.82,29.85 10.28,-1.26 19.87,-16.68 21.41,-34.44 1.55,-17.75 -5.54,-31.11 -15.82,-29.85z"/>
   <path class="fil2" d="M794.98 716.42c-14.18,0 -29.78,19.34 -34.86,43.2 -4.45,20.95 0.7,38.41 11.61,42.36l0 0.01 59.9 25.11 27.14 -85.07 -57.49 -24.16c-0.11,-0.06 -0.23,-0.11 -0.34,-0.16l-0.15 -0.08 -0.01 0.01c-1.77,-0.8 -3.71,-1.22 -5.8,-1.22l0 0z"/>
   <path class="fil6" d="M854.38 741.36c-14.18,0 -29.79,19.34 -34.86,43.2 -5.07,23.86 2.31,43.2 16.49,43.2 14.17,0 29.78,-19.34 34.85,-43.2 5.08,-23.86 -2.31,-43.2 -16.48,-43.2z"/>
   <path class="fil9" d="M854.93 755.37c-10.11,0 -21.23,13.79 -24.85,30.8 -3.61,17.01 1.65,30.79 11.76,30.79 10.1,0 21.23,-13.78 24.84,-30.79 3.62,-17.01 -1.64,-30.8 -11.75,-30.8z"/>
   <path class="fil5" d="M906.18 777.76c0,0 33.34,15.53 48.49,23.87 15.15,8.33 39.78,36.74 39.4,81.44l0 368.98c0,0 3.03,45.84 -15.16,77.66 -18.18,31.82 -40.91,44.32 -40.91,44.32l-200.78 103.8 -114.02 56.45c0,0 -33.34,14.01 -64.78,12.12 -31.45,-1.9 -51.52,-10.61 -64.03,-17.43 0,0 -142.68,-70.66 -157.46,-78.24 -14.77,-7.58 -40.15,-31.82 -46.21,-65.92 0,0 -0.76,-16.67 -0.76,-36.36l0 -180.73c-0.14,-23.98 -2.51,-71.4 33.42,-74.6l55.47 -10.87c22.97,-4.5 26.27,42.75 12.26,44.86l-40.34 6.1c-3.71,0.56 -6.81,3.06 -6.81,6.81l0 7.97 -0.21 0.08 0 208.49c0,0 0,20.07 4.17,28.41 10.37,20.74 187.73,101.85 204.06,106.87 4.92,1.52 20.83,4.93 36.36,-4.54l314.43 -165.17c0,0 23.86,-12.12 27.28,-36.37 3.4,-24.24 1.89,-32.2 1.89,-32.2l0 -365.94c0,0 0,-18.57 -6.44,-29.93 -6.44,-11.36 -25.36,-20.03 -35.99,-23.87l-47.05 -18.1c-3.92,-10.64 -0.39,-65.91 19.4,-57.28l44.32 19.32 0 0z"/>
   <path class="fil7" d="M291.55 1130.48c2.93,-18.55 10.85,-35.49 31.82,-37.36l55.48 -10.87c22.96,-4.5 26.27,42.75 12.26,44.86l-40.34 6.1c-3.71,0.56 -6.81,3.06 -6.81,6.81l0 7.97 -0.21 0.08 0 7.22 -52.2 -24.81 0 0z"/>
   <path class="fil7" d="M325.6 1145.96l18.15 -8.94 0 219.54c0,0 0,20.08 4.17,28.41 0.48,0.97 1.33,2.07 2.51,3.29l0 0c-29.04,-16.83 -26.35,-37.84 -26.25,-50.7l1.42 -191.59 0 -0.01z"/>
   <path class="fil7" d="M906.76 778.03c4.48,2.1 33.93,15.91 47.91,23.6 15.15,8.33 39.78,36.74 39.4,81.44l0 368.98c0,0 3.03,45.84 -15.16,77.66 -18.18,31.82 -40.91,44.32 -40.91,44.32l-200.78 103.8 -114.02 56.45c0,0 -33.34,14.01 -64.78,12.12 -31.45,-1.9 -51.52,-10.61 -64.03,-17.43 0,0 -142.68,-70.66 -157.46,-78.24 -14.77,-7.58 -40.15,-31.82 -46.21,-65.92 0,0 -0.09,-1.93 -0.21,-5.25 5.8,26.92 44,46.72 44,46.72l186.63 94.51c0,0 22.36,7.46 44.72,7.75 22.36,0.3 44.43,-6.26 44.43,-6.26l313.04 -158.01c11.92,-6.26 25.64,-22.66 25.64,-22.66 26.53,-27.43 25.64,-76.92 25.64,-76.92l0 -392.64c-0.6,-50.98 -28.62,-66.49 -28.62,-66.49l-41.1 -19.85 1.87 -7.68 0 0z"/>
   <path class="fil7" d="M906.18 777.76c0,0 3.25,1.52 8.19,3.85l0.02 0.13c-9.4,0 -19.73,12.81 -23.09,28.61 -2.35,11.06 -0.67,20.65 3.77,25.42 0.11,0.12 0.2,0.23 0.28,0.34 -2.11,-0.89 -4.09,-1.65 -5.84,-2.28l-47.05 -18.11c-3.91,-10.64 -0.39,-65.9 19.4,-57.28l44.32 19.32 0 0z"/>
   <path class="fil7" d="M424.69 1148.33c0,0 0.24,-38.88 26.81,-43.02l45.49 -3.4c13.57,-1.01 18.83,49.98 3.51,49.98l-7.98 0c-4.18,0 -7.6,3.41 -7.6,7.6l0 8.9 -60.23 0.95 0 -21.01 0 0z"/>
   <path class="fil4" d="M459.46 843.34l-335.88 170.05c-4.16,1.52 -33.33,28.41 -9.09,59.48l129.93 61.76c-15.15,-9.84 -7.95,-49.24 11.21,-60.37l236.11 -121.53 0 -93.88 -32.28 -15.51 0 0z"/>
   <path class="fil6" d="M491.74 952.73l-232.26 119.56c-3.16,1.27 -22.29,9.46 -23.22,41.59 -0.93,32.12 28.62,20.38 28.62,20.38l226.86 -112.3 0 -69.23 0 0z"/>
   <path class="fil8" d="M733.27 396.13c20.66,0 37.41,7.25 37.41,16.19 0,8.95 -16.75,16.2 -37.41,16.2 -20.67,0 -37.42,-7.25 -37.42,-16.2 0,-8.94 16.75,-16.19 37.42,-16.19z"/>
   <path class="fil4" d="M943.01 108.81l-216.87 86.1c-12.99,5.15 -21.08,17.07 -21.08,31.04l0 183.44c0.03,16.35 55.48,18.14 55.12,0l0 -164.24c0,-3.71 2.11,-6.87 5.54,-8.28l195.44 -80.3c21.2,-8.1 4.5,-56.69 -18.15,-47.76l0 0z"/>
   <polygon class="fil12" points="739.2,189.6 763.45,238.88 760.78,240.2 736.53,190.91 "/>
   <polygon class="fil12" points="709.4,209.26 762.82,238.23 761.4,240.85 707.98,211.88 "/>
   <polygon class="fil12" points="705.1,236.39 762.16,238.05 762.07,241.02 705.02,239.36 "/>
   <polygon class="fil13" points="487.48,333.26 773.91,476.04 771.26,481.38 484.82,338.6 "/>
   <path class="fil14" d="M772.76 878.31c-0.27,0 -0.55,0.01 -0.82,0.04 -7.46,1.7 -19.98,39.03 -7.76,47.41l2.66 1.24c2.42,0.69 3.84,1.4 4.5,2.11l46.57 21.77c0,0 10.99,6.06 18.56,19.36 7.58,13.3 6.82,28.37 6.82,28.37l0 207.22c0,0 1.52,23.11 -3.79,42.43 -5.3,19.32 -25.76,31.44 -25.76,31.44l-222.37 115.55c0,0 -22.35,12.88 -37.5,15.15 -15.15,2.27 -37.88,-9.09 -37.88,-9.09 0,0 -21.6,-7.96 -26.9,-20.08 -5.3,-12.12 -4.17,-36.75 -4.17,-36.75l0 -179 -60.23 -0.81 0 180.95c0,0 -0.76,22.73 4.17,43.56 4.92,20.84 21.97,34.86 26.52,38.26 4.54,3.41 39.02,20.46 39.02,20.46 0,0 22.73,14.02 49.62,16.29 26.9,2.27 57.59,-15.53 57.59,-15.53l234.49 -119.33c0,0 23.49,-10.23 40.53,-36.75 17.05,-26.52 15.16,-62.88 15.16,-62.88l0 -229.95c0,0 0,-17.8 -3.79,-36.37 -3.79,-18.56 -23.11,-41.29 -34.85,-48.11 -11.75,-6.82 -75.39,-35.99 -75.39,-35.99 -0.37,0.03 -0.72,0.07 -1.08,0.11 -1.16,-0.7 -2.47,-1.08 -3.91,-1.08l-0.01 0z"/>
   <path class="fil7" d="M425.46 1367.29c0.11,1.17 0.22,2.36 0.36,3.57 -0.07,-1.36 -0.19,-2.54 -0.36,-3.57zm0.67 6.35c0.62,5.04 1.5,10.35 2.73,15.54 4.92,20.84 21.97,34.86 26.51,38.26 4.55,3.41 39.02,20.46 39.02,20.46 0,0 22.73,14.02 49.63,16.29 26.9,2.27 57.58,-15.53 57.58,-15.53l234.5 -119.33c0,0 23.48,-10.23 40.53,-36.75 17.05,-26.52 15.16,-62.88 15.16,-62.88l0 -229.95c0,0 0,-17.81 -3.79,-36.37 -3.79,-18.56 -23.11,-41.29 -34.85,-48.11 -3.48,-2.02 -11.49,-5.99 -21.06,-10.58l-13.7 0.15c0,0 40.25,19.08 51.58,42.93 11.33,23.85 10.43,37.86 10.43,37.86l0 240c0,0 2.68,59.63 -32.5,84.67l-262.65 132.08c0,0 -33.1,13.71 -70.96,-1.49 -36.48,-14.65 -83.75,-42.65 -88.15,-67.26l-0.01 0.01z"/>
   <path class="fil7" d="M500.77 1393.48c-4.88,-3.26 -9.57,-7.43 -11.68,-12.25 -5.3,-12.12 -4.17,-36.75 -4.17,-36.75l0 -154.14 -20.12 1.01 0 148.53c0,22.01 20.75,45.77 35.97,53.6l0 0 0 0z"/>
   <polygon class="fil7" points="484.92,1222.38 484.92,1165.48 424.69,1164.67 424.69,1193.76 "/>
   <path class="fil7" d="M772.76 878.31c-0.27,0 -0.55,0.01 -0.82,0.04 -7.46,1.7 -19.98,39.03 -7.76,47.41l2.66 1.24c2.42,0.69 3.84,1.4 4.5,2.11l46.57 21.77c0,0 1.18,0.65 3.04,2 -0.08,-0.22 -0.23,-0.46 -0.47,-0.72 -3.74,-4.01 -5.16,-12.08 -3.18,-21.38 2.77,-13.05 11.2,-23.68 18.98,-24.07 -22.85,-11.08 -58.52,-27.43 -58.52,-27.43 -0.37,0.03 -0.73,0.07 -1.09,0.11 -1.15,-0.7 -2.47,-1.08 -3.91,-1.08l0 0z"/>
   <polygon class="fil12" points="353.59,895.95 478.17,958.05 476.84,960.71 352.26,898.61 "/>
   <polygon class="fil12" points="276.44,935.92 401.02,998.02 399.69,1000.69 275.11,938.59 "/>
   <polygon class="fil12" points="207.27,970.2 331.85,1032.3 330.52,1034.97 205.95,972.87 "/>
   <polygon class="fil12" points="130.12,1010.18 254.7,1072.28 253.38,1074.94 128.8,1012.84 "/>
   <polygon class="fil12" points="417.46,863.17 492.41,900.53 491.08,903.2 416.13,865.84 "/>
   <path class="fil8" d="M491.74 966.88l-224.77 114.73c-2.05,0.82 -14.43,6.12 -15.03,26.92 -0.6,20.8 18.53,13.19 18.53,13.19l221.27 -110.02 0 -44.82 0 0z"/>
   <polygon class="fil15" points="440.62,582.5 440.62,630.37 462.73,641.85 462.73,593.28 "/>
   <polygon class="fil15" points="405.33,505.65 405.33,612.94 427.45,624.42 427.45,516.43 "/>
   <polygon class="fil15" points="369.44,515.27 369.44,595.13 391.56,606.6 391.56,526.05 "/>
   <path class="fil12" d="M914.22 782.46c-1.73,-0.4 -3.95,0.35 -6.34,1.96 -3.14,2.13 -6.51,5.71 -9.41,10.18 -2.92,4.49 -5.37,9.87 -6.69,15.54 -1.93,8.38 -1.36,17.41 3.91,25.21l-1.23 0.83c-5.53,-8.18 -6.14,-17.63 -4.12,-26.37 1.35,-5.85 3.87,-11.39 6.88,-16.01 3.02,-4.65 6.53,-8.38 9.83,-10.61 2.73,-1.84 5.35,-2.68 7.5,-2.18l-0.33 1.45 0 0z"/>
   <path class="fil12" d="M994.8 944.56c-0.4,2.53 -2.59,5.11 -5.96,7.39 -3.83,2.58 -9.25,4.82 -15.32,6.15 -6.05,1.32 -12.77,1.75 -19.24,0.73 -8.85,-1.4 -17.22,-5.51 -22.77,-13.75l1.23 -0.83c5.29,7.85 13.29,11.77 21.76,13.11 6.28,0.99 12.81,0.57 18.71,-0.72 5.88,-1.29 11.11,-3.45 14.8,-5.93 3.04,-2.05 4.99,-4.28 5.33,-6.38l1.46 0.23 0 0z"/>
   <path class="fil12" d="M994.8 1101.26c-0.4,2.53 -2.59,5.11 -5.96,7.39 -3.83,2.58 -9.25,4.82 -15.32,6.15 -6.05,1.33 -12.77,1.76 -19.24,0.73 -8.85,-1.4 -17.22,-5.51 -22.77,-13.75l1.23 -0.83c5.29,7.85 13.29,11.77 21.76,13.11 6.28,0.99 12.81,0.57 18.71,-0.72 5.88,-1.29 11.11,-3.44 14.8,-5.93 3.04,-2.04 4.99,-4.28 5.33,-6.38l1.46 0.23 0 0z"/>
   <path class="fil12" d="M994.8 1246.87c-0.4,2.53 -2.59,5.11 -5.96,7.39 -3.83,2.58 -9.25,4.82 -15.32,6.15 -6.05,1.32 -12.77,1.75 -19.24,0.73 -8.85,-1.4 -17.22,-5.52 -22.77,-13.75l1.23 -0.83c5.29,7.85 13.29,11.77 21.76,13.11 6.28,0.99 12.81,0.57 18.71,-0.72 5.88,-1.29 11.11,-3.45 14.8,-5.93 3.04,-2.05 4.99,-4.28 5.33,-6.38l1.46 0.23 0 0z"/>
   <path class="fil12" d="M903.91 1390.58c1.72,-0.86 3.04,-2.95 3.89,-5.83 1.11,-3.77 1.39,-8.86 0.7,-14.39 -0.69,-5.55 -2.35,-11.53 -5.12,-17.06 -4.36,-8.73 -11.47,-16.34 -21.86,-19.4l0.41 -1.43c10.84,3.19 18.25,11.1 22.78,20.16 2.85,5.7 4.56,11.85 5.27,17.55 0.71,5.72 0.41,11.02 -0.76,14.99 -0.96,3.28 -2.53,5.68 -4.64,6.73l-0.67 -1.32 0 0z"/>
   <path class="fil12" d="M775.03 1457.97c1.68,-0.84 2.94,-2.81 3.74,-5.54 1.06,-3.59 1.29,-8.45 0.58,-13.75 -0.7,-5.32 -2.35,-11.09 -5.05,-16.49 -4.49,-8.97 -11.88,-16.91 -22.64,-20.08l0.42 -1.42c11.21,3.3 18.89,11.54 23.54,20.84 2.78,5.55 4.48,11.48 5.21,16.96 0.73,5.5 0.48,10.57 -0.63,14.36 -0.92,3.12 -2.44,5.41 -4.5,6.44l-0.67 -1.33 0 0.01z"/>
   <path class="fil12" d="M648.47 1520.55c1.57,-0.79 2.76,-2.64 3.52,-5.22 1,-3.4 1.22,-7.99 0.55,-13.01 -0.67,-5.04 -2.24,-10.5 -4.79,-15.61 -4.25,-8.49 -11.24,-16.01 -21.43,-19.01l0.42 -1.43c10.64,3.13 17.92,10.95 22.34,19.78 2.63,5.26 4.24,10.88 4.93,16.08 0.69,5.22 0.46,10.03 -0.6,13.62 -0.87,2.97 -2.31,5.15 -4.28,6.13l-0.66 -1.33 0 0z"/>
   <path class="fil12" d="M493.93 1529.95c-2.45,-1.22 -4.15,-4.43 -4.98,-8.72 -0.77,-3.92 -0.83,-8.79 -0.09,-13.89 0.73,-5.09 2.26,-10.42 4.69,-15.26 4.13,-8.27 10.85,-15.12 20.64,-17.02l0.28 1.46c-9.27,1.8 -15.65,8.34 -19.6,16.22 -2.34,4.69 -3.82,9.86 -4.54,14.81 -0.71,4.93 -0.66,9.63 0.08,13.4 0.75,3.85 2.18,6.67 4.18,7.67l-0.67 1.33 0.01 0z"/>
   <path class="fil12" d="M382.1 1474.2c-2.41,-1.2 -4.08,-4.36 -4.9,-8.58 -0.75,-3.86 -0.81,-8.66 -0.09,-13.68 0.72,-5.01 2.23,-10.25 4.62,-15.02 4.06,-8.13 10.68,-14.87 20.31,-16.75l0.28 1.47c-9.11,1.77 -15.39,8.19 -19.27,15.95 -2.3,4.61 -3.76,9.69 -4.47,14.56 -0.7,4.86 -0.64,9.48 0.08,13.18 0.73,3.78 2.14,6.56 4.11,7.54l-0.67 1.33 0 0z"/>
   <path class="fil12" d="M290.7 1294.35c0.21,2.39 2.55,4.92 6.16,7.1 3.06,1.85 7.01,3.41 11.35,4.41 4.35,1 9.09,1.43 13.73,1.02 8.36,-0.75 16.39,-4.27 21.19,-12.21l1.27 0.77c-5.07,8.41 -13.54,12.13 -22.33,12.91 -4.8,0.44 -9.7,-0.01 -14.19,-1.04 -4.5,-1.03 -8.6,-2.66 -11.78,-4.58 -4.01,-2.42 -6.62,-5.35 -6.88,-8.25l1.48 -0.13 0 0z"/>
   <path class="fil12" d="M290.7 1181.22c0.21,2.4 2.55,4.93 6.16,7.11 3.06,1.84 7.01,3.41 11.35,4.4 4.35,1 9.09,1.44 13.73,1.02 8.36,-0.75 16.39,-4.26 21.19,-12.2l1.27 0.77c-5.07,8.4 -13.54,12.12 -22.33,12.91 -4.8,0.43 -9.7,-0.01 -14.19,-1.04 -4.5,-1.04 -8.6,-2.66 -11.78,-4.59 -4.01,-2.41 -6.62,-5.34 -6.88,-8.25l1.48 -0.13 0 0z"/>
   <path class="fil12" d="M424.96 1317.84c0.23,2.48 2.6,5.09 6.28,7.39 3.46,2.15 8.05,3.99 13.14,5.17 5.11,1.18 10.71,1.69 16.18,1.18 9.37,-0.87 18.36,-4.73 23.73,-13.36l1.27 0.78c-5.66,9.09 -15.07,13.15 -24.87,14.06 -5.63,0.52 -11.39,0 -16.64,-1.21 -5.25,-1.22 -10,-3.12 -13.59,-5.36 -4.08,-2.53 -6.7,-5.54 -6.98,-8.52l1.48 -0.13 0 0z"/>
   <path class="fil12" d="M424.96 1194.15c0.23,2.48 2.59,5.09 6.28,7.39 3.46,2.15 8.05,3.99 13.14,5.17 5.11,1.18 10.71,1.69 16.18,1.18 9.37,-0.87 18.36,-4.73 23.73,-13.36l1.27 0.78c-5.66,9.09 -15.07,13.15 -24.87,14.06 -5.63,0.52 -11.39,-0.01 -16.64,-1.22 -5.25,-1.21 -10,-3.11 -13.59,-5.35 -4.08,-2.54 -6.7,-5.54 -6.98,-8.52l1.48 -0.13 0 0z"/>
   <path class="fil12" d="M493.67 1448.87c-2.67,-1.18 -4.46,-4.47 -5.21,-8.82 -0.52,-3.03 -0.55,-6.61 -0.04,-10.35 0.51,-3.74 1.57,-7.65 3.22,-11.38 3.89,-8.75 11.08,-16.46 22.27,-18.39l0.25 1.47c-10.62,1.83 -17.45,9.17 -21.16,17.52 -1.6,3.59 -2.62,7.37 -3.11,10.97 -0.49,3.6 -0.46,7.02 0.04,9.91 0.67,3.87 2.16,6.75 4.34,7.72l-0.6 1.35 0 0z"/>
   <path class="fil12" d="M791.46 1350.93c2.58,-1.21 4.51,-4.74 5.41,-9.39 0.6,-3.12 0.74,-6.72 0.29,-10.47 -0.44,-3.75 -1.47,-7.63 -3.17,-11.29 -3.79,-8.12 -10.96,-15.21 -22.7,-17.48l0.28 -1.47c12.28,2.39 19.79,9.81 23.76,18.32 1.79,3.82 2.85,7.86 3.31,11.75 0.47,3.89 0.32,7.65 -0.31,10.91 -0.99,5.12 -3.21,9.05 -6.24,10.46l-0.63 -1.34 0 0z"/>
   <path class="fil12" d="M653.43 1421.29c2.17,-1.02 3.69,-3.88 4.38,-7.73 0.52,-2.93 0.56,-6.4 0.05,-10.06 -0.52,-3.67 -1.6,-7.51 -3.3,-11.16 -3.89,-8.33 -11.04,-15.67 -22.27,-17.69l0.26 -1.46c11.79,2.12 19.28,9.81 23.35,18.52 1.77,3.79 2.89,7.78 3.43,11.58 0.54,3.81 0.49,7.45 -0.06,10.53 -0.78,4.32 -2.58,7.58 -5.21,8.81l-0.63 -1.35 0 0.01z"/>
   <path class="fil12" d="M892.52 1209.88c-0.36,2.88 -2.53,5.63 -5.84,7.87 -2.84,1.92 -6.54,3.48 -10.65,4.42 -4.1,0.94 -8.62,1.25 -13.09,0.69 -7.86,-0.98 -15.62,-4.67 -20.88,-12.44l1.24 -0.83c4.98,7.36 12.35,10.86 19.82,11.79 4.3,0.54 8.64,0.24 12.58,-0.66 3.92,-0.9 7.45,-2.38 10.14,-4.2 2.96,-2.01 4.9,-4.4 5.2,-6.82l1.48 0.18 0 0z"/>
   <path class="fil12" d="M892.52 1107.43c-0.36,2.88 -2.53,5.63 -5.84,7.87 -2.84,1.92 -6.54,3.49 -10.65,4.42 -4.1,0.94 -8.62,1.25 -13.09,0.69 -7.86,-0.98 -15.62,-4.67 -20.88,-12.44l1.24 -0.83c4.98,7.37 12.35,10.86 19.82,11.79 4.3,0.54 8.64,0.24 12.58,-0.66 3.92,-0.89 7.45,-2.38 10.14,-4.2 2.96,-2.01 4.9,-4.4 5.2,-6.82l1.48 0.18 0 0z"/>
   <path class="fil12" d="M892.52 1009.64c-0.36,2.88 -2.53,5.64 -5.84,7.87 -2.84,1.93 -6.54,3.49 -10.65,4.43 -4.1,0.93 -8.62,1.25 -13.09,0.69 -7.86,-0.99 -15.62,-4.67 -20.88,-12.44l1.24 -0.84c4.98,7.37 12.35,10.86 19.82,11.8 4.3,0.54 8.64,0.23 12.58,-0.67 3.92,-0.89 7.45,-2.38 10.14,-4.2 2.96,-2 4.9,-4.39 5.2,-6.82l1.48 0.18 0 0z"/>
  </g>
 </g>
</svg>
