<?xml version="1.0" encoding="UTF-8"?>
<svg id="Camada_2" data-name="Camada 2" xmlns="http://www.w3.org/2000/svg" xmlns:xlink="http://www.w3.org/1999/xlink" viewBox="0 0 4000 5000">
  <defs>
    <style>
      .cls-1 {
        fill: url(#Gradiente_sem_nome-12);
      }

      .cls-2 {
        fill: url(#Gradiente_sem_nome-13);
      }

      .cls-3 {
        fill: url(#Gradiente_sem_nome-11);
      }

      .cls-4 {
        fill: url(#Gradiente_sem_nome-10);
      }

      .cls-5 {
        fill: url(#Gradiente_sem_nome);
      }

      .cls-6 {
        fill: url(#Gradiente_sem_nome-8);
      }

      .cls-7 {
        fill: url(#Gradiente_sem_nome-2);
      }

      .cls-8 {
        fill: url(#Gradiente_sem_nome-7);
      }

      .cls-9 {
        fill: url(#Gradiente_sem_nome-5);
      }

      .cls-10 {
        fill: url(#Gradiente_sem_nome-3);
      }

      .cls-11 {
        fill: url(#Gradiente_sem_nome-6);
      }

      .cls-12 {
        fill: url(#Gradiente_sem_nome-4);
      }

      .cls-13 {
        fill: url(#Gradiente_sem_nome-9);
      }
    </style>
    <linearGradient id="Gradiente_sem_nome" data-name="Gradiente sem nome" x1="3106.99" y1="1987.55" x2="3293.9" y2="1987.55" gradientUnits="userSpaceOnUse">
      <stop offset="0" stop-color="#fff"/>
      <stop offset="1" stop-color="#1d1d1b"/>
    </linearGradient>
    <linearGradient id="Gradiente_sem_nome-2" data-name="Gradiente sem nome" x1="2906.41" y1="2079.18" x2="3077.19" y2="2079.18" xlink:href="#Gradiente_sem_nome"/>
    <linearGradient id="Gradiente_sem_nome-3" data-name="Gradiente sem nome" x1="2705.82" y1="2170.8" x2="2860.47" y2="2170.8" xlink:href="#Gradiente_sem_nome"/>
    <linearGradient id="Gradiente_sem_nome-4" data-name="Gradiente sem nome" x1="2505.23" y1="2262.43" x2="2643.75" y2="2262.43" xlink:href="#Gradiente_sem_nome"/>
    <linearGradient id="Gradiente_sem_nome-5" data-name="Gradiente sem nome" x1="2304.64" y1="2354.06" x2="2427.03" y2="2354.06" xlink:href="#Gradiente_sem_nome"/>
    <linearGradient id="Gradiente_sem_nome-6" data-name="Gradiente sem nome" x1="2104.05" y1="2445.68" x2="2210.31" y2="2445.68" xlink:href="#Gradiente_sem_nome"/>
    <linearGradient id="Gradiente_sem_nome-7" data-name="Gradiente sem nome" x1="1903.47" y1="2537.31" x2="1993.59" y2="2537.31" xlink:href="#Gradiente_sem_nome"/>
    <linearGradient id="Gradiente_sem_nome-8" data-name="Gradiente sem nome" x1="1703.91" y1="2627.45" x2="1782.51" y2="2627.45" xlink:href="#Gradiente_sem_nome"/>
    <linearGradient id="Gradiente_sem_nome-9" data-name="Gradiente sem nome" x1="1504.34" y1="2717.59" x2="1571.43" y2="2717.59" xlink:href="#Gradiente_sem_nome"/>
    <linearGradient id="Gradiente_sem_nome-10" data-name="Gradiente sem nome" x1="1304.78" y1="2807.73" x2="1360.34" y2="2807.73" xlink:href="#Gradiente_sem_nome"/>
    <linearGradient id="Gradiente_sem_nome-11" data-name="Gradiente sem nome" x1="1105.22" y1="2897.87" x2="1149.26" y2="2897.87" xlink:href="#Gradiente_sem_nome"/>
    <linearGradient id="Gradiente_sem_nome-12" data-name="Gradiente sem nome" x1="905.66" y1="2988.01" x2="938.17" y2="2988.01" xlink:href="#Gradiente_sem_nome"/>
    <linearGradient id="Gradiente_sem_nome-13" data-name="Gradiente sem nome" x1="706.1" y1="3078.15" x2="727.09" y2="3078.15" xlink:href="#Gradiente_sem_nome"/>
  </defs>
  <g id="Camada_1-2" data-name="Camada 1">
    <g>
      <rect width="4000" height="5000"/>
      <g>
        <polygon class="cls-5" points="3293.9 814.08 3293.9 3081.23 3106.99 3161.02 3106.99 898.28 3293.9 814.08"/>
        <polygon class="cls-7" points="3077.19 911.7 3077.19 3173.74 2906.41 3246.65 2906.41 988.64 3077.19 911.7"/>
        <polygon class="cls-10" points="2860.47 1009.33 2860.47 3266.26 2705.82 3332.27 2705.82 1079 2860.47 1009.33"/>
        <polygon class="cls-12" points="2643.75 1106.96 2643.75 3358.77 2505.23 3417.9 2505.23 1169.36 2643.75 1106.96"/>
        <polygon class="cls-9" points="2427.03 1204.58 2427.03 3451.28 2304.64 3503.53 2304.64 1259.72 2427.03 1204.58"/>
        <polygon class="cls-11" points="2210.31 1302.21 2210.31 3543.8 2104.05 3589.16 2104.05 1350.08 2210.31 1302.21"/>
        <polygon class="cls-8" points="1993.59 1399.84 1993.59 3636.31 1903.47 3674.78 1903.47 1440.44 1993.59 1399.84"/>
        <polygon class="cls-6" points="1782.51 1494.93 1782.51 3726.42 1703.91 3759.97 1703.91 1530.34 1782.51 1494.93"/>
        <polygon class="cls-13" points="1571.43 1590.02 1571.43 3816.53 1504.34 3845.16 1504.34 1620.24 1571.43 1590.02"/>
        <polygon class="cls-4" points="1360.34 1685.11 1360.34 3906.64 1304.78 3930.35 1304.78 1710.13 1360.34 1685.11"/>
        <polygon class="cls-3" points="1149.26 1780.19 1149.26 3996.75 1105.22 4015.54 1105.22 1800.03 1149.26 1780.19"/>
        <polygon class="cls-1" points="938.17 1875.28 938.17 4086.85 905.66 4100.73 905.66 1889.93 938.17 1875.28"/>
        <polygon class="cls-2" points="727.09 1970.37 727.09 4176.96 706.1 4185.92 706.1 1979.83 727.09 1970.37"/>
      </g>
    </g>
  </g>
</svg>