<?xml version="1.0" encoding="utf-8"?>
<!-- Generator: Adobe Illustrator 26.0.2, SVG Export Plug-In . SVG Version: 6.00 Build 0)  -->
<svg version="1.1" id="PATTERN" xmlns="http://www.w3.org/2000/svg" xmlns:xlink="http://www.w3.org/1999/xlink" x="0px" y="0px"
	 viewBox="0 0 3968 3104" style="enable-background:new 0 0 3968 3104;" xml:space="preserve">
<style type="text/css">
	.st0{fill:#7AADAA;}
	.st1{fill:#E40008;}
	.st2{fill:#F0E0DC;}
	.st3{opacity:0.4;fill:#FFFFFF;}
	.st4{fill:#004188;}
	.st5{fill:#679A97;}
	.st6{fill:#D8877C;}
	.st7{fill:#808080;}
	.st8{opacity:0.2;fill:#FFFFFF;}
</style>
<rect x="0" y="0" class="st0" width="3968" height="3104"/>
<g>
	<g>
		<path class="st1" d="M2947.8,1333.4c-2.4,78.8,51.3,65.7,62.5,44.5c6.1-11.4,4.7-13.7,8.2-140.9c0.3-10.8-3.1-15-16.3-13.5
			c-34,3.9-41.4-1.7-51.9,26.8C2942.4,1272.1,2948.4,1309.7,2947.8,1333.4z"/>
		<path class="st2" d="M2656.3,1264.1c39.3,25.9,626.6,34.3,639.9,18.4c63.4-75.9-255.1-974-284.2-1007.2
			c-48.1-54.9-127.1,234.8-168.5,351.4C2787.2,785.4,2605.4,1230.6,2656.3,1264.1z"/>
		<path class="st3" d="M3206,1209.5c-51.1-22.7-275.4-41-447.9-37c69-166.3,89.2-303.6,234.8-836c1.5-5.4-6.1-7.1-8.1-2.2
			c-229.4,557.8-192.1,634-293.6,853.2c-8.3,17.9,1.2,42.8,24,41.8c296.9-12.8,431.1,27.9,479.2,22.9
			C3223.3,1249.4,3222,1216.6,3206,1209.5z"/>
		<path class="st4" d="M3043.4,217.2c40,6.1,45.3,4,50.1,9.3c8.7,9.6-37.4,36.7-41,48.6c-5.7,18.9,24.1,73.3-3,61.7
			c-66.4-28.5-32.4-33.9-88.9-4.1c-39.6,20.8-8.4-27.4-13.1-53.8c-3.1-17.2-44.7-44.2-43-51.8c0.9-3.9,29.5-6.3,41.5-8.1
			c35.3-5.1,16.6,4.8,49.7-56.9C3007.8,139.6,3018,213.3,3043.4,217.2z"/>
		<path class="st1" d="M3035,461.4c-11.4-40.5-78.3-36.2-70.8,19.5C2975.5,521.5,3042.4,517,3035,461.4z"/>
		<path class="st1" d="M2992.3,839c-36.6,11.9-29.7,73.5,14.7,73.7C3076.9,904,3039.3,814.4,2992.3,839z"/>
		<path class="st1" d="M2772.2,1180.9c-11.8-42-81-37.4-73.2,20.2C2710.7,1242.9,2779.9,1238.6,2772.2,1180.9z"/>
		<path class="st5" d="M3153.8,730.1c-12-42.8-82.7-38.2-74.7,20.6C3091.1,793.6,3161.7,789,3153.8,730.1z"/>
		<path class="st5" d="M2762.2,902.3c-52.4,0-49.4,77.2,0,77.2C2814.5,979.5,2811.5,902.3,2762.2,902.3z"/>
		<path class="st5" d="M3253.4,1189.8c-8.1-39.4-65.6-36.9-72.7-1.9C3167.1,1254.4,3266.4,1252.8,3253.4,1189.8z"/>
		<path class="st4" d="M2925.7,746.5c-11.8-42-81.3-37.6-73.5,20.3C2864,809,2933.4,804.2,2925.7,746.5z"/>
		<path class="st4" d="M3162.6,580.8c-11.3-40.3-77.6-35.8-70.2,19.4C3103.7,640.4,3170,635.9,3162.6,580.8z"/>
		<path class="st4" d="M3237.9,1022.6c-11.6-41.5-80.1-37.1-72.5,20C3177.1,1084.1,3245.5,1079.6,3237.9,1022.6z"/>
		<path class="st4" d="M2984,1194.1c-2.1-46.7-75.5-38.3-75.6,0c-5.3,19.8,18.4,49.4,48.6,41.3
			C2977.2,1229.7,2987.4,1209.4,2984,1194.1z"/>
		<path class="st6" d="M3021.1,623.6c-11.7-41.7-80.5-37.1-72.8,20.1C2960,685.4,3028.7,680.8,3021.1,623.6z"/>
		<path class="st6" d="M3081.1,1056.5c-11.4-40.6-78.4-36.2-70.9,19.6C3021.5,1116.7,3088.6,1112.3,3081.1,1056.5z"/>
		<path class="st7" d="M2927.6,549.2c-7-29.3-51.9-41.2-71.2-7.7C2820.3,604.5,2938.7,631.7,2927.6,549.2z"/>
		<path class="st7" d="M2922,1013.9c-10.6-37.9-73.1-33.8-66.1,18.2C2866.5,1070.1,2929,1065.9,2922,1013.9z"/>
		<path class="st7" d="M3217,875.8c-37.4,0-37.5,56.8,0,56.8C3254.4,932.6,3254.5,875.8,3217,875.8z"/>
		<path class="st8" d="M2985.3,1363.7c0.1,0.1-9.9-4.1-11.4-5.6c-5.1-5.2-3.8-32.8-6.3-51.8c-2.7-20.7-12.6,42.3-1.2,62.2
			C2976,1385.3,2997.4,1371.6,2985.3,1363.7z"/>
		<path class="st8" d="M3003.7,175.8c-3.4-16.1-31.2,53.6-10.8,33.6C2997.4,205.1,3005.6,184.9,3003.7,175.8z"/>
		<path class="st8" d="M2966.2,224.2c-16.8-5.8-81.7,13.4-35.5,12.1C2948.1,235.8,2980,229,2966.2,224.2z"/>
		<path class="st8" d="M2975.6,286.9c-7.7-24.6-36.8,56.3-14.3,33.5C2963.3,318.5,2977.7,293.7,2975.6,286.9z"/>
		<path class="st8" d="M3079.1,229.4c-19.3-0.5-54.4-4.2-52.9,8.5c1.5,12.5,39.2,1.6,53.8-1.4C3084.1,235.6,3083,229.5,3079.1,229.4
			z"/>
		<path class="st8" d="M3052.2,314.9c-34.5-46.8-56.1-18.5-5.1,5.1C3051.1,321.9,3054.1,317.5,3052.2,314.9z"/>
		<path class="st8" d="M3012.5,450.4c-20.1-14.5-50.1,13.6-33.8,33.7c6.1,7.5,3.4-17.8,30.4-21.3
			C3017,461.8,3017.6,454.1,3012.5,450.4z"/>
		<path class="st8" d="M2872.5,565.9c-1.6,4.8,1.3,11.8-3.9,10.2c-10.7-3.4-16.2-21.1,0-33.3c11.2-8.5,24.6-5.7,28.2-1.9
			C2908.7,553.4,2876.9,553.3,2872.5,565.9z"/>
		<path class="st8" d="M2750.5,951.3c2.4,6.5-14.5,8.6-14.4-9.7c0.1-15.8,32.4-35,44.4-16.8C2789.1,937.8,2750.9,941.8,2750.5,951.3
			z"/>
		<path class="st8" d="M2750.8,1174.3c-1.4-10.1-15.6-11.7-24.3-5.9c-27.9,18.7-9.2,51.3,2.1,33.6
			C2742.6,1180.2,2752.3,1186,2750.8,1174.3z"/>
		<path class="st8" d="M2897,740.7c1.7-12.4-22.4-15.6-31.1,2.1c-3.4,7-4.3,15.5,0.7,21.5c8.4,11.6,9,1.8,11.8-6.7
			C2882.8,748.4,2895.9,749.5,2897,740.7z"/>
		<path class="st8" d="M2879,1025.9c-1,4.2,1.2,5.8-1.7,7.4c-3.5,2.1-8.9-5.1-10.4-8.9c-8.7-21.1,26.4-35.1,33-18.1
			C2905.1,1019.8,2882.5,1011.7,2879,1025.9z"/>
		<path class="st8" d="M2956.7,1198.7c-7.7,3.5-18.5,3.7-19.4,6c2,2,1,6.7-3.3,7.1c-8.1,0.7-16.4-10.6-6.7-20.7
			C2944.7,1172.8,2970.4,1192.4,2956.7,1198.7z"/>
		<g>
			<path class="st8" d="M3034.1,1073.9c0.5-0.4,0-0.1,0.1-0.1C3034.2,1073.8,3034.1,1073.9,3034.1,1073.9
				C3034.1,1073.9,3034.1,1073.9,3034.1,1073.9z"/>
			<path class="st8" d="M3056.6,1050.4c-10.8-16.3-35.3-4-33.6,13c0.8,8,5.8,14.6,11.1,10.4
				C3039,1059.3,3064.6,1062.4,3056.6,1050.4z"/>
			<path class="st8" d="M3035.2,1073.1c-0.3,0.2-0.6,0.4-0.8,0.6C3034.4,1073.7,3034.2,1073.8,3035.2,1073.1z"/>
		</g>
		<path class="st8" d="M3017.4,856.8c-6.1-17.3-34.4-8.6-36.9,8.1c-2.9,18.9,18.5,30.8,15.5,16.8
			C2992.3,864.8,3021.3,868,3017.4,856.8z"/>
		<path class="st8" d="M2991.4,611.1c4.2,6.6,1-6.4-11.2-5.5c-25.5,1.9-30.4,35.2-13.8,38.8c4.9,3.6,9.7-7,6.4-2.8
			C2978.2,622.8,3002.6,623.5,2991.4,611.1z"/>
		<path class="st8" d="M3118.6,593.9c0.6-0.8,2,4.7-2.3,5.2c-28,3.1-10.1-55.8,24.2-28.7C3159.4,585.2,3112.2,587,3118.6,593.9z"/>
		<path class="st8" d="M3124.9,733.1c-4.4,3.2-15,1.2-18.4,17.8c2.5,14.2-5.5,12.2-10,4.6c-18.1-30.4,17-51.5,34-36.5
			C3134.7,722.7,3133.9,731.3,3124.9,733.1z"/>
		<path class="st8" d="M3213.3,908.8c2.6-3.4-1.5,3.3-2.3,4.1c0.3,6.5-11,2.9-12.9-4.2c-6.9-24.6,31.5-31.6,31.4-13.8
			C3232.5,905.5,3214.9,903.9,3213.3,908.8z"/>
		<g>
			<path class="st8" d="M3213.9,1012.9c-13.3-14.8-46.5,7.9-36.7,29.7c11,24.5,16.4-5.8,18.1-8.4c5.8-6.6,9.3-4,13.8-5.9
				C3217.8,1024.6,3217.9,1017.4,3213.9,1012.9z"/>
			<path class="st8" d="M3190.2,1048.7C3190.5,1048.2,3190.6,1048.1,3190.2,1048.7C3190.1,1049,3190.2,1048.8,3190.2,1048.7z"/>
			<path class="st8" d="M3191.8,1043.9c0,0.2-0.1,0.4-0.1,0.5C3191.7,1044.3,3191.8,1044.1,3191.8,1043.9z"/>
			<path class="st8" d="M3190.1,1048.6c0,0,0,0.1,0,0.1C3190.1,1048.8,3190.1,1048.7,3190.1,1048.6
				C3190.1,1048.7,3190.1,1048.7,3190.1,1048.6z"/>
		</g>
		<g>
			<path class="st8" d="M3226.7,1182.2c-3.9-16.9-42.5-8.7-36.6,17.6c1.4,6.2,10.3,16.3,14.4,12.1c1.7-1.7-3.8-17.9,12.3-16.8
				C3225,1194,3228.1,1188.3,3226.7,1182.2z"/>
			<path class="st8" d="M3204.9,1207.2C3205,1207.3,3205.1,1207.4,3204.9,1207.2L3204.9,1207.2z"/>
		</g>
	</g>
	<g>
		<path class="st1" d="M2947.8,2885.4c-2.4,78.8,51.3,65.7,62.5,44.5c6.1-11.4,4.7-13.7,8.2-140.9c0.3-10.8-3.1-15-16.3-13.5
			c-34,3.9-41.4-1.7-51.9,26.8C2942.4,2824.1,2948.4,2861.7,2947.8,2885.4z"/>
		<path class="st2" d="M2656.3,2816.1c39.3,25.9,626.6,34.3,639.9,18.4c63.4-75.9-255.1-974-284.2-1007.2
			c-48.1-54.9-127.1,234.8-168.5,351.4C2787.2,2337.4,2605.4,2782.6,2656.3,2816.1z"/>
		<path class="st3" d="M3206,2761.5c-51.1-22.7-275.4-41-447.9-37c69-166.3,89.2-303.6,234.8-836c1.5-5.4-6.1-7.1-8.1-2.2
			c-229.4,557.8-192.1,634-293.6,853.2c-8.3,17.9,1.2,42.8,24,41.8c296.9-12.8,431.1,27.9,479.2,22.9
			C3223.3,2801.4,3222,2768.6,3206,2761.5z"/>
		<path class="st4" d="M3043.4,1769.2c40,6.1,45.3,4,50.1,9.3c8.7,9.6-37.4,36.7-41,48.6c-5.7,18.9,24.1,73.3-3,61.7
			c-66.4-28.5-32.4-33.9-88.9-4.1c-39.6,20.8-8.4-27.4-13.1-53.8c-3.1-17.2-44.7-44.2-43-51.8c0.9-3.9,29.5-6.3,41.5-8.1
			c35.3-5.1,16.6,4.8,49.7-56.9C3007.8,1691.6,3018,1765.3,3043.4,1769.2z"/>
		<path class="st1" d="M3035,2013.4c-11.4-40.5-78.3-36.2-70.8,19.5C2975.5,2073.5,3042.4,2069,3035,2013.4z"/>
		<path class="st1" d="M2992.3,2391c-36.6,11.9-29.7,73.5,14.7,73.7C3076.9,2456,3039.3,2366.4,2992.3,2391z"/>
		<path class="st1" d="M2772.2,2732.9c-11.8-42-81-37.4-73.2,20.2C2710.7,2794.9,2779.9,2790.6,2772.2,2732.9z"/>
		<path class="st5" d="M3153.8,2282.1c-12-42.8-82.7-38.2-74.7,20.6C3091.1,2345.6,3161.7,2341,3153.8,2282.1z"/>
		<path class="st5" d="M2762.2,2454.3c-52.4,0-49.4,77.2,0,77.2C2814.5,2531.5,2811.5,2454.3,2762.2,2454.3z"/>
		<path class="st5" d="M3253.4,2741.8c-8.1-39.4-65.6-36.9-72.7-1.9C3167.1,2806.4,3266.4,2804.8,3253.4,2741.8z"/>
		<path class="st4" d="M2925.7,2298.5c-11.8-42-81.3-37.6-73.5,20.3C2864,2361,2933.4,2356.2,2925.7,2298.5z"/>
		<path class="st4" d="M3162.6,2132.8c-11.3-40.3-77.6-35.8-70.2,19.4C3103.7,2192.4,3170,2187.9,3162.6,2132.8z"/>
		<path class="st4" d="M3237.9,2574.6c-11.6-41.5-80.1-37.1-72.5,20C3177.1,2636.1,3245.5,2631.6,3237.9,2574.6z"/>
		<path class="st4" d="M2984,2746.1c-2.1-46.7-75.5-38.3-75.6,0c-5.3,19.8,18.4,49.4,48.6,41.3
			C2977.2,2781.7,2987.4,2761.4,2984,2746.1z"/>
		<path class="st6" d="M3021.1,2175.6c-11.7-41.7-80.5-37.1-72.8,20.1C2960,2237.4,3028.7,2232.8,3021.1,2175.6z"/>
		<path class="st6" d="M3081.1,2608.5c-11.4-40.6-78.4-36.2-70.9,19.6C3021.5,2668.7,3088.6,2664.3,3081.1,2608.5z"/>
		<path class="st7" d="M2927.6,2101.2c-7-29.3-51.9-41.2-71.2-7.7C2820.3,2156.5,2938.7,2183.7,2927.6,2101.2z"/>
		<path class="st7" d="M2922,2565.9c-10.6-37.9-73.1-33.8-66.1,18.2C2866.5,2622.1,2929,2617.9,2922,2565.9z"/>
		<path class="st7" d="M3217,2427.8c-37.4,0-37.5,56.8,0,56.8C3254.4,2484.6,3254.5,2427.8,3217,2427.8z"/>
		<path class="st8" d="M2985.3,2915.7c0.1,0.1-9.9-4.1-11.4-5.6c-5.1-5.2-3.8-32.8-6.3-51.8c-2.7-20.7-12.6,42.3-1.2,62.2
			C2976,2937.3,2997.4,2923.6,2985.3,2915.7z"/>
		<path class="st8" d="M3003.7,1727.8c-3.4-16.1-31.2,53.6-10.8,33.6C2997.4,1757.1,3005.6,1736.9,3003.7,1727.8z"/>
		<path class="st8" d="M2966.2,1776.2c-16.8-5.8-81.7,13.4-35.5,12.1C2948.1,1787.8,2980,1781,2966.2,1776.2z"/>
		<path class="st8" d="M2975.6,1838.9c-7.7-24.6-36.8,56.3-14.3,33.5C2963.3,1870.5,2977.7,1845.7,2975.6,1838.9z"/>
		<path class="st8" d="M3079.1,1781.4c-19.3-0.5-54.4-4.2-52.9,8.5c1.5,12.5,39.2,1.6,53.8-1.4
			C3084.1,1787.6,3083,1781.5,3079.1,1781.4z"/>
		<path class="st8" d="M3052.2,1866.9c-34.5-46.8-56.1-18.5-5.1,5.1C3051.1,1873.9,3054.1,1869.5,3052.2,1866.9z"/>
		<path class="st8" d="M3012.5,2002.4c-20.1-14.5-50.1,13.6-33.8,33.7c6.1,7.5,3.4-17.8,30.4-21.3
			C3017,2013.8,3017.6,2006.1,3012.5,2002.4z"/>
		<path class="st8" d="M2872.5,2117.9c-1.6,4.8,1.3,11.8-3.9,10.2c-10.7-3.4-16.2-21.1,0-33.3c11.2-8.5,24.6-5.7,28.2-1.9
			C2908.7,2105.4,2876.9,2105.3,2872.5,2117.9z"/>
		<path class="st8" d="M2750.5,2503.3c2.4,6.5-14.5,8.6-14.4-9.7c0.1-15.8,32.4-35,44.4-16.8
			C2789.1,2489.8,2750.9,2493.8,2750.5,2503.3z"/>
		<path class="st8" d="M2750.8,2726.3c-1.4-10.1-15.6-11.7-24.3-5.9c-27.9,18.7-9.2,51.3,2.1,33.6
			C2742.6,2732.2,2752.3,2738,2750.8,2726.3z"/>
		<path class="st8" d="M2897,2292.7c1.7-12.4-22.4-15.6-31.1,2.1c-3.4,7-4.3,15.5,0.7,21.5c8.4,11.6,9,1.8,11.8-6.7
			C2882.8,2300.4,2895.9,2301.5,2897,2292.7z"/>
		<path class="st8" d="M2879,2577.9c-1,4.2,1.2,5.8-1.7,7.4c-3.5,2.1-8.9-5.1-10.4-8.9c-8.7-21.1,26.4-35.1,33-18.1
			C2905.1,2571.8,2882.5,2563.7,2879,2577.9z"/>
		<path class="st8" d="M2956.7,2750.7c-7.7,3.5-18.5,3.7-19.4,6c2,2,1,6.7-3.3,7.1c-8.1,0.7-16.4-10.6-6.7-20.7
			C2944.7,2724.8,2970.4,2744.4,2956.7,2750.7z"/>
		<g>
			<path class="st8" d="M3034.1,2625.9c0.5-0.4,0-0.1,0.1-0.1C3034.2,2625.8,3034.1,2625.9,3034.1,2625.9
				C3034.1,2625.9,3034.1,2625.9,3034.1,2625.9z"/>
			<path class="st8" d="M3056.6,2602.4c-10.8-16.3-35.3-4-33.6,13c0.8,8,5.8,14.6,11.1,10.4
				C3039,2611.3,3064.6,2614.4,3056.6,2602.4z"/>
			<path class="st8" d="M3035.2,2625.1c-0.3,0.2-0.6,0.4-0.8,0.6C3034.4,2625.7,3034.2,2625.8,3035.2,2625.1z"/>
		</g>
		<path class="st8" d="M3017.4,2408.8c-6.1-17.3-34.4-8.6-36.9,8.1c-2.9,18.9,18.5,30.8,15.5,16.8
			C2992.3,2416.8,3021.3,2420,3017.4,2408.8z"/>
		<path class="st8" d="M2991.4,2163.1c4.2,6.6,1-6.4-11.2-5.5c-25.5,1.9-30.4,35.2-13.8,38.8c4.9,3.6,9.7-7,6.4-2.8
			C2978.2,2174.8,3002.6,2175.5,2991.4,2163.1z"/>
		<path class="st8" d="M3118.6,2145.9c0.6-0.8,2,4.7-2.3,5.2c-28,3.1-10.1-55.8,24.2-28.7C3159.4,2137.2,3112.2,2139,3118.6,2145.9z
			"/>
		<path class="st8" d="M3124.9,2285.1c-4.4,3.2-15,1.2-18.4,17.8c2.5,14.2-5.5,12.2-10,4.6c-18.1-30.4,17-51.5,34-36.5
			C3134.7,2274.7,3133.9,2283.3,3124.9,2285.1z"/>
		<path class="st8" d="M3213.3,2460.8c2.6-3.4-1.5,3.3-2.3,4.1c0.3,6.5-11,2.9-12.9-4.2c-6.9-24.6,31.5-31.6,31.4-13.8
			C3232.5,2457.5,3214.9,2455.9,3213.3,2460.8z"/>
		<g>
			<path class="st8" d="M3213.9,2564.9c-13.3-14.8-46.5,7.9-36.7,29.7c11,24.5,16.4-5.8,18.1-8.4c5.8-6.6,9.3-4,13.8-5.9
				C3217.8,2576.6,3217.9,2569.4,3213.9,2564.9z"/>
			<path class="st8" d="M3190.2,2600.7C3190.5,2600.2,3190.6,2600.1,3190.2,2600.7C3190.1,2601,3190.2,2600.8,3190.2,2600.7z"/>
			<path class="st8" d="M3191.8,2595.9c0,0.2-0.1,0.4-0.1,0.5C3191.7,2596.3,3191.8,2596.1,3191.8,2595.9z"/>
			<path class="st8" d="M3190.1,2600.6c0,0,0,0.1,0,0.1C3190.1,2600.8,3190.1,2600.7,3190.1,2600.6
				C3190.1,2600.7,3190.1,2600.7,3190.1,2600.6z"/>
		</g>
		<g>
			<path class="st8" d="M3226.7,2734.2c-3.9-16.9-42.5-8.7-36.6,17.6c1.4,6.2,10.3,16.3,14.4,12.1c1.7-1.7-3.8-17.9,12.3-16.8
				C3225,2746,3228.1,2740.3,3226.7,2734.2z"/>
			<path class="st8" d="M3204.9,2759.2C3205,2759.3,3205.1,2759.4,3204.9,2759.2L3204.9,2759.2z"/>
		</g>
	</g>
	<g>
		<path class="st1" d="M963.8,1333.4c-2.4,78.8,51.3,65.7,62.5,44.5c6.1-11.4,4.7-13.7,8.2-140.9c0.3-10.8-3.1-15-16.3-13.5
			c-34,3.9-41.4-1.7-51.9,26.8C958.4,1272.1,964.4,1309.7,963.8,1333.4z"/>
		<path class="st2" d="M672.3,1264.1c39.3,25.9,626.6,34.3,639.9,18.4c63.4-75.9-255.1-974-284.2-1007.2
			c-48.1-54.9-127.1,234.8-168.5,351.4C803.2,785.4,621.4,1230.6,672.3,1264.1z"/>
		<path class="st3" d="M1222,1209.5c-51.1-22.7-275.4-41-447.9-37c69-166.3,89.2-303.6,234.8-836c1.5-5.4-6.1-7.1-8.1-2.2
			c-229.4,557.8-192.1,634-293.6,853.2c-8.3,17.9,1.2,42.8,24,41.8c296.9-12.8,431.1,27.9,479.2,22.9
			C1239.3,1249.4,1238,1216.6,1222,1209.5z"/>
		<path class="st4" d="M1059.4,217.2c40,6.1,45.3,4,50.1,9.3c8.7,9.6-37.4,36.7-41,48.6c-5.7,18.9,24.1,73.3-3,61.7
			c-66.4-28.5-32.4-33.9-88.9-4.1c-39.6,20.8-8.4-27.4-13.1-53.8c-3.1-17.2-44.7-44.2-43-51.8c0.9-3.9,29.5-6.3,41.5-8.1
			c35.3-5.1,16.6,4.8,49.7-56.9C1023.8,139.6,1034,213.3,1059.4,217.2z"/>
		<path class="st1" d="M1051,461.4c-11.4-40.5-78.3-36.2-70.8,19.5C991.5,521.5,1058.4,517,1051,461.4z"/>
		<path class="st1" d="M1008.3,839c-36.6,11.9-29.7,73.5,14.7,73.7C1092.9,904,1055.3,814.4,1008.3,839z"/>
		<path class="st1" d="M788.2,1180.9c-11.8-42-81-37.4-73.2,20.2C726.7,1242.9,795.9,1238.6,788.2,1180.9z"/>
		<path class="st5" d="M1169.8,730.1c-12-42.8-82.7-38.2-74.7,20.6C1107.1,793.6,1177.7,789,1169.8,730.1z"/>
		<path class="st5" d="M778.2,902.3c-52.4,0-49.4,77.2,0,77.2C830.5,979.5,827.5,902.3,778.2,902.3z"/>
		<path class="st5" d="M1269.4,1189.8c-8.1-39.4-65.6-36.9-72.7-1.9C1183.1,1254.4,1282.4,1252.8,1269.4,1189.8z"/>
		<path class="st4" d="M941.7,746.5c-11.8-42-81.3-37.6-73.5,20.3C880,809,949.4,804.2,941.7,746.5z"/>
		<path class="st4" d="M1178.6,580.8c-11.3-40.3-77.6-35.8-70.2,19.4C1119.7,640.4,1186,635.9,1178.6,580.8z"/>
		<path class="st4" d="M1253.9,1022.6c-11.6-41.5-80.1-37.1-72.5,20C1193.1,1084.1,1261.5,1079.6,1253.9,1022.6z"/>
		<path class="st4" d="M1000,1194.1c-2.1-46.7-75.5-38.3-75.6,0c-5.3,19.8,18.4,49.4,48.6,41.3
			C993.2,1229.7,1003.4,1209.4,1000,1194.1z"/>
		<path class="st6" d="M1037.1,623.6c-11.7-41.7-80.5-37.1-72.8,20.1C976,685.4,1044.7,680.8,1037.1,623.6z"/>
		<path class="st6" d="M1097.1,1056.5c-11.4-40.6-78.4-36.2-70.9,19.6C1037.5,1116.7,1104.6,1112.3,1097.1,1056.5z"/>
		<path class="st7" d="M943.6,549.2c-7-29.3-51.9-41.2-71.2-7.7C836.3,604.5,954.7,631.7,943.6,549.2z"/>
		<path class="st7" d="M938,1013.9c-10.6-37.9-73.1-33.8-66.1,18.2C882.5,1070.1,945,1065.9,938,1013.9z"/>
		<path class="st7" d="M1233,875.8c-37.4,0-37.5,56.8,0,56.8C1270.4,932.6,1270.5,875.8,1233,875.8z"/>
		<path class="st8" d="M1001.3,1363.7c0.1,0.1-9.9-4.1-11.4-5.6c-5.1-5.2-3.8-32.8-6.3-51.8c-2.7-20.7-12.6,42.3-1.2,62.2
			C992,1385.3,1013.4,1371.6,1001.3,1363.7z"/>
		<path class="st8" d="M1019.7,175.8c-3.4-16.1-31.2,53.6-10.8,33.6C1013.4,205.1,1021.6,184.9,1019.7,175.8z"/>
		<path class="st8" d="M982.2,224.2c-16.8-5.8-81.7,13.4-35.5,12.1C964.1,235.8,996,229,982.2,224.2z"/>
		<path class="st8" d="M991.6,286.9c-7.7-24.6-36.8,56.3-14.3,33.5C979.3,318.5,993.7,293.7,991.6,286.9z"/>
		<path class="st8" d="M1095.1,229.4c-19.3-0.5-54.4-4.2-52.9,8.5c1.5,12.5,39.2,1.6,53.8-1.4C1100.1,235.6,1099,229.5,1095.1,229.4
			z"/>
		<path class="st8" d="M1068.2,314.9c-34.5-46.8-56.1-18.5-5.1,5.1C1067.1,321.9,1070.1,317.5,1068.2,314.9z"/>
		<path class="st8" d="M1028.5,450.4c-20.1-14.5-50.1,13.6-33.8,33.7c6.1,7.5,3.4-17.8,30.4-21.3
			C1033,461.8,1033.6,454.1,1028.5,450.4z"/>
		<path class="st8" d="M888.5,565.9c-1.6,4.8,1.3,11.8-3.9,10.2c-10.7-3.4-16.2-21.1,0-33.3c11.2-8.5,24.6-5.7,28.2-1.9
			C924.7,553.4,892.9,553.3,888.5,565.9z"/>
		<path class="st8" d="M766.5,951.3c2.4,6.5-14.5,8.6-14.4-9.7c0.1-15.8,32.4-35,44.4-16.8C805.1,937.8,766.9,941.8,766.5,951.3z"/>
		<path class="st8" d="M766.8,1174.3c-1.4-10.1-15.6-11.7-24.3-5.9c-27.9,18.7-9.2,51.3,2.1,33.6
			C758.6,1180.2,768.3,1186,766.8,1174.3z"/>
		<path class="st8" d="M913,740.7c1.7-12.4-22.4-15.6-31.1,2.1c-3.4,7-4.3,15.5,0.7,21.5c8.4,11.6,9,1.8,11.8-6.7
			C898.8,748.4,911.9,749.5,913,740.7z"/>
		<path class="st8" d="M895,1025.9c-1,4.2,1.2,5.8-1.7,7.4c-3.5,2.1-8.9-5.1-10.4-8.9c-8.7-21.1,26.4-35.1,33-18.1
			C921.1,1019.8,898.5,1011.7,895,1025.9z"/>
		<path class="st8" d="M972.7,1198.7c-7.7,3.5-18.5,3.7-19.4,6c2,2,1,6.7-3.3,7.1c-8.1,0.7-16.4-10.6-6.7-20.7
			C960.7,1172.8,986.4,1192.4,972.7,1198.7z"/>
		<g>
			<path class="st8" d="M1050.1,1073.9c0.5-0.4,0-0.1,0.1-0.1C1050.2,1073.8,1050.1,1073.9,1050.1,1073.9
				C1050.1,1073.9,1050.1,1073.9,1050.1,1073.9z"/>
			<path class="st8" d="M1072.6,1050.4c-10.8-16.3-35.3-4-33.6,13c0.8,8,5.8,14.6,11.1,10.4
				C1055,1059.3,1080.6,1062.4,1072.6,1050.4z"/>
			<path class="st8" d="M1051.2,1073.1c-0.3,0.2-0.6,0.4-0.8,0.6C1050.3,1073.7,1050.2,1073.8,1051.2,1073.1z"/>
		</g>
		<path class="st8" d="M1033.4,856.8c-6.1-17.3-34.4-8.6-36.9,8.1c-2.9,18.9,18.5,30.8,15.5,16.8
			C1008.3,864.8,1037.3,868,1033.4,856.8z"/>
		<path class="st8" d="M1007.4,611.1c4.2,6.6,1-6.4-11.2-5.5c-25.5,1.9-30.4,35.2-13.8,38.8c4.9,3.6,9.7-7,6.4-2.8
			C994.2,622.8,1018.6,623.5,1007.4,611.1z"/>
		<path class="st8" d="M1134.6,593.9c0.6-0.8,2,4.7-2.3,5.2c-28,3.1-10.1-55.8,24.2-28.7C1175.4,585.2,1128.2,587,1134.6,593.9z"/>
		<path class="st8" d="M1140.9,733.1c-4.4,3.2-15,1.2-18.4,17.8c2.5,14.2-5.5,12.2-10,4.6c-18.1-30.4,17-51.5,34-36.5
			C1150.7,722.7,1149.9,731.3,1140.9,733.1z"/>
		<path class="st8" d="M1229.3,908.8c2.6-3.4-1.5,3.3-2.3,4.1c0.3,6.5-11,2.9-12.9-4.2c-6.9-24.6,31.5-31.6,31.4-13.8
			C1248.5,905.5,1230.9,903.9,1229.3,908.8z"/>
		<g>
			<path class="st8" d="M1229.9,1012.9c-13.3-14.8-46.5,7.9-36.7,29.7c11,24.5,16.4-5.8,18.1-8.4c5.8-6.6,9.3-4,13.8-5.9
				C1233.8,1024.6,1233.9,1017.4,1229.9,1012.9z"/>
			<path class="st8" d="M1206.2,1048.7C1206.5,1048.2,1206.6,1048.1,1206.2,1048.7C1206.1,1049,1206.2,1048.8,1206.2,1048.7z"/>
			<path class="st8" d="M1207.8,1043.9c0,0.2-0.1,0.4-0.1,0.5C1207.7,1044.3,1207.8,1044.1,1207.8,1043.9z"/>
			<path class="st8" d="M1206.1,1048.6c0,0,0,0.1,0,0.1C1206.1,1048.8,1206.1,1048.7,1206.1,1048.6
				C1206.1,1048.7,1206.1,1048.7,1206.1,1048.6z"/>
		</g>
		<g>
			<path class="st8" d="M1242.7,1182.2c-3.9-16.9-42.5-8.7-36.6,17.6c1.4,6.2,10.3,16.3,14.4,12.1c1.7-1.7-3.8-17.9,12.3-16.8
				C1241,1194,1244.1,1188.3,1242.7,1182.2z"/>
			<path class="st8" d="M1220.9,1207.2C1221,1207.3,1221.1,1207.4,1220.9,1207.2L1220.9,1207.2z"/>
		</g>
	</g>
	<g>
		<path class="st1" d="M963.8,2885.4c-2.4,78.8,51.3,65.7,62.5,44.5c6.1-11.4,4.7-13.7,8.2-140.9c0.3-10.8-3.1-15-16.3-13.5
			c-34,3.9-41.4-1.7-51.9,26.8C958.4,2824.1,964.4,2861.7,963.8,2885.4z"/>
		<path class="st2" d="M672.3,2816.1c39.3,25.9,626.6,34.3,639.9,18.4c63.4-75.9-255.1-974-284.2-1007.2
			c-48.1-54.9-127.1,234.8-168.5,351.4C803.2,2337.4,621.4,2782.6,672.3,2816.1z"/>
		<path class="st3" d="M1222,2761.5c-51.1-22.7-275.4-41-447.9-37c69-166.3,89.2-303.6,234.8-836c1.5-5.4-6.1-7.1-8.1-2.2
			c-229.4,557.8-192.1,634-293.6,853.2c-8.3,17.9,1.2,42.8,24,41.8c296.9-12.8,431.1,27.9,479.2,22.9
			C1239.3,2801.4,1238,2768.6,1222,2761.5z"/>
		<path class="st4" d="M1059.4,1769.2c40,6.1,45.3,4,50.1,9.3c8.7,9.6-37.4,36.7-41,48.6c-5.7,18.9,24.1,73.3-3,61.7
			c-66.4-28.5-32.4-33.9-88.9-4.1c-39.6,20.8-8.4-27.4-13.1-53.8c-3.1-17.2-44.7-44.2-43-51.8c0.9-3.9,29.5-6.3,41.5-8.1
			c35.3-5.1,16.6,4.8,49.7-56.9C1023.8,1691.6,1034,1765.3,1059.4,1769.2z"/>
		<path class="st1" d="M1051,2013.4c-11.4-40.5-78.3-36.2-70.8,19.5C991.5,2073.5,1058.4,2069,1051,2013.4z"/>
		<path class="st1" d="M1008.3,2391c-36.6,11.9-29.7,73.5,14.7,73.7C1092.9,2456,1055.3,2366.4,1008.3,2391z"/>
		<path class="st1" d="M788.2,2732.9c-11.8-42-81-37.4-73.2,20.2C726.7,2794.9,795.9,2790.6,788.2,2732.9z"/>
		<path class="st5" d="M1169.8,2282.1c-12-42.8-82.7-38.2-74.7,20.6C1107.1,2345.6,1177.7,2341,1169.8,2282.1z"/>
		<path class="st5" d="M778.2,2454.3c-52.4,0-49.4,77.2,0,77.2C830.5,2531.5,827.5,2454.3,778.2,2454.3z"/>
		<path class="st5" d="M1269.4,2741.8c-8.1-39.4-65.6-36.9-72.7-1.9C1183.1,2806.4,1282.4,2804.8,1269.4,2741.8z"/>
		<path class="st4" d="M941.7,2298.5c-11.8-42-81.3-37.6-73.5,20.3C880,2361,949.4,2356.2,941.7,2298.5z"/>
		<path class="st4" d="M1178.6,2132.8c-11.3-40.3-77.6-35.8-70.2,19.4C1119.7,2192.4,1186,2187.9,1178.6,2132.8z"/>
		<path class="st4" d="M1253.9,2574.6c-11.6-41.5-80.1-37.1-72.5,20C1193.1,2636.1,1261.5,2631.6,1253.9,2574.6z"/>
		<path class="st4" d="M1000,2746.1c-2.1-46.7-75.5-38.3-75.6,0c-5.3,19.8,18.4,49.4,48.6,41.3
			C993.2,2781.7,1003.4,2761.4,1000,2746.1z"/>
		<path class="st6" d="M1037.1,2175.6c-11.7-41.7-80.5-37.1-72.8,20.1C976,2237.4,1044.7,2232.8,1037.1,2175.6z"/>
		<path class="st6" d="M1097.1,2608.5c-11.4-40.6-78.4-36.2-70.9,19.6C1037.5,2668.7,1104.6,2664.3,1097.1,2608.5z"/>
		<path class="st7" d="M943.6,2101.2c-7-29.3-51.9-41.2-71.2-7.7C836.3,2156.5,954.7,2183.7,943.6,2101.2z"/>
		<path class="st7" d="M938,2565.9c-10.6-37.9-73.1-33.8-66.1,18.2C882.5,2622.1,945,2617.9,938,2565.9z"/>
		<path class="st7" d="M1233,2427.8c-37.4,0-37.5,56.8,0,56.8C1270.4,2484.6,1270.5,2427.8,1233,2427.8z"/>
		<path class="st8" d="M1001.3,2915.7c0.1,0.1-9.9-4.1-11.4-5.6c-5.1-5.2-3.8-32.8-6.3-51.8c-2.7-20.7-12.6,42.3-1.2,62.2
			C992,2937.3,1013.4,2923.6,1001.3,2915.7z"/>
		<path class="st8" d="M1019.7,1727.8c-3.4-16.1-31.2,53.6-10.8,33.6C1013.4,1757.1,1021.6,1736.9,1019.7,1727.8z"/>
		<path class="st8" d="M982.2,1776.2c-16.8-5.8-81.7,13.4-35.5,12.1C964.1,1787.8,996,1781,982.2,1776.2z"/>
		<path class="st8" d="M991.6,1838.9c-7.7-24.6-36.8,56.3-14.3,33.5C979.3,1870.5,993.7,1845.7,991.6,1838.9z"/>
		<path class="st8" d="M1095.1,1781.4c-19.3-0.5-54.4-4.2-52.9,8.5c1.5,12.5,39.2,1.6,53.8-1.4
			C1100.1,1787.6,1099,1781.5,1095.1,1781.4z"/>
		<path class="st8" d="M1068.2,1866.9c-34.5-46.8-56.1-18.5-5.1,5.1C1067.1,1873.9,1070.1,1869.5,1068.2,1866.9z"/>
		<path class="st8" d="M1028.5,2002.4c-20.1-14.5-50.1,13.6-33.8,33.7c6.1,7.5,3.4-17.8,30.4-21.3
			C1033,2013.8,1033.6,2006.1,1028.5,2002.4z"/>
		<path class="st8" d="M888.5,2117.9c-1.6,4.8,1.3,11.8-3.9,10.2c-10.7-3.4-16.2-21.1,0-33.3c11.2-8.5,24.6-5.7,28.2-1.9
			C924.7,2105.4,892.9,2105.3,888.5,2117.9z"/>
		<path class="st8" d="M766.5,2503.3c2.4,6.5-14.5,8.6-14.4-9.7c0.1-15.8,32.4-35,44.4-16.8C805.1,2489.8,766.9,2493.8,766.5,2503.3
			z"/>
		<path class="st8" d="M766.8,2726.3c-1.4-10.1-15.6-11.7-24.3-5.9c-27.9,18.7-9.2,51.3,2.1,33.6
			C758.6,2732.2,768.3,2738,766.8,2726.3z"/>
		<path class="st8" d="M913,2292.7c1.7-12.4-22.4-15.6-31.1,2.1c-3.4,7-4.3,15.5,0.7,21.5c8.4,11.6,9,1.8,11.8-6.7
			C898.8,2300.4,911.9,2301.5,913,2292.7z"/>
		<path class="st8" d="M895,2577.9c-1,4.2,1.2,5.8-1.7,7.4c-3.5,2.1-8.9-5.1-10.4-8.9c-8.7-21.1,26.4-35.1,33-18.1
			C921.1,2571.8,898.5,2563.7,895,2577.9z"/>
		<path class="st8" d="M972.7,2750.7c-7.7,3.5-18.5,3.7-19.4,6c2,2,1,6.7-3.3,7.1c-8.1,0.7-16.4-10.6-6.7-20.7
			C960.7,2724.8,986.4,2744.4,972.7,2750.7z"/>
		<g>
			<path class="st8" d="M1050.1,2625.9c0.5-0.4,0-0.1,0.1-0.1C1050.2,2625.8,1050.1,2625.9,1050.1,2625.9
				C1050.1,2625.9,1050.1,2625.9,1050.1,2625.9z"/>
			<path class="st8" d="M1072.6,2602.4c-10.8-16.3-35.3-4-33.6,13c0.8,8,5.8,14.6,11.1,10.4
				C1055,2611.3,1080.6,2614.4,1072.6,2602.4z"/>
			<path class="st8" d="M1051.2,2625.1c-0.3,0.2-0.6,0.4-0.8,0.6C1050.3,2625.7,1050.2,2625.8,1051.2,2625.1z"/>
		</g>
		<path class="st8" d="M1033.4,2408.8c-6.1-17.3-34.4-8.6-36.9,8.1c-2.9,18.9,18.5,30.8,15.5,16.8
			C1008.3,2416.8,1037.3,2420,1033.4,2408.8z"/>
		<path class="st8" d="M1007.4,2163.1c4.2,6.6,1-6.4-11.2-5.5c-25.5,1.9-30.4,35.2-13.8,38.8c4.9,3.6,9.7-7,6.4-2.8
			C994.2,2174.8,1018.6,2175.5,1007.4,2163.1z"/>
		<path class="st8" d="M1134.6,2145.9c0.6-0.8,2,4.7-2.3,5.2c-28,3.1-10.1-55.8,24.2-28.7C1175.4,2137.2,1128.2,2139,1134.6,2145.9z
			"/>
		<path class="st8" d="M1140.9,2285.1c-4.4,3.2-15,1.2-18.4,17.8c2.5,14.2-5.5,12.2-10,4.6c-18.1-30.4,17-51.5,34-36.5
			C1150.7,2274.7,1149.9,2283.3,1140.9,2285.1z"/>
		<path class="st8" d="M1229.3,2460.8c2.6-3.4-1.5,3.3-2.3,4.1c0.3,6.5-11,2.9-12.9-4.2c-6.9-24.6,31.5-31.6,31.4-13.8
			C1248.5,2457.5,1230.9,2455.9,1229.3,2460.8z"/>
		<g>
			<path class="st8" d="M1229.9,2564.9c-13.3-14.8-46.5,7.9-36.7,29.7c11,24.5,16.4-5.8,18.1-8.4c5.8-6.6,9.3-4,13.8-5.9
				C1233.8,2576.6,1233.9,2569.4,1229.9,2564.9z"/>
			<path class="st8" d="M1206.2,2600.7C1206.5,2600.2,1206.6,2600.1,1206.2,2600.7C1206.1,2601,1206.2,2600.8,1206.2,2600.7z"/>
			<path class="st8" d="M1207.8,2595.9c0,0.2-0.1,0.4-0.1,0.5C1207.7,2596.3,1207.8,2596.1,1207.8,2595.9z"/>
			<path class="st8" d="M1206.1,2600.6c0,0,0,0.1,0,0.1C1206.1,2600.8,1206.1,2600.7,1206.1,2600.6
				C1206.1,2600.7,1206.1,2600.7,1206.1,2600.6z"/>
		</g>
		<g>
			<path class="st8" d="M1242.7,2734.2c-3.9-16.9-42.5-8.7-36.6,17.6c1.4,6.2,10.3,16.3,14.4,12.1c1.7-1.7-3.8-17.9,12.3-16.8
				C1241,2746,1244.1,2740.3,1242.7,2734.2z"/>
			<path class="st8" d="M1220.9,2759.2C1221,2759.3,1221.1,2759.4,1220.9,2759.2L1220.9,2759.2z"/>
		</g>
	</g>
	<g>
		<path class="st1" d="M1955.8,2109.4c-2.4,78.8,51.3,65.7,62.5,44.5c6.1-11.4,4.7-13.7,8.2-140.9c0.3-10.8-3.1-15-16.3-13.5
			c-34,3.9-41.4-1.7-51.9,26.8C1950.4,2048.1,1956.4,2085.7,1955.8,2109.4z"/>
		<path class="st2" d="M1664.3,2040.1c39.3,25.9,626.6,34.3,639.9,18.4c63.4-75.9-255.1-974-284.2-1007.2
			c-48.1-54.9-127.1,234.8-168.5,351.4C1795.2,1561.4,1613.4,2006.6,1664.3,2040.1z"/>
		<path class="st3" d="M2214,1985.5c-51.1-22.7-275.4-41-447.9-37c69-166.3,89.2-303.6,234.8-836c1.5-5.4-6.1-7.1-8.1-2.2
			c-229.4,557.8-192.1,634-293.6,853.2c-8.3,17.9,1.2,42.8,24,41.8c296.9-12.8,431.1,27.9,479.2,22.9
			C2231.3,2025.4,2230,1992.6,2214,1985.5z"/>
		<path class="st4" d="M2051.4,993.2c40,6.1,45.3,4,50.1,9.3c8.7,9.6-37.4,36.7-41,48.6c-5.7,18.9,24.1,73.3-3,61.7
			c-66.4-28.5-32.4-33.9-88.9-4.1c-39.6,20.8-8.4-27.4-13.1-53.8c-3.1-17.2-44.7-44.2-43-51.8c0.9-3.9,29.5-6.3,41.5-8.1
			c35.3-5.1,16.6,4.8,49.7-56.9C2015.8,915.6,2026,989.3,2051.4,993.2z"/>
		<path class="st1" d="M2043,1237.4c-11.4-40.5-78.3-36.2-70.8,19.5C1983.5,1297.5,2050.4,1293,2043,1237.4z"/>
		<path class="st1" d="M2000.3,1615c-36.6,11.9-29.7,73.5,14.7,73.7C2084.9,1680,2047.3,1590.4,2000.3,1615z"/>
		<path class="st1" d="M1780.2,1956.9c-11.8-42-81-37.4-73.2,20.2C1718.7,2018.9,1787.9,2014.6,1780.2,1956.9z"/>
		<path class="st5" d="M2161.8,1506.1c-12-42.8-82.7-38.2-74.7,20.6C2099.1,1569.6,2169.7,1565,2161.8,1506.1z"/>
		<path class="st5" d="M1770.2,1678.3c-52.4,0-49.4,77.2,0,77.2C1822.5,1755.5,1819.5,1678.3,1770.2,1678.3z"/>
		<path class="st5" d="M2261.4,1965.8c-8.1-39.4-65.6-36.9-72.7-1.9C2175.1,2030.4,2274.4,2028.8,2261.4,1965.8z"/>
		<path class="st4" d="M1933.7,1522.5c-11.8-42-81.3-37.6-73.5,20.3C1872,1585,1941.4,1580.2,1933.7,1522.5z"/>
		<path class="st4" d="M2170.6,1356.8c-11.3-40.3-77.6-35.8-70.2,19.4C2111.7,1416.4,2178,1411.9,2170.6,1356.8z"/>
		<path class="st4" d="M2245.9,1798.6c-11.6-41.5-80.1-37.1-72.5,20C2185.1,1860.1,2253.5,1855.6,2245.9,1798.6z"/>
		<path class="st4" d="M1992,1970.1c-2.1-46.7-75.5-38.3-75.6,0c-5.3,19.8,18.4,49.4,48.6,41.3
			C1985.2,2005.7,1995.4,1985.4,1992,1970.1z"/>
		<path class="st6" d="M2029.1,1399.6c-11.7-41.7-80.5-37.1-72.8,20.1C1968,1461.4,2036.7,1456.8,2029.1,1399.6z"/>
		<path class="st6" d="M2089.1,1832.5c-11.4-40.6-78.4-36.2-70.9,19.6C2029.5,1892.7,2096.6,1888.3,2089.1,1832.5z"/>
		<path class="st7" d="M1935.6,1325.2c-7-29.3-51.9-41.2-71.2-7.7C1828.3,1380.5,1946.7,1407.7,1935.6,1325.2z"/>
		<path class="st7" d="M1930,1789.9c-10.6-37.9-73.1-33.8-66.1,18.2C1874.5,1846.1,1937,1841.9,1930,1789.9z"/>
		<path class="st7" d="M2225,1651.8c-37.4,0-37.5,56.8,0,56.8C2262.4,1708.6,2262.5,1651.8,2225,1651.8z"/>
		<path class="st8" d="M1993.3,2139.7c0.1,0.1-9.9-4.1-11.4-5.6c-5.1-5.2-3.8-32.8-6.3-51.8c-2.7-20.7-12.6,42.3-1.2,62.2
			C1984,2161.3,2005.4,2147.6,1993.3,2139.7z"/>
		<path class="st8" d="M2011.7,951.8c-3.4-16.1-31.2,53.6-10.8,33.6C2005.4,981.1,2013.6,960.9,2011.7,951.8z"/>
		<path class="st8" d="M1974.2,1000.2c-16.8-5.8-81.7,13.4-35.5,12.1C1956.1,1011.8,1988,1005,1974.2,1000.2z"/>
		<path class="st8" d="M1983.6,1062.9c-7.7-24.6-36.8,56.3-14.3,33.5C1971.3,1094.5,1985.7,1069.7,1983.6,1062.9z"/>
		<path class="st8" d="M2087.1,1005.4c-19.3-0.5-54.4-4.2-52.9,8.5c1.5,12.5,39.2,1.6,53.8-1.4
			C2092.1,1011.6,2091,1005.5,2087.1,1005.4z"/>
		<path class="st8" d="M2060.2,1090.9c-34.5-46.8-56.1-18.5-5.1,5.1C2059.1,1097.9,2062.1,1093.5,2060.2,1090.9z"/>
		<path class="st8" d="M2020.5,1226.4c-20.1-14.5-50.1,13.6-33.8,33.7c6.1,7.5,3.4-17.8,30.4-21.3
			C2025,1237.8,2025.6,1230.1,2020.5,1226.4z"/>
		<path class="st8" d="M1880.5,1341.9c-1.6,4.8,1.3,11.8-3.9,10.2c-10.7-3.4-16.2-21.1,0-33.3c11.2-8.5,24.6-5.7,28.2-1.9
			C1916.7,1329.4,1884.9,1329.3,1880.5,1341.9z"/>
		<path class="st8" d="M1758.5,1727.3c2.4,6.5-14.5,8.6-14.4-9.7c0.1-15.8,32.4-35,44.4-16.8
			C1797.1,1713.8,1758.9,1717.8,1758.5,1727.3z"/>
		<path class="st8" d="M1758.8,1950.3c-1.4-10.1-15.6-11.7-24.3-5.9c-27.9,18.7-9.2,51.3,2.1,33.6
			C1750.6,1956.2,1760.3,1962,1758.8,1950.3z"/>
		<path class="st8" d="M1905,1516.7c1.7-12.4-22.4-15.6-31.1,2.1c-3.4,7-4.3,15.5,0.7,21.5c8.4,11.6,9,1.8,11.8-6.7
			C1890.8,1524.4,1903.9,1525.5,1905,1516.7z"/>
		<path class="st8" d="M1887,1801.9c-1,4.2,1.2,5.8-1.7,7.4c-3.5,2.1-8.9-5.1-10.4-8.9c-8.7-21.1,26.4-35.1,33-18.1
			C1913.1,1795.8,1890.5,1787.7,1887,1801.9z"/>
		<path class="st8" d="M1964.7,1974.7c-7.7,3.5-18.5,3.7-19.4,6c2,2,1,6.7-3.3,7.1c-8.1,0.7-16.4-10.6-6.7-20.7
			C1952.7,1948.8,1978.4,1968.4,1964.7,1974.7z"/>
		<g>
			<path class="st8" d="M2042.1,1849.9c0.5-0.4,0-0.1,0.1-0.1C2042.2,1849.8,2042.1,1849.9,2042.1,1849.9
				C2042.1,1849.9,2042.1,1849.9,2042.1,1849.9z"/>
			<path class="st8" d="M2064.6,1826.4c-10.8-16.3-35.3-4-33.6,13c0.8,8,5.8,14.6,11.1,10.4
				C2047,1835.3,2072.6,1838.4,2064.6,1826.4z"/>
			<path class="st8" d="M2043.2,1849.1c-0.3,0.2-0.6,0.4-0.8,0.6C2042.3,1849.7,2042.2,1849.8,2043.2,1849.1z"/>
		</g>
		<path class="st8" d="M2025.4,1632.8c-6.1-17.3-34.4-8.6-36.9,8.1c-2.9,18.9,18.5,30.8,15.5,16.8
			C2000.3,1640.8,2029.3,1644,2025.4,1632.8z"/>
		<path class="st8" d="M1999.4,1387.1c4.2,6.6,1-6.4-11.2-5.5c-25.5,1.9-30.4,35.2-13.8,38.8c4.9,3.6,9.7-7,6.4-2.8
			C1986.2,1398.8,2010.6,1399.5,1999.4,1387.1z"/>
		<path class="st8" d="M2126.6,1369.9c0.6-0.8,2,4.7-2.3,5.2c-28,3.1-10.1-55.8,24.2-28.7C2167.4,1361.2,2120.2,1363,2126.6,1369.9z
			"/>
		<path class="st8" d="M2132.9,1509.1c-4.4,3.2-15,1.2-18.4,17.8c2.5,14.2-5.5,12.2-10,4.6c-18.1-30.4,17-51.5,34-36.5
			C2142.7,1498.7,2141.9,1507.3,2132.9,1509.1z"/>
		<path class="st8" d="M2221.3,1684.8c2.6-3.4-1.5,3.3-2.3,4.1c0.3,6.5-11,2.9-12.9-4.2c-6.9-24.6,31.5-31.6,31.4-13.8
			C2240.5,1681.5,2222.9,1679.9,2221.3,1684.8z"/>
		<g>
			<path class="st8" d="M2221.9,1788.9c-13.3-14.8-46.5,7.9-36.7,29.7c11,24.5,16.4-5.8,18.1-8.4c5.8-6.6,9.3-4,13.8-5.9
				C2225.8,1800.6,2225.9,1793.4,2221.9,1788.9z"/>
			<path class="st8" d="M2198.2,1824.7C2198.5,1824.2,2198.6,1824.1,2198.2,1824.7C2198.1,1825,2198.2,1824.8,2198.2,1824.7z"/>
			<path class="st8" d="M2199.8,1819.9c0,0.2-0.1,0.4-0.1,0.5C2199.7,1820.3,2199.8,1820.1,2199.8,1819.9z"/>
			<path class="st8" d="M2198.1,1824.6c0,0,0,0.1,0,0.1C2198.1,1824.8,2198.1,1824.7,2198.1,1824.6
				C2198.1,1824.7,2198.1,1824.7,2198.1,1824.6z"/>
		</g>
		<g>
			<path class="st8" d="M2234.7,1958.2c-3.9-16.9-42.5-8.7-36.6,17.6c1.4,6.2,10.3,16.3,14.4,12.1c1.7-1.7-3.8-17.9,12.3-16.8
				C2233,1970,2236.1,1964.3,2234.7,1958.2z"/>
			<path class="st8" d="M2212.9,1983.2C2213,1983.3,2213.1,1983.4,2212.9,1983.2L2212.9,1983.2z"/>
		</g>
	</g>
	<g>
		<path class="st2" d="M2201,3104H1796c22.3-59.5,42.3-112.2,55.5-149.2c41.4-116.6,120.4-406.3,168.5-351.4
			C2034.9,2620.3,2124.7,2861.4,2201,3104z"/>
		<path class="st3" d="M2000.9,2664.6c-52.1,190.7-88.2,330.6-116.2,439.4h-54.1c32.4-104.8,80.3-242.5,162.2-441.7
			C1994.8,2657.4,2002.4,2659.2,2000.9,2664.6z"/>
		<path class="st4" d="M2051.4,2545.2c40,6.1,45.3,4,50.1,9.3c8.7,9.6-37.4,36.7-41,48.6c-5.7,18.9,24.1,73.3-3,61.7
			c-66.4-28.5-32.4-33.9-88.9-4.1c-39.6,20.8-8.4-27.4-13.1-53.8c-3.1-17.2-44.7-44.2-43-51.8c0.9-3.9,29.5-6.3,41.5-8.1
			c35.3-5.1,16.6,4.8,49.7-56.9C2015.8,2467.6,2026,2541.3,2051.4,2545.2z"/>
		<path class="st1" d="M2043,2789.4c-11.4-40.5-78.3-36.2-70.8,19.5C1983.5,2849.5,2050.4,2845,2043,2789.4z"/>
		<path class="st5" d="M2140.5,3104h-31.2c-10.1-4.2-18.7-12.7-22.2-25.3c-7.9-58.8,62.7-63.4,74.7-20.6
			C2165.1,3082.8,2154.7,3097.9,2140.5,3104z"/>
		<path class="st4" d="M1929.6,3104H1864c-1.6-2.8-2.9-5.8-3.9-9.2c-7.8-57.8,61.7-62.3,73.5-20.3
			C1935.3,3086.7,1933.5,3096.5,1929.6,3104z"/>
		<path class="st4" d="M2170.6,2908.8c-11.3-40.3-77.6-35.8-70.2,19.4C2111.7,2968.4,2178,2963.9,2170.6,2908.8z"/>
		<path class="st6" d="M2029.1,2951.6c-11.7-41.7-80.5-37.1-72.8,20.1C1968,3013.4,2036.7,3008.8,2029.1,2951.6z"/>
		<path class="st7" d="M1935.6,2877.2c-7-29.3-51.9-41.2-71.2-7.7C1828.3,2932.5,1946.7,2959.7,1935.6,2877.2z"/>
		<path class="st8" d="M2011.7,2503.8c-3.4-16.1-31.2,53.6-10.8,33.6C2005.4,2533.1,2013.6,2512.9,2011.7,2503.8z"/>
		<path class="st8" d="M1974.2,2552.2c-16.8-5.8-81.7,13.4-35.5,12.1C1956.1,2563.8,1988,2557,1974.2,2552.2z"/>
		<path class="st8" d="M1983.6,2614.9c-7.7-24.6-36.8,56.3-14.3,33.5C1971.3,2646.5,1985.7,2621.7,1983.6,2614.9z"/>
		<path class="st8" d="M2087.1,2557.4c-19.3-0.5-54.4-4.2-52.9,8.5c1.5,12.5,39.2,1.6,53.8-1.4
			C2092.1,2563.6,2091,2557.5,2087.1,2557.4z"/>
		<path class="st8" d="M2060.2,2642.9c-34.5-46.8-56.1-18.5-5.1,5.1C2059.1,2649.9,2062.1,2645.5,2060.2,2642.9z"/>
		<path class="st8" d="M2020.5,2778.4c-20.1-14.5-50.1,13.6-33.8,33.7c6.1,7.5,3.4-17.8,30.4-21.3
			C2025,2789.8,2025.6,2782.1,2020.5,2778.4z"/>
		<path class="st8" d="M1880.5,2893.9c-1.6,4.8,1.3,11.8-3.9,10.2c-10.7-3.4-16.2-21.1,0-33.3c11.2-8.5,24.6-5.7,28.2-1.9
			C1916.7,2881.4,1884.9,2881.3,1880.5,2893.9z"/>
		<path class="st8" d="M1905,3068.7c1.7-12.4-22.4-15.6-31.1,2.1c-3.4,7-4.3,15.5,0.7,21.5c8.4,11.6,9,1.8,11.8-6.7
			C1890.8,3076.4,1903.9,3077.5,1905,3068.7z"/>
		<path class="st8" d="M1999.4,2939.1c4.2,6.6,1-6.4-11.2-5.5c-25.5,1.9-30.4,35.2-13.8,38.8c4.9,3.6,9.7-7,6.4-2.8
			C1986.2,2950.8,2010.6,2951.5,1999.4,2939.1z"/>
		<path class="st8" d="M2126.6,2921.9c0.6-0.8,2,4.7-2.3,5.2c-28,3.1-10.1-55.8,24.2-28.7C2167.4,2913.2,2120.2,2915,2126.6,2921.9z
			"/>
		<path class="st8" d="M2132.9,3061.1c-4.4,3.2-15,1.2-18.4,17.8c2.5,14.2-5.5,12.2-10,4.6c-18.1-30.4,17-51.5,34-36.5
			C2142.7,3050.7,2141.9,3059.3,2132.9,3061.1z"/>
	</g>
	<g>
		<path class="st2" d="M217,3104H0v-491.7c13-16.3,25.3-21.2,36-8.9C50.9,2620.3,140.7,2861.4,217,3104z"/>
		<path class="st3" d="M16.9,2664.6c-5.8,21.3-11.5,42-16.9,62.1v-43c2.9-7,5.8-14.2,8.8-21.4C10.8,2657.4,18.4,2659.2,16.9,2664.6z
			"/>
		<path class="st4" d="M76.6,2603.2c-5.7,18.9,24.1,73.3-3,61.7c-59.3-25.4-38.6-32.5-73.6-12.6v-121.1c3.4-7.9,8.7-20.5,19.7-41
			c12.1-22.6,22.3,51.1,47.7,55c40,6.1,45.3,4,50.1,9.4C126.3,2564.1,80.2,2591.2,76.6,2603.2z"/>
		<path class="st1" d="M0,2827.3v-56.7c18.3-15.5,51.3-8.6,59,18.8C65,2834.3,22.6,2845.9,0,2827.3z"/>
		<path class="st5" d="M156.5,3104h-31.2c-10.1-4.2-18.7-12.7-22.2-25.3c-7.9-58.8,62.7-63.4,74.7-20.6
			C181.1,3082.8,170.7,3097.9,156.5,3104z"/>
		<path class="st4" d="M186.6,2908.8c-11.3-40.3-77.6-35.8-70.2,19.4C127.7,2968.4,194,2963.9,186.6,2908.8z"/>
		<path class="st6" d="M0,2998.2v-73.4c18-3.8,39.1,5.4,45.1,26.8C50,2988.7,22.9,3003.7,0,2998.2z"/>
		<path class="st8" d="M27.7,2503.8c-3.4-16.1-31.2,53.6-10.8,33.6C21.4,2533.1,29.6,2512.9,27.7,2503.8z"/>
		<path class="st8" d="M103.1,2557.4c-19.3-0.5-54.4-4.2-52.9,8.5c1.5,12.5,39.2,1.6,53.8-1.4C108.1,2563.6,107,2557.5,103.1,2557.4
			z"/>
		<path class="st8" d="M76.2,2642.9c-34.5-46.8-56.1-18.5-5.1,5.1C75.1,2649.9,78.1,2645.5,76.2,2642.9z"/>
		<path class="st8" d="M33.2,2790.8c-27.1,3.5-24.4,28.8-30.4,21.3c-1.1-1.4-2-2.8-2.7-4.3v-17.2c5.8-12.9,23.3-21.8,36.5-12.3
			C41.6,2782.1,41,2789.8,33.2,2790.8z"/>
		<path class="st8" d="M0,2962.8v-28.6c1.3-0.3,2.7-0.5,4.2-0.6c10.2-0.7,14.2,8.4,12.6,7.3C23.1,2950,7.8,2951.4,0,2962.8z"/>
		<path class="st8" d="M142.6,2921.9c0.6-0.8,2,4.7-2.3,5.2c-28,3.1-10.1-55.8,24.2-28.7C183.4,2913.2,136.2,2915,142.6,2921.9z"/>
		<path class="st8" d="M148.9,3061.1c-4.4,3.2-15,1.2-18.4,17.8c2.5,14.2-5.5,12.2-10,4.6c-18.1-30.4,17-51.5,34-36.5
			C158.7,3050.7,157.9,3059.3,148.9,3061.1z"/>
	</g>
	<g>
		<path class="st2" d="M3968,2612.3V3104h-188c22.3-59.5,42.3-112.2,55.5-149.2C3867.7,2864.2,3922.5,2669,3968,2612.3z"/>
		<path class="st3" d="M3968,2683.7v43c-43.2,159.5-74.4,280.7-99.3,377.3h-54.1C3845.8,3003,3891.4,2871.4,3968,2683.7z"/>
		<path class="st4" d="M3968,2531.2v121.1c-4.2,2.4-9.3,5.2-15.4,8.4c-39.6,20.8-8.4-27.4-13.1-53.8c-3.1-17.2-44.7-44.2-43-51.8
			c0.9-3.9,29.5-6.3,41.5-8.1C3961.6,2543.7,3961.1,2546.9,3968,2531.2z"/>
		<path class="st1" d="M3968,2770.6v56.7c-5.4-4.4-9.7-10.6-11.9-18.4C3953.7,2790.8,3959.2,2778.1,3968,2770.6z"/>
		<path class="st4" d="M3913.6,3104H3848c-1.6-2.8-2.9-5.8-3.9-9.2c-7.8-57.8,61.7-62.3,73.5-20.3
			C3919.3,3086.7,3917.5,3096.5,3913.6,3104z"/>
		<path class="st6" d="M3968,2924.8v73.4c-12.4-2.9-23.6-11.9-27.7-26.6C3936.5,2943.8,3950.9,2928.4,3968,2924.8z"/>
		<path class="st7" d="M3919.6,2877.2c-7-29.3-51.9-41.2-71.2-7.7C3812.3,2932.5,3930.7,2959.7,3919.6,2877.2z"/>
		<path class="st8" d="M3958.2,2552.2c-16.8-5.8-81.7,13.4-35.5,12.1C3940.1,2563.8,3972,2557,3958.2,2552.2z"/>
		<path class="st8" d="M3967.6,2614.9c-7.7-24.6-36.8,56.3-14.3,33.5C3955.3,2646.5,3969.7,2621.7,3967.6,2614.9z"/>
		<path class="st8" d="M3968,2790.7v17.2C3965.2,2802.1,3965.6,2796,3968,2790.7z"/>
		<path class="st8" d="M3864.5,2893.9c-1.6,4.8,1.3,11.8-3.9,10.2c-10.7-3.4-16.2-21.1,0-33.3c11.2-8.5,24.6-5.7,28.2-1.9
			C3900.7,2881.4,3868.9,2881.3,3864.5,2893.9z"/>
		<path class="st8" d="M3889,3068.7c1.7-12.4-22.4-15.6-31.1,2.1c-3.4,7-4.3,15.5,0.7,21.5c8.4,11.6,9,1.8,11.8-6.7
			C3874.8,3076.4,3887.9,3077.5,3889,3068.7z"/>
		<path class="st8" d="M3968,2934.2v28.6c-1.3,1.9-2.4,4.1-3.2,6.7c3.2-4.2-1.5,6.4-6.4,2.8C3942.8,2969,3946.2,2939.2,3968,2934.2z
			"/>
	</g>
	<g>
		<path class="st1" d="M3968,449.8v167.8c-15.3-2.9-29.4-19-28.2-60.2c0.5-23.7-5.5-61.3,2.5-83.2
			C3949.3,455.2,3954.9,451.4,3968,449.8z"/>
		<path class="st2" d="M3968,0v512.8c-150.1-3.5-300.4-12-319.7-24.6C3609.3,462.4,3706.9,195,3780,0H3968z"/>
		<path class="st3" d="M3968,401.3v54.4c-68.3-4.6-154-6.9-260.8-2.3c-22.8,1-32.3-23.9-24-41.8c65.2-141,73.1-222.8,131.4-411.6
			h54.1c-50.2,195-74.3,289.8-118.6,396.6C3819.2,394.9,3896.7,396.9,3968,401.3z"/>
		<path class="st1" d="M3968,74.7v46.4C3958.5,107.4,3958.3,87.7,3968,74.7z"/>
		<path class="st1" d="M3764.2,404.9c-11.8-42-81-37.4-73.2,20.2C3702.7,466.9,3771.9,462.6,3764.2,404.9z"/>
		<path class="st5" d="M3754.2,126.3c-52.4,0-49.4,77.2,0,77.2C3806.5,203.5,3803.5,126.3,3754.2,126.3z"/>
		<path class="st4" d="M3913.6,0c-13.3,25.3-51.2,24.6-65.5,0H3913.6z"/>
		<path class="st4" d="M3968,397.2v49.9c-4.6,5.6-11,10.1-19,12.3c-30.3,8.1-53.9-21.5-48.6-41.3
			C3900.5,387.1,3948.5,375.7,3968,397.2z"/>
		<path class="st7" d="M3914,237.9c-10.6-37.9-73.1-33.8-66.1,18.2C3858.5,294.1,3921,289.9,3914,237.9z"/>
		<path class="st8" d="M3968,583.4v16.8c-3.5-0.8-7-3.1-9.6-7.7c-11.3-19.9-1.5-82.8,1.2-62.2c2.5,19,1.2,46.6,6.3,51.8
			C3966.3,582.4,3967,582.8,3968,583.4z"/>
		<path class="st8" d="M3742.5,175.3c2.4,6.5-14.5,8.6-14.4-9.7c0.1-15.8,32.4-35,44.4-16.8C3781.1,161.8,3742.9,165.8,3742.5,175.3
			z"/>
		<path class="st8" d="M3742.8,398.3c-1.4-10.1-15.6-11.7-24.3-5.9c-27.9,18.7-9.2,51.3,2.1,33.6
			C3734.6,404.2,3744.3,410,3742.8,398.3z"/>
		<path class="st8" d="M3871,249.9c-1,4.2,1.2,5.8-1.7,7.4c-3.5,2.1-8.9-5.1-10.4-8.9c-8.7-21.1,26.4-35.1,33-18.1
			C3897.1,243.8,3874.5,235.7,3871,249.9z"/>
		<path class="st8" d="M3948.7,422.7c-7.7,3.5-18.5,3.7-19.4,6c2,2,1,6.7-3.3,7.1c-8.1,0.7-16.4-10.6-6.7-20.7
			C3936.7,396.8,3962.4,416.4,3948.7,422.7z"/>
	</g>
	<g>
		<path class="st1" d="M1955.8,557.4c-2.4,78.8,51.3,65.7,62.5,44.5c6.1-11.4,4.7-13.7,8.2-140.9c0.3-10.8-3.1-15-16.3-13.5
			c-34,3.9-41.4-1.7-51.9,26.8C1950.4,496.1,1956.4,533.7,1955.8,557.4z"/>
		<path class="st2" d="M2304.2,506.6c-13.3,15.9-600.6,7.4-639.9-18.4C1625.3,462.4,1722.9,195,1796,0H2201
			C2274.5,233.9,2335.4,469.3,2304.2,506.6z"/>
		<path class="st3" d="M2202.4,476.3c-48.1,4.9-182.3-35.8-479.2-22.9c-22.8,1-32.3-23.9-24-41.8c65.2-141,73.1-222.8,131.4-411.6
			h54.1c-50.2,195-74.3,289.8-118.6,396.6c172.5-4.1,396.8,14.3,447.9,37C2230,440.6,2231.3,473.4,2202.4,476.3z"/>
		<path class="st1" d="M2000.3,63c-36.6,11.9-29.7,73.5,14.7,73.7C2084.9,128,2047.3,38.4,2000.3,63z"/>
		<path class="st1" d="M1780.2,404.9c-11.8-42-81-37.4-73.2,20.2C1718.7,466.9,1787.9,462.6,1780.2,404.9z"/>
		<path class="st5" d="M2140.5,0c-9.7,4.2-21.2,4.2-31.2,0H2140.5z"/>
		<path class="st5" d="M1770.2,126.3c-52.4,0-49.4,77.2,0,77.2C1822.5,203.5,1819.5,126.3,1770.2,126.3z"/>
		<path class="st5" d="M2261.4,413.8c-8.1-39.4-65.6-36.9-72.7-1.9C2175.1,478.4,2274.4,476.8,2261.4,413.8z"/>
		<path class="st4" d="M1929.6,0c-13.3,25.3-51.2,24.6-65.5,0H1929.6z"/>
		<path class="st4" d="M2245.9,246.6c-11.6-41.5-80.1-37.1-72.5,20C2185.1,308.1,2253.5,303.6,2245.9,246.6z"/>
		<path class="st4" d="M1992,418.1c-2.1-46.7-75.5-38.3-75.6,0c-5.3,19.8,18.4,49.4,48.6,41.3C1985.2,453.7,1995.4,433.4,1992,418.1
			z"/>
		<path class="st6" d="M2089.1,280.5c-11.4-40.6-78.4-36.2-70.9,19.6C2029.5,340.7,2096.6,336.3,2089.1,280.5z"/>
		<path class="st7" d="M1930,237.9c-10.6-37.9-73.1-33.8-66.1,18.2C1874.5,294.1,1937,289.9,1930,237.9z"/>
		<path class="st7" d="M2225,99.8c-37.4,0-37.5,56.8,0,56.8C2262.4,156.6,2262.5,99.8,2225,99.8z"/>
		<path class="st8" d="M1993.3,587.7c0.1,0.1-9.9-4.1-11.4-5.6c-5.1-5.2-3.8-32.8-6.3-51.8c-2.7-20.7-12.6,42.3-1.2,62.2
			C1984,609.3,2005.4,595.6,1993.3,587.7z"/>
		<path class="st8" d="M1758.5,175.3c2.4,6.5-14.5,8.6-14.4-9.7c0.1-15.8,32.4-35,44.4-16.8C1797.1,161.8,1758.9,165.8,1758.5,175.3
			z"/>
		<path class="st8" d="M1758.8,398.3c-1.4-10.1-15.6-11.7-24.3-5.9c-27.9,18.7-9.2,51.3,2.1,33.6
			C1750.6,404.2,1760.3,410,1758.8,398.3z"/>
		<path class="st8" d="M1887,249.9c-1,4.2,1.2,5.8-1.7,7.4c-3.5,2.1-8.9-5.1-10.4-8.9c-8.7-21.1,26.4-35.1,33-18.1
			C1913.1,243.8,1890.5,235.7,1887,249.9z"/>
		<path class="st8" d="M1964.7,422.7c-7.7,3.5-18.5,3.7-19.4,6c2,2,1,6.7-3.3,7.1c-8.1,0.7-16.4-10.6-6.7-20.7
			C1952.7,396.8,1978.4,416.4,1964.7,422.7z"/>
		<g>
			<path class="st8" d="M2042.1,297.9c0.5-0.4,0-0.1,0.1-0.1C2042.2,297.8,2042.1,297.9,2042.1,297.9
				C2042.1,297.9,2042.1,297.9,2042.1,297.9z"/>
			<path class="st8" d="M2064.6,274.4c-10.8-16.3-35.3-4-33.6,13c0.8,8,5.8,14.6,11.1,10.4C2047,283.3,2072.6,286.4,2064.6,274.4z"
				/>
			<path class="st8" d="M2043.2,297.1c-0.3,0.2-0.6,0.4-0.8,0.6C2042.3,297.7,2042.2,297.8,2043.2,297.1z"/>
		</g>
		<path class="st8" d="M2025.4,80.8c-6.1-17.3-34.4-8.6-36.9,8.1c-2.9,18.9,18.5,30.8,15.5,16.8C2000.3,88.8,2029.3,92,2025.4,80.8z
			"/>
		<path class="st8" d="M2221.3,132.8c2.6-3.4-1.5,3.3-2.3,4.1c0.3,6.5-11,2.9-12.9-4.2c-6.9-24.6,31.5-31.6,31.4-13.8
			C2240.5,129.5,2222.9,127.9,2221.3,132.8z"/>
		<g>
			<path class="st8" d="M2221.9,236.9c-13.3-14.8-46.5,7.9-36.7,29.7c11,24.5,16.4-5.8,18.1-8.4c5.8-6.6,9.3-4,13.8-5.9
				C2225.8,248.6,2225.9,241.4,2221.9,236.9z"/>
			<path class="st8" d="M2198.2,272.7C2198.5,272.2,2198.6,272.1,2198.2,272.7C2198.1,273,2198.2,272.8,2198.2,272.7z"/>
			<path class="st8" d="M2199.8,267.9c0,0.2-0.1,0.4-0.1,0.5C2199.7,268.3,2199.8,268.1,2199.8,267.9z"/>
			<path class="st8" d="M2198.1,272.6c0,0,0,0.1,0,0.1C2198.1,272.8,2198.1,272.7,2198.1,272.6
				C2198.1,272.7,2198.1,272.7,2198.1,272.6z"/>
		</g>
		<g>
			<path class="st8" d="M2234.7,406.2c-3.9-16.9-42.5-8.7-36.6,17.6c1.4,6.2,10.3,16.3,14.4,12.1c1.7-1.7-3.8-17.9,12.3-16.8
				C2233,418,2236.1,412.3,2234.7,406.2z"/>
			<path class="st8" d="M2212.9,431.2C2213,431.3,2213.1,431.4,2212.9,431.2L2212.9,431.2z"/>
		</g>
	</g>
	<g>
		<path class="st1" d="M42.5,461c-3.5,127.2-2.1,129.5-8.2,140.9C29,612,14,620.3,0,617.6V449.8c6.5-0.8,14.9-1,26.2-2.3
			C39.4,446,42.8,450.2,42.5,461z"/>
		<path class="st2" d="M320.2,506.6c-6.8,8.1-163.4,9.9-320.2,6.2V0h217C290.5,233.9,351.4,469.3,320.2,506.6z"/>
		<path class="st3" d="M218.4,476.3c-30.8,3.2-96.9-12.4-218.4-20.6v-54.4c106.6,6.6,199.4,18.6,230,32.2
			C246,440.6,247.3,473.4,218.4,476.3z"/>
		<path class="st1" d="M31.1,136.7c-14.3,0-24.8-6.5-31.1-15.6V74.7c3.9-5.2,9.3-9.3,16.3-11.6C63.3,38.4,100.9,128,31.1,136.7z"/>
		<path class="st5" d="M156.5,0c-9.7,4.2-21.2,4.2-31.2,0H156.5z"/>
		<path class="st5" d="M277.4,413.8c-8.1-39.4-65.6-36.9-72.7-1.9C191.1,478.4,290.4,476.8,277.4,413.8z"/>
		<path class="st4" d="M261.9,246.6c-11.6-41.5-80.1-37.1-72.5,20C201.1,308.1,269.5,303.6,261.9,246.6z"/>
		<path class="st4" d="M0,447.1v-49.9c4.6,5.1,7.6,12,8,20.9C10.1,427.4,7.2,438.5,0,447.1z"/>
		<path class="st6" d="M105.1,280.5c-11.4-40.6-78.4-36.2-70.9,19.6C45.5,340.7,112.6,336.3,105.1,280.5z"/>
		<path class="st7" d="M241,99.8c-37.4,0-37.5,56.8,0,56.8C278.4,156.6,278.5,99.8,241,99.8z"/>
		<path class="st8" d="M0,600.1v-16.8c3.3,1.8,9.2,4.3,9.3,4.3C18.1,593.4,9.2,602.2,0,600.1z"/>
		<g>
			<path class="st8" d="M58.1,297.9c0.5-0.4,0-0.1,0.1-0.1C58.2,297.8,58.1,297.9,58.1,297.9C58.1,297.9,58.1,297.9,58.1,297.9z"/>
			<path class="st8" d="M80.6,274.4c-10.8-16.3-35.3-4-33.6,13c0.8,8,5.8,14.6,11.1,10.4C63,283.3,88.6,286.4,80.6,274.4z"/>
			<path class="st8" d="M59.2,297.1c-0.3,0.2-0.6,0.4-0.8,0.6C58.3,297.7,58.2,297.8,59.2,297.1z"/>
		</g>
		<path class="st8" d="M41.4,80.8c-6.1-17.3-34.4-8.6-36.9,8.1c-2.9,18.9,18.5,30.8,15.5,16.8C16.3,88.8,45.3,92,41.4,80.8z"/>
		<path class="st8" d="M237.3,132.8c2.6-3.4-1.5,3.3-2.3,4.1c0.3,6.5-11,2.9-12.9-4.2c-6.9-24.6,31.5-31.6,31.4-13.8
			C256.5,129.5,238.9,127.9,237.3,132.8z"/>
		<g>
			<path class="st8" d="M237.9,236.9c-13.3-14.8-46.5,7.9-36.7,29.7c11,24.5,16.4-5.8,18.1-8.4c5.8-6.6,9.3-4,13.8-5.9
				C241.8,248.6,241.9,241.4,237.9,236.9z"/>
			<path class="st8" d="M214.2,272.7C214.5,272.2,214.6,272.1,214.2,272.7C214.1,273,214.2,272.8,214.2,272.7z"/>
			<path class="st8" d="M215.8,267.9c0,0.2-0.1,0.4-0.1,0.5C215.7,268.3,215.8,268.1,215.8,267.9z"/>
			<path class="st8" d="M214.1,272.6c0,0,0,0.1,0,0.1C214.1,272.8,214.1,272.7,214.1,272.6C214.1,272.7,214.1,272.7,214.1,272.6z"/>
		</g>
		<g>
			<path class="st8" d="M250.7,406.2c-3.9-16.9-42.5-8.7-36.6,17.6c1.4,6.2,10.3,16.3,14.4,12.1c1.7-1.7-3.8-17.9,12.3-16.8
				C249,418,252.1,412.3,250.7,406.2z"/>
			<path class="st8" d="M228.9,431.2C229,431.3,229.1,431.4,228.9,431.2L228.9,431.2z"/>
		</g>
	</g>
	<g>
		<path class="st1" d="M3968,2001.8v167.8c-15.3-2.9-29.4-19-28.2-60.2c0.5-23.7-5.5-61.3,2.5-83.2
			C3949.3,2007.2,3954.9,2003.4,3968,2001.8z"/>
		<path class="st2" d="M3968,1060.3v1004.5c-150.1-3.5-300.4-12-319.7-24.6c-51-33.5,130.9-478.7,187.2-637.4
			C3867.7,1312.2,3922.5,1117,3968,1060.3z"/>
		<path class="st3" d="M3968,1174.7c-130.4,481.4-151.7,614.3-217.9,773.9c69.2-1.6,146.6,0.3,217.9,4.8v54.4
			c-68.3-4.6-154-6.9-260.8-2.3c-22.8,1-32.3-23.9-24-41.8c100.2-216.4,65.1-293.5,284.8-831.9V1174.7z"/>
		<path class="st4" d="M3968,979.2v121.1c-4.2,2.4-9.3,5.2-15.4,8.4c-39.6,20.8-8.4-27.4-13.1-53.8c-3.1-17.2-44.7-44.2-43-51.8
			c0.9-3.9,29.5-6.3,41.5-8.1C3961.6,991.7,3961.1,994.9,3968,979.2z"/>
		<path class="st1" d="M3968,1218.6v56.7c-5.4-4.4-9.7-10.6-11.9-18.4C3953.7,1238.8,3959.2,1226.1,3968,1218.6z"/>
		<path class="st1" d="M3968,1626.7v46.4C3958.5,1659.4,3958.3,1639.7,3968,1626.7z"/>
		<path class="st1" d="M3764.2,1956.9c-11.8-42-81-37.4-73.2,20.2C3702.7,2018.9,3771.9,2014.6,3764.2,1956.9z"/>
		<path class="st5" d="M3754.2,1678.3c-52.4,0-49.4,77.2,0,77.2C3806.5,1755.5,3803.5,1678.3,3754.2,1678.3z"/>
		<path class="st4" d="M3917.7,1522.5c-11.8-42-81.3-37.6-73.5,20.3C3856,1585,3925.4,1580.2,3917.7,1522.5z"/>
		<path class="st4" d="M3968,1949.2v49.9c-4.6,5.6-11,10.1-19,12.3c-30.3,8.1-53.9-21.5-48.6-41.3
			C3900.5,1939.1,3948.5,1927.7,3968,1949.2z"/>
		<path class="st6" d="M3968,1372.8v73.4c-12.4-2.9-23.6-11.9-27.7-26.6C3936.5,1391.8,3950.9,1376.4,3968,1372.8z"/>
		<path class="st7" d="M3919.6,1325.2c-7-29.3-51.9-41.2-71.2-7.7C3812.3,1380.5,3930.7,1407.7,3919.6,1325.2z"/>
		<path class="st7" d="M3914,1789.9c-10.6-37.9-73.1-33.8-66.1,18.2C3858.5,1846.1,3921,1841.9,3914,1789.9z"/>
		<path class="st8" d="M3968,2135.4v16.8c-3.5-0.8-7-3.1-9.6-7.7c-11.3-19.9-1.5-82.8,1.2-62.2c2.5,19,1.2,46.6,6.3,51.8
			C3966.3,2134.4,3967,2134.8,3968,2135.4z"/>
		<path class="st8" d="M3958.2,1000.2c-16.8-5.8-81.7,13.4-35.5,12.1C3940.1,1011.8,3972,1005,3958.2,1000.2z"/>
		<path class="st8" d="M3967.6,1062.9c-7.7-24.6-36.8,56.3-14.3,33.5C3955.3,1094.5,3969.7,1069.7,3967.6,1062.9z"/>
		<path class="st8" d="M3968,1238.7v17.2C3965.2,1250.1,3965.6,1244,3968,1238.7z"/>
		<path class="st8" d="M3864.5,1341.9c-1.6,4.8,1.3,11.8-3.9,10.2c-10.7-3.4-16.2-21.1,0-33.3c11.2-8.5,24.6-5.7,28.2-1.9
			C3900.7,1329.4,3868.9,1329.3,3864.5,1341.9z"/>
		<path class="st8" d="M3742.5,1727.3c2.4,6.5-14.5,8.6-14.4-9.7c0.1-15.8,32.4-35,44.4-16.8
			C3781.1,1713.8,3742.9,1717.8,3742.5,1727.3z"/>
		<path class="st8" d="M3742.8,1950.3c-1.4-10.1-15.6-11.7-24.3-5.9c-27.9,18.7-9.2,51.3,2.1,33.6
			C3734.6,1956.2,3744.3,1962,3742.8,1950.3z"/>
		<path class="st8" d="M3889,1516.7c1.7-12.4-22.4-15.6-31.1,2.1c-3.4,7-4.3,15.5,0.7,21.5c8.4,11.6,9,1.8,11.8-6.7
			C3874.8,1524.4,3887.9,1525.5,3889,1516.7z"/>
		<path class="st8" d="M3871,1801.9c-1,4.2,1.2,5.8-1.7,7.4c-3.5,2.1-8.9-5.1-10.4-8.9c-8.7-21.1,26.4-35.1,33-18.1
			C3897.1,1795.8,3874.5,1787.7,3871,1801.9z"/>
		<path class="st8" d="M3948.7,1974.7c-7.7,3.5-18.5,3.7-19.4,6c2,2,1,6.7-3.3,7.1c-8.1,0.7-16.4-10.6-6.7-20.7
			C3936.7,1948.8,3962.4,1968.4,3948.7,1974.7z"/>
		<path class="st8" d="M3968,1382.2v28.6c-1.3,1.9-2.4,4.1-3.2,6.7c3.2-4.2-1.5,6.4-6.4,2.8C3942.8,1417,3946.2,1387.2,3968,1382.2z
			"/>
	</g>
	<g>
		<path class="st1" d="M42.5,2013c-3.5,127.2-2.1,129.5-8.2,140.9C29,2164,14,2172.3,0,2169.6v-167.8c6.5-0.8,14.9-1,26.2-2.3
			C39.4,1998,42.8,2002.2,42.5,2013z"/>
		<path class="st2" d="M320.2,2058.6c-6.8,8.1-163.4,9.9-320.2,6.2V1060.3c13-16.3,25.3-21.2,36-8.9
			C65.2,1084.6,383.7,1982.7,320.2,2058.6z"/>
		<path class="st3" d="M16.9,1112.6c-5.8,21.3-11.5,42-16.9,62.1v-43c2.9-7,5.8-14.2,8.8-21.4C10.8,1105.4,18.4,1107.2,16.9,1112.6z
			"/>
		<path class="st3" d="M218.4,2028.3c-30.8,3.2-96.9-12.4-218.4-20.6v-54.4c106.6,6.6,199.4,18.6,230,32.2
			C246,1992.6,247.3,2025.4,218.4,2028.3z"/>
		<path class="st4" d="M76.6,1051.2c-5.7,18.9,24.1,73.3-3,61.7c-59.3-25.4-38.6-32.5-73.6-12.6V979.2c3.4-7.9,8.7-20.5,19.7-41
			c12.1-22.6,22.3,51.1,47.7,55c40,6.1,45.3,4,50.1,9.4C126.3,1012.1,80.2,1039.2,76.6,1051.2z"/>
		<path class="st1" d="M0,1275.3v-56.7c18.3-15.5,51.3-8.6,59,18.8C65,1282.3,22.6,1293.9,0,1275.3z"/>
		<path class="st1" d="M31.1,1688.7c-14.3,0-24.8-6.5-31.1-15.6v-46.4c3.9-5.2,9.3-9.3,16.3-11.6
			C63.3,1590.4,100.9,1680,31.1,1688.7z"/>
		<path class="st5" d="M177.8,1506.1c-12-42.8-82.7-38.2-74.7,20.6C115.1,1569.6,185.7,1565,177.8,1506.1z"/>
		<path class="st5" d="M277.4,1965.8c-8.1-39.4-65.6-36.9-72.7-1.9C191.1,2030.4,290.4,2028.8,277.4,1965.8z"/>
		<path class="st4" d="M186.6,1356.8c-11.3-40.3-77.6-35.8-70.2,19.4C127.7,1416.4,194,1411.9,186.6,1356.8z"/>
		<path class="st4" d="M261.9,1798.6c-11.6-41.5-80.1-37.1-72.5,20C201.1,1860.1,269.5,1855.6,261.9,1798.6z"/>
		<path class="st4" d="M0,1999.1v-49.9c4.6,5.1,7.6,12,8,20.9C10.1,1979.4,7.2,1990.5,0,1999.1z"/>
		<path class="st6" d="M0,1446.2v-73.4c18-3.8,39.1,5.4,45.1,26.8C50,1436.7,22.9,1451.7,0,1446.2z"/>
		<path class="st6" d="M105.1,1832.5c-11.4-40.6-78.4-36.2-70.9,19.6C45.5,1892.7,112.6,1888.3,105.1,1832.5z"/>
		<path class="st7" d="M241,1651.8c-37.4,0-37.5,56.8,0,56.8C278.4,1708.6,278.5,1651.8,241,1651.8z"/>
		<path class="st8" d="M0,2152.1v-16.8c3.3,1.8,9.2,4.3,9.3,4.3C18.1,2145.4,9.2,2154.2,0,2152.1z"/>
		<path class="st8" d="M27.7,951.8c-3.4-16.1-31.2,53.6-10.8,33.6C21.4,981.1,29.6,960.9,27.7,951.8z"/>
		<path class="st8" d="M103.1,1005.4c-19.3-0.5-54.4-4.2-52.9,8.5c1.5,12.5,39.2,1.6,53.8-1.4C108.1,1011.6,107,1005.5,103.1,1005.4
			z"/>
		<path class="st8" d="M76.2,1090.9c-34.5-46.8-56.1-18.5-5.1,5.1C75.1,1097.9,78.1,1093.5,76.2,1090.9z"/>
		<path class="st8" d="M33.2,1238.8c-27.1,3.5-24.4,28.8-30.4,21.3c-1.1-1.4-2-2.8-2.7-4.3v-17.2c5.8-12.9,23.3-21.8,36.5-12.3
			C41.6,1230.1,41,1237.8,33.2,1238.8z"/>
		<g>
			<path class="st8" d="M58.1,1849.9c0.5-0.4,0-0.1,0.1-0.1C58.2,1849.8,58.1,1849.9,58.1,1849.9
				C58.1,1849.9,58.1,1849.9,58.1,1849.9z"/>
			<path class="st8" d="M80.6,1826.4c-10.8-16.3-35.3-4-33.6,13c0.8,8,5.8,14.6,11.1,10.4C63,1835.3,88.6,1838.4,80.6,1826.4z"/>
			<path class="st8" d="M59.2,1849.1c-0.3,0.2-0.6,0.4-0.8,0.6C58.3,1849.7,58.2,1849.8,59.2,1849.1z"/>
		</g>
		<path class="st8" d="M41.4,1632.8c-6.1-17.3-34.4-8.6-36.9,8.1c-2.9,18.9,18.5,30.8,15.5,16.8C16.3,1640.8,45.3,1644,41.4,1632.8z
			"/>
		<path class="st8" d="M0,1410.8v-28.6c1.3-0.3,2.7-0.5,4.2-0.6c10.2-0.7,14.2,8.4,12.6,7.3C23.1,1398,7.8,1399.4,0,1410.8z"/>
		<path class="st8" d="M142.6,1369.9c0.6-0.8,2,4.7-2.3,5.2c-28,3.1-10.1-55.8,24.2-28.7C183.4,1361.2,136.2,1363,142.6,1369.9z"/>
		<path class="st8" d="M148.9,1509.1c-4.4,3.2-15,1.2-18.4,17.8c2.5,14.2-5.5,12.2-10,4.6c-18.1-30.4,17-51.5,34-36.5
			C158.7,1498.7,157.9,1507.3,148.9,1509.1z"/>
		<path class="st8" d="M237.3,1684.8c2.6-3.4-1.5,3.3-2.3,4.1c0.3,6.5-11,2.9-12.9-4.2c-6.9-24.6,31.5-31.6,31.4-13.8
			C256.5,1681.5,238.9,1679.9,237.3,1684.8z"/>
		<g>
			<path class="st8" d="M237.9,1788.9c-13.3-14.8-46.5,7.9-36.7,29.7c11,24.5,16.4-5.8,18.1-8.4c5.8-6.6,9.3-4,13.8-5.9
				C241.8,1800.6,241.9,1793.4,237.9,1788.9z"/>
			<path class="st8" d="M214.2,1824.7C214.5,1824.2,214.6,1824.1,214.2,1824.7C214.1,1825,214.2,1824.8,214.2,1824.7z"/>
			<path class="st8" d="M215.8,1819.9c0,0.2-0.1,0.4-0.1,0.5C215.7,1820.3,215.8,1820.1,215.8,1819.9z"/>
			<path class="st8" d="M214.1,1824.6c0,0,0,0.1,0,0.1C214.1,1824.8,214.1,1824.7,214.1,1824.6
				C214.1,1824.7,214.1,1824.7,214.1,1824.6z"/>
		</g>
		<g>
			<path class="st8" d="M250.7,1958.2c-3.9-16.9-42.5-8.7-36.6,17.6c1.4,6.2,10.3,16.3,14.4,12.1c1.7-1.7-3.8-17.9,12.3-16.8
				C249,1970,252.1,1964.3,250.7,1958.2z"/>
			<path class="st8" d="M228.9,1983.2C229,1983.3,229.1,1983.4,228.9,1983.2L228.9,1983.2z"/>
		</g>
	</g>
</g>
</svg>
