<svg viewBox="0 0 400 300" fill="none" xmlns="http://www.w3.org/2000/svg"><style><![CDATA[*{animation:none!important}]]></style>
            <g class="anim-float">
                <rect x="140" y="60" width="120" height="200" rx="8" fill="#6366f1"/>
                <rect x="150" y="70" width="100" height="30" rx="4" fill="#ffffff"/>
                <rect x="150" y="110" width="100" height="30" rx="4" fill="#ffffff"/>
                <rect x="150" y="150" width="100" height="30" rx="4" fill="#ffffff"/>
                <rect x="150" y="190" width="100" height="30" rx="4" fill="#ffffff"/>
                
                <g class="anim-pulse">
                    <circle cx="165" cy="85" r="4" fill="#0ea5e9"/>
                    <circle cx="165" cy="125" r="4" fill="#f43f5e"/>
                    <circle cx="165" cy="165" r="4" fill="#0ea5e9"/>
                    <circle cx="165" cy="205" r="4" fill="#f43f5e"/>
                </g>
                <circle cx="180" cy="85" r="4" fill="#334155"/>
                <circle cx="180" cy="125" r="4" fill="#334155"/>
                <circle cx="180" cy="165" r="4" fill="#334155"/>
                <circle cx="180" cy="205" r="4" fill="#334155"/>
                
                <path d="M220 85 H240 M220 125 H240 M220 165 H240 M220 205 H240" stroke="#334155" stroke-width="4" stroke-linecap="round"/>
            </g>
          </svg>